<svg width="72" height="36" viewBox="0 0 72 36" fill="none" xmlns="http://www.w3.org/2000/svg">
<path d="M16.3116 21.55C18.7276 21.1797 21.1479 21.1066 23.3894 20.418C25.8427 19.6812 28.3561 18.6922 30.4377 17.2048C32.9198 15.5071 33.4712 12.4587 32.2875 9.86461C31.0165 7.11135 28.4507 5.9052 25.4266 6.83139C21.5143 8.01921 18.5155 10.7292 15.9487 13.9375C15.2805 14.7456 14.7825 15.5746 14.2202 16.3587C7.99523 16.2231 6.67257 14.3167 2.47634 0C0.207693 0.277221 -0.0430434 2.06413 0.00514322 3.96203C-0.0307033 10.4126 4.79078 17.9061 10.24 20.2463C10.8378 20.4682 11.3298 20.7143 12.0335 20.9122C12.0462 21.8041 11.9301 22.6059 11.9199 23.3837C11.9358 28.9874 14.7826 33.5298 19.8372 35.0052C22.7164 35.8418 25.8632 36.0808 28.9414 35.9774C34.1637 35.8041 39.1304 34.0782 43.8126 31.761C49.5076 28.9748 55.0282 25.8704 60.7003 22.9701C61.5014 22.5493 62.4084 22.1045 63.5271 21.6115C63.1561 23.903 62.6521 25.8071 62.5945 27.7291C62.5199 28.4619 63.3049 29.894 63.6868 29.8668C64.3863 29.7674 65.1831 29.0494 65.9843 28.6286C66.1316 28.5355 66.1689 28.1691 66.2934 27.9618C67.8534 24.1473 69.4549 20.2637 71.1208 16.4251C72.602 13.0461 72.3548 12.0882 69.2741 10.5219C65.7014 8.70959 61.9153 8.31776 58.119 8.70372C56.8674 8.80935 55.6615 9.14319 55.7554 11.2693C58.5913 13.5474 62.3106 12.2245 65.8604 13.9228C64.746 14.7131 63.9906 15.362 63.1895 15.7828C56.214 19.6356 49.3258 23.6475 42.153 27.0679C38.272 28.9644 34.0192 30.1104 29.8909 31.049C27.3504 31.6267 24.4382 31.4537 21.8393 30.9112C17.5155 30.0451 15.7483 26.7485 16.3116 21.55ZM19.8372 17.05C19.6627 16.7318 19.5942 16.3895 19.4197 16.0712C20.8763 13.9505 22.7233 12.3971 24.9378 11.2971C27.005 10.2902 28.3666 10.4578 28.7883 11.734C29.2828 13.6497 27.9337 14.374 26.7092 14.891C24.449 15.7628 22.0787 16.3614 19.8372 17.05Z" fill="#514AF3"/>
</svg>
