<svg width="77" height="100" viewBox="0 0 77 100" fill="none" xmlns="http://www.w3.org/2000/svg">
<path d="M39.6762 37.1457C39.0976 37.1457 38.643 37.3484 38.2917 37.7741C37.9404 38.1998 37.7544 38.7472 37.7544 39.4161C37.7544 40.1054 37.9404 40.6527 38.2917 41.0784C38.643 41.5041 39.1183 41.7068 39.6762 41.7068C40.5442 41.7068 41.1848 41.3419 41.5567 40.6324L43.8918 41.9501C43.5199 42.6799 42.9413 43.2272 42.1767 43.6326C41.4121 44.0381 40.5235 44.2205 39.5109 44.2205C38.519 44.2205 37.6718 44.0178 36.9072 43.6326C36.1632 43.2475 35.5846 42.6799 35.1713 41.9501C34.758 41.2203 34.5514 40.3892 34.5514 39.4364C34.5514 38.4634 34.758 37.6119 35.1713 36.8822C35.5846 36.1524 36.1632 35.5645 36.9278 35.1793C37.6718 34.7739 38.5397 34.5712 39.5316 34.5712C40.4822 34.5712 41.3501 34.7739 42.094 35.1591C42.8379 35.5442 43.4166 36.0916 43.8298 36.8011L41.5361 38.1187C41.1021 37.47 40.4822 37.1457 39.6762 37.1457Z" fill="black" fill-opacity="0.87"/>
<path d="M47.942 30.8006C48.252 31.1047 48.4173 31.5101 48.4173 31.9967C48.4173 32.4832 48.252 32.8683 47.942 33.1927C47.632 33.4968 47.2187 33.6589 46.7434 33.6589C46.2475 33.6589 45.8548 33.4968 45.5449 33.1927C45.2349 32.8683 45.0696 32.4832 45.0696 31.9967C45.0696 31.5101 45.2349 31.1047 45.5449 30.8006C45.8548 30.4966 46.2681 30.3344 46.7434 30.3344C47.2394 30.3344 47.632 30.4966 47.942 30.8006ZM45.1936 34.6928H48.3346V44.1191H45.1936V34.6928Z" fill="black" fill-opacity="0.87"/>
<path d="M50.1118 34.6929H53.3562L55.3813 41.2406L57.4065 34.6929H60.5682L56.9518 44.1192H53.7075L50.1118 34.6929Z" fill="black" fill-opacity="0.87"/>
<path d="M65.0734 30.8006C65.3834 31.1047 65.5487 31.5101 65.5487 31.9967C65.5487 32.4832 65.3834 32.8683 65.0734 33.1927C64.7634 33.4968 64.3501 33.6589 63.8748 33.6589C63.3789 33.6589 62.9863 33.4968 62.6763 33.1927C62.3663 32.8683 62.201 32.4832 62.201 31.9967C62.201 31.5101 62.3663 31.1047 62.6763 30.8006C62.9863 30.4966 63.3995 30.3344 63.8748 30.3344C64.3501 30.3344 64.7428 30.4966 65.0734 30.8006ZM62.325 34.6928H65.466V44.1191H62.325V34.6928Z" fill="black" fill-opacity="0.87"/>
<path d="M72.2645 37.1457C71.6859 37.1457 71.2313 37.3484 70.88 37.7741C70.5287 38.1998 70.3427 38.7472 70.3427 39.4161C70.3427 40.1054 70.5287 40.6527 70.88 41.0784C71.2313 41.5041 71.7066 41.7068 72.2645 41.7068C73.1325 41.7068 73.7731 41.3419 74.1451 40.6324L76.4802 41.9501C76.1082 42.6799 75.5296 43.2272 74.765 43.6326C74.0004 44.0381 73.1118 44.2205 72.0992 44.2205C71.1073 44.2205 70.2601 44.0178 69.4955 43.6326C68.7516 43.2475 68.1729 42.6799 67.7597 41.9501C67.3464 41.2203 67.1397 40.3892 67.1397 39.4364C67.1397 38.4634 67.3464 37.6119 67.7597 36.8822C68.1729 36.1524 68.7516 35.5645 69.5162 35.1793C70.2601 34.7739 71.128 34.5712 72.1199 34.5712C73.0705 34.5712 73.9384 34.7739 74.6823 35.1591C75.4263 35.5442 76.0049 36.0916 76.4182 36.8011L74.1244 38.1187C73.7111 37.47 73.0705 37.1457 72.2645 37.1457Z" fill="black" fill-opacity="0.87"/>
<path d="M45.0491 46.6531V59.3635H41.8874V58.1472C41.5567 58.5931 41.1434 58.9175 40.6681 59.1405C40.1929 59.3635 39.6556 59.4851 39.0356 59.4851C38.1471 59.4851 37.3618 59.2824 36.6799 58.877C35.9979 58.4715 35.4813 57.9039 35.1093 57.1539C34.7374 56.4241 34.5514 55.5727 34.5514 54.5996C34.5514 53.6469 34.7374 52.8157 35.1093 52.086C35.4813 51.3562 35.9979 50.8088 36.6592 50.4034C37.3205 49.998 38.0851 49.8155 38.9736 49.8155C39.5936 49.8155 40.1515 49.9372 40.6268 50.1601C41.1228 50.3831 41.5361 50.7277 41.8874 51.1534V46.6329H45.0491V46.6531ZM41.3294 56.4038C41.7014 55.9781 41.908 55.4105 41.908 54.701C41.908 53.9915 41.722 53.4239 41.3294 52.9982C40.9575 52.5725 40.4615 52.3495 39.8416 52.3495C39.2216 52.3495 38.7257 52.5725 38.333 52.9982C37.9404 53.4239 37.7544 53.9915 37.7544 54.701C37.7544 55.4105 37.9404 55.9578 38.333 56.4038C38.7257 56.8498 39.2216 57.0525 39.8416 57.0525C40.4408 57.0525 40.9368 56.8295 41.3294 56.4038Z" fill="black" fill-opacity="0.87"/>
<path d="M54.6786 50.7074C55.4225 51.3156 55.7945 52.1467 55.7945 53.2211V59.3634H52.6948V58.3093C52.0542 59.1201 51.0829 59.5053 49.8017 59.5053C48.7891 59.5053 47.9832 59.2418 47.3839 58.6944C46.8053 58.1471 46.4954 57.4376 46.4954 56.5659C46.4954 55.674 46.8053 54.9645 47.4459 54.4779C48.0865 53.9711 48.9958 53.7279 50.1737 53.7076H52.6741V53.6063C52.6741 53.1603 52.5088 52.7954 52.1988 52.5521C51.8888 52.3089 51.4342 52.1872 50.835 52.1872C50.4423 52.1872 49.9877 52.2481 49.4711 52.3697C48.9751 52.4913 48.4585 52.6738 47.9419 52.9373L47.074 50.8493C47.8592 50.5047 48.6032 50.2412 49.3264 50.079C50.0497 49.9168 50.7936 49.8357 51.5582 49.8357C52.9221 49.8155 53.9553 50.1195 54.6786 50.7074ZM52.0128 57.0524C52.3641 56.8295 52.5915 56.5254 52.6948 56.1807V55.3699H50.8143C49.9257 55.3699 49.4711 55.6942 49.4711 56.3429C49.4711 56.6673 49.5951 56.9308 49.8224 57.1133C50.0497 57.2957 50.3803 57.397 50.7729 57.397C51.2482 57.397 51.6615 57.2957 52.0128 57.0524Z" fill="black" fill-opacity="0.87"/>
<path d="M64.3908 58.877C64.0395 59.0797 63.6262 59.2216 63.1716 59.3432C62.717 59.4446 62.2417 59.5054 61.7664 59.5054C60.8158 59.5054 60.0513 59.2418 59.4726 58.6945C58.894 58.1674 58.5841 57.4174 58.5841 56.4849V52.4306H57.2408V50.3629H58.5841V46.6329H61.7251V50.3629H64.2048V52.4306H61.7251V55.9984C61.7251 56.6673 61.9937 56.9917 62.5517 56.9917C62.903 56.9917 63.2956 56.8903 63.7709 56.6673L64.3908 58.877Z" fill="black" fill-opacity="0.87"/>
<path d="M74.021 50.7074C74.765 51.3156 75.1369 52.1467 75.1369 53.2211V59.3634H72.0166V58.3093C71.3759 59.1201 70.4047 59.5053 69.1235 59.5053C68.1109 59.5053 67.305 59.2418 66.7057 58.6944C66.1271 58.1471 65.8171 57.4376 65.8171 56.5659C65.8171 55.674 66.1271 54.9645 66.7677 54.4779C67.4083 53.9711 68.3176 53.7279 69.4955 53.7076H71.9959V53.6063C71.9959 53.1603 71.8306 52.7954 71.5206 52.5521C71.2106 52.3089 70.756 52.1872 70.1567 52.1872C69.7641 52.1872 69.3095 52.2481 68.7929 52.3697C68.2969 52.4913 67.7803 52.6738 67.2637 52.9373L66.3958 50.8493C67.181 50.5047 67.9249 50.2412 68.6482 50.079C69.3715 49.9168 70.1154 49.8357 70.88 49.8357C72.2645 49.8155 73.2978 50.1195 74.021 50.7074ZM71.3553 57.0524C71.7066 56.8295 71.9339 56.5254 72.0372 56.1807V55.3699H70.1567C69.2681 55.3699 68.8135 55.6942 68.8135 56.3429C68.8135 56.6673 68.9375 56.9308 69.1648 57.1133C69.3921 57.2957 69.7228 57.397 70.1154 57.397C70.5907 57.397 71.004 57.2957 71.3553 57.0524Z" fill="black" fill-opacity="0.87"/>
<path d="M39.222 62.8905H35.5436V75.8238H39.222V62.8905Z" fill="black" fill-opacity="0.87"/>
<path d="M49.0994 67.168C49.8434 67.7761 50.2153 68.6072 50.2153 69.6816V75.824H47.1156V74.7698C46.475 75.5807 45.5038 75.9659 44.2226 75.9659C43.21 75.9659 42.4041 75.7023 41.8048 75.155C41.2262 74.6077 40.9162 73.8981 40.9162 73.0265C40.9162 72.1345 41.2262 71.425 41.8668 70.9385C42.5074 70.4317 43.4166 70.1884 44.5945 70.1682H47.095V70.0668C47.095 69.6208 46.9296 69.2559 46.6197 69.0127C46.3097 68.7694 45.8551 68.6478 45.2558 68.6478C44.8425 68.6478 44.4085 68.7086 43.8919 68.8302C43.396 68.9519 42.8793 69.1343 42.3627 69.3978L41.4948 67.3099C42.2801 66.9652 43.024 66.7017 43.7473 66.5395C44.4705 66.3774 45.2145 66.2963 45.9791 66.2963C47.3223 66.2557 48.3555 66.5598 49.0994 67.168ZM46.4337 73.513C46.785 73.29 47.0123 72.9859 47.1156 72.6413V71.8304H45.2351C44.3465 71.8304 43.8919 72.1548 43.8919 72.8035C43.8919 73.1278 44.0159 73.3914 44.2432 73.5738C44.4705 73.7562 44.8012 73.8576 45.1938 73.8576C45.6691 73.8576 46.0824 73.736 46.4337 73.513Z" fill="black" fill-opacity="0.87"/>
<path d="M60.9403 66.9654C61.6016 67.3708 62.1389 67.9181 62.4902 68.6682C62.8621 69.398 63.0481 70.2494 63.0481 71.2021C63.0481 72.1549 62.8621 72.9861 62.5108 73.6956C62.1595 74.4051 61.6429 74.9727 60.9816 75.3578C60.3204 75.743 59.5558 75.9457 58.6879 75.9457C58.0886 75.9457 57.5513 75.8241 57.0553 75.6011C56.5594 75.3781 56.1461 75.0538 55.8155 74.628V75.8443H52.6744V62.911H55.8155V67.7154C56.4974 66.8437 57.448 66.3978 58.6259 66.3978C59.4938 66.3775 60.2584 66.5599 60.9403 66.9654ZM59.3285 72.8036C59.7004 72.3779 59.9071 71.8103 59.9071 71.1211C59.9071 70.4318 59.7211 69.8642 59.3285 69.4385C58.9358 69.0128 58.4399 68.7898 57.8406 68.7898C57.2413 68.7898 56.7454 69.0128 56.3734 69.4385C56.0015 69.8642 55.8155 70.4318 55.8155 71.1211C55.8155 71.8103 56.0015 72.3779 56.3734 72.8036C56.7454 73.2293 57.2413 73.4523 57.8406 73.4523C58.4399 73.432 58.9358 73.2293 59.3285 72.8036Z" fill="black" fill-opacity="0.87"/>
<path d="M14.1761 55.0051C12.7709 53.8091 10.9524 53.2212 8.72064 53.2212C6.48885 53.2212 4.67035 53.8091 3.26515 55.0051C1.85995 56.2012 1.15735 57.7418 1.15735 59.6473C1.15735 61.5529 1.85995 63.0935 3.26515 64.2693C4.67035 65.445 6.48885 66.0329 8.72064 66.0329C10.9938 66.0329 12.8329 65.445 14.2175 64.2693C15.602 63.0935 16.2839 61.5529 16.2839 59.6473C16.2839 57.7418 15.5813 56.2012 14.1761 55.0051Z" fill="black" fill-opacity="0.87"/>
<path d="M24.2604 18.6377C26.8228 20.0162 28.848 21.2122 30.3565 23.5637V4.42726C30.3565 0.879719 26.3062 -1.22853 23.3098 0.77836C18.7429 3.83938 14.3207 9.55599 10.4977 16.57C11.7582 16.3673 13.0808 16.2862 14.4653 16.3064C18.1436 16.3267 21.4087 17.1173 24.2604 18.6377Z" fill="black" fill-opacity="0.87"/>
<path d="M30.3567 46.6938C28.8895 49.1061 26.823 50.3427 24.1573 51.6806C23.868 51.8225 23.7646 51.863 23.4753 52.0049C24.1986 53.8294 24.3432 55.593 24.3432 57.6202C24.3432 59.5257 23.9713 61.2285 23.2274 62.7489C22.4834 64.2693 22.2974 64.918 20.9129 65.9721H30.3773" fill="black" fill-opacity="0.87"/>
<path d="M24.9423 99.6634C27.7321 100.231 30.3771 98.143 30.3771 95.3252V91.1898H9.34045C13.866 95.6293 19.3215 98.5282 24.9423 99.6634Z" fill="black" fill-opacity="0.87"/>
<path d="M30.3565 75.8037H0C0.557948 77.5268 1.19855 79.1688 1.92182 80.7297H30.3565V75.8037Z" fill="black" fill-opacity="0.87"/>
<path d="M22.0079 29.9291C20.3134 27.4154 17.9163 26.1383 14.8372 26.118C12.6674 26.0978 10.8696 26.8884 9.50575 28.5101C8.12121 30.1318 7.41861 32.2198 7.39795 34.7943C7.37728 37.4296 8.01789 39.5379 9.36109 41.1596C10.167 42.1326 11.1383 42.8219 12.2748 43.2273C12.2748 43.2273 13.3907 43.653 14.5479 43.6327C14.5893 43.6327 14.6099 43.6327 14.6513 43.6327C18.0196 43.6733 20.4374 42.3353 21.9252 39.6392L30.3771 44.5044V25.3072L22.0079 29.9291Z" fill="black" fill-opacity="0.87"/>
</svg>
