

<!-- Generator: Adobe Illustrator 24.0.2, SVG Export Plug-In . SVG Version: 6.00 Build 0)  -->
<svg version="1.1" id="Layer_1" xmlns="http://www.w3.org/2000/svg" xmlns:xlink="http://www.w3.org/1999/xlink" x="0px" y="0px"
	 viewBox="0 0 300 107" style="enable-background:new 0 0 300 107;" xml:space="preserve">
<style type="text/css">
	.st0{fill:#FFFFFF;}
	.st1{fill:#EC7D23;}
	.st2{fill:#253F7F;}
	.st3{fill:#1A1A1A;}
	.st4{fill:#E43292;}
	.st5{fill:#32B34A;}
	.st6{fill:#14A88A;}
	.st7{fill:#934A9B;}
	.st8{fill:#2D338E;}
	.st9{fill:#F6AC1A;}
	.st10{fill:#231F20;}
	.st11{fill:#2E3192;}
	.st12{fill:#FF9933;}
	.st13{fill:#128807;}
	.st14{fill:#000088;}
</style>
<g>
	<g>
		<path class="st2" d="M209.9,25.5l4.2,13.9c0.8,2.5,1.3,4.9,1.8,7.3h0.2c0.5-2.4,1-4.7,1.7-7.3l4-13.9h10.2l-11.6,29.9h-9.7
			l-11.3-29.9H209.9z"/>
		<path class="st2" d="M38,15.4v29.1c0,3.4,0.1,6.9,0.3,8.9h-8.6L29.3,49h-0.1c-2,3.4-5.7,5.1-9.7,5.1c-7.4,0-13.3-6-13.3-15.3
			C6,28.7,12.6,22.9,20,22.9c3.8,0,6.8,1.3,8.2,3.4h0.1V15.4H38z M28.4,36.2c0-0.5-0.1-1.2-0.1-1.6C27.7,32,25.6,30,22.6,30
			c-4.4,0-6.7,3.8-6.7,8.5c0,5.1,2.6,8.2,6.6,8.2c2.8,0,5-1.8,5.6-4.5c0.2-0.7,0.3-1.3,0.3-2.1V36.2z"/>
		<path class="st2" d="M68.6,46.1c0,2.9,0.1,5.6,0.4,7.3h-8.7l-0.6-3h-0.2c-2,2.4-5.2,3.7-8.9,3.7c-6.3,0-10.1-4.4-10.1-9.2
			c0-7.8,7.3-11.5,18.3-11.4v-0.4c0-1.6-0.9-3.8-5.7-3.8c-3.2,0-6.6,1-8.6,2.3l-1.8-6c2.2-1.2,6.4-2.6,12.1-2.6
			c10.4,0,13.7,5.9,13.7,12.9V46.1z M59.2,39.3c-5.1-0.1-9,1.1-9,4.7c0,2.4,1.7,3.5,3.8,3.5c2.4,0,4.4-1.5,5-3.4
			c0.1-0.5,0.2-1,0.2-1.6V39.3z"/>
		<path class="st2" d="M83.4,15.3v8.2h6.9v6.8h-6.9v10.8c0,3.6,0.9,5.3,3.8,5.3c1.3,0,1.9-0.1,2.9-0.2l0.1,7
			c-1.3,0.5-3.6,0.9-6.3,0.9c-3.1,0-5.7-1.1-7.3-2.6c-1.8-1.8-2.7-4.6-2.7-8.9V30.4h-4.1v-6.8h4.1v-8.2H83.4z"/>
		<path class="st2" d="M119.7,46.1c0,2.9,0.1,5.6,0.4,7.3h-8.7l-0.6-3h-0.2c-2,2.4-5.2,3.7-8.9,3.7c-6.3,0-10.1-4.4-10.1-9.2
			c0-7.8,7.3-11.5,18.3-11.4v-0.4c0-1.6-0.9-3.8-5.7-3.8c-3.2,0-6.6,1-8.6,2.3l-1.8-6c2.2-1.2,6.4-2.6,12.1-2.6
			c10.4,0,13.7,5.9,13.7,12.9V46.1z M110.3,39.3c-5.1-0.1-9,1.1-9,4.7c0,2.4,1.7,3.5,3.8,3.5c2.4,0,4.4-1.5,5-3.4
			c0.1-0.5,0.2-1,0.2-1.6V39.3z"/>
		<path class="st2" d="M165.1,51c0,5.7-1.2,10.4-4.7,13.4c-3.4,2.8-8.1,3.7-12.7,3.7c-4.1,0-8.4-0.8-11.2-2.3l1.9-7
			c2,1.1,5.4,2.3,9,2.3c4.6,0,8.1-2.4,8.1-7.9v-2h-0.1c-1.8,2.5-4.8,3.9-8.4,3.9c-7.7,0-13.2-6-13.2-14.6c0-9.6,6.5-15.7,14.1-15.7
			c4.3,0,6.9,1.8,8.5,4.2h0.1l0.3-3.5h8.4c-0.1,1.9-0.3,4.4-0.3,8.8V51z M155.4,37.7c0-0.6-0.1-1.2-0.2-1.7
			c-0.7-2.4-2.6-4.1-5.2-4.1c-3.5,0-6.4,3.1-6.4,8.5c0,4.5,2.3,7.9,6.4,7.9c2.5,0,4.5-1.6,5.1-3.8c0.3-0.7,0.3-1.6,0.3-2.4V37.7z"/>
		<path class="st2" d="M200.4,40.1C200.4,51,192.3,56,184,56c-9.1,0-16.1-5.7-16.1-15.4c0-9.6,6.6-15.8,16.6-15.8
			C194.1,24.8,200.4,31.1,200.4,40.1 M177.9,40.4c0,5.1,2.2,9,6.4,9c3.8,0,6.2-3.6,6.2-9c0-4.5-1.8-9-6.2-9
			C179.6,31.4,177.9,36,177.9,40.4"/>
		<path class="st2" d="M133.1,49.2c0,2.6-2,4.6-5.2,4.6c-3.1,0-5.1-2.1-5-4.6c-0.1-2.7,2-4.7,5.1-4.7
			C131.1,44.5,133.1,46.6,133.1,49.2"/>
		<g>
			<path d="M16.5,81.2c0,1.8-0.5,3.3-1.4,4.3c-0.9,1-2.2,1.6-3.9,1.6c-1.7,0-3-0.5-3.9-1.5c-0.9-1-1.4-2.5-1.4-4.4
				c0-1.9,0.5-3.3,1.4-4.3c0.9-1,2.2-1.5,3.9-1.5c1.6,0,2.9,0.5,3.8,1.6C16,78,16.5,79.4,16.5,81.2z M7.4,81.2c0,1.5,0.3,2.7,1,3.5
				c0.7,0.8,1.6,1.2,2.9,1.2c1.3,0,2.2-0.4,2.9-1.2c0.6-0.8,1-2,1-3.5c0-1.5-0.3-2.7-1-3.5c-0.6-0.8-1.6-1.2-2.9-1.2
				C10,76.6,9,77,8.4,77.7C7.7,78.5,7.4,79.7,7.4,81.2z"/>
			<path d="M22.8,87.1c-0.6,0-1.1-0.1-1.5-0.3c-0.5-0.2-0.8-0.5-1.2-0.9H20c0.1,0.5,0.1,1,0.1,1.4v3.5h-1.3V78.4h1.1l0.2,1.2h0.1
				c0.3-0.5,0.7-0.8,1.2-1c0.4-0.2,0.9-0.3,1.5-0.3c1.1,0,2,0.4,2.6,1.2c0.6,0.8,0.9,1.9,0.9,3.3c0,1.4-0.3,2.5-0.9,3.3
				C24.8,86.7,23.9,87.1,22.8,87.1z M22.6,79.3c-0.9,0-1.5,0.2-1.9,0.7c-0.4,0.5-0.6,1.3-0.6,2.3v0.3c0,1.2,0.2,2.1,0.6,2.6
				c0.4,0.5,1,0.8,1.9,0.8c0.7,0,1.3-0.3,1.7-0.9c0.4-0.6,0.6-1.4,0.6-2.5c0-1.1-0.2-1.9-0.6-2.5C24,79.6,23.4,79.3,22.6,79.3z"/>
			<path d="M32.2,87.1c-1.3,0-2.3-0.4-3-1.2c-0.7-0.8-1.1-1.8-1.1-3.2c0-1.4,0.3-2.5,1-3.3c0.7-0.8,1.6-1.2,2.7-1.2
				c1.1,0,1.9,0.4,2.5,1.1c0.6,0.7,0.9,1.6,0.9,2.8v0.8h-5.9c0,1,0.3,1.8,0.8,2.3c0.5,0.5,1.2,0.8,2,0.8c0.9,0,1.8-0.2,2.7-0.6v1.2
				c-0.5,0.2-0.9,0.3-1.3,0.4C33.3,87.1,32.8,87.1,32.2,87.1z M31.9,79.3c-0.7,0-1.2,0.2-1.6,0.7c-0.4,0.4-0.6,1.1-0.7,1.9H34
				c0-0.8-0.2-1.4-0.5-1.9C33.1,79.5,32.6,79.3,31.9,79.3z"/>
			<path d="M43.4,87v-5.5c0-0.7-0.2-1.2-0.5-1.6c-0.3-0.3-0.8-0.5-1.5-0.5c-0.9,0-1.6,0.2-2,0.7c-0.4,0.5-0.6,1.3-0.6,2.4V87h-1.3
				v-8.6h1.1l0.2,1.2h0.1c0.3-0.4,0.6-0.7,1.1-1c0.5-0.2,1-0.3,1.6-0.3c1,0,1.8,0.2,2.3,0.7c0.5,0.5,0.8,1.3,0.8,2.4V87H43.4z"/>
			<path d="M56.8,81h3.9v5.5c-0.6,0.2-1.2,0.3-1.8,0.4c-0.6,0.1-1.3,0.1-2.2,0.1c-1.7,0-3.1-0.5-4-1.5c-1-1-1.4-2.5-1.4-4.3
				c0-1.2,0.2-2.2,0.7-3.1c0.5-0.9,1.2-1.6,2.1-2c0.9-0.5,1.9-0.7,3.1-0.7c1.2,0,2.4,0.2,3.4,0.7L60,77.2c-1-0.4-2-0.7-3-0.7
				c-1.4,0-2.5,0.4-3.3,1.2s-1.2,2-1.2,3.4c0,1.5,0.4,2.7,1.1,3.5c0.8,0.8,1.9,1.2,3.3,1.2c0.8,0,1.6-0.1,2.3-0.3v-3.5h-2.6V81z"/>
			<path d="M70.6,82.7c0,1.4-0.4,2.5-1.1,3.3c-0.7,0.8-1.7,1.2-2.9,1.2c-0.8,0-1.4-0.2-2-0.5c-0.6-0.4-1.1-0.9-1.4-1.5
				c-0.3-0.7-0.5-1.5-0.5-2.4c0-1.4,0.3-2.5,1-3.3c0.7-0.8,1.7-1.2,2.9-1.2c1.2,0,2.1,0.4,2.9,1.2C70.2,80.2,70.6,81.3,70.6,82.7z
				 M64.1,82.7c0,1.1,0.2,1.9,0.7,2.5c0.4,0.6,1.1,0.9,1.9,0.9s1.5-0.3,1.9-0.9s0.7-1.4,0.7-2.5c0-1.1-0.2-1.9-0.7-2.5
				c-0.4-0.6-1.1-0.8-1.9-0.8c-0.8,0-1.5,0.3-1.9,0.8C64.3,80.7,64.1,81.6,64.1,82.7z"/>
			<path d="M74.7,87l-3.2-8.6h1.4l1.8,5.1c0.4,1.2,0.7,2,0.7,2.3h0.1c0.1-0.3,0.2-0.8,0.5-1.7c0.3-0.9,1-2.8,2-5.7h1.4L76.2,87H74.7
				z"/>
			<path d="M84.5,87.1c-1.3,0-2.3-0.4-3-1.2c-0.7-0.8-1.1-1.8-1.1-3.2c0-1.4,0.3-2.5,1-3.3c0.7-0.8,1.6-1.2,2.7-1.2
				c1.1,0,1.9,0.4,2.5,1.1c0.6,0.7,0.9,1.6,0.9,2.8v0.8h-5.9c0,1,0.3,1.8,0.8,2.3c0.5,0.5,1.2,0.8,2,0.8c0.9,0,1.8-0.2,2.7-0.6v1.2
				c-0.5,0.2-0.9,0.3-1.3,0.4C85.5,87.1,85,87.1,84.5,87.1z M84.1,79.3c-0.7,0-1.2,0.2-1.6,0.7c-0.4,0.4-0.6,1.1-0.7,1.9h4.5
				c0-0.8-0.2-1.4-0.5-1.9C85.3,79.5,84.8,79.3,84.1,79.3z"/>
			<path d="M93.7,78.2c0.4,0,0.7,0,1,0.1l-0.2,1.2c-0.4-0.1-0.7-0.1-0.9-0.1c-0.7,0-1.3,0.3-1.8,0.8c-0.5,0.6-0.7,1.3-0.7,2.1V87
				h-1.3v-8.6h1.1L91,80h0.1c0.3-0.6,0.7-1,1.1-1.3C92.7,78.4,93.2,78.2,93.7,78.2z"/>
			<path d="M102.2,87v-5.5c0-0.7-0.2-1.2-0.5-1.6c-0.3-0.3-0.8-0.5-1.5-0.5c-0.9,0-1.6,0.2-2,0.7c-0.4,0.5-0.6,1.3-0.6,2.4V87h-1.3
				v-8.6h1.1l0.2,1.2h0.1c0.3-0.4,0.6-0.7,1.1-1c0.5-0.2,1-0.3,1.6-0.3c1,0,1.8,0.2,2.3,0.7c0.5,0.5,0.8,1.3,0.8,2.4V87H102.2z"/>
			<path d="M117,87v-5.6c0-0.7-0.1-1.2-0.4-1.5s-0.7-0.5-1.4-0.5c-0.8,0-1.4,0.2-1.8,0.7c-0.4,0.5-0.6,1.2-0.6,2.1V87h-1.3v-5.6
				c0-0.7-0.1-1.2-0.4-1.5c-0.3-0.3-0.7-0.5-1.4-0.5c-0.8,0-1.4,0.2-1.8,0.7c-0.4,0.5-0.6,1.3-0.6,2.4V87h-1.3v-8.6h1.1l0.2,1.2h0.1
				c0.2-0.4,0.6-0.7,1-1c0.4-0.2,0.9-0.4,1.5-0.4c1.3,0,2.2,0.5,2.6,1.5h0.1c0.3-0.4,0.6-0.8,1.1-1.1c0.5-0.3,1-0.4,1.7-0.4
				c1,0,1.7,0.2,2.2,0.7c0.5,0.5,0.7,1.3,0.7,2.4V87H117z"/>
			<path d="M124.6,87.1c-1.3,0-2.3-0.4-3-1.2c-0.7-0.8-1.1-1.8-1.1-3.2c0-1.4,0.3-2.5,1-3.3c0.7-0.8,1.6-1.2,2.7-1.2
				c1.1,0,1.9,0.4,2.5,1.1c0.6,0.7,0.9,1.6,0.9,2.8v0.8h-5.9c0,1,0.3,1.8,0.8,2.3c0.5,0.5,1.2,0.8,2,0.8c0.9,0,1.8-0.2,2.7-0.6v1.2
				c-0.5,0.2-0.9,0.3-1.3,0.4C125.7,87.1,125.2,87.1,124.6,87.1z M124.3,79.3c-0.7,0-1.2,0.2-1.6,0.7c-0.4,0.4-0.6,1.1-0.7,1.9h4.5
				c0-0.8-0.2-1.4-0.5-1.9C125.5,79.5,124.9,79.3,124.3,79.3z"/>
			<path d="M135.8,87v-5.5c0-0.7-0.2-1.2-0.5-1.6c-0.3-0.3-0.8-0.5-1.5-0.5c-0.9,0-1.6,0.2-2,0.7c-0.4,0.5-0.6,1.3-0.6,2.4V87H130
				v-8.6h1.1l0.2,1.2h0.1c0.3-0.4,0.6-0.7,1.1-1c0.5-0.2,1-0.3,1.6-0.3c1,0,1.8,0.2,2.3,0.7c0.5,0.5,0.8,1.3,0.8,2.4V87H135.8z"/>
			<path d="M142.5,86c0.2,0,0.5,0,0.7-0.1c0.2,0,0.4-0.1,0.5-0.1v1c-0.1,0.1-0.3,0.1-0.6,0.2c-0.3,0-0.5,0.1-0.7,0.1
				c-1.7,0-2.5-0.9-2.5-2.6v-5.1h-1.2v-0.6l1.2-0.5l0.5-1.8h0.7v2h2.5v1h-2.5v5c0,0.5,0.1,0.9,0.4,1.2C141.8,85.9,142.1,86,142.5,86
				z"/>
			<path d="M158.9,81.1c0,1.9-0.5,3.3-1.5,4.3c-1,1-2.5,1.5-4.4,1.5h-3.2V75.5h3.5c1.8,0,3.2,0.5,4.1,1.5
				C158.4,78,158.9,79.4,158.9,81.1z M157.5,81.2c0-1.5-0.4-2.6-1.1-3.4c-0.7-0.8-1.9-1.1-3.3-1.1h-1.9v9.1h1.6
				c1.6,0,2.8-0.4,3.6-1.2C157.1,83.9,157.5,82.7,157.5,81.2z"/>
			<path d="M166.5,87l-0.3-1.2h-0.1c-0.4,0.5-0.9,0.9-1.3,1.1c-0.4,0.2-1,0.3-1.6,0.3c-0.8,0-1.5-0.2-2-0.7s-0.7-1.1-0.7-1.9
				c0-1.7,1.4-2.6,4.1-2.7l1.5,0v-0.5c0-0.7-0.1-1.2-0.4-1.5c-0.3-0.3-0.8-0.5-1.4-0.5c-0.7,0-1.5,0.2-2.4,0.7l-0.4-1
				c0.4-0.2,0.9-0.4,1.4-0.5c0.5-0.1,1-0.2,1.5-0.2c1,0,1.8,0.2,2.3,0.7c0.5,0.5,0.7,1.2,0.7,2.2V87H166.5z M163.5,86
				c0.8,0,1.4-0.2,1.9-0.7c0.5-0.4,0.7-1.1,0.7-1.9v-0.8l-1.3,0.1c-1,0-1.8,0.2-2.2,0.5c-0.5,0.3-0.7,0.7-0.7,1.3
				c0,0.5,0.1,0.8,0.4,1.1C162.6,85.9,163,86,163.5,86z"/>
			<path d="M172.9,86c0.2,0,0.4,0,0.7-0.1c0.2,0,0.4-0.1,0.5-0.1v1c-0.1,0.1-0.3,0.1-0.6,0.2c-0.3,0-0.5,0.1-0.7,0.1
				c-1.7,0-2.5-0.9-2.5-2.6v-5.1H169v-0.6l1.2-0.5l0.5-1.8h0.7v2h2.5v1h-2.5v5c0,0.5,0.1,0.9,0.4,1.2C172.1,85.9,172.4,86,172.9,86z
				"/>
			<path d="M181,87l-0.3-1.2h-0.1c-0.4,0.5-0.9,0.9-1.3,1.1c-0.4,0.2-1,0.3-1.6,0.3c-0.8,0-1.5-0.2-2-0.7c-0.5-0.4-0.7-1.1-0.7-1.9
				c0-1.7,1.4-2.6,4.1-2.7l1.5,0v-0.5c0-0.7-0.1-1.2-0.4-1.5c-0.3-0.3-0.8-0.5-1.4-0.5c-0.7,0-1.5,0.2-2.4,0.7l-0.4-1
				c0.4-0.2,0.9-0.4,1.4-0.5c0.5-0.1,1-0.2,1.5-0.2c1,0,1.8,0.2,2.3,0.7c0.5,0.5,0.7,1.2,0.7,2.2V87H181z M178.1,86
				c0.8,0,1.4-0.2,1.9-0.7c0.5-0.4,0.7-1.1,0.7-1.9v-0.8l-1.3,0.1c-1,0-1.8,0.2-2.2,0.5c-0.5,0.3-0.7,0.7-0.7,1.3
				c0,0.5,0.1,0.8,0.4,1.1C177.2,85.9,177.6,86,178.1,86z"/>
			<path d="M196.2,78.9c0,1.2-0.4,2-1.2,2.7c-0.8,0.6-1.9,0.9-3.4,0.9h-1.3V87H189V75.5h3C194.8,75.5,196.2,76.7,196.2,78.9z
				 M190.3,81.3h1.2c1.2,0,2-0.2,2.6-0.6c0.5-0.4,0.8-1,0.8-1.8c0-0.8-0.2-1.3-0.7-1.7c-0.5-0.4-1.3-0.6-2.3-0.6h-1.5V81.3z"/>
			<path d="M199.7,87h-1.3V74.8h1.3V87z"/>
			<path d="M207.7,87l-0.3-1.2h-0.1c-0.4,0.5-0.9,0.9-1.3,1.1c-0.4,0.2-1,0.3-1.6,0.3c-0.8,0-1.5-0.2-2-0.7
				c-0.5-0.4-0.7-1.1-0.7-1.9c0-1.7,1.4-2.6,4.1-2.7l1.5,0v-0.5c0-0.7-0.1-1.2-0.4-1.5c-0.3-0.3-0.8-0.5-1.4-0.5
				c-0.7,0-1.5,0.2-2.4,0.7l-0.4-1c0.4-0.2,0.9-0.4,1.4-0.5c0.5-0.1,1-0.2,1.5-0.2c1,0,1.8,0.2,2.3,0.7c0.5,0.5,0.7,1.2,0.7,2.2V87
				H207.7z M204.8,86c0.8,0,1.4-0.2,1.9-0.7c0.5-0.4,0.7-1.1,0.7-1.9v-0.8l-1.3,0.1c-1,0-1.8,0.2-2.2,0.5c-0.5,0.3-0.7,0.7-0.7,1.3
				c0,0.5,0.1,0.8,0.4,1.1C203.9,85.9,204.3,86,204.8,86z"/>
			<path d="M214.1,86c0.2,0,0.5,0,0.7-0.1c0.2,0,0.4-0.1,0.5-0.1v1c-0.1,0.1-0.3,0.1-0.6,0.2c-0.3,0-0.5,0.1-0.7,0.1
				c-1.7,0-2.5-0.9-2.5-2.6v-5.1h-1.2v-0.6l1.2-0.5l0.5-1.8h0.7v2h2.5v1h-2.5v5c0,0.5,0.1,0.9,0.4,1.2C213.3,85.9,213.7,86,214.1,86
				z"/>
			<path d="M220.8,79.4h-2.2V87h-1.3v-7.5h-1.5v-0.6l1.5-0.5v-0.5c0-2.1,0.9-3.2,2.8-3.2c0.5,0,1,0.1,1.6,0.3l-0.3,1
				c-0.5-0.2-0.9-0.2-1.3-0.2c-0.5,0-0.9,0.2-1.1,0.5c-0.2,0.3-0.4,0.8-0.4,1.6v0.6h2.2V79.4z"/>
			<path d="M229.8,82.7c0,1.4-0.4,2.5-1.1,3.3c-0.7,0.8-1.7,1.2-2.9,1.2c-0.8,0-1.4-0.2-2-0.5c-0.6-0.4-1.1-0.9-1.4-1.5
				c-0.3-0.7-0.5-1.5-0.5-2.4c0-1.4,0.3-2.5,1-3.3c0.7-0.8,1.7-1.2,2.9-1.2c1.2,0,2.1,0.4,2.9,1.2C229.4,80.2,229.8,81.3,229.8,82.7
				z M223.2,82.7c0,1.1,0.2,1.9,0.7,2.5s1.1,0.9,1.9,0.9s1.5-0.3,1.9-0.9c0.4-0.6,0.7-1.4,0.7-2.5c0-1.1-0.2-1.9-0.7-2.5
				c-0.4-0.6-1.1-0.8-1.9-0.8c-0.8,0-1.5,0.3-1.9,0.8C223.5,80.7,223.2,81.6,223.2,82.7z"/>
			<path d="M235.9,78.2c0.4,0,0.7,0,1,0.1l-0.2,1.2c-0.4-0.1-0.7-0.1-0.9-0.1c-0.7,0-1.3,0.3-1.8,0.8c-0.5,0.6-0.7,1.3-0.7,2.1V87
				H232v-8.6h1.1l0.1,1.6h0.1c0.3-0.6,0.7-1,1.1-1.3C234.9,78.4,235.4,78.2,235.9,78.2z"/>
			<path d="M249.5,87v-5.6c0-0.7-0.1-1.2-0.4-1.5s-0.7-0.5-1.4-0.5c-0.8,0-1.4,0.2-1.8,0.7c-0.4,0.5-0.6,1.2-0.6,2.1V87H244v-5.6
				c0-0.7-0.1-1.2-0.4-1.5s-0.7-0.5-1.4-0.5c-0.8,0-1.4,0.2-1.8,0.7c-0.4,0.5-0.6,1.3-0.6,2.4V87h-1.3v-8.6h1.1l0.2,1.2h0.1
				c0.2-0.4,0.6-0.7,1-1c0.4-0.2,0.9-0.4,1.5-0.4c1.3,0,2.2,0.5,2.6,1.5h0.1c0.3-0.4,0.6-0.8,1.1-1.1c0.5-0.3,1-0.4,1.7-0.4
				c1,0,1.7,0.2,2.2,0.7c0.5,0.5,0.7,1.3,0.7,2.4V87H249.5z"/>
			<path d="M257.8,87V75.5h1.3V87H257.8z"/>
			<path d="M267.9,87v-5.5c0-0.7-0.2-1.2-0.5-1.6c-0.3-0.3-0.8-0.5-1.5-0.5c-0.9,0-1.6,0.2-2,0.7c-0.4,0.5-0.6,1.3-0.6,2.4V87H262
				v-8.6h1.1l0.2,1.2h0.1c0.3-0.4,0.6-0.7,1.1-1c0.5-0.2,1-0.3,1.6-0.3c1,0,1.8,0.2,2.3,0.7c0.5,0.5,0.8,1.3,0.8,2.4V87H267.9z"/>
			<path d="M277.6,85.8L277.6,85.8c-0.7,0.9-1.6,1.3-2.8,1.3c-1.1,0-2-0.4-2.6-1.1c-0.6-0.8-0.9-1.9-0.9-3.3c0-1.4,0.3-2.5,0.9-3.3
				c0.6-0.8,1.5-1.2,2.6-1.2c1.2,0,2,0.4,2.7,1.3h0.1l-0.1-0.6l0-0.6v-3.5h1.3V87h-1.1L277.6,85.8z M275.1,86c0.9,0,1.5-0.2,1.9-0.7
				c0.4-0.5,0.6-1.3,0.6-2.3v-0.3c0-1.2-0.2-2.1-0.6-2.6c-0.4-0.5-1-0.8-1.9-0.8c-0.8,0-1.3,0.3-1.7,0.9c-0.4,0.6-0.6,1.4-0.6,2.5
				c0,1.1,0.2,1.9,0.6,2.5C273.7,85.7,274.3,86,275.1,86z"/>
			<path d="M281.5,76.1c0-0.3,0.1-0.5,0.2-0.7c0.1-0.1,0.3-0.2,0.5-0.2c0.2,0,0.4,0.1,0.5,0.2c0.2,0.1,0.2,0.4,0.2,0.6
				c0,0.3-0.1,0.5-0.2,0.7c-0.2,0.1-0.3,0.2-0.5,0.2c-0.2,0-0.4-0.1-0.5-0.2C281.6,76.6,281.5,76.4,281.5,76.1z M282.9,87h-1.3v-8.6
				h1.3V87z"/>
			<path d="M290.9,87l-0.3-1.2h-0.1c-0.4,0.5-0.9,0.9-1.3,1.1c-0.4,0.2-1,0.3-1.6,0.3c-0.8,0-1.5-0.2-2-0.7s-0.7-1.1-0.7-1.9
				c0-1.7,1.4-2.6,4.1-2.7l1.5,0v-0.5c0-0.7-0.1-1.2-0.4-1.5c-0.3-0.3-0.8-0.5-1.4-0.5c-0.7,0-1.5,0.2-2.4,0.7l-0.4-1
				c0.4-0.2,0.9-0.4,1.4-0.5c0.5-0.1,1-0.2,1.5-0.2c1,0,1.8,0.2,2.3,0.7c0.5,0.5,0.7,1.2,0.7,2.2V87H290.9z M288,86
				c0.8,0,1.4-0.2,1.9-0.7c0.5-0.4,0.7-1.1,0.7-1.9v-0.8l-1.3,0.1c-1,0-1.8,0.2-2.2,0.5c-0.5,0.3-0.7,0.7-0.7,1.3
				c0,0.5,0.1,0.8,0.4,1.1C287.1,85.9,287.5,86,288,86z"/>
		</g>
		<path class="st1" d="M265.9,10.6c-16.6,0-30,13.5-30,30c0,16.6,13.5,30,30,30c16.6,0,30-13.4,30-30
			C295.9,24.1,282.5,10.6,265.9,10.6z M255,55.4h-9.7V25.5h9.7V55.4z M279.5,55.4V38.8c0-3.8-1.4-6.5-4.9-6.5
			c-2.7,0-4.3,1.8-4.9,3.5c-0.3,0.6-0.4,1.5-0.4,2.3v17.2h-9.7V35c0-3.7-0.1-6.9-0.3-9.5h8.4l0.4,4.1h0.2c1.3-1.9,4.5-4.8,9.6-4.8
			c6.4,0,11.1,4,11.1,12.8v17.7H279.5z"/>
	</g>
</g>
</svg>
