<svg width="364" height="316" viewBox="0 0 364 316" fill="none" xmlns="http://www.w3.org/2000/svg">
<g clip-path="url(#clip0_3837_172666)">
<path d="M228.571 132.062H157.088C152.566 132.062 148.52 128.333 148.202 123.811L144.632 79.8583C144.235 75.336 147.647 71.6072 152.169 71.6072H223.652C228.174 71.6072 232.22 75.336 232.538 79.8583L236.108 123.811C236.505 128.333 233.093 132.062 228.571 132.062Z" fill="white"/>
<path d="M228.571 132.38H157.088C152.327 132.38 148.202 128.571 147.805 123.811L144.235 79.8582C144.076 77.5574 144.79 75.4153 146.298 73.7492C147.805 72.0832 149.868 71.2104 152.169 71.2104H223.652C228.412 71.2104 232.538 75.0186 232.934 79.7789L236.504 123.732C236.663 126.033 235.949 128.175 234.442 129.841C232.934 131.507 230.872 132.38 228.571 132.38ZM152.169 71.9245C150.106 71.9245 148.202 72.7179 146.774 74.2253C145.425 75.7327 144.711 77.7161 144.87 79.7789L148.44 123.732C148.757 128.095 152.645 131.666 157.008 131.666H228.491C230.554 131.666 232.458 130.872 233.886 129.365C235.235 127.857 235.949 125.874 235.79 123.811L232.22 79.8582C231.903 75.4947 228.015 71.9245 223.652 71.9245H152.169Z" fill="#8F8BF7"/>
<path d="M209.133 119.209C206.356 122.224 202.707 124.446 198.661 125.556L197.471 122.145C206.277 119.765 212.227 111.514 211.434 101.755C210.958 95.9636 208.181 90.648 204.056 86.8398L206.356 84.3804C216.67 93.9802 217.94 109.689 209.133 119.209Z" fill="#E1E1E1"/>
<path d="M206.356 84.4597L204.055 86.9191C199.93 83.111 194.456 80.7308 188.664 80.7308C182.872 80.7308 177.795 83.111 174.304 86.9191L171.606 84.4597C175.811 79.8581 181.92 77.24 188.426 77.24C194.852 77.24 201.358 79.8581 206.356 84.4597Z" fill="#1A1D35"/>
<path d="M198.661 125.557C190.41 127.858 181.127 125.398 174.384 119.21C164.07 109.689 162.8 93.9804 171.527 84.46L174.225 86.9194C170.734 90.7276 168.83 95.9639 169.306 101.835C170.258 113.497 180.493 122.939 192.076 122.939C193.98 122.939 195.805 122.701 197.471 122.225L198.661 125.557Z" fill="#8F8BF7"/>
<path d="M131.224 0.600098H125.512V1.31414H131.224V0.600098Z" fill="#8F8BF7"/>
<path d="M119.879 0.600098H106.867V1.31414H119.879V0.600098Z" fill="#8F8BF7"/>
<path d="M180.572 63.7527H109.089C104.567 63.7527 100.52 60.0238 100.203 55.5016L96.6329 11.5487C96.2363 7.02647 99.6478 3.29761 104.17 3.29761H175.653C180.175 3.29761 184.221 7.02647 184.539 11.5487L188.109 55.5016C188.506 60.0238 185.173 63.7527 180.572 63.7527Z" fill="white"/>
<path d="M180.572 64.07H109.089C104.328 64.07 100.203 60.2618 99.8062 55.5016L96.2361 11.5487C96.0774 9.24787 96.7914 7.10576 98.2988 5.43967C99.8062 3.77359 101.869 2.90088 104.17 2.90088H175.653C180.413 2.90088 184.539 6.70908 184.935 11.4693L188.505 55.4222C188.664 57.723 187.95 59.8651 186.443 61.5312C184.935 63.1973 182.873 64.07 180.572 64.07ZM104.249 3.61492C102.186 3.61492 100.282 4.40829 98.8542 5.9157C97.5055 7.42311 96.7914 9.40655 96.9501 11.4693L100.52 55.4222C100.838 59.7858 104.725 63.356 109.089 63.356H180.572C182.634 63.356 184.539 62.5626 185.967 61.0552C187.315 59.5478 188.029 57.5643 187.871 55.5016L184.301 11.5487C183.983 7.1851 180.096 3.61492 175.732 3.61492H104.249Z" fill="#8F8BF7"/>
<path d="M103.138 15.9122H140.982L140.665 12.1833H102.821L103.138 15.9122Z" fill="#E1E1E1"/>
<path d="M178.826 15.9122H140.982L140.665 12.1833H178.509L178.826 15.9122Z" fill="#8F8BF7"/>
<path d="M103.932 25.6707H114.721L114.404 21.9419H103.614L103.932 25.6707Z" fill="#E1E1E1"/>
<path d="M179.62 25.6707H114.722L114.404 21.9419H179.302L179.62 25.6707Z" fill="#8F8BF7"/>
<path d="M104.725 35.3499H138.364L138.126 31.6211H104.408L104.725 35.3499Z" fill="#E1E1E1"/>
<path d="M180.413 35.3499H138.364L138.126 31.6211H180.095L180.413 35.3499Z" fill="#8F8BF7"/>
<path d="M105.519 45.1085H163.038L162.721 41.3796H105.201L105.519 45.1085Z" fill="#E1E1E1"/>
<path d="M181.206 45.1085H163.038L162.721 41.3796H180.889L181.206 45.1085Z" fill="#8F8BF7"/>
<path d="M106.312 54.867H132.89L132.573 51.1382H105.995L106.312 54.867Z" fill="#E1E1E1"/>
<path d="M181.999 54.867H132.89L132.572 51.1382H181.682L181.999 54.867Z" fill="#8F8BF7"/>
<path d="M278.316 63.7527H206.833C202.31 63.7527 198.264 60.0238 197.947 55.5016L194.377 11.5487C193.98 7.02647 197.391 3.29761 201.914 3.29761H273.397C277.919 3.29761 281.965 7.02647 282.282 11.5487L285.853 55.5016C286.249 60.0238 282.838 63.7527 278.316 63.7527Z" fill="white"/>
<path d="M278.315 64.07H206.832C202.072 64.07 197.947 60.2618 197.55 55.5016L193.98 11.5487C193.821 9.24787 194.535 7.10576 196.042 5.43967C197.55 3.77359 199.613 2.90088 201.913 2.90088H273.396C278.157 2.90088 282.282 6.70908 282.679 11.4693L286.249 55.4222C286.408 57.723 285.694 59.8651 284.186 61.5312C282.679 63.1973 280.616 64.07 278.315 64.07ZM201.913 3.61492C199.851 3.61492 197.947 4.40829 196.519 5.9157C195.17 7.42311 194.456 9.40655 194.614 11.4693L198.185 55.4222C198.502 59.7858 202.389 63.356 206.753 63.356H278.236C280.299 63.356 282.203 62.5626 283.631 61.0552C284.98 59.5478 285.694 57.5643 285.535 55.5016L281.965 11.5487C281.648 7.1851 277.76 3.61492 273.396 3.61492H201.913Z" fill="#8F8BF7"/>
<path d="M242.455 54.8669H241.186L237.695 12.1833H238.964L242.455 54.8669Z" fill="#E1E1E1"/>
<path d="M244.36 37.0952H236.426L235.077 20.4343H243.011L244.36 37.0952Z" fill="#8F8BF7"/>
<path d="M226.826 54.8669H225.556L222.065 12.1833H223.335L226.826 54.8669Z" fill="#E1E1E1"/>
<path d="M229.047 40.8239H221.034L219.844 26.2258H227.857L229.047 40.8239Z" fill="#8F8BF7"/>
<path d="M211.117 54.8669H209.848L206.436 12.1833H207.705L211.117 54.8669Z" fill="#E1E1E1"/>
<path d="M212.386 28.7648H204.373L203.58 18.7683H211.513L212.386 28.7648Z" fill="#1A1D35"/>
<path d="M258.164 54.8669H256.895L253.404 12.1833H254.673L258.164 54.8669Z" fill="#E1E1E1"/>
<path d="M260.782 46.6157H252.848L250.706 20.4343H258.719L260.782 46.6157Z" fill="#1A1D35"/>
<path d="M273.793 54.8669H272.524L269.033 12.1833H270.303L273.793 54.8669Z" fill="#E1E1E1"/>
<path d="M276.729 49.7097H268.795L267.05 28.7646H275.063L276.729 49.7097Z" fill="#8F8BF7"/>
<path d="M201.834 199.816H130.351C125.829 199.816 121.783 196.087 121.465 191.565L117.895 147.612C117.498 143.09 120.91 139.361 125.432 139.361H196.915C201.437 139.361 205.484 143.09 205.801 147.612L209.371 191.565C209.768 196.087 206.356 199.816 201.834 199.816Z" fill="white"/>
<path d="M201.834 200.133H130.351C125.591 200.133 121.465 196.325 121.068 191.565L117.498 147.612C117.34 145.311 118.054 143.169 119.561 141.503C121.068 139.837 123.131 138.964 125.432 138.964H196.915C201.675 138.964 205.801 142.773 206.197 147.533L209.768 191.486C209.926 193.787 209.212 195.929 207.705 197.595C206.197 199.261 204.135 200.133 201.834 200.133ZM125.432 139.678C123.369 139.678 121.465 140.472 120.037 141.979C118.688 143.487 117.974 145.47 118.133 147.533L121.703 191.486C122.02 195.849 125.908 199.419 130.272 199.419H201.755C203.817 199.419 205.721 198.626 207.149 197.119C208.498 195.611 209.212 193.628 209.054 191.565L205.483 147.612C205.166 143.249 201.279 139.678 196.915 139.678H125.432Z" fill="#8F8BF7"/>
<path d="M135.111 168.478L150.503 186.329L168.195 159.037L179.064 173.159L181.762 169.033L199.612 190.454L131.065 190.375L135.111 168.478Z" fill="#8F8BF7"/>
<path d="M186.522 169.589L179.381 184.98L156.532 148.723L145.742 171.731L142.331 166.256L131.065 190.454L199.612 190.375L186.522 169.589Z" fill="#E1E1E1"/>
<path opacity="0.82" d="M182 315.57C282.516 315.57 364 307.364 364 297.243C364 287.121 282.516 278.916 182 278.916C81.4842 278.916 0 287.121 0 297.243C0 307.364 81.4842 315.57 182 315.57Z" fill="#DDDDDD"/>
<path d="M284.663 55.1842C285.773 55.2635 285.615 56.6123 285.535 57.6437L285.218 61.4519C285.139 62.4833 284.187 63.2766 283.076 63.1973L281.093 63.0386L281.569 57.4057C281.648 56.3743 283.631 55.1049 284.663 55.1842Z" fill="#CA874A"/>
<path d="M256.895 55.1842C255.784 55.2635 255.942 56.6123 256.022 57.6437L256.339 61.4519C256.418 62.4833 257.371 63.2766 258.481 63.1973L260.465 63.0386L259.989 57.4057C259.909 56.3743 258.005 55.1049 256.895 55.1842Z" fill="#CA874A"/>
<path d="M276.491 72.321H270.779H265.066C264.828 75.0979 265.701 79.7788 259.037 83.7456C259.037 83.7456 261.496 86.8398 270.699 86.8398C279.902 86.8398 282.362 83.7456 282.362 83.7456C275.856 79.7788 276.729 75.0979 276.491 72.321Z" fill="#DBA974"/>
<g opacity="0.51">
<path d="M265.066 72.321C265.146 74.3045 267.605 81.9209 278.712 80.6515C278.712 80.6515 277.84 79.6201 277.126 77.8747C276.412 76.1292 276.412 72.321 276.412 72.321H265.066Z" fill="#CA874A"/>
</g>
<path d="M280.854 42.4108C278.95 40.348 274.745 39.0786 271.651 38.8406C271.493 38.8406 270.064 38.8406 269.985 38.8406C266.891 39.0786 262.686 40.348 260.782 42.4108C257.926 45.5843 258.64 50.8999 258.64 56.2948C258.64 61.055 258.481 67.402 260.782 70.4962C262.765 73.273 266.812 73.9077 270.064 74.1457C270.223 74.1457 271.572 74.1457 271.651 74.1457C274.904 73.987 278.792 73.273 280.775 70.4962C283.076 67.402 282.917 61.055 282.917 56.2948C282.917 50.8999 283.631 45.5843 280.854 42.4108Z" fill="#DBA974"/>
<path d="M265.425 55.5366C265.431 55.0108 264.974 54.5793 264.404 54.5728C263.835 54.5662 263.368 54.9871 263.362 55.5129C263.356 56.0386 263.813 56.4702 264.382 56.4767C264.952 56.4832 265.419 56.0623 265.425 55.5366Z" fill="#333333"/>
<path d="M274.19 55.4572C274.196 54.9315 273.739 54.5 273.169 54.4934C272.6 54.4869 272.133 54.9078 272.127 55.4335C272.121 55.9593 272.578 56.3908 273.147 56.3974C273.717 56.4039 274.184 55.983 274.19 55.4572Z" fill="#333333"/>
<path d="M277.84 50.4239C277.84 49.9479 276.173 48.9958 273.555 48.9958C271.651 48.9958 271.175 49.0752 270.779 49.1545C270.461 49.2339 270.223 49.5512 270.223 49.8686C270.223 50.2652 270.62 50.6619 271.096 50.5826C274.349 50.1859 276.253 50.3446 276.888 50.5826C277.522 50.8206 277.84 50.8206 277.84 50.4239Z" fill="#333333"/>
<path d="M260.385 50.4239C260.385 49.9479 262.051 48.9958 264.669 48.9958C266.574 48.9958 267.05 49.0752 267.446 49.1545C267.764 49.2339 268.002 49.5512 268.002 49.8686C268.002 50.2652 267.605 50.6619 267.129 50.5826C263.876 50.1859 261.972 50.3446 261.337 50.5826C260.623 50.8206 260.385 50.8206 260.385 50.4239Z" fill="#333333"/>
<path fill-rule="evenodd" clip-rule="evenodd" d="M267.208 61.2931C267.288 61.2138 267.446 61.2931 267.526 61.3724C267.605 61.4518 267.764 61.6898 268.16 61.6898C268.319 61.6898 268.398 61.7691 268.398 61.9278C268.398 62.0865 268.319 62.1658 268.16 62.1658C267.605 62.1658 267.288 61.8485 267.208 61.6105C267.05 61.5311 267.05 61.3725 267.208 61.2931Z" fill="#CA874A"/>
<path fill-rule="evenodd" clip-rule="evenodd" d="M270.382 61.3725C270.303 61.2931 270.144 61.3725 270.065 61.4518C269.985 61.5311 269.827 61.7691 269.43 61.7691C269.271 61.7691 269.192 61.8485 269.192 62.0072C269.192 62.1658 269.271 62.2452 269.43 62.2452C269.985 62.2452 270.303 61.9278 270.382 61.6898C270.461 61.5311 270.461 61.3725 270.382 61.3725Z" fill="#CA874A"/>
<path fill-rule="evenodd" clip-rule="evenodd" d="M267.208 60.2618C267.288 60.3412 267.288 60.4998 267.208 60.5792C267.05 60.7379 266.812 61.0552 266.732 61.2932C266.732 61.4519 266.732 61.5312 266.732 61.6106C266.732 61.6899 266.812 61.7692 266.97 61.7692C267.129 61.8486 267.129 61.9279 267.129 62.0866C267.05 62.1659 266.97 62.2453 266.812 62.2453C266.574 62.1659 266.415 62.0073 266.336 61.8486C266.256 61.6899 266.256 61.4519 266.336 61.2932C266.415 60.9759 266.653 60.5792 266.891 60.3412C266.97 60.1825 267.129 60.1825 267.208 60.2618Z" fill="#CA874A"/>
<path fill-rule="evenodd" clip-rule="evenodd" d="M270.302 60.2618C270.223 60.3412 270.223 60.4998 270.302 60.5792C270.461 60.7379 270.699 61.0552 270.778 61.2932C270.778 61.4519 270.778 61.5312 270.778 61.6106C270.778 61.6899 270.699 61.7692 270.54 61.7692C270.382 61.8486 270.382 61.9279 270.382 62.0866C270.461 62.1659 270.54 62.2453 270.699 62.2453C270.937 62.1659 271.096 62.0073 271.175 61.8486C271.254 61.6899 271.254 61.4519 271.175 61.2932C271.096 60.9759 270.858 60.5792 270.62 60.3412C270.54 60.1825 270.382 60.1825 270.302 60.2618Z" fill="#CA874A"/>
<path d="M258.402 55.0255C258.164 53.2008 256.974 43.4423 258.164 40.3481C259.592 36.8573 264.352 36.3813 267.367 35.2705C270.461 34.1598 277.443 33.2871 279.109 35.5879C279.902 36.6986 280.22 37.254 280.378 37.5713C280.458 37.73 280.616 37.8093 280.775 37.8093C281.251 37.8093 282.282 37.968 282.996 38.9994C283.948 40.3481 283.393 51.5347 282.996 54.8669C282.996 55.1842 282.362 54.3908 282.441 54.1528C282.52 53.2801 282.203 51.376 282.044 50.424C281.886 49.4719 281.013 48.5992 280.696 48.2819C280.616 48.2025 280.537 48.0439 280.537 47.9645C280.537 47.1711 280.299 44.4737 278.236 43.5216C275.856 42.4109 271.413 43.601 267.843 42.9663C264.273 42.3316 262.607 43.2836 261.813 44.6323C261.179 45.7431 260.861 47.3298 260.782 47.9645C260.782 48.1232 260.703 48.2025 260.544 48.2819C260.306 48.4405 259.83 48.9166 259.513 50.0273C259.195 51.138 258.799 53.5181 258.799 54.4702C258.878 54.7082 258.402 55.1842 258.402 55.0255Z" fill="black"/>
<path d="M270.144 66.609C272.335 66.609 274.111 66.3248 274.111 65.9743C274.111 65.6238 272.335 65.3396 270.144 65.3396C267.953 65.3396 266.177 65.6238 266.177 65.9743C266.177 66.3248 267.953 66.609 270.144 66.609Z" fill="white"/>
<path d="M271.017 65.7361C271.572 65.6567 272.127 65.498 272.683 65.498C273.238 65.498 273.873 65.4981 274.428 65.9741C274.666 66.2914 274.825 66.5294 274.825 66.9261C274.904 67.3228 274.666 67.7195 274.349 67.9575C273.714 68.3542 273.079 68.3542 272.524 68.3542C271.969 68.2749 271.413 68.1162 270.858 68.0369C270.382 67.8782 269.827 67.8782 269.271 67.7988C268.16 67.7195 267.129 67.7195 266.018 67.8782C267.05 67.4815 268.16 67.1641 269.271 67.2435C269.827 67.2435 270.382 67.2435 270.937 67.3228C271.493 67.4021 272.048 67.5608 272.524 67.6402C273 67.7195 273.555 67.6402 273.873 67.4815C274.031 67.4021 274.111 67.2435 274.111 67.0848C274.111 66.9261 274.031 66.6881 273.952 66.5294C273.714 66.2121 273.159 66.0534 272.683 66.0534C272.127 65.8154 271.572 65.8947 271.017 65.7361Z" fill="#CA874A"/>
<path d="M263.638 64.9426C264.59 64.7046 266.177 64.3079 267.526 64.3079C268.398 64.3079 269.351 64.3079 270.223 64.2286C271.81 64.0699 273.159 64.6253 274.269 64.9426C274.587 65.022 274.825 65.3393 274.825 65.736C274.745 66.1327 274.349 66.3707 273.952 66.3707C269.668 65.8947 265.542 66.2914 264.035 66.4501C263.718 66.5294 263.321 66.3707 263.162 66.0534C262.924 65.5773 263.162 65.1013 263.638 64.9426Z" fill="#333333"/>
<path d="M263.718 272.41L264.194 295.497L233.808 296.211C229.048 290.896 249.517 287.564 249.517 287.564V287.167L248.565 272.807L263.718 272.41Z" fill="#375A64"/>
<g opacity="0.6">
<path d="M258.878 286.135C259.434 286.294 259.91 286.85 259.751 287.484C259.592 288.119 258.958 288.436 258.402 288.357C257.847 288.198 257.291 287.484 257.45 286.929C257.609 286.374 258.402 285.977 258.958 286.215" fill="#375A64"/>
</g>
<g opacity="0.6">
<path d="M264.194 295.497L264.035 293.197L234.997 294.783C234.997 294.783 233.649 295.339 233.807 296.291L264.194 295.497Z" fill="#375A64"/>
</g>
<path d="M248.961 287.405C248.961 287.564 249.675 287.564 250.468 288.04C251.182 288.436 251.579 289.071 251.738 288.992C251.896 288.992 251.658 288.119 250.706 287.643C249.834 287.088 248.961 287.326 248.961 287.405Z" fill="#375A64"/>
<path d="M245.867 288.753C245.867 288.912 246.501 289.15 246.977 289.706C247.533 290.261 247.691 290.896 247.771 290.896C247.929 290.896 248.009 290.102 247.295 289.388C246.739 288.674 245.867 288.595 245.867 288.753Z" fill="#375A64"/>
<path d="M244.121 292.403C244.28 292.403 244.439 291.689 244.042 290.975C243.645 290.182 242.931 289.944 242.852 290.023C242.773 290.102 243.249 290.578 243.566 291.134C243.963 291.768 243.963 292.403 244.121 292.403Z" fill="#375A64"/>
<path d="M249.199 284.072C249.278 284.231 249.913 283.993 250.786 283.993C251.659 283.993 252.293 284.231 252.373 284.152C252.452 284.073 251.817 283.517 250.786 283.517C249.754 283.438 249.12 283.914 249.199 284.072Z" fill="#375A64"/>
<path d="M249.834 280.661C249.834 280.74 250.389 280.82 251.341 280.582C251.817 280.502 252.373 280.344 252.928 280.106C253.245 279.947 253.484 279.788 253.801 279.63C253.96 279.55 254.118 279.471 254.277 279.312C254.436 279.154 254.515 278.757 254.356 278.598C254.198 278.36 253.88 278.281 253.721 278.281C253.483 278.281 253.325 278.36 253.166 278.36C252.849 278.44 252.531 278.598 252.214 278.678C251.659 278.916 251.183 279.233 250.865 279.55C250.151 280.185 249.913 280.74 249.993 280.74C250.072 280.82 250.389 280.344 251.103 279.788C251.421 279.55 251.897 279.233 252.452 278.995C252.69 278.916 253.007 278.757 253.325 278.757C253.642 278.678 253.88 278.678 254.039 278.757C254.039 278.836 254.039 278.836 254.039 278.916C253.96 278.995 253.88 279.074 253.721 279.154C253.483 279.312 253.166 279.471 252.928 279.63C252.373 279.868 251.897 280.106 251.5 280.185C250.389 280.502 249.834 280.582 249.834 280.661Z" fill="#375A64"/>
<path d="M249.992 280.82C250.072 280.82 250.31 280.344 250.389 279.392C250.389 278.916 250.31 278.36 250.151 277.805C250.072 277.488 249.913 277.25 249.754 276.932C249.596 276.615 249.358 276.298 248.802 276.218C248.485 276.218 248.247 276.456 248.168 276.615C248.088 276.774 248.088 277.012 248.009 277.17C247.93 277.488 248.009 277.805 248.009 278.122C248.088 278.757 248.406 279.233 248.723 279.63C249.358 280.344 249.992 280.502 249.992 280.502C250.072 280.423 249.516 280.185 249.04 279.471C248.802 279.154 248.564 278.678 248.485 278.122C248.485 277.884 248.406 277.567 248.485 277.329C248.485 277.012 248.644 276.774 248.723 276.774C248.882 276.774 249.12 277.012 249.278 277.25C249.437 277.488 249.596 277.726 249.675 278.043C249.913 278.519 249.992 279.074 249.992 279.471C250.072 280.264 249.913 280.82 249.992 280.82Z" fill="#375A64"/>
<path d="M286.725 274.314L289.661 297.243L319.809 293.514C323.617 286.453 303.069 287.246 303.069 287.246L301.879 272.489L286.725 274.314Z" fill="#375A64"/>
<g opacity="0.6">
<path d="M293.548 287.167C292.993 287.405 292.675 288.04 292.834 288.595C293.072 289.15 293.786 289.468 294.341 289.23C294.897 288.992 295.294 288.198 295.056 287.722C294.818 287.246 293.945 286.849 293.548 287.167Z" fill="#375A64"/>
</g>
<g opacity="0.6">
<path d="M289.661 297.243L289.502 294.942L318.46 292.244C318.46 292.244 319.888 292.641 319.809 293.514L289.661 297.243Z" fill="#375A64"/>
</g>
<path d="M303.465 287.008C303.465 287.167 302.751 287.325 302.117 287.801C301.403 288.357 301.165 288.991 301.006 288.912C300.847 288.912 301.006 288.039 301.799 287.405C302.593 286.849 303.465 286.929 303.465 287.008Z" fill="#375A64"/>
<path d="M306.798 287.881C306.877 288.039 306.242 288.357 305.846 288.991C305.37 289.626 305.37 290.261 305.211 290.261C305.052 290.261 304.894 289.467 305.449 288.674C305.925 287.881 306.798 287.722 306.798 287.881Z" fill="#375A64"/>
<path d="M309.019 291.213C308.86 291.292 308.622 290.578 308.86 289.785C309.178 288.991 309.812 288.595 309.892 288.674C309.971 288.753 309.575 289.229 309.337 289.943C309.098 290.578 309.178 291.213 309.019 291.213Z" fill="#375A64"/>
<path d="M302.831 283.676C302.751 283.835 302.117 283.676 301.244 283.835C300.451 283.993 299.816 284.311 299.737 284.231C299.657 284.152 300.213 283.517 301.165 283.359C302.117 283.2 302.831 283.597 302.831 283.676Z" fill="#375A64"/>
<path d="M301.641 280.423C301.641 280.502 301.085 280.661 300.133 280.582C299.657 280.582 299.102 280.502 298.467 280.344C298.15 280.264 297.832 280.185 297.515 280.026C297.356 279.947 297.198 279.868 297.039 279.709C296.88 279.55 296.722 279.233 296.88 278.995C297.039 278.757 297.277 278.598 297.515 278.598C297.753 278.598 297.912 278.598 298.07 278.598C298.388 278.598 298.705 278.677 299.023 278.757C299.657 278.916 300.133 279.154 300.53 279.471C301.323 280.026 301.641 280.502 301.561 280.502C301.482 280.582 301.085 280.185 300.371 279.709C299.975 279.471 299.499 279.312 298.943 279.154C298.626 279.074 298.388 278.995 298.07 278.995C297.753 278.915 297.436 278.995 297.436 279.154C297.436 279.233 297.436 279.233 297.515 279.312C297.594 279.392 297.753 279.471 297.912 279.55C298.229 279.709 298.467 279.788 298.784 279.868C299.34 280.026 299.895 280.185 300.292 280.185C301.085 280.344 301.641 280.344 301.641 280.423Z" fill="#375A64"/>
<path d="M301.482 280.661C301.402 280.661 301.085 280.264 300.926 279.312C300.847 278.836 300.847 278.281 300.926 277.726C301.006 277.408 301.085 277.091 301.244 276.773C301.402 276.456 301.561 276.059 302.117 275.901C302.434 275.821 302.672 276.059 302.831 276.218C302.989 276.377 302.989 276.535 303.069 276.694C303.148 277.011 303.227 277.329 303.148 277.646C303.148 278.281 302.91 278.836 302.672 279.233C302.196 280.026 301.561 280.264 301.561 280.264C301.482 280.185 301.958 279.868 302.355 279.074C302.513 278.678 302.672 278.202 302.672 277.646C302.672 277.408 302.593 277.091 302.513 276.853C302.434 276.535 302.275 276.297 302.196 276.377C302.037 276.377 301.799 276.615 301.72 276.932C301.561 277.17 301.482 277.488 301.402 277.726C301.244 278.281 301.244 278.757 301.244 279.154C301.323 280.106 301.561 280.582 301.482 280.661Z" fill="#375A64"/>
<path d="M240.155 149.992L287.44 151.5C287.44 151.5 298.547 225.918 298.309 231.075L305.211 285.025L285.218 285.739C285.218 285.739 282.045 268.205 279.903 256.225C278.475 248.291 275.777 236.55 275.063 229.885C274.349 223.221 262.686 176.729 262.686 176.729C262.686 176.729 263.559 230.679 263.559 232.9C263.559 235.121 265.86 285.659 265.86 285.659H246.026C244.994 276.536 242.535 240.04 242.059 232.662C241.107 219.333 238.092 181.727 237.695 172.128C237.06 162.607 240.155 149.992 240.155 149.992Z" fill="#1A2E35"/>
<path d="M243.248 150.31C243.328 150.31 243.407 149.516 243.407 148.644C243.407 147.692 243.328 146.978 243.248 146.978C243.169 146.978 243.09 147.771 243.09 148.644C243.09 149.596 243.169 150.31 243.248 150.31Z" fill="#375A64"/>
<path d="M241.345 151.262C241.424 151.262 241.662 150.31 241.503 149.12C241.424 147.93 241.027 146.978 240.948 146.978C240.869 146.978 241.027 147.93 241.186 149.12C241.265 150.23 241.186 151.182 241.345 151.262Z" fill="#375A64"/>
<path d="M258.958 147.692C258.958 147.771 259.513 147.692 259.989 148.247C260.227 148.485 260.386 148.961 260.306 149.358C260.227 149.754 259.83 150.151 259.275 150.23C258.799 150.31 258.244 150.151 258.006 149.754C257.767 149.358 257.767 148.961 257.926 148.564C258.164 147.85 258.72 147.692 258.64 147.692C258.64 147.692 258.482 147.692 258.323 147.771C258.085 147.85 257.847 148.088 257.688 148.485C257.529 148.882 257.45 149.358 257.768 149.913C258.085 150.468 258.72 150.706 259.354 150.548C259.989 150.468 260.544 149.913 260.624 149.358C260.703 148.802 260.465 148.326 260.148 148.009C259.83 147.692 259.513 147.612 259.275 147.612C259.116 147.612 258.958 147.692 258.958 147.692Z" fill="#375A64"/>
<path d="M280.775 229.806C280.775 229.885 283.076 229.012 285.853 227.902C288.629 226.791 290.851 225.76 290.772 225.68C290.772 225.601 288.471 226.474 285.694 227.584C282.917 228.695 280.696 229.727 280.775 229.806Z" fill="#375A64"/>
<path d="M247.771 51.9314L246.581 51.6141L227.461 70.2584L211.99 72.1625C211.99 72.1625 212.148 67.4816 217.94 61.4519C223.176 56.1363 235.315 49.7893 239.44 46.4572C240.472 45.6638 241.265 45.4258 241.265 45.4258L247.771 51.9314Z" fill="#DBA974"/>
<path d="M241.186 45.4257L244.042 50.9C244.042 50.9 245.946 51.9314 247.453 52.6454C248.961 53.3595 254.514 53.2801 254.514 53.2801C254.514 53.2801 258.64 52.8041 259.116 52.5661L259.274 50.5827L255.704 50.662L255.625 49.0753L258.243 48.3612C258.243 48.3612 259.512 48.9166 262.845 48.9959C266.177 48.9959 266.098 47.2505 266.098 47.2505C266.098 47.2505 262.607 46.9331 262.845 46.8538C263.083 46.7745 263.559 45.4257 263.559 45.4257L258.084 43.601C259.433 44.077 259.592 42.3316 259.592 42.3316L254.356 40.3481L249.754 42.5696L247.771 43.125L241.186 45.4257Z" fill="#CA874A"/>
<path d="M244.121 50.9C244.121 50.9 246.025 51.9314 247.533 52.6454C249.04 53.3595 254.594 53.2801 254.594 53.2801C254.594 53.2801 258.323 52.9628 258.878 52.6454L259.195 50.424L255.784 50.5827L255.705 48.9959L258.323 48.2819C258.323 48.2819 259.592 48.8372 262.924 48.9166C266.256 48.9166 266.177 47.1711 266.177 47.1711C266.177 47.1711 262.686 46.8538 262.924 46.7745C263.162 46.6951 263.638 45.3464 263.638 45.3464L258.164 43.5216C259.513 43.9976 259.671 42.2522 259.671 42.2522L254.435 40.2688L249.834 42.4902L247.85 43.0456L241.265 45.3464" fill="#DBA974"/>
<path d="M244.121 50.9C244.121 50.9 244.201 50.9794 244.28 50.9794C244.439 51.0587 244.597 51.138 244.756 51.2967C245.232 51.5347 245.867 51.9314 246.66 52.3281C247.057 52.5661 247.533 52.8835 248.088 52.9628C248.644 53.1215 249.278 53.2008 249.992 53.2801C251.341 53.4388 252.848 53.4388 254.594 53.4388C255.229 53.3595 255.943 53.2801 256.657 53.2008C257.371 53.1215 258.085 53.0421 258.957 52.8041H259.037V52.7248C259.116 52.0107 259.275 51.2967 259.433 50.5033V50.2653H259.195C258.085 50.3447 256.974 50.3447 255.784 50.424L256.022 50.5827C256.022 50.1067 255.943 49.5513 255.943 48.9959L255.784 49.2339C256.577 48.9959 257.529 48.7579 258.402 48.5199H258.243C259.513 48.9959 260.861 49.0753 262.21 49.1546C262.924 49.1546 263.559 49.1546 264.273 49.0753C264.987 48.9166 265.701 48.5992 266.177 47.9645C266.256 47.7265 266.336 47.5678 266.415 47.2505V47.0918H266.256C265.463 47.0125 264.59 46.9331 263.797 46.8538C263.559 46.8538 263.4 46.7745 263.242 46.7745H263.083C263.083 46.7745 263.083 46.7745 263.162 46.7745C263.242 46.8538 263.242 46.9332 263.242 46.9332C263.242 47.0125 263.083 47.0918 263.162 47.0918C263.242 47.0918 263.242 47.0125 263.321 47.0125C263.4 46.9332 263.48 46.7745 263.559 46.6951C263.797 46.2984 263.876 45.9811 264.035 45.5844L264.114 45.4257L263.876 45.3464C261.972 44.7117 260.147 44.1563 258.402 43.5216L258.243 43.9183C258.481 43.9977 258.719 44.077 258.957 43.9977C259.195 43.9977 259.433 43.839 259.592 43.6803C259.909 43.2836 259.989 42.8869 260.068 42.4903V42.3316L259.909 42.2522C258.005 41.5382 256.26 40.9035 254.673 40.3481H254.594H254.514C252.848 41.1415 251.262 41.9349 249.913 42.5696C249.199 42.7283 248.564 42.9663 248.009 43.125C247.453 43.363 246.819 43.5216 246.343 43.7597C245.311 44.1563 244.439 44.4737 243.645 44.7117C242.931 44.9497 242.376 45.1877 241.979 45.3464C241.583 45.5051 241.424 45.5844 241.424 45.5844C241.424 45.5844 241.662 45.5051 242.059 45.4257C242.455 45.2671 243.011 45.1084 243.725 44.8704C244.439 44.6324 245.391 44.315 246.422 43.9977C246.977 43.839 247.533 43.601 248.088 43.4423C248.723 43.2836 249.358 43.125 249.992 42.8869C251.42 42.2522 252.928 41.5382 254.594 40.7448H254.435C256.101 41.3795 257.847 42.0142 259.671 42.7283L259.513 42.5696C259.513 42.8869 259.354 43.2836 259.195 43.5216C258.957 43.7597 258.64 43.839 258.323 43.6803L258.164 44.077C259.909 44.6324 261.734 45.2671 263.638 45.9018L263.48 45.6637C263.321 46.0604 263.242 46.3778 263.004 46.6951C262.924 46.7745 262.924 46.8538 262.845 46.8538L262.924 46.9332C262.845 46.6951 262.924 46.8538 262.845 46.8538C262.845 46.8538 262.845 46.8538 262.766 46.8538L262.686 46.9332C262.686 47.0125 262.686 47.0918 262.766 47.0918C262.845 47.1712 262.845 47.0918 262.845 47.1712H262.924C263.004 47.1712 263.004 47.1712 263.083 47.1712C263.321 47.1712 263.48 47.2505 263.718 47.2505C264.511 47.3298 265.304 47.4092 266.177 47.4885L266.018 47.2505C266.018 47.4092 265.939 47.5678 265.86 47.7265C265.542 48.2819 264.908 48.5199 264.273 48.6786C263.638 48.8372 262.924 48.8373 262.29 48.7579C260.941 48.6786 259.592 48.5992 258.481 48.2026H258.402H258.323C257.371 48.4406 256.498 48.6786 255.705 48.9166L255.546 48.9959V49.1546C255.546 49.71 255.625 50.2653 255.625 50.7413V50.9H255.784C256.974 50.8207 258.085 50.8207 259.195 50.7413L259.037 50.5033C258.878 51.2967 258.799 52.0107 258.719 52.7248L258.799 52.5661C258.164 52.8041 257.371 52.8041 256.657 52.9628C255.943 53.0421 255.229 53.1215 254.594 53.2008C252.928 53.2008 251.341 53.2008 249.992 53.0421C249.358 52.9628 248.723 52.8835 248.168 52.8041C247.612 52.7248 247.136 52.4074 246.739 52.1694C245.946 51.7727 245.232 51.4554 244.756 51.2174C244.518 51.138 244.359 51.0587 244.28 50.9794C244.201 50.9 244.121 50.9 244.121 50.9Z" fill="#CA874A"/>
<path d="M252.769 44.077C252.769 44.1563 253.086 43.9976 253.562 43.7596C254.038 43.5216 254.752 43.2836 255.467 42.7282H255.229C255.308 42.8076 255.387 42.8076 255.467 42.8869C256.26 43.3629 257.053 43.6009 257.609 43.6803C258.164 43.7596 258.561 43.6803 258.561 43.6803C258.561 43.5216 257.133 43.5216 255.625 42.5696C255.546 42.4902 255.467 42.4902 255.467 42.4109L255.308 42.3315L255.229 42.4109C254.594 42.8869 253.88 43.2043 253.483 43.5216C253.007 43.7596 252.769 43.9976 252.769 44.077Z" fill="#CA874A"/>
<path d="M254.435 46.8538C254.435 46.8538 254.752 47.0125 255.308 46.7745C255.863 46.5365 256.418 45.9811 257.212 45.6638H257.053C257.371 45.9018 257.688 46.0605 258.085 46.2985C259.195 46.8538 260.306 47.0125 261.02 47.0125C261.813 47.0125 262.289 46.9332 262.289 46.8538C262.289 46.6952 260.306 46.8538 258.243 45.9018C257.847 45.7431 257.529 45.5051 257.212 45.3464L257.133 45.2671L257.053 45.3464C256.18 45.7431 255.704 46.3778 255.228 46.6158C254.832 46.7745 254.435 46.7745 254.435 46.8538Z" fill="#CA874A"/>
<path d="M249.516 48.5992C249.516 48.6785 249.913 48.5199 250.547 48.5199C251.182 48.5199 252.055 48.6785 252.848 49.2339C253.324 49.5512 253.721 49.9479 253.959 50.3446L254.038 50.424H254.118C255.228 50.662 256.022 50.7413 256.022 50.662C256.022 50.5826 255.308 50.3446 254.197 50.1066L254.276 50.186C254.038 49.7099 253.642 49.2339 253.086 48.9166C252.214 48.3612 251.262 48.2025 250.547 48.2819C249.913 48.2819 249.516 48.5199 249.516 48.5992Z" fill="#CA874A"/>
<path d="M250.706 44.9496C250.627 45.0289 251.42 46.0603 252.769 47.0124C254.118 47.9644 255.387 48.3611 255.387 48.2818C255.466 48.2024 254.276 47.6471 253.007 46.695C251.738 45.743 250.785 44.8703 250.706 44.9496Z" fill="#CA874A"/>
<path d="M212.069 71.5277L227.46 70.2583L245.549 77.1607L249.516 79.6201L243.883 98.9784C243.883 98.9784 215.48 82.2382 214.29 80.8102C210.561 76.3673 212.069 71.5277 212.069 71.5277Z" fill="#E69F69"/>
<path d="M294.104 85.8084L299.42 89.0613L287.202 137.06L289.423 164.749C286.25 167.526 278.316 169.827 263.242 169.033C248.168 168.161 238.092 161.655 238.092 161.655L239.52 133.173L241.186 110.403C241.9 102.628 242.455 96.995 245.708 87.3952L249.516 79.5408L262.924 77.1606L264.987 78.192L267.605 85.4117L274.349 80.4928L279.585 77.954L281.172 81.3655L294.104 85.8084Z" fill="#E69F69"/>
<path d="M244.359 95.9636L215.56 79.6201C215.56 79.6201 212.386 77.6367 212.386 75.8912C212.386 74.1458 211.99 79.1441 214.291 80.8101C216.591 82.4762 242.773 98.3437 242.773 98.3437L244.359 95.9636Z" fill="#D5752C"/>
<path d="M291.089 111.831L296.881 130.951L293.945 169.906L302.434 171.017C302.434 171.017 312.193 137.854 311.241 131.904C310.289 125.953 306.322 108.42 306.322 108.42L291.089 111.831Z" fill="#DBA974"/>
<path d="M293.945 169.589L289.978 176.333L288.55 179.982C288.154 181.013 289.185 182.045 290.216 181.648L291.248 181.251C291.248 181.251 292.835 188.947 293.469 189.106C294.104 189.344 295.929 188.709 295.691 187.202C295.691 187.202 296.563 188.074 297.674 187.836C298.785 187.598 299.102 186.884 298.943 185.456C298.943 185.456 300.292 186.488 301.006 185.853C301.8 185.218 301.72 184.028 301.72 184.028C301.72 184.028 303.466 184.187 303.624 183.314C303.862 182.442 303.942 179.903 303.704 178.951C303.466 177.999 302.672 174.032 302.672 174.032L302.276 170.858L293.945 169.589Z" fill="#DBA974"/>
<path d="M294.897 182.838C294.977 182.838 295.294 183.79 295.532 184.98C295.77 186.17 295.849 187.202 295.77 187.202C295.691 187.202 295.373 186.25 295.135 185.06C294.897 183.87 294.818 182.838 294.897 182.838Z" fill="#DBA974"/>
<path d="M298.388 181.966C298.467 181.966 298.705 182.759 298.943 183.711C299.102 184.663 299.181 185.456 299.102 185.536C299.023 185.536 298.785 184.742 298.547 183.79C298.388 182.759 298.309 181.966 298.388 181.966Z" fill="#DBA974"/>
<path d="M301.244 181.172C301.323 181.172 301.403 181.886 301.561 182.68C301.72 183.473 301.879 184.108 301.799 184.187C301.72 184.187 301.323 183.632 301.165 182.759C301.085 181.807 301.165 181.172 301.244 181.172Z" fill="#DBA974"/>
<path d="M291.01 179.109C291.089 179.109 291.327 180.061 291.644 181.251C291.962 182.442 292.12 183.394 292.041 183.473C291.962 183.473 291.565 182.6 291.327 181.41C291.01 180.061 290.851 179.109 291.01 179.109Z" fill="#DBA974"/>
<path d="M311.717 144.677C311.717 144.042 314.414 134.918 313.541 130.238C312.748 125.557 303.069 93.7423 301.72 91.4415C300.451 89.1408 297.595 87.9507 297.595 87.9507C297.595 87.9507 291.803 90.6482 289.899 97.6298C287.916 104.612 287.916 113.339 287.916 113.339L295.691 132.618L294.739 143.566L311.717 144.677Z" fill="#E69F69"/>
<path d="M207.943 148.882C214.608 148.882 221.272 150.865 227.064 154.991C234.204 160.068 238.964 167.685 240.392 176.333C241.821 184.98 239.837 193.707 234.68 200.848C224.128 215.605 203.58 219.016 188.823 208.464C181.683 203.387 176.923 195.77 175.495 187.122C174.066 178.475 176.05 169.748 181.207 162.607C187.633 153.721 197.709 148.961 207.943 148.882ZM208.023 212.431C217.543 212.431 226.984 207.909 232.935 199.578C237.695 192.914 239.599 184.822 238.25 176.729C236.902 168.637 232.459 161.576 225.794 156.816C219.13 152.055 211.038 150.151 202.945 151.5C194.853 152.849 187.792 157.292 183.032 163.956C178.271 170.62 176.367 178.713 177.716 186.805C179.065 194.898 183.508 201.959 190.172 206.719C195.567 210.606 201.755 212.431 208.023 212.431Z" fill="#514AF3"/>
<path d="M201.596 215.684C196.757 214.811 192.076 212.828 187.95 209.813C180.493 204.497 175.494 196.484 173.987 187.44C172.479 178.395 174.622 169.272 179.937 161.735C186.364 152.769 196.836 147.375 207.943 147.295C215.163 147.295 222.145 149.517 228.016 153.721C235.473 159.037 240.472 167.05 241.979 176.095C243.486 185.139 241.344 194.263 236.029 201.8C230.713 209.258 222.779 214.256 213.656 215.763C209.53 216.398 205.484 216.398 201.596 215.684ZM213.338 153.166C210.006 152.531 206.595 152.531 203.183 153.087C195.487 154.356 188.823 158.561 184.301 164.908C179.779 171.255 178.033 178.951 179.302 186.567C180.572 194.263 184.777 200.927 191.124 205.449C196.122 209.02 201.914 210.844 208.023 210.844C217.384 210.844 226.27 206.243 231.665 198.706C236.187 192.359 237.933 184.663 236.663 177.047C235.394 169.351 231.189 162.687 224.842 158.164C221.351 155.626 217.384 153.96 213.338 153.166Z" fill="#514AF3"/>
<path d="M135.27 135.553L135.667 134.918C136.54 133.49 138.047 132.935 138.999 133.49L182.635 161.496C182.873 161.655 182.873 161.972 182.635 162.29L179.699 166.891C179.461 167.209 179.144 167.367 178.985 167.209L135.35 139.202C134.398 138.568 134.318 136.902 135.27 135.553Z" fill="#514AF3"/>
<path d="M197.629 171.652C197.55 171.731 203.183 176.65 210.244 182.679C217.305 188.709 223.097 193.549 223.097 193.469C223.176 193.39 217.543 188.471 210.482 182.441C203.5 176.412 197.709 171.572 197.629 171.652Z" fill="#8F8BF7"/>
<path d="M190.33 171.652C190.251 171.731 195.011 175.936 200.961 181.013C206.912 186.091 211.751 190.216 211.831 190.137C211.91 190.058 207.15 185.853 201.199 180.775C195.328 175.698 190.409 171.572 190.33 171.652Z" fill="#8F8BF7"/>
<path d="M179.62 181.807C179.62 181.807 179.62 181.648 179.699 181.331C179.699 181.013 179.778 180.537 179.778 179.982C179.778 179.665 179.778 179.347 179.858 179.03C179.858 178.633 179.937 178.316 180.016 177.84C180.096 177.443 180.175 176.967 180.254 176.491C180.334 176.015 180.492 175.46 180.651 174.984C181.127 172.842 182.158 170.224 183.745 167.526C185.332 164.829 187.712 161.973 190.886 159.592C191.282 159.275 191.679 158.958 192.076 158.72C192.472 158.402 192.948 158.164 193.424 157.926C193.9 157.688 194.297 157.371 194.773 157.133C195.249 156.895 195.725 156.657 196.201 156.419C196.439 156.34 196.677 156.181 196.915 156.102C197.153 156.022 197.471 155.943 197.709 155.784C198.264 155.626 198.74 155.388 199.295 155.229C199.851 155.07 200.406 154.911 200.961 154.753C201.517 154.594 202.072 154.435 202.627 154.356C203.818 154.197 204.928 153.959 206.198 153.959C206.832 153.959 207.388 153.88 208.022 153.88C208.657 153.88 209.292 153.959 209.847 153.959C210.165 153.959 210.482 153.959 210.799 154.039L211.751 154.197C212.386 154.277 213.021 154.356 213.655 154.515C214.925 154.832 216.194 155.07 217.384 155.626C218.654 156.022 219.844 156.657 221.034 157.212C221.589 157.53 222.224 157.926 222.779 158.244C223.097 158.402 223.335 158.561 223.652 158.799L224.445 159.434C225.556 160.227 226.587 161.179 227.619 162.131C228.571 163.163 229.523 164.194 230.396 165.384L231.03 166.257L231.586 167.209L232.141 168.161C232.3 168.478 232.538 168.796 232.696 169.113C233.014 169.748 233.331 170.462 233.648 171.096C233.886 171.81 234.124 172.445 234.442 173.159C235.394 175.936 235.87 178.951 235.87 181.966C235.791 184.98 235.314 187.995 234.442 190.772C234.204 191.486 233.966 192.121 233.648 192.835C233.331 193.469 233.014 194.183 232.696 194.818L232.458 195.294L232.141 195.77L231.586 196.722L231.03 197.674L230.396 198.547C229.602 199.737 228.571 200.769 227.619 201.8C226.587 202.752 225.556 203.704 224.445 204.497L223.652 205.132C223.414 205.37 223.097 205.529 222.779 205.687C222.224 206.005 221.589 206.401 221.034 206.719C219.844 207.274 218.654 207.909 217.384 208.306C216.194 208.782 214.845 209.099 213.655 209.416C213.021 209.575 212.386 209.654 211.751 209.734L210.799 209.892C210.482 209.972 210.165 209.892 209.847 209.972C209.212 209.972 208.578 210.051 208.022 210.051C207.388 210.051 206.832 209.972 206.198 209.972C205.008 209.972 203.818 209.734 202.627 209.575C202.072 209.496 201.517 209.337 200.961 209.178C200.406 209.02 199.851 208.94 199.295 208.702C198.74 208.544 198.264 208.306 197.709 208.147C197.471 208.068 197.153 207.988 196.915 207.83C196.677 207.75 196.439 207.592 196.201 207.512C195.725 207.274 195.249 207.036 194.773 206.798C194.297 206.56 193.821 206.243 193.424 206.005C192.948 205.767 192.552 205.449 192.076 205.211C191.679 204.894 191.282 204.577 190.886 204.339C187.712 201.959 185.332 199.102 183.745 196.405C182.158 193.707 181.127 191.089 180.651 188.947C180.492 188.392 180.334 187.916 180.254 187.44C180.175 186.964 180.096 186.488 180.016 186.091C179.937 185.694 179.858 185.298 179.858 184.901C179.858 184.504 179.778 184.187 179.778 183.949C179.778 183.394 179.699 182.918 179.699 182.6C179.699 181.886 179.62 181.807 179.62 181.807C179.62 181.807 179.62 181.966 179.62 182.283C179.62 182.6 179.62 183.076 179.699 183.632C179.699 183.949 179.699 184.266 179.778 184.584C179.778 184.98 179.858 185.377 179.937 185.774C180.016 186.17 180.096 186.646 180.175 187.122C180.254 187.598 180.413 188.154 180.492 188.709C180.968 190.931 182 193.469 183.586 196.246C185.173 199.023 187.553 201.879 190.727 204.339C191.124 204.656 191.52 204.973 191.917 205.291C192.314 205.608 192.79 205.846 193.266 206.084C193.742 206.322 194.138 206.639 194.614 206.877C195.09 207.115 195.566 207.354 196.122 207.592C196.36 207.671 196.598 207.83 196.836 207.988C197.074 208.068 197.391 208.147 197.629 208.306C198.185 208.464 198.661 208.702 199.216 208.861C199.771 209.02 200.327 209.178 200.882 209.337C201.437 209.496 201.993 209.654 202.627 209.734C203.818 209.892 205.008 210.13 206.198 210.13C206.832 210.13 207.388 210.21 208.022 210.21C208.657 210.21 209.292 210.13 209.926 210.13C210.244 210.13 210.561 210.13 210.879 210.051L211.831 209.892C212.465 209.813 213.1 209.734 213.735 209.575C215.004 209.258 216.274 209.02 217.543 208.464C218.812 208.068 220.002 207.433 221.272 206.877C221.906 206.56 222.462 206.163 223.017 205.846C223.335 205.687 223.652 205.529 223.89 205.291L224.763 204.656C225.953 203.863 226.905 202.911 228.015 201.959C228.968 200.927 229.999 199.896 230.792 198.706L231.427 197.833L231.982 196.881L232.538 195.929L232.855 195.453L233.093 194.977C233.41 194.342 233.728 193.628 234.045 192.993C234.283 192.279 234.521 191.565 234.838 190.851C235.791 187.995 236.267 184.98 236.267 181.886C236.187 178.792 235.711 175.777 234.838 172.921C234.6 172.207 234.362 171.493 234.045 170.779C233.728 170.144 233.41 169.43 233.093 168.796C232.934 168.478 232.776 168.161 232.538 167.843L231.982 166.891L231.427 165.939L230.792 165.067C229.999 163.877 228.968 162.845 228.015 161.814C226.984 160.862 225.953 159.91 224.763 159.116L223.89 158.482C223.652 158.244 223.335 158.085 223.017 157.926C222.462 157.609 221.827 157.212 221.272 156.895C220.002 156.34 218.812 155.705 217.543 155.308C216.274 154.832 215.004 154.515 213.735 154.197C213.1 154.039 212.465 153.959 211.831 153.88L210.879 153.721C210.561 153.642 210.244 153.721 209.926 153.642C209.292 153.642 208.657 153.563 208.022 153.563C207.388 153.563 206.753 153.642 206.198 153.642C205.008 153.642 203.818 153.88 202.627 154.039C202.072 154.118 201.517 154.277 200.882 154.435C200.327 154.594 199.771 154.673 199.216 154.911C198.661 155.07 198.185 155.308 197.629 155.467C197.391 155.546 197.074 155.626 196.836 155.784C196.598 155.943 196.36 156.022 196.122 156.181C195.646 156.419 195.17 156.657 194.614 156.895C194.138 157.133 193.662 157.45 193.266 157.688C192.79 158.006 192.393 158.244 191.917 158.482C191.52 158.799 191.124 159.116 190.727 159.434C187.553 161.893 185.173 164.749 183.586 167.526C182 170.303 180.968 172.921 180.492 175.063C180.334 175.619 180.175 176.095 180.175 176.65C180.096 177.126 180.016 177.602 179.937 177.999C179.858 178.395 179.778 178.792 179.778 179.189C179.778 179.585 179.778 179.903 179.699 180.141C179.699 180.696 179.699 181.172 179.62 181.49C179.62 181.648 179.62 181.807 179.62 181.807Z" fill="#8F8BF7"/>
<path d="M190.092 196.722C190.092 196.722 189.854 196.405 189.378 195.77C188.902 195.135 188.267 194.263 187.553 193.073C186.125 190.772 184.697 187.202 184.221 182.997C183.745 178.871 184.538 175.063 185.411 172.524C185.808 171.255 186.284 170.223 186.601 169.509C186.919 168.795 187.157 168.399 187.077 168.399C187.077 168.399 186.998 168.478 186.919 168.637C186.839 168.795 186.681 169.033 186.443 169.43C186.046 170.144 185.57 171.096 185.094 172.445C184.142 175.063 183.348 178.871 183.824 183.076C184.3 187.281 185.808 190.851 187.315 193.231C188.029 194.421 188.743 195.294 189.219 195.849C189.457 196.167 189.695 196.325 189.775 196.484C190.013 196.643 190.013 196.722 190.092 196.722Z" fill="#8F8BF7"/>
<path d="M191.52 199.34C191.441 199.42 191.679 199.658 191.996 199.816C192.314 199.975 192.631 200.054 192.71 199.975C192.79 199.896 192.552 199.658 192.234 199.499C191.917 199.34 191.6 199.261 191.52 199.34Z" fill="#8F8BF7"/>
<path d="M228.571 193.866C228.571 193.866 228.65 193.787 228.73 193.549C228.809 193.311 228.968 192.993 229.126 192.517C229.444 191.644 229.92 190.375 230.237 188.709C230.951 185.456 231.269 180.617 229.92 175.618C228.571 170.62 225.874 166.574 223.573 164.114C222.462 162.845 221.431 161.972 220.637 161.338C220.241 161.02 220.003 160.862 219.765 160.703C219.527 160.544 219.447 160.465 219.447 160.465C219.447 160.465 219.844 160.782 220.558 161.417C221.272 162.052 222.224 163.004 223.335 164.194C225.556 166.653 228.174 170.62 229.523 175.618C230.872 180.537 230.634 185.297 229.92 188.55C229.602 190.216 229.206 191.486 228.888 192.358C228.73 193.39 228.492 193.866 228.571 193.866Z" fill="#8F8BF7"/>
<path d="M211.91 158.64C211.91 158.72 212.624 158.878 213.576 158.958C214.528 159.037 215.242 159.037 215.242 158.878C215.242 158.799 214.528 158.64 213.576 158.561C212.704 158.561 211.91 158.561 211.91 158.64Z" fill="#8F8BF7"/>
<path d="M260.544 93.1868L260.782 77.5573L263.479 74.7012L267.605 85.4117L278.712 75.8912L281.172 82.0796L275.142 95.9636L269.747 86.7605L267.526 85.8877L260.544 93.1868Z" fill="#D5752C"/>
<path d="M287.201 137.06L286.646 125.557L287.995 108.34L290.93 115.084L296.881 130.951L295.77 132.697L291.089 120.955L287.201 137.06Z" fill="#D5752C"/>
<path fill-rule="evenodd" clip-rule="evenodd" d="M270.54 55.9775H267.05V56.1362H270.54V55.9775ZM266.891 55.7395V56.2949H270.778V55.7395H266.891Z" fill="#333333"/>
<path fill-rule="evenodd" clip-rule="evenodd" d="M258.402 53.8354V54.2321L260.068 54.4702L260.227 54.0735L258.402 53.8354ZM258.481 53.9941L259.909 54.2321V54.1528L258.481 53.9941Z" fill="#333333"/>
<path fill-rule="evenodd" clip-rule="evenodd" d="M282.996 54.0735V54.7875L277.84 55.1049L277.443 54.3908L282.996 54.0735ZM282.6 54.3115V54.4702L278.236 54.7082L278.157 54.5495L282.6 54.3115Z" fill="#333333"/>
<path fill-rule="evenodd" clip-rule="evenodd" d="M266.494 53.6767H260.385V57.0882C260.385 57.8023 260.941 58.3576 261.655 58.3576H265.225C265.939 58.3576 266.494 57.8023 266.494 57.0882V53.6767ZM260.306 53.28C260.068 53.28 259.909 53.4387 259.909 53.6767V57.0882C259.909 58.0403 260.703 58.7543 261.575 58.7543H265.145C266.098 58.7543 266.812 57.9609 266.812 57.0882V53.6767C266.812 53.4387 266.653 53.28 266.415 53.28H260.306Z" fill="#333333"/>
<path fill-rule="evenodd" clip-rule="evenodd" d="M277.284 53.6767H271.175V57.0882C271.175 57.8023 271.731 58.3576 272.445 58.3576H276.015C276.729 58.3576 277.284 57.8023 277.284 57.0882V53.6767ZM271.096 53.28C270.858 53.28 270.699 53.4387 270.699 53.6767V57.0882C270.699 58.0403 271.493 58.7543 272.365 58.7543H275.935C276.888 58.7543 277.602 57.9609 277.602 57.0882V53.6767C277.602 53.4387 277.443 53.28 277.205 53.28H271.096Z" fill="#333333"/>
<path fill-rule="evenodd" clip-rule="evenodd" d="M81.083 292.482C80.845 290.181 81.083 286.849 80.9243 285.342C80.9243 285.342 89.9688 284.469 90.1275 284.548C90.1275 284.548 110.835 291.213 112.897 291.689C114.801 292.165 115.912 291.847 115.277 294.227C115.119 294.704 114.801 295.021 114.405 295.021H83.7805C82.1937 294.862 81.083 293.989 81.083 292.482Z" fill="#CE9976"/>
<path fill-rule="evenodd" clip-rule="evenodd" d="M101.79 294.862L115.516 294.704C115.516 294.704 115.04 296.846 112.739 296.846H82.5906C80.6865 296.846 80.6865 294.704 80.6865 294.704H85.6054C85.6054 294.545 87.5889 292.403 92.6664 292.085C93.1425 291.927 93.6978 291.927 94.3325 291.927C96.4746 289.15 97.3474 286.77 97.3474 286.77L99.6482 287.404L99.8068 287.008L111.866 290.657L111.707 291.53L101.314 288.674C100.838 290.578 99.8068 292.165 98.9341 293.037C100.521 294.069 101.632 294.704 101.79 294.862Z" fill="#412312"/>
<path d="M95.6017 44.8701C95.6017 48.4403 97.5851 52.0105 100.679 53.9146C101.552 54.3906 102.425 54.7873 103.218 55.422C104.011 56.0567 104.567 56.9294 104.567 57.8815C104.487 59.3889 102.98 60.3409 101.631 61.055C103.139 62.483 103.139 65.1012 101.631 66.5292C100.203 67.9573 97.5058 67.7986 96.157 66.2912C96.0777 69.1474 93.7769 71.6862 91.0794 72.4002C88.3026 73.1936 85.2878 72.4002 82.987 70.7341C80.6862 69.068 79.0201 66.6086 77.8301 64.0698" fill="black"/>
<path d="M88.0644 57.5642C88.0644 57.5642 87.5884 70.7342 90.6032 71.9243C91.6346 72.4003 88.3024 75.7325 88.3024 75.7325L77.9093 77.2399C77.9093 77.2399 74.6564 71.6069 76.1638 71.6069C79.1786 71.6069 75.7671 58.0402 75.7671 58.0402L88.0644 57.5642Z" fill="#B58864"/>
<path d="M83.7803 36.1431C89.81 36.1431 95.2049 41.062 94.8082 49.7098C94.4909 56.5328 92.5868 62.4037 87.1125 64.5459C84.653 65.4979 72.7524 58.7542 72.7524 49.7098C72.7524 40.6653 77.354 36.1431 83.7803 36.1431Z" fill="#CE9976"/>
<path d="M90.7624 52.4072C91.2443 52.4072 91.6351 51.7678 91.6351 50.9791C91.6351 50.1904 91.2443 49.551 90.7624 49.551C90.2804 49.551 89.8896 50.1904 89.8896 50.9791C89.8896 51.7678 90.2804 52.4072 90.7624 52.4072Z" fill="#333333"/>
<path d="M83.7804 52.4072C84.2624 52.4072 84.6531 51.7678 84.6531 50.9791C84.6531 50.1904 84.2624 49.551 83.7804 49.551C83.2984 49.551 82.9077 50.1904 82.9077 50.9791C82.9077 51.7678 83.2984 52.4072 83.7804 52.4072Z" fill="#333333"/>
<path d="M79.4166 46.695C79.1786 46.933 78.9406 47.171 79.02 47.3297C79.258 47.5677 79.258 47.7264 79.8927 47.4884C80.3687 47.2504 82.1934 47.0917 84.8116 47.4884C85.2083 47.4884 85.605 47.2504 85.605 46.8537C85.605 46.457 85.3669 46.219 84.9703 46.219H81.1621C80.686 46.219 80.0513 46.3777 79.4166 46.695Z" fill="#333333"/>
<path d="M95.3641 46.695C95.6021 46.933 95.8401 47.171 95.7608 47.3297C95.5228 47.5677 95.5228 47.7264 94.8881 47.4884C94.4121 47.2504 92.5873 47.0917 89.9692 47.4884C89.5725 47.4884 89.1758 47.2504 89.1758 46.8537C89.1758 46.457 89.4138 46.219 89.8105 46.219H93.6187C94.4121 46.219 94.8881 46.3777 95.3641 46.695Z" fill="#333333"/>
<path d="M83.9293 58.9601C83.9293 58.1667 83.2947 58.8808 84.6434 59.1188C86.5475 59.4361 89.959 58.1667 89.959 58.9601C89.959 59.7535 88.6103 60.3882 86.9442 60.3882C85.2781 60.3882 83.9293 59.7535 83.9293 58.9601Z" fill="#FBFCF7"/>
<path d="M92.5868 35.8257C87.1919 30.1928 83.463 31.3828 81.3209 31.3828C79.8135 31.3828 73.6252 32.6522 69.4996 38.2058C67.9922 39.7926 65.8501 44.8702 65.6121 46.6949C65.3741 48.5197 65.6914 50.3445 65.6914 52.1692C65.6914 53.994 65.2947 55.9774 63.8667 57.1675C62.9939 57.9608 61.8039 58.3575 61.2485 59.3889C60.6138 60.579 61.3279 62.1657 62.4386 62.8798C63.5493 63.5938 64.9774 63.7525 66.3261 63.6731C66.0088 66.3706 68.0715 69.1474 70.769 69.5441C72.1178 69.7821 73.5458 69.3061 74.6565 68.5127C75.5293 69.3854 76.5606 70.2581 77.592 71.0515C77.83 63.1178 77.6714 55.1047 77.116 47.171C80.7655 46.5363 87.2712 44.5528 88.4613 38.6819C89.8893 42.014 92.1108 43.8388 95.0462 46.3776C95.0462 46.3776 97.9817 41.4587 92.5868 35.8257Z" fill="black"/>
<path d="M77.5127 45.0288C77.5127 44.9495 78.3854 44.9495 79.7341 45.0288C81.0829 45.1082 83.0663 45.1875 84.8911 44.3941C85.8431 43.9974 86.5572 43.3627 87.0332 42.6487C87.5092 41.9347 87.7472 41.1413 87.9059 40.5066C88.1439 39.1579 88.0646 38.2852 88.1439 38.2852C88.2232 38.2852 88.4612 39.1579 88.3026 40.5066C88.2232 41.2206 87.9852 42.014 87.5092 42.8074C87.0332 43.6008 86.1605 44.3148 85.1291 44.7908C83.0663 45.6635 81.0829 45.4255 79.7341 45.2668C78.3061 45.2668 77.5127 45.1082 77.5127 45.0288Z" fill="#1A2E35"/>
<path d="M63.2319 58.4369C63.2319 58.3576 63.5493 58.5163 64.1046 58.2782C64.66 58.1196 65.374 57.4849 65.6121 56.5328C65.8501 55.5014 65.5327 54.3114 64.9773 52.9626C64.7393 52.3279 64.422 51.6139 64.184 50.8205C64.0253 50.0271 63.946 49.2338 64.0253 48.3611C64.184 46.695 64.898 45.1876 65.6914 43.9975C66.4847 42.8074 67.3575 41.8554 68.1508 41.062C68.9442 40.348 69.5789 39.7926 70.0549 39.3959C70.531 38.9992 70.769 38.8406 70.8483 38.8406C70.9276 38.9199 69.8963 39.7926 68.3889 41.3C67.6748 42.0934 66.8021 43.0455 66.0881 44.2355C65.374 45.4256 64.7393 46.8536 64.5807 48.4404C64.5013 49.2338 64.5807 50.0271 64.7393 50.7412C64.898 51.4552 65.2154 52.1693 65.4534 52.804C66.0087 54.0733 66.3261 55.5014 66.0087 56.6121C65.6914 57.7229 64.8187 58.3576 64.2633 58.5163C63.946 58.5956 63.708 58.5956 63.5493 58.5163C63.3113 58.5163 63.2319 58.4369 63.2319 58.4369Z" fill="#1A2E35"/>
<path d="M102.98 50.6617C102.98 50.6617 103.139 50.8997 103.139 51.2964C103.139 51.7725 102.901 52.4072 102.187 52.8832C101.473 53.3592 100.441 53.3592 99.4098 52.8832C98.4577 52.4072 97.6643 51.4551 97.109 50.5031C95.9189 48.4403 95.3636 46.3775 95.2049 44.8701C95.0462 43.3627 95.1256 42.4106 95.2049 42.4106C95.2842 42.4106 95.2842 43.3627 95.6016 44.7908C95.8396 46.2982 96.4743 48.2816 97.585 50.265C98.1404 51.2171 98.8544 52.0898 99.6478 52.5658C100.441 52.9625 101.393 52.9625 102.028 52.6452C102.663 52.2485 102.901 51.6931 102.98 51.2964C102.98 50.8997 102.901 50.6617 102.98 50.6617Z" fill="#1A2E35"/>
<path d="M94.4912 136.584C94.4912 136.584 113.135 197.039 111.945 216.556C110.755 236.073 97.1093 284.548 97.1093 284.548L94.4912 136.584Z" fill="#26444C"/>
<path fill-rule="evenodd" clip-rule="evenodd" d="M143.125 136.029C139.634 135.553 135.746 134.997 135.112 136.267C134.477 137.536 136.619 139.123 135.508 140.63C134.874 141.741 131.859 138.647 126.623 131.586L104.011 117.146C100.838 108.181 90.4447 95.408 90.4447 95.408L89.1753 83.8247L90.048 72.1621C92.6661 79.5405 104.091 98.1848 109.406 106.595L131.541 127.46C136.936 129.364 141.459 131.506 144.949 133.966C145.822 134.918 146.695 136.663 143.125 136.029Z" fill="#CE9976"/>
<path fill-rule="evenodd" clip-rule="evenodd" d="M90.5239 71.3689C90.5239 71.3689 95.2048 73.511 97.5849 77.7159C99.9651 81.9208 110.993 104.215 110.993 104.215L128.05 121.272L122.497 131.189L103.932 117.147L98.2196 107.705L85.605 88.8231L90.5239 71.3689Z" fill="#6CB7B0"/>
<path d="M68.23 126.27C67.8333 126.191 59.6616 138.171 59.3442 148.485C59.3442 149.437 59.3442 150.468 59.4236 151.5C59.7409 155.149 60.693 158.64 61.9624 162.052C68.8647 179.506 76.0051 200.134 76.0844 204.894C76.4811 219.413 79.2579 286.135 79.2579 286.135L99.3303 284.707L98.6956 204.894L93.7767 125.636L68.23 126.27Z" fill="#1A2E35"/>
<path d="M99.41 283.2H79.2583V286.215H99.41V283.2Z" fill="#375A64"/>
<path d="M80.5276 126.588C80.4482 126.588 80.4482 126.35 80.4482 126.112C80.4482 125.874 80.4482 125.636 80.5276 125.636C80.6069 125.636 80.6069 125.874 80.6069 126.112C80.6069 126.35 80.6069 126.588 80.5276 126.588Z" fill="#375A64"/>
<path d="M80.6067 128.412C80.5273 128.412 80.5273 128.174 80.5273 127.936C80.5273 127.698 80.5273 127.46 80.6067 127.46C80.686 127.46 80.686 127.698 80.686 127.936C80.686 128.174 80.6067 128.412 80.6067 128.412Z" fill="#375A64"/>
<path d="M80.6067 130.237C80.5273 130.237 80.5273 129.999 80.5273 129.761C80.5273 129.523 80.5273 129.285 80.6067 129.285C80.686 129.285 80.686 129.523 80.686 129.761C80.7654 130.079 80.686 130.237 80.6067 130.237Z" fill="#375A64"/>
<path d="M80.6863 132.141C80.6069 132.141 80.6069 131.903 80.6069 131.665C80.6069 131.427 80.6069 131.189 80.6863 131.189C80.7656 131.189 80.7656 131.427 80.7656 131.665C80.7656 131.903 80.7656 132.141 80.6863 132.141Z" fill="#375A64"/>
<path d="M80.7654 133.966C80.686 133.966 80.686 133.728 80.686 133.49C80.686 133.252 80.686 133.014 80.7654 133.014C80.8447 133.014 80.8447 133.252 80.8447 133.49C80.8447 133.808 80.8447 133.966 80.7654 133.966Z" fill="#375A64"/>
<path d="M80.8445 135.87C80.7651 135.87 80.7651 135.632 80.7651 135.394C80.7651 135.156 80.7651 134.918 80.8445 134.918C80.9238 134.918 80.9238 135.156 80.9238 135.394C80.9238 135.632 80.8445 135.87 80.8445 135.87Z" fill="#375A64"/>
<path d="M80.8445 137.695C80.7651 137.695 80.7651 137.457 80.7651 137.219C80.7651 136.981 80.7651 136.743 80.8445 136.743C80.9238 136.743 80.9238 136.981 80.9238 137.219C80.9238 137.457 80.9238 137.695 80.8445 137.695Z" fill="#375A64"/>
<path d="M80.9241 139.52C80.8447 139.52 80.8447 139.282 80.8447 139.044C80.8447 138.806 80.8447 138.568 80.9241 138.568C81.0034 138.568 81.0034 138.806 81.0034 139.044C81.0034 139.361 81.0034 139.52 80.9241 139.52Z" fill="#375A64"/>
<path d="M81.0037 141.424C80.9243 141.424 80.9243 141.186 80.9243 140.948C80.9243 140.71 80.9243 140.472 81.0037 140.472C81.083 140.472 81.083 140.71 81.083 140.948C81.083 141.186 81.0037 141.424 81.0037 141.424Z" fill="#375A64"/>
<path d="M81.0037 143.249C80.9243 143.249 80.9243 143.011 80.9243 142.773C80.9243 142.535 80.9243 142.297 81.0037 142.297C81.083 142.297 81.083 142.535 81.083 142.773C81.083 143.09 81.083 143.249 81.0037 143.249Z" fill="#375A64"/>
<path d="M81.0828 145.153C81.0034 145.153 81.0034 144.915 81.0034 144.677C81.0034 144.439 81.0034 144.201 81.0828 144.201C81.1621 144.201 81.1621 144.439 81.1621 144.677C81.1621 144.915 81.1621 145.153 81.0828 145.153Z" fill="#375A64"/>
<path d="M81.0828 146.977C81.0034 146.977 81.0034 146.739 81.0034 146.501C81.0034 146.263 81.0828 146.025 81.0828 146.025C81.1621 146.025 81.1621 146.263 81.1621 146.501C81.1621 146.739 81.1621 146.977 81.0828 146.977Z" fill="#375A64"/>
<path d="M81.0828 148.882C81.0034 148.882 81.0034 148.644 81.0034 148.406C81.0034 148.168 81.0034 147.93 81.0828 147.93C81.1621 147.93 81.1621 148.168 81.1621 148.406C81.2414 148.644 81.1621 148.882 81.0828 148.882Z" fill="#375A64"/>
<path d="M81.1618 150.706C81.0825 150.706 81.0825 150.468 81.0825 150.23C81.0825 149.992 81.0825 149.754 81.1618 149.754C81.2412 149.754 81.2412 149.992 81.2412 150.23C81.2412 150.468 81.2412 150.706 81.1618 150.706Z" fill="#375A64"/>
<path d="M81.2415 152.531C81.1621 152.531 81.1621 152.293 81.1621 152.055C81.1621 151.817 81.1621 151.579 81.2415 151.579C81.3208 151.579 81.3208 151.817 81.3208 152.055C81.3208 152.372 81.2415 152.531 81.2415 152.531Z" fill="#375A64"/>
<path d="M81.3206 154.435C81.2412 154.435 81.2412 154.197 81.2412 153.959C81.2412 153.721 81.2412 153.483 81.3206 153.483C81.3999 153.483 81.3999 153.721 81.3999 153.959C81.3999 154.197 81.3206 154.435 81.3206 154.435Z" fill="#375A64"/>
<path d="M81.3999 156.26C81.3206 156.26 81.3205 156.022 81.2412 155.784C81.2412 155.546 81.2412 155.308 81.3206 155.308C81.3999 155.308 81.3999 155.546 81.4792 155.784C81.4792 156.101 81.4792 156.26 81.3999 156.26Z" fill="#375A64"/>
<path d="M81.4795 158.164C81.4001 158.164 81.4001 157.926 81.3208 157.688C81.3208 157.45 81.3208 157.212 81.4001 157.212C81.4795 157.212 81.4795 157.45 81.5588 157.688C81.6381 157.926 81.5588 158.164 81.4795 158.164Z" fill="#375A64"/>
<path d="M81.6382 159.989C81.5588 159.989 81.5588 159.751 81.4795 159.513C81.4795 159.275 81.4795 159.037 81.5588 159.037C81.6381 159.037 81.6382 159.275 81.7175 159.513C81.7175 159.751 81.7175 159.989 81.6382 159.989Z" fill="#375A64"/>
<path d="M81.7969 161.813C81.7175 161.813 81.7175 161.655 81.6382 161.337C81.6382 161.099 81.6382 160.861 81.7175 160.861C81.7969 160.861 81.7969 161.099 81.8762 161.337C81.8762 161.655 81.8762 161.813 81.7969 161.813Z" fill="#375A64"/>
<path d="M82.0346 163.718C81.9553 163.718 81.9553 163.559 81.876 163.242C81.876 163.004 81.876 162.766 81.9553 162.766C82.0346 162.766 82.0346 162.924 82.114 163.242C82.114 163.48 82.0346 163.718 82.0346 163.718Z" fill="#375A64"/>
<path d="M82.1934 165.542C82.114 165.542 82.0347 165.384 82.0347 165.066C82.0347 164.828 82.0347 164.59 82.114 164.59C82.1933 164.59 82.2727 164.749 82.2727 165.066C82.2727 165.304 82.2727 165.542 82.1934 165.542Z" fill="#375A64"/>
<path d="M82.4311 167.367C82.3518 167.367 82.2725 167.208 82.2725 166.891C82.2725 166.653 82.2725 166.415 82.2725 166.415C82.3518 166.415 82.4311 166.574 82.4311 166.891C82.5105 167.129 82.5105 167.367 82.4311 167.367Z" fill="#375A64"/>
<path d="M82.6694 169.192C82.5901 169.192 82.5107 169.033 82.5107 168.716C82.5107 168.478 82.5107 168.24 82.5107 168.24C82.5901 168.24 82.6694 168.398 82.6694 168.716C82.7488 169.033 82.7488 169.192 82.6694 169.192Z" fill="#375A64"/>
<path d="M82.9072 171.096C82.8279 171.096 82.7485 170.937 82.7485 170.62C82.7485 170.382 82.7485 170.144 82.7485 170.144C82.8279 170.144 82.9072 170.303 82.9072 170.62C82.9866 170.858 82.9866 171.017 82.9072 171.096Z" fill="#375A64"/>
<path d="M83.2246 172.921C83.1452 172.921 83.0659 172.762 83.0659 172.445C83.0659 172.207 83.0659 171.969 83.0659 171.969C83.0659 171.969 83.2246 172.127 83.2246 172.445C83.2246 172.683 83.2246 172.921 83.2246 172.921Z" fill="#375A64"/>
<path d="M83.463 174.746C83.3837 174.746 83.3043 174.587 83.3043 174.269C83.225 174.031 83.3043 173.793 83.3043 173.793C83.3836 173.793 83.463 173.952 83.463 174.269C83.5423 174.507 83.5423 174.746 83.463 174.746Z" fill="#375A64"/>
<path d="M83.7804 176.57C83.701 176.57 83.6217 176.412 83.6217 176.094C83.5423 175.856 83.6217 175.618 83.6217 175.618C83.701 175.618 83.7804 175.777 83.7804 176.094C83.8597 176.332 83.8597 176.57 83.7804 176.57Z" fill="#375A64"/>
<path d="M84.0973 178.395C84.0179 178.395 83.9386 178.236 83.9386 177.919C83.8592 177.681 83.9386 177.443 83.9386 177.443C84.0179 177.443 84.0973 177.602 84.0973 177.919C84.1766 178.157 84.1766 178.395 84.0973 178.395Z" fill="#375A64"/>
<path d="M84.4146 180.22C84.3353 180.22 84.256 180.061 84.256 179.744C84.1766 179.506 84.256 179.268 84.256 179.268C84.3353 179.268 84.4146 179.427 84.4146 179.744C84.494 179.982 84.4146 180.22 84.4146 180.22Z" fill="#375A64"/>
<path d="M84.7325 182.045C84.6532 182.045 84.5738 181.886 84.5738 181.569C84.4945 181.331 84.5738 181.093 84.5738 181.093C84.6532 181.093 84.7325 181.251 84.7325 181.569C84.8118 181.807 84.7325 182.045 84.7325 182.045Z" fill="#375A64"/>
<path d="M85.0499 183.869C84.9706 183.869 84.8912 183.711 84.8912 183.393C84.8119 183.155 84.8912 182.917 84.8912 182.917C84.9706 182.917 85.0499 183.076 85.0499 183.393C85.0499 183.631 85.0499 183.869 85.0499 183.869Z" fill="#375A64"/>
<path d="M85.2877 185.694C85.2084 185.694 85.129 185.536 85.129 185.218C85.0497 184.98 85.129 184.742 85.129 184.742C85.2083 184.742 85.2877 184.901 85.2877 185.218C85.367 185.456 85.367 185.694 85.2877 185.694Z" fill="#375A64"/>
<path d="M85.6046 187.519C85.5252 187.519 85.4459 187.36 85.4459 187.043C85.3666 186.805 85.4459 186.567 85.4459 186.567C85.4459 186.567 85.6046 186.726 85.6046 187.043C85.6839 187.281 85.6839 187.519 85.6046 187.519Z" fill="#375A64"/>
<path d="M85.9223 189.344C85.843 189.344 85.7637 189.185 85.7637 188.868C85.7637 188.63 85.7637 188.392 85.7637 188.392C85.843 188.392 85.9223 188.55 85.9223 188.868C85.9223 189.106 85.9223 189.344 85.9223 189.344Z" fill="#375A64"/>
<path d="M86.1601 191.168C86.0808 191.168 86.0015 191.01 86.0015 190.692C86.0015 190.454 86.0015 190.216 86.0015 190.216C86.0808 190.216 86.1601 190.375 86.1601 190.692C86.2395 190.93 86.2395 191.168 86.1601 191.168Z" fill="#375A64"/>
<path d="M86.3984 192.993C86.3191 192.993 86.2397 192.834 86.2397 192.517C86.2397 192.279 86.2397 192.041 86.2397 192.041C86.3191 192.041 86.3984 192.2 86.3984 192.517C86.4777 192.834 86.4777 192.993 86.3984 192.993Z" fill="#375A64"/>
<path d="M86.6362 194.897C86.5569 194.897 86.4775 194.739 86.4775 194.421C86.4775 194.183 86.4775 193.945 86.5569 193.945C86.6362 193.945 86.7155 194.104 86.7155 194.421C86.7155 194.659 86.7156 194.818 86.6362 194.897Z" fill="#375A64"/>
<path d="M86.8745 196.722C86.7952 196.722 86.7952 196.563 86.7158 196.246C86.7158 196.008 86.7158 195.77 86.7952 195.77C86.8745 195.77 86.8745 195.928 86.9538 196.246C86.9538 196.484 86.8745 196.722 86.8745 196.722Z" fill="#375A64"/>
<path d="M87.0332 198.547C86.9539 198.547 86.9538 198.388 86.8745 198.071C86.8745 197.833 86.8745 197.595 86.9539 197.595C87.0332 197.595 87.0332 197.753 87.1125 198.071C87.1125 198.309 87.1125 198.547 87.0332 198.547Z" fill="#375A64"/>
<path d="M87.1914 200.371C87.112 200.371 87.1121 200.133 87.0327 199.895C87.0327 199.657 87.0327 199.419 87.112 199.419C87.1914 199.419 87.1914 199.578 87.2707 199.895C87.2707 200.213 87.2707 200.371 87.1914 200.371Z" fill="#375A64"/>
<path d="M87.3506 202.276C87.2712 202.276 87.2712 202.038 87.1919 201.8C87.1919 201.562 87.1919 201.323 87.2712 201.323C87.3506 201.323 87.3506 201.562 87.4299 201.8C87.4299 202.038 87.4299 202.276 87.3506 202.276Z" fill="#375A64"/>
<path d="M87.5092 204.1C87.4299 204.1 87.4299 203.862 87.3506 203.624C87.3506 203.386 87.3506 203.148 87.4299 203.148C87.5093 203.148 87.5093 203.386 87.5886 203.624C87.5886 203.862 87.5092 204.1 87.5092 204.1Z" fill="#375A64"/>
<path d="M87.5883 205.925C87.509 205.925 87.509 205.687 87.4297 205.449C87.4297 205.211 87.4297 204.973 87.509 204.973C87.5883 204.973 87.5884 205.211 87.6677 205.449C87.6677 205.766 87.6677 205.925 87.5883 205.925Z" fill="#375A64"/>
<path d="M87.6677 207.829C87.5884 207.829 87.5884 207.591 87.5884 207.353C87.5884 207.115 87.5884 206.877 87.6677 206.877C87.7471 206.877 87.7471 207.115 87.7471 207.353C87.7471 207.591 87.7471 207.829 87.6677 207.829Z" fill="#375A64"/>
<path d="M87.7473 209.654C87.668 209.654 87.668 209.416 87.668 209.178C87.668 208.94 87.668 208.702 87.7473 208.702C87.8266 208.702 87.8267 208.94 87.8267 209.178C87.8267 209.416 87.7473 209.654 87.7473 209.654Z" fill="#375A64"/>
<path d="M87.7473 211.479C87.668 211.479 87.668 211.241 87.668 211.003C87.668 210.765 87.668 210.527 87.7473 210.527C87.8266 210.527 87.8267 210.765 87.8267 211.003C87.8267 211.32 87.8266 211.479 87.7473 211.479Z" fill="#375A64"/>
<path d="M87.8264 213.383C87.7471 213.383 87.7471 213.145 87.7471 212.907C87.7471 212.669 87.7471 212.431 87.8264 212.431C87.9057 212.431 87.9057 212.669 87.9057 212.907C87.9057 213.145 87.8264 213.383 87.8264 213.383Z" fill="#375A64"/>
<path d="M87.8264 215.208C87.7471 215.208 87.7471 214.97 87.7471 214.732C87.7471 214.494 87.8264 214.256 87.8264 214.256C87.9057 214.256 87.9057 214.494 87.9057 214.732C87.9057 215.049 87.8264 215.208 87.8264 215.208Z" fill="#375A64"/>
<path d="M87.8264 217.112C87.7471 217.112 87.7471 216.874 87.7471 216.636C87.7471 216.398 87.7471 216.16 87.8264 216.16C87.9057 216.16 87.9057 216.398 87.9057 216.636C87.9057 216.874 87.9057 217.112 87.8264 217.112Z" fill="#375A64"/>
<path d="M87.8264 218.936C87.7471 218.936 87.7471 218.698 87.7471 218.46C87.7471 218.222 87.7471 217.984 87.8264 217.984C87.9057 217.984 87.9057 218.222 87.9057 218.46C87.9057 218.698 87.9057 218.936 87.8264 218.936Z" fill="#375A64"/>
<path d="M87.9055 220.761C87.8262 220.761 87.8262 220.523 87.8262 220.285C87.8262 220.047 87.8262 219.809 87.9055 219.809C87.9848 219.809 87.9848 220.047 87.9848 220.285C87.9848 220.602 87.9055 220.761 87.9055 220.761Z" fill="#375A64"/>
<path d="M87.9055 222.665C87.8262 222.665 87.8262 222.427 87.8262 222.189C87.8262 221.951 87.8262 221.713 87.9055 221.713C87.9848 221.713 87.9848 221.951 87.9848 222.189C87.9848 222.427 87.9848 222.665 87.9055 222.665Z" fill="#375A64"/>
<path d="M87.9055 224.49C87.8262 224.49 87.8262 224.252 87.8262 224.014C87.8262 223.776 87.8262 223.538 87.9055 223.538C87.9848 223.538 87.9848 223.776 87.9848 224.014C88.0642 224.331 87.9848 224.49 87.9055 224.49Z" fill="#375A64"/>
<path d="M87.9851 226.394C87.9058 226.394 87.9058 226.156 87.9058 225.918C87.9058 225.68 87.9058 225.442 87.9851 225.442C88.0644 225.442 88.0644 225.68 88.0644 225.918C88.0644 226.156 88.0644 226.394 87.9851 226.394Z" fill="#375A64"/>
<path d="M87.9851 228.219C87.9058 228.219 87.9058 227.981 87.9058 227.743C87.9058 227.505 87.9058 227.267 87.9851 227.267C88.0644 227.267 88.0644 227.505 88.0644 227.743C88.0644 227.981 88.0644 228.219 87.9851 228.219Z" fill="#375A64"/>
<path d="M88.0642 230.044C87.9849 230.044 87.9849 229.806 87.9849 229.568C87.9849 229.33 87.9849 229.092 88.0642 229.092C88.1435 229.092 88.1435 229.33 88.1435 229.568C88.1435 229.885 88.1435 230.044 88.0642 230.044Z" fill="#375A64"/>
<path d="M88.0642 231.948C87.9849 231.948 87.9849 231.71 87.9849 231.472C87.9849 231.234 87.9849 230.996 88.0642 230.996C88.1435 230.996 88.1435 231.234 88.1435 231.472C88.2229 231.71 88.1435 231.948 88.0642 231.948Z" fill="#375A64"/>
<path d="M88.1438 233.773C88.0645 233.773 88.0645 233.535 88.0645 233.297C88.0645 233.059 88.0645 232.821 88.1438 232.821C88.2231 232.821 88.2231 233.059 88.2231 233.297C88.2231 233.614 88.2231 233.773 88.1438 233.773Z" fill="#375A64"/>
<path d="M88.2234 235.677C88.144 235.677 88.144 235.439 88.144 235.201C88.144 234.963 88.144 234.725 88.2234 234.725C88.3027 234.725 88.3027 234.963 88.3027 235.201C88.3027 235.439 88.2234 235.677 88.2234 235.677Z" fill="#375A64"/>
<path d="M88.2234 237.501C88.144 237.501 88.144 237.263 88.144 237.025C88.144 236.787 88.144 236.549 88.2234 236.549C88.3027 236.549 88.3027 236.787 88.3027 237.025C88.382 237.263 88.3027 237.501 88.2234 237.501Z" fill="#375A64"/>
<path d="M88.3025 239.405C88.2231 239.405 88.2231 239.167 88.2231 238.929C88.2231 238.691 88.2231 238.453 88.3025 238.453C88.3818 238.453 88.3818 238.691 88.3818 238.929C88.3818 239.167 88.3818 239.326 88.3025 239.405Z" fill="#375A64"/>
<path d="M88.3816 241.23C88.3023 241.23 88.3022 240.992 88.3022 240.754C88.3022 240.516 88.3023 240.278 88.3816 240.278C88.4609 240.278 88.4609 240.516 88.4609 240.754C88.4609 240.992 88.4609 241.23 88.3816 241.23Z" fill="#375A64"/>
<path d="M88.4612 243.055C88.3818 243.055 88.3818 242.817 88.3818 242.579C88.3818 242.341 88.3818 242.103 88.4612 242.103C88.5405 242.103 88.5405 242.341 88.5405 242.579C88.5405 242.896 88.4612 243.055 88.4612 243.055Z" fill="#375A64"/>
<path d="M88.5408 244.959C88.4614 244.959 88.4614 244.721 88.4614 244.483C88.4614 244.245 88.4614 244.007 88.5408 244.007C88.6201 244.007 88.6201 244.245 88.6201 244.483C88.6201 244.721 88.5408 244.959 88.5408 244.959Z" fill="#375A64"/>
<path d="M88.5408 246.784C88.4614 246.784 88.4614 246.546 88.4614 246.308C88.4614 246.07 88.4614 245.832 88.5408 245.832C88.6201 245.832 88.6201 246.07 88.6201 246.308C88.6994 246.546 88.6201 246.784 88.5408 246.784Z" fill="#375A64"/>
<path d="M88.6199 248.688C88.5405 248.688 88.5405 248.45 88.5405 248.212C88.5405 247.974 88.5405 247.736 88.6199 247.736C88.6992 247.736 88.6992 247.974 88.6992 248.212C88.6992 248.45 88.6992 248.609 88.6199 248.688Z" fill="#375A64"/>
<path d="M88.6989 250.513C88.6196 250.513 88.6196 250.275 88.6196 250.037C88.6196 249.799 88.6196 249.561 88.6989 249.561C88.7783 249.561 88.7783 249.799 88.7783 250.037C88.7783 250.275 88.7783 250.513 88.6989 250.513Z" fill="#375A64"/>
<path d="M88.7786 252.338C88.6992 252.338 88.6992 252.1 88.6992 251.862C88.6992 251.623 88.6992 251.385 88.7786 251.385C88.8579 251.385 88.8579 251.623 88.8579 251.862C88.8579 252.179 88.8579 252.338 88.7786 252.338Z" fill="#375A64"/>
<path d="M88.8577 254.242C88.7783 254.242 88.7783 254.004 88.7783 253.766C88.7783 253.528 88.7783 253.29 88.8577 253.29C88.937 253.29 88.937 253.528 88.937 253.766C88.937 254.004 88.937 254.242 88.8577 254.242Z" fill="#375A64"/>
<path d="M88.9373 256.066C88.8579 256.066 88.8579 255.828 88.8579 255.59C88.8579 255.352 88.8579 255.114 88.9373 255.114C89.0166 255.114 89.0166 255.352 89.0166 255.59C89.0166 255.828 88.9373 256.066 88.9373 256.066Z" fill="#375A64"/>
<path d="M89.0168 257.971C88.9375 257.971 88.9375 257.733 88.9375 257.495C88.9375 257.257 88.9375 257.019 89.0168 257.019C89.0962 257.019 89.0962 257.257 89.0962 257.495C89.0962 257.733 89.0168 257.891 89.0168 257.971Z" fill="#375A64"/>
<path d="M89.0954 259.795C89.0161 259.795 89.0161 259.557 89.0161 259.319C89.0161 259.081 89.0161 258.843 89.0954 258.843C89.1748 258.843 89.1748 259.081 89.1748 259.319C89.1748 259.557 89.0954 259.795 89.0954 259.795Z" fill="#375A64"/>
<path d="M89.175 261.62C89.0957 261.62 89.0957 261.382 89.0957 261.144C89.0957 260.906 89.0957 260.668 89.175 260.668C89.2544 260.668 89.2544 260.906 89.2544 261.144C89.2544 261.461 89.175 261.62 89.175 261.62Z" fill="#375A64"/>
<path d="M89.175 263.524C89.0957 263.524 89.0957 263.286 89.0957 263.048C89.0957 262.81 89.0957 262.572 89.175 262.572C89.2544 262.572 89.2544 262.81 89.2544 263.048C89.3337 263.286 89.2544 263.524 89.175 263.524Z" fill="#375A64"/>
<path d="M89.2546 265.349C89.1753 265.349 89.1753 265.111 89.1753 264.873C89.1753 264.635 89.1753 264.397 89.2546 264.397C89.334 264.397 89.334 264.635 89.334 264.873C89.4133 265.111 89.334 265.349 89.2546 265.349Z" fill="#375A64"/>
<path d="M89.3337 267.173C89.2544 267.173 89.2544 266.935 89.2544 266.697C89.2544 266.459 89.2544 266.221 89.3337 266.221C89.4131 266.221 89.4131 266.459 89.4131 266.697C89.4131 267.015 89.4131 267.173 89.3337 267.173Z" fill="#375A64"/>
<path d="M89.4133 269.078C89.334 269.078 89.334 268.84 89.334 268.602C89.334 268.364 89.334 268.126 89.4133 268.126C89.4927 268.126 89.4926 268.364 89.4926 268.602C89.4926 268.84 89.4927 269.078 89.4133 269.078Z" fill="#375A64"/>
<path d="M89.4924 270.902C89.4131 270.902 89.4131 270.664 89.4131 270.426C89.4131 270.188 89.4131 269.95 89.4924 269.95C89.5717 269.95 89.5717 270.188 89.5717 270.426C89.5717 270.744 89.5717 270.902 89.4924 270.902Z" fill="#375A64"/>
<path d="M89.5715 272.807C89.4922 272.807 89.4922 272.569 89.4922 272.331C89.4922 272.093 89.4922 271.854 89.5715 271.854C89.6509 271.854 89.6509 272.093 89.6509 272.331C89.6509 272.569 89.6509 272.807 89.5715 272.807Z" fill="#375A64"/>
<path d="M89.6511 274.632C89.5718 274.632 89.5718 274.393 89.5718 274.155C89.5718 273.917 89.5718 273.679 89.6511 273.679C89.7305 273.679 89.7305 273.917 89.7305 274.155C89.7305 274.393 89.7305 274.632 89.6511 274.632Z" fill="#375A64"/>
<path d="M89.7307 276.456C89.6514 276.456 89.6514 276.218 89.6514 275.98C89.6514 275.742 89.6514 275.504 89.7307 275.504C89.81 275.504 89.8101 275.742 89.8101 275.98C89.8101 276.297 89.81 276.456 89.7307 276.456Z" fill="#375A64"/>
<path d="M89.8098 278.36C89.7305 278.36 89.7305 278.122 89.7305 277.884C89.7305 277.646 89.7305 277.408 89.8098 277.408C89.8891 277.408 89.8891 277.646 89.8891 277.884C89.8891 278.122 89.8098 278.36 89.8098 278.36Z" fill="#375A64"/>
<path d="M89.8889 280.185C89.8096 280.185 89.8096 279.947 89.8096 279.709C89.8096 279.471 89.8096 279.233 89.8889 279.233C89.9682 279.233 89.9682 279.471 89.9682 279.709C89.9682 280.026 89.8889 280.185 89.8889 280.185Z" fill="#375A64"/>
<path d="M89.8889 282.089C89.8096 282.089 89.8096 281.851 89.8096 281.613C89.8096 281.375 89.8096 281.137 89.8889 281.137C89.9682 281.137 89.9682 281.375 89.9682 281.613C89.9682 281.851 89.9682 282.089 89.8889 282.089Z" fill="#375A64"/>
<path d="M89.9685 283.914C89.8892 283.914 89.8892 283.676 89.8892 283.438C89.8892 283.2 89.8892 282.962 89.9685 282.962C90.0478 282.962 90.0478 283.2 90.0478 283.438C90.0478 283.755 90.0478 283.914 89.9685 283.914Z" fill="#375A64"/>
<path d="M90.0481 285.263C89.9688 285.263 89.9688 285.183 89.9688 285.025C89.9688 284.945 89.9688 284.787 90.0481 284.787C90.1274 284.787 90.1274 284.866 90.1274 285.025C90.1274 285.183 90.0481 285.263 90.0481 285.263Z" fill="#375A64"/>
<path d="M95.3635 146.898C95.3635 146.898 95.0461 147.136 94.4908 146.978C94.2527 146.898 93.9354 146.66 93.6974 146.343C93.4594 146.026 93.3007 145.55 93.3007 145.073C93.142 143.09 92.9833 140.313 92.8247 137.298C92.666 134.363 92.5073 131.665 92.428 129.523C92.428 128.651 92.3486 127.857 92.3486 127.143C92.3486 126.905 92.3486 126.667 92.3486 126.509C92.3486 126.35 92.3486 126.271 92.3486 126.271C92.3486 126.271 92.3486 126.35 92.3486 126.509C92.3486 126.747 92.3486 126.905 92.428 127.143C92.5073 127.778 92.5073 128.571 92.5867 129.523C92.7453 131.665 92.904 134.363 93.0627 137.298C93.2213 140.234 93.38 142.931 93.4594 145.073C93.5387 145.55 93.618 146.026 93.856 146.343C94.0941 146.66 94.3321 146.898 94.5701 146.978C95.0461 147.057 95.3635 146.819 95.3635 146.898Z" fill="#375A64"/>
<path d="M61.883 161.179C61.883 161.179 62.2004 161.179 62.597 160.941C63.0731 160.703 63.6284 160.227 63.9458 159.433C64.2631 158.64 64.3425 157.529 64.2631 156.339C64.1838 155.149 64.1045 153.88 63.8664 152.531C63.4698 149.913 62.7557 147.612 62.0417 145.946L62.121 146.025C61.3276 146.184 60.5343 146.263 59.8996 146.422C59.6616 146.422 59.5029 146.501 59.2649 146.501C59.1062 146.501 59.0269 146.501 59.0269 146.501C59.0269 146.501 59.1062 146.501 59.2649 146.422C59.4236 146.422 59.6616 146.343 59.8202 146.263C60.4549 146.105 61.169 146.025 61.9623 145.867H62.0417V145.946C62.6764 147.612 63.4698 149.913 63.8664 152.531C64.1045 153.88 64.1838 155.149 64.2631 156.339C64.3425 157.529 64.2631 158.64 63.8664 159.433C63.4698 160.306 62.8351 160.782 62.4384 160.941C62.2004 161.179 61.883 161.179 61.883 161.179Z" fill="#375A64"/>
<path d="M62.9144 148.723C62.9144 148.802 62.1211 148.961 61.169 149.199C60.217 149.437 59.3442 149.595 59.3442 149.516C59.3442 149.437 60.1376 149.278 61.0897 149.04C62.1211 148.802 62.9144 148.643 62.9144 148.723Z" fill="#375A64"/>
<path d="M90.5241 71.3688C89.1753 71.3688 88.3819 71.2895 88.3819 71.2895V71.3688C86.7159 71.1308 78.1474 69.7028 75.2913 69.7028C74.1805 69.7028 72.3558 69.5441 70.293 69.8614C68.3096 70.1788 66.0881 70.9722 64.2634 72.6382C64.184 72.7176 64.1047 72.7969 64.0254 72.8763C60.7725 76.0497 27.8475 108.499 31.3384 116.591C34.9879 125.08 66.3262 143.407 66.3262 143.407L73.9426 129.682C73.9426 129.682 71.7211 128.254 68.7063 126.191C68.7063 126.191 68.6269 126.191 68.6269 126.112C68.5476 126.112 68.4683 126.032 68.3889 126.032C68.3096 126.032 68.1509 125.953 68.0716 125.874C67.9922 125.794 67.9922 125.794 67.9922 125.715C67.9922 125.636 67.9129 125.636 67.9129 125.636C67.8336 125.636 67.7542 125.556 67.7542 125.477C60.6139 120.637 50.062 113.259 50.4587 111.99C50.776 110.958 57.2817 103.818 63.232 97.5502C65.0568 108.578 66.1675 121.589 66.8815 125.318L66.7228 128.174C66.9609 128.254 67.4369 126.984 67.5956 127.222C66.6435 129.682 68.8649 128.016 68.9443 128.016C69.0236 128.016 69.1823 127.857 69.1823 127.857C69.2616 127.857 69.4997 127.619 69.579 127.698C69.6583 127.778 69.8963 126.905 69.8963 126.984C69.8963 126.984 68.7856 127.619 70.3724 126.746C70.3724 126.746 92.5868 132.935 94.967 126.27C97.9818 117.702 98.9338 101.279 98.9338 101.279C98.9338 101.279 98.9338 99.4543 98.9338 95.9634C98.7752 93.5833 103.139 78.4299 90.5241 71.3688Z" fill="#78CFC9"/>
<path d="M81.2419 144.677C81.2419 144.677 74.8156 146.105 73.9429 145.391C73.0702 144.677 75.1329 143.963 75.1329 143.963C75.1329 143.963 73.3081 144.201 73.2288 143.487C73.1495 142.852 73.8635 142.376 73.8635 142.376L81.2419 144.677Z" fill="#CE9976"/>
<path d="M72.5145 132.221C72.5145 132.221 81.5589 136.267 81.6383 136.584C81.7176 136.902 82.035 143.328 81.1622 144.677C80.2895 146.025 68.4683 139.52 68.4683 139.52L72.5145 132.221Z" fill="#CE9976"/>
</g>
<defs>
<clipPath id="clip0_3837_172666">
<rect width="364" height="316" fill="white"/>
</clipPath>
</defs>
</svg>
