<svg width="336" height="112" viewBox="0 0 336 112" fill="none" xmlns="http://www.w3.org/2000/svg">
<g clip-path="url(#clip0_2766_33624)">
<path d="M24.5756 40.1267H13.5367V73.2433H24.5756V40.1267Z" fill="#514AF3"/>
<path d="M15.3094 28.0402C16.3569 26.9927 17.6461 26.4287 19.2576 26.4287C20.8691 26.4287 22.0777 26.9927 23.2058 28.0402C24.2533 29.0877 24.8173 30.3769 24.8173 31.9884C24.8173 33.5194 24.2533 34.8086 23.2058 35.9366C22.1583 36.9841 20.8691 37.5481 19.2576 37.5481C17.6461 37.5481 16.4374 36.9841 15.3094 35.9366C14.2619 34.8891 13.6979 33.5999 13.6979 31.9884C13.6979 30.3769 14.1813 29.0877 15.3094 28.0402Z" fill="#514AF3"/>
<path d="M56.3223 5.64032C57.3698 4.59284 58.659 4.02881 60.2705 4.02881C61.882 4.02881 63.0907 4.59284 64.2187 5.64032C65.2662 6.6878 65.8302 7.97701 65.8302 9.58852C65.8302 11.1195 65.2662 12.4087 64.2187 13.5367C63.1712 14.5842 61.882 15.1482 60.2705 15.1482C58.659 15.1482 57.4504 14.5842 56.3223 13.5367C55.2748 12.4892 54.7108 11.2 54.7108 9.58852C54.7108 7.97701 55.2748 6.6878 56.3223 5.64032Z" fill="#514AF3"/>
<path d="M70.423 98.5439C71.4705 97.4964 72.7597 96.9324 74.3712 96.9324C75.9827 96.9324 77.1914 97.4964 78.3194 98.5439C79.3669 99.5914 79.9309 100.881 79.9309 102.492C79.9309 104.023 79.3669 105.312 78.3194 106.44C77.272 107.488 75.9827 108.052 74.3712 108.052C72.7597 108.052 71.5511 107.488 70.423 106.44C69.3756 105.393 68.8115 104.104 68.8115 102.492C68.8115 100.881 69.295 99.5914 70.423 98.5439Z" fill="#514AF3"/>
<path d="M43.833 73.3238C41.5769 73.3238 39.4014 72.921 37.387 72.0346C35.3726 71.1483 33.6 70.0202 32.1496 68.4893C30.6992 67.0389 29.4906 65.2663 28.6043 63.2519C27.7179 61.2375 27.3151 59.1425 27.3151 56.8059C27.3151 54.5497 27.7179 52.3742 28.6043 50.3598C29.4906 48.3454 30.6187 46.5728 32.1496 45.1224C33.6 43.672 35.3726 42.4634 37.387 41.5771C39.4014 40.6907 41.5769 40.2879 43.833 40.2073C45.2028 40.2073 46.4115 40.2879 47.459 40.5296C48.5064 40.7713 49.3928 41.0131 50.1179 41.3354C50.9237 41.7382 51.7295 42.1411 52.2935 42.544L47.6201 52.7771C47.2172 52.4548 46.7338 52.2131 46.3309 51.9713C45.928 51.8102 45.5251 51.649 45.0417 51.4073C44.6388 51.2461 44.1554 51.1656 43.833 51.1656C42.3021 51.1656 41.0129 51.7296 39.8848 52.7771C38.8374 53.8246 38.2733 55.1138 38.2733 56.7253C38.2733 57.531 38.4345 58.1756 38.6762 58.9008C38.9985 59.5454 39.4014 60.1095 39.8848 60.6735C40.3683 61.1569 41.0129 61.5598 41.6575 61.8015C42.3021 62.0433 43.0273 62.2044 43.833 62.2044C44.2359 62.2044 44.8 62.285 45.2834 62.285H49.0705C50.6014 62.285 51.8906 61.721 53.0187 60.6735C54.0661 59.626 54.6302 58.3368 54.6302 56.7253L54.7913 44.3972V20.6274H65.8302V62.0433C65.8302 63.5742 65.5079 65.0246 64.9438 66.3943C64.2992 67.7641 63.4935 68.9728 62.5266 70.0202C61.4791 71.0677 60.2705 71.8735 58.9007 72.4375C57.5309 73.0821 56.0805 73.3238 54.6302 73.3238H43.833Z" fill="#514AF3"/>
<path d="M90.7281 40.2073C92.9842 40.2073 95.1597 40.6102 97.1741 41.4965C99.1885 42.3828 100.961 43.5109 102.412 45.0418C103.862 46.4922 105.071 48.2648 105.957 50.2792C106.843 52.2936 107.246 54.3886 107.246 56.7253C107.246 58.9814 106.843 61.1569 105.957 63.1713C105.071 65.1857 103.942 66.9584 102.412 68.4087C100.961 69.8591 99.1885 71.0677 97.1741 71.954C95.1597 72.8404 92.9842 73.2432 90.7281 73.3238C89.3583 73.3238 88.1496 73.2432 87.1022 73.0015C86.0547 72.7598 85.1684 72.5181 84.4432 72.1958C83.5568 71.7929 82.8317 71.39 82.2676 70.9871L86.941 60.754C87.3439 61.0763 87.8273 61.3181 88.2302 61.5598C88.6331 61.7209 89.036 61.8821 89.4389 62.1238C89.8417 62.285 90.2446 62.3655 90.6475 62.3655C92.1784 62.3655 93.4676 61.8015 94.5957 60.754C95.6432 59.7066 96.2072 58.4173 96.2072 56.8058C96.2072 56.0001 96.0461 55.3555 95.8043 54.6303C95.482 53.9857 95.0791 53.4217 94.5957 52.8576C94.1122 52.3742 93.4676 51.9713 92.823 51.7296C92.1784 51.4878 91.4532 51.3267 90.6475 51.3267H89.1971C88.7137 51.3267 88.1496 51.3267 87.505 51.3267C86.8604 51.3267 86.1353 51.3267 85.4101 51.3267C83.8791 51.3267 82.5899 51.8907 81.4619 52.9382C80.4144 53.9857 79.8504 55.2749 79.8504 56.8864L79.7698 69.295V93.0648H68.8115V51.5684C68.8115 50.0375 69.1338 48.5871 69.6979 47.2173C70.3425 45.8476 71.1482 44.6389 72.1151 43.5914C73.1626 42.544 74.3712 41.7382 75.741 41.1742C77.1108 40.5296 78.5612 40.2878 80.0115 40.2878H90.7281V40.2073Z" fill="#514AF3"/>
<path d="M117.399 66.072C118.527 64.9439 119.896 64.3799 121.589 64.3799C123.281 64.3799 124.65 64.9439 125.778 66.072C126.907 67.2 127.471 68.5698 127.471 70.2619C127.471 71.8734 126.907 73.3238 125.778 74.4518C124.65 75.5799 123.281 76.1439 121.589 76.1439C119.896 76.1439 118.527 75.5799 117.399 74.4518C116.271 73.3238 115.707 71.954 115.707 70.2619C115.707 68.5698 116.271 67.2 117.399 66.072Z" fill="#100A98"/>
<path d="M130.21 79.3669H141.894C141.894 80.1726 142.055 80.9784 142.377 81.623C142.699 82.3482 143.102 82.9122 143.666 83.4762C144.23 84.0403 144.875 84.4431 145.52 84.6849C146.245 85.0072 146.97 85.0878 147.776 85.0878C148.259 85.0878 148.743 85.1683 149.387 85.1683H153.416C154.222 85.1683 155.027 85.0072 155.672 84.6849C156.397 84.3626 156.961 83.9597 157.525 83.3957C158.089 82.8316 158.492 82.2676 158.815 81.5424C159.137 80.8172 159.298 80.0115 159.298 79.2057V71.7122L159.217 58.5784C159.217 56.9669 158.653 55.5165 157.525 54.3885C156.397 53.2604 155.027 52.6964 153.335 52.6964C152.53 52.6964 151.804 52.6964 151.079 52.6964C150.435 52.6964 149.79 52.6964 149.307 52.6964H147.695C146.889 52.6964 146.084 52.8575 145.439 53.0993C144.714 53.4216 144.15 53.8244 143.586 54.3079C143.022 54.7914 142.619 55.436 142.297 56.1611C141.974 56.8863 141.813 57.6115 141.813 58.4173C141.813 60.0288 142.377 61.4791 143.505 62.6072C144.633 63.7352 146.003 64.2993 147.695 64.2993C148.098 64.2993 148.501 64.2187 148.984 64.0575C149.468 63.8964 149.871 63.7352 150.354 63.4935C150.838 63.2518 151.321 63.0101 151.724 62.6878L156.639 73.5655C155.994 74.0489 155.189 74.4518 154.302 74.8547C153.497 75.177 152.61 75.4187 151.482 75.741C150.354 75.9827 149.145 76.0633 147.695 76.0633C145.278 76.0633 143.022 75.5798 140.846 74.6129C138.671 73.7266 136.817 72.4374 135.286 70.9065C133.675 69.295 132.466 67.4417 131.58 65.3467C130.694 63.2518 130.21 60.9151 130.21 58.4978C130.21 56.0806 130.694 53.8244 131.58 51.6489C132.466 49.5539 133.756 47.7007 135.286 46.0892C136.898 44.4777 138.751 43.2691 140.846 42.3827C143.022 41.4964 145.278 41.0129 147.695 41.0129H159.056C160.668 41.0129 162.199 41.3352 163.649 41.9798C165.099 42.6244 166.389 43.5108 167.436 44.5583C168.564 45.6863 169.37 46.895 170.015 48.4259C170.659 49.8762 170.981 51.4072 170.981 53.0187V84.846C170.981 86.4575 170.659 87.9885 170.015 89.4388C169.37 90.8892 168.484 92.1784 167.436 93.3065C166.308 94.4345 165.099 95.3208 163.649 95.9655C162.199 96.6101 160.668 96.9324 159.056 96.9324H147.695C145.278 96.9324 143.022 96.4489 140.846 95.5626C138.671 94.6762 136.817 93.387 135.286 91.8561C133.675 90.2446 132.466 88.3913 131.58 86.2964C130.694 84.0403 130.21 81.7842 130.21 79.3669Z" fill="#100A98"/>
<path d="M191.689 40.9324L197.571 41.013C199.989 41.013 202.245 41.4964 204.42 42.3827C206.596 43.2691 208.449 44.5583 209.98 46.0892C211.591 47.7007 212.8 49.554 213.686 51.6489C214.573 53.8245 215.056 56.0806 215.056 58.4978C215.056 60.9151 214.573 63.1712 213.686 65.3468C212.8 67.5223 211.511 69.3755 209.98 70.9065C208.368 72.518 206.515 73.7266 204.42 74.6129C202.245 75.4993 199.989 75.9827 197.571 75.9827L191.689 75.9022C189.272 75.9022 187.016 75.4187 184.84 74.5324C182.665 73.646 180.812 72.3568 179.281 70.8259C177.669 69.2144 176.46 67.3612 175.574 65.2662C174.688 63.0906 174.204 60.8345 174.204 58.4173C174.204 56 174.688 53.7439 175.574 51.5683C176.46 49.3928 177.75 47.5396 179.281 46.0086C180.892 44.3971 182.745 43.1885 184.84 42.3022C187.016 41.3353 189.272 40.9324 191.689 40.9324ZM191.689 52.6158C190.078 52.6158 188.627 53.1799 187.499 54.3079C186.371 55.436 185.807 56.8058 185.807 58.4978C185.807 60.1094 186.371 61.5597 187.499 62.6878C188.627 63.8158 189.997 64.3799 191.689 64.3799L197.571 64.4604C199.183 64.4604 200.633 63.8964 201.761 62.7683C202.889 61.6403 203.453 60.2705 203.453 58.5784C203.453 56.9669 202.889 55.5165 201.761 54.3885C200.633 53.2604 199.263 52.6964 197.571 52.6964L191.689 52.6158Z" fill="#100A98"/>
<path d="M226.981 75.9827L212.558 41.013H224.161C225.048 43.1885 226.014 45.4446 227.062 47.7813C227.948 49.7957 228.835 51.9712 229.963 54.4691C231.01 56.9669 232.058 59.3842 233.025 61.8014C234.072 59.3842 235.039 56.9669 236.086 54.4691C237.134 52.0518 238.101 49.7957 238.987 47.7813C240.035 45.364 240.921 43.1079 241.888 40.9324L253.491 41.013L238.987 75.9827C238.987 75.9827 238.987 76.0633 239.068 76.0633H227.223L226.981 75.9827Z" fill="#100A98"/>
<path d="M258.164 66.072C259.292 64.9439 260.662 64.3799 262.354 64.3799C264.046 64.3799 265.416 64.9439 266.544 66.072C267.672 67.2 268.236 68.5698 268.236 70.2619C268.236 71.8734 267.672 73.3238 266.544 74.4518C265.416 75.5799 264.046 76.1439 262.354 76.1439C260.662 76.1439 259.292 75.5799 258.164 74.4518C257.036 73.3238 256.472 71.954 256.472 70.2619C256.472 68.5698 257.036 67.2 258.164 66.072Z" fill="#100A98"/>
<path d="M274.682 40.9323H286.365V76.0632H274.682V40.9323ZM276.455 28.1208C277.583 26.9927 278.953 26.4287 280.645 26.4287C282.256 26.4287 283.706 26.9927 284.835 28.1208C285.963 29.2489 286.527 30.6186 286.527 32.3107C286.527 33.9222 285.963 35.3726 284.835 36.5007C283.706 37.6287 282.337 38.1927 280.645 38.1927C279.033 38.1927 277.583 37.6287 276.455 36.5007C275.327 35.3726 274.763 34.0028 274.763 32.3107C274.763 30.6186 275.327 29.2489 276.455 28.1208Z" fill="#100A98"/>
<path d="M324.316 58.3367V76.1439H312.552V68.4892C312.552 67.4417 312.552 66.4748 312.552 65.4273C312.552 64.3799 312.552 63.4129 312.552 62.5266C312.552 61.6403 312.552 60.8345 312.552 60.1094C312.552 59.3842 312.552 58.8201 312.552 58.4173C312.552 57.6115 312.391 56.8058 312.069 56.1611C311.747 55.436 311.344 54.8719 310.78 54.3079C310.216 53.7439 309.571 53.341 308.927 53.0993C308.201 52.777 307.476 52.6964 306.67 52.6964C305.059 52.6964 303.689 53.2604 302.561 54.3885C301.433 55.5165 300.95 56.8863 300.95 58.4978L300.869 76.2245H289.186V40.9324H300.869H306.751C309.168 40.9324 311.424 41.4158 313.6 42.3022C315.775 43.1885 317.629 44.4777 319.24 46.0086C320.852 47.6201 322.06 49.4734 323.027 51.5683C323.914 53.7439 324.397 56 324.397 58.4173L324.316 58.3367Z" fill="#100A98"/>
</g>
<defs>
<clipPath id="clip0_2766_33624">
<rect width="336" height="112" fill="white"/>
</clipPath>
</defs>
</svg>
