<svg width="192" height="64" viewBox="0 0 192 64" fill="none" xmlns="http://www.w3.org/2000/svg">
<g clip-path="url(#clip0_654_3317)">
<path d="M14.0433 22.9295H7.73535V41.8532H14.0433V22.9295Z" fill="white"/>
<path d="M8.74826 16.023C9.34682 15.4245 10.0835 15.1022 11.0044 15.1022C11.9252 15.1022 12.6159 15.4245 13.2605 16.023C13.859 16.6216 14.1813 17.3583 14.1813 18.2792C14.1813 19.154 13.859 19.8907 13.2605 20.5353C12.6619 21.1338 11.9252 21.4561 11.0044 21.4561C10.0835 21.4561 9.39286 21.1338 8.74826 20.5353C8.14969 19.9367 7.82739 19.2 7.82739 18.2792C7.82739 17.3583 8.10365 16.6216 8.74826 16.023Z" fill="white"/>
<path d="M32.1843 3.22305C32.7829 2.62449 33.5195 2.30219 34.4404 2.30219C35.3613 2.30219 36.0519 2.62449 36.6965 3.22305C37.2951 3.82161 37.6174 4.5583 37.6174 5.47916C37.6174 6.35398 37.2951 7.09067 36.6965 7.73528C36.098 8.33384 35.3613 8.65614 34.4404 8.65614C33.5195 8.65614 32.8289 8.33384 32.1843 7.73528C31.5857 7.13672 31.2634 6.40003 31.2634 5.47916C31.2634 4.5583 31.5857 3.82161 32.1843 3.22305Z" fill="white"/>
<path d="M40.2417 56.3108C40.8402 55.7123 41.5769 55.39 42.4978 55.39C43.4186 55.39 44.1093 55.7123 44.7539 56.3108C45.3525 56.9094 45.6748 57.6461 45.6748 58.5669C45.6748 59.4417 45.3525 60.1784 44.7539 60.823C44.1553 61.4216 43.4186 61.7439 42.4978 61.7439C41.5769 61.7439 40.8863 61.4216 40.2417 60.823C39.6431 60.2245 39.3208 59.4878 39.3208 58.5669C39.3208 57.6461 39.5971 56.9094 40.2417 56.3108Z" fill="white"/>
<path d="M25.0475 41.8993C23.7583 41.8993 22.5151 41.6691 21.364 41.1626C20.213 40.6561 19.2 40.0115 18.3712 39.1367C17.5425 38.3079 16.8518 37.295 16.3453 36.1439C15.8389 34.9928 15.6086 33.7957 15.6086 32.4604C15.6086 31.1712 15.8389 29.9281 16.3453 28.777C16.8518 27.6259 17.4964 26.6129 18.3712 25.7842C19.2 24.9554 20.213 24.2647 21.364 23.7583C22.5151 23.2518 23.7583 23.0216 25.0475 22.9755C25.8302 22.9755 26.5209 23.0216 27.1194 23.1597C27.718 23.2978 28.2245 23.436 28.6389 23.6201C29.0993 23.8504 29.5597 24.0806 29.882 24.3108L27.2115 30.1583C26.9813 29.9741 26.705 29.836 26.4748 29.6978C26.2446 29.6058 26.0144 29.5137 25.7381 29.3755C25.5079 29.2834 25.2317 29.2374 25.0475 29.2374C24.1727 29.2374 23.436 29.5597 22.7914 30.1583C22.1928 30.7568 21.8705 31.4935 21.8705 32.4144C21.8705 32.8748 21.9626 33.2432 22.1007 33.6576C22.2849 34.0259 22.5151 34.3482 22.7914 34.6705C23.0676 34.9468 23.436 35.177 23.8043 35.3151C24.1727 35.4532 24.5871 35.5453 25.0475 35.5453C25.2777 35.5453 25.6 35.5914 25.8763 35.5914H28.0403C28.9151 35.5914 29.6518 35.2691 30.2964 34.6705C30.895 34.0719 31.2173 33.3353 31.2173 32.4144L31.3094 25.3698V11.787H37.6173V35.4532C37.6173 36.3281 37.4331 37.1568 37.1108 37.9396C36.7425 38.7223 36.282 39.4129 35.7295 40.0115C35.1309 40.6101 34.4403 41.0705 33.6576 41.3928C32.8748 41.7611 32.0461 41.8993 31.2173 41.8993H25.0475Z" fill="white"/>
<path d="M51.8445 22.9755C53.1337 22.9755 54.3769 23.2057 55.528 23.7122C56.6791 24.2187 57.692 24.8633 58.5208 25.7381C59.3496 26.5669 60.0402 27.5798 60.5467 28.7309C61.0532 29.882 61.2834 31.0791 61.2834 32.4144C61.2834 33.7036 61.0532 34.9467 60.5467 36.0978C60.0402 37.2489 59.3956 38.2619 58.5208 39.0906C57.692 39.9194 56.6791 40.6101 55.528 41.1165C54.3769 41.623 53.1337 41.8532 51.8445 41.8993C51.0618 41.8993 50.3712 41.8532 49.7726 41.7151C49.174 41.577 48.6676 41.4388 48.2532 41.2547C47.7467 41.0244 47.3323 40.7942 47.01 40.564L49.6805 34.7165C49.9107 34.9007 50.187 35.0388 50.4172 35.177C50.6474 35.269 50.8776 35.3611 51.1079 35.4993C51.3381 35.5914 51.5683 35.6374 51.7985 35.6374C52.6733 35.6374 53.41 35.3151 54.0546 34.7165C54.6532 34.118 54.9755 33.3813 54.9755 32.4604C54.9755 32 54.8834 31.6316 54.7453 31.2173C54.5611 30.8489 54.3309 30.5266 54.0546 30.2043C53.7784 29.928 53.41 29.6978 53.0417 29.5597C52.6733 29.4216 52.2589 29.3295 51.7985 29.3295H50.9697C50.6935 29.3295 50.3712 29.3295 50.0028 29.3295C49.6345 29.3295 49.2201 29.3295 48.8057 29.3295C47.9309 29.3295 47.1942 29.6518 46.5496 30.2503C45.951 30.8489 45.6287 31.5856 45.6287 32.5065L45.5827 39.5971V53.1798H39.3208V29.4676C39.3208 28.5928 39.505 27.764 39.8273 26.9813C40.1956 26.1985 40.6561 25.5079 41.2086 24.9093C41.8071 24.3108 42.4978 23.8503 43.2805 23.528C44.0632 23.1597 44.892 23.0216 45.7208 23.0216H51.8445V22.9755Z" fill="white"/>
<path d="M67.0848 37.7554C67.7294 37.1108 68.5122 36.7885 69.4791 36.7885C70.446 36.7885 71.2287 37.1108 71.8733 37.7554C72.5179 38.4 72.8402 39.1828 72.8402 40.1497C72.8402 41.0705 72.5179 41.8993 71.8733 42.5439C71.2287 43.1885 70.446 43.5108 69.4791 43.5108C68.5122 43.5108 67.7294 43.1885 67.0848 42.5439C66.4402 41.8993 66.1179 41.1166 66.1179 40.1497C66.1179 39.1828 66.4402 38.4 67.0848 37.7554Z" fill="white"/>
<path d="M74.4058 45.3525H81.082C81.082 45.813 81.1741 46.2734 81.3583 46.6417C81.5424 47.0561 81.7727 47.3784 82.095 47.7007C82.4173 48.023 82.7856 48.2532 83.154 48.3914C83.5684 48.5755 83.9827 48.6216 84.4432 48.6216C84.7194 48.6216 84.9957 48.6676 85.364 48.6676H87.6662C88.1266 48.6676 88.5871 48.5755 88.9554 48.3914C89.3698 48.2072 89.6921 47.977 90.0144 47.6547C90.3367 47.3324 90.5669 47.0101 90.7511 46.5957C90.9353 46.1813 91.0273 45.7209 91.0273 45.2604V40.9784L90.9813 33.4734C90.9813 32.5525 90.659 31.7237 90.0144 31.0791C89.3698 30.4345 88.5871 30.1122 87.6201 30.1122C87.1597 30.1122 86.7453 30.1122 86.3309 30.1122C85.9626 30.1122 85.5942 30.1122 85.318 30.1122H84.3971C83.9367 30.1122 83.4763 30.2043 83.1079 30.3424C82.6935 30.5266 82.3712 30.7568 82.0489 31.0331C81.7266 31.3094 81.4964 31.6777 81.3122 32.0921C81.1281 32.5065 81.036 32.9209 81.036 33.3813C81.036 34.3022 81.3583 35.1309 82.0029 35.7755C82.6475 36.4201 83.4302 36.7424 84.3971 36.7424C84.6273 36.7424 84.8576 36.6964 85.1338 36.6043C85.4101 36.5122 85.6403 36.4201 85.9166 36.282C86.1928 36.1439 86.4691 36.0058 86.6993 35.8216L89.5079 42.0374C89.1396 42.3137 88.6791 42.5439 88.1727 42.7741C87.7122 42.9583 87.2058 43.0964 86.5612 43.2806C85.9165 43.4187 85.2259 43.4648 84.3971 43.4648C83.0158 43.4648 81.7266 43.1885 80.4835 42.636C79.2403 42.1295 78.1813 41.3928 77.3065 40.518C76.3856 39.5971 75.695 38.5381 75.1885 37.341C74.682 36.1439 74.4058 34.8086 74.4058 33.4273C74.4058 32.046 74.682 30.7568 75.1885 29.5137C75.695 28.3165 76.4317 27.2576 77.3065 26.3367C78.2273 25.4158 79.2863 24.7252 80.4835 24.2187C81.7266 23.7122 83.0158 23.436 84.3971 23.436H90.8892C91.8101 23.436 92.6849 23.6201 93.5137 23.9885C94.3425 24.3568 95.0791 24.8633 95.6777 25.4619C96.3223 26.1065 96.7827 26.7971 97.1511 27.6719C97.5194 28.5007 97.7036 29.3755 97.7036 30.2964V48.4835C97.7036 49.4043 97.5194 50.2791 97.1511 51.1079C96.7827 51.9367 96.2763 52.6734 95.6777 53.318C95.0331 53.9626 94.3425 54.4691 93.5137 54.8374C92.6849 55.2058 91.8101 55.3899 90.8892 55.3899H84.3971C83.0158 55.3899 81.7266 55.1137 80.4835 54.6072C79.2403 54.1007 78.1813 53.364 77.3065 52.4892C76.3856 51.5683 75.695 50.5094 75.1885 49.3122C74.682 48.023 74.4058 46.7338 74.4058 45.3525Z" fill="white"/>
<path d="M109.537 23.39L112.898 23.436C114.279 23.436 115.568 23.7123 116.811 24.2187C118.055 24.7252 119.114 25.4619 119.988 26.3367C120.909 27.2576 121.6 28.3166 122.106 29.5137C122.613 30.7569 122.889 32.0461 122.889 33.4274C122.889 34.8087 122.613 36.0979 122.106 37.341C121.6 38.5842 120.863 39.6432 119.988 40.518C119.067 41.4389 118.008 42.1295 116.811 42.636C115.568 43.1425 114.279 43.4187 112.898 43.4187L109.537 43.3727C108.155 43.3727 106.866 43.0964 105.623 42.59C104.38 42.0835 103.321 41.3468 102.446 40.472C101.525 39.5511 100.834 38.4921 100.328 37.295C99.8214 36.0518 99.5452 34.7626 99.5452 33.3813C99.5452 32 99.8214 30.7108 100.328 29.4677C100.834 28.2245 101.571 27.1655 102.446 26.2907C103.367 25.3698 104.426 24.6792 105.623 24.1727C106.866 23.6202 108.155 23.39 109.537 23.39ZM109.537 30.0662C108.616 30.0662 107.787 30.3885 107.142 31.0331C106.498 31.6777 106.175 32.4605 106.175 33.4274C106.175 34.3482 106.498 35.177 107.142 35.8216C107.787 36.4662 108.57 36.7885 109.537 36.7885L112.898 36.8346C113.819 36.8346 114.647 36.5123 115.292 35.8677C115.937 35.223 116.259 34.4403 116.259 33.4734C116.259 32.5525 115.937 31.7238 115.292 31.0792C114.647 30.4346 113.865 30.1123 112.898 30.1123L109.537 30.0662Z" fill="white"/>
<path d="M129.704 43.4187L121.462 23.436H128.092C128.599 24.6792 129.151 25.9684 129.75 27.3036C130.256 28.4547 130.763 29.6979 131.407 31.1252C132.006 32.5525 132.604 33.9338 133.157 35.3151C133.755 33.9338 134.308 32.5525 134.907 31.1252C135.505 29.7439 136.058 28.4547 136.564 27.3036C137.163 25.9223 137.669 24.6331 138.222 23.39L144.852 23.436L136.564 43.4187C136.564 43.4187 136.564 43.4648 136.61 43.4648H129.842L129.704 43.4187Z" fill="white"/>
<path d="M147.522 37.7554C148.167 37.1108 148.95 36.7885 149.917 36.7885C150.883 36.7885 151.666 37.1108 152.311 37.7554C152.955 38.4 153.278 39.1828 153.278 40.1497C153.278 41.0705 152.955 41.8993 152.311 42.5439C151.666 43.1885 150.883 43.5108 149.917 43.5108C148.95 43.5108 148.167 43.1885 147.522 42.5439C146.878 41.8993 146.555 41.1166 146.555 40.1497C146.555 39.1828 146.878 38.4 147.522 37.7554Z" fill="white"/>
<path d="M156.961 23.3899H163.637V43.4648H156.961V23.3899ZM157.974 16.0691C158.619 15.4245 159.401 15.1022 160.368 15.1022C161.289 15.1022 162.118 15.4245 162.763 16.0691C163.407 16.7137 163.73 17.4964 163.73 18.4633C163.73 19.3842 163.407 20.213 162.763 20.8576C162.118 21.5022 161.335 21.8245 160.368 21.8245C159.448 21.8245 158.619 21.5022 157.974 20.8576C157.33 20.213 157.007 19.4302 157.007 18.4633C157.007 17.4964 157.33 16.7137 157.974 16.0691Z" fill="white"/>
<path d="M185.324 33.3353V43.5108H178.602V39.1367C178.602 38.5382 178.602 37.9856 178.602 37.3871C178.602 36.7885 178.602 36.236 178.602 35.7295C178.602 35.223 178.602 34.7626 178.602 34.3482C178.602 33.9338 178.602 33.6115 178.602 33.3813C178.602 32.9209 178.509 32.4605 178.325 32.0921C178.141 31.6777 177.911 31.3554 177.589 31.0331C177.266 30.7108 176.898 30.4806 176.53 30.3425C176.115 30.1583 175.701 30.1123 175.24 30.1123C174.32 30.1123 173.537 30.4346 172.892 31.0792C172.248 31.7238 171.971 32.5065 171.971 33.4274L171.925 43.5569H165.249V23.39H171.925H175.286C176.668 23.39 177.957 23.6662 179.2 24.1727C180.443 24.6792 181.502 25.4159 182.423 26.2907C183.344 27.2115 184.035 28.2705 184.587 29.4677C185.094 30.7108 185.37 32 185.37 33.3813L185.324 33.3353Z" fill="white"/>
</g>
<defs>
<clipPath id="clip0_654_3317">
<rect width="192" height="64" fill="white"/>
</clipPath>
</defs>
</svg>
