

<!-- Generator: Adobe Illustrator 24.0.2, SVG Export Plug-In . SVG Version: 6.00 Build 0)  -->
<svg version="1.1" id="Layer_1" xmlns="http://www.w3.org/2000/svg" xmlns:xlink="http://www.w3.org/1999/xlink" x="0px" y="0px"
	 viewBox="0 0 300 107" style="enable-background:new 0 0 300 107;" xml:space="preserve">
<style type="text/css">
	.st0{fill:#FFFFFF;}
	.st1{fill:#EC7D23;}
	.st2{fill:#253F7F;}
	.st3{fill:#1A1A1A;}
	.st4{fill:#E43292;}
	.st5{fill:#32B34A;}
	.st6{fill:#14A88A;}
	.st7{fill:#934A9B;}
	.st8{fill:#2D338E;}
	.st9{fill:#F6AC1A;}
	.st10{fill:#231F20;}
	.st11{fill:#2E3192;}
	.st12{fill:#FF9933;}
	.st13{fill:#128807;}
	.st14{fill:#000088;}
</style>
<g>
	<g>
		<polygon class="st4" points="12.5,73.4 12.4,70.8 12.4,48.9 7.5,48.9 7.5,42.7 19.2,42.7 19.2,67.1 24,67.1 24,73.4 		"/>
		<path class="st5" d="M46.1,73.4V69V51.2c0-1-0.2-1.8-0.7-2.2c-0.5-0.5-1.2-0.7-2.2-0.7c-0.7,0-1.4,0.1-2.1,0.3
			c-0.7,0.2-1.5,0.5-2.4,0.9c-0.7,0.3-1.4,0.7-2.1,1.1c-0.6,0.4-1.2,0.9-1.8,1.3v15.2h4.5v6.2H28V69V48.9H23v-6.2h11.9v1.8
			c1.3-0.8,2.7-1.4,4.2-1.9c1.5-0.5,3-0.7,4.6-0.7c1.3,0,2.6,0.2,3.7,0.6c1.1,0.4,2.1,1,3,1.9c1.7,1.6,2.6,3.8,2.6,6.5v16.3h4.4v6.2
			H46.1z"/>
		<path class="st6" d="M99.5,73.4l-0.1-2.6V48.9h-4.9v-6.2h11.7v24.5h4v6.2H99.5z"/>
		<path class="st7" d="M129.8,73.4v-2.1c-1.2,0.7-2.5,1.3-3.9,1.8c-1.4,0.5-2.8,0.7-4.3,0.7c-3,0-5.5-1-7.5-2.9c-2-1.9-3-4.2-3-6.9
			c0-3,1.2-5.4,3.5-7.4c1.1-1,2.4-1.7,3.9-2.1c1.5-0.4,3.1-0.7,4.9-0.7c1.4,0,2.8,0.2,4.4,0.6c0.3,0.1,0.6,0.2,1,0.3
			c0.4,0.1,0.7,0.2,1.1,0.4v-3.5c0-0.8-0.1-1.4-0.3-1.8c-0.2-0.4-0.5-0.7-0.9-1c-0.5-0.3-1.1-0.5-1.8-0.7c-0.7-0.2-1.6-0.3-2.6-0.3
			c-0.5,0-1.1,0.1-1.8,0.2c-0.7,0.1-1.3,0.3-2,0.5c-0.7,0.2-1.3,0.4-1.9,0.6c-0.6,0.2-1.1,0.4-1.6,0.5l-2.1-5.1
			c1.4-0.5,2.6-1,3.5-1.3c1-0.3,2-0.6,3.1-0.9c1.1-0.3,2.1-0.4,2.9-0.4c1.8,0,3.4,0.2,4.9,0.5c1.5,0.4,2.8,0.9,3.9,1.7
			c1.2,0.9,2,1.9,2.6,3.1c0.6,1.2,0.8,2.6,0.8,4.1v15.7h4.7v6.2H129.8z M129.8,61.3c-0.8-0.4-1.6-0.8-2.4-1
			c-1.1-0.4-2.2-0.6-3.5-0.6c-1.1,0-2,0.1-2.7,0.4c-0.7,0.2-1.3,0.6-1.7,1c-1,0.8-1.5,1.9-1.5,3.1c0,1,0.4,1.8,1.1,2.6
			c0.4,0.3,0.8,0.6,1.3,0.8c0.5,0.2,1.2,0.3,1.9,0.3c1.3,0,2.7-0.4,4.2-1.1c1.3-0.6,2.4-1.4,3.3-2.3V61.3z"/>
		<g>
			<path class="st8" d="M89.4,40.2v26.9h5.2l0.1,6.2l-11.9,0.2l-0.2-2.8c-0.9,0.8-1.7,1.4-2.6,1.8c-2.1,1-4.2,1.5-6.5,1.5
				c-4.3,0-8.1-1.6-11.1-4.8c-3-3.2-4.5-7.1-4.5-11.5c0-4.4,1.5-8.1,4.5-11c3-3,6.7-4.4,11.1-4.4c2.4,0,4.7,0.5,7,1.6
				c0.4,0.2,0.8,0.4,1.2,0.6c0.4,0.2,0.7,0.5,1.1,0.7v-1.7c0-1.2,5.3-3.7,6.7-3.7 M82.6,58c0-2.8-0.9-5.1-2.6-6.8
				c-1.7-1.8-3.8-2.7-6.4-2.7c-2.6,0-4.8,0.9-6.4,2.6c-1.7,1.7-2.5,4-2.5,6.9c0,2.8,0.9,5.2,2.6,7.1c1.7,1.9,3.8,2.8,6.3,2.8
				c2.4,0,4.5-0.9,6.3-2.8C81.7,63.2,82.6,60.8,82.6,58z"/>
		</g>
		<g>
			<path class="st8" d="M97,30.1c1.3-0.1-2.8-0.9-6.3-0.3c-3.9,0.7-5.4,2.8-6.3,4.9c-1.6,3.6-1.9,5.7-1.7,9.9c2-0.5,6.5-1.9,6.7-3.9
				C89.6,37.2,90.7,32.6,97,30.1z"/>
		</g>
		<path class="st9" d="M77.3,58.1c0,2.2-1.7,4-3.8,4c-2.1,0-3.8-1.8-3.8-4c0-2.2,1.7-4,3.8-4C75.6,54.1,77.3,55.9,77.3,58.1z"/>
	</g>
	<g>
		<g>
			<path d="M181.2,46.4c-1,0.4-2.1,1.7-2.1,1.7c-0.7-0.7-1.5-1.3-2.3-1.6c-1.8-0.9-3.7-1.4-5.7-1.4c-3.8,0-7,1.4-9.7,4.3
				c-2.6,2.9-3.9,6.3-3.9,10.3c0,4,1.3,7.2,3.9,9.9c2.6,2.7,5.8,4,9.7,4c2.1,0,4.1-0.5,6.1-1.5c0.4-0.2,0.7-0.4,1-0.6
				c0.3-0.2,0.6-0.4,0.9-0.7v1.5c0,1.5-0.2,2.8-0.6,4c-1.7,4.7-5.7,5.5-9.5,6c-1.1,0.1-5.5,0.3-9.4-1.5c2.2,7.1,14.5,10.1,21.5,3.9
				c2.6-2.3,3.6-6,3.9-12.6V52.7c0,0,0.1-1.9,1.4-4.1c1.3-2.2,4-2.8,4-2.8S184,45.2,181.2,46.4z M176.8,65.6
				c-1.5,1.6-3.3,2.4-5.6,2.4c-2.3,0-4.1-0.8-5.6-2.4c-1.5-1.6-2.2-3.6-2.2-6.2c0-2.5,0.8-4.6,2.3-6.3c1.5-1.7,3.3-2.5,5.5-2.5
				c2.1,0,4,0.9,5.5,2.6c1.6,1.7,2.3,3.8,2.3,6.3C179.1,62,178.3,64.1,176.8,65.6z"/>
			<path d="M212.2,69.7c-2.6,2.8-5.9,4.2-9.8,4.2c-4,0-7.2-1.4-9.8-4.2c-2.6-2.8-3.9-6.2-3.9-10.2c0-4,1.3-7.4,3.9-10.2
				c2.6-2.8,5.9-4.2,9.8-4.2c3.9,0,7.2,1.4,9.8,4.2c2.6,2.8,3.9,6.2,3.9,10.2C216.1,63.5,214.8,66.9,212.2,69.7z M207.9,53.2
				c-1.4-1.6-3.3-2.4-5.5-2.4c-2.2,0-4.1,0.8-5.5,2.4c-1.5,1.6-2.2,3.7-2.2,6.3c0,2.6,0.7,4.7,2.2,6.3c1.4,1.6,3.3,2.4,5.5,2.4
				c2.2,0,4.1-0.8,5.5-2.4c1.5-1.6,2.2-3.7,2.2-6.3C210.1,56.9,209.4,54.8,207.9,53.2z"/>
			<path d="M238.8,51.3l-8.2,22.3c0,0-2,0.1-2.8-0.1c-2.1-0.4-2.6-1.8-3-2.9c-1.9-4.8-7.6-19.3-7.6-19.3l-2.8-5.6h13
				c0,0-3.3,1.1-3.9,2.1c-0.4,0.8,0.2,3.5,0.2,3.5l4.6,12.5l5.6-15.4c0,0,0.8-2.8,4.1-2.9c1.7,0,5.8,0.1,5.8,0.1s-1.7,1-2.7,2.1
				C239.6,49.3,238.8,51.3,238.8,51.3z"/>
		</g>
		<g>
			<path d="M257.2,71.2c-0.9-1.1-1-3.4-1-3.4V45.7h-10.7c0,0,2.1,0.9,3.4,2.5c1.1,1.4,1.1,3.2,1.1,3.2v19.1c0,1.4,0.4,3.5,2.8,3.5
				h7.8l0-1.1C258.7,72.6,258,72.1,257.2,71.2z"/>
			<path d="M283.8,74l-3-4.1V53.6c0-0.9-0.2-1.6-0.6-2.1c-0.4-0.4-1.1-0.6-2-0.6c-0.6,0-1.2,0.1-1.9,0.3c-0.7,0.2-1.4,0.5-2.2,0.8
				c-0.7,0.3-1.3,0.7-1.9,1c-0.6,0.4-1.1,0.8-1.6,1.2v14c0,0,0.7,2.4,1.2,3.1c0.6,0.8,3,2.7,3,2.7h-6.4c0,0-2.3-0.9-2.7-1.4
				c-0.4-0.5-1.2-2.6-1.2-2.6V51.5c0,0-0.6-2-1-2.6c-0.7-1-3.6-3.1-3.6-3.1h10.8v1.7c1.2-0.7,2.5-1.3,3.8-1.7
				c1.3-0.4,2.7-0.7,4.2-0.7c1.2,0,2.3,0.2,3.4,0.5c1,0.3,1.9,0.9,2.8,1.7c1.6,1.5,2.4,3.5,2.4,5.9v15l1.5,2.6L291,74H283.8z"/>
		</g>
	</g>
	<path d="M154.8,69.1c0,2.4-1.9,4.3-4.3,4.3c-2.4,0-4.3-1.9-4.3-4.3c0-2.4,1.9-4.3,4.3-4.3C152.9,64.8,154.8,66.8,154.8,69.1z"/>
	<path d="M245.4,70.1c0,2.4-1.9,4.3-4.3,4.3c-2.4,0-4.3-1.9-4.3-4.3c0-2.4,1.9-4.3,4.3-4.3C243.5,65.9,245.4,67.8,245.4,70.1z"/>
	<path class="st7" d="M18.6,32.4c0,2.4-2,4.4-4.4,4.4s-4.4-2-4.4-4.4c0-2.4,2-4.4,4.4-4.4S18.6,29.9,18.6,32.4z"/>
	<g>
		<path class="st10" d="M109.5,21.3v1.4h-3.9v10.2H104V22.7h-3.9v-1.4H109.5z"/>
		<path class="st10" d="M110.8,21.3h1.4v4.3c0.3-0.4,0.6-0.7,0.9-0.9c0.5-0.3,1-0.4,1.7-0.4c1.2,0,2,0.4,2.5,1.3
			c0.2,0.5,0.4,1.1,0.4,1.9v5.4h-1.5v-5.3c0-0.6-0.1-1.1-0.2-1.4c-0.3-0.5-0.7-0.7-1.4-0.7c-0.6,0-1.1,0.2-1.6,0.6
			c-0.5,0.4-0.7,1.2-0.7,2.3v4.5h-1.4V21.3z"/>
		<path class="st10" d="M124.9,24.7c0.6,0.3,1,0.6,1.3,1.1c0.3,0.4,0.5,0.9,0.6,1.5c0.1,0.4,0.1,1,0.1,1.9h-6.1
			c0,0.9,0.2,1.5,0.6,2.1c0.4,0.5,1,0.8,1.7,0.8c0.7,0,1.3-0.2,1.8-0.7c0.2-0.3,0.4-0.6,0.5-1h1.4c0,0.3-0.2,0.7-0.4,1
			c-0.2,0.4-0.4,0.7-0.7,0.9c-0.4,0.4-1,0.7-1.6,0.8c-0.3,0.1-0.7,0.1-1.1,0.1c-1,0-1.9-0.4-2.6-1.1c-0.7-0.8-1.1-1.8-1.1-3.2
			c0-1.4,0.4-2.4,1.1-3.3c0.7-0.8,1.7-1.3,2.9-1.3C123.8,24.2,124.3,24.4,124.9,24.7z M125.4,28c-0.1-0.6-0.2-1.1-0.4-1.5
			c-0.4-0.7-1-1-1.9-1c-0.6,0-1.2,0.2-1.6,0.7c-0.4,0.5-0.7,1.1-0.7,1.8H125.4z"/>
		<path class="st10" d="M133.1,24.4h1.3v1.2c0.4-0.5,0.8-0.8,1.3-1.1c0.4-0.2,0.9-0.3,1.5-0.3c1.2,0,2,0.4,2.4,1.3
			c0.2,0.5,0.3,1.1,0.3,2v5.4h-1.4v-5.3c0-0.5-0.1-0.9-0.2-1.2c-0.3-0.5-0.7-0.8-1.4-0.8c-0.3,0-0.6,0-0.8,0.1
			c-0.4,0.1-0.7,0.3-1,0.7c-0.2,0.3-0.4,0.6-0.5,0.9c-0.1,0.3-0.1,0.7-0.1,1.3v4.4h-1.4V24.4z"/>
		<path class="st10" d="M146.6,27.8c0.3,0,0.5-0.2,0.7-0.4c0.1-0.1,0.1-0.3,0.1-0.5c0-0.5-0.2-0.8-0.5-1.1c-0.3-0.2-0.8-0.3-1.5-0.3
			c-0.7,0-1.3,0.2-1.6,0.6c-0.2,0.2-0.3,0.5-0.3,1h-1.3c0-1,0.4-1.8,1-2.2c0.6-0.4,1.4-0.6,2.2-0.6c1,0,1.8,0.2,2.4,0.6
			c0.6,0.4,0.9,1,0.9,1.8v4.8c0,0.1,0,0.3,0.1,0.4c0.1,0.1,0.2,0.1,0.4,0.1c0.1,0,0.1,0,0.2,0c0.1,0,0.2,0,0.3,0v1
			c-0.2,0.1-0.4,0.1-0.5,0.1c-0.1,0-0.3,0-0.5,0c-0.5,0-0.8-0.2-1.1-0.5c-0.1-0.2-0.2-0.4-0.2-0.8c-0.3,0.4-0.7,0.7-1.2,1
			c-0.5,0.3-1.1,0.4-1.8,0.4c-0.8,0-1.4-0.2-1.9-0.7c-0.5-0.5-0.7-1.1-0.7-1.8c0-0.8,0.2-1.4,0.7-1.8c0.5-0.4,1.1-0.7,1.9-0.8
			L146.6,27.8z M143.6,31.6c0.3,0.2,0.7,0.4,1.1,0.4c0.5,0,1-0.1,1.4-0.3c0.8-0.4,1.2-1,1.2-1.9v-1.1c-0.2,0.1-0.4,0.2-0.7,0.3
			c-0.3,0.1-0.5,0.1-0.8,0.2l-0.9,0.1c-0.5,0.1-0.9,0.2-1.2,0.3c-0.4,0.2-0.7,0.6-0.7,1.2C143.2,31,143.3,31.3,143.6,31.6z"/>
		<path class="st10" d="M151.3,22.1h1.4v2.3h1.3v1.2h-1.3v5.5c0,0.3,0.1,0.5,0.3,0.6c0.1,0.1,0.3,0.1,0.5,0.1c0.1,0,0.1,0,0.2,0
			s0.2,0,0.3,0v1.1c-0.2,0-0.3,0.1-0.5,0.1c-0.2,0-0.4,0-0.6,0c-0.7,0-1.1-0.2-1.3-0.5c-0.2-0.3-0.4-0.8-0.4-1.3v-5.6h-1.1v-1.2h1.1
			V22.1z"/>
		<path class="st10" d="M155.5,21.3h1.4v1.6h-1.4V21.3z M155.5,24.5h1.4v8.4h-1.4V24.5z"/>
		<path class="st10" d="M165.2,25.3c0.7,0.7,1.1,1.8,1.1,3.2c0,1.4-0.3,2.5-1,3.4c-0.7,0.9-1.7,1.3-3.1,1.3c-1.1,0-2.1-0.4-2.7-1.2
			c-0.7-0.8-1-1.8-1-3.2c0-1.4,0.4-2.5,1.1-3.4c0.7-0.8,1.7-1.3,2.9-1.3C163.5,24.2,164.4,24.5,165.2,25.3z M164.3,30.9
			c0.3-0.7,0.5-1.5,0.5-2.4c0-0.8-0.1-1.4-0.4-1.9c-0.4-0.8-1.1-1.2-2-1.2c-0.9,0-1.5,0.3-1.9,1c-0.4,0.7-0.6,1.5-0.6,2.4
			c0,0.9,0.2,1.6,0.6,2.2c0.4,0.6,1,0.9,1.8,0.9C163.3,31.9,163.9,31.6,164.3,30.9z"/>
		<path class="st10" d="M168,24.4h1.3v1.2c0.4-0.5,0.8-0.8,1.3-1.1c0.4-0.2,0.9-0.3,1.5-0.3c1.2,0,2,0.4,2.4,1.3
			c0.2,0.5,0.3,1.1,0.3,2v5.4h-1.4v-5.3c0-0.5-0.1-0.9-0.2-1.2c-0.3-0.5-0.7-0.8-1.4-0.8c-0.3,0-0.6,0-0.8,0.1
			c-0.4,0.1-0.7,0.3-1,0.7c-0.2,0.3-0.4,0.6-0.5,0.9c-0.1,0.3-0.1,0.7-0.1,1.3v4.4H168V24.4z"/>
		<path class="st10" d="M181.5,27.8c0.3,0,0.5-0.2,0.7-0.4c0.1-0.1,0.1-0.3,0.1-0.5c0-0.5-0.2-0.8-0.5-1.1c-0.3-0.2-0.8-0.3-1.5-0.3
			c-0.7,0-1.3,0.2-1.6,0.6c-0.2,0.2-0.3,0.5-0.3,1H177c0-1,0.4-1.8,1-2.2c0.6-0.4,1.4-0.6,2.2-0.6c1,0,1.8,0.2,2.4,0.6
			c0.6,0.4,0.9,1,0.9,1.8v4.8c0,0.1,0,0.3,0.1,0.4s0.2,0.1,0.4,0.1c0.1,0,0.1,0,0.2,0c0.1,0,0.2,0,0.3,0v1c-0.2,0.1-0.4,0.1-0.5,0.1
			c-0.1,0-0.3,0-0.5,0c-0.5,0-0.8-0.2-1.1-0.5c-0.1-0.2-0.2-0.4-0.2-0.8c-0.3,0.4-0.7,0.7-1.2,1c-0.5,0.3-1.1,0.4-1.8,0.4
			c-0.8,0-1.4-0.2-1.9-0.7c-0.5-0.5-0.7-1.1-0.7-1.8c0-0.8,0.2-1.4,0.7-1.8c0.5-0.4,1.1-0.7,1.9-0.8L181.5,27.8z M178.5,31.6
			c0.3,0.2,0.7,0.4,1.1,0.4c0.5,0,1-0.1,1.4-0.3c0.8-0.4,1.2-1,1.2-1.9v-1.1c-0.2,0.1-0.4,0.2-0.7,0.3c-0.3,0.1-0.5,0.1-0.8,0.2
			l-0.9,0.1c-0.5,0.1-0.9,0.2-1.2,0.3c-0.4,0.2-0.7,0.6-0.7,1.2C178,31,178.2,31.3,178.5,31.6z"/>
		<path class="st10" d="M186,21.3h1.4v11.5H186V21.3z"/>
		<path class="st10" d="M193.8,24.5h1.4v1.1c0.3-0.4,0.6-0.7,0.9-0.9c0.5-0.3,1-0.5,1.7-0.5c1,0,1.8,0.4,2.4,1.1
			c0.7,0.7,1,1.8,1,3.1c0,1.8-0.5,3.1-1.4,3.9c-0.6,0.5-1.3,0.7-2.1,0.7c-0.6,0-1.2-0.1-1.6-0.4c-0.3-0.2-0.5-0.4-0.8-0.8v4.3h-1.4
			V24.5z M199.2,31.1c0.4-0.6,0.7-1.4,0.7-2.5c0-0.7-0.1-1.2-0.3-1.7c-0.4-0.9-1-1.4-2-1.4c-1,0-1.7,0.5-2,1.5
			c-0.2,0.5-0.3,1.2-0.3,2c0,0.6,0.1,1.2,0.3,1.7c0.4,0.9,1,1.3,2,1.3C198.2,31.9,198.7,31.6,199.2,31.1z"/>
		<path class="st10" d="M209,25.3c0.7,0.7,1.1,1.8,1.1,3.2c0,1.4-0.3,2.5-1,3.4c-0.7,0.9-1.7,1.3-3.1,1.3c-1.1,0-2.1-0.4-2.7-1.2
			c-0.7-0.8-1-1.8-1-3.2c0-1.4,0.4-2.5,1.1-3.4s1.7-1.3,2.9-1.3C207.4,24.2,208.3,24.5,209,25.3z M208.1,30.9
			c0.3-0.7,0.5-1.5,0.5-2.4c0-0.8-0.1-1.4-0.4-1.9c-0.4-0.8-1.1-1.2-2-1.2c-0.9,0-1.5,0.3-1.9,1c-0.4,0.7-0.6,1.5-0.6,2.4
			c0,0.9,0.2,1.6,0.6,2.2c0.4,0.6,1,0.9,1.8,0.9C207.1,31.9,207.8,31.6,208.1,30.9z"/>
		<path class="st10" d="M211.9,24.4h1.3v1.5c0.1-0.3,0.4-0.6,0.8-1c0.4-0.4,0.9-0.6,1.5-0.6c0,0,0.1,0,0.1,0c0.1,0,0.2,0,0.3,0v1.5
			c-0.1,0-0.2,0-0.2,0c-0.1,0-0.1,0-0.2,0c-0.7,0-1.3,0.2-1.6,0.7c-0.4,0.5-0.6,1-0.6,1.6v4.8h-1.4V24.4z"/>
		<path class="st10" d="M217.5,22.1h1.4v2.3h1.3v1.2h-1.3v5.5c0,0.3,0.1,0.5,0.3,0.6c0.1,0.1,0.3,0.1,0.6,0.1c0.1,0,0.1,0,0.2,0
			s0.2,0,0.3,0v1.1c-0.2,0-0.3,0.1-0.5,0.1c-0.2,0-0.4,0-0.6,0c-0.7,0-1.1-0.2-1.3-0.5c-0.2-0.3-0.4-0.8-0.4-1.3v-5.6h-1.1v-1.2h1.1
			V22.1z"/>
		<path class="st10" d="M226.2,27.8c0.3,0,0.5-0.2,0.7-0.4c0.1-0.1,0.1-0.3,0.1-0.5c0-0.5-0.2-0.8-0.5-1.1c-0.3-0.2-0.8-0.3-1.5-0.3
			c-0.7,0-1.3,0.2-1.6,0.6c-0.2,0.2-0.3,0.5-0.3,1h-1.3c0-1,0.4-1.8,1-2.2c0.6-0.4,1.4-0.6,2.2-0.6c1,0,1.8,0.2,2.4,0.6
			c0.6,0.4,0.9,1,0.9,1.8v4.8c0,0.1,0,0.3,0.1,0.4c0.1,0.1,0.2,0.1,0.4,0.1c0.1,0,0.1,0,0.2,0c0.1,0,0.2,0,0.3,0v1
			c-0.2,0.1-0.4,0.1-0.5,0.1c-0.1,0-0.3,0-0.5,0c-0.5,0-0.8-0.2-1.1-0.5c-0.1-0.2-0.2-0.4-0.2-0.8c-0.3,0.4-0.7,0.7-1.2,1
			c-0.5,0.3-1.1,0.4-1.8,0.4c-0.8,0-1.4-0.2-1.9-0.7c-0.5-0.5-0.7-1.1-0.7-1.8c0-0.8,0.2-1.4,0.7-1.8c0.5-0.4,1.1-0.7,1.9-0.8
			L226.2,27.8z M223.2,31.6c0.3,0.2,0.7,0.4,1.1,0.4c0.5,0,1-0.1,1.4-0.3c0.8-0.4,1.2-1,1.2-1.9v-1.1c-0.2,0.1-0.4,0.2-0.7,0.3
			c-0.3,0.1-0.5,0.1-0.8,0.2l-0.9,0.1c-0.5,0.1-0.9,0.2-1.2,0.3c-0.4,0.2-0.7,0.6-0.7,1.2C222.8,31,222.9,31.3,223.2,31.6z"/>
		<path class="st10" d="M230.7,21.3h1.4v11.5h-1.4V21.3z"/>
		<path class="st10" d="M244.8,25.3c0.7,0.7,1.1,1.8,1.1,3.2c0,1.4-0.3,2.5-1,3.4c-0.7,0.9-1.7,1.3-3.1,1.3c-1.1,0-2.1-0.4-2.7-1.2
			c-0.7-0.8-1-1.8-1-3.2c0-1.4,0.4-2.5,1.1-3.4c0.7-0.8,1.7-1.3,2.9-1.3C243.1,24.2,244,24.5,244.8,25.3z M243.9,30.9
			c0.3-0.7,0.5-1.5,0.5-2.4c0-0.8-0.1-1.4-0.4-1.9c-0.4-0.8-1.1-1.2-2-1.2c-0.9,0-1.5,0.3-1.9,1c-0.4,0.7-0.6,1.5-0.6,2.4
			c0,0.9,0.2,1.6,0.6,2.2c0.4,0.6,1,0.9,1.8,0.9C242.9,31.9,243.6,31.6,243.9,30.9z"/>
		<path class="st10" d="M248.3,21.9c0.3-0.5,1-0.7,1.9-0.7c0.1,0,0.2,0,0.3,0c0.1,0,0.2,0,0.3,0v1.3c-0.1,0-0.3,0-0.3,0
			c-0.1,0-0.1,0-0.2,0c-0.4,0-0.7,0.1-0.8,0.3c-0.1,0.2-0.1,0.8-0.1,1.7h1.4v1.1h-1.4v7.3H248v-7.3h-1.2v-1.1h1.2v-1.3
			C248,22.6,248.1,22.1,248.3,21.9z"/>
		<path class="st10" d="M257.1,21.3h1.6v11.5h-1.6V21.3z"/>
		<path class="st10" d="M261,24.4h1.3v1.2c0.4-0.5,0.8-0.8,1.3-1.1c0.4-0.2,0.9-0.3,1.5-0.3c1.2,0,2,0.4,2.4,1.3
			c0.2,0.5,0.3,1.1,0.3,2v5.4h-1.4v-5.3c0-0.5-0.1-0.9-0.2-1.2c-0.3-0.5-0.7-0.8-1.4-0.8c-0.3,0-0.6,0-0.8,0.1
			c-0.4,0.1-0.7,0.3-1,0.7c-0.2,0.3-0.4,0.6-0.5,0.9c-0.1,0.3-0.1,0.7-0.1,1.3v4.4H261V24.4z"/>
		<path class="st10" d="M274.6,24.7c0.3,0.2,0.5,0.4,0.9,0.8v-4.3h1.4v11.6h-1.3v-1.2c-0.3,0.5-0.7,0.9-1.2,1.1
			c-0.4,0.2-1,0.3-1.5,0.3c-0.9,0-1.7-0.4-2.4-1.2c-0.7-0.8-1-1.8-1-3.1c0-1.2,0.3-2.3,0.9-3.2c0.6-0.9,1.5-1.3,2.7-1.3
			C273.6,24.3,274.2,24.4,274.6,24.7z M271.5,31c0.4,0.6,1,0.9,1.8,0.9c0.7,0,1.2-0.3,1.6-0.8c0.4-0.6,0.6-1.4,0.6-2.4
			c0-1.1-0.2-1.9-0.6-2.4c-0.4-0.5-1-0.8-1.6-0.8c-0.7,0-1.3,0.3-1.7,0.8c-0.4,0.5-0.7,1.3-0.7,2.4C270.9,29.6,271.1,30.4,271.5,31z
			"/>
		<path class="st10" d="M278.9,21.3h1.4v1.6h-1.4V21.3z M278.9,24.5h1.4v8.4h-1.4V24.5z"/>
		<path class="st10" d="M287,27.8c0.3,0,0.5-0.2,0.7-0.4c0.1-0.1,0.1-0.3,0.1-0.5c0-0.5-0.2-0.8-0.5-1.1c-0.3-0.2-0.8-0.3-1.5-0.3
			c-0.7,0-1.3,0.2-1.6,0.6c-0.2,0.2-0.3,0.5-0.3,1h-1.3c0-1,0.4-1.8,1-2.2c0.6-0.4,1.4-0.6,2.2-0.6c1,0,1.8,0.2,2.4,0.6
			c0.6,0.4,0.9,1,0.9,1.8v4.8c0,0.1,0,0.3,0.1,0.4c0.1,0.1,0.2,0.1,0.4,0.1c0.1,0,0.1,0,0.2,0c0.1,0,0.2,0,0.3,0v1
			c-0.2,0.1-0.4,0.1-0.5,0.1c-0.1,0-0.3,0-0.5,0c-0.5,0-0.8-0.2-1.1-0.5c-0.1-0.2-0.2-0.4-0.2-0.8c-0.3,0.4-0.7,0.7-1.2,1
			c-0.5,0.3-1.1,0.4-1.8,0.4c-0.8,0-1.4-0.2-1.9-0.7c-0.5-0.5-0.7-1.1-0.7-1.8c0-0.8,0.2-1.4,0.7-1.8c0.5-0.4,1.1-0.7,1.9-0.8
			L287,27.8z M284,31.6c0.3,0.2,0.7,0.4,1.1,0.4c0.5,0,1-0.1,1.4-0.3c0.8-0.4,1.2-1,1.2-1.9v-1.1c-0.2,0.1-0.4,0.2-0.7,0.3
			c-0.3,0.1-0.5,0.1-0.8,0.2l-0.9,0.1c-0.5,0.1-0.9,0.2-1.2,0.3c-0.4,0.2-0.7,0.6-0.7,1.2C283.6,31,283.7,31.3,284,31.6z"/>
	</g>
</g>
</svg>
