<svg width="25" height="25" viewBox="0 0 25 25" fill="none" xmlns="http://www.w3.org/2000/svg">
<path d="M21.2062 15.2337C21.2167 14.6825 21.0003 14.15 20.6046 13.7532C20.209 13.3563 19.6665 13.1277 19.0966 13.1175C18.5266 13.1075 17.9759 13.3167 17.5655 13.6993C17.155 14.0818 16.9186 14.6064 16.9082 15.1575C16.9082 15.1575 16.9082 15.2059 16.9082 15.2337V15.7532C16.9082 15.8909 16.9648 16.0231 17.0656 16.1204C17.1662 16.2179 17.3029 16.2727 17.4454 16.2727C17.5879 16.2727 17.7245 16.2179 17.8253 16.1204C17.9261 16.0231 17.9827 15.8909 17.9827 15.7532V15.2337C17.9827 14.9581 18.0959 14.6938 18.2973 14.499C18.4989 14.3041 18.7722 14.1947 19.0572 14.1947C19.3422 14.1947 19.6154 14.3041 19.817 14.499C20.0185 14.6938 20.1317 14.9581 20.1317 15.2337V21.9801C20.1317 22.087 20.1662 22.1911 20.2304 22.278C20.2947 22.365 20.3854 22.4304 20.4899 22.4651C20.5469 22.487 20.6076 22.4987 20.669 22.4996C20.8114 22.4996 20.9481 22.4449 21.0489 22.3475C21.1496 22.25 21.2062 22.1179 21.2062 21.9801V15.2337Z" fill="#E69F69"/>
<path d="M11.7789 19.2024C10.4779 19.0887 9.26013 18.5343 8.34053 17.6371C8.31775 17.6168 8.28997 17.6025 8.26004 17.5953C8.23 17.5879 8.1986 17.5881 8.16856 17.5955C6.94345 17.9029 5.80359 18.4682 4.83048 19.251C4.63085 19.4259 4.47203 19.6399 4.36456 19.8788C4.25721 20.1176 4.20347 20.3758 4.20721 20.6362V22.5064C4.20721 22.5983 4.24496 22.6864 4.31207 22.7514C4.3793 22.8162 4.47044 22.8528 4.56544 22.8528H10.7403L11.385 20.6848C11.4072 20.6095 11.4542 20.5433 11.5189 20.4961C11.5835 20.449 11.6622 20.4235 11.7431 20.4235C11.8241 20.4235 11.9028 20.449 11.9675 20.4961C12.0321 20.5433 12.0791 20.6095 12.1013 20.6848L12.7102 22.8528H18.8779C18.9729 22.8528 19.0641 22.8162 19.1312 22.7514C19.1984 22.6864 19.2361 22.5983 19.2361 22.5064V20.6432C19.2398 20.3827 19.1862 20.1245 19.0787 19.8856C18.9712 19.6468 18.8124 19.4329 18.6129 19.2579C17.6691 18.4921 16.5643 17.9342 15.375 17.6232C15.345 17.6158 15.3136 17.6157 15.2837 17.6229C15.2536 17.6302 15.226 17.6446 15.2031 17.6647C14.2854 18.5523 13.0724 19.0971 11.7789 19.2024Z" fill="#514AF3"/>
<path d="M12.2805 14.6728L12.1228 14.742C11.8651 14.8115 11.5926 14.8115 11.3348 14.742C11.2799 14.7245 11.2271 14.7013 11.1772 14.6728C11.0531 14.6091 10.9081 14.5951 10.7733 14.6336C10.6385 14.6721 10.5248 14.7603 10.4563 14.8789C10.388 14.9976 10.3704 15.1375 10.4074 15.2686C10.4444 15.3996 10.533 15.5115 10.6543 15.5802C10.7679 15.641 10.888 15.6898 11.0125 15.7257C11.2443 15.7954 11.486 15.8304 11.7288 15.8296C11.9711 15.8293 12.2122 15.7967 12.4452 15.7325C12.5687 15.6914 12.6886 15.6405 12.8033 15.5802C12.9246 15.5115 13.0132 15.3996 13.0503 15.2686C13.0873 15.1375 13.0697 14.9976 13.0013 14.8789C12.9329 14.7603 12.8192 14.6721 12.6844 14.6336C12.5496 14.5951 12.4046 14.6091 12.2805 14.6728Z" fill="#E69F69"/>
<path d="M11.0918 13.0932C11.1925 12.9958 11.2489 12.8638 11.2489 12.7261C11.2489 12.5884 11.1925 12.4564 11.0918 12.359C10.8323 12.1444 10.5021 12.0264 10.1605 12.0264C9.8191 12.0264 9.48887 12.1444 9.22939 12.359C9.12872 12.4564 9.07227 12.5884 9.07227 12.7261C9.07227 12.8638 9.12872 12.9958 9.22939 13.0932C9.33368 13.1946 9.47538 13.2519 9.62332 13.2525C9.75924 13.2547 9.89052 13.2049 9.98869 13.114C10.0502 13.0819 10.1192 13.065 10.1892 13.065C10.2593 13.065 10.3282 13.0819 10.3898 13.114C10.49 13.1926 10.6159 13.2337 10.7448 13.2298C10.8737 13.226 10.9968 13.1776 11.0918 13.0932Z" fill="#E69F69"/>
<path d="M12.367 12.359C12.2879 12.4278 12.2321 12.5179 12.2067 12.6178C12.1814 12.7176 12.1876 12.8225 12.2247 12.9189C12.2618 13.0152 12.328 13.0986 12.4146 13.1581C12.5013 13.2176 12.6044 13.2505 12.7108 13.2526C12.8466 13.254 12.9775 13.2043 13.0762 13.114C13.1365 13.082 13.2043 13.065 13.2732 13.065C13.342 13.065 13.4098 13.082 13.4701 13.114C13.5182 13.1736 13.5789 13.2224 13.6484 13.2568C13.7179 13.2914 13.7943 13.3109 13.8723 13.3139C13.9504 13.3169 14.0282 13.3034 14.1003 13.2744C14.1724 13.2455 14.2371 13.2016 14.2898 13.146C14.3426 13.0904 14.3822 13.0242 14.4059 12.9522C14.4296 12.8803 14.4367 12.8043 14.427 12.7294C14.4171 12.6544 14.3905 12.5825 14.349 12.5185C14.3074 12.4546 14.252 12.4002 14.1864 12.359C13.9301 12.1553 13.6085 12.0439 13.2767 12.0439C12.9449 12.0439 12.6233 12.1553 12.367 12.359Z" fill="#E69F69"/>
<path d="M17.452 8.93065C17.452 8.32114 17.187 8.0579 15.8188 7.72542C15.7826 7.71634 15.7502 7.69709 15.7256 7.66997C14.3789 6.11837 11.9935 6.22927 11.7786 6.22927C9.99491 6.22927 8.6697 6.7211 7.82436 7.67697L6.81429 7.91933C6.58337 7.9786 6.37887 8.10974 6.23263 8.29249C6.08628 8.47535 6.00624 8.69955 6.00488 8.93065V11.1125C6.00579 11.3158 6.06882 11.5145 6.18615 11.6832C6.30337 11.8521 6.46956 11.9836 6.66386 12.0614C6.68733 12.0689 6.70853 12.0815 6.72598 12.0984C6.74333 12.1152 6.75648 12.1358 6.76419 12.1584C6.77462 12.1814 6.78006 12.2061 6.78006 12.2311C6.78006 12.2562 6.77462 12.281 6.76419 12.3039C6.6379 12.5411 6.57861 12.8063 6.59222 13.0727C6.58689 13.4171 6.6795 13.7564 6.8602 14.0533C7.0409 14.3501 7.30255 14.5933 7.61667 14.7559C7.63923 14.7706 7.65817 14.7901 7.67177 14.8129C7.68537 14.8357 7.69354 14.8612 7.69546 14.8876C8.06072 16.9655 10.5608 18.3508 11.7571 18.3508C12.9533 18.3508 15.4606 17.0071 15.826 14.8876C15.832 14.8598 15.8449 14.834 15.8636 14.8122C15.8823 14.7906 15.9063 14.7735 15.9334 14.7628C16.2579 14.6063 16.5305 14.365 16.7204 14.0662C16.9104 13.7675 17.0099 13.4233 17.0079 13.0727C17.021 12.7936 16.9567 12.5163 16.8216 12.2693C16.811 12.2489 16.8054 12.2263 16.8054 12.2035C16.8054 12.1806 16.811 12.1581 16.8216 12.1376C16.8274 12.1153 16.8381 12.0945 16.8529 12.0766C16.8678 12.0587 16.8863 12.044 16.9077 12.0337C17.0821 11.9454 17.2287 11.8132 17.3321 11.6511C17.4355 11.489 17.4917 11.3029 17.495 11.1125L17.452 8.93065ZM14.8589 11.2441C14.9081 11.3869 14.9885 11.5178 15.0949 11.6278C15.2012 11.7378 15.3309 11.8243 15.4749 11.8814C15.505 11.892 15.5306 11.9121 15.5474 11.9386C15.5643 11.9649 15.5716 11.996 15.5681 12.0268V12.2C15.5484 12.3089 15.5657 12.421 15.6174 12.5196C15.6689 12.6182 15.7522 12.698 15.8546 12.7471C15.8546 12.7471 15.9334 12.851 15.9334 13.0519C15.9385 13.2005 15.9043 13.3477 15.8341 13.4798C15.7639 13.6119 15.66 13.7245 15.5322 13.8069C15.3442 13.8887 15.1802 14.0145 15.0551 14.1728C14.93 14.3313 14.8479 14.5175 14.8159 14.7143C14.5222 16.2659 12.5236 17.3118 11.7786 17.3118C11.0335 17.3118 9.0421 16.2798 8.76991 14.7282C8.73806 14.5312 8.65576 14.3452 8.53072 14.1867C8.40557 14.0283 8.24164 13.9025 8.05358 13.8208C7.92582 13.7383 7.82186 13.6258 7.75169 13.4937C7.68152 13.3616 7.6474 13.2142 7.6525 13.0658C7.6525 12.8649 7.70975 12.7679 7.73128 12.761C7.83365 12.7119 7.91686 12.6321 7.96855 12.5334C8.02013 12.4349 8.03748 12.3227 8.01775 12.2139C8.01775 12.1446 8.01775 12.0822 8.01775 12.0198C8.01447 11.9854 8.02149 11.9507 8.03793 11.9201C8.05448 11.8894 8.07976 11.8639 8.11094 11.8467C8.36011 11.7132 8.54716 11.4927 8.63388 11.2303L9.12814 8.99988C9.17621 8.86612 9.194 8.72394 9.1804 8.58297C9.1668 8.44199 9.12213 8.3054 9.04935 8.18258C9.03836 8.16267 9.03178 8.1408 9.02974 8.11838C9.02781 8.09596 9.03065 8.07332 9.03802 8.05188C9.04539 8.03055 9.05718 8.01087 9.07271 7.99402C9.08812 7.97718 9.10706 7.96351 9.12814 7.954C9.91579 7.45681 10.8464 7.21424 11.7857 7.26137C12.6905 7.21577 13.5885 7.43286 14.3646 7.88477C14.4029 7.91003 14.4294 7.94875 14.4388 7.99271C14.4481 8.03657 14.4395 8.08229 14.4147 8.12024C14.3271 8.24841 14.2706 8.3942 14.2495 8.54655C14.2284 8.6989 14.2433 8.85387 14.2929 8.99988L14.8589 11.2441Z" fill="#E69F69"/>
<path d="M10.4756 10.3846C10.4746 10.4531 10.4879 10.5211 10.5145 10.5845C10.5412 10.648 10.5807 10.7056 10.6308 10.7541C10.6809 10.8025 10.7405 10.8407 10.8061 10.8665C10.8717 10.8923 10.942 10.9051 11.0129 10.9041H12.4455C12.5765 10.8895 12.6972 10.8288 12.7848 10.7336C12.8725 10.6385 12.9209 10.5155 12.9209 10.3881C12.9209 10.2607 12.8725 10.1378 12.7848 10.0426C12.6972 9.94748 12.5765 9.88678 12.4455 9.87212H11.0129C10.9427 9.87114 10.873 9.88372 10.8078 9.90909C10.7426 9.93446 10.6833 9.97208 10.6333 10.0198C10.5834 10.0675 10.5437 10.1242 10.5167 10.1869C10.4896 10.2495 10.4756 10.3167 10.4756 10.3846Z" fill="#E69F69"/>
<path d="M10.428 8.92769C10.427 8.99615 10.4403 9.06418 10.4669 9.12761C10.4936 9.19104 10.5331 9.24868 10.5832 9.29713C10.6333 9.34558 10.6928 9.38375 10.7585 9.40956C10.8241 9.43537 10.8944 9.44817 10.9653 9.44718H12.3979C12.5289 9.43253 12.6496 9.37183 12.7372 9.27668C12.8249 9.18153 12.8733 9.0586 12.8733 8.93119C12.8733 8.80377 12.8249 8.68073 12.7372 8.58569C12.6496 8.49054 12.5289 8.42985 12.3979 8.41508H10.9653C10.8951 8.41421 10.8254 8.42678 10.7602 8.45216C10.695 8.47753 10.6357 8.51504 10.5858 8.56284C10.5358 8.61052 10.4961 8.66728 10.4691 8.72995C10.442 8.79262 10.428 8.85977 10.428 8.92769Z" fill="#E69F69"/>
<path fill-rule="evenodd" clip-rule="evenodd" d="M7.23649 3.90318C6.96805 3.80652 6.96805 3.49552 7.23649 3.39882L11.2674 1.94634C11.6169 1.82042 12.0154 1.82131 12.3641 1.94883L16.3307 3.39942C16.486 3.4562 16.5506 3.58483 16.5247 3.70149C16.5322 3.72972 16.5361 3.75905 16.5361 3.7891V5.18431C16.5361 5.41267 16.3096 5.59783 16.0299 5.59783C15.7503 5.59783 15.5236 5.41267 15.5236 5.18431V4.19781L12.3641 5.35328C12.0154 5.4808 11.6169 5.48168 11.2674 5.3558L7.23649 3.90318ZM10.9269 5.9863L8.74002 5.1982V6.51793C8.74002 6.63222 8.79795 6.74137 8.89997 6.81957C8.96686 6.86791 8.90054 6.82001 8.90054 6.82001L8.90122 6.82055L8.90281 6.82176L8.90723 6.82504L8.92083 6.8351C8.93206 6.8433 8.94747 6.85435 8.96686 6.86791C9.00574 6.89503 9.06095 6.93211 9.13112 6.97596C9.27135 7.06324 9.47314 7.17808 9.72605 7.29291C10.2281 7.52072 10.955 7.75838 11.8114 7.75838C12.6693 7.75838 13.3812 7.51996 13.87 7.28963C14.1158 7.17381 14.3101 7.05777 14.4447 6.96951C14.5121 6.92522 14.565 6.8876 14.6023 6.86004C14.6209 6.84625 14.6358 6.83488 14.6466 6.82646L14.6598 6.81607L14.6641 6.81257L14.6657 6.81126L14.6664 6.81071L14.667 6.81027C14.667 6.81027 14.667 6.81027 14.309 6.51793L14.667 6.81027C14.7618 6.73273 14.8152 6.62763 14.8152 6.51793V5.21198L12.709 5.98225C12.1424 6.1895 11.4948 6.19092 10.9269 5.9863Z" fill="#514AF3"/>
</svg>
