<svg width="25" height="25" viewBox="0 0 25 25" fill="none" xmlns="http://www.w3.org/2000/svg">
<g clip-path="url(#clip0_7_274)">
<path d="M22.0918 10.7812C22.0918 15.8899 17.9505 20.0312 12.8418 20.0312C7.73315 20.0312 3.5918 15.8899 3.5918 10.7812C3.5918 5.67262 7.73315 1.53125 12.8418 1.53125C17.9505 1.53125 22.0918 5.67262 22.0918 10.7812Z" fill="#514AF3"/>
<path d="M13.8774 10.4532C13.8562 10.2252 13.7802 9.9958 13.5703 9.9042C13.4184 9.8379 13.1875 9.78125 12.8418 9.78125C12.4961 9.78125 12.2652 9.8379 12.1132 9.9042C11.9033 9.9958 11.8274 10.2252 11.8062 10.4532C11.7485 11.0754 11.6372 12.5659 11.6024 15.0955C11.5495 15.0424 11.4954 14.9883 11.4401 14.933C10.7261 14.219 10.195 13.7025 9.83135 13.3544C9.45345 12.9928 8.90925 12.8937 8.52795 13.2517C8.4977 13.2801 8.46665 13.3102 8.4349 13.3419C8.4032 13.3737 8.37315 13.4046 8.34475 13.4349C7.98675 13.8162 8.08575 14.3604 8.44735 14.7383C8.7954 15.102 9.31195 15.6331 10.0259 16.3471C10.7059 17.0271 11.2202 17.5282 11.5818 17.875C11.5414 20.1991 11.3872 21.7125 11.2749 22.5312H8.3418C7.9276 22.5312 7.5918 22.867 7.5918 23.2812C7.5918 23.6955 7.9276 24.0312 8.3418 24.0312H17.3418C17.756 24.0312 18.0918 23.6955 18.0918 23.2812C18.0918 22.867 17.756 22.5312 17.3418 22.5312H14.4087C14.2784 21.5813 14.0918 19.6968 14.0918 16.6959C14.0918 16.0445 14.0868 15.4456 14.0782 14.8975C14.4409 14.5499 14.9627 14.0421 15.6577 13.3471C16.3716 12.6331 16.8881 12.102 17.2362 11.7383C17.5979 11.3604 17.6968 10.8163 17.3388 10.4349C17.3104 10.4047 17.2804 10.3736 17.2487 10.3419C17.2169 10.3101 17.1859 10.2801 17.1557 10.2517C16.7743 9.89375 16.2301 9.9927 15.8523 10.3544C15.4886 10.7024 14.9574 11.219 14.2435 11.933C14.1575 12.0189 14.0744 12.1021 13.9941 12.1828C13.953 11.349 13.9077 10.7808 13.8774 10.4532Z" fill="#E69F69"/>
</g>
<defs>
<clipPath id="clip0_7_274">
<rect width="24" height="24" fill="white" transform="translate(0.841797 0.78125)"/>
</clipPath>
</defs>
</svg>
