<svg width="25" height="25" viewBox="0 0 25 25" fill="none" xmlns="http://www.w3.org/2000/svg">
<path d="M13.5918 8.89538C13.4517 8.74546 13.263 8.66139 13.0662 8.66139C12.8695 8.66139 12.6807 8.74546 12.5406 8.89538L11.8281 9.67486C11.7998 9.70878 11.7649 9.7351 11.7256 9.75185C11.6865 9.76871 11.6443 9.77537 11.6024 9.77152C11.5613 9.76975 11.5209 9.75851 11.484 9.73843C11.4472 9.71845 11.4146 9.69026 11.3887 9.65561L10.7473 8.82453C10.7058 8.76762 10.6829 8.69739 10.682 8.62477V7.53598C10.682 7.45056 10.6507 7.36858 10.595 7.30823C10.5394 7.24778 10.4638 7.21387 10.385 7.21387H5.63443C5.55562 7.21387 5.48018 7.24778 5.42444 7.30823C5.36879 7.36858 5.33746 7.45056 5.33746 7.53598V8.59897C5.34227 8.68033 5.31901 8.76075 5.2722 8.82453L4.63674 9.66207C4.60791 9.69453 4.5734 9.72043 4.53515 9.73812C4.49681 9.75581 4.45567 9.76496 4.41406 9.76496C4.37244 9.76496 4.33131 9.75581 4.29306 9.73812C4.25481 9.72043 4.22021 9.69453 4.19138 9.66207L3.47883 8.90183C3.41021 8.82651 3.32852 8.76658 3.23857 8.72548C3.14861 8.68449 3.05212 8.66296 2.95447 8.66244C2.85692 8.66181 2.76014 8.6821 2.6697 8.72205C2.57936 8.762 2.49709 8.82089 2.4277 8.89538C2.28758 9.04572 2.2082 9.25037 2.20704 9.46418C2.20598 9.67809 2.28316 9.88367 2.42175 10.0357L3.4847 11.2018C3.5168 11.2369 3.54102 11.2796 3.55543 11.3265C3.56985 11.3734 3.57408 11.4234 3.56783 11.4724C3.56783 11.5368 3.56783 11.6013 3.56783 11.6657V18.1662C3.56783 18.5912 3.72266 18.9989 3.99849 19.3006C4.27432 19.6023 4.64894 19.7734 5.04058 19.7769H10.9789C11.1739 19.7769 11.3669 19.7352 11.5471 19.6543C11.7272 19.5734 11.8908 19.4546 12.0287 19.3051C12.1665 19.1555 12.2759 18.978 12.3504 18.7825C12.4251 18.5871 12.4635 18.3777 12.4635 18.1662V11.6657C12.4635 11.6013 12.4635 11.5368 12.4635 11.4724C12.4573 11.4234 12.4615 11.3734 12.476 11.3265C12.4904 11.2796 12.5146 11.2369 12.5466 11.2018L13.6095 10.0357C13.7454 9.88128 13.8197 9.67497 13.8164 9.46158C13.813 9.24808 13.7324 9.04468 13.5918 8.89538Z" fill="#514AF3"/>
<path d="M4.68014 6.78532H11.153C11.1969 6.78459 11.2402 6.77387 11.28 6.75389C11.3199 6.73392 11.3556 6.7051 11.3845 6.66931C11.4114 6.63133 11.4305 6.58753 11.4408 6.54092C11.451 6.49431 11.4521 6.44583 11.4439 6.3988C11.3618 5.96224 11.1432 5.5698 10.825 5.28806C10.5069 5.00631 10.1088 4.85244 9.69802 4.85254H6.13511C5.72435 4.85244 5.32627 5.00631 5.00816 5.28806C4.68994 5.5698 4.4713 5.96224 4.38922 6.3988C4.38105 6.44583 4.38211 6.49431 4.3923 6.54092C4.40258 6.58753 4.42171 6.63133 4.44862 6.66931C4.47755 6.7051 4.5132 6.73392 4.55309 6.75389C4.59297 6.77387 4.63622 6.78459 4.68014 6.78532Z" fill="#E69F69"/>
<path d="M15.7093 11.5625H21.2788C21.3356 11.5625 21.3901 11.5402 21.4302 11.5003C21.4704 11.4605 21.493 11.4064 21.493 11.35V10.2872C21.493 10.118 21.4252 9.95582 21.3048 9.83627C21.1843 9.71663 21.0208 9.64941 20.8503 9.64941H16.1378C15.9674 9.64941 15.8039 9.71663 15.6834 9.83627C15.5629 9.95582 15.4951 10.118 15.4951 10.2872V11.35C15.4951 11.4064 15.5177 11.4605 15.5579 11.5003C15.598 11.5402 15.6525 11.5625 15.7093 11.5625Z" fill="#E69F69"/>
<path d="M21.2795 12.2002H15.7101C15.1991 12.2013 14.7095 12.4033 14.3481 12.7618C13.9868 13.1203 13.7834 13.6063 13.7822 14.1133V17.9395C13.7834 18.4465 13.9868 18.9325 14.3481 19.291C14.7095 19.6496 15.1991 19.8515 15.7101 19.8526H21.2795C21.7905 19.8515 22.2802 19.6496 22.6414 19.291C23.0028 18.9325 23.2063 18.4465 23.2074 17.9395V14.1133C23.2063 13.6063 23.0028 13.1203 22.6414 12.7618C22.2802 12.4033 21.7905 12.2013 21.2795 12.2002ZM21.1724 15.3888H19.9814C19.869 15.3892 19.7613 15.4335 19.6815 15.512L19.3473 15.8436C19.3318 15.8588 19.3211 15.8782 19.3165 15.8993C19.312 15.9205 19.3137 15.9425 19.3217 15.9626C19.33 15.9817 19.3438 15.9978 19.3613 16.0091C19.3788 16.0205 19.3992 16.0265 19.4202 16.0264H19.8872C19.9723 16.0264 20.0541 16.06 20.1144 16.1199C20.1746 16.1796 20.2085 16.2607 20.2085 16.3453C20.2085 16.4298 20.1746 16.5109 20.1144 16.5708C20.0541 16.6305 19.9723 16.6641 19.8872 16.6641H18.6961C18.5838 16.6646 18.476 16.7088 18.3963 16.7874L18.0621 17.119C18.0465 17.1341 18.0359 17.1535 18.0312 17.1747C18.0267 17.1958 18.0285 17.2179 18.0364 17.2381C18.0448 17.257 18.0585 17.2733 18.076 17.2846C18.0935 17.2959 18.114 17.3019 18.1349 17.3019H18.6019C18.6871 17.3019 18.7689 17.3354 18.8291 17.3952C18.8894 17.455 18.9232 17.5361 18.9232 17.6206C18.9232 17.7052 18.8894 17.7863 18.8291 17.8461C18.7689 17.9059 18.6871 17.9395 18.6019 17.9395H17.4109C17.2985 17.94 17.1908 17.9843 17.111 18.0628L16.4727 18.6962C16.4124 18.7559 16.3308 18.7896 16.2457 18.7896C16.1605 18.7896 16.0788 18.7559 16.0186 18.6962C15.9584 18.6365 15.9246 18.5555 15.9246 18.471C15.9246 18.3864 15.9584 18.3054 16.0186 18.2456L16.6569 17.6121C16.6977 17.5714 16.7297 17.523 16.751 17.4696C16.7723 17.4163 16.7826 17.3592 16.7812 17.3019V16.1326C16.7812 16.0482 16.815 15.967 16.8753 15.9072C16.9355 15.8475 17.0172 15.8139 17.1025 15.8139C17.1877 15.8139 17.2694 15.8475 17.3297 15.9072C17.3899 15.967 17.4237 16.0482 17.4237 16.1326V16.596C17.4236 16.6169 17.4297 16.6371 17.4411 16.6545C17.4526 16.6719 17.4688 16.6856 17.488 16.6938C17.5083 16.7018 17.5305 16.7035 17.5519 16.6989C17.5732 16.6945 17.5927 16.6838 17.608 16.6684L17.9422 16.3368C17.9829 16.296 18.0149 16.2475 18.0362 16.1942C18.0576 16.1409 18.0679 16.0837 18.0664 16.0264V14.8573C18.0664 14.7727 18.1002 14.6917 18.1605 14.6319C18.2208 14.572 18.3025 14.5384 18.3877 14.5384C18.473 14.5384 18.5546 14.572 18.6149 14.6319C18.6752 14.6917 18.709 14.7727 18.709 14.8573V15.3207C18.7089 15.3414 18.7149 15.3617 18.7264 15.3791C18.7378 15.3965 18.7541 15.4102 18.7733 15.4185C18.7936 15.4263 18.8158 15.4281 18.8371 15.4236C18.8584 15.419 18.878 15.4084 18.8932 15.3929L19.2274 15.0613C19.2681 15.0207 19.3002 14.9722 19.3215 14.9188C19.3428 14.8654 19.3531 14.8084 19.3517 14.751V13.5819C19.3517 13.4973 19.3855 13.4162 19.4458 13.3564C19.506 13.2966 19.5877 13.2631 19.673 13.2631C19.7582 13.2631 19.8399 13.2966 19.9002 13.3564C19.9604 13.4162 19.9942 13.4973 19.9942 13.5819V14.0453C19.9941 14.0661 20.0002 14.0864 20.0116 14.1037C20.0231 14.1211 20.0394 14.1347 20.0585 14.1431C20.0788 14.151 20.101 14.1527 20.1224 14.1482C20.1437 14.1437 20.1632 14.133 20.1785 14.1176L20.3027 13.9943C20.3637 13.938 20.4442 13.9073 20.5274 13.9088C20.6107 13.9102 20.6901 13.9436 20.749 14.0021C20.8079 14.0605 20.8415 14.1393 20.8431 14.2219C20.8445 14.3045 20.8136 14.3844 20.7569 14.4449L20.6326 14.5682C20.617 14.5834 20.6063 14.6027 20.6017 14.6239C20.5972 14.6451 20.5989 14.6671 20.6069 14.6872C20.6153 14.7062 20.629 14.7225 20.6465 14.7337C20.664 14.745 20.6845 14.7511 20.7054 14.751H21.1724C21.2577 14.751 21.3394 14.7846 21.3996 14.8444C21.4599 14.9042 21.4937 14.9853 21.4937 15.0699C21.4937 15.1544 21.4599 15.2355 21.3996 15.2953C21.3394 15.3551 21.2577 15.3888 21.1724 15.3888Z" fill="#514AF3"/>
</svg>
