<svg width="25" height="25" viewBox="0 0 25 25" fill="none" xmlns="http://www.w3.org/2000/svg">
<path d="M20.4111 19.6367C20.4275 19.2598 20.4371 18.8321 20.4371 18.3472C20.4371 17.8623 20.4275 17.4345 20.4111 17.0576C20.6091 17.1396 20.7682 17.2129 20.8597 17.2563C20.9619 17.3048 21.0761 17.3985 21.1231 17.5555C21.165 17.6955 21.2075 17.9372 21.2075 18.3472C21.2075 18.7571 21.165 18.9988 21.1231 19.1389C21.0761 19.2958 20.9619 19.3895 20.8597 19.438C20.7682 19.4814 20.6091 19.5546 20.4111 19.6367Z" fill="#E69F69"/>
<path d="M15.2794 20.751C15.9174 20.8987 16.6804 21.1231 17.3914 21.454L17.2079 22.2292C17.1031 22.6719 16.6695 22.9467 16.2401 22.8231L15.4479 22.595C14.9676 22.4567 14.7372 21.896 14.9539 21.4384L15.2794 20.751Z" fill="#E69F69"/>
<path d="M13.5831 19.4691C13.5399 19.2223 13.502 18.8597 13.502 18.3474C13.502 17.8351 13.5399 17.4726 13.5831 17.2257C13.6493 16.8476 13.9501 16.632 14.2571 16.5868C14.38 16.5687 14.5298 16.5447 14.7005 16.5137V20.1812C14.5298 20.1501 14.38 20.1262 14.2571 20.1081C13.9501 20.0629 13.6493 19.8472 13.5831 19.4691Z" fill="#E69F69"/>
<path d="M15.2139 20.2845C16.1962 20.5002 17.5372 20.9028 18.5628 21.6163C18.8033 21.7836 19.0938 21.8402 19.3514 21.7512C19.6195 21.6586 19.8129 21.421 19.8587 21.0912C19.938 20.5181 20.0078 19.6455 20.0078 18.3477C20.0078 17.0499 19.938 16.1772 19.8587 15.6043C19.8129 15.2744 19.6195 15.0368 19.3514 14.9442C19.0938 14.8553 18.8033 14.9117 18.5628 15.0791C17.5372 15.7926 16.1962 16.1952 15.2139 16.4109V20.2845Z" fill="#E69F69"/>
<path fill-rule="evenodd" clip-rule="evenodd" d="M20.8022 5.15828C21.1684 4.51929 20.8525 3.70305 20.1539 3.48251L19.9579 3.42063C18.5686 2.98222 16.9972 3.5997 16.2692 4.87024L16.1665 5.04939C15.8004 5.68838 16.1162 6.50462 16.8147 6.72516L17.0109 6.78695C18.4 7.22545 19.9715 6.60798 20.6995 5.33743L20.8022 5.15828Z" fill="#514AF3"/>
<path d="M19.0606 8.97338C18.1186 7.53206 16.1295 7.21421 14.8169 8.33482C14.5327 8.5774 14.5418 8.94486 14.7042 9.19764C14.725 9.22987 14.7479 9.26522 14.7727 9.30324C15.7147 10.7445 17.7038 11.0623 19.0166 9.94171C19.3006 9.69913 19.2915 9.33168 19.1291 9.0789C19.1084 9.04666 19.0854 9.01132 19.0606 8.97338Z" fill="#514AF3"/>
<path d="M14.8766 1.8563C13.0095 1.76488 11.7043 3.35141 12.0846 5.1836C12.0946 5.23173 12.1041 5.27641 12.1128 5.31703C12.1763 5.61146 12.4145 5.88084 12.773 5.89847C14.6401 5.98981 15.9453 4.40331 15.5649 2.57107C15.555 2.52296 15.5455 2.47832 15.5368 2.43768C15.4733 2.14327 15.235 1.87386 14.8766 1.8563Z" fill="#514AF3"/>
<path d="M15.8838 11.5184C14.911 9.9596 12.7919 9.71892 11.3833 10.9655C11.1077 11.2094 11.089 11.5786 11.2569 11.8528C11.2781 11.8874 11.3015 11.9252 11.3269 11.9659C12.2996 13.5247 14.4187 13.7654 15.8273 12.5188C16.1029 12.2748 16.1217 11.9057 15.9537 11.6315C15.9326 11.5969 15.9091 11.559 15.8838 11.5184Z" fill="#514AF3"/>
<path d="M10.4902 4.19041C10.2411 3.91499 9.87195 3.90039 9.59661 4.04367C9.55742 4.06406 9.51454 4.08653 9.4684 4.11099C7.72533 5.03543 7.32111 7.18063 8.65611 8.65677C8.90524 8.93228 9.27446 8.94689 9.54972 8.8036C9.58891 8.78321 9.63178 8.76074 9.67793 8.73619C11.421 7.81184 11.8252 5.66655 10.4902 4.19041Z" fill="#514AF3"/>
<path d="M7.00301 11.8489C8.387 10.39 8.08897 8.1909 6.32906 7.20278C6.00322 7.01983 5.64531 7.12491 5.42725 7.35133C5.39593 7.38374 5.36176 7.41952 5.32508 7.45823C3.94101 8.91701 4.23904 11.1161 5.99895 12.1044C6.32487 12.2873 6.6827 12.1821 6.90085 11.9557C6.93208 11.9233 6.96633 11.8875 7.00301 11.8489Z" fill="#514AF3"/>
<path d="M13.2979 14.625C12.2096 12.9306 10.018 12.7146 8.65733 14.212C8.40544 14.4892 8.42411 14.8644 8.59226 15.1307C8.61638 15.1689 8.64301 15.2106 8.67182 15.2556C9.76012 16.95 11.9517 17.1661 13.3124 15.6686C13.5643 15.3913 13.5456 15.0161 13.3774 14.7499C13.3533 14.7117 13.3268 14.6699 13.2979 14.625Z" fill="#514AF3"/>
<path fill-rule="evenodd" clip-rule="evenodd" d="M15.1407 6.43526C15.3654 6.7939 15.2592 7.26835 14.9033 7.49486C12.6668 8.91863 10.9176 10.57 9.57187 12.1602C8.13554 13.8577 7.16095 15.483 6.54696 16.6804C6.24022 17.2786 6.02408 17.7688 5.88582 18.1059C5.81715 18.2734 5.7546 18.442 5.69506 18.6118C5.55479 19.0118 5.12788 19.2309 4.7286 19.0968C4.32924 18.9626 4.10958 18.5263 4.2491 18.126C4.31994 17.9227 4.39439 17.7208 4.47712 17.519C4.63029 17.1456 4.86434 16.6156 5.19286 15.975C5.84948 14.6944 6.8862 12.9665 8.41213 11.1633C9.84277 9.47267 11.7054 7.7135 14.0893 6.19596C14.4452 5.96937 14.9159 6.07653 15.1407 6.43526Z" fill="#514AF3"/>
</svg>
