<svg width="25" height="25" viewBox="0 0 25 25" fill="none" xmlns="http://www.w3.org/2000/svg">
<path fill-rule="evenodd" clip-rule="evenodd" d="M19.7462 8.33061C20.0227 7.8503 19.7843 7.2367 19.2566 7.07094L19.1086 7.02445C18.0594 6.69492 16.8727 7.159 16.3229 8.11406L16.2453 8.24883C15.9688 8.72913 16.2073 9.34263 16.7348 9.50839L16.883 9.55488C17.9321 9.88451 19.1189 9.42033 19.6687 8.46526L19.7462 8.33061Z" fill="#E69F69"/>
<path d="M18.4313 11.1991C17.7199 10.1156 16.2177 9.87668 15.2263 10.7191C15.0118 10.9014 15.0187 11.1776 15.1413 11.3676C15.157 11.3918 15.1743 11.4184 15.193 11.447C15.9044 12.5304 17.4066 12.7693 18.398 11.9269C18.6126 11.7446 18.6056 11.4684 18.483 11.2783C18.4673 11.2541 18.45 11.2276 18.4313 11.1991Z" fill="#E69F69"/>
<path d="M15.2718 5.84853C13.8618 5.77984 12.876 6.97239 13.1633 8.34965C13.1709 8.38588 13.178 8.41938 13.1846 8.44996C13.2325 8.67121 13.4125 8.87383 13.6831 8.88702C15.0931 8.95571 16.0789 7.76316 15.7916 6.3858C15.7841 6.34967 15.7769 6.31617 15.7704 6.28559C15.7224 6.06423 15.5425 5.86172 15.2718 5.84853Z" fill="#E69F69"/>
<path d="M16.0326 13.111C15.2979 11.9393 13.6976 11.7584 12.6337 12.6954C12.4257 12.8788 12.4114 13.1563 12.5383 13.3624C12.5543 13.3884 12.572 13.4168 12.5911 13.4474C13.3258 14.6191 14.9261 14.8 15.9899 13.863C16.1981 13.6796 16.2122 13.4021 16.0853 13.196C16.0694 13.17 16.0517 13.1415 16.0326 13.111Z" fill="#E69F69"/>
<path d="M11.9595 7.60342C11.7715 7.39641 11.4927 7.38541 11.2847 7.49305C11.2551 7.50845 11.2227 7.5253 11.188 7.54373C9.87153 8.23859 9.56622 9.85113 10.5745 10.9608C10.7626 11.1678 11.0414 11.1788 11.2493 11.071C11.2789 11.0557 11.3113 11.0389 11.3461 11.0204C12.6625 10.3256 12.9678 8.71304 11.9595 7.60342Z" fill="#E69F69"/>
<path d="M9.32464 13.3595C10.3699 12.2629 10.1448 10.6099 8.81576 9.86707C8.56967 9.72958 8.29933 9.80853 8.1347 9.97879C8.11105 10.0032 8.08516 10.03 8.05753 10.0591C7.01225 11.1556 7.23733 12.8087 8.56641 13.5515C8.81249 13.6891 9.08284 13.61 9.24747 13.4398C9.27112 13.4155 9.29701 13.3886 9.32464 13.3595Z" fill="#E69F69"/>
<path d="M14.0791 15.4464C13.2573 14.1728 11.6021 14.0104 10.5746 15.136C10.3843 15.3444 10.3984 15.6264 10.5254 15.8265C10.5437 15.8552 10.5638 15.8866 10.5855 15.9205C11.4074 17.1942 13.0625 17.3566 14.09 16.2309C14.2804 16.0226 14.2662 15.7405 14.1392 15.5404C14.121 15.5117 14.1008 15.4803 14.0791 15.4464Z" fill="#E69F69"/>
<path fill-rule="evenodd" clip-rule="evenodd" d="M15.471 9.29069C15.6407 9.56032 15.5605 9.91686 15.2917 10.0871C13.6026 11.1574 12.2817 12.3987 11.2654 13.5941C10.1806 14.87 9.44464 16.0917 8.98102 16.9918C8.74931 17.4415 8.58611 17.8099 8.48172 18.0633C8.42984 18.1892 8.38254 18.316 8.33758 18.4435C8.23167 18.7443 7.90934 18.909 7.6077 18.8081C7.30616 18.7073 7.14031 18.3794 7.24561 18.0784C7.29913 17.9256 7.3554 17.7738 7.41789 17.6222C7.53349 17.3416 7.71025 16.9431 7.95837 16.4616C8.4543 15.499 9.2372 14.2002 10.3896 12.8447C11.47 11.5738 12.8766 10.2515 14.677 9.1108C14.9458 8.94044 15.3013 9.02106 15.471 9.29069Z" fill="#E69F69"/>
<path fill-rule="evenodd" clip-rule="evenodd" d="M9.16516 15.8898C9.16516 14.0969 10.56 12.6436 12.2806 12.6436C14.0014 12.6436 15.3961 14.0969 15.3961 15.8898C15.3961 16.522 15.2225 17.1124 14.9223 17.6115C14.9676 17.6509 15.0129 17.69 15.0581 17.729L15.0598 17.7305C15.3096 17.9463 15.5577 18.1605 15.8026 18.3972C16.0967 18.6812 16.1373 19.1229 15.8516 19.4308C15.8254 19.459 15.7974 19.4886 15.7677 19.5196C15.7379 19.5506 15.7095 19.5797 15.6824 19.607C15.387 19.9048 14.9631 19.8625 14.6906 19.556C14.4636 19.3007 14.2579 19.0423 14.0509 18.7819L14.0499 18.7806L14.0496 18.7803C14.0123 18.7334 13.975 18.6864 13.9373 18.6394C13.4574 18.9539 12.8893 19.1359 12.2806 19.1359C10.56 19.1359 9.16516 17.6825 9.16516 15.8898ZM12.2998 17.9783C13.3977 17.9783 14.2876 17.0514 14.2876 15.9081C14.2876 14.7648 13.3977 13.838 12.2998 13.838C11.2019 13.838 10.312 14.7648 10.312 15.9081C10.312 17.0514 11.2019 17.9783 12.2998 17.9783Z" fill="#514AF3"/>
<path d="M20.5086 22.3128C20.1694 22.2834 20.0166 21.9335 20.2306 21.6696C20.3731 21.4938 20.562 21.2742 20.8094 21.0085C20.3662 20.5192 20.0878 20.1621 19.9315 19.9472C19.8225 19.7974 19.807 19.6092 19.9255 19.4667C19.9731 19.4094 20.0347 19.3415 20.1143 19.2627C20.1898 19.1877 20.2548 19.1293 20.3099 19.0836C20.4535 18.9646 20.6423 18.9823 20.7919 19.0939C21.0048 19.2527 21.359 19.5326 21.8477 19.9709C22.1243 19.7132 22.3506 19.5193 22.5301 19.3749C22.7922 19.1641 23.1364 19.3148 23.166 19.6493C23.2258 20.3229 23.2115 21.0828 23.1785 21.7079C23.1609 22.0414 22.8947 22.3067 22.56 22.3243C21.9371 22.357 21.1809 22.3712 20.5086 22.3128Z" fill="#514AF3"/>
<path fill-rule="evenodd" clip-rule="evenodd" d="M4.90549 22.3128C5.24464 22.2834 5.39745 21.9335 5.18348 21.6696C5.04097 21.4938 4.85208 21.2742 4.60467 21.0085C5.0479 20.5192 5.3263 20.1621 5.48257 19.9472C5.59154 19.7974 5.60704 19.6092 5.48858 19.4667C5.44098 19.4094 5.37941 19.3415 5.29979 19.2627C5.22416 19.1877 5.15922 19.1293 5.10417 19.0836C4.96054 18.9646 4.77185 18.9823 4.6222 19.0939C4.40925 19.2527 4.05512 19.5326 3.56642 19.9709C3.28976 19.7132 3.06345 19.5193 2.88394 19.3749C2.62185 19.1641 2.2777 19.3148 2.24804 19.6493C2.1883 20.3229 2.20257 21.0827 2.2356 21.7079C2.25314 22.0414 2.5194 22.3067 2.85407 22.3243C3.47702 22.357 4.2332 22.3712 4.90549 22.3128Z" fill="#514AF3"/>
<path d="M4.90549 2.39359C5.24475 2.42396 5.39755 2.78479 5.18358 3.05693C5.04097 3.23829 4.85198 3.46478 4.60447 3.73871C5.0478 4.24341 5.3263 4.61178 5.48257 4.83335C5.59154 4.9878 5.60704 5.18182 5.48858 5.32884C5.44098 5.38789 5.37941 5.45784 5.29979 5.5392C5.22416 5.61637 5.15922 5.67669 5.10417 5.7237C4.96054 5.84653 4.77185 5.82831 4.6222 5.71323C4.40925 5.54936 4.05501 5.26078 3.56621 4.80885C3.28965 5.07439 3.06345 5.27418 2.88394 5.42308C2.62185 5.64046 2.2777 5.48507 2.24804 5.14015C2.1883 4.4455 2.20257 3.66206 2.2356 3.01746C2.25314 2.67359 2.5194 2.39988 2.85407 2.38187C3.47702 2.34815 4.2332 2.33349 4.90549 2.39359Z" fill="#514AF3"/>
<path d="M20.5086 2.39234C20.1693 2.42176 20.0165 2.7717 20.2305 3.03557C20.3731 3.21149 20.5621 3.43106 20.8096 3.69671C20.3662 4.18613 20.0878 4.5433 19.9315 4.75817C19.8225 4.9079 19.807 5.09607 19.9255 5.23858C19.9731 5.29596 20.0347 5.36381 20.1143 5.44266C20.1898 5.51753 20.2548 5.57595 20.3099 5.62161C20.4535 5.74066 20.6423 5.72297 20.7919 5.61135C21.0048 5.4525 21.359 5.17261 21.8479 4.7344C22.1244 4.99188 22.3506 5.1857 22.5301 5.32999C22.7922 5.54088 23.1363 5.39009 23.166 5.05575C23.2258 4.38215 23.2115 3.62237 23.1785 2.99725C23.1609 2.66385 22.8947 2.39851 22.56 2.38092C21.9371 2.34825 21.1809 2.33412 20.5086 2.39234Z" fill="#514AF3"/>
</svg>
