<svg width="25" height="25" viewBox="0 0 25 25" fill="none" xmlns="http://www.w3.org/2000/svg">
<path d="M22.4038 16.8116L15.5656 9.80534C15.5309 9.76787 15.509 9.71969 15.5033 9.66831L15.1832 6.61729C15.1814 6.58025 15.1697 6.54438 15.1492 6.51377C15.1289 6.48315 15.1006 6.45896 15.0677 6.44376C15.0362 6.4262 15.0011 6.41699 14.9653 6.41699C14.9296 6.41699 14.8945 6.4262 14.863 6.44376C14.2424 6.7965 13.5449 6.98191 12.8357 6.98277C12.1361 6.98052 11.4483 6.79842 10.8348 6.45296C10.8021 6.43455 10.7654 6.42491 10.7281 6.42491C10.6908 6.42491 10.6541 6.43455 10.6214 6.45296C10.5894 6.4717 10.5621 6.49803 10.5421 6.52983C10.5219 6.56162 10.5095 6.59791 10.5058 6.63559L10.1946 9.66831C10.1922 9.69486 10.1846 9.72066 10.1724 9.74421C10.1602 9.76765 10.1436 9.78853 10.1234 9.80534L3.06295 16.8024C2.77457 17.1054 2.61204 17.5115 2.60943 17.9352C2.60598 18.3827 2.76255 18.8158 3.04937 19.1526C3.33619 19.4893 3.73341 19.7062 4.16552 19.7621H5.49057C5.54875 19.7598 5.6041 19.7351 5.64526 19.6927C5.68652 19.6504 5.71064 19.5935 5.71284 19.5337V18.1726C5.71284 17.567 5.94701 16.9861 6.36398 16.5578C6.78083 16.1296 7.34632 15.889 7.93594 15.889H8.82512C9.41474 15.889 9.98023 16.1296 10.3971 16.5578C10.814 16.9861 11.0482 17.567 11.0482 18.1726V19.817C11.0485 19.85 11.0559 19.8828 11.0696 19.9128C11.0834 19.9427 11.1035 19.9693 11.1283 19.9905C11.2772 20.1203 11.3803 20.2969 11.4217 20.4929L11.8396 22.0001C11.8794 22.2112 11.9904 22.4011 12.153 22.5365C12.3157 22.6719 12.5196 22.7439 12.7289 22.74H13.0491C13.2584 22.7439 13.4623 22.6719 13.6249 22.5365C13.7875 22.4011 13.8986 22.2112 13.9382 22.0001L14.3295 20.4929C14.3371 20.3134 14.3993 20.1409 14.5074 19.9996C14.5525 19.9537 14.5781 19.8912 14.5785 19.8261V18.1726C14.5785 17.567 14.8127 16.9861 15.2297 16.5578C15.6465 16.1296 16.212 15.889 16.8016 15.889H17.6908C18.2804 15.889 18.8459 16.1296 19.2628 16.5578C19.6797 16.9861 19.9139 17.567 19.9139 18.1726V19.5337C19.9161 19.5935 19.9402 19.6504 19.9815 19.6927C20.0227 19.7351 20.078 19.7598 20.1363 19.7621H21.2478C21.6799 19.7062 22.0772 19.4893 22.364 19.1526C22.6508 18.8158 22.8074 18.3827 22.8039 17.9352C22.8162 17.5217 22.6729 17.1193 22.4038 16.8116Z" fill="#514AF3"/>
<path d="M12.8342 5.61294C13.5289 5.60791 14.1983 5.34509 14.7193 4.87309C14.7535 4.83969 14.7768 4.79655 14.7864 4.74923C14.7959 4.70181 14.7911 4.65267 14.7727 4.60814C14.3973 3.69733 13.8186 2.88993 13.0831 2.25147C13.0122 2.20704 12.9306 2.18359 12.8475 2.18359C12.7644 2.18359 12.6829 2.20704 12.6118 2.25147C11.8875 2.89785 11.3183 3.7076 10.949 4.61734C10.9278 4.66123 10.9215 4.71123 10.9311 4.75919C10.9409 4.80726 10.9659 4.8505 11.0024 4.88219C11.5103 5.33942 12.159 5.59816 12.8342 5.61294Z" fill="#E69F69"/>
<path d="M8.83316 17.2598H7.94387C7.70803 17.2598 7.48189 17.3561 7.31509 17.5273C7.14838 17.6986 7.05469 17.9309 7.05469 18.1732V20.4478C7.05417 20.5477 7.08498 20.6453 7.14264 20.7259C7.2003 20.8065 7.28166 20.8659 7.37483 20.8953C7.41264 20.9051 7.44701 20.9258 7.47375 20.9549C7.50048 20.984 7.51866 21.0204 7.52597 21.0598L7.96163 23.0238C7.98242 23.126 8.03736 23.2177 8.11695 23.2827C8.19654 23.3477 8.29576 23.3822 8.39739 23.3799C8.49756 23.3801 8.5947 23.3446 8.67241 23.2797C8.75022 23.2149 8.80381 23.1245 8.82428 23.0238L9.25106 21.0598C9.26119 21.0193 9.28125 20.9821 9.30924 20.9518C9.33723 20.9214 9.37233 20.8989 9.41118 20.8862C9.50352 20.8585 9.58457 20.8008 9.64233 20.7218C9.70009 20.6427 9.73122 20.5466 9.73122 20.4478V18.1732C9.73122 18.0525 9.70792 17.933 9.6627 17.8215C9.61747 17.7101 9.55114 17.609 9.46769 17.524C9.38413 17.4391 9.28511 17.372 9.17617 17.3266C9.06723 17.2813 8.95066 17.2585 8.83316 17.2598Z" fill="#E69F69"/>
<path d="M17.7335 17.2598H16.8444C16.6085 17.2598 16.3823 17.3561 16.2156 17.5273C16.0488 17.6986 15.9551 17.9309 15.9551 18.1732V20.4478C15.9551 20.5466 15.9863 20.6427 16.044 20.7218C16.1017 20.8008 16.1829 20.8585 16.2752 20.8862C16.3141 20.8989 16.3491 20.9214 16.3771 20.9518C16.405 20.9821 16.4251 21.0193 16.4352 21.0598L16.8621 23.0238C16.8826 23.1245 16.9362 23.2149 17.0139 23.2797C17.0916 23.3446 17.1887 23.3801 17.2889 23.3799C17.3906 23.3822 17.4899 23.3477 17.5695 23.2827C17.649 23.2177 17.7039 23.126 17.7247 23.0238L18.1604 21.0598C18.1677 21.0204 18.1858 20.984 18.2125 20.9549C18.2394 20.9258 18.2738 20.9051 18.3116 20.8953C18.4046 20.8659 18.486 20.8065 18.5437 20.7259C18.6013 20.6453 18.6321 20.5477 18.6317 20.4478V18.1732C18.6317 18.0525 18.6084 17.933 18.5632 17.8215C18.518 17.7101 18.4516 17.609 18.3681 17.524C18.2846 17.4391 18.1855 17.372 18.0766 17.3266C17.9677 17.2813 17.851 17.2585 17.7335 17.2598Z" fill="#E69F69"/>
</svg>
