<svg width="27" height="25" viewBox="0 0 27 25" fill="none" xmlns="http://www.w3.org/2000/svg">
<path d="M13.8416 10.5312C10.2797 10.5312 7.32855 13.5639 6.39963 17.3666C5.98763 19.0533 6.61649 20.8627 8.16605 21.7204C9.39795 22.4023 11.2408 23.0312 13.8416 23.0312C16.4424 23.0312 18.2852 22.4023 19.5171 21.7204C21.0666 20.8627 21.6955 19.0531 21.2835 17.3666C20.3546 13.5638 17.4034 10.5312 13.8416 10.5312Z" fill="#514AF3"/>
<path d="M5.0918 7.03125C5.77662 7.03125 6.40539 7.2872 6.86255 7.7602C7.3201 8.23355 7.5918 8.90955 7.5918 9.7257C7.5918 10.5368 7.3239 11.3513 6.8867 11.9677C6.45147 12.5813 5.82197 13.0312 5.0918 13.0312C4.36163 13.0312 3.73213 12.5813 3.2969 11.9677C2.85969 11.3513 2.5918 10.5368 2.5918 9.7257C2.5918 8.90955 2.86351 8.23355 3.32105 7.7602C3.77821 7.2872 4.40698 7.03125 5.0918 7.03125Z" fill="#E69F69"/>
<path d="M10.5918 2.53125C11.2766 2.53125 11.9054 2.78719 12.3626 3.26019C12.8201 3.73356 13.0918 4.40955 13.0918 5.2257C13.0918 6.0368 12.8239 6.85125 12.3867 7.46765C11.9514 8.08125 11.3219 8.53125 10.5918 8.53125C9.86165 8.53125 9.23215 8.08125 8.7969 7.46765C8.3597 6.85125 8.0918 6.0368 8.0918 5.2257C8.0918 4.40955 8.3635 3.73356 8.82105 3.26019C9.2782 2.78719 9.907 2.53125 10.5918 2.53125Z" fill="#E69F69"/>
<path d="M17.0918 2.53125C16.407 2.53125 15.7782 2.78719 15.321 3.26019C14.8635 3.73356 14.5918 4.40955 14.5918 5.2257C14.5918 6.0368 14.8597 6.85125 15.2969 7.46765C15.7322 8.08125 16.3617 8.53125 17.0918 8.53125C17.8219 8.53125 18.4515 8.08125 18.8867 7.46765C19.3239 6.85125 19.5918 6.0368 19.5918 5.2257C19.5918 4.40955 19.3201 3.73356 18.8626 3.26019C18.4054 2.78719 17.7766 2.53125 17.0918 2.53125Z" fill="#E69F69"/>
<path d="M22.5918 7.03125C21.907 7.03125 21.2782 7.2872 20.821 7.7602C20.3635 8.23355 20.0918 8.90955 20.0918 9.7257C20.0918 10.5368 20.3597 11.3513 20.7969 11.9677C21.2321 12.5813 21.8617 13.0312 22.5918 13.0312C23.3219 13.0312 23.9515 12.5813 24.3867 11.9677C24.8239 11.3513 25.0918 10.5368 25.0918 9.7257C25.0918 8.90955 24.8201 8.23355 24.3626 7.7602C23.9054 7.2872 23.2766 7.03125 22.5918 7.03125Z" fill="#E69F69"/>
</svg>
