<svg width="25" height="25" viewBox="0 0 25 25" fill="none" xmlns="http://www.w3.org/2000/svg">
<path d="M12.9148 17.5227H15.6233C15.6952 17.5227 15.7641 17.5524 15.8147 17.6052C15.8655 17.6581 15.8941 17.7297 15.8941 17.8044V20.6206C15.8941 20.77 15.9512 20.9132 16.0528 21.0189C16.1544 21.1245 16.2921 21.1838 16.4358 21.1838H19.1444C19.2881 21.1838 19.4259 21.1245 19.5275 21.0189C19.629 20.9132 19.6861 20.77 19.6861 20.6206V17.8044C19.6861 17.7297 19.7146 17.6581 19.7655 17.6052C19.8163 17.5524 19.8852 17.5227 19.957 17.5227H22.6656C22.8093 17.5227 22.9469 17.4634 23.0486 17.3578C23.1502 17.2521 23.2073 17.1089 23.2073 16.9595V14.1433C23.2073 13.9939 23.1502 13.8507 23.0486 13.745C22.9469 13.6394 22.8093 13.58 22.6656 13.58H19.957C19.8852 13.58 19.8163 13.5504 19.7655 13.4976C19.7146 13.4447 19.6861 13.3731 19.6861 13.2984V10.4822C19.6861 10.3328 19.629 10.1896 19.5275 10.0839C19.4259 9.97833 19.2881 9.91895 19.1444 9.91895H16.4358C16.2921 9.91895 16.1544 9.97833 16.0528 10.0839C15.9512 10.1896 15.8941 10.3328 15.8941 10.4822V13.2984C15.8941 13.3731 15.8655 13.4447 15.8147 13.4976C15.7641 13.5504 15.6952 13.58 15.6233 13.58H12.9148C12.7711 13.58 12.6333 13.6394 12.5316 13.745C12.43 13.8507 12.373 13.9939 12.373 14.1433V16.9595C12.373 17.1089 12.43 17.2521 12.5316 17.3578C12.6333 17.4634 12.7711 17.5227 12.9148 17.5227Z" fill="#514AF3"/>
<path d="M9.4767 9.754C9.34787 9.66152 9.19009 9.62355 9.03538 9.64775C8.88054 9.67195 8.74045 9.7565 8.64326 9.88431L6.77636 12.3494L5.81784 11.3425C5.70067 11.2207 5.54181 11.1521 5.37611 11.1521C5.21055 11.1521 5.05169 11.2207 4.93439 11.3425C4.8754 11.4023 4.82862 11.4739 4.79658 11.5529C4.76454 11.6319 4.74805 11.7167 4.74805 11.8025C4.74805 11.8883 4.76454 11.9732 4.79658 12.0522C4.82862 12.1312 4.8754 12.2028 4.93439 12.2626L5.89291 13.2695C6.01933 13.407 6.17296 13.5141 6.34308 13.5835C6.51333 13.6529 6.69592 13.6829 6.87837 13.6714C7.06083 13.6597 7.23873 13.607 7.39946 13.5166C7.56033 13.4262 7.70042 13.3004 7.80982 13.1479L9.56009 10.6567C9.66171 10.5246 9.7097 10.3563 9.69415 10.1878C9.6786 10.0192 9.60071 9.86373 9.4767 9.754Z" fill="#E69F69"/>
<path d="M9.4767 15.7338C9.34787 15.6411 9.19009 15.603 9.03538 15.6272C8.88054 15.6514 8.74045 15.7361 8.64326 15.8642L6.77636 18.334L5.81784 17.3252C5.70067 17.2031 5.54181 17.1345 5.37611 17.1345C5.21055 17.1345 5.05169 17.2031 4.93439 17.3252C4.8754 17.3851 4.82862 17.4569 4.79658 17.536C4.76454 17.6151 4.74805 17.7001 4.74805 17.7861C4.74805 17.872 4.76454 17.957 4.79658 18.0362C4.82862 18.1154 4.8754 18.187 4.93439 18.2469L5.89291 19.2558C6.0204 19.3926 6.1751 19.4987 6.34589 19.5667C6.51682 19.6349 6.69981 19.6633 6.88226 19.65C7.06472 19.6368 7.24235 19.5822 7.40241 19.4901C7.56261 19.398 7.70163 19.2705 7.80982 19.1166L9.56009 16.6381C9.66171 16.5057 9.7097 16.3372 9.69415 16.1684C9.6786 15.9995 9.60071 15.8436 9.4767 15.7338Z" fill="#E69F69"/>
<path d="M19.0574 7.91279C19.0555 7.44954 18.8767 7.00604 18.5603 6.67936L14.4404 2.36713C14.2587 2.18453 14.0412 2.04476 13.8027 1.95714C13.5644 1.86967 13.3106 1.83643 13.0587 1.85979H4.10276C3.5999 1.85979 3.11783 2.06715 2.7623 2.43625C2.40678 2.80535 2.20703 3.30601 2.20703 3.82795V20.8845C2.20703 21.4065 2.40678 21.907 2.7623 22.2761C3.11783 22.6452 3.5999 22.8525 4.10276 22.8525H11.264C11.4318 22.8525 11.5924 22.7834 11.7109 22.6603C11.8294 22.5374 11.896 22.3705 11.896 22.1965C11.896 22.0226 11.8294 21.8557 11.7109 21.7326C11.5924 21.6096 11.4318 21.5405 11.264 21.5405H4.10276C3.93518 21.5405 3.77445 21.4714 3.65594 21.3483C3.53743 21.2254 3.4708 21.0585 3.4708 20.8845V3.82795C3.46973 3.74145 3.48528 3.65564 3.51665 3.57553C3.54802 3.49529 3.59454 3.42255 3.65339 3.36136C3.71224 3.30031 3.78236 3.25191 3.85957 3.21937C3.93679 3.18682 4.01937 3.17069 4.10276 3.17194H12.5278V6.88936C12.5278 7.3533 12.7054 7.79834 13.0214 8.12641C13.3374 8.45448 13.766 8.63875 14.2129 8.63875H18.4255C18.5924 8.63653 18.7519 8.56657 18.8699 8.44405C18.988 8.32153 19.0551 8.15603 19.0574 7.98275C19.0613 7.9655 19.0613 7.94742 19.0574 7.93018C19.0582 7.92448 19.0582 7.9185 19.0574 7.91279ZM13.7916 6.88936V3.53924L17.4228 7.31798H14.2129C14.1026 7.31798 13.9967 7.27306 13.918 7.19295C13.8392 7.11285 13.7939 7.00381 13.7916 6.88936Z" fill="#514AF3"/>
</svg>
