<svg width="25" height="25" viewBox="0 0 25 25" fill="none" xmlns="http://www.w3.org/2000/svg">
<path d="M7.04416 6.01927H10.4739C10.6807 6.01927 10.8789 5.93146 11.0251 5.77515C11.1712 5.61883 11.2534 5.40694 11.2534 5.18585C11.2534 4.96487 11.1712 4.75288 11.0251 4.59666C10.8789 4.44035 10.6807 4.35254 10.4739 4.35254H7.04416C6.83747 4.35254 6.6392 4.44035 6.49304 4.59666C6.34678 4.75288 6.26465 4.96487 6.26465 5.18585C6.26465 5.40694 6.34678 5.61883 6.49304 5.77515C6.6392 5.93146 6.83747 6.01927 7.04416 6.01927Z" fill="#E69F69"/>
<path d="M14.6148 15.3529H13.7479C13.5826 15.3529 13.424 15.2827 13.3071 15.1577C13.1901 15.0326 13.1244 14.863 13.1244 14.6862V12.3529C13.1244 12.2645 13.0916 12.1797 13.033 12.1171C12.9746 12.0547 12.8953 12.0195 12.8126 12.0195H10.6301C10.5474 12.0195 10.468 12.0547 10.4096 12.1171C10.3511 12.1797 10.3182 12.2645 10.3182 12.3529V12.6862C10.3182 12.7746 10.3511 12.8594 10.4096 12.922C10.468 12.9844 10.5474 13.0196 10.6301 13.0196H11.2537C11.4191 13.0196 11.5776 13.0898 11.6945 13.2148C11.8115 13.3399 11.8773 13.5094 11.8773 13.6863V14.6862C11.8773 14.863 11.8115 15.0326 11.6945 15.1577C11.5776 15.2827 11.4191 15.3529 11.2537 15.3529H7.82388C7.65848 15.3529 7.49991 15.2827 7.38292 15.1577C7.26603 15.0326 7.20029 14.863 7.20029 14.6862V12.3529C7.20029 12.2645 7.16751 12.1797 7.10897 12.1171C7.05052 12.0547 6.97124 12.0195 6.88854 12.0195H4.70593C4.62323 12.0195 4.54394 12.0547 4.48549 12.1171C4.42705 12.1797 4.39418 12.2645 4.39418 12.3529V12.6862C4.39418 12.7746 4.42705 12.8594 4.48549 12.922C4.54394 12.9844 4.62323 13.0196 4.70593 13.0196H5.32952C5.49491 13.0196 5.65358 13.0898 5.77047 13.2148C5.88746 13.3399 5.95311 13.5094 5.95311 13.6863V14.6862C5.95311 14.863 5.88746 15.0326 5.77047 15.1577C5.65358 15.2827 5.49491 15.3529 5.32952 15.3529H2.90383C2.85164 15.353 2.80029 15.3671 2.75454 15.3939C2.70879 15.4207 2.67004 15.4593 2.64191 15.5063C2.61728 15.5555 2.60449 15.6105 2.60449 15.6662C2.60449 15.7221 2.61728 15.777 2.64191 15.8263C2.74924 16.0753 2.87655 16.3139 3.02224 16.5397C3.05019 16.5848 3.08817 16.6218 3.13279 16.6475C3.1774 16.673 3.22733 16.6864 3.27791 16.6863H14.2594C14.31 16.6864 14.3599 16.673 14.4045 16.6475C14.4491 16.6218 14.4871 16.5848 14.515 16.5397C14.6607 16.3139 14.788 16.0753 14.8954 15.8263C14.9199 15.777 14.9328 15.7221 14.9328 15.6662C14.9328 15.6105 14.9199 15.5555 14.8954 15.5063C14.8655 15.4564 14.8239 15.4158 14.7745 15.3889C14.7252 15.362 14.6701 15.3496 14.6148 15.3529Z" fill="#E69F69"/>
<path d="M13.4363 19.0193H12.9125C12.8463 19.0204 12.7817 18.9982 12.7288 18.9559C12.6757 18.9138 12.6373 18.854 12.6194 18.786C12.5975 18.7167 12.5979 18.6418 12.6205 18.573C12.6431 18.504 12.6866 18.4452 12.7441 18.4059C12.9451 18.2616 13.1388 18.1058 13.3241 17.9392C13.3723 17.8951 13.4068 17.8363 13.423 17.7707C13.4392 17.7051 13.4361 17.6358 13.4144 17.572C13.3927 17.5081 13.3533 17.453 13.3016 17.4138C13.2498 17.3746 13.1879 17.3532 13.1245 17.3525H4.3943C4.33083 17.3532 4.26907 17.3746 4.21725 17.4138C4.16543 17.453 4.12603 17.5081 4.10434 17.572C4.08264 17.6358 4.07971 17.7051 4.09581 17.7707C4.11201 17.8363 4.14649 17.8951 4.19471 17.9392C4.37886 18.1074 4.57257 18.2633 4.77463 18.4059C4.83222 18.4452 4.8757 18.504 4.89834 18.573C4.92088 18.6418 4.92126 18.7167 4.89938 18.786C4.88148 18.854 4.84302 18.9138 4.78997 18.9559C4.73702 18.9982 4.67242 19.0204 4.6063 19.0193H4.08245C3.91706 19.0193 3.75849 19.0895 3.6415 19.2145C3.5246 19.3396 3.45886 19.5091 3.45886 19.686C3.45886 19.8628 3.5246 20.0323 3.6415 20.1573C3.75849 20.2823 3.91706 20.3527 4.08245 20.3527H13.4363C13.6017 20.3527 13.7603 20.2823 13.8773 20.1573C13.9942 20.0323 14.0599 19.8628 14.0599 19.686C14.0599 19.5091 13.9942 19.3396 13.8773 19.2145C13.7603 19.0895 13.6017 19.0193 13.4363 19.0193Z" fill="#514AF3"/>
<path d="M12.164 8.97219C11.1725 8.45888 10.2933 8.01893 10.2933 7.35224V7.01889C10.2933 6.93048 10.2604 6.8457 10.202 6.78316C10.1434 6.72061 10.0641 6.68555 9.98143 6.68555H7.51207C7.42938 6.68555 7.35 6.72061 7.29155 6.78316C7.2331 6.8457 7.20023 6.93048 7.20023 7.01889V7.35224C7.20023 8.01893 6.34589 8.45888 5.32946 8.97219C3.95137 9.68556 2.21151 10.5989 2.21151 12.6857V14.019C2.20554 14.1433 2.20554 14.2679 2.21151 14.3923C2.2207 14.4737 2.25754 14.5484 2.31514 14.6026C2.37264 14.6567 2.44672 14.6863 2.52335 14.6857H5.01771C5.10041 14.6857 5.1797 14.6506 5.23814 14.588C5.29659 14.5255 5.32946 14.4407 5.32946 14.3523V14.019C5.32946 13.9305 5.29659 13.8458 5.23814 13.7833C5.1797 13.7208 5.10041 13.6856 5.01771 13.6856H4.39412C4.22873 13.6856 4.07006 13.6154 3.95316 13.4904C3.83618 13.3654 3.77053 13.1958 3.77053 13.019V12.019C3.77053 11.8422 3.83618 11.6726 3.95316 11.5475C4.07006 11.4225 4.22873 11.3523 4.39412 11.3523H7.20023C7.36563 11.3523 7.5242 11.4225 7.64119 11.5475C7.75808 11.6726 7.82382 11.8422 7.82382 12.019V14.3523C7.82382 14.4407 7.85669 14.5255 7.91514 14.588C7.97359 14.6506 8.05297 14.6857 8.13566 14.6857H10.9418C11.0245 14.6857 11.1038 14.6506 11.1622 14.588C11.2207 14.5255 11.2535 14.4407 11.2535 14.3523V14.019C11.2535 13.9305 11.2207 13.8458 11.1622 13.7833C11.1038 13.7208 11.0245 13.6856 10.9418 13.6856H10.3182C10.1528 13.6856 9.99422 13.6154 9.87723 13.4904C9.76034 13.3654 9.69459 13.1958 9.69459 13.019V12.019C9.69459 11.8422 9.76034 11.6726 9.87723 11.5475C9.99422 11.4225 10.1528 11.3523 10.3182 11.3523H13.1243C13.2897 11.3523 13.4484 11.4225 13.5653 11.5475C13.6822 11.6726 13.7479 11.8422 13.7479 12.019V14.3523C13.7479 14.4407 13.7808 14.5255 13.8392 14.588C13.8977 14.6506 13.977 14.6857 14.0597 14.6857H14.9951C15.0717 14.6863 15.1458 14.6567 15.2033 14.6026C15.2609 14.5484 15.2977 14.4737 15.3069 14.3923C15.3129 14.2679 15.3129 14.1433 15.3069 14.019V12.6857C15.3069 10.5989 13.5671 9.68556 12.164 8.97219Z" fill="#514AF3"/>
<path d="M19.0053 15.1938C18.9887 15.2109 18.9757 15.2315 18.9668 15.2543C18.9579 15.277 18.9536 15.3016 18.9539 15.3262C18.9536 15.3742 18.9708 15.4204 19.0019 15.455L20.1201 16.6509C20.2675 16.8618 20.4554 17.0362 20.6712 17.1624C20.8869 17.2885 21.1253 17.3635 21.3705 17.3822C21.6155 17.4009 21.8615 17.3629 22.0917 17.2708C22.3219 17.1785 22.531 17.0344 22.7047 16.848C22.8784 16.6616 23.0128 16.4373 23.0987 16.1904C23.1846 15.9434 23.2201 15.6795 23.2027 15.4166C23.1852 15.1537 23.1153 14.8978 22.9978 14.6663C22.8801 14.4349 22.7176 14.2332 22.521 14.0751L21.4166 12.894C21.4009 12.8768 21.3822 12.8632 21.3617 12.8539C21.341 12.8446 21.3188 12.8398 21.2965 12.8398C21.2741 12.8398 21.2521 12.8446 21.2314 12.8539C21.2108 12.8632 21.1921 12.8768 21.1765 12.894L19.0053 15.1938Z" fill="#514AF3"/>
<path d="M16.1048 9.79766C15.1848 10.808 14.5031 12.3601 15.1385 13.4582C15.2042 13.5754 15.291 13.6766 15.3935 13.7552C15.4959 13.8339 15.6119 13.8886 15.7341 13.9158L17.8686 14.3953C17.9013 14.4027 17.9313 14.4205 17.9547 14.4466L18.3552 14.9078C18.3705 14.925 18.3889 14.9386 18.409 14.9479C18.4291 14.9572 18.4508 14.9619 18.4726 14.9619C18.4945 14.9619 18.5161 14.9572 18.5363 14.9479C18.5565 14.9386 18.5747 14.925 18.5901 14.9078L20.7015 12.6016C20.717 12.5847 20.7293 12.5644 20.7377 12.5421C20.7461 12.5198 20.7504 12.4959 20.7504 12.4717C20.7504 12.4476 20.7461 12.4236 20.7377 12.4013C20.7293 12.379 20.717 12.3587 20.7015 12.3418L20.2713 11.8658C20.2477 11.8399 20.2316 11.8068 20.225 11.7707L19.808 9.43158C19.7839 9.29749 19.7353 9.17027 19.6654 9.05761C19.5954 8.94494 19.5054 8.84925 19.4009 8.7764C18.3684 8.05525 16.9752 8.83854 16.1048 9.79766ZM19.1362 9.22656C19.1835 9.2597 19.2243 9.30305 19.2561 9.35397C19.2879 9.4049 19.3102 9.46249 19.3215 9.52312L19.7252 11.789C19.7307 11.8186 19.7293 11.8492 19.7211 11.878C19.7131 11.9068 19.6985 11.9328 19.6789 11.9538L18.0242 13.784C18.0051 13.8079 17.9808 13.8259 17.9535 13.8362C17.9262 13.8464 17.897 13.8486 17.8686 13.8426L15.8268 13.396C15.7706 13.3837 15.7172 13.359 15.67 13.3231C15.6227 13.2871 15.5827 13.241 15.5522 13.1873C15.4305 12.9675 15.3707 12.7127 15.3801 12.4552C15.3799 12.4228 15.3877 12.3909 15.403 12.3631C15.4181 12.3353 15.44 12.3127 15.4661 12.2978C15.4913 12.2817 15.5198 12.2733 15.5489 12.2733C15.5778 12.2733 15.6064 12.2817 15.6316 12.2978L16.3993 12.803C16.4552 12.8362 16.5203 12.8449 16.5817 12.8272C16.6431 12.8095 16.6961 12.7669 16.7303 12.7078C16.7524 12.6642 16.7638 12.615 16.7634 12.5651C16.7634 12.518 16.7524 12.4717 16.7314 12.4307C16.7106 12.3897 16.6806 12.3552 16.6442 12.3307L15.6779 11.6975C15.6431 11.6739 15.6175 11.6369 15.6059 11.5936C15.5943 11.5504 15.5975 11.504 15.615 11.4632C15.6556 11.3643 15.7009 11.2678 15.7507 11.174C15.7629 11.1515 15.7794 11.132 15.799 11.1169C15.8186 11.1018 15.8409 11.0915 15.8644 11.0867C15.8878 11.0818 15.9119 11.0825 15.9352 11.0888C15.9584 11.095 15.9801 11.1066 15.9989 11.1228L16.9685 12.0013C16.9937 12.0254 17.023 12.0437 17.0546 12.0552C17.0862 12.0667 17.1195 12.0713 17.1527 12.0685C17.1859 12.0658 17.2183 12.0559 17.248 12.0393C17.2777 12.0228 17.3043 11.9999 17.3259 11.972C17.3476 11.9442 17.3642 11.9118 17.3746 11.8769C17.3851 11.8419 17.3892 11.805 17.3868 11.7683C17.3843 11.7316 17.3753 11.6958 17.3603 11.6629C17.3454 11.63 17.3247 11.6007 17.2995 11.5767L16.3067 10.6652C16.2833 10.6533 16.2627 10.6355 16.2466 10.6133C16.2305 10.5911 16.2193 10.565 16.214 10.5371C16.2119 10.5124 16.2147 10.4876 16.2221 10.4641C16.2296 10.4408 16.2415 10.4195 16.257 10.4016C16.3166 10.3284 16.3762 10.2552 16.4423 10.1857C16.5085 10.1162 16.5482 10.0722 16.6045 10.0173C16.6205 9.99985 16.6397 9.98661 16.661 9.97833C16.6821 9.97014 16.7046 9.96711 16.727 9.96974C16.7717 9.97479 16.813 9.99833 16.8427 10.0356L17.6668 11.1338C17.687 11.1619 17.7121 11.1853 17.7407 11.2026C17.7693 11.2199 17.8005 11.2308 17.8329 11.2345C17.8652 11.2383 17.898 11.2348 17.9291 11.2244C17.9602 11.2141 17.9892 11.1969 18.0143 11.174C18.043 11.1484 18.0662 11.1162 18.0822 11.0794C18.0984 11.0427 18.1068 11.0025 18.107 10.9617C18.1071 10.8988 18.0872 10.8379 18.0507 10.7897L17.2531 9.70975C17.2383 9.68944 17.2274 9.666 17.2212 9.64074C17.2149 9.61558 17.2134 9.58921 17.2167 9.56334C17.2217 9.53727 17.2312 9.51251 17.2449 9.49048C17.2585 9.46856 17.2759 9.44976 17.2962 9.43521C17.3855 9.38035 17.4715 9.32912 17.5609 9.28152C17.5981 9.26253 17.6404 9.2595 17.6796 9.27304C17.7187 9.28658 17.7518 9.31568 17.7727 9.35468L18.3485 10.4273C18.3768 10.4783 18.4192 10.5178 18.4696 10.5396C18.5199 10.5616 18.5753 10.5646 18.6274 10.5484C18.6795 10.5324 18.7254 10.4978 18.758 10.4501C18.7907 10.4025 18.8084 10.3443 18.8085 10.2845C18.8086 10.2358 18.7972 10.1878 18.7755 10.1455L18.3221 9.30345C18.3075 9.27566 18.2999 9.24414 18.2999 9.21201C18.2999 9.17987 18.3075 9.14825 18.3221 9.12046C18.3368 9.09277 18.3575 9.06963 18.3823 9.05306C18.4072 9.03639 18.4354 9.02689 18.4644 9.02527C18.7015 9.01669 18.9355 9.08681 19.1362 9.22656Z" fill="#E69F69"/>
</svg>
