<svg width="25" height="25" viewBox="0 0 25 25" fill="none" xmlns="http://www.w3.org/2000/svg">
<path d="M8.2435 17.0953C8.48156 17.0953 8.67462 16.8895 8.67462 16.6355C8.67462 16.3817 8.48156 16.1758 8.2435 16.1758C8.00534 16.1758 7.81238 16.3817 7.81238 16.6355C7.81238 16.8895 8.00534 17.0953 8.2435 17.0953Z" fill="#514AF3"/>
<path d="M6.51804 17.0953C6.7562 17.0953 6.94916 16.8895 6.94916 16.6355C6.94916 16.3817 6.7562 16.1758 6.51804 16.1758C6.27998 16.1758 6.08691 16.3817 6.08691 16.6355C6.08691 16.8895 6.27998 17.0953 6.51804 17.0953Z" fill="#514AF3"/>
<path d="M7.78599 18.2445C7.85116 18.2221 7.91441 18.1939 7.97519 18.1601C8.02887 18.1282 8.07129 18.0782 8.09599 18.018C8.12058 17.9579 8.12605 17.8908 8.11155 17.827C8.09663 17.7633 8.06205 17.707 8.0133 17.6669C7.96466 17.6268 7.90464 17.6057 7.84322 17.6065H6.96326C6.90216 17.6073 6.84289 17.6291 6.79457 17.6689C6.74614 17.7087 6.71113 17.7641 6.69492 17.827C6.67989 17.8901 6.68515 17.9568 6.70984 18.0163C6.73465 18.0758 6.77739 18.1249 6.83129 18.1554C6.89024 18.1931 6.95391 18.2215 7.02049 18.2398C7.26456 18.3168 7.52431 18.3168 7.76837 18.2398L7.78599 18.2445Z" fill="#514AF3"/>
<path d="M12.0485 20.6662C11.1676 19.9974 10.1465 19.5689 9.07459 19.4182C9.05333 19.4142 9.03357 19.4036 9.01801 19.3878C9.00233 19.3719 8.99138 19.3515 8.98654 19.329C8.98225 19.3064 8.98418 19.2829 8.99191 19.2612C8.99975 19.2396 9.01317 19.2208 9.03057 19.2071C9.31523 19.0112 9.56531 18.7634 9.76965 18.4751C9.78382 18.4557 9.80315 18.4412 9.82506 18.4337C9.84707 18.4261 9.87069 18.4259 9.89281 18.433C9.91407 18.4417 9.93222 18.4572 9.94478 18.4773C9.95745 18.4975 9.96379 18.5213 9.96325 18.5456V18.6066C9.96325 18.731 10.0095 18.8503 10.0921 18.9383C10.1746 19.0263 10.2865 19.0757 10.4032 19.0757C10.5199 19.0757 10.6318 19.0263 10.7143 18.9383C10.7967 18.8503 10.8431 18.731 10.8431 18.6066V17.4572C10.844 17.4338 10.8511 17.4113 10.8635 17.3922C10.876 17.3731 10.8934 17.3581 10.9135 17.3492C10.9981 17.3236 11.0762 17.2784 11.1425 17.2168C11.2086 17.1551 11.2611 17.0786 11.2962 16.9926C11.3355 16.9095 11.3579 16.8184 11.3616 16.7254C11.3655 16.6323 11.3507 16.5396 11.3183 16.4531C11.1599 15.9839 11.2347 16.2044 10.9795 15.4867C10.919 15.3145 10.8208 15.1603 10.693 15.0371C10.5651 14.9138 10.4114 14.825 10.2448 14.7782C9.30868 14.5483 8.35001 14.4395 7.38951 14.4545C6.43052 14.4401 5.47336 14.5487 4.53874 14.7782C4.37048 14.8237 4.215 14.9118 4.0855 15.0352C3.95611 15.1586 3.85646 15.3134 3.79526 15.4867L3.45648 16.4531C3.42169 16.5382 3.40376 16.6301 3.40376 16.7228C3.40376 16.8157 3.42169 16.9075 3.45648 16.9926C3.4931 17.0776 3.54603 17.1531 3.61207 17.2146C3.678 17.2761 3.75542 17.3219 3.83917 17.3492C3.85968 17.3576 3.8774 17.3724 3.88996 17.3917C3.90242 17.4109 3.90929 17.4337 3.90961 17.4572V18.6066C3.90961 18.731 3.956 18.8503 4.03847 18.9383C4.12093 19.0263 4.23282 19.0757 4.34954 19.0757C4.46626 19.0757 4.57815 19.0263 4.66061 18.9383C4.74319 18.8503 4.78947 18.731 4.78947 18.6066V18.5643C4.79 18.5404 4.79698 18.5171 4.80944 18.4971C4.82189 18.4772 4.8394 18.4615 4.85991 18.4518C4.88203 18.4447 4.90565 18.4449 4.92766 18.4525C4.94957 18.46 4.9689 18.4745 4.98307 18.4939C5.18848 18.7811 5.43846 19.0287 5.72215 19.2259C5.73965 19.2396 5.75297 19.2584 5.76081 19.28C5.76854 19.3017 5.77047 19.3251 5.76618 19.3478C5.76134 19.3703 5.75039 19.3906 5.73471 19.4066C5.71914 19.4224 5.69939 19.4329 5.67823 19.437C4.60617 19.5877 3.58512 20.0162 2.70419 20.6849C2.55043 20.8122 2.42576 20.975 2.33964 21.1611C2.25353 21.3473 2.20821 21.5518 2.20703 21.7593V22.3833C2.20703 22.5077 2.25342 22.627 2.33588 22.7151C2.41835 22.803 2.53035 22.8525 2.64696 22.8525C2.76368 22.8525 2.87557 22.803 2.95803 22.7151C3.04061 22.627 3.08689 22.5077 3.08689 22.3833V21.7593C3.08656 21.6951 3.09945 21.6317 3.12447 21.5733C3.14959 21.515 3.18632 21.4631 3.23206 21.4215C3.37208 21.3065 3.51897 21.2014 3.67209 21.1071C3.6868 21.0981 3.70345 21.0934 3.72041 21.0934C3.73738 21.0934 3.75413 21.0981 3.76884 21.1071C3.78205 21.1164 3.793 21.1289 3.80063 21.1435C3.80836 21.1583 3.81254 21.1748 3.81287 21.1916V22.5194C3.81287 22.5803 3.83552 22.6388 3.876 22.6819C3.91638 22.725 3.97125 22.7492 4.02837 22.7492H10.7199C10.7771 22.7492 10.8319 22.725 10.8723 22.6819C10.9128 22.6388 10.9355 22.5803 10.9355 22.5194V21.1963C10.9343 21.1762 10.9387 21.1561 10.948 21.1386C10.9575 21.1211 10.9714 21.1069 10.9883 21.0977C11.0037 21.0863 11.0222 21.0801 11.0411 21.0801C11.06 21.0801 11.0784 21.0863 11.0938 21.0977C11.2473 21.1861 11.3944 21.2865 11.5339 21.3981C11.5858 21.4402 11.6276 21.4951 11.656 21.5578C11.6842 21.6206 11.6982 21.6896 11.6967 21.7593V22.3833C11.6967 22.5077 11.7429 22.627 11.8255 22.7151C11.908 22.803 12.0199 22.8525 12.1366 22.8525C12.2532 22.8525 12.3651 22.803 12.4477 22.7151C12.5301 22.627 12.5765 22.5077 12.5765 22.3833V21.7593C12.5755 21.5456 12.5271 21.3352 12.4354 21.1453C12.3437 20.9553 12.2111 20.7911 12.0485 20.6662ZM9.10971 20.3565C9.1256 20.3586 9.14074 20.3648 9.15373 20.3746C9.16683 20.3845 9.17735 20.3976 9.18455 20.4129C9.19099 20.4283 9.19432 20.4452 9.19432 20.4621C9.19432 20.4791 9.19099 20.4958 9.18455 20.5113C9.06493 20.8252 8.86059 21.0941 8.59741 21.2837C8.33412 21.4733 8.02401 21.5751 7.70628 21.5764V20.3237C7.70649 20.3077 7.70971 20.2922 7.71583 20.2776C7.72185 20.2631 7.73055 20.25 7.7415 20.2393C7.75191 20.2285 7.76437 20.2205 7.77811 20.2156C7.79186 20.2108 7.80635 20.2092 7.82074 20.2111C8.25315 20.2264 8.68395 20.275 9.10971 20.3565ZM7.05525 21.5623C6.73805 21.5614 6.42827 21.4596 6.16573 21.2699C5.90319 21.0801 5.69971 20.8111 5.58138 20.4973C5.57365 20.4821 5.56967 20.4652 5.56967 20.448C5.56967 20.4308 5.57365 20.4139 5.58138 20.3988C5.59319 20.3798 5.61005 20.3651 5.62981 20.3565C6.06576 20.2734 6.50687 20.2248 6.94959 20.2111C6.97847 20.209 7.00693 20.2191 7.02883 20.2393C7.04784 20.2627 7.05868 20.2926 7.05965 20.3237L7.05525 21.5623ZM5.22499 16.5234V16.2608C5.22499 16.2353 5.23272 16.2107 5.247 16.1903C5.26129 16.1701 5.28136 16.1553 5.30424 16.1481L5.53735 16.0825H9.21977L9.45289 16.1481C9.47576 16.1553 9.49584 16.1701 9.51012 16.1903C9.5244 16.2107 9.53213 16.2353 9.53213 16.2608V16.5422C9.507 17.1333 9.26916 17.6914 8.86811 18.1002C8.46694 18.5091 7.93349 18.7372 7.37856 18.7372C6.82363 18.7372 6.29018 18.5091 5.88902 18.1002C5.48796 17.6914 5.25012 17.1333 5.22499 16.5422V16.5234Z" fill="#E69F69"/>
<path d="M10.3498 14.3458C10.3701 14.3535 10.392 14.355 10.4131 14.35C10.434 14.345 10.4533 14.3338 10.4687 14.3177C10.4779 14.3006 10.4827 14.2811 10.4827 14.2614C10.4827 14.2416 10.4779 14.2222 10.4687 14.2051C10.3763 13.8347 10.2277 13.4828 10.0286 13.1635C10.0223 13.1481 10.019 13.1312 10.019 13.1143C10.019 13.0973 10.0223 13.0805 10.0286 13.0651C10.076 12.9138 10.0997 12.7553 10.0991 12.5959C10.0727 11.5684 9.14879 11.5684 8.66924 11.5684C8.37073 11.5502 8.07179 11.5949 7.78938 11.6998H7.73215C7.48851 11.6622 7.24111 11.6622 6.99747 11.6998L6.94905 11.7138C6.66761 11.6041 6.36856 11.5547 6.06919 11.5684C5.62927 11.5684 4.68337 11.5684 4.68337 12.6147C4.68176 12.7742 4.70549 12.9328 4.75381 13.0838C4.76144 13.1101 4.75993 13.1385 4.74941 13.1635C4.53648 13.4799 4.37434 13.8319 4.26986 14.2051C4.26374 14.2251 4.26299 14.2467 4.26771 14.2672C4.27255 14.2876 4.28253 14.3062 4.29681 14.3209C4.31099 14.3355 4.32881 14.3457 4.34814 14.3501C4.36747 14.3545 4.38765 14.3531 4.40623 14.3458C5.7084 13.9143 8.9816 13.872 10.3498 14.3458ZM9.42593 12.6147C9.41143 12.8174 9.32564 13.0069 9.18572 13.1451C9.04581 13.2833 8.8622 13.3601 8.67149 13.3601C8.48079 13.3601 8.29707 13.2833 8.15715 13.1451C8.01724 13.0069 7.93145 12.8174 7.91695 12.6147C7.91695 12.4082 7.91695 12.2722 8.66924 12.2722C9.42153 12.2722 9.42593 12.4082 9.42593 12.6147ZM6.06919 12.2722C6.82148 12.2722 6.82148 12.4082 6.82148 12.6147C6.80699 12.8174 6.72119 13.0069 6.58128 13.1451C6.44136 13.2833 6.25775 13.3601 6.06704 13.3601C5.87623 13.3601 5.69262 13.2833 5.5527 13.1451C5.41279 13.0069 5.327 12.8174 5.3125 12.6147C5.33011 12.4082 5.33011 12.2722 6.06919 12.2722Z" fill="#514AF3"/>
<path d="M9.09359 6.02355C9.27323 6.02355 9.41873 5.86827 9.41873 5.67681C9.41873 5.48535 9.27323 5.33008 9.09359 5.33008C8.91405 5.33008 8.76855 5.48535 8.76855 5.67681C8.76855 5.86827 8.91405 6.02355 9.09359 6.02355Z" fill="#E69F69"/>
<path d="M7.79279 6.02257C7.97233 6.02257 8.11793 5.8673 8.11793 5.67584C8.11793 5.48438 7.97233 5.3291 7.79279 5.3291C7.61326 5.3291 7.46765 5.48438 7.46765 5.67584C7.46765 5.8673 7.61326 6.02257 7.79279 6.02257Z" fill="#E69F69"/>
<path d="M8.74816 6.88939C8.79734 6.87245 8.84501 6.85115 8.89086 6.82573C8.93134 6.80156 8.96334 6.764 8.98192 6.71866C9.0005 6.6732 9.00468 6.62259 8.99373 6.57449C8.98246 6.52651 8.95636 6.48403 8.91964 6.4538C8.88292 6.42368 8.83771 6.40754 8.79132 6.40822H8.12784C8.08166 6.4088 8.03699 6.42529 8.00049 6.45529C7.96398 6.48529 7.93767 6.5272 7.92543 6.57449C7.91405 6.62213 7.91802 6.6724 7.9367 6.71729C7.95539 6.76217 7.9876 6.79916 8.0283 6.82218C8.07275 6.85057 8.12075 6.8721 8.17089 6.88584C8.35494 6.9439 8.5509 6.9439 8.73495 6.88584L8.74816 6.88939Z" fill="#E69F69"/>
<path d="M11.9627 8.71563C11.2983 8.21133 10.5283 7.88819 9.71997 7.77448C9.70397 7.7715 9.68905 7.76349 9.67734 7.75147C9.66553 7.73956 9.65726 7.72421 9.65361 7.70726C9.65039 7.6902 9.65179 7.67245 9.65769 7.65608C9.66349 7.63982 9.67358 7.62562 9.68679 7.61531C9.90144 7.46748 10.0901 7.28072 10.2441 7.06338C10.2548 7.04872 10.2693 7.03773 10.286 7.03212C10.3025 7.02639 10.3203 7.02616 10.3371 7.03154C10.353 7.03807 10.3667 7.04975 10.3762 7.06498C10.3857 7.08021 10.3905 7.09819 10.3901 7.1164V7.16243C10.3901 7.25621 10.425 7.34622 10.4873 7.41263C10.5495 7.47893 10.6339 7.51626 10.7219 7.51626C10.8099 7.51626 10.8943 7.47893 10.9564 7.41263C11.0187 7.34622 11.0536 7.25621 11.0536 7.16243V6.29559C11.0542 6.27807 11.0596 6.26113 11.069 6.2467C11.0784 6.23227 11.0915 6.22105 11.1068 6.21429C11.1704 6.19494 11.2295 6.16093 11.2793 6.11444C11.3292 6.06795 11.3689 6.01012 11.3954 5.94531C11.425 5.88267 11.4418 5.81397 11.4447 5.74389C11.4476 5.67369 11.4364 5.60373 11.4119 5.53846C11.2925 5.18474 11.3489 5.35101 11.1565 4.80972C11.1109 4.67987 11.0369 4.56364 10.9404 4.47066C10.844 4.37768 10.7281 4.3108 10.6024 4.27542C9.8965 4.10205 9.17363 4.02007 8.44926 4.03129C7.72607 4.02052 7.00428 4.1024 6.29945 4.27542C6.17264 4.30977 6.05538 4.3763 5.95777 4.46929C5.86017 4.56227 5.785 4.67907 5.73883 4.80972L5.48338 5.53846C5.45718 5.6027 5.44365 5.67198 5.44365 5.74194C5.44365 5.81191 5.45718 5.88119 5.48338 5.94531C5.51098 6.00932 5.55092 6.06646 5.60064 6.11272C5.65046 6.1591 5.70876 6.19368 5.77201 6.21429C5.78747 6.22059 5.80079 6.23181 5.81024 6.24624C5.81969 6.26078 5.82484 6.27796 5.82505 6.29559V7.16243C5.82505 7.25621 5.86006 7.34622 5.92223 7.41263C5.98451 7.47893 6.0688 7.51626 6.15685 7.51626C6.24479 7.51626 6.32919 7.47893 6.39147 7.41263C6.45364 7.34622 6.48865 7.25621 6.48865 7.16243V7.1306C6.48897 7.1125 6.49423 7.09498 6.50357 7.07998C6.51302 7.06487 6.52623 7.05307 6.54169 7.04563C6.55834 7.04036 6.57616 7.04059 6.59281 7.0462C6.60934 7.05193 6.62395 7.06281 6.63458 7.07746C6.78941 7.29411 6.97797 7.48077 7.19197 7.6294C7.20507 7.63982 7.21517 7.65402 7.22107 7.67028C7.22687 7.68654 7.22838 7.70429 7.22515 7.72146C7.2215 7.7383 7.21324 7.75376 7.20142 7.76567C7.18961 7.77757 7.17479 7.78559 7.1588 7.78868C6.35035 7.90239 5.58034 8.22542 4.9161 8.72972C4.80013 8.82568 4.70607 8.94843 4.64111 9.08882C4.57625 9.22921 4.542 9.38345 4.54114 9.53987V10.0105C4.54114 10.1043 4.57614 10.1943 4.63831 10.2606C4.70059 10.327 4.78488 10.3642 4.87293 10.3642C4.96088 10.3642 5.04528 10.327 5.10756 10.2606C5.16973 10.1943 5.20473 10.1043 5.20473 10.0105V9.53987C5.20441 9.49155 5.21418 9.44368 5.23308 9.39971C5.25198 9.35563 5.27968 9.31658 5.31415 9.2852C5.4197 9.1984 5.53052 9.11916 5.64595 9.04817C5.65701 9.0413 5.66957 9.03775 5.68246 9.03775C5.69523 9.03775 5.7078 9.0413 5.71896 9.04817C5.72884 9.05504 5.73711 9.06454 5.74291 9.07554C5.74871 9.08664 5.75182 9.09913 5.75214 9.11184V10.1131C5.75214 10.159 5.76922 10.2031 5.79971 10.2356C5.83021 10.2681 5.87155 10.2865 5.91461 10.2865H10.9607C11.0039 10.2865 11.0452 10.2681 11.0757 10.2356C11.1062 10.2031 11.1233 10.159 11.1233 10.1131V9.11538C11.1224 9.10015 11.1257 9.08504 11.1327 9.07187C11.1398 9.0587 11.1504 9.04794 11.1631 9.04107C11.1748 9.03237 11.1887 9.02779 11.203 9.02779C11.2171 9.02779 11.2311 9.03237 11.2427 9.04107C11.3584 9.10771 11.4693 9.1834 11.5745 9.26745C11.6137 9.29929 11.6453 9.34063 11.6665 9.38803C11.6879 9.43532 11.6984 9.48743 11.6972 9.53987V10.0105C11.6972 10.1043 11.7322 10.1943 11.7944 10.2606C11.8567 10.327 11.941 10.3642 12.029 10.3642C12.117 10.3642 12.2014 10.327 12.2636 10.2606C12.3258 10.1943 12.3607 10.1043 12.3607 10.0105V9.53987C12.36 9.37876 12.3236 9.22016 12.2544 9.07691C12.1852 8.93354 12.0852 8.80976 11.9627 8.71563ZM9.74649 8.48203C9.75841 8.48364 9.7699 8.48833 9.77967 8.49578C9.78955 8.5031 9.7975 8.51307 9.80287 8.52452C9.8077 8.5362 9.81027 8.54891 9.81027 8.56173C9.81027 8.57444 9.8077 8.58715 9.80287 8.59883C9.71278 8.83552 9.55858 9.03821 9.36015 9.18123C9.16161 9.32425 8.92774 9.40109 8.68818 9.40189V8.4573C8.68828 8.44528 8.69075 8.43348 8.69526 8.4226C8.69988 8.41161 8.70643 8.40176 8.7147 8.39363C8.72254 8.3855 8.73199 8.37943 8.7423 8.37577C8.7526 8.3721 8.76366 8.37096 8.7744 8.37245C9.10051 8.38401 9.42533 8.42066 9.74649 8.48203ZM8.19714 9.39135C7.95801 9.39067 7.72446 9.31394 7.52646 9.17081C7.32845 9.02779 7.17501 8.82488 7.08578 8.58819C7.07998 8.57685 7.07697 8.56402 7.07697 8.55108C7.07697 8.53803 7.07998 8.52532 7.08578 8.51387C7.09469 8.49967 7.10736 8.48856 7.12229 8.48203C7.45108 8.4194 7.78373 8.38276 8.11757 8.37245C8.13926 8.37085 8.16074 8.3784 8.17727 8.39363C8.19156 8.41138 8.19982 8.43383 8.20047 8.4573L8.19714 9.39135ZM6.81701 5.59159V5.39349C6.81701 5.37437 6.82292 5.3557 6.83365 5.34036C6.84439 5.32501 6.85953 5.31391 6.87671 5.30852L7.0526 5.25906H9.82939L10.0053 5.30852C10.0225 5.31391 10.0376 5.32501 10.0484 5.34036C10.0592 5.3557 10.065 5.37437 10.065 5.39349V5.60568C10.0461 6.05146 9.86676 6.47228 9.56427 6.78066C9.26179 7.08891 8.85944 7.26102 8.44099 7.26102C8.02254 7.26102 7.62031 7.08891 7.31782 6.78066C7.01534 6.47228 6.83591 6.05146 6.81701 5.60568V5.59159Z" fill="#514AF3"/>
<path d="M10.6827 3.95002C10.698 3.95586 10.7145 3.95689 10.7304 3.95311C10.7462 3.94933 10.7608 3.94097 10.7723 3.92872C10.7792 3.9159 10.7829 3.90124 10.7829 3.88635C10.7829 3.87147 10.7792 3.85681 10.7723 3.84387C10.7027 3.56447 10.5906 3.29915 10.4405 3.05845C10.4356 3.04677 10.4332 3.03406 10.4332 3.02124C10.4332 3.00853 10.4356 2.99582 10.4405 2.98414C10.4761 2.87008 10.4941 2.75054 10.4936 2.6303C10.4737 1.85553 9.77699 1.85553 9.41534 1.85553C9.19027 1.84179 8.96478 1.87546 8.75185 1.95458H8.70868C8.52496 1.9263 8.33844 1.9263 8.15472 1.95458L8.11821 1.96523C7.90593 1.88244 7.68043 1.84523 7.45473 1.85553C7.12293 1.85553 6.40962 1.85553 6.40962 2.6445C6.40844 2.76474 6.42637 2.8844 6.46266 2.99833C6.46857 3.01814 6.46739 3.03944 6.45944 3.05845C6.2988 3.29709 6.17661 3.56252 6.09779 3.84387C6.09317 3.85899 6.09264 3.87525 6.09618 3.89059C6.09983 3.90605 6.10735 3.92013 6.11809 3.93124C6.12882 3.94223 6.14225 3.94991 6.15685 3.95323C6.17145 3.95655 6.18659 3.9554 6.20066 3.95002C7.18263 3.62447 9.65092 3.59264 10.6827 3.95002ZM9.98605 2.6445C9.9751 2.79737 9.91035 2.94028 9.8049 3.04448C9.69935 3.1488 9.56083 3.20663 9.41705 3.20663C9.27328 3.20663 9.13476 3.1488 9.02921 3.04448C8.92376 2.94028 8.85901 2.79737 8.84806 2.6445C8.84806 2.48888 8.84806 2.38628 9.41534 2.38628C9.98272 2.38628 9.98605 2.48888 9.98605 2.6445ZM7.45473 2.38628C8.022 2.38628 8.022 2.48888 8.022 2.6445C8.01105 2.79737 7.9463 2.94028 7.84085 3.04448C7.7353 3.1488 7.59679 3.20663 7.45301 3.20663C7.30923 3.20663 7.17071 3.1488 7.06516 3.04448C6.95971 2.94028 6.89496 2.79737 6.88401 2.6445C6.89733 2.48888 6.89733 2.38628 7.45473 2.38628Z" fill="#E69F69"/>
<path d="M19.2417 17.0953C19.4798 17.0953 19.6729 16.8895 19.6729 16.6355C19.6729 16.3817 19.4798 16.1758 19.2417 16.1758C19.0036 16.1758 18.8105 16.3817 18.8105 16.6355C18.8105 16.8895 19.0036 17.0953 19.2417 17.0953Z" fill="#514AF3"/>
<path d="M17.517 17.0953C17.7551 17.0953 17.9482 16.8895 17.9482 16.6355C17.9482 16.3817 17.7551 16.1758 17.517 16.1758C17.2789 16.1758 17.0858 16.3817 17.0858 16.6355C17.0858 16.8895 17.2789 17.0953 17.517 17.0953Z" fill="#514AF3"/>
<path d="M18.7842 18.2445C18.8493 18.2221 18.9126 18.1939 18.9732 18.1601C19.027 18.1282 19.0695 18.0782 19.0942 18.018C19.1187 17.9579 19.1242 17.8908 19.1096 17.827C19.0948 17.7633 19.0602 17.707 19.0115 17.6669C18.9627 17.6268 18.9028 17.6057 18.8413 17.6065H17.9614C17.9003 17.6073 17.8411 17.6291 17.7926 17.6689C17.7442 17.7087 17.7093 17.7641 17.6931 17.827C17.6781 17.8901 17.6833 17.9568 17.708 18.0163C17.7327 18.0758 17.7756 18.1249 17.8295 18.1554C17.8884 18.1931 17.9521 18.2215 18.0187 18.2398C18.2627 18.3168 18.5225 18.3168 18.7665 18.2398L18.7842 18.2445Z" fill="#514AF3"/>
<path d="M22.6794 20.6613C21.7985 19.9925 20.7774 19.564 19.7055 19.4134C19.6842 19.4093 19.6644 19.3987 19.6489 19.3829C19.6332 19.367 19.6222 19.3466 19.6174 19.3242C19.6131 19.3015 19.615 19.278 19.6228 19.2564C19.6306 19.2347 19.644 19.2159 19.6614 19.2022C19.9461 19.0063 20.1962 18.7585 20.4005 18.4703C20.4147 18.4508 20.434 18.4364 20.4559 18.4288C20.4779 18.4212 20.5016 18.421 20.5237 18.4281C20.5449 18.4368 20.5631 18.4523 20.5756 18.4724C20.5883 18.4926 20.5946 18.5164 20.5941 18.5407V18.6017C20.5941 18.7261 20.6404 18.8454 20.723 18.9334C20.8054 19.0214 20.9173 19.0709 21.034 19.0709C21.1508 19.0709 21.2626 19.0214 21.3451 18.9334C21.4276 18.8454 21.474 18.7261 21.474 18.6017V17.4523C21.4748 17.4289 21.4819 17.4065 21.4944 17.3873C21.5068 17.3682 21.5242 17.3532 21.5444 17.3443C21.6289 17.3188 21.7071 17.2735 21.7733 17.2119C21.8395 17.1502 21.892 17.0737 21.9271 16.9877C21.9664 16.9046 21.9887 16.8135 21.9925 16.7206C21.9964 16.6275 21.9815 16.5347 21.9491 16.4483C21.7907 15.9791 21.8656 16.1995 21.6103 15.4818C21.5499 15.3096 21.4516 15.1554 21.3239 15.0322C21.196 14.9089 21.0423 14.8202 20.8757 14.7733C19.9395 14.5434 18.9809 14.4346 18.0204 14.4496C17.0614 14.4352 16.1042 14.5438 15.1696 14.7733C15.0013 14.8188 14.8459 14.907 14.7164 15.0303C14.587 15.1537 14.4873 15.3085 14.4261 15.4818L14.0873 16.4483C14.0525 16.5333 14.0346 16.6252 14.0346 16.718C14.0346 16.8108 14.0525 16.9026 14.0873 16.9877C14.124 17.0727 14.1769 17.1482 14.2429 17.2097C14.3089 17.2712 14.3863 17.317 14.47 17.3443C14.4905 17.3528 14.5083 17.3675 14.5208 17.3868C14.5333 17.406 14.5402 17.4288 14.5405 17.4523V18.6017C14.5405 18.7261 14.5869 18.8454 14.6693 18.9334C14.7518 19.0214 14.8637 19.0709 14.9804 19.0709C15.0971 19.0709 15.209 19.0214 15.2915 18.9334C15.374 18.8454 15.4203 18.7261 15.4203 18.6017V18.5595C15.4209 18.5355 15.4278 18.5122 15.4403 18.4922C15.4528 18.4723 15.4703 18.4566 15.4908 18.4469C15.5129 18.4398 15.5365 18.44 15.5585 18.4476C15.5804 18.4551 15.5998 18.4696 15.6139 18.489C15.8193 18.7762 16.0693 19.0238 16.353 19.221C16.3705 19.2347 16.3838 19.2535 16.3917 19.2751C16.3994 19.2968 16.4013 19.3203 16.397 19.3429C16.3922 19.3654 16.3813 19.3858 16.3656 19.4017C16.35 19.4175 16.3302 19.428 16.3091 19.4321C15.237 19.5828 14.216 20.0113 13.3351 20.6801C13.1813 20.8073 13.0566 20.9701 12.9705 21.1562C12.8844 21.3424 12.8391 21.5469 12.8379 21.7544V22.3785C12.8379 22.5028 12.8843 22.6221 12.9667 22.7102C13.0492 22.7981 13.1612 22.8476 13.2778 22.8476C13.3945 22.8476 13.5064 22.7981 13.5889 22.7102C13.6715 22.6221 13.7177 22.5028 13.7177 22.3785V21.7544C13.7174 21.6903 13.7303 21.6268 13.7553 21.5684C13.7805 21.5101 13.8172 21.4583 13.8629 21.4167C14.0029 21.3016 14.1498 21.1966 14.303 21.1023C14.3177 21.0932 14.3343 21.0885 14.3513 21.0885C14.3682 21.0885 14.385 21.0932 14.3997 21.1023C14.4129 21.1115 14.4239 21.124 14.4315 21.1387C14.4392 21.1534 14.4434 21.1699 14.4437 21.1868V22.5145C14.4437 22.5754 14.4664 22.6339 14.5069 22.677C14.5472 22.7202 14.6021 22.7443 14.6592 22.7443H21.3508C21.4079 22.7443 21.4628 22.7202 21.5032 22.677C21.5437 22.6339 21.5663 22.5754 21.5663 22.5145V21.1915C21.5651 21.1713 21.5695 21.1513 21.5789 21.1337C21.5883 21.1162 21.6023 21.102 21.6191 21.0929C21.6346 21.0814 21.6531 21.0752 21.672 21.0752C21.6909 21.0752 21.7092 21.0814 21.7247 21.0929C21.8781 21.1813 22.0252 21.2816 22.1647 21.3932C22.2167 21.4354 22.2585 21.4902 22.2868 21.553C22.3151 21.6157 22.329 21.6848 22.3275 21.7544V22.3785C22.3275 22.5028 22.3738 22.6221 22.4564 22.7102C22.5388 22.7981 22.6507 22.8476 22.7674 22.8476C22.8841 22.8476 22.9959 22.7981 23.0785 22.7102C23.161 22.6221 23.2074 22.5028 23.2074 22.3785V21.7544C23.2064 21.5407 23.158 21.3304 23.0663 21.1404C22.9746 20.9504 22.842 20.7862 22.6794 20.6613ZM19.7406 20.3516C19.7565 20.3537 19.7716 20.3599 19.7846 20.3697C19.7977 20.3796 19.8082 20.3928 19.8154 20.408C19.8218 20.4234 19.8252 20.4403 19.8252 20.4572C19.8252 20.4742 19.8218 20.4909 19.8154 20.5065C19.6958 20.8203 19.4914 21.0892 19.2283 21.2788C18.965 21.4685 18.6549 21.5704 18.3371 21.5715V20.3188C18.3374 20.3029 18.3406 20.2873 18.3467 20.2727C18.3527 20.2582 18.3614 20.2451 18.3724 20.2344C18.3828 20.2236 18.3952 20.2156 18.409 20.2107C18.4227 20.2059 18.4372 20.2043 18.4516 20.2062C18.884 20.2216 19.3148 20.2701 19.7406 20.3516ZM17.6861 21.5574C17.3689 21.5565 17.0591 21.4547 16.7966 21.265C16.5341 21.0752 16.3306 20.8062 16.2122 20.4924C16.2045 20.4773 16.2005 20.4603 16.2005 20.4431C16.2005 20.426 16.2045 20.409 16.2122 20.3939C16.2241 20.3749 16.2409 20.3602 16.2607 20.3516C16.6966 20.2685 17.1377 20.22 17.5804 20.2062C17.6093 20.2042 17.6378 20.2142 17.6597 20.2344C17.6787 20.258 17.6895 20.2877 17.6905 20.3188L17.6861 21.5574ZM15.8559 16.5186V16.2559C15.8559 16.2305 15.8636 16.2058 15.8779 16.1855C15.8921 16.1652 15.9122 16.1504 15.9351 16.1433L16.1682 16.0776H19.8506L20.0837 16.1433C20.1066 16.1504 20.1267 16.1652 20.141 16.1855C20.1553 16.2058 20.163 16.2305 20.163 16.2559V16.5373C20.1379 17.1284 19.9 17.6866 19.499 18.0954C19.0978 18.5043 18.5643 18.7324 18.0094 18.7324C17.4545 18.7324 16.921 18.5043 16.5199 18.0954C16.1188 17.6866 15.881 17.1284 15.8559 16.5373V16.5186Z" fill="#E69F69"/>
<path d="M20.963 14.3673C20.9833 14.375 21.0052 14.3765 21.0263 14.3715C21.0472 14.3665 21.0665 14.3553 21.0818 14.3392C21.0911 14.322 21.0959 14.3026 21.0959 14.2828C21.0959 14.2631 21.0911 14.2437 21.0818 14.2266C20.9894 13.856 20.8408 13.5043 20.6418 13.185C20.6354 13.1694 20.6321 13.1527 20.6321 13.1358C20.6321 13.1188 20.6354 13.102 20.6418 13.0864C20.6891 12.9353 20.7129 12.7768 20.7123 12.6173C20.6859 11.5899 19.762 11.5899 19.2824 11.5899C18.9839 11.5717 18.6849 11.6162 18.4026 11.7212H18.3454C18.1017 11.6837 17.8543 11.6837 17.6107 11.7212L17.5622 11.7353C17.2808 11.6256 16.9818 11.5762 16.6824 11.5899C16.2425 11.5899 15.2966 11.5899 15.2966 12.6361C15.2949 12.7956 15.3187 12.9543 15.3669 13.1052C15.3746 13.1315 15.3731 13.1599 15.3625 13.185C15.1496 13.5014 14.9875 13.8534 14.883 14.2266C14.8768 14.2466 14.8762 14.268 14.8809 14.2885C14.8856 14.309 14.8957 14.3277 14.9099 14.3424C14.9242 14.357 14.942 14.3671 14.9613 14.3716C14.9807 14.3759 15.0007 14.3745 15.0194 14.3673C16.3216 13.9356 19.5948 13.8935 20.963 14.3673ZM20.0391 12.6361C20.0246 12.8389 19.9388 13.0284 19.7989 13.1666C19.659 13.3048 19.4753 13.3815 19.2846 13.3815C19.0939 13.3815 18.9103 13.3048 18.7704 13.1666C18.6304 13.0284 18.5446 12.8389 18.5302 12.6361C18.5302 12.4296 18.5302 12.2936 19.2824 12.2936C20.0347 12.2936 20.0391 12.4296 20.0391 12.6361ZM16.6824 12.2936C17.4347 12.2936 17.4347 12.4296 17.4347 12.6361C17.4202 12.8389 17.3344 13.0284 17.1945 13.1666C17.0546 13.3048 16.8708 13.3815 16.6801 13.3815C16.4894 13.3815 16.3058 13.3048 16.1659 13.1666C16.026 13.0284 15.9402 12.8389 15.9257 12.6361C15.9433 12.4296 15.9433 12.2936 16.6824 12.2936Z" fill="#514AF3"/>
<path d="M17.3867 6.02355C17.5662 6.02355 17.7118 5.86827 17.7118 5.67681C17.7118 5.48535 17.5662 5.33008 17.3867 5.33008C17.2071 5.33008 17.0615 5.48535 17.0615 5.67681C17.0615 5.86827 17.2071 6.02355 17.3867 6.02355Z" fill="#E69F69"/>
<path d="M16.0859 6.02355C16.2655 6.02355 16.411 5.86827 16.411 5.67681C16.411 5.48535 16.2655 5.33008 16.0859 5.33008C15.9063 5.33008 15.7607 5.48535 15.7607 5.67681C15.7607 5.86827 15.9063 6.02355 16.0859 6.02355Z" fill="#E69F69"/>
<path d="M17.0429 6.88939C17.0921 6.87245 17.1398 6.85115 17.1856 6.82573C17.2262 6.80156 17.2582 6.764 17.2767 6.71866C17.2953 6.6732 17.2994 6.62259 17.2885 6.57449C17.2772 6.52651 17.2511 6.48403 17.2144 6.4538C17.1776 6.42368 17.1324 6.40754 17.086 6.40822H16.4226C16.3765 6.4088 16.3318 6.42529 16.2953 6.45529C16.2588 6.48529 16.2324 6.5272 16.2202 6.57449C16.2089 6.62213 16.2129 6.6724 16.2314 6.71729C16.2501 6.76217 16.2823 6.79916 16.323 6.82218C16.3675 6.85057 16.4155 6.8721 16.4656 6.88584C16.6498 6.9439 16.8456 6.9439 17.0297 6.88584L17.0429 6.88939Z" fill="#E69F69"/>
<path d="M20.2571 8.71563C19.5929 8.21133 18.8229 7.88819 18.0144 7.77448C17.9984 7.7715 17.9836 7.76349 17.9718 7.75147C17.96 7.73956 17.9517 7.72421 17.9481 7.70726C17.9448 7.6902 17.9462 7.67245 17.9521 7.65608C17.958 7.63982 17.9681 7.62562 17.9812 7.61531C18.1959 7.46748 18.3846 7.28072 18.5386 7.06338C18.5493 7.04872 18.5639 7.03773 18.5804 7.03212C18.597 7.02639 18.6149 7.02616 18.6315 7.03154C18.6475 7.03807 18.6612 7.04975 18.6707 7.06498C18.6802 7.08021 18.6851 7.09819 18.6846 7.1164V7.16243C18.6846 7.25621 18.7196 7.34622 18.7817 7.41263C18.844 7.47893 18.9284 7.51626 19.0164 7.51626C19.1043 7.51626 19.1887 7.47893 19.251 7.41263C19.3132 7.34622 19.3482 7.25621 19.3482 7.16243V6.29559C19.3488 6.27807 19.3541 6.26113 19.3635 6.2467C19.373 6.23227 19.386 6.22105 19.4012 6.21429C19.465 6.19494 19.5239 6.16093 19.5739 6.11444C19.6238 6.06795 19.6634 6.01012 19.6898 5.94531C19.7195 5.88267 19.7363 5.81397 19.7391 5.74389C19.742 5.67369 19.7309 5.60373 19.7065 5.53846C19.587 5.18474 19.6433 5.35101 19.4509 4.80972C19.4054 4.67987 19.3313 4.56364 19.2349 4.47066C19.1384 4.37768 19.0226 4.3108 18.897 4.27542C18.1911 4.10205 17.4681 4.02007 16.7438 4.03129C16.0206 4.02052 15.2988 4.1024 14.594 4.27542C14.4671 4.30977 14.3498 4.3763 14.2522 4.46929C14.1546 4.56227 14.0796 4.67907 14.0333 4.80972L13.7778 5.53846C13.7516 5.6027 13.7381 5.67198 13.7381 5.74194C13.7381 5.81191 13.7516 5.88119 13.7778 5.94531C13.8054 6.00932 13.8455 6.06646 13.8952 6.11272C13.9449 6.1591 14.0033 6.19368 14.0665 6.21429C14.0819 6.22059 14.0952 6.23181 14.1047 6.24624C14.1142 6.26078 14.1194 6.27796 14.1196 6.29559V7.16243C14.1196 7.25621 14.1545 7.34622 14.2168 7.41263C14.279 7.47893 14.3634 7.51626 14.4513 7.51626C14.5393 7.51626 14.6237 7.47893 14.6859 7.41263C14.7481 7.34622 14.7831 7.25621 14.7831 7.16243V7.1306C14.7835 7.1125 14.7887 7.09498 14.7981 7.07998C14.8075 7.06487 14.8207 7.05307 14.8361 7.04563C14.8529 7.04036 14.8707 7.04059 14.8873 7.0462C14.9038 7.05193 14.9184 7.06281 14.929 7.07746C15.084 7.29411 15.2724 7.48077 15.4864 7.6294C15.4995 7.63982 15.5097 7.65402 15.5155 7.67028C15.5214 7.68654 15.5228 7.70429 15.5196 7.72146C15.516 7.7383 15.5077 7.75376 15.4959 7.76567C15.4841 7.77757 15.4692 7.78559 15.4532 7.78868C14.6448 7.90239 13.8749 8.22542 13.2105 8.72972C13.0946 8.82568 13.0006 8.94843 12.9357 9.08882C12.8707 9.22921 12.8366 9.38345 12.8357 9.53987V10.0105C12.8357 10.1043 12.8706 10.1943 12.9329 10.2606C12.995 10.327 13.0794 10.3642 13.1674 10.3642C13.2554 10.3642 13.3398 10.327 13.402 10.2606C13.4643 10.1943 13.4992 10.1043 13.4992 10.0105V9.53987C13.499 9.49155 13.5086 9.44368 13.5275 9.39971C13.5464 9.35563 13.5741 9.31658 13.6087 9.2852C13.7142 9.1984 13.8251 9.11916 13.9404 9.04817C13.9516 9.0413 13.9641 9.03775 13.9769 9.03775C13.9897 9.03775 14.0024 9.0413 14.0134 9.04817C14.0234 9.05504 14.0317 9.06454 14.0375 9.07554C14.0432 9.08664 14.0464 9.09913 14.0466 9.11184V10.1131C14.0466 10.159 14.0637 10.2031 14.0942 10.2356C14.1247 10.2681 14.166 10.2865 14.2092 10.2865H19.2553C19.2983 10.2865 19.3397 10.2681 19.3702 10.2356C19.4007 10.2031 19.4178 10.159 19.4178 10.1131V9.11538C19.4169 9.10015 19.4202 9.08504 19.4273 9.07187C19.4344 9.0587 19.4449 9.04794 19.4576 9.04107C19.4693 9.03237 19.4831 9.02779 19.4974 9.02779C19.5117 9.02779 19.5255 9.03237 19.5373 9.04107C19.6529 9.10771 19.7638 9.1834 19.8689 9.26745C19.9081 9.29929 19.9397 9.34063 19.9611 9.38803C19.9824 9.43532 19.993 9.48743 19.9918 9.53987V10.0105C19.9918 10.1043 20.0267 10.1943 20.089 10.2606C20.1511 10.327 20.2355 10.3642 20.3235 10.3642C20.4115 10.3642 20.4959 10.327 20.5581 10.2606C20.6203 10.1943 20.6553 10.1043 20.6553 10.0105V9.53987C20.6545 9.37876 20.618 9.22016 20.5489 9.07691C20.4797 8.93354 20.3797 8.80976 20.2571 8.71563ZM18.0409 8.48203C18.053 8.48364 18.0643 8.48833 18.0742 8.49578C18.084 8.5031 18.0921 8.51307 18.0974 8.52452C18.1023 8.5362 18.1047 8.54891 18.1047 8.56173C18.1047 8.57444 18.1023 8.58715 18.0974 8.59883C18.0072 8.83552 17.8531 9.03821 17.6546 9.18123C17.4562 9.32425 17.2222 9.40109 16.9826 9.40189V8.4573C16.9828 8.44528 16.9852 8.43348 16.9898 8.4226C16.9943 8.41161 17.001 8.40176 17.0093 8.39363C17.0171 8.3855 17.0264 8.37943 17.0368 8.37577C17.0472 8.3721 17.0581 8.37096 17.069 8.37245C17.395 8.38401 17.7199 8.42066 18.0409 8.48203ZM16.4917 9.39135C16.2525 9.39067 16.0189 9.31394 15.8209 9.17081C15.6229 9.02779 15.4695 8.82488 15.3802 8.58819C15.3744 8.57685 15.3714 8.56402 15.3714 8.55108C15.3714 8.53803 15.3744 8.52532 15.3802 8.51387C15.3891 8.49967 15.4018 8.48856 15.4167 8.48203C15.7455 8.4194 16.0782 8.38276 16.412 8.37245C16.4338 8.37085 16.4553 8.3784 16.4717 8.39363C16.4861 8.41138 16.4943 8.43383 16.495 8.4573L16.4917 9.39135ZM15.1116 5.59159V5.39349C15.1116 5.37437 15.1174 5.3557 15.1281 5.34036C15.1389 5.32501 15.154 5.31391 15.1713 5.30852L15.347 5.25906H18.1239L18.2997 5.30852C18.317 5.31391 18.3322 5.32501 18.3429 5.34036C18.3536 5.3557 18.3594 5.37437 18.3594 5.39349V5.60568C18.3406 6.05146 18.1612 6.47228 17.8587 6.78066C17.5562 7.08891 17.1539 7.26102 16.7355 7.26102C16.3171 7.26102 15.9148 7.08891 15.6123 6.78066C15.3098 6.47228 15.1305 6.05146 15.1116 5.60568V5.59159Z" fill="#514AF3"/>
<path d="M18.9765 3.95002C18.9919 3.95586 19.0083 3.95689 19.0242 3.95311C19.04 3.94933 19.0546 3.94097 19.0661 3.92872C19.0731 3.9159 19.0768 3.90124 19.0768 3.88635C19.0768 3.87147 19.0731 3.85681 19.0661 3.84387C18.9965 3.56447 18.8844 3.29915 18.7344 3.05845C18.7296 3.04677 18.727 3.03406 18.727 3.02124C18.727 3.00853 18.7296 2.99582 18.7344 2.98414C18.7701 2.87008 18.788 2.75054 18.7874 2.6303C18.7676 1.85553 18.0708 1.85553 17.7093 1.85553C17.4841 1.84179 17.2586 1.87546 17.0457 1.95458H17.0026C16.8189 1.9263 16.6323 1.9263 16.4485 1.95458L16.412 1.96523C16.1998 1.88244 15.9743 1.84523 15.7485 1.85553C15.4168 1.85553 14.7034 1.85553 14.7034 2.6445C14.7023 2.76474 14.7202 2.8844 14.7566 2.99833C14.7624 3.01814 14.7612 3.03944 14.7533 3.05845C14.5926 3.29709 14.4704 3.56252 14.3916 3.84387C14.387 3.85899 14.3865 3.87525 14.39 3.89059C14.3937 3.90605 14.4013 3.92013 14.4119 3.93124C14.4226 3.94223 14.4361 3.94991 14.4507 3.95323C14.4653 3.95655 14.4804 3.9554 14.4945 3.95002C15.4765 3.62447 17.9447 3.59264 18.9765 3.95002ZM18.2799 2.6445C18.2689 2.79737 18.2042 2.94028 18.0987 3.04448C17.9932 3.1488 17.8547 3.20663 17.7109 3.20663C17.5671 3.20663 17.4286 3.1488 17.323 3.04448C17.2176 2.94028 17.1528 2.79737 17.1419 2.6445C17.1419 2.48888 17.1419 2.38628 17.7093 2.38628C18.2765 2.38628 18.2799 2.48888 18.2799 2.6445ZM15.7485 2.38628C16.3158 2.38628 16.3158 2.48888 16.3158 2.6445C16.3049 2.79737 16.2402 2.94028 16.1347 3.04448C16.0292 3.1488 15.8907 3.20663 15.7468 3.20663C15.6031 3.20663 15.4645 3.1488 15.3591 3.04448C15.2535 2.94028 15.1889 2.79737 15.1779 2.6445C15.1912 2.48888 15.1912 2.38628 15.7485 2.38628Z" fill="#E69F69"/>
</svg>
