<svg width="25" height="25" viewBox="0 0 25 25" fill="none" xmlns="http://www.w3.org/2000/svg">
<g clip-path="url(#clip0_7_285)">
<mask id="mask0_7_285" style="mask-type:luminance" maskUnits="userSpaceOnUse" x="0" y="0" width="25" height="25">
<path d="M24.8418 0.78125H0.841797V24.7812H24.8418V0.78125Z" fill="white"/>
</mask>
<g mask="url(#mask0_7_285)">
<path fill-rule="evenodd" clip-rule="evenodd" d="M3.0918 11.2812C3.0918 5.89645 7.457 1.53125 12.8418 1.53125C18.2266 1.53125 22.5918 5.89645 22.5918 11.2812C22.5918 14.775 20.789 17.7139 18.8289 19.8827C16.8627 22.0584 14.6657 23.5406 13.7101 24.1357C13.1741 24.4694 12.5095 24.4694 11.9735 24.1357C11.0179 23.5406 8.82095 22.0584 6.8547 19.8827C4.8946 17.7139 3.0918 14.775 3.0918 11.2812Z" fill="#514AF3"/>
<path fill-rule="evenodd" clip-rule="evenodd" d="M6.5918 11.2812C6.5918 7.8248 9.44895 5.03125 12.9628 5.03125C15.6654 5.03125 17.9457 6.74395 18.8784 9.03325C19.2993 10.0663 19.0644 11.0239 18.4388 11.7142C17.8213 12.3954 16.837 12.8045 15.7615 12.8067C15.5112 12.8072 15.2872 12.8149 15.0969 12.837C14.9036 12.8595 14.7629 12.8948 14.6697 12.9405C14.2869 13.1281 13.992 13.6797 14.258 14.3152C14.4056 14.6682 14.5282 14.9443 14.6279 15.1691L14.6389 15.1938C14.7395 15.4205 14.8196 15.6015 14.876 15.7542C14.933 15.909 14.9708 16.0478 14.981 16.192C14.9914 16.338 14.9725 16.4747 14.9352 16.6243C14.842 16.9982 14.5566 17.2268 14.2089 17.3568C13.8663 17.4849 13.4322 17.5312 12.9628 17.5312C9.44895 17.5312 6.5918 14.7376 6.5918 11.2812Z" fill="#E69F69"/>
<path d="M10.0918 14.0312C10.0918 14.5835 10.5395 15.0312 11.0918 15.0312C11.6441 15.0312 12.0918 14.5835 12.0918 14.0312C12.0918 13.479 11.6441 13.0312 11.0918 13.0312C10.5395 13.0312 10.0918 13.479 10.0918 14.0312Z" fill="#514AF3"/>
<path d="M12.0918 9.78125C12.0918 10.4716 11.5322 11.0312 10.8418 11.0312C10.1514 11.0312 9.5918 10.4716 9.5918 9.78125C9.5918 9.0909 10.1514 8.53125 10.8418 8.53125C11.5322 8.53125 12.0918 9.0909 12.0918 9.78125Z" fill="#514AF3"/>
<path d="M16.0918 9.28125C16.0918 9.9716 15.5322 10.5312 14.8418 10.5312C14.1515 10.5312 13.5918 9.9716 13.5918 9.28125C13.5918 8.5909 14.1515 8.03125 14.8418 8.03125C15.5322 8.03125 16.0918 8.5909 16.0918 9.28125Z" fill="#514AF3"/>
</g>
</g>
<defs>
<clipPath id="clip0_7_285">
<rect width="24" height="24" fill="white" transform="translate(0.841797 0.78125)"/>
</clipPath>
</defs>
</svg>
