<svg width="25" height="25" viewBox="0 0 25 25" fill="none" xmlns="http://www.w3.org/2000/svg">
<path fill-rule="evenodd" clip-rule="evenodd" d="M20.868 8.97254C21.0656 8.52406 21.1391 8.03223 21.081 7.54682C21.0229 7.06151 20.8352 6.59977 20.5369 6.20862C20.2387 5.81747 19.8405 5.51059 19.3827 5.31923C18.9249 5.12786 18.4237 5.05864 17.9299 5.11881C17.5057 4.05204 16.727 3.15728 15.7205 2.5794C14.7138 2.00151 13.5381 1.77448 12.3835 1.93492C11.2291 2.09535 10.1637 2.634 9.35982 3.46353C8.55587 4.29307 8.06073 5.36489 7.95442 6.5054C6.7456 6.60587 5.62348 7.16272 4.82406 8.05895C4.02453 8.95518 3.60996 10.121 3.66737 11.3112C3.7083 12.1599 3.98683 12.9739 4.46312 13.6676H22.1174C22.5676 12.7846 22.6357 11.7354 22.302 10.8026C22.0357 10.0585 21.533 9.41819 20.868 8.97623V8.97254Z" fill="#E69F69"/>
<path d="M2.33198 14.1109L2.33208 14.1111C2.64463 14.3959 3.01385 14.6202 3.41776 14.7726C3.82167 14.9252 4.2535 15.0032 4.68902 15.0032C5.12444 15.0032 5.55627 14.9252 5.96018 14.7726C6.36306 14.6206 6.73125 14.3971 7.04329 14.1134C7.37494 13.8248 7.82237 13.6591 8.29372 13.6591C8.76517 13.6591 9.2127 13.8249 9.54445 14.1137C9.69668 14.2509 9.89529 14.3228 10.0961 14.3228C10.2974 14.3228 10.4966 14.2505 10.649 14.1125C10.7258 14.0439 10.7891 13.9601 10.8334 13.8647C10.8779 13.7684 10.9015 13.6636 10.9015 13.5564C10.9015 13.4491 10.8779 13.3442 10.8334 13.248C10.7892 13.1527 10.726 13.0689 10.6492 13.0005C10.337 12.7162 9.96827 12.4923 9.56488 12.34C9.16097 12.1875 8.72914 12.1094 8.29372 12.1094C7.85819 12.1094 7.42637 12.1875 7.02246 12.34C6.61998 12.492 6.252 12.7151 5.94016 12.9986C5.60677 13.2849 5.15955 13.449 4.68902 13.449C4.2189 13.449 3.77209 13.2852 3.4388 12.9994C3.36428 12.931 3.27765 12.8782 3.18465 12.8424C3.0894 12.8058 2.98819 12.7874 2.88667 12.7874C2.78505 12.7874 2.68384 12.8058 2.58859 12.8424C2.49395 12.8788 2.40598 12.9329 2.33054 13.0031C2.1778 13.1431 2.08398 13.341 2.08398 13.5564C2.08398 13.7723 2.17842 13.9707 2.33198 14.1109Z" fill="#E69F69" stroke="white" stroke-width="0.5"/>
<path d="M3.43608 10.104L3.43444 10.1027L3.43279 10.1013C3.27934 9.97096 3.08277 9.90457 2.88528 9.90773C2.68779 9.91089 2.49328 9.98358 2.34414 10.1195C2.19386 10.2564 2.09994 10.4492 2.09584 10.6603C2.09183 10.8713 2.17826 11.0679 2.32402 11.2104L2.32761 11.2139L2.33141 11.2173C2.64345 11.5033 3.01277 11.7282 3.41699 11.8807C3.8211 12.0332 4.25324 12.1108 4.68886 12.1099C5.12439 12.1108 5.55652 12.0332 5.96064 11.8807C6.36332 11.7288 6.7313 11.5049 7.04262 11.2207C7.37602 10.9345 7.82314 10.7705 8.29356 10.7705C8.76265 10.7705 9.20844 10.9336 9.54152 11.2183C9.61502 11.288 9.70073 11.3424 9.79331 11.3801C9.88929 11.419 9.99162 11.4395 10.0947 11.4412C10.1976 11.4428 10.3007 11.4256 10.3978 11.3898C10.4949 11.3541 10.5853 11.3001 10.6629 11.2294C10.7406 11.1586 10.8042 11.0721 10.8477 10.974C10.8913 10.8757 10.9133 10.7688 10.9112 10.6603C10.9091 10.5516 10.883 10.4458 10.8358 10.3494C10.7896 10.2549 10.7246 10.1722 10.6465 10.105C10.0155 9.53394 9.16923 9.21875 8.29356 9.21875C7.41728 9.21875 6.57056 9.53436 5.93949 10.1059C5.60774 10.3946 5.16021 10.5604 4.68886 10.5604C4.21649 10.5604 3.76803 10.3939 3.43608 10.104Z" fill="#E69F69" stroke="white" stroke-width="0.5"/>
<path d="M4.6884 17.3439C5.12413 17.3449 5.55658 17.2673 5.9608 17.1148C6.36501 16.9622 6.73433 16.7374 7.04637 16.4514C7.2066 16.3048 7.39917 16.1868 7.61359 16.1059C7.82802 16.0251 8.05897 15.9836 8.2928 15.9842H8.29372H8.33334H8.33508H8.33683C8.5373 15.9818 8.73489 15.9085 8.88619 15.7707C9.03718 15.6329 9.13161 15.4394 9.13623 15.2277C9.14095 15.1148 9.1193 15.0032 9.07413 14.9008C9.02815 14.797 8.95968 14.7063 8.87582 14.6336C8.79196 14.561 8.69424 14.5075 8.58995 14.4747C8.49049 14.4435 8.3859 14.4313 8.28212 14.4386C7.8505 14.4389 7.42236 14.5165 7.02184 14.6676C6.61916 14.8196 6.25118 15.0434 5.93986 15.3277C5.60646 15.6139 5.15944 15.7779 4.68902 15.7779C4.2189 15.7779 3.77209 15.6141 3.4388 15.3283C3.36428 15.2599 3.27765 15.2071 3.18465 15.1713C3.0894 15.1347 2.98819 15.1163 2.88667 15.1163C2.78505 15.1163 2.68384 15.1347 2.58859 15.1713C2.49395 15.2077 2.40598 15.2618 2.33054 15.3319C2.1778 15.472 2.08398 15.6699 2.08398 15.8852C2.08398 16.1007 2.1779 16.2988 2.33095 16.4388C2.64176 16.7268 3.01026 16.954 3.41427 17.1087C3.81859 17.2636 4.25165 17.3432 4.6884 17.3439ZM4.6884 17.3439C4.68851 17.3439 4.68851 17.3439 4.68861 17.3439L4.68902 17.0283L4.6882 17.3439C4.6883 17.3439 4.6883 17.3439 4.6884 17.3439Z" fill="#E69F69"/>
<path d="M4.6884 17.3439C5.12413 17.3449 5.55658 17.2673 5.9608 17.1148C6.36501 16.9622 6.73433 16.7374 7.04637 16.4514C7.2066 16.3048 7.39917 16.1868 7.61359 16.1059C7.82802 16.0251 8.05897 15.9836 8.2928 15.9842H8.29372H8.33334H8.33508H8.33683C8.5373 15.9818 8.73489 15.9085 8.88619 15.7707C9.03718 15.6329 9.13161 15.4394 9.13623 15.2277C9.14095 15.1148 9.1193 15.0032 9.07413 14.9008C9.02815 14.797 8.95968 14.7063 8.87582 14.6336C8.79196 14.561 8.69424 14.5075 8.58995 14.4747C8.49049 14.4435 8.3859 14.4313 8.28212 14.4386C7.8505 14.4389 7.42236 14.5165 7.02184 14.6676C6.61916 14.8196 6.25118 15.0434 5.93986 15.3277C5.60646 15.6139 5.15944 15.7779 4.68902 15.7779C4.2189 15.7779 3.77209 15.6141 3.4388 15.3283C3.36428 15.2599 3.27765 15.2071 3.18465 15.1713C3.0894 15.1347 2.98819 15.1163 2.88667 15.1163C2.78505 15.1163 2.68384 15.1347 2.58859 15.1713C2.49395 15.2077 2.40598 15.2618 2.33054 15.3319C2.1778 15.472 2.08398 15.6699 2.08398 15.8852C2.08398 16.1007 2.1779 16.2988 2.33095 16.4388C2.64176 16.7268 3.01026 16.954 3.41427 17.1087C3.81859 17.2636 4.25165 17.3432 4.6884 17.3439ZM4.6884 17.3439C4.68851 17.3439 4.68851 17.3439 4.68861 17.3439L4.68902 17.0283L4.6882 17.3439C4.6883 17.3439 4.6883 17.3439 4.6884 17.3439Z" stroke="white" stroke-width="0.5"/>
<path d="M16.0755 11.1939C16.8092 11.1211 17.9669 11.0381 19.4308 11.0381C20.8946 11.0381 22.0523 11.1211 22.7862 11.1939C23.2809 11.2429 23.4976 11.8344 23.1869 12.2246L22.4611 13.1363V17.341C22.4611 18.444 22.4432 19.3677 22.419 20.1127C22.3719 21.5579 21.3437 22.758 19.9382 22.8112C19.7727 22.8174 19.603 22.8209 19.4308 22.8209C19.2643 22.8209 19.1001 22.8176 18.94 22.8118C17.5261 22.7599 16.492 21.5485 16.4438 20.0955C16.4407 20.0028 16.4379 19.9076 16.435 19.8098H17.6666C17.945 19.8098 18.1706 19.5753 18.1706 19.2861C18.1706 18.9969 17.945 18.7624 17.6666 18.7624H16.4115C16.4051 18.357 16.4011 17.9203 16.4005 17.4532H16.4065H17.6666C17.945 17.4532 18.1706 17.2187 18.1706 16.9295C18.1706 16.6403 17.945 16.4058 17.6666 16.4058H16.4065H16.4005V15.0966H16.4065H17.6666C17.945 15.0966 18.1706 14.8621 18.1706 14.5729C18.1706 14.2837 17.945 14.0492 17.6666 14.0492H16.4065H16.4005V13.1363L15.6747 12.2246C15.364 11.8344 15.5807 11.2429 16.0755 11.1939Z" fill="#514AF3"/>
</svg>
