<svg width="25" height="25" viewBox="0 0 25 25" fill="none" xmlns="http://www.w3.org/2000/svg">
<path fill-rule="evenodd" clip-rule="evenodd" d="M8.50586 9.97504C8.50586 9.2888 9.07041 8.73242 9.76675 8.73242H17.3321C18.0285 8.73242 18.593 9.2888 18.593 9.97504V23.6439H14.8103V21.7799C14.8103 21.0936 14.2458 20.5373 13.5494 20.5373C12.8531 20.5373 12.2885 21.0936 12.2885 21.7799V23.6439H8.50586V9.97504ZM11.0276 10.5964C10.6795 10.5964 10.3972 10.8745 10.3972 11.2177V12.7709C10.3972 13.1141 10.6795 13.3922 11.0276 13.3922H11.9733C12.3215 13.3922 12.6038 13.1141 12.6038 12.7709V11.2177C12.6038 10.8745 12.3215 10.5964 11.9733 10.5964H11.0276ZM14.4951 11.2177C14.4951 10.8745 14.7774 10.5964 15.1256 10.5964H16.0712C16.4194 10.5964 16.7017 10.8745 16.7017 11.2177V12.7709C16.7017 13.1141 16.4194 13.3922 16.0712 13.3922H15.1256C14.7774 13.3922 14.4951 13.1141 14.4951 12.7709V11.2177ZM11.0276 15.8775C10.6795 15.8775 10.3972 16.1557 10.3972 16.4988V18.0521C10.3972 18.3952 10.6795 18.6734 11.0276 18.6734H11.9733C12.3215 18.6734 12.6038 18.3952 12.6038 18.0521V16.4988C12.6038 16.1557 12.3215 15.8775 11.9733 15.8775H11.0276ZM14.4951 16.4988C14.4951 16.1557 14.7774 15.8775 15.1256 15.8775H16.0712C16.4194 15.8775 16.7017 16.1557 16.7017 16.4988V18.0521C16.7017 18.3952 16.4194 18.6734 16.0712 18.6734H15.1256C14.7774 18.6734 14.4951 18.3952 14.4951 18.0521V16.4988Z" fill="#E69F69"/>
<path d="M10.809 5.99761C10.7812 6.01629 10.7484 6.02623 10.7148 6.02623C10.6812 6.02623 10.6484 6.01629 10.6206 5.99761L9.51791 5.35642C9.48407 5.33325 9.44388 5.3209 9.40272 5.3209C9.36156 5.3209 9.32137 5.33325 9.28753 5.35642L8.58965 5.95624C8.56354 5.97621 8.54247 6.00186 8.5279 6.03112C8.51342 6.06038 8.50586 6.09253 8.50586 6.12516C8.50586 6.15779 8.51342 6.18994 8.5279 6.2192C8.54247 6.24846 8.56354 6.27411 8.58965 6.29408L10.9137 7.93498C10.9806 7.98332 11.0611 8.00985 11.144 8.01082C11.2182 8.00945 11.2906 7.98805 11.3534 7.94877L17.7463 4.02577C17.9338 3.90816 18.0818 3.73829 18.1716 3.53762C18.2614 3.33695 18.2891 3.11449 18.2509 2.89832C18.2129 2.68216 18.1108 2.482 17.9576 2.32312C17.8044 2.16424 17.6071 2.05377 17.3904 2.00566C17.2494 1.97539 17.1036 1.97383 16.962 2.0011C16.8204 2.02836 16.686 2.08387 16.5668 2.16423L14.7522 3.38457C14.7276 3.39785 14.7 3.4048 14.672 3.4048C14.6439 3.4048 14.6163 3.39785 14.5917 3.38457L10.5717 1.93671C10.5305 1.91993 10.4855 1.91427 10.4414 1.92033C10.3972 1.92639 10.3555 1.94394 10.3205 1.97119L9.6226 2.50206C9.59185 2.5273 9.56704 2.55891 9.55012 2.59466C9.53312 2.63041 9.52434 2.66942 9.52434 2.70891C9.52434 2.74839 9.53312 2.7874 9.55012 2.82315C9.56704 2.8589 9.59185 2.89051 9.6226 2.91574L12.3095 4.59802C12.3342 4.61205 12.3548 4.63209 12.3695 4.65622C12.3841 4.68035 12.3923 4.70777 12.3933 4.73591C12.3958 4.76397 12.3906 4.79219 12.3783 4.81768C12.366 4.8431 12.3471 4.86482 12.3235 4.8807L10.809 5.99761Z" fill="#514AF3"/>
</svg>
