<svg width="25" height="25" viewBox="0 0 25 25" fill="none" xmlns="http://www.w3.org/2000/svg">
<path d="M21.2949 12.1348C20.3371 12.1799 18.8243 12.2342 16.6533 12.266V17.8172C18.9567 17.8418 20.4262 17.8852 21.2949 17.9204V12.1348Z" fill="#514AF3"/>
<path d="M4.12012 17.9165C5.02807 17.8821 6.51176 17.8407 8.76168 17.817V12.266C6.59081 12.2342 5.07798 12.1799 4.12012 12.1348V17.9165Z" fill="#514AF3"/>
<path d="M12.7089 12.2931C11.7864 12.2931 10.9366 12.2892 10.1562 12.2823V17.8054C10.9315 17.8006 11.7806 17.7978 12.7091 17.7978C13.6401 17.7978 14.489 17.8006 15.2619 17.8054V12.2822C14.4815 12.2892 13.6316 12.2931 12.7089 12.2931Z" fill="#514AF3"/>
<path fill-rule="evenodd" clip-rule="evenodd" d="M11.9774 2.5788C12.4566 2.45941 12.9572 2.45941 13.4364 2.5788C17.0032 3.4671 20.8191 5.80813 22.2428 6.73462C22.8252 7.11357 23.1502 7.75147 23.1502 8.41829V9.38615C23.1502 10.2203 22.4994 10.9241 21.6397 10.9695C20.3434 11.038 17.5279 11.1466 12.7069 11.1466C7.88608 11.1466 5.07075 11.038 3.77431 10.9695C2.9144 10.9241 2.26357 10.22 2.26367 9.38595V8.41881C2.26367 7.75188 2.58857 7.11347 3.17131 6.73431C4.59547 5.80772 8.41096 3.4671 11.9774 2.5788ZM12.7071 9.08244C13.7324 9.08244 14.5637 8.26093 14.5637 7.24757C14.5637 6.23422 13.7324 5.41271 12.7071 5.41271C11.6817 5.41271 10.8504 6.23422 10.8504 7.24757C10.8504 8.26093 11.6817 9.08244 12.7071 9.08244Z" fill="#514AF3"/>
<path d="M3.62058 22.9275C4.59213 22.9766 7.20862 23.0738 12.7071 23.0738C18.2055 23.0738 20.822 22.9766 21.7936 22.9275C22.3489 22.8994 22.8659 22.5327 23.0132 21.9508C23.0764 21.7013 23.1504 21.3453 23.1504 21.0095C23.1504 20.6738 23.0764 20.3177 23.0132 20.0683C22.8659 19.4864 22.3489 19.1196 21.7936 19.0916C20.822 19.0425 18.2055 18.9453 12.7071 18.9453C7.35096 18.9453 4.65385 19.0375 3.58361 19.0876C2.92088 19.1186 2.36685 19.6177 2.30315 20.2895C2.28247 20.5071 2.26367 20.7691 2.26367 21.0095C2.26367 21.3453 2.33772 21.7013 2.4009 21.9508C2.54825 22.5327 3.0652 22.8994 3.62058 22.9275Z" fill="#514AF3"/>
<path d="M12.7321 3.98047C12.1386 3.98047 11.5585 4.16562 11.065 4.51257C10.5716 4.85951 10.187 5.3526 9.95981 5.92947C9.73277 6.50644 9.67335 7.14126 9.78906 7.75363C9.90488 8.36611 10.1906 8.92867 10.6103 9.3702C11.0299 9.81173 11.5646 10.1125 12.1468 10.2342C12.7288 10.3561 13.3322 10.2936 13.8805 10.0546C14.4287 9.81564 14.8974 9.41096 15.2271 8.89173C15.5568 8.3726 15.7328 7.76217 15.7328 7.13765C15.7316 6.30081 15.415 5.49844 14.8525 4.90665C14.2901 4.31486 13.5276 3.98181 12.7321 3.98047Z" fill="#E69F69"/>
<path d="M12.7661 6.85159H11.7151C11.6721 6.85159 11.6292 6.85159 11.5862 6.85159C11.548 6.85385 11.5096 6.84788 11.4737 6.83419C11.4377 6.82051 11.4047 6.7992 11.3766 6.77172C11.3486 6.74424 11.3262 6.7111 11.3106 6.67426C11.295 6.63751 11.2867 6.59768 11.2862 6.55744C11.2862 6.39164 11.411 6.2704 11.5883 6.26535C11.8072 6.26535 12.0268 6.26535 12.2457 6.26535H12.7654C12.6426 6.02781 12.4708 5.90297 12.2347 5.89155C12.0301 5.88146 11.8201 5.89155 11.6128 5.88722C11.4171 5.88722 11.2881 5.76959 11.2862 5.59514C11.2841 5.42079 11.4144 5.29955 11.608 5.29883C12.2969 5.29883 12.9858 5.29883 13.6751 5.29883C13.8708 5.29883 13.9998 5.41575 14.0018 5.58587C14.0038 5.7559 13.8715 5.88218 13.669 5.88362H13.2352C13.2291 5.88362 13.223 5.89011 13.2161 5.89443C13.257 6.00054 13.2945 6.10964 13.3409 6.21009C13.3499 6.22357 13.3616 6.23468 13.3751 6.24271C13.3887 6.25084 13.4039 6.25558 13.4193 6.25671C13.5135 6.26247 13.6076 6.25671 13.701 6.25671C13.877 6.26247 14.0018 6.38731 13.9998 6.55312C13.9977 6.71882 13.8723 6.84016 13.6963 6.84016C13.5906 6.84016 13.4848 6.84016 13.3791 6.84016C13.3711 6.8416 13.3633 6.84428 13.3559 6.84799C13.1936 7.40478 12.839 7.72847 12.2873 7.81307L12.2607 7.84755C12.2989 7.86751 12.335 7.8916 12.3684 7.91928C12.6767 8.22352 12.9838 8.52898 13.2898 8.83558C13.3312 8.87099 13.3618 8.91823 13.378 8.97164C13.3941 9.02506 13.3949 9.08228 13.3805 9.13632C13.3714 9.18973 13.3459 9.23852 13.308 9.27526C13.2701 9.3121 13.2217 9.33485 13.1705 9.3401C13.083 9.34792 12.9959 9.3225 12.9249 9.26826C12.4074 8.76601 11.8986 8.25367 11.3878 7.7435C11.3418 7.70367 11.3095 7.64901 11.2959 7.58798C11.2822 7.52695 11.2878 7.46283 11.3121 7.4055C11.3337 7.34715 11.3724 7.29765 11.4228 7.2642C11.4731 7.23075 11.5323 7.2151 11.5916 7.21973C11.8031 7.21973 12.0145 7.21973 12.2252 7.21397C12.4632 7.21037 12.6365 7.08769 12.7661 6.85159Z" fill="white"/>
</svg>
