<svg width="25" height="25" viewBox="0 0 25 25" fill="none" xmlns="http://www.w3.org/2000/svg">
<mask id="mask0_7_18" style="mask-type:luminance" maskUnits="userSpaceOnUse" x="2" y="4" width="13" height="12">
<path d="M11.8275 4.00466L2.20703 6.81348L5.16882 15.9371L14.7893 13.1282L11.8275 4.00466Z" fill="white"/>
</mask>
<g mask="url(#mask0_7_18)">
<path d="M11.9694 10.9432C11.5968 10.9453 11.2381 10.8097 10.969 10.5652C10.7916 10.384 10.6381 10.2083 10.4934 10.0466C9.93576 9.41031 9.45434 8.86003 8.25183 9.21112C7.04923 9.56222 6.97748 10.274 6.89778 11.0963C6.87403 11.3073 6.84881 11.5268 6.8122 11.7789C6.73466 12.1245 6.51834 12.4279 6.20918 12.6251C5.94673 12.7739 5.74906 13.0068 5.6516 13.2817C5.55414 13.5566 5.56346 13.8555 5.6778 14.1245C6.1233 15.4967 7.17358 15.3525 7.57442 15.2354C7.79908 15.1715 8.00774 15.0649 8.18774 14.9222C8.36775 14.7796 8.51526 14.6037 8.62146 14.4053C8.72736 14.2071 8.87517 14.0318 9.05576 13.8903C9.23636 13.7487 9.4458 13.6441 9.67096 13.5828C9.89601 13.5098 10.1346 13.4821 10.3715 13.5019C10.6085 13.5216 10.8384 13.5882 11.0466 13.6972C11.249 13.8031 11.4716 13.8693 11.7013 13.8923C11.9311 13.9153 12.1634 13.8945 12.3847 13.831C12.8055 13.7081 13.7395 13.2731 13.294 11.9008C13.2293 11.6179 13.0605 11.3661 12.8177 11.1905C12.575 11.0151 12.2741 10.9274 11.9694 10.9432Z" fill="#E69F69"/>
<path d="M5.56874 10.4103L5.3219 9.65001C5.24004 9.39795 5.05601 9.18704 4.81025 9.06371C4.56439 8.94038 4.27701 8.91469 4.01123 8.99222C3.74544 9.06985 3.52304 9.24437 3.39299 9.47753C3.26295 9.7106 3.23586 9.98314 3.31761 10.2352L3.56446 10.9955C3.64631 11.2475 3.83034 11.4584 4.0761 11.5818C4.32196 11.7052 4.60934 11.7309 4.87513 11.6532C5.14091 11.5757 5.36331 11.4011 5.49336 11.168C5.62341 10.935 5.65049 10.6623 5.56874 10.4103Z" fill="#E69F69"/>
<path d="M6.47766 8.48046C6.60928 8.44202 6.73157 8.37938 6.83767 8.29617C6.94377 8.21286 7.03151 8.11066 7.0959 7.99524C7.16028 7.87983 7.20013 7.75352 7.21309 7.62349C7.22594 7.49346 7.21181 7.36231 7.17128 7.23749L6.92443 6.47722C6.84258 6.22517 6.65855 6.01425 6.41279 5.89092C6.16703 5.7675 5.87955 5.74181 5.61377 5.81944C5.34798 5.89706 5.12558 6.07159 4.99553 6.30465C4.86549 6.53782 4.8384 6.81035 4.92015 7.06241L5.167 7.82268C5.24885 8.07473 5.43288 8.28565 5.67864 8.40898C5.9245 8.53231 6.21188 8.55809 6.47766 8.48046Z" fill="#E69F69"/>
<path d="M11.6274 6.76866C11.3617 6.8462 11.1392 7.02081 11.0092 7.25388C10.8792 7.48695 10.8521 7.75949 10.9338 8.01154L11.1807 8.7719C11.2625 9.02396 11.4466 9.23488 11.6923 9.35821C11.9382 9.48154 12.2256 9.50723 12.4913 9.42969C12.7571 9.35206 12.9795 9.17754 13.1096 8.94438C13.2396 8.71131 13.2667 8.43878 13.1849 8.18672L12.9381 7.42645C12.8976 7.30163 12.8315 7.18556 12.7438 7.08495C12.6559 6.98442 12.5482 6.90121 12.4265 6.84005C12.3048 6.77899 12.1716 6.7413 12.0345 6.72901C11.8973 6.71673 11.7591 6.73022 11.6274 6.76866Z" fill="#E69F69"/>
<path d="M9.28431 7.66113C9.41592 7.62269 9.53821 7.56005 9.64431 7.47684C9.75041 7.39353 9.83815 7.29124 9.90254 7.17582C9.96692 7.0604 10.0068 6.9341 10.0197 6.80416C10.0326 6.67413 10.0185 6.54298 9.97792 6.41816L9.73108 5.65789C9.64932 5.40583 9.46519 5.19492 9.21943 5.0715C8.97367 4.94817 8.68619 4.92248 8.42041 5.0001C8.15462 5.07764 7.93232 5.25225 7.80217 5.48532C7.67213 5.71839 7.64504 5.99093 7.72679 6.24298L7.97364 7.00335C8.05549 7.2554 8.23952 7.46632 8.48528 7.58965C8.73114 7.71298 9.01852 7.73867 9.28431 7.66113Z" fill="#E69F69"/>
</g>
<path d="M13.939 12.5873L13.9448 12.5905L13.9508 12.5933C14.0193 12.6252 14.0975 12.6337 14.1719 12.6168C14.2441 12.6006 14.3085 12.5615 14.3541 12.5059C14.3709 12.4873 14.3909 12.4715 14.4134 12.4594L14.4185 12.4566L14.4235 12.4535C14.5792 12.3567 14.6875 12.2052 14.7246 12.0321C14.7616 11.8592 14.7243 11.6795 14.6215 11.5323L14.6214 11.5321C14.5184 11.385 14.3582 11.2824 14.176 11.2464C13.9937 11.2105 13.8039 11.2442 13.6482 11.3406C13.399 11.4942 13.1961 11.706 13.0588 11.9556C13.0303 12.0012 13.0157 12.0534 13.0166 12.1065C13.0176 12.1615 13.0352 12.2148 13.0671 12.2604C13.0946 12.3014 13.132 12.3355 13.1762 12.3599C13.2199 12.3841 13.2691 12.3979 13.3196 12.4004C13.5377 12.4193 13.7491 12.4831 13.939 12.5873Z" fill="#514AF3" stroke="white" stroke-width="0.5"/>
<path d="M18.7053 11.1887L18.7023 11.1905C18.6738 11.2071 18.4649 11.1698 18.4459 11.1957L18.4568 11.2257C18.4477 11.238 18.4485 11.1713 18.435 11.1795C18.4216 11.1876 18.4065 11.1931 18.3907 11.1957C18.3749 11.1983 18.3587 11.1979 18.3431 11.1946C18.3274 11.1912 18.3126 11.185 18.2994 11.1762L18.7053 11.1887ZM18.7053 11.1887L18.7084 11.1867C18.8618 11.0895 18.9683 10.9388 19.0046 10.7672C19.0409 10.5957 19.0041 10.4175 18.9028 10.2712L18.9022 10.2704C18.7993 10.1234 18.6391 10.0207 18.4568 9.98473C18.2746 9.9488 18.0848 9.98249 17.929 10.079C17.6916 10.226 17.495 10.4247 17.3557 10.6585L17.3509 10.6666L17.3469 10.6751C17.3272 10.7173 17.3175 10.7631 17.3184 10.8093C17.3192 10.8554 17.3306 10.9008 17.3516 10.9423L17.3568 10.9527L17.3635 10.9624C17.3907 11.0028 17.4278 11.0363 17.4714 11.0604C17.5106 11.082 17.5542 11.0954 17.5991 11.0998C17.8098 11.1372 18.0105 11.2155 18.1882 11.3296L18.7053 11.1887Z" fill="#514AF3"/>
<path d="M18.7053 11.1887L18.7023 11.1905C18.6738 11.2071 18.4649 11.1698 18.4459 11.1957L18.4568 11.2257C18.4477 11.238 18.4485 11.1713 18.435 11.1795C18.4216 11.1876 18.4065 11.1931 18.3907 11.1957C18.3749 11.1983 18.3587 11.1979 18.3431 11.1946C18.3274 11.1912 18.3126 11.185 18.2994 11.1762L18.7053 11.1887ZM18.7053 11.1887L18.7084 11.1867C18.8618 11.0895 18.9683 10.9388 19.0046 10.7672C19.0409 10.5957 19.0041 10.4175 18.9028 10.2712L18.9022 10.2704C18.7993 10.1234 18.6391 10.0207 18.4568 9.98473C18.2746 9.9488 18.0848 9.98249 17.929 10.079C17.6916 10.226 17.495 10.4247 17.3557 10.6585L17.3509 10.6666L17.3469 10.6751C17.3272 10.7173 17.3175 10.7631 17.3184 10.8093C17.3192 10.8554 17.3306 10.9008 17.3516 10.9423L17.3568 10.9527L17.3635 10.9624C17.3907 11.0028 17.4278 11.0363 17.4714 11.0604C17.5106 11.082 17.5542 11.0954 17.5991 11.0998C17.8098 11.1372 18.0105 11.2155 18.1882 11.3296L18.7053 11.1887Z" stroke="white" stroke-width="0.5"/>
<path d="M23.7065 16.8591L23.7066 16.8573L23.7067 16.8555C23.7103 16.7674 23.6957 16.6796 23.6635 16.5968C23.6313 16.5142 23.5823 16.4382 23.5193 16.3733C23.4563 16.3085 23.3805 16.256 23.2962 16.2186C23.2119 16.1813 23.1207 16.16 23.0279 16.156C22.935 16.1519 22.8422 16.1651 22.7547 16.195C22.6673 16.2249 22.587 16.2709 22.5184 16.3302C22.4498 16.3896 22.3942 16.4614 22.3551 16.5413C22.3164 16.6203 22.2944 16.7056 22.2903 16.7927C22.2874 16.8295 22.2772 16.8654 22.2602 16.8984L22.26 16.8988C22.2271 16.963 22.2189 17.036 22.2368 17.105C22.2546 17.1734 22.2965 17.2339 22.3554 17.2763C22.5345 17.4086 22.6847 17.5725 22.7978 17.7587L22.799 17.7607L22.8003 17.7626C22.8283 17.8065 22.8675 17.8429 22.9142 17.8686C22.9599 17.8938 23.0117 17.908 23.0647 17.91C23.1167 17.9125 23.1687 17.9027 23.2161 17.8816C23.2629 17.8606 23.3037 17.8292 23.3347 17.7898C23.5556 17.5228 23.6852 17.1983 23.7065 16.8591Z" fill="#514AF3" stroke="white" stroke-width="0.5"/>
<path d="M22.7356 12.7219V12.721V12.7203C22.7437 12.5475 22.6802 12.3787 22.5592 12.2491C22.4384 12.1196 22.2692 12.0393 22.0875 12.0252L22.0861 12.0251L22.0847 12.025C21.899 12.013 21.7158 12.0712 21.5756 12.1872C21.4357 12.303 21.3506 12.4667 21.3385 12.6424C21.3355 12.6777 21.3268 12.7125 21.3125 12.7451C21.2811 12.8107 21.2757 12.8848 21.297 12.9537C21.3182 13.0224 21.3644 13.0815 21.4269 13.1208C21.6095 13.2439 21.7654 13.3987 21.8865 13.577C21.914 13.6189 21.952 13.6538 21.997 13.6785C22.0414 13.703 22.0914 13.717 22.1427 13.7192C22.198 13.7226 22.2533 13.712 22.303 13.6885C22.3525 13.665 22.3944 13.6295 22.4246 13.5855C22.6109 13.3308 22.7185 13.0318 22.7356 12.7219Z" fill="#514AF3" stroke="white" stroke-width="0.5"/>
<path d="M14.0343 16.5428L14.033 16.5438L14.0318 16.5449C14.0099 16.5637 13.9568 16.5876 13.8341 16.6034C13.7413 16.6154 13.6353 16.6203 13.5093 16.6261C13.4738 16.6278 13.4366 16.6295 13.3977 16.6315C13.3768 16.632 13.3553 16.6324 13.3334 16.6329C12.7467 16.6454 11.825 16.6649 11.2607 17.5783C11.1152 17.7789 11.0173 18.007 10.9739 18.2471C10.93 18.4898 10.9426 18.7388 11.0109 18.9768C11.0791 19.2148 11.2013 19.4361 11.3688 19.6255C11.5357 19.814 11.7435 19.9663 11.9781 20.0719C12.4919 20.3203 13.0796 20.3947 13.6425 20.2821L13.6462 20.2814L13.6499 20.2805C14.0096 20.1948 14.3907 20.2311 14.7268 20.3832C15.0325 20.585 15.2543 20.8812 15.3537 21.22L15.3547 21.2233L15.3558 21.2267C15.5273 21.7371 15.8761 22.1787 16.3452 22.4798C16.5586 22.6189 16.801 22.7128 17.0558 22.7552C17.311 22.7978 17.5725 22.7876 17.8226 22.7254C18.0727 22.6633 18.3053 22.5505 18.5044 22.3948C18.7012 22.2412 18.8604 22.0491 18.9717 21.8319C19.263 21.3684 19.3015 20.939 19.22 20.5561C19.14 20.1805 18.9451 19.8556 18.7925 19.6019C18.7109 19.4651 18.6467 19.3526 18.6059 19.2528C18.566 19.1555 18.5558 19.0871 18.5635 19.0349L18.5679 19.0148C18.6822 18.4873 18.8124 17.8867 18.7273 17.3177C18.638 16.7218 18.3154 16.1687 17.5514 15.7474C16.7875 15.3261 16.121 15.3339 15.5309 15.5551C14.9672 15.7665 14.4813 16.1708 14.0544 16.526C14.0477 16.5316 14.041 16.5372 14.0343 16.5428Z" fill="#514AF3" stroke="white" stroke-width="0.5"/>
<path d="M16.0618 14.7371C16.8355 15.1638 17.851 14.7382 18.3571 13.9129C18.863 13.0876 18.7508 12.0401 17.977 11.6134C17.2032 11.1868 16.1877 11.6124 15.6817 12.4377C15.1757 13.263 15.288 14.3105 16.0618 14.7371Z" fill="#514AF3" stroke="white" stroke-width="0.5"/>
<path d="M11.8909 16.0311C12.6646 16.4578 13.6801 16.0321 14.1862 15.2069C14.6921 14.3816 14.5799 13.334 13.8061 12.9074C13.0323 12.4807 12.0168 12.9063 11.5108 13.7316C11.0048 14.5569 11.1171 15.6044 11.8909 16.0311Z" fill="#514AF3" stroke="white" stroke-width="0.5"/>
<path d="M19.2151 16.4754C19.9889 16.9021 21.0044 16.4765 21.5104 15.6511C22.0164 14.8259 21.9041 13.7784 21.1303 13.3517C20.3566 12.925 19.341 13.3507 18.8351 14.1759C18.329 15.0012 18.4413 16.0488 19.2151 16.4754Z" fill="#514AF3" stroke="white" stroke-width="0.5"/>
<path d="M20.0931 20.5536C20.8668 20.9802 21.8823 20.5546 22.3883 19.7293C22.8943 18.904 22.782 17.8565 22.0083 17.4298C21.2345 17.0032 20.219 17.4287 19.713 18.2541C19.2069 19.0794 19.3193 20.1269 20.0931 20.5536Z" fill="#514AF3" stroke="white" stroke-width="0.5"/>
</svg>
