<svg width="25" height="25" viewBox="0 0 25 25" fill="none" xmlns="http://www.w3.org/2000/svg">
<path d="M22.9626 7.68913C22.898 7.61631 22.8184 7.55793 22.729 7.51783C22.6397 7.47785 22.5428 7.45717 22.4446 7.45717H21.8231L22.1903 5.14628C22.2279 4.91592 22.176 4.68022 22.0452 4.48587C21.9143 4.29151 21.7139 4.15293 21.484 4.0975L17.0767 3.04883C16.8942 3.00498 16.7024 3.016 16.5261 3.08052C16.3499 3.14504 16.1973 3.26011 16.088 3.41073L13.1498 7.485H10.9085C10.8088 7.48364 10.7099 7.50375 10.6189 7.54384C10.5278 7.58383 10.4467 7.64301 10.3811 7.71707C10.3156 7.78999 10.2661 7.87542 10.2353 7.96799C10.2045 8.06045 10.1932 8.15826 10.2022 8.25526L11.0027 15.5685C11.9166 16.0863 12.6773 16.8307 13.2093 17.7277C13.7412 18.6247 14.0259 19.6433 14.035 20.6822C14.0549 21.3381 13.8744 21.9848 13.5171 22.5384H20.1092C20.5153 22.5384 20.9072 22.3907 21.2095 22.1235C21.512 21.8563 21.7037 21.4885 21.7477 21.0906L23.1414 8.25526C23.1571 8.15371 23.1492 8.05001 23.1182 7.95198C23.0872 7.85383 23.034 7.76398 22.9626 7.68913ZM17.2557 4.99782L20.1939 5.70311L19.9114 7.45717H15.4664L17.2557 4.99782Z" fill="#E69F69"/>
<path d="M5.03334 16.5436C4.2219 16.905 3.53114 17.4856 3.04105 18.2183C2.55107 18.9509 2.28182 19.8055 2.26465 20.6828C2.26465 22.3348 3.45126 22.5389 5.17453 22.5389C5.86207 22.5389 6.6342 22.5389 7.44414 22.5389C8.25397 22.5389 9.03567 22.5389 9.72309 22.5389C11.4465 22.5389 12.6236 22.2977 12.6236 20.6828C12.5926 19.527 12.1392 18.421 11.3468 17.5684C10.5544 16.7159 9.47608 16.174 8.31045 16.0425L8.4989 14.6689L8.62131 13.7408C8.6356 13.6284 8.62258 13.5142 8.58327 13.4077C8.54397 13.3012 8.47953 13.2054 8.39528 13.1283C8.31068 13.054 8.20913 13.0009 8.09929 12.9735C7.98956 12.9461 7.87464 12.9451 7.76434 12.9705L4.70369 13.6666C4.60261 13.6882 4.50786 13.7319 4.42626 13.7945C4.34477 13.8572 4.27861 13.9372 4.23285 14.0285C4.1864 14.1208 4.16219 14.2225 4.16219 14.3255C4.16219 14.4286 4.1864 14.5302 4.23285 14.6225L4.49657 15.2257L5.03334 16.5436Z" fill="#E69F69"/>
<path d="M14.2347 15.0324H15.5891C15.625 15.0324 15.6595 15.0465 15.6848 15.0715C15.7103 15.0966 15.7245 15.1304 15.7245 15.1658V16.5005C15.7245 16.5713 15.7531 16.6392 15.8039 16.6893C15.8546 16.7393 15.9235 16.7675 15.9953 16.7675H17.3497C17.4216 16.7675 17.4904 16.7393 17.5412 16.6893C17.5921 16.6392 17.6205 16.5713 17.6205 16.5005V15.1658C17.6205 15.1304 17.6348 15.0966 17.6602 15.0715C17.6857 15.0465 17.7201 15.0324 17.756 15.0324H19.1103C19.1822 15.0324 19.251 15.0042 19.3018 14.9542C19.3527 14.9041 19.3811 14.8362 19.3811 14.7654V13.4307C19.3811 13.36 19.3527 13.2921 19.3018 13.242C19.251 13.192 19.1822 13.1638 19.1103 13.1638H17.756C17.7201 13.1638 17.6857 13.1497 17.6602 13.1247C17.6348 13.0996 17.6205 13.0658 17.6205 13.0303V11.6957C17.6205 11.6249 17.5921 11.557 17.5412 11.5069C17.4904 11.4569 17.4216 11.4287 17.3497 11.4287H15.9953C15.9235 11.4287 15.8546 11.4569 15.8039 11.5069C15.7531 11.557 15.7245 11.6249 15.7245 11.6957V13.0303C15.7245 13.0658 15.7103 13.0996 15.6848 13.1247C15.6595 13.1497 15.625 13.1638 15.5891 13.1638H14.2347C14.1629 13.1638 14.094 13.192 14.0433 13.242C13.9925 13.2921 13.9639 13.36 13.9639 13.4307V14.7654C13.9639 14.8362 13.9925 14.9041 14.0433 14.9542C14.094 15.0042 14.1629 15.0324 14.2347 15.0324Z" fill="#514AF3"/>
</svg>
