<svg width="25" height="25" viewBox="0 0 25 25" fill="none" xmlns="http://www.w3.org/2000/svg">
<g clip-path="url(#clip0_7_295)">
<mask id="mask0_7_295" style="mask-type:luminance" maskUnits="userSpaceOnUse" x="0" y="0" width="25" height="25">
<path d="M24.8418 0.78125H0.841797V24.7812H24.8418V0.78125Z" fill="white"/>
</mask>
<g mask="url(#mask0_7_295)">
<mask id="mask1_7_295" style="mask-type:luminance" maskUnits="userSpaceOnUse" x="0" y="0" width="25" height="25">
<path d="M24.8418 0.78125H0.841797V24.7812H24.8418V0.78125Z" fill="white"/>
</mask>
<g mask="url(#mask1_7_295)">
<path d="M13.6347 9.07416C14.0252 8.68361 14.6584 8.68361 15.0489 9.07416L16.5489 10.5742C16.9394 10.9647 16.9394 11.5979 16.5489 11.9884C16.1584 12.379 15.5252 12.379 15.1347 11.9884L13.6347 10.4884C13.2442 10.0979 13.2442 9.46466 13.6347 9.07416Z" fill="#514AF3"/>
<path d="M10.1345 10.0742C10.525 9.68361 11.1582 9.68361 11.5487 10.0742L15.5487 14.0742C15.9392 14.4647 15.9392 15.0979 15.5487 15.4884C15.1582 15.879 14.525 15.879 14.1345 15.4884L10.1345 11.4884C9.74392 11.0979 9.74392 10.4647 10.1345 10.0742Z" fill="#514AF3"/>
<path d="M10.5487 13.5741C10.1582 13.1836 9.52497 13.1836 9.13447 13.5741C8.74392 13.9646 8.74392 14.5978 9.13447 14.9883L10.6345 16.4883C11.025 16.8789 11.6582 16.8789 12.0487 16.4883C12.4392 16.0978 12.4392 15.4646 12.0487 15.0741L10.5487 13.5741Z" fill="#514AF3"/>
<path d="M20.1345 3.57414C20.525 3.18362 21.1582 3.18362 21.5487 3.57414L22.0487 4.07414C22.4392 4.46467 22.4392 5.09783 22.0487 5.48835C21.6582 5.8789 21.025 5.8789 20.6345 5.48835L20.1345 4.98835C19.7439 4.59783 19.7439 3.96467 20.1345 3.57414Z" fill="#514AF3"/>
<path d="M5.0489 20.0741C4.65838 19.6836 4.02521 19.6836 3.63469 20.0741C3.24416 20.4646 3.24416 21.0978 3.63469 21.4883L4.13469 21.9883C4.52521 22.3789 5.15837 22.3789 5.5489 21.9883C5.93944 21.5978 5.93944 20.9646 5.5489 20.5741L5.0489 20.0741Z" fill="#514AF3"/>
<path fill-rule="evenodd" clip-rule="evenodd" d="M18.049 17.9886C15.9163 20.1213 13.015 20.1568 10.4527 19.797C9.90578 19.7202 9.52468 19.2146 9.60143 18.6677C9.67823 18.1208 10.1838 17.7396 10.7308 17.8164C13.1735 18.1594 15.2114 17.9978 16.6348 16.5744C18.2416 14.9675 18.2328 12.5844 17.7323 9.76903C17.6106 9.08498 17.4657 8.40193 17.3207 7.71873L17.3179 7.70573C17.1751 7.03333 17.0315 6.35698 16.9191 5.71066C16.6993 4.44676 16.562 3.12071 16.8802 2.00677C17.032 1.47574 17.5855 1.16826 18.1165 1.31999C18.6475 1.47172 18.955 2.0252 18.8033 2.55624C18.6215 3.19229 18.6718 4.11625 18.8895 5.36797C18.9951 5.97528 19.1317 6.61863 19.277 7.30328L19.2781 7.30813C19.4217 7.98478 19.5733 8.69848 19.7014 9.41898C20.2009 12.2286 20.4421 15.5955 18.049 17.9886ZM8.32003 18.3971C8.20553 18.9374 7.67473 19.2826 7.13443 19.1681C6.15158 18.9598 5.26373 18.7781 4.47133 18.6889C3.67037 18.5987 3.06176 18.6158 2.61653 18.743C2.0855 18.8947 1.53201 18.5872 1.38029 18.0562C1.22856 17.5252 1.53605 16.9717 2.06709 16.8199C2.885 16.5863 3.80005 16.6007 4.6951 16.7014C5.59873 16.8032 6.57928 17.006 7.54903 17.2115C8.08933 17.326 8.43448 17.8568 8.32003 18.3971Z" fill="#E69F69"/>
<path fill-rule="evenodd" clip-rule="evenodd" d="M7.63443 7.57405C9.76713 5.44135 12.6685 5.4059 15.2307 5.76564C15.7776 5.84245 16.1587 6.34805 16.0819 6.89495C16.0051 7.4419 15.4995 7.823 14.9526 7.7462C12.5099 7.40325 10.472 7.5649 9.04863 8.98825C7.44178 10.5951 7.45063 12.9782 7.95113 15.7936C8.07278 16.4777 8.21768 17.1607 8.36273 17.844L8.36553 17.857C8.50828 18.5294 8.65188 19.2057 8.76433 19.852C8.98413 21.1159 9.12138 22.4419 8.80313 23.5558C8.65138 24.0868 8.09788 24.3943 7.56688 24.2426C7.03583 24.0909 6.72833 23.5374 6.88008 23.0063C7.06183 22.3703 7.01158 21.4464 6.79388 20.1947C6.68828 19.5874 6.55173 18.9441 6.40638 18.2594L6.40533 18.2545C6.26168 17.5779 6.11013 16.8642 5.98203 16.1437C5.48251 13.3341 5.24129 9.9672 7.63443 7.57405ZM17.3634 7.16555C17.4779 6.62525 18.0087 6.28005 18.549 6.39455C19.5318 6.6028 20.4196 6.78455 21.212 6.8738C22.013 6.96395 22.6216 6.94685 23.0668 6.81965C23.5979 6.66795 24.1513 6.97545 24.3031 7.50645C24.4548 8.0375 24.1473 8.591 23.6163 8.7427C22.7984 8.9764 21.8834 8.962 20.9883 8.8612C20.0847 8.7595 19.1041 8.5566 18.1344 8.3511C17.5941 8.23665 17.2489 7.70585 17.3634 7.16555Z" fill="#E69F69"/>
</g>
</g>
</g>
<defs>
<clipPath id="clip0_7_295">
<rect width="24" height="24" fill="white" transform="translate(0.841797 0.78125)"/>
</clipPath>
</defs>
</svg>
