<svg width="25" height="25" viewBox="0 0 25 25" fill="none" xmlns="http://www.w3.org/2000/svg">
<path d="M2.20325 13.5528C2.0874 13.676 2.01122 13.8289 1.9839 13.9928C1.95657 14.1568 1.97931 14.3249 2.0494 14.4767C2.1195 14.6285 2.23385 14.7575 2.37871 14.8483C2.52357 14.939 2.69277 14.9875 2.8657 14.9879H6.67019C6.72961 14.9879 6.78651 15.0105 6.82853 15.0508C6.87045 15.0911 6.89403 15.1458 6.89403 15.2028V17.4371C6.89291 17.4851 6.90929 17.532 6.94035 17.5697C6.97142 17.6073 7.01522 17.6334 7.06416 17.6433C7.59532 17.7704 8.06182 18.0751 8.37999 18.5027C8.39271 18.5238 8.41096 18.5413 8.43305 18.5534C8.45504 18.5654 8.48002 18.5717 8.50538 18.5715C8.53028 18.5724 8.55507 18.5681 8.57819 18.5593C8.6013 18.5504 8.62217 18.5371 8.63967 18.5199C8.65128 18.4894 8.65128 18.4559 8.63967 18.4254V15.2028C8.63967 15.1458 8.66325 15.0911 8.70518 15.0508C8.74719 15.0105 8.80409 14.9879 8.86342 14.9879H16.4725C16.5318 14.9879 16.5887 15.0105 16.6307 15.0508C16.6727 15.0911 16.6962 15.1458 16.6962 15.2028V18.6832C16.6948 18.7276 16.7078 18.7715 16.7335 18.8086C16.759 18.8456 16.7961 18.8742 16.8393 18.8902C16.8826 18.9062 16.9299 18.909 16.9748 18.8981C17.0197 18.8871 17.0601 18.8632 17.0901 18.8293C17.1478 18.7634 17.2016 18.6945 17.2513 18.6231C17.4984 18.222 17.8852 17.9176 18.3433 17.7637C18.3866 17.7477 18.4234 17.7193 18.4491 17.6824C18.4747 17.6455 18.4878 17.6018 18.4866 17.5574V15.2028C18.4866 15.1458 18.5102 15.0911 18.5521 15.0508C18.5941 15.0105 18.651 14.9879 18.7105 14.9879H22.5597C22.7326 14.9875 22.9018 14.939 23.0467 14.8483C23.1915 14.7575 23.3059 14.6285 23.376 14.4767C23.4461 14.3249 23.4688 14.1568 23.4415 13.9928C23.4142 13.8289 23.338 13.676 23.2221 13.5528C23.2221 13.5528 18.9789 9.02387 18.9789 4.67539C18.9511 4.34622 18.7953 4.03901 18.5424 3.81506C18.2894 3.5911 17.9579 3.4668 17.6138 3.4668C17.2697 3.4668 16.9382 3.5911 16.6853 3.81506C16.4323 4.03901 16.2764 4.34622 16.2486 4.67539C16.2486 7.5285 14.2345 10.459 12.8649 12.1348C12.8422 12.1588 12.8145 12.178 12.7838 12.191C12.7529 12.2041 12.7196 12.211 12.6859 12.211C12.6521 12.211 12.6188 12.2041 12.5879 12.191C12.5571 12.178 12.5295 12.1588 12.5068 12.1348C11.1641 10.459 9.13199 7.5285 9.13199 4.67539C9.07978 4.36972 8.91611 4.09167 8.67018 3.89111C8.42416 3.69047 8.11197 3.58036 7.78922 3.58036C7.46646 3.58036 7.15428 3.69047 6.90826 3.89111C6.66233 4.09167 6.49866 4.36972 6.44644 4.67539C6.44644 9.01524 2.23909 13.5098 2.20325 13.5528ZM18.5313 10.6739C18.5183 10.6169 18.5294 10.5572 18.5621 10.5081C18.5949 10.4589 18.6465 10.4243 18.706 10.4117C18.7653 10.3992 18.8274 10.4098 18.8786 10.4413C18.9298 10.4726 18.9659 10.5223 18.9789 10.5793C19.4282 11.3938 19.9305 12.1802 20.4829 12.934C20.5058 12.9665 20.5189 13.0043 20.5209 13.0436C20.523 13.0827 20.5138 13.1216 20.4946 13.1562C20.4752 13.1907 20.4463 13.2195 20.4111 13.2394C20.3759 13.2593 20.3357 13.2696 20.2949 13.2692H18.7552C18.6959 13.2692 18.6389 13.2465 18.5969 13.2062C18.5549 13.166 18.5313 13.1113 18.5313 13.0543V10.6739ZM14.5031 12.9254C15.1659 12.095 15.7644 11.2189 16.2934 10.3043C16.3171 10.2621 16.3549 10.2288 16.4005 10.2095C16.4463 10.1904 16.4974 10.1863 16.5458 10.1982C16.5941 10.21 16.6369 10.2371 16.6674 10.275C16.6979 10.3129 16.7144 10.3596 16.7141 10.4074V13.0543C16.7141 13.1113 16.6905 13.166 16.6486 13.2062C16.6066 13.2465 16.5497 13.2692 16.4904 13.2692H14.7C14.6569 13.2726 14.6137 13.264 14.5757 13.2443C14.5376 13.2247 14.5063 13.1949 14.4854 13.1586C14.4646 13.1222 14.4552 13.0809 14.4583 13.0394C14.4615 12.9981 14.477 12.9585 14.5031 12.9254ZM8.6844 10.4074C8.67018 10.3504 8.6801 10.2904 8.71191 10.2404C8.74382 10.1905 8.79511 10.1547 8.85444 10.1411C8.91386 10.1273 8.97637 10.1368 9.0285 10.1675C9.08053 10.1981 9.11777 10.2473 9.13199 10.3043C9.661 11.2189 10.2594 12.095 10.9224 12.9254C10.9473 12.9573 10.9624 12.9953 10.9662 13.035C10.9699 13.0747 10.962 13.1147 10.9435 13.1504C10.9249 13.1861 10.8963 13.2161 10.861 13.237C10.8256 13.258 10.7849 13.2692 10.7433 13.2692H8.95298C8.89355 13.2692 8.83666 13.2465 8.79473 13.2062C8.75272 13.166 8.72913 13.1113 8.72913 13.0543L8.6844 10.4074ZM4.96938 12.934C5.51251 12.1795 6.00587 11.3931 6.44644 10.5793C6.46974 10.5378 6.50671 10.5047 6.55153 10.4853C6.59635 10.4658 6.64661 10.4612 6.69452 10.472C6.74243 10.4827 6.78529 10.5083 6.81646 10.5449C6.84771 10.5813 6.86549 10.6267 6.86717 10.6739V13.0543C6.86717 13.1113 6.84359 13.166 6.80167 13.2062C6.75965 13.2465 6.70276 13.2692 6.64343 13.2692H5.15738C5.11658 13.2696 5.07634 13.2593 5.04115 13.2394C5.00597 13.2195 4.97714 13.1907 4.95777 13.1562C4.9384 13.1216 4.92923 13.0827 4.93129 13.0436C4.93335 13.0043 4.94654 12.9665 4.96938 12.934Z" fill="#E69F69"/>
<path d="M3.24149 22.0909C3.07445 22.0991 2.90713 22.0991 2.74018 22.0909C2.61947 22.0764 2.50315 22.0385 2.39824 21.9794C2.29325 21.9202 2.20201 21.8413 2.12995 21.7472C2.05789 21.653 2.00661 21.5459 1.97919 21.4321C1.95168 21.3183 1.94869 21.2004 1.9703 21.0854C1.9835 20.9706 2.02065 20.8595 2.07951 20.7587C2.13847 20.658 2.21792 20.5697 2.31318 20.4991C2.40844 20.4285 2.51756 20.3771 2.63397 20.3478C2.75038 20.3186 2.87176 20.3123 2.99079 20.3292C4.48582 20.5269 5.8286 18.8941 5.83749 18.8768C5.92733 18.7613 6.04589 18.6692 6.18242 18.6093C6.31896 18.5493 6.46906 18.5232 6.61888 18.5334C6.76861 18.5437 6.91328 18.59 7.03962 18.668C7.16586 18.7461 7.26964 18.8533 7.34141 18.98C7.6039 19.3632 7.95408 19.6839 8.36508 19.9177C8.77618 20.1515 9.23743 20.2923 9.71366 20.3292C10.24 20.2914 10.7519 20.1461 11.2151 19.9031C11.6782 19.66 12.0819 19.3248 12.3992 18.9198C12.4978 18.8079 12.6231 18.7206 12.7644 18.6651C12.9057 18.6097 13.0589 18.5878 13.2108 18.6012C13.3628 18.6148 13.5092 18.6633 13.6375 18.7427C13.7658 18.822 13.8723 18.93 13.9479 19.0573C14.1449 19.433 14.4448 19.7499 14.8154 19.974C15.1862 20.1981 15.6135 20.321 16.0515 20.3292C16.533 20.3117 17.0027 20.1812 17.4194 19.949C17.8361 19.7168 18.1871 19.3899 18.4417 18.9972C18.5204 18.8669 18.6333 18.7588 18.7692 18.6837C18.9051 18.6085 19.0591 18.569 19.2159 18.569C19.3728 18.569 19.5269 18.6085 19.6628 18.6837C19.7987 18.7588 19.9116 18.8669 19.9903 18.9972C19.9903 18.9972 20.9929 20.5182 22.4342 20.3206C22.6716 20.2898 22.912 20.3509 23.1025 20.4902C23.293 20.6297 23.4181 20.836 23.4502 21.0639C23.4823 21.2919 23.4186 21.5226 23.2735 21.7055C23.1282 21.8885 22.9133 22.0085 22.6759 22.0393C22.0395 22.1024 21.3966 22.0236 20.7973 21.8089C20.1979 21.5943 19.6582 21.2496 19.2204 20.8019C18.3779 21.6041 17.2381 22.0523 16.0515 22.048C15.4858 22.0502 14.926 21.9372 14.409 21.7165C13.8921 21.4957 13.4298 21.1723 13.0527 20.7674C12.1392 21.5704 10.9519 22.0257 9.71366 22.048C8.49993 22.0264 7.3445 21.5444 6.49994 20.7073C5.62413 21.532 4.46626 22.0236 3.24149 22.0909Z" fill="#514AF3"/>
</svg>
