<svg width="25" height="25" viewBox="0 0 25 25" fill="none" xmlns="http://www.w3.org/2000/svg">
<path d="M13.9314 18.7093C14.0316 18.7064 14.1288 18.7032 14.223 18.6998C15.6923 18.6465 16.8383 17.5687 17.0952 16.1022H14.5537C14.325 16.1022 14.1395 15.9063 14.1395 15.6646C14.1395 15.4231 14.325 15.2272 14.5537 15.2272H17.1577C17.1666 14.8734 17.1728 14.4849 17.1754 14.0604H14.5537C14.325 14.0604 14.1395 13.8645 14.1395 13.623C14.1395 13.3813 14.325 13.1854 14.5537 13.1854H17.1754C17.1728 12.7609 17.1666 12.3724 17.1577 12.0187H14.5537C14.325 12.0187 14.1395 11.8228 14.1395 11.5812C14.1395 11.3395 14.325 11.1437 14.5537 11.1437H17.0952C16.8383 9.67715 15.6923 8.59936 14.223 8.546C13.7614 8.52928 13.2287 8.51855 12.6209 8.51855C12.0131 8.51855 11.4804 8.52928 11.0188 8.546C9.54954 8.59936 8.40353 9.67715 8.14667 11.1437H10.6882C10.9168 11.1437 11.1023 11.3395 11.1023 11.5812C11.1023 11.8228 10.9168 12.0187 10.6882 12.0187H8.08411C8.07526 12.3724 8.06898 12.7609 8.06641 13.1854H10.6882C10.9168 13.1854 11.1023 13.3813 11.1023 13.623C11.1023 13.8645 10.9168 14.0604 10.6882 14.0604H8.06641C8.06898 14.4849 8.07526 14.8734 8.08411 15.2272H10.6882C10.9168 15.2272 11.1023 15.4231 11.1023 15.6646C11.1023 15.9063 10.9168 16.1022 10.6882 16.1022H8.14667C8.40353 17.5687 9.54954 18.6465 11.0188 18.6998C11.113 18.7032 11.2101 18.7064 11.3102 18.7093L11.181 19.5284C11.1477 19.7394 10.9749 19.894 10.7725 19.894H10.1274C9.74444 19.894 9.41067 20.1693 9.31778 20.5617C9.22273 20.9633 9.51027 21.3524 9.90213 21.3524H15.3394C15.7314 21.3524 16.0189 20.9633 15.9239 20.5617C15.831 20.1693 15.4972 19.894 15.1143 19.894H14.4692C14.2667 19.894 14.0939 19.7394 14.0606 19.5284L13.9314 18.7093Z" fill="#514AF3"/>
<path d="M16.8969 3.35254C16.6824 3.35254 16.457 3.45242 16.3849 3.67845C16.3389 3.82283 16.2999 4.02226 16.2999 4.28341C16.2999 4.54457 16.3389 4.744 16.3849 4.88838C16.457 5.11432 16.6824 5.2142 16.8969 5.2142H17.4581C19.6977 5.2142 21.3123 6.99692 21.3123 9.20831V9.59054C21.3123 9.77646 21.3944 9.9791 21.602 10.0484C21.7475 10.0971 21.9601 10.1391 22.2597 10.1391C22.5592 10.1391 22.7718 10.0971 22.9174 10.0484C23.1249 9.9791 23.207 9.77646 23.207 9.59054V9.20831C23.207 5.97427 20.5388 3.35254 17.2473 3.35254H16.8969Z" fill="#E69F69"/>
<path d="M16.8847 5.83789C16.6781 5.83789 16.4585 5.93144 16.3866 6.15046C16.3397 6.29341 16.2999 6.49368 16.2999 6.761C16.2999 7.02831 16.3397 7.2285 16.3866 7.37145C16.4585 7.59055 16.6781 7.68402 16.8847 7.68402H17.0286C18.006 7.68402 18.7983 8.46258 18.7983 9.42283V9.59026C18.7983 9.77619 18.8803 9.97891 19.0877 10.0485C19.2322 10.0969 19.4425 10.1388 19.7378 10.1388C20.0331 10.1388 20.2434 10.0969 20.3879 10.0485C20.5953 9.97891 20.6773 9.77619 20.6773 9.59026V9.42283C20.6773 7.44296 19.0437 5.83789 17.0286 5.83789H16.8847Z" fill="#E69F69"/>
<path d="M2.20703 9.55246C2.20703 9.7632 2.30868 9.98467 2.53866 10.0555C2.68564 10.1008 2.88864 10.139 3.15441 10.139C3.4202 10.139 3.62318 10.1008 3.77013 10.0555C4.00009 9.98467 4.10175 9.7632 4.10175 9.55246V9.00111C4.10175 6.80062 5.91616 5.2142 8.16686 5.2142H8.55588C8.74511 5.2142 8.95135 5.13349 9.0219 4.9295C9.0714 4.78647 9.11419 4.57766 9.11419 4.28333C9.11419 3.98908 9.0714 3.78019 9.0219 3.63716C8.95135 3.43326 8.74511 3.35254 8.55588 3.35254H8.16686C4.87533 3.35254 2.20703 5.97419 2.20703 9.20823V9.55246Z" fill="#E69F69"/>
<path d="M4.7373 9.56426C4.7373 9.76724 4.83252 9.98305 5.05552 10.0536C5.201 10.0997 5.40475 10.1388 5.67682 10.1388C5.94889 10.1388 6.15264 10.0997 6.29821 10.0536C6.52112 9.98305 6.61634 9.76724 6.61634 9.56426V9.42292C6.61634 8.46258 7.40865 7.6841 8.38606 7.6841H8.55638C8.74561 7.6841 8.95194 7.60355 9.02275 7.39973C9.07216 7.2578 9.1147 7.05111 9.1147 6.761C9.1147 6.47089 9.07216 6.26428 9.02275 6.12226C8.95194 5.91852 8.74561 5.83789 8.55638 5.83789H8.38606C6.37091 5.83789 4.7373 7.44296 4.7373 9.42292V9.56426Z" fill="#E69F69"/>
</svg>
