<svg width="25" height="25" viewBox="0 0 25 25" fill="none" xmlns="http://www.w3.org/2000/svg">
<path d="M19.2218 15.6865H16.0659C15.2426 15.6865 14.5734 16.3243 14.5734 17.1215L14.6298 22.2028C14.6293 22.3597 14.6585 22.515 14.7155 22.6601C14.7725 22.8051 14.8563 22.937 14.962 23.0482C15.0678 23.1594 15.1934 23.2476 15.3318 23.308C15.4702 23.3684 15.6186 23.3998 15.7686 23.4002H19.6273C19.9301 23.3989 20.22 23.2722 20.4334 23.0477C20.647 22.8233 20.7666 22.5194 20.7662 22.2028L20.7129 17.1215C20.7129 16.3291 20.0436 15.6865 19.2218 15.6865Z" fill="#E69F69"/>
<path d="M19.9188 12.5466C19.9504 13.111 19.8051 13.6703 19.5076 14.1303C19.21 14.5904 18.7781 14.9233 18.2846 15.0731C16.799 15.554 15.2836 14.4378 15.2345 12.8289C15.2138 12.1509 15.291 11.5156 15.7025 10.9476C16.0083 10.542 16.4151 10.2443 16.8725 10.0917C17.3299 9.93909 17.8178 9.93819 18.2757 10.0891C18.7281 10.2235 19.1302 10.5133 19.424 10.9166C19.7177 11.3199 19.8879 11.816 19.9098 12.3331C19.9277 12.4185 19.9188 12.5039 19.9188 12.5466Z" fill="#E69F69"/>
<path d="M11.5237 9.79907C11.4011 9.70891 11.2509 9.67185 11.1036 9.69539C10.9563 9.71903 10.823 9.80148 10.7306 9.9261L8.95377 12.3311L8.04163 11.3488C7.93007 11.2298 7.7789 11.1631 7.62127 11.1631C7.46363 11.1631 7.31237 11.2298 7.20081 11.3488C7.1447 11.4071 7.10013 11.477 7.06963 11.5541C7.03923 11.6311 7.02356 11.714 7.02356 11.7976C7.02356 11.8813 7.03923 11.9641 7.06963 12.0412C7.10013 12.1183 7.1447 12.188 7.20081 12.2464L8.11304 13.2288C8.23333 13.3629 8.37952 13.4675 8.54147 13.5351C8.70343 13.6028 8.8773 13.6321 9.05088 13.6208C9.22457 13.6095 9.39374 13.5579 9.54688 13.4698C9.69992 13.3816 9.83316 13.2589 9.93731 13.1101L11.603 10.6798C11.6997 10.5508 11.7454 10.3867 11.7306 10.2222C11.7158 10.0578 11.6416 9.90606 11.5237 9.79907Z" fill="#514AF3"/>
<path d="M11.5237 15.5149C11.4011 15.4247 11.2509 15.3876 11.1036 15.4113C10.9563 15.4348 10.823 15.5172 10.7306 15.642L8.95377 18.0469L8.04163 17.0646C7.93007 16.9457 7.7789 16.8789 7.62127 16.8789C7.46363 16.8789 7.31237 16.9457 7.20081 17.0646C7.1447 17.123 7.10013 17.1928 7.06963 17.2699C7.03923 17.347 7.02356 17.4297 7.02356 17.5134C7.02356 17.5971 7.03923 17.6799 7.06963 17.757C7.10013 17.8341 7.1447 17.9039 7.20081 17.9623L8.11304 18.9446C8.23436 19.0778 8.38149 19.1811 8.5441 19.2475C8.70671 19.3138 8.88095 19.3414 9.05464 19.3285C9.22823 19.3157 9.39722 19.2625 9.54969 19.1727C9.70207 19.0831 9.83438 18.9589 9.93731 18.8091L11.603 16.3956C11.6997 16.2667 11.7454 16.1025 11.7306 15.9381C11.7158 15.7737 11.6416 15.6218 11.5237 15.5149Z" fill="#514AF3"/>
<path d="M17.787 8.02923C17.7852 7.58074 17.6168 7.15138 17.3189 6.83522L13.4403 2.66032C13.2693 2.4835 13.0645 2.34816 12.84 2.26341C12.6155 2.17866 12.3766 2.1465 12.1394 2.16914H6.43128C5.9579 2.16914 5.50404 2.3699 5.16934 2.72723C4.83464 3.08457 4.64661 3.56923 4.64661 4.07452V20.5877C4.64661 21.0931 4.83464 21.5777 5.16934 21.935C5.50404 22.2923 5.9579 22.4931 6.43128 22.4931H13.1734C13.3311 22.4931 13.4824 22.4262 13.594 22.3071C13.7056 22.1879 13.7683 22.0265 13.7683 21.858C13.7683 21.6896 13.7056 21.528 13.594 21.4089C13.4824 21.2897 13.3311 21.2228 13.1734 21.2228H6.43128C6.27346 21.2228 6.1222 21.1559 6.01064 21.0368C5.89907 20.9177 5.83639 20.7562 5.83639 20.5877V4.07452C5.83536 3.99087 5.85 3.90773 5.87946 3.83019C5.90902 3.75255 5.95283 3.68213 6.00829 3.62292C6.06374 3.56372 6.12971 3.51693 6.20233 3.48548C6.27505 3.45392 6.35284 3.43829 6.43128 3.4394H11.6398V7.03848C11.6398 7.48767 11.8069 7.91844 12.1044 8.236C12.4019 8.55366 12.8054 8.73208 13.2261 8.73208H17.1921C17.3491 8.72988 17.4993 8.66226 17.6105 8.54365C17.7216 8.42504 17.7849 8.26475 17.787 8.09695C17.7906 8.08032 17.7906 8.06289 17.787 8.04616C17.7877 8.04055 17.7877 8.03484 17.787 8.02923ZM12.8296 7.03848V3.79513L16.2481 7.45341H13.2261C13.1223 7.45341 13.0226 7.40994 12.9484 7.3324C12.8743 7.25476 12.8316 7.14927 12.8296 7.03848Z" fill="#514AF3"/>
</svg>
