<svg width="25" height="25" viewBox="0 0 25 25" fill="none" xmlns="http://www.w3.org/2000/svg">
<path fill-rule="evenodd" clip-rule="evenodd" d="M16.1667 1.85566C15.6151 1.81225 14.9332 1.78125 14.1104 1.78125C13.2875 1.78125 12.6056 1.81225 12.0541 1.85566C10.6967 1.9624 9.78321 3.03245 9.73049 4.28121C9.68549 5.34694 9.6429 6.92722 9.6429 9.09135V13.2544C9.22589 13.3124 8.77756 13.5676 8.69181 14.1025C8.66649 14.2601 8.65015 14.449 8.65015 14.6739C8.65015 14.8988 8.66649 15.0877 8.69181 15.2454C8.79057 15.8614 9.37034 16.1065 9.82937 16.1065H18.3913C18.8504 16.1065 19.4301 15.8614 19.5289 15.2454C19.5542 15.0877 19.5705 14.8988 19.5705 14.6739C19.5705 14.449 19.5542 14.2601 19.5289 14.1025C19.4432 13.5676 18.9948 13.3124 18.5777 13.2544V12.764H20.3279C21.6457 12.764 22.7141 11.7362 22.7141 10.4684C22.7141 9.70089 22.3154 8.98417 21.6516 8.55843L21.0234 8.1555C20.8392 8.03746 20.7286 7.83871 20.7286 7.62578V7.27711C20.9959 7.16041 21.3477 6.99952 21.6911 6.82004C22.2558 6.52484 22.5487 5.95416 22.5487 5.38271V3.97904L23.4122 3.4253C23.7163 3.2302 23.7985 2.83491 23.5958 2.54238C23.393 2.24984 22.9821 2.17078 22.678 2.36577L20.2892 3.89777C19.7368 4.25209 19.4049 4.84846 19.4049 5.48701V7.62578C19.4049 8.26445 19.7368 8.86082 20.2892 9.21503L20.9173 9.61785C21.213 9.80752 21.3904 10.1266 21.3904 10.4684C21.3904 11.0329 20.9147 11.4907 20.3279 11.4907H18.5777V9.09135C18.5777 6.92722 18.5352 5.34694 18.4902 4.28121C18.4375 3.03245 17.5241 1.9624 16.1667 1.85566ZM14.1104 13.2413C13.1052 13.2413 12.2902 12.4575 12.2902 11.4905C12.2902 11.0455 12.4772 10.6971 12.7067 10.4018C12.8503 10.2171 13.0405 10.0193 13.2256 9.82679C13.3104 9.73865 13.3942 9.65162 13.4719 9.56736C13.8102 9.20086 14.4105 9.20086 14.7488 9.56736C14.8265 9.65162 14.9103 9.73865 14.9951 9.82679C15.1802 10.0192 15.3704 10.2171 15.514 10.4018C15.7435 10.6971 15.9304 11.0455 15.9304 11.4905C15.9304 12.4575 15.1155 13.2413 14.1104 13.2413ZM16.9231 5.44217C16.9231 6.13387 16.8491 6.57223 16.7708 6.84373C16.658 7.23548 16.3031 7.43633 15.9655 7.46202C15.6641 7.48494 15.1025 7.51129 14.1104 7.51129C13.1182 7.51129 12.5566 7.48494 12.2553 7.46202C11.9177 7.43633 11.5627 7.23548 11.4499 6.84373C11.3716 6.57223 11.2975 6.13387 11.2975 5.44217C11.2975 4.75047 11.3716 4.3121 11.4499 4.0406C11.5627 3.64886 11.9177 3.448 12.2553 3.42231C12.5566 3.39939 13.1182 3.37304 14.1104 3.37304C15.1025 3.37304 15.6641 3.39939 15.9655 3.42231C16.3031 3.448 16.658 3.64886 16.7708 4.0406C16.8491 4.3121 16.9231 4.75047 16.9231 5.44217Z" fill="#E69F69"/>
<path d="M2.50345 8.04774C3.57528 7.94919 5.26624 7.83691 7.40449 7.83691C9.54286 7.83691 11.2338 7.94919 12.3058 8.04774C13.0285 8.11417 13.345 8.91449 12.8913 9.44243L11.8311 10.6762V16.3659C11.8311 17.8587 11.8048 19.1084 11.7695 20.1165C11.7008 22.0721 10.1988 23.6962 8.14575 23.7681C7.90415 23.7766 7.65622 23.7814 7.40461 23.7814C7.1614 23.7814 6.92153 23.7768 6.68752 23.769C4.62248 23.6988 3.11176 22.0595 3.04155 20.0933C3.03706 19.968 3.03269 19.8391 3.02854 19.7067H4.82759C5.23424 19.7067 5.5639 19.3895 5.5639 18.998C5.5639 18.6066 5.23424 18.2894 4.82759 18.2894H2.99436C2.98492 17.7409 2.97905 17.1499 2.97824 16.5178H2.98688H4.82759C5.23424 16.5178 5.5639 16.2006 5.5639 15.8091C5.5639 15.4177 5.23424 15.1005 4.82759 15.1005H2.98688H2.97813V13.3289H2.98688H4.82759C5.23424 13.3289 5.5639 13.0117 5.5639 12.6203C5.5639 12.2288 5.23424 11.9116 4.82759 11.9116H2.98688H2.97813V10.6762L1.91792 9.44243C1.46419 8.91449 1.78072 8.11417 2.50345 8.04774Z" fill="#514AF3"/>
</svg>
