<svg width="25" height="25" viewBox="0 0 25 25" fill="none" xmlns="http://www.w3.org/2000/svg">
<path d="M8.46858 8.1984C7.7634 8.09491 6.65837 7.96782 5.64193 7.99891C5.07398 8.01626 4.62427 8.45557 4.53348 9.02277C4.05439 12.0164 4.16598 14.8328 4.19126 15.3367C4.19397 15.3911 4.19852 15.4418 4.20543 15.4959C4.44646 17.3852 5.33364 20.8388 5.66764 22.1033C5.74697 22.4039 5.97191 22.6433 6.27285 22.708C6.52753 22.7627 6.85331 22.8146 7.17131 22.8146C7.47068 22.8146 7.77565 22.7685 8.02149 22.7175C8.34544 22.6502 8.57921 22.3819 8.64157 22.0536C8.88978 20.746 9.51712 17.3515 9.66282 15.6942C9.67909 15.5082 9.67043 15.3234 9.64428 15.1385L9.22623 12.1799L12.2402 14.6178C12.5039 14.8311 12.8601 14.9369 13.1553 14.771C13.4685 14.595 13.6748 14.3419 13.8079 14.1131C13.9941 13.7927 13.8799 13.4058 13.6296 13.1337L9.71084 8.87225C9.38094 8.51353 8.94803 8.26868 8.46858 8.1984Z" fill="#514AF3"/>
<path d="M7.22626 7.09358C8.48915 7.09358 9.51294 6.05846 9.51294 4.78166C9.51294 3.50481 8.48915 2.46973 7.22626 2.46973C5.96336 2.46973 4.93958 3.50481 4.93958 4.78166C4.93958 6.05846 5.96336 7.09358 7.22626 7.09358Z" fill="#514AF3"/>
<path d="M12.1746 7.09362C13.1276 7.09362 13.9002 6.26555 13.9002 5.24407C13.9002 4.2226 13.1276 3.39453 12.1746 3.39453C11.2217 3.39453 10.4491 4.2226 10.4491 5.24407C10.4491 6.26555 11.2217 7.09362 12.1746 7.09362Z" fill="#E69F69"/>
<path d="M13.079 7.63548C12.4723 7.71792 11.69 7.88605 11.0572 8.22848C10.8354 8.34861 10.797 8.65537 10.9537 8.86217L13.1646 11.7788C13.3268 11.9927 13.6287 12.0072 13.7629 11.7721C14.2513 10.9163 14.3421 9.64364 14.2361 8.58579C14.1743 7.96849 13.6535 7.55736 13.079 7.63548Z" fill="#E69F69"/>
<path d="M17.7642 12.9365C17.0968 12.9365 16.6121 13.4906 16.6037 14.194L16.6028 14.2579C16.6028 14.2688 16.5987 14.2793 16.5915 14.287C16.5843 14.2948 16.5745 14.2993 16.5643 14.2995C15.7625 14.3123 15.0336 14.826 14.9246 15.6682C14.7466 15.6871 14.5816 15.776 14.4617 15.9177C14.3418 16.0594 14.2757 16.2437 14.2763 16.4346C14.2755 16.6365 14.3493 16.8305 14.4817 16.9747C14.6141 17.1188 14.7943 17.2015 14.9833 17.2047C15.534 17.2137 16.4609 17.2246 17.7642 17.2246C19.0674 17.2246 19.9943 17.2137 20.5451 17.2047C20.7341 17.2015 20.9143 17.1188 21.0466 16.9747C21.179 16.8305 21.2529 16.6365 21.2521 16.4346C21.2527 16.2437 21.1866 16.0594 21.0667 15.9177C20.9468 15.776 20.7818 15.6871 20.6038 15.6682C20.4947 14.826 19.7658 14.3123 18.9641 14.2995C18.9538 14.2993 18.9441 14.2948 18.9368 14.287C18.9297 14.2793 18.9256 14.2688 18.9255 14.2579C18.9255 14.2365 18.9251 14.215 18.925 14.194C18.9163 13.4906 18.4316 12.9365 17.7642 12.9365Z" fill="#514AF3"/>
<path fill-rule="evenodd" clip-rule="evenodd" d="M20.8643 17.8828C18.7986 17.9133 16.7317 17.9133 14.6655 17.8828C14.5278 18.9862 14.3892 20.4302 14.4177 21.6101C14.4359 22.3492 14.9629 22.9213 15.6381 22.9921C16.1385 23.0448 16.8472 23.0931 17.7649 23.0931C18.6823 23.0931 19.3915 23.0448 19.8917 22.9921C20.5672 22.9211 21.0941 22.3489 21.1121 21.6101C21.1408 20.4302 21.0021 18.9862 20.8643 17.8828ZM19.456 18.8049H18.8219C18.7378 18.8049 18.6571 18.8406 18.5977 18.9041C18.5382 18.9676 18.5048 19.0538 18.5048 19.1435C18.5048 19.2333 18.5382 19.3194 18.5977 19.3829C18.6571 19.4464 18.7378 19.4821 18.8219 19.4821H19.456C19.5401 19.4821 19.6208 19.4464 19.6803 19.3829C19.7397 19.3194 19.7731 19.2333 19.7731 19.1435C19.7731 19.0538 19.7397 18.9676 19.6803 18.9041C19.6208 18.8406 19.5401 18.8049 19.456 18.8049ZM18.5048 20.4976C18.5048 20.4079 18.5382 20.3217 18.5977 20.2582C18.6571 20.1947 18.7378 20.1591 18.8219 20.1591H19.456C19.5401 20.1591 19.6208 20.1947 19.6803 20.2582C19.7397 20.3217 19.7731 20.4079 19.7731 20.4976C19.7731 20.5875 19.7397 20.6735 19.6803 20.737C19.6208 20.8005 19.5401 20.8362 19.456 20.8362H18.8219C18.7378 20.8362 18.6571 20.8005 18.5977 20.737C18.5382 20.6735 18.5048 20.5875 18.5048 20.4976ZM19.456 21.5132H18.8219C18.7378 21.5132 18.6571 21.5489 18.5977 21.6124C18.5382 21.6759 18.5048 21.762 18.5048 21.8518C18.5048 21.9416 18.5382 22.0276 18.5977 22.0911C18.6571 22.1546 18.7378 22.1903 18.8219 22.1903H19.456C19.5401 22.1903 19.6208 22.1546 19.6803 22.0911C19.7397 22.0276 19.7731 21.9416 19.7731 21.8518C19.7731 21.762 19.7397 21.6759 19.6803 21.6124C19.6208 21.5489 19.5401 21.5132 19.456 21.5132Z" fill="#E69F69"/>
</svg>
