<svg width="25" height="25" viewBox="0 0 25 25" fill="none" xmlns="http://www.w3.org/2000/svg">
<path d="M13.3055 6.85449H8.54791C8.39026 6.85449 8.23896 6.92137 8.12742 7.04044C8.01588 7.15952 7.95325 7.32096 7.95325 7.48938C7.95325 7.65779 8.01588 7.81923 8.12742 7.93831C8.23896 8.05739 8.39026 8.12426 8.54791 8.12426H13.3055C13.4633 8.12426 13.6145 8.05739 13.726 7.93831C13.8375 7.81923 13.9002 7.65779 13.9002 7.48938C13.9002 7.32096 13.8375 7.15952 13.726 7.04044C13.6145 6.92137 13.4633 6.85449 13.3055 6.85449Z" fill="#514AF3"/>
<path d="M13.9003 10.4524C13.8982 10.2846 13.8349 10.1244 13.7238 10.0058C13.6127 9.88723 13.4627 9.81964 13.3056 9.81738H6.9621C6.80445 9.81738 6.65314 9.88426 6.5416 10.0033C6.43007 10.1224 6.36743 10.284 6.36743 10.4524C6.36743 10.6207 6.43007 10.7822 6.5416 10.9013C6.65314 11.0204 6.80445 11.0873 6.9621 11.0873H13.3056C13.4627 11.0851 13.6127 11.0174 13.7238 10.8988C13.8349 10.7803 13.8982 10.6201 13.9003 10.4524Z" fill="#514AF3"/>
<path d="M6.9621 12.7803C6.80445 12.7803 6.65314 12.8471 6.5416 12.9662C6.43007 13.0853 6.36743 13.2467 6.36743 13.4152C6.36743 13.5836 6.43007 13.7451 6.5416 13.8641C6.65314 13.9832 6.80445 14.0501 6.9621 14.0501H11.3232C11.481 14.0501 11.6323 13.9832 11.7438 13.8641C11.8552 13.7451 11.918 13.5836 11.918 13.4152C11.918 13.2467 11.8552 13.0853 11.7438 12.9662C11.6323 12.8471 11.481 12.7803 11.3232 12.7803H6.9621Z" fill="#514AF3"/>
<path d="M12.1556 17.5638C12.1401 17.5259 12.1145 17.4937 12.0822 17.4711C12.0497 17.4486 12.0118 17.4367 11.9731 17.4368H5.17771C5.07261 17.4368 4.97174 17.3922 4.89738 17.3128C4.82303 17.2335 4.78133 17.1258 4.78133 17.0135V4.73842C4.78133 4.62621 4.82303 4.51851 4.89738 4.43913C4.97174 4.35974 5.07261 4.31523 5.17771 4.31523H15.4859C15.591 4.31523 15.6918 4.35974 15.7662 4.43913C15.8405 4.51851 15.8823 4.62621 15.8823 4.73842V13.2633C15.8821 13.3046 15.8934 13.345 15.9145 13.3796C15.9357 13.4143 15.9657 13.4414 16.0013 13.458C16.0381 13.4748 16.0787 13.4796 16.1182 13.4721C16.1576 13.4646 16.1941 13.445 16.2233 13.4157L17.2382 12.3321C17.3831 12.1698 17.4653 11.9552 17.4681 11.731V4.31523C17.4681 3.86609 17.3011 3.43552 17.0036 3.11798C16.7062 2.80043 16.3029 2.62207 15.8823 2.62207H4.78133C4.36065 2.62207 3.95735 2.80043 3.65993 3.11798C3.3625 3.43552 3.19543 3.86609 3.19543 4.31523V17.4368C3.19543 17.8858 3.3625 18.3165 3.65993 18.634C3.95735 18.9516 4.36065 19.1299 4.78133 19.1299H11.0217C11.1064 19.1305 11.1891 19.1019 11.2576 19.0487C11.3261 18.9954 11.3768 18.92 11.4023 18.8336C11.4752 18.5692 11.6119 18.3298 11.7988 18.1395L12.1159 17.8008C12.1434 17.7697 12.1617 17.7307 12.1687 17.6886C12.1758 17.6465 12.1712 17.6032 12.1556 17.5638Z" fill="#E69F69"/>
<path d="M12.7592 19.6639C12.7337 19.6372 12.7019 19.6184 12.6671 19.6094C12.6324 19.6005 12.5961 19.6017 12.562 19.613C12.5279 19.6243 12.4972 19.6452 12.4733 19.6735C12.4494 19.7018 12.4332 19.7365 12.4262 19.7739L11.9187 22.4321C11.9071 22.5004 11.9111 22.5708 11.9305 22.637C11.9498 22.7034 11.9839 22.7637 12.0297 22.813C12.0651 22.8537 12.1081 22.886 12.1559 22.9079C12.2037 22.9298 12.2552 22.9407 12.3072 22.94H12.3865L14.8763 22.4067C14.9115 22.4002 14.9444 22.3833 14.971 22.3579C14.9976 22.3324 15.017 22.2994 15.0269 22.2628C15.0397 22.2265 15.0419 22.1869 15.0335 22.1492C15.025 22.1115 15.0062 22.0773 14.9794 22.0511L12.7592 19.6639Z" fill="#514AF3"/>
<path d="M21.6168 12.5855C21.4245 12.3792 21.1959 12.2155 20.9442 12.1038C20.6925 11.992 20.4225 11.9346 20.1499 11.9346C19.8772 11.9346 19.6074 11.992 19.3556 12.1038C19.1039 12.2155 18.8752 12.3792 18.683 12.5855L13.5051 18.0881C13.4672 18.1261 13.437 18.172 13.4163 18.223C13.3957 18.274 13.385 18.3288 13.385 18.3844C13.385 18.4399 13.3957 18.4949 13.4163 18.5459C13.437 18.5967 13.4672 18.6427 13.5051 18.6806L15.8839 21.2204C15.9195 21.2609 15.9625 21.2931 16.0103 21.3151C16.058 21.3372 16.1094 21.3486 16.1615 21.3486C16.2135 21.3486 16.265 21.3372 16.3127 21.3151C16.3603 21.2931 16.4034 21.2609 16.4389 21.2204L21.601 15.7177C21.7952 15.5135 21.9498 15.2704 22.0558 15.0022C22.1617 14.7341 22.2171 14.4462 22.2186 14.1551C22.22 13.864 22.1677 13.5755 22.0644 13.3062C21.9611 13.0368 21.809 12.7919 21.6168 12.5855Z" fill="#E69F69"/>
</svg>
