<svg width="25" height="25" viewBox="0 0 25 25" fill="none" xmlns="http://www.w3.org/2000/svg">
<path d="M16.2479 9.66817C16.593 9.66817 16.8728 9.36958 16.8728 9.00115C16.8728 8.63271 16.593 8.33398 16.2479 8.33398C15.9029 8.33398 15.623 8.63271 15.623 9.00115C15.623 9.36958 15.9029 9.66817 16.2479 9.66817Z" fill="#514AF3"/>
<path d="M21.246 3.4416C21.5911 3.4416 21.8709 3.14301 21.8709 2.77458C21.8709 2.40615 21.5911 2.10742 21.246 2.10742C20.9009 2.10742 20.6211 2.40615 20.6211 2.77458C20.6211 3.14301 20.9009 3.4416 21.246 3.4416Z" fill="#514AF3"/>
<path d="M22.4129 18.1184C19.4636 15.3877 12.8068 15.4499 12.7068 15.4499C11.7321 15.4538 10.7584 15.5193 9.79077 15.6457C9.69675 15.6491 9.60432 15.6184 9.5287 15.5586C9.45309 15.4989 9.39853 15.4135 9.37417 15.3165C9.11555 14.2716 8.9867 13.195 8.99094 12.1143C8.98472 10.9374 9.13912 9.76577 9.44912 8.63644C9.45958 8.60082 9.47799 8.56858 9.50262 8.54229C9.52725 8.51599 9.55757 8.49634 9.59081 8.48517C9.62431 8.47555 9.65967 8.47541 9.69317 8.48475C9.72681 8.49408 9.75753 8.5126 9.78242 8.53847L13.2984 11.8385C13.3587 11.8922 13.4309 11.9287 13.508 11.9445C13.5852 11.9605 13.6649 11.9553 13.7396 11.9296C13.8144 11.9038 13.8819 11.8584 13.9358 11.7974C13.9897 11.7364 14.0284 11.6618 14.0481 11.5806C14.141 10.931 14.0831 10.267 13.8797 9.64659C13.6764 9.02636 13.3337 8.46877 12.8818 8.02258C12.3923 7.47616 11.7864 7.06418 11.1155 6.82186C11.079 6.80475 11.0475 6.77761 11.024 6.74325C11.0006 6.70876 10.9861 6.66846 10.9822 6.62605C10.9778 6.58293 10.9857 6.53953 11.0051 6.50136C11.0244 6.46318 11.0542 6.43222 11.0905 6.41257L14.8396 4.21556C14.9195 4.17654 14.987 4.11391 15.0344 4.03502C15.0818 3.95627 15.107 3.86452 15.107 3.77078C15.107 3.67719 15.0818 3.58544 15.0344 3.50655C14.987 3.4278 14.9195 3.36517 14.8396 3.32615C14.2815 3.0868 13.6784 2.99109 13.0792 3.04665C12.48 3.10221 11.9014 3.30763 11.3904 3.64623C10.7455 4.01692 10.1961 4.55162 9.79077 5.20294C9.77289 5.23829 9.74641 5.26769 9.71423 5.28833C9.68192 5.30883 9.64497 5.31972 9.6075 5.31972C9.56989 5.31972 9.53307 5.30883 9.50076 5.28833C9.46845 5.26769 9.44197 5.23829 9.42422 5.20294C9.15951 4.48135 8.73338 3.83992 8.18277 3.33492C7.75571 2.87827 7.23317 2.53599 6.6582 2.33665C6.08322 2.13716 5.47223 2.08598 4.87514 2.18749C4.78668 2.20672 4.70524 2.25295 4.64089 2.32067C4.57653 2.38825 4.5319 2.47449 4.51257 2.56865C4.4931 2.66281 4.49972 2.76092 4.5315 2.85126C4.56342 2.94146 4.61904 3.01993 4.69187 3.07704L7.47458 5.66553C7.50808 5.69579 7.53178 5.73664 7.54224 5.78231C7.55271 5.82783 7.54926 5.87576 7.53271 5.9193C7.51603 5.96271 7.48689 5.99947 7.44955 6.02407C7.41221 6.04881 7.36851 6.06026 7.32468 6.05686C6.59874 6.01176 5.87333 6.15201 5.20844 6.46601C4.63479 6.70282 4.12351 7.08468 3.7187 7.57894C3.31375 8.07319 3.02733 8.665 2.88391 9.30346C2.872 9.3873 2.88074 9.47298 2.90907 9.55201C2.93754 9.63118 2.98469 9.70102 3.046 9.75488C3.10731 9.80861 3.18067 9.84452 3.25893 9.85894C3.33706 9.87336 3.41744 9.86586 3.49213 9.83716L7.15796 8.46736C7.19808 8.45237 7.24152 8.45067 7.28243 8.46269C7.32349 8.47485 7.36003 8.49987 7.38718 8.53479C7.41433 8.56957 7.43101 8.61255 7.43472 8.65765C7.43843 8.70289 7.42903 8.74827 7.40797 8.78758C6.48459 10.7102 6.01556 12.8447 6.04164 15.0052C6.04164 15.3698 6.04164 15.7346 6.04164 16.0992C6.04681 16.1975 6.02204 16.2947 5.97093 16.3766C5.91981 16.4585 5.84526 16.5202 5.75826 16.5529C4.75543 16.8861 3.82 17.4171 3.00058 18.1184C2.90907 18.2019 2.83571 18.3056 2.78539 18.4223C2.73507 18.539 2.70898 18.6659 2.70898 18.7944V19.7551C2.71163 19.7831 2.71971 19.8101 2.73255 19.8346C2.74553 19.859 2.76301 19.8805 2.78393 19.8975C2.81254 19.9123 2.84379 19.9201 2.87557 19.9201C2.90735 19.9201 2.93874 19.9123 2.96721 19.8975C3.15829 19.8746 3.3511 19.8746 3.54218 19.8975C3.95865 19.8975 4.22535 19.6484 4.67518 19.0879C4.90983 18.7889 5.20302 18.5484 5.53407 18.3833C5.86512 18.2183 6.22611 18.1328 6.59146 18.1328C6.95681 18.1328 7.31779 18.2183 7.64885 18.3833C7.9799 18.5484 8.27308 18.7889 8.50773 19.0879C8.96591 19.6751 9.23261 19.924 9.64908 19.924C10.0657 19.924 10.3406 19.6751 10.7822 19.1147C11.0169 18.8156 11.3099 18.575 11.6411 18.41C11.9721 18.245 12.333 18.1595 12.6985 18.1595C13.0638 18.1595 13.4248 18.245 13.7559 18.41C14.0869 18.575 14.3801 18.8156 14.6146 19.1147C15.0729 19.7018 15.3478 19.9508 15.7644 19.9508C16.181 19.9508 16.4476 19.7018 16.8892 19.1414C17.1238 18.8422 17.4169 18.6017 17.748 18.4368C18.079 18.2716 18.44 18.1861 18.8054 18.1861C19.1709 18.1861 19.5317 18.2716 19.8629 18.4368C20.194 18.6017 20.4871 18.8422 20.7217 19.1414C21.1882 19.7284 21.4549 19.9775 21.8715 19.9775C22.0649 19.9782 22.2577 20.0019 22.4463 20.0486C22.4748 20.0636 22.5062 20.0714 22.5379 20.0714C22.5697 20.0714 22.6011 20.0636 22.6296 20.0486C22.6538 20.0288 22.6732 20.0032 22.6863 19.9738C22.6992 19.9444 22.7056 19.9122 22.7045 19.8797V18.7944C22.7045 18.6659 22.6784 18.539 22.6281 18.4223C22.5778 18.3056 22.5044 18.2019 22.4129 18.1184Z" fill="#E69F69"/>
<path d="M21.8715 21.6763C21.3897 21.6481 20.9208 21.5008 20.5016 21.2461C20.0823 20.9914 19.7241 20.6362 19.4553 20.2087C19.372 20.1153 19.2719 20.0409 19.1608 19.9901C19.0498 19.9394 18.9304 19.9131 18.8096 19.9131C18.6888 19.9131 18.5693 19.9394 18.4583 19.9901C18.3473 20.0409 18.2472 20.1153 18.1639 20.2087C17.8972 20.6344 17.5418 20.9885 17.1255 21.2432C16.7093 21.4978 16.2434 21.6461 15.7644 21.6763C15.2816 21.6481 14.8115 21.5009 14.391 21.2463C13.9703 20.9917 13.6106 20.6365 13.3399 20.2087C13.2574 20.1155 13.158 20.0413 13.0477 19.9907C12.9374 19.9399 12.8186 19.9138 12.6985 19.9138C12.5784 19.9138 12.4595 19.9399 12.3492 19.9907C12.2388 20.0413 12.1394 20.1155 12.0569 20.2087C11.7885 20.6347 11.4315 20.9887 11.0138 21.2433C10.5963 21.4978 10.1292 21.6461 9.64908 21.6763C9.16746 21.6481 8.69855 21.5008 8.27931 21.2461C7.85993 20.9914 7.50186 20.6362 7.23304 20.2087C7.14975 20.1153 7.04951 20.0409 6.93854 19.9901C6.82757 19.9394 6.70812 19.9131 6.58735 19.9131C6.46658 19.9131 6.34701 19.9394 6.23604 19.9901C6.12507 20.0409 6.02483 20.1153 5.94166 20.2087C5.67497 20.6344 5.31955 20.9885 4.90321 21.2432C4.48688 21.4978 4.02102 21.6461 3.54218 21.6763C3.32117 21.6763 3.1093 21.7701 2.95304 21.9369C2.79678 22.1037 2.70898 22.3299 2.70898 22.5659C2.70898 22.8017 2.79678 23.0279 2.95304 23.1947C3.1093 23.3616 3.32117 23.4553 3.54218 23.4553C4.56567 23.4533 5.55513 23.0624 6.33324 22.3524C6.40514 22.283 6.49863 22.2445 6.59556 22.2445C6.69263 22.2445 6.78612 22.283 6.85802 22.3524C7.6356 23.0633 8.62546 23.454 9.64908 23.454C10.6728 23.454 11.6627 23.0633 12.4401 22.3524C12.5143 22.2841 12.609 22.2465 12.7068 22.2465C12.8047 22.2465 12.8992 22.2841 12.9734 22.3524C13.7487 23.0643 14.7375 23.4559 15.7602 23.4559C16.783 23.4559 17.7718 23.0643 18.5472 22.3524C18.6213 22.2841 18.7159 22.2465 18.8137 22.2465C18.9116 22.2465 19.0063 22.2841 19.0804 22.3524C19.8577 23.0637 20.8476 23.455 21.8715 23.4553C22.0924 23.4553 22.3044 23.3616 22.4605 23.1947C22.6167 23.0279 22.7045 22.8017 22.7045 22.5659C22.7045 22.3299 22.6167 22.1037 22.4605 21.9369C22.3044 21.7701 22.0924 21.6763 21.8715 21.6763Z" fill="#514AF3"/>
</svg>
