<svg width="25" height="25" viewBox="0 0 25 25" fill="none" xmlns="http://www.w3.org/2000/svg">
<g clip-path="url(#clip0_7_311)">
<mask id="mask0_7_311" style="mask-type:luminance" maskUnits="userSpaceOnUse" x="0" y="0" width="25" height="25">
<path d="M24.8418 0.78125H0.841797V24.7812H24.8418V0.78125Z" fill="white"/>
</mask>
<g mask="url(#mask0_7_311)">
<mask id="mask1_7_311" style="mask-type:luminance" maskUnits="userSpaceOnUse" x="0" y="0" width="25" height="25">
<path d="M24.8418 0.78125H0.841797V24.7812H24.8418V0.78125Z" fill="white"/>
</mask>
<g mask="url(#mask1_7_311)">
<path d="M6.8418 1.53125C8.21575 1.53125 9.20375 1.60438 9.90265 1.6956C11.1523 1.8587 11.9513 2.85294 12.0231 4.03444C12.0616 4.66879 12.0918 5.55612 12.0918 6.78125C12.0918 8.0064 12.0616 8.8937 12.0231 9.52805C11.9513 10.7096 11.1523 11.7039 9.90265 11.867C9.20375 11.9582 8.21575 12.0312 6.8418 12.0312C5.46785 12.0312 4.47984 11.9582 3.78093 11.867C2.53126 11.7039 1.73224 10.7096 1.66047 9.52805C1.62194 8.8937 1.5918 8.0064 1.5918 6.78125C1.5918 5.55612 1.62194 4.66879 1.66047 4.03444C1.73224 2.85294 2.53126 1.8587 3.78093 1.6956C4.47984 1.60438 5.46785 1.53125 6.8418 1.53125Z" fill="#514AF3"/>
<path d="M6.8418 13.5312C5.46785 13.5312 4.47984 13.6043 3.78093 13.6955C2.53126 13.8586 1.73224 14.8529 1.66047 16.0344C1.62194 16.6687 1.5918 17.556 1.5918 18.7812C1.5918 20.0065 1.62194 20.8936 1.66047 21.528C1.73224 22.7095 2.53126 23.7037 3.78093 23.8668C4.47984 23.958 5.46785 24.0312 6.8418 24.0312C8.21575 24.0312 9.20375 23.958 9.90265 23.8668C11.1523 23.7037 11.9513 22.7095 12.0231 21.528C12.0616 20.8936 12.0918 20.0065 12.0918 18.7812C12.0918 17.556 12.0616 16.6687 12.0231 16.0344C11.9513 14.8529 11.1523 13.8586 9.90265 13.6955C9.20375 13.6043 8.21575 13.5312 6.8418 13.5312Z" fill="#514AF3"/>
<path d="M18.8418 24.0312C20.2158 24.0312 21.2037 23.958 21.9027 23.8668C23.1523 23.7037 23.9514 22.7095 24.0232 21.528C24.0617 20.8936 24.0918 20.0065 24.0918 18.7812C24.0918 17.556 24.0617 16.6687 24.0232 16.0344C23.9514 14.8529 23.1523 13.8586 21.9027 13.6955C21.2037 13.6043 20.2158 13.5312 18.8418 13.5312C17.4678 13.5312 16.4798 13.6043 15.7809 13.6955C14.5312 13.8586 13.7323 14.8529 13.6605 16.0344C13.622 16.6687 13.5918 17.556 13.5918 18.7812C13.5918 20.0065 13.622 20.8936 13.6605 21.528C13.7323 22.7095 14.5312 23.7037 15.7809 23.8668C16.4798 23.958 17.4678 24.0312 18.8418 24.0312Z" fill="#514AF3"/>
<path d="M18.8418 1.53125C17.4678 1.53125 16.4798 1.60438 15.7809 1.6956C14.5312 1.8587 13.7323 2.85294 13.6605 4.03444C13.622 4.66879 13.5918 5.55612 13.5918 6.78125C13.5918 8.0064 13.622 8.8937 13.6605 9.52805C13.7323 10.7096 14.5312 11.7039 15.7809 11.867C16.4798 11.9582 17.4678 12.0312 18.8418 12.0312C20.2158 12.0312 21.2037 11.9582 21.9027 11.867C23.1523 11.7039 23.9514 10.7096 24.0232 9.52805C24.0617 8.8937 24.0918 8.0064 24.0918 6.78125C24.0918 5.55612 24.0617 4.66879 24.0232 4.03444C23.9514 2.85294 23.1523 1.8587 21.9027 1.6956C21.2037 1.60438 20.2158 1.53125 18.8418 1.53125Z" fill="#514AF3"/>
<path fill-rule="evenodd" clip-rule="evenodd" d="M9.3418 6.78085C9.3418 7.19505 9.006 7.53085 8.5918 7.53085H7.61335L7.64095 8.5087C7.65265 8.92275 7.32645 9.26785 6.9124 9.27955C6.49835 9.29125 6.15325 8.9651 6.14155 8.55105L6.11275 7.53085H5.0918C4.67759 7.53085 4.3418 7.19505 4.3418 6.78085C4.3418 6.36665 4.67759 6.03085 5.0918 6.03085H6.0704L6.0428 5.05242C6.0311 4.63837 6.35725 4.29324 6.7713 4.28155C7.18535 4.26986 7.5305 4.59604 7.5422 5.01009L7.571 6.03085H8.5918C9.006 6.03085 9.3418 6.36665 9.3418 6.78085Z" fill="#E69F69"/>
<path fill-rule="evenodd" clip-rule="evenodd" d="M8.87229 16.7511C9.16519 17.044 9.16519 17.5189 8.87229 17.8118L7.90264 18.7813L8.87219 19.751C9.16509 20.0439 9.16509 20.5187 8.87219 20.8116C8.57929 21.1045 8.10439 21.1045 7.81154 20.8116L6.84194 19.8421L5.87224 20.8118C5.57934 21.1047 5.10447 21.1047 4.81158 20.8118C4.51868 20.5189 4.51868 20.0441 4.81158 19.7512L5.78131 18.7813L4.81146 17.8116C4.51857 17.5187 4.51857 17.0438 4.81146 16.7509C5.10436 16.458 5.57923 16.458 5.87214 16.7509L6.84194 17.7208L7.81164 16.7511C8.10454 16.4582 8.57939 16.4582 8.87229 16.7511Z" fill="#E69F69"/>
<path fill-rule="evenodd" clip-rule="evenodd" d="M20.5918 21.0312C21.006 21.0312 21.3418 20.6955 21.3418 20.2812C21.3418 19.867 21.006 19.5312 20.5918 19.5312H17.0918C16.6776 19.5312 16.3418 19.867 16.3418 20.2812C16.3418 20.6955 16.6776 21.0312 17.0918 21.0312H20.5918Z" fill="#E69F69"/>
<path d="M21.3418 17.2812C21.3418 17.6955 21.006 18.0312 20.5918 18.0312H17.0918C16.6776 18.0312 16.3418 17.6955 16.3418 17.2812C16.3418 16.867 16.6776 16.5312 17.0918 16.5312H20.5918C21.006 16.5312 21.3418 16.867 21.3418 17.2812Z" fill="#E69F69"/>
<path fill-rule="evenodd" clip-rule="evenodd" d="M20.5918 7.53125C21.006 7.53125 21.3418 7.19545 21.3418 6.78125C21.3418 6.36705 21.006 6.03125 20.5918 6.03125H17.0918C16.6776 6.03125 16.3418 6.36705 16.3418 6.78125C16.3418 7.19545 16.6776 7.53125 17.0918 7.53125H20.5918Z" fill="#E69F69"/>
</g>
</g>
</g>
<defs>
<clipPath id="clip0_7_311">
<rect width="24" height="24" fill="white" transform="translate(0.841797 0.78125)"/>
</clipPath>
</defs>
</svg>
