<svg width="25" height="25" viewBox="0 0 25 25" fill="none" xmlns="http://www.w3.org/2000/svg">
<path d="M17.4867 9.77439C18.2753 9.77832 19.037 9.46792 19.6225 8.90373C20.208 8.33955 20.5752 7.56236 20.6521 6.72429C20.6566 6.69058 20.6523 6.65621 20.6398 6.62498C20.6271 6.59363 20.6068 6.56667 20.5808 6.5469C20.5535 6.52892 20.522 6.51949 20.4898 6.51949C20.4577 6.51949 20.4263 6.52892 20.3989 6.5469C19.7873 6.74136 19.1534 6.84371 18.5154 6.85101C17.8318 6.85618 17.1547 6.70845 16.5278 6.41748C15.9008 6.1264 15.3379 5.69849 14.8751 5.16127C14.8627 5.12711 14.8409 5.09757 14.8128 5.07656C14.7846 5.05544 14.7512 5.04376 14.7168 5.04297C14.6832 5.04713 14.6514 5.06117 14.6247 5.08353C14.5982 5.10588 14.578 5.13576 14.5664 5.16969C14.4157 5.55873 14.3325 5.97395 14.3212 6.39479C14.3212 7.29105 14.6546 8.1507 15.2483 8.78454C15.842 9.41826 16.6471 9.77439 17.4867 9.77439Z" fill="#E69F69"/>
<path d="M20.5255 5.54886C20.3832 4.97502 20.1019 4.45139 19.7098 4.03055C19.3178 3.60972 18.8289 3.30651 18.2922 3.15147C17.7554 2.99644 17.1901 2.99509 16.6527 3.14743C16.1154 3.29988 15.6251 3.60073 15.2313 4.01966C15.1973 4.05864 15.1785 4.10998 15.1785 4.16323C15.1785 4.21648 15.1973 4.26782 15.2313 4.30692C16.6162 5.95442 18.3018 6.39379 20.5255 5.54886Z" fill="#514AF3"/>
<path d="M17.4861 10.1963C16.3324 10.1985 15.2266 10.6888 14.4108 11.5598C13.595 12.4308 13.1358 13.6114 13.1337 14.8432V17.8003C13.1337 17.9123 13.1753 18.0198 13.2495 18.099C13.3238 18.1782 13.4244 18.2227 13.5293 18.2227H14.9618C15.0115 18.2226 15.0596 18.2425 15.0963 18.2785C15.133 18.3145 15.1556 18.364 15.1596 18.4171L15.5078 22.9035C15.5158 23.0095 15.5609 23.1085 15.6343 23.1805C15.7076 23.2525 15.8038 23.2924 15.9034 23.292H19.0689C19.1686 23.2924 19.2648 23.2525 19.3381 23.1805C19.4114 23.1085 19.4566 23.0095 19.4646 22.9035L19.8128 18.4171C19.8168 18.364 19.8394 18.3145 19.876 18.2785C19.9127 18.2425 19.9608 18.2226 20.0106 18.2227H21.443C21.5479 18.2227 21.6485 18.1782 21.7228 18.099C21.797 18.0198 21.8387 17.9123 21.8387 17.8003V14.8432C21.8366 13.6114 21.3774 12.4308 20.5616 11.5598C19.7457 10.6888 18.6399 10.1985 17.4861 10.1963Z" fill="#514AF3"/>
<path d="M15.6083 17.4001H13.9544C13.919 17.3993 13.8843 17.3889 13.8538 17.3695C13.8234 17.3503 13.798 17.323 13.7803 17.2902C13.763 17.2566 13.7539 17.2188 13.7539 17.1803C13.7539 17.142 13.763 17.1042 13.7803 17.0706L14.5716 15.7526C14.6644 15.667 14.7372 15.5595 14.7844 15.4387C14.8316 15.3179 14.8518 15.1871 14.8436 15.0564C14.8353 14.9259 14.7988 14.7991 14.7367 14.6861C14.6747 14.5732 14.589 14.4773 14.4864 14.4057C14.3837 14.3343 14.2668 14.2892 14.145 14.2742C14.0232 14.2591 13.8999 14.2745 13.7845 14.319C13.6693 14.3636 13.5653 14.4362 13.4807 14.531C13.3963 14.6258 13.3335 14.7403 13.2975 14.8654L11.7148 17.3494C11.6771 17.3829 11.6294 17.4009 11.5803 17.4001H9.13492C8.9673 17.3949 8.80073 17.4304 8.64783 17.504C8.49494 17.5775 8.35962 17.6871 8.25219 17.8246C8.14475 17.9621 8.06794 18.1239 8.02763 18.2977C7.98723 18.4715 7.98428 18.6528 8.01911 18.828L8.63637 22.1484C8.6994 22.4821 8.87018 22.7817 9.11893 22.9949C9.36768 23.208 9.67863 23.321 9.99757 23.3142H14.7458C15.0606 23.315 15.366 23.1993 15.6098 22.9867C15.8536 22.7741 16.0209 22.4779 16.0832 22.1484L16.7241 18.828C16.759 18.6528 16.7561 18.4715 16.7157 18.2977C16.6753 18.1239 16.5985 17.9621 16.491 17.8246C16.3836 17.6871 16.2484 17.5775 16.0955 17.504C15.9425 17.4304 15.7759 17.3949 15.6083 17.4001ZM14.7458 21.2021C14.7458 21.3141 14.7041 21.4216 14.6298 21.5008C14.5556 21.58 14.455 21.6245 14.35 21.6245C14.2451 21.6245 14.1445 21.58 14.0703 21.5008C13.996 21.4216 13.9544 21.3141 13.9544 21.2021V19.5122C13.9544 19.4002 13.996 19.2928 14.0703 19.2136C14.1445 19.1343 14.2451 19.0898 14.35 19.0898C14.455 19.0898 14.5556 19.1343 14.6298 19.2136C14.7041 19.2928 14.7458 19.4002 14.7458 19.5122V21.2021ZM10.789 19.5122V21.2021C10.789 21.3141 10.7472 21.4216 10.673 21.5008C10.5988 21.58 10.4982 21.6245 10.3932 21.6245C10.2883 21.6245 10.1876 21.58 10.1134 21.5008C10.0392 21.4216 9.99757 21.3141 9.99757 21.2021V19.5122C9.99757 19.4002 10.0392 19.2928 10.1134 19.2136C10.1876 19.1343 10.2883 19.0898 10.3932 19.0898C10.4982 19.0898 10.5988 19.1343 10.673 19.2136C10.7472 19.2928 10.789 19.4002 10.789 19.5122ZM11.976 19.5122C11.976 19.4002 12.0177 19.2928 12.0919 19.2136C12.1661 19.1343 12.2668 19.0898 12.3717 19.0898C12.4766 19.0898 12.5773 19.1343 12.6515 19.2136C12.7256 19.2928 12.7673 19.4002 12.7673 19.5122V21.2021C12.7673 21.3141 12.7256 21.4216 12.6515 21.5008C12.5773 21.58 12.4766 21.6245 12.3717 21.6245C12.2668 21.6245 12.1661 21.58 12.0919 21.5008C12.0177 21.4216 11.976 21.3141 11.976 21.2021V19.5122Z" fill="#E69F69"/>
<mask id="mask0_7_79" style="mask-type:luminance" maskUnits="userSpaceOnUse" x="3" y="2" width="11" height="11">
<path d="M13.1516 2.24805H3.57605V12.4712H13.1516V2.24805Z" fill="white"/>
</mask>
<g mask="url(#mask0_7_79)">
<path d="M9.04395 6.08128L7.26848 5.15266C7.15241 5.09356 7.0192 5.08536 6.89756 5.12996C6.77602 5.17456 6.67564 5.26837 6.61808 5.39127L6.53832 5.56585C6.49791 5.6564 6.47508 5.75481 6.47118 5.85502C6.46729 5.95523 6.48234 6.05533 6.51548 6.14913C6.54863 6.24305 6.59924 6.32877 6.66417 6.40134C6.72909 6.4738 6.80706 6.53155 6.89345 6.57109L7.50387 6.89913L9.04395 6.08128Z" fill="#514AF3"/>
<path d="M9.22298 5.71545L9.45837 5.84318C9.51477 5.65321 9.50057 5.44728 9.41849 5.26821L9.33862 5.09352C9.28043 4.97039 9.1791 4.8767 9.05662 4.83288C8.93414 4.78896 8.80029 4.79851 8.68433 4.85928L8.13379 5.14036L9.22298 5.71545Z" fill="#E69F69"/>
<path d="M11.4537 8.66709L10.4324 6.4435C10.3513 6.266 10.208 6.12972 10.0334 6.06445L7.73926 7.25708C7.89752 7.49379 7.99443 7.77071 8.02042 8.06022C8.04631 8.34961 8.00022 8.64125 7.88689 8.90559L7.37612 10.0898C7.28973 10.2929 7.1662 10.4756 7.01267 10.627C6.85925 10.7785 6.6789 10.8955 6.48244 10.9716C6.2883 11.0441 6.08258 11.075 5.87718 11.0627C5.67178 11.0502 5.4708 10.9946 5.2855 10.8991L5.14986 10.8267L4.4237 11.7809C4.37709 11.8438 4.34815 11.9195 4.34005 11.9993C4.33205 12.079 4.3452 12.1596 4.37814 12.2317C4.41107 12.3037 4.46242 12.3645 4.52619 12.4069C4.59006 12.4491 4.66372 12.4713 4.73885 12.4709H7.26848C7.32909 12.4712 7.38896 12.4569 7.44357 12.4289C7.49818 12.4008 7.54606 12.3598 7.58363 12.309L8.52919 11.0311L11.1545 9.66379C11.317 9.57302 11.4395 9.41743 11.4955 9.23094C11.5516 9.04445 11.5365 8.8419 11.4537 8.66709Z" fill="#E69F69"/>
<path d="M11.1537 10.2266L12.2907 11.7813C12.3365 11.8431 12.3653 11.9172 12.3741 11.9955C12.3828 12.0738 12.3709 12.1531 12.3399 12.2246C12.3089 12.2961 12.2599 12.357 12.1984 12.4006C12.1369 12.4442 12.0652 12.4687 11.9915 12.4714H9.45395C9.39334 12.4717 9.33347 12.4573 9.27886 12.4293C9.22425 12.4012 9.17637 12.3603 9.1388 12.3095L8.57227 11.5342L11.1537 10.2266Z" fill="#514AF3"/>
<path d="M8.36164 2.24805C8.28261 2.24917 8.20706 2.28321 8.15119 2.34286C8.09531 2.40252 8.06343 2.48318 8.06238 2.56755V3.41944C8.06238 3.50415 8.09394 3.58548 8.15003 3.64536C8.20612 3.70524 8.2823 3.73894 8.36164 3.73894C8.44098 3.73894 8.51716 3.70524 8.57325 3.64536C8.62933 3.58548 8.6609 3.50415 8.6609 3.41944V2.56755C8.65985 2.48318 8.62797 2.40252 8.57209 2.34286C8.51622 2.28321 8.44066 2.24917 8.36164 2.24805Z" fill="#514AF3"/>
<path d="M12.3818 4.16085C12.3257 4.10097 12.2496 4.06738 12.1703 4.06738C12.0911 4.06738 12.015 4.10097 11.9589 4.16085L11.3924 4.7657C11.3628 4.79559 11.3392 4.83154 11.3231 4.87153C11.3069 4.91141 11.2987 4.95444 11.2987 4.99792C11.2987 5.04139 11.3069 5.08431 11.3231 5.1243C11.3392 5.16418 11.3628 5.20013 11.3924 5.23002C11.4493 5.28843 11.5247 5.32191 11.6038 5.32371C11.683 5.32281 11.7586 5.28922 11.8153 5.23002L12.3818 4.62516C12.4114 4.59528 12.4349 4.55933 12.451 4.51934C12.4671 4.47946 12.4754 4.43643 12.4754 4.39295C12.4754 4.34959 12.4671 4.30656 12.451 4.26657C12.4349 4.22669 12.4114 4.19073 12.3818 4.16085Z" fill="#514AF3"/>
<path d="M4.77011 4.16097C4.71402 4.09997 4.63753 4.06525 4.55745 4.06447C4.47737 4.06368 4.40035 4.09682 4.34321 4.1567C4.28607 4.21658 4.25356 4.29825 4.25282 4.38375C4.25208 4.46924 4.28313 4.55159 4.33921 4.61259L4.90575 5.23013C4.96225 5.28934 5.03801 5.32293 5.11725 5.32394C5.19617 5.32203 5.27172 5.28866 5.32865 5.23013C5.38473 5.17025 5.4162 5.08903 5.4162 5.00444C5.4162 4.91973 5.38473 4.83851 5.32865 4.77863L4.77011 4.16097Z" fill="#514AF3"/>
<path d="M4.60287 9.24241C4.52164 9.42036 4.50869 9.62516 4.56699 9.81322C4.59698 9.90568 4.6437 9.99095 4.70462 10.0641C4.76555 10.1372 4.83952 10.1966 4.92212 10.2391L5.44078 10.5118C5.58284 10.5895 5.73836 10.635 5.89778 10.6453C6.05709 10.6556 6.21672 10.6304 6.36645 10.5714C6.65435 10.4521 6.88659 10.2164 7.01275 9.91545L7.51152 8.73125C7.63558 8.43793 7.64789 8.10449 7.54593 7.80162C7.44386 7.49874 7.23551 7.25013 6.96487 7.10824L6.49009 6.8612C6.32584 6.77694 6.13717 6.76503 5.9647 6.82795C5.79234 6.89086 5.64997 7.02376 5.56842 7.19778L4.60287 9.24241Z" fill="#514AF3"/>
</g>
</svg>
