<svg width="25" height="25" viewBox="0 0 25 25" fill="none" xmlns="http://www.w3.org/2000/svg">
<path d="M14.0113 2.07812C13.6869 2.07812 13.4239 2.36045 13.4239 2.70879V6.03923C13.3745 6.05855 13.321 6.07971 13.264 6.10306C12.9035 6.25026 12.3943 6.47992 11.786 6.81365C11.0215 7.23295 10.0986 7.81762 9.11719 8.61101C10.364 8.6025 11.9892 8.59572 14.0113 8.59572C16.0335 8.59572 17.6588 8.6025 18.9057 8.61101C17.9242 7.81762 17.0013 7.23283 16.2368 6.81354C15.6283 6.4798 15.1191 6.25026 14.7587 6.10306C14.7016 6.07971 14.6482 6.05844 14.5988 6.03923V5.44203H17.1444C17.3393 5.44203 17.5215 5.33818 17.6308 5.16488C17.7401 4.99157 17.7622 4.77134 17.6898 4.57699L17.3855 3.76002L17.6898 2.94305C17.7622 2.74881 17.7401 2.52859 17.6308 2.35528C17.5215 2.18197 17.3393 2.07812 17.1444 2.07812H14.0113Z" fill="#E69F69"/>
<path d="M11.4012 2.07812C11.7256 2.07812 11.9886 2.36045 11.9886 2.70879V6.03923C12.0381 6.05855 14.5342 6.01589 14.5913 6.03923C14.9517 6.18644 15.6034 6.47992 16.2117 6.81365C16.9762 7.23295 17.8991 7.81762 18.8805 8.61101C17.6337 8.6025 13.4233 8.59572 11.4012 8.59572C9.37898 8.59572 7.75376 8.6025 6.50684 8.61101C7.48835 7.81762 8.41126 7.23283 9.17572 6.81354C9.78421 6.4798 10.2934 6.25026 10.6538 6.10306C10.7109 6.07971 10.7643 6.05844 10.8138 6.03923V5.44203H8.2681C8.07325 5.44203 7.89099 5.33818 7.78177 5.16488C7.67243 4.99157 7.65035 4.77134 7.72274 4.57699L8.02703 3.76002L7.72274 2.94305C7.65035 2.74881 7.67243 2.52859 7.78177 2.35528C7.89099 2.18197 8.07325 2.07812 8.2681 2.07812H11.4012Z" fill="#514AF3"/>
<path fill-rule="evenodd" clip-rule="evenodd" d="M2.2041 11.3534C2.2041 10.9545 2.29792 10.6448 2.40898 10.4232C2.62753 9.98722 3.0319 9.87383 3.29419 9.87118C4.02569 9.86382 7.06771 9.83691 12.7064 9.83691C18.3452 9.83691 21.3872 9.86382 22.1187 9.87118C22.381 9.87383 22.7852 9.98722 23.0039 10.4232C23.115 10.6448 23.2088 10.9545 23.2088 11.3534C23.2088 11.7524 23.115 12.0622 23.0039 12.2837C22.7852 12.7198 22.381 12.833 22.1187 12.8358C22.0412 12.8365 21.938 12.8375 21.8085 12.8387V20.4843C21.938 20.4855 22.0412 20.4865 22.1187 20.4872C22.381 20.49 22.7852 20.6032 23.0039 21.0393C23.115 21.2608 23.2088 21.5706 23.2088 21.9696C23.2088 22.3685 23.115 22.6782 23.0039 22.8998C22.7852 23.3358 22.381 23.4492 22.1187 23.4518C21.3872 23.4592 18.3452 23.4861 12.7064 23.4861C7.06771 23.4861 4.02569 23.4592 3.29419 23.4518C3.0319 23.4492 2.62753 23.3358 2.40898 22.8998C2.29792 22.6782 2.2041 22.3685 2.2041 21.9696C2.2041 21.5706 2.29792 21.2608 2.40898 21.0393C2.62753 20.6032 3.0319 20.49 3.29419 20.4872C3.37164 20.4865 3.47494 20.4855 3.60441 20.4843V12.8387C3.47494 12.8375 3.37164 12.8365 3.29419 12.8358C3.0319 12.833 2.62753 12.7198 2.40898 12.2837C2.29792 12.0622 2.2041 11.7524 2.2041 11.3534ZM14.1067 20.2002C14.4933 20.2002 14.8069 19.8609 14.8069 19.4421V16.4081C14.8069 15.4308 14.0753 14.6394 13.1732 14.6394H12.2397C11.3376 14.6394 10.606 15.4308 10.606 16.4081V19.4421C10.606 19.8609 10.9195 20.2002 11.3061 20.2002H14.1067ZM7.10519 13.1229C7.62083 13.1229 8.03877 13.5755 8.03877 14.1338V19.1892C8.03877 19.7475 7.62083 20.2002 7.10519 20.2002C6.58955 20.2002 6.17161 19.7475 6.17161 19.1892V14.1338C6.17161 13.5755 6.58955 13.1229 7.10519 13.1229ZM17.3741 14.1338C17.3741 13.5755 17.792 13.1229 18.3077 13.1229C18.8233 13.1229 19.2413 13.5755 19.2413 14.1338V19.1892C19.2413 19.7475 18.8233 20.2002 18.3077 20.2002C17.792 20.2002 17.3741 19.7475 17.3741 19.1892V14.1338Z" fill="#514AF3"/>
</svg>
