<svg width="25" height="25" viewBox="0 0 25 25" fill="none" xmlns="http://www.w3.org/2000/svg">
<path d="M19.7459 1.88086H12.3668C12.1366 1.88086 11.9158 1.97657 11.753 2.14695C11.5902 2.31732 11.4987 2.54832 11.4987 2.78918C11.4987 3.03018 11.5902 3.26118 11.753 3.43156C11.9158 3.60193 12.1366 3.69765 12.3668 3.69765H16.7076C16.7424 3.69825 16.7767 3.70661 16.8081 3.72229C16.8396 3.73797 16.8674 3.76051 16.8898 3.78844C16.9045 3.82114 16.9122 3.85683 16.9122 3.89296C16.9122 3.92895 16.9045 3.96463 16.8898 3.99734C16.7726 4.33839 16.7109 4.69765 16.7076 5.06021V20.4207V20.4843C16.6983 20.8673 16.5441 21.2309 16.2786 21.4949C16.0133 21.7589 15.6586 21.9018 15.2924 21.8923C14.9264 21.8826 14.579 21.7212 14.3266 21.4436C14.0742 21.1658 13.9376 20.7946 13.9468 20.4116C13.9468 19.7122 14.4938 19.1218 14.815 19.1218C15.0452 19.1218 15.266 19.0261 15.4288 18.8557C15.5916 18.6853 15.6831 18.4543 15.6831 18.2133C15.6831 17.9724 15.5916 17.7414 15.4288 17.5711C15.266 17.4007 15.0452 17.305 14.815 17.305H6.72395C6.668 17.3026 6.615 17.2777 6.57612 17.2354C6.53723 17.193 6.51555 17.1365 6.51569 17.0779V16.6236C6.51569 16.3828 6.42423 16.1518 6.26143 15.9814C6.09863 15.811 5.87778 15.7153 5.64757 15.7153C5.41722 15.7153 5.19652 15.811 5.03372 15.9814C4.87092 16.1518 4.77945 16.3828 4.77945 16.6236V17.3232C4.77875 17.3708 4.76421 17.4171 4.73791 17.4561C4.71148 17.4951 4.67455 17.5246 4.63176 17.5412C3.96965 17.7994 3.4144 18.2917 3.06251 18.9329C2.71048 19.5741 2.58376 20.3238 2.70432 21.0525C2.82488 21.7812 3.18503 22.4427 3.72251 22.9229C4.25986 23.403 4.94085 23.6714 5.64757 23.6817H14.7629C16.4297 23.6817 18.4438 22.2556 18.4438 20.5024V8.2394C18.4434 8.20192 18.4519 8.16474 18.4686 8.13144C18.4852 8.09814 18.5096 8.06977 18.5393 8.04872C18.57 8.03125 18.6042 8.02199 18.6391 8.02199C18.674 8.02199 18.7083 8.03125 18.7389 8.04872C19.1543 8.19819 19.5959 8.25149 20.0328 8.20476C20.4699 8.15802 20.8918 8.01243 21.2697 7.77815C21.6476 7.54371 21.9722 7.22611 22.2212 6.84743C22.47 6.46875 22.6373 6.03796 22.7113 5.58492C22.7853 5.13173 22.7641 4.66734 22.6496 4.22356C22.5349 3.77992 22.3295 3.36765 22.0474 3.01525C21.7653 2.66285 21.4134 2.37899 21.016 2.18309C20.6185 1.98718 20.1852 1.88414 19.7459 1.88086ZM12.6968 21.5653C12.7113 21.5963 12.7188 21.6305 12.7188 21.6652C12.7188 21.6998 12.7113 21.734 12.6968 21.7651C12.6786 21.7961 12.6531 21.8216 12.6226 21.8391C12.5921 21.8567 12.5579 21.8655 12.5232 21.865H5.64757C5.30211 21.865 4.97092 21.7215 4.72672 21.466C4.48252 21.2103 4.34532 20.8638 4.34532 20.5024C4.34532 20.141 4.48252 19.7945 4.72672 19.539C4.97092 19.2835 5.30211 19.1398 5.64757 19.1398H12.4797C12.5145 19.1392 12.5488 19.1482 12.5793 19.1657C12.6096 19.1833 12.6352 19.2088 12.6534 19.2397C12.6679 19.2709 12.6755 19.3051 12.6755 19.3398C12.6755 19.3744 12.6679 19.4086 12.6534 19.4397C12.4216 20.1275 12.4216 20.8775 12.6534 21.5653H12.6968ZM19.7459 6.42276C19.4884 6.42276 19.2367 6.34272 19.0226 6.1931C18.8084 6.04333 18.6414 5.83055 18.543 5.58163C18.4444 5.33257 18.4185 5.05871 18.4689 4.79426C18.5191 4.52997 18.6431 4.28717 18.8252 4.09664C19.0073 3.9061 19.2393 3.77634 19.4919 3.72378C19.7445 3.67122 20.0064 3.69825 20.2443 3.80128C20.4823 3.90446 20.6857 4.07902 20.8287 4.30315C20.9718 4.52728 21.0482 4.79068 21.0482 5.06021C21.0482 5.42156 20.911 5.76814 20.6668 6.02362C20.4226 6.27911 20.0914 6.42276 19.7459 6.42276Z" fill="#514AF3"/>
<path d="M14.0646 5.97266H2.8464C2.76916 5.97266 2.70654 6.03951 2.70654 6.12198V6.73264C2.70654 6.8151 2.76916 6.88196 2.8464 6.88196H14.0646C14.1419 6.88196 14.2045 6.8151 14.2045 6.73264V6.12198C14.2045 6.03951 14.1419 5.97266 14.0646 5.97266Z" fill="#E69F69"/>
<path d="M12.3612 7.79102H2.8464C2.76916 7.79102 2.70654 7.85787 2.70654 7.94034V8.551C2.70654 8.63346 2.76916 8.70032 2.8464 8.70032H12.3612C12.4385 8.70032 12.5011 8.63346 12.5011 8.551V7.94034C12.5011 7.85787 12.4385 7.79102 12.3612 7.79102Z" fill="#E69F69"/>
<path d="M14.0646 9.61035H2.8464C2.76916 9.61035 2.70654 9.6772 2.70654 9.75967V10.3703C2.70654 10.4528 2.76916 10.5197 2.8464 10.5197H14.0646C14.1419 10.5197 14.2045 10.4528 14.2045 10.3703V9.75967C14.2045 9.6772 14.1419 9.61035 14.0646 9.61035Z" fill="#E69F69"/>
<path d="M15.3422 11.4287H2.8464C2.76916 11.4287 2.70654 11.4956 2.70654 11.578V12.1887C2.70654 12.2712 2.76916 12.338 2.8464 12.338H15.3422C15.4194 12.338 15.482 12.2712 15.482 12.1887V11.578C15.482 11.4956 15.4194 11.4287 15.3422 11.4287Z" fill="#E69F69"/>
<path d="M8.95442 13.2471H2.8464C2.76916 13.2471 2.70654 13.3139 2.70654 13.3964V14.0071C2.70654 14.0895 2.76916 14.1564 2.8464 14.1564H8.95442C9.03167 14.1564 9.09429 14.0895 9.09429 14.0071V13.3964C9.09429 13.3139 9.03167 13.2471 8.95442 13.2471Z" fill="#E69F69"/>
<path d="M14.844 15.4451C15.1582 15.4451 15.4128 15.1732 15.4128 14.8378C15.4128 14.5024 15.1582 14.2305 14.844 14.2305C14.5298 14.2305 14.2751 14.5024 14.2751 14.8378C14.2751 15.1732 14.5298 15.4451 14.844 15.4451Z" stroke="#514AF3"/>
</svg>
