<svg width="25" height="25" viewBox="0 0 25 25" fill="none" xmlns="http://www.w3.org/2000/svg">
<path d="M17.5712 11.8747C18.2587 11.8782 18.9227 11.6076 19.4332 11.1158C19.9436 10.6239 20.2637 9.94639 20.3308 9.21576C20.3347 9.18638 20.3309 9.15641 20.32 9.12918C20.309 9.10186 20.2913 9.07835 20.2687 9.06111C20.2448 9.04544 20.2174 9.03722 20.1893 9.03722C20.1613 9.03722 20.1339 9.04544 20.11 9.06111C19.5769 9.23065 19.0243 9.31987 18.468 9.32624C17.8721 9.33074 17.2818 9.20195 16.7352 8.94829C16.1887 8.69453 15.6979 8.32148 15.2944 7.85313C15.2836 7.82326 15.2646 7.7976 15.2401 7.77928C15.2155 7.76087 15.1864 7.75069 15.1564 7.75C15.1272 7.75353 15.0994 7.76577 15.0762 7.78536C15.0531 7.80485 15.0354 7.8309 15.0254 7.86047C14.8939 8.19964 14.8214 8.56152 14.8115 8.9285C14.8115 9.70986 15.1022 10.4593 15.6198 11.0119C16.1374 11.5643 16.8392 11.8747 17.5712 11.8747Z" fill="#E69F69"/>
<path d="M20.2204 8.19131C20.0963 7.69103 19.851 7.23454 19.5092 6.86765C19.1675 6.50077 18.7412 6.23644 18.2734 6.10128C17.8054 5.96612 17.3125 5.96495 16.844 6.09775C16.3756 6.23066 15.9483 6.49284 15.6049 6.85815C15.5753 6.89214 15.5588 6.9369 15.5588 6.98332C15.5588 7.02974 15.5753 7.0745 15.6049 7.10859C16.8122 8.54487 18.2817 8.92791 20.2204 8.19131Z" fill="#514AF3"/>
<path d="M17.572 12.2422C16.5662 12.2441 15.6022 12.6716 14.891 13.4309C14.1798 14.1902 13.7794 15.2194 13.7776 16.2933V18.8713C13.7776 18.969 13.8139 19.0626 13.8786 19.1317C13.9434 19.2008 14.0311 19.2396 14.1225 19.2396H15.3713C15.4147 19.2394 15.4566 19.2568 15.4886 19.2881C15.5206 19.3196 15.5403 19.3628 15.5438 19.409L15.8473 23.3201C15.8543 23.4127 15.8936 23.4989 15.9576 23.5617C16.0215 23.6245 16.1054 23.6593 16.1922 23.659H18.9519C19.0388 23.6593 19.1226 23.6245 19.1866 23.5617C19.2505 23.4989 19.2899 23.4127 19.2968 23.3201L19.6004 19.409C19.6039 19.3628 19.6236 19.3196 19.6555 19.2881C19.6875 19.2568 19.7295 19.2394 19.7728 19.2396H21.0216C21.1131 19.2396 21.2008 19.2008 21.2656 19.1317C21.3302 19.0626 21.3666 18.969 21.3666 18.8713V16.2933C21.3647 15.2194 20.9644 14.1902 20.2532 13.4309C19.5419 12.6716 18.5779 12.2441 17.572 12.2422Z" fill="#514AF3"/>
<path d="M15.6131 18.5709H14.1712C14.1403 18.5702 14.1101 18.5611 14.0835 18.5442C14.057 18.5275 14.0349 18.5037 14.0194 18.4751C14.0043 18.4458 13.9964 18.4128 13.9964 18.3793C13.9964 18.3459 14.0043 18.3129 14.0194 18.2836L14.7093 17.1346C14.7902 17.06 14.8537 16.9662 14.8948 16.8609C14.936 16.7557 14.9536 16.6416 14.9464 16.5277C14.9392 16.4139 14.9073 16.3034 14.8532 16.2048C14.7992 16.1064 14.7244 16.0228 14.635 15.9604C14.5454 15.8981 14.4435 15.8588 14.3374 15.8457C14.2312 15.8326 14.1237 15.846 14.0231 15.8848C13.9227 15.9237 13.832 15.9869 13.7583 16.0696C13.6846 16.1523 13.6299 16.2521 13.5986 16.3612L12.2188 18.5267C12.1858 18.5559 12.1443 18.5716 12.1014 18.5709H9.96961C9.82348 18.5664 9.67826 18.5973 9.54497 18.6615C9.41168 18.7255 9.29371 18.8211 9.20005 18.941C9.10639 19.0609 9.03942 19.2019 9.00428 19.3534C8.96906 19.5049 8.96649 19.663 8.99685 19.8157L9.53497 22.7104C9.58992 23.0014 9.73881 23.2626 9.95567 23.4483C10.1725 23.6341 10.4436 23.7327 10.7217 23.7268H14.8611C15.1356 23.7275 15.4018 23.6266 15.6143 23.4412C15.8269 23.2559 15.9728 22.9976 16.0271 22.7104L16.5858 19.8157C16.6162 19.663 16.6137 19.5049 16.5785 19.3534C16.5433 19.2019 16.4763 19.0609 16.3826 18.941C16.289 18.8211 16.1711 18.7255 16.0378 18.6615C15.9044 18.5973 15.7592 18.5664 15.6131 18.5709ZM14.8611 21.8854C14.8611 21.9831 14.8248 22.0768 14.76 22.1459C14.6953 22.2149 14.6076 22.2537 14.5161 22.2537C14.4246 22.2537 14.3369 22.2149 14.2723 22.1459C14.2075 22.0768 14.1712 21.9831 14.1712 21.8854V20.4122C14.1712 20.3146 14.2075 20.221 14.2723 20.1519C14.3369 20.0828 14.4246 20.044 14.5161 20.044C14.6076 20.044 14.6953 20.0828 14.76 20.1519C14.8248 20.221 14.8611 20.3146 14.8611 20.4122V21.8854ZM11.4116 20.4122V21.8854C11.4116 21.9831 11.3752 22.0768 11.3105 22.1459C11.2458 22.2149 11.1581 22.2537 11.0666 22.2537C10.9751 22.2537 10.8873 22.2149 10.8227 22.1459C10.758 22.0768 10.7217 21.9831 10.7217 21.8854V20.4122C10.7217 20.3146 10.758 20.221 10.8227 20.1519C10.8873 20.0828 10.9751 20.044 11.0666 20.044C11.1581 20.044 11.2458 20.0828 11.3105 20.1519C11.3752 20.221 11.4116 20.3146 11.4116 20.4122ZM12.4465 20.4122C12.4465 20.3146 12.4828 20.221 12.5475 20.1519C12.6121 20.0828 12.6999 20.044 12.7914 20.044C12.8828 20.044 12.9706 20.0828 13.0353 20.1519C13.1 20.221 13.1363 20.3146 13.1363 20.4122V21.8854C13.1363 21.9831 13.1 22.0768 13.0353 22.1459C12.9706 22.2149 12.8828 22.2537 12.7914 22.2537C12.6999 22.2537 12.6121 22.2149 12.5475 22.1459C12.4828 22.0768 12.4465 21.9831 12.4465 21.8854V20.4122Z" fill="#E69F69"/>
<path fill-rule="evenodd" clip-rule="evenodd" d="M4.85472 8.79796C4.42448 8.79796 4.0481 8.3919 4.0481 7.92777V2.70623C4.0481 2.24209 4.42448 1.83594 4.85472 1.83594H11.0389C11.4692 1.83594 11.8456 2.24209 11.8456 2.70623V7.92777C11.8456 8.3919 11.8456 8.449 11.8456 8.83557V9.89762C11.8456 10.1561 11.5022 10.2479 11.3328 10.0651L9.37185 8.79796H4.85472ZM8.11324 6.97168C8.00655 7.08314 7.8362 7.0801 7.733 6.96483L6.36046 5.43296C6.09159 5.14296 5.98398 4.67873 6.1991 4.27267C6.46797 3.6345 7.22084 3.51844 7.70484 4.04055L7.97371 4.33065L8.24259 4.04055C8.67283 3.57642 9.4257 3.69248 9.74833 4.27267C9.90969 4.67873 9.85584 5.14296 9.58697 5.43296L8.11324 6.97168Z" fill="#514AF3"/>
</svg>
