<svg width="25" height="25" viewBox="0 0 25 25" fill="none" xmlns="http://www.w3.org/2000/svg">
<path fill-rule="evenodd" clip-rule="evenodd" d="M11.9186 3.14599V4.2349H10.8149L10.8047 4.2348L10.7945 4.2349H8.08363C7.05904 4.2349 6.22842 5.13595 6.22842 6.24752V8.65737C6.22687 8.67909 6.22609 8.70112 6.22609 8.72326C6.22609 8.7454 6.22687 8.76743 6.22842 8.78915V12.2914C6.22687 12.313 6.22609 12.3348 6.22609 12.3568V16.5253H6.15348C5.71827 16.5253 5.36548 16.9081 5.36548 17.3802C5.36548 17.8523 5.71827 18.2351 6.15348 18.2351H19.2598C19.695 18.2351 20.0479 17.8523 20.0479 17.3802C20.0479 16.9081 19.695 16.5253 19.2598 16.5253H19.1758V12.3568C19.1758 12.3475 19.1757 12.3383 19.1754 12.3291V8.75088L19.1757 8.73929L19.1758 8.72326C19.1758 8.71399 19.1757 8.70481 19.1754 8.69564V6.24752C19.1754 5.13595 18.3449 4.2349 17.3203 4.2349H14.6074L14.5973 4.2348L14.5871 4.2349H13.4947V3.14599C13.4947 2.6738 13.1419 2.29102 12.7067 2.29102C12.2714 2.29102 11.9186 2.6738 11.9186 3.14599ZM17.5993 11.5018V9.57824H15.3853V11.5018H17.5993ZM13.8092 11.5018V9.57824H11.5928V11.5018H13.8092ZM10.0166 11.5018V9.57824H7.80452V11.5018H10.0166ZM17.5993 7.86829V6.24752C17.5993 6.08032 17.4744 5.94475 17.3203 5.94475H15.3853V7.86829H17.5993ZM13.8092 7.86829V5.94475H11.5928V7.86829H13.8092ZM10.0166 7.86829V5.94475H8.08363C7.92947 5.94475 7.80452 6.08032 7.80452 6.24752V7.86829H10.0166ZM12.701 13.6752C11.6537 13.6752 10.8047 14.5961 10.8047 15.7324V16.6318H14.5973V15.7324C14.5973 14.5961 13.7483 13.6752 12.701 13.6752Z" fill="#514AF3"/>
<path d="M18.4994 19.2136C19.5812 19.2136 20.4582 18.2774 20.4582 17.1225C20.4582 15.9675 19.5812 15.0312 18.4994 15.0312C17.4176 15.0312 16.5406 15.9676 16.5406 17.1225C16.5406 18.2774 17.4176 19.2136 18.4994 19.2136ZM18.4993 19.4006C16.7717 19.4006 15.3713 20.8958 15.3713 22.7402C15.3713 23.0333 15.5938 23.2709 15.8684 23.2709H21.1303C21.4048 23.2709 21.6274 23.0333 21.6274 22.7402C21.6274 20.8958 20.2269 19.4006 18.4993 19.4006Z" fill="#E69F69" stroke="white" stroke-width="0.5"/>
<path d="M6.91446 19.2136C7.99623 19.2136 8.87323 18.2774 8.87323 17.1225C8.87323 15.9675 7.99623 15.0312 6.91446 15.0312C5.83269 15.0312 4.95579 15.9676 4.95579 17.1225C4.95579 18.2774 5.83269 19.2136 6.91446 19.2136ZM6.91436 19.4006C5.18686 19.4006 3.78638 20.8958 3.78638 22.7402C3.78638 23.0333 4.00896 23.2709 4.28344 23.2709H9.54537C9.81986 23.2709 10.0424 23.0333 10.0424 22.7402C10.0424 20.8958 8.64195 19.4006 6.91436 19.4006Z" fill="#E69F69" stroke="white" stroke-width="0.5"/>
<path d="M12.6148 18.0266C13.9801 18.0266 15.0869 16.845 15.0869 15.3873C15.0869 13.9297 13.9801 12.748 12.6148 12.748C11.2495 12.748 10.1428 13.9297 10.1428 15.3873C10.1428 16.8449 11.2495 18.0266 12.6148 18.0266ZM12.6147 18.3961C10.4146 18.3961 8.6311 20.3004 8.6311 22.6493C8.6311 22.9927 8.89187 23.2713 9.21376 23.2713H16.0157C16.3374 23.2713 16.5984 22.9927 16.5984 22.6493C16.5984 20.3004 14.8148 18.3961 12.6147 18.3961Z" fill="#E69F69" stroke="white" stroke-width="0.5"/>
</svg>
