<svg width="25" height="25" viewBox="0 0 25 25" fill="none" xmlns="http://www.w3.org/2000/svg">
<path d="M6.48427 8.82244C6.95671 8.82244 7.41846 8.68601 7.81131 8.43037C8.20405 8.17473 8.51029 7.81146 8.69106 7.38645C8.87184 6.96131 8.91911 6.49354 8.82696 6.04237C8.73481 5.59108 8.50727 5.17663 8.17325 4.85133C7.83922 4.5259 7.41355 4.30434 6.9503 4.21456C6.48691 4.12491 6.00669 4.17093 5.57021 4.34697C5.13373 4.52301 4.76073 4.82127 4.49824 5.20379C4.23575 5.5863 4.0957 6.03608 4.0957 6.49618C4.0957 7.1132 4.34738 7.70483 4.7953 8.14103C5.24322 8.57736 5.8508 8.82244 6.48427 8.82244ZM6.48427 5.33305C6.72049 5.33305 6.95143 5.40133 7.14779 5.52909C7.34416 5.65684 7.49728 5.83854 7.58767 6.05105C7.67806 6.26356 7.70169 6.49744 7.65555 6.72315C7.60954 6.94873 7.49577 7.15596 7.32882 7.31867C7.16175 7.48126 6.94891 7.59204 6.71722 7.63693C6.48566 7.68182 6.24542 7.65881 6.0273 7.57079C5.80906 7.48277 5.6225 7.33363 5.49126 7.14238C5.36001 6.95112 5.28999 6.72617 5.28999 6.49618C5.28999 6.18773 5.41583 5.89186 5.63973 5.67369C5.86375 5.45565 6.16747 5.33305 6.48427 5.33305Z" fill="#E69F69"/>
<path d="M6.48404 3.54166C6.65074 3.54166 6.81065 3.4798 6.92857 3.36977C7.04636 3.25974 7.11261 3.11049 7.11261 2.95482V2.3681C7.11261 2.21243 7.04636 2.06317 6.92857 1.95314C6.81065 1.84312 6.65074 1.78125 6.48404 1.78125C6.31734 1.78125 6.15744 1.84312 6.03952 1.95314C5.92172 2.06317 5.85547 2.21243 5.85547 2.3681V2.95482C5.85547 3.11049 5.92172 3.25974 6.03952 3.36977C6.15744 3.4798 6.31734 3.54166 6.48404 3.54166Z" fill="#E69F69"/>
<path d="M9.4105 4.46603L9.83039 4.05196C9.94164 3.94055 10.0042 3.78953 10.0042 3.63197C10.0042 3.47454 9.94164 3.3234 9.83039 3.21199C9.719 3.10071 9.56789 3.03809 9.4105 3.03809C9.25298 3.03809 9.102 3.10071 8.99061 3.21199L8.57664 3.63197C8.51478 3.68504 8.4645 3.7503 8.42905 3.82361C8.39347 3.89704 8.37361 3.97701 8.37046 4.05837C8.3672 4.13985 8.38103 4.22108 8.41069 4.29703C8.44049 4.37298 8.48549 4.44189 8.5432 4.49948C8.60077 4.55719 8.66967 4.60221 8.7456 4.63201C8.82153 4.66169 8.90274 4.67552 8.9842 4.67225C9.06554 4.66911 9.14549 4.64924 9.21891 4.61365C9.2922 4.57819 9.35745 4.5279 9.4105 4.46603Z" fill="#E69F69"/>
<path d="M9.375 6.49651C9.375 6.64652 9.43685 6.7905 9.54685 6.89663C9.65685 7.00276 9.80608 7.06236 9.96171 7.06236H10.5483C10.7039 7.06236 10.8531 7.00276 10.9631 6.89663C11.0731 6.7905 11.135 6.64652 11.135 6.49651C11.135 6.3465 11.0731 6.20252 10.9631 6.09639C10.8531 5.99027 10.7039 5.93066 10.5483 5.93066H9.96171C9.80608 5.93066 9.65685 5.99027 9.54685 6.09639C9.43685 6.20252 9.375 6.3465 9.375 6.49651Z" fill="#E69F69"/>
<path d="M8.54574 8.60752C8.4331 8.71201 8.37 8.85348 8.37 9.00085C8.37 9.14822 8.4331 9.28956 8.54574 9.39405L8.96865 9.79014C9.02497 9.8422 9.09185 9.88344 9.16539 9.91161C9.23906 9.93978 9.31788 9.95424 9.39758 9.95424C9.47729 9.95424 9.55611 9.93978 9.62978 9.91161C9.70332 9.88344 9.7702 9.8422 9.82665 9.79014C9.88297 9.73821 9.92759 9.67647 9.95814 9.60844C9.98857 9.54054 10.0043 9.46761 10.0043 9.39405C10.0043 9.32049 9.98857 9.24768 9.95814 9.17978C9.92759 9.11175 9.88297 9.05001 9.82665 8.99808L9.39758 8.60752C9.28444 8.50366 9.13132 8.44531 8.97166 8.44531C8.81201 8.44531 8.65889 8.50366 8.54574 8.60752Z" fill="#E69F69"/>
<path d="M5.85547 10.038V10.6247C5.85547 10.7804 5.92172 10.9297 6.03952 11.0397C6.15744 11.1497 6.31734 11.2116 6.48404 11.2116C6.65074 11.2116 6.81065 11.1497 6.92857 11.0397C7.04636 10.9297 7.11261 10.7804 7.11261 10.6247V10.038C7.11261 9.88235 7.04636 9.73309 6.92857 9.62306C6.81065 9.51304 6.65074 9.45117 6.48404 9.45117C6.31734 9.45117 6.15744 9.51304 6.03952 9.62306C5.92172 9.73309 5.85547 9.88235 5.85547 10.038Z" fill="#E69F69"/>
<path d="M3.53546 8.58204L3.13192 8.9799C3.02493 9.08703 2.96484 9.23214 2.96484 9.38353C2.96484 9.53493 3.02493 9.68004 3.13192 9.78717C3.23903 9.89418 3.3841 9.95428 3.53546 9.95428C3.68682 9.95428 3.83189 9.89418 3.939 9.78717L4.33676 9.38353C4.42992 9.27476 4.47857 9.13494 4.47304 8.99184C4.46751 8.84874 4.40817 8.71307 4.30697 8.61184C4.20577 8.51062 4.07012 8.45127 3.92706 8.44574C3.784 8.4402 3.6442 8.48887 3.53546 8.58204Z" fill="#E69F69"/>
<path d="M2.29374 7.06236H2.88032C3.03596 7.06236 3.18518 7.00276 3.29518 6.89663C3.40518 6.7905 3.46703 6.64652 3.46703 6.49651C3.46703 6.3465 3.40518 6.20252 3.29518 6.09639C3.18518 5.99027 3.03596 5.93066 2.88032 5.93066H2.29374C2.13811 5.93066 1.98888 5.99027 1.87888 6.09639C1.76888 6.20252 1.70703 6.3465 1.70703 6.49651C1.70703 6.64652 1.76888 6.7905 1.87888 6.89663C1.98888 7.00276 2.13811 7.06236 2.29374 7.06236Z" fill="#E69F69"/>
<path d="M3.53546 4.4113C3.6442 4.50448 3.784 4.55314 3.92706 4.54761C4.07012 4.54208 4.20577 4.48273 4.30697 4.3815C4.40817 4.28028 4.46751 4.1446 4.47304 4.00151C4.47857 3.85841 4.42992 3.71858 4.33676 3.60981L3.939 3.20618C3.83189 3.09917 3.68682 3.03906 3.53546 3.03906C3.3841 3.03906 3.23903 3.09917 3.13192 3.20618C3.02493 3.31331 2.96484 3.45842 2.96484 3.60981C2.96484 3.76121 3.02493 3.90632 3.13192 4.01345L3.53546 4.4113Z" fill="#E69F69"/>
<path d="M21.1314 16.3238H20.675C20.6483 16.3238 20.6217 16.3175 20.5977 16.3053C20.5737 16.2932 20.5528 16.2756 20.5367 16.2539C20.5251 16.2287 20.519 16.2012 20.519 16.1734C20.519 16.1456 20.5251 16.1182 20.5367 16.0931C20.708 15.6615 20.9565 15.2657 21.2697 14.9253C21.3345 14.8603 21.3859 14.7828 21.421 14.6977C21.4561 14.6124 21.4742 14.521 21.4742 14.4287C21.4742 14.3364 21.4561 14.245 21.421 14.1598C21.3859 14.0746 21.3345 13.9973 21.2697 13.9323C21.1402 13.802 20.9649 13.7288 20.7823 13.7288C20.5995 13.7288 20.4242 13.802 20.2947 13.9323C20.1477 14.0852 20.0092 14.2463 19.8799 14.4148C19.8657 14.4368 19.8462 14.4547 19.8232 14.4671C19.8002 14.4793 19.7745 14.4853 19.7485 14.4847C19.7214 14.4866 19.6942 14.4812 19.6699 14.4688C19.6456 14.4565 19.6249 14.4378 19.6102 14.4148C19.4809 14.2463 19.3425 14.0852 19.1954 13.9323C19.0659 13.802 18.8906 13.7288 18.708 13.7288C18.5252 13.7288 18.3499 13.802 18.2205 13.9323C18.1556 13.9973 18.1042 14.0746 18.0691 14.1598C18.034 14.245 18.0159 14.3364 18.0159 14.4287C18.0159 14.521 18.034 14.6124 18.0691 14.6977C18.1042 14.7828 18.1556 14.8603 18.2205 14.9253C18.5481 15.2703 18.8063 15.6765 18.981 16.121C18.9927 16.1461 18.9988 16.1737 18.9988 16.2015C18.9988 16.2292 18.9927 16.2567 18.981 16.2818C18.9649 16.3036 18.9441 16.3212 18.9201 16.3334C18.896 16.3454 18.8695 16.3517 18.8427 16.3517H16.5265C16.4997 16.3512 16.4734 16.3447 16.4495 16.3326C16.4256 16.3205 16.4046 16.3032 16.3882 16.2818C16.3765 16.2567 16.3704 16.2292 16.3704 16.2015C16.3704 16.1737 16.3765 16.1461 16.3882 16.121C16.5564 15.6796 16.805 15.274 17.1211 14.9253C17.186 14.8603 17.2374 14.7828 17.2724 14.6977C17.3075 14.6124 17.3256 14.521 17.3256 14.4287C17.3256 14.3364 17.3075 14.245 17.2724 14.1598C17.2374 14.0746 17.186 13.9973 17.1211 13.9323C16.9916 13.802 16.8164 13.7288 16.6337 13.7288C16.4509 13.7288 16.2757 13.802 16.1462 13.9323C16.0022 14.0861 15.8661 14.247 15.7382 14.4148C15.7221 14.4364 15.7013 14.4541 15.6773 14.4662C15.6532 14.4784 15.6267 14.4847 15.5999 14.4847C15.5732 14.4847 15.5466 14.4784 15.5226 14.4662C15.4986 14.4541 15.4777 14.4364 15.4617 14.4148C15.3323 14.2463 15.1939 14.0852 15.0468 13.9323C14.9173 13.802 14.7421 13.7288 14.5593 13.7288C14.3766 13.7288 14.2014 13.802 14.0719 13.9323C14.007 13.9973 13.9556 14.0746 13.9205 14.1598C13.8855 14.245 13.8674 14.3364 13.8674 14.4287C13.8674 14.521 13.8855 14.6124 13.9205 14.6977C13.9556 14.7828 14.007 14.8603 14.0719 14.9253C14.3995 15.2703 14.6577 15.6765 14.8325 16.121C14.8442 16.1461 14.8502 16.1737 14.8502 16.2015C14.8502 16.2292 14.8442 16.2567 14.8325 16.2818C14.8146 16.3033 14.7925 16.3207 14.7673 16.3327C14.7423 16.3448 14.715 16.3513 14.6873 16.3517H12.3779C12.3511 16.3512 12.3248 16.3447 12.3009 16.3326C12.2771 16.3205 12.2561 16.3032 12.2396 16.2818C12.2263 16.2572 12.2194 16.2295 12.2194 16.2015C12.2194 16.1733 12.2263 16.1456 12.2396 16.121C12.4047 15.6763 12.6562 15.2698 12.9794 14.9253C13.1097 14.7935 13.1828 14.6149 13.1828 14.4287C13.1828 14.2425 13.1097 14.0639 12.9794 13.9323C12.8492 13.8005 12.6727 13.7266 12.4885 13.7266C12.3043 13.7266 12.1278 13.8005 11.9976 13.9323C11.8537 14.0861 11.7175 14.247 11.5897 14.4148C11.5736 14.4364 11.5527 14.4541 11.5287 14.4662C11.5047 14.4784 11.4781 14.4847 11.4514 14.4847C11.4246 14.4847 11.3981 14.4784 11.3741 14.4662C11.35 14.4541 11.3292 14.4364 11.3131 14.4148C11.1126 14.156 10.9466 13.9812 10.9051 13.9323C10.8407 13.867 10.7641 13.8153 10.6799 13.78C10.5956 13.7447 10.5054 13.7266 10.4142 13.7266C10.3231 13.7266 10.2328 13.7447 10.1486 13.78C10.0644 13.8153 9.98781 13.867 9.92332 13.9323C9.85882 13.9974 9.80766 14.0749 9.77284 14.16C9.73789 14.2453 9.71991 14.3365 9.71991 14.4287C9.71991 14.5209 9.73789 14.6122 9.77284 14.6974C9.80766 14.7826 9.85882 14.86 9.92332 14.9253C10.2532 15.2686 10.5118 15.6751 10.6839 16.121C10.6956 16.1461 10.7016 16.1737 10.7016 16.2015C10.7016 16.2292 10.6956 16.2567 10.6839 16.2818C10.666 16.3033 10.6439 16.3207 10.6188 16.3327C10.5937 16.3448 10.5665 16.3513 10.5387 16.3517H8.22932C8.20254 16.3512 8.17626 16.3447 8.15238 16.3326C8.12849 16.3205 8.1075 16.3032 8.09103 16.2818C8.0777 16.2572 8.07079 16.2295 8.07079 16.2015C8.07079 16.1733 8.0777 16.1456 8.09103 16.121C8.25609 15.6763 8.50765 15.2698 8.83086 14.9253C8.9611 14.7935 9.03426 14.6149 9.03426 14.4287C9.03426 14.2425 8.9611 14.0639 8.83086 13.9323C8.70062 13.8005 8.52412 13.7266 8.33994 13.7266C8.15577 13.7266 7.97927 13.8005 7.84903 13.9323C7.80754 13.9812 7.6416 14.156 7.44109 14.4148C7.425 14.4364 7.40413 14.4541 7.38012 14.4662C7.3561 14.4784 7.32958 14.4847 7.3028 14.4847C7.27602 14.4847 7.2495 14.4784 7.22549 14.4662C7.20147 14.4541 7.18061 14.4364 7.16451 14.4148C6.964 14.156 6.79806 13.9812 6.75657 13.9323C6.62633 13.8005 6.44983 13.7266 6.26566 13.7266C6.08149 13.7266 5.90498 13.8005 5.77474 13.9323C5.6445 14.0639 5.57134 14.2425 5.57134 14.4287C5.57134 14.6149 5.6445 14.7935 5.77474 14.9253C6.10462 15.2686 6.36321 15.6751 6.53532 16.121C6.54864 16.1456 6.55556 16.1733 6.55556 16.2015C6.55556 16.2295 6.54864 16.2572 6.53532 16.2818C6.51885 16.3032 6.49785 16.3205 6.47397 16.3326C6.45008 16.3447 6.42381 16.3512 6.39703 16.3517H5.91994C5.73653 16.3517 5.56065 16.4254 5.43104 16.5565C5.3013 16.6877 5.22852 16.8656 5.22852 17.0511C5.22852 17.2366 5.3013 17.4144 5.43104 17.5455C5.56065 17.6767 5.73653 17.7504 5.91994 17.7504H21.1314C21.3148 17.7504 21.4907 17.6767 21.6203 17.5455C21.75 17.4144 21.8228 17.2366 21.8228 17.0511C21.8228 16.8656 21.75 16.6877 21.6203 16.5565C21.4907 16.4254 21.3148 16.3517 21.1314 16.3517V16.3238Z" fill="#514AF3"/>
<path d="M19.1445 11.9553H18.8715C18.8554 11.9553 18.8395 11.9514 18.8252 11.9438C18.8109 11.9361 18.7983 11.9252 18.7886 11.9116C18.7817 11.8959 18.7781 11.8787 18.7781 11.8613C18.7781 11.844 18.7817 11.8267 18.7886 11.811C18.8912 11.5414 19.0399 11.294 19.2274 11.0812C19.2661 11.0406 19.2969 10.9922 19.3179 10.939C19.3389 10.8857 19.3497 10.8286 19.3497 10.7709C19.3497 10.7132 19.3389 10.6561 19.3179 10.6028C19.2969 10.5496 19.2661 10.5012 19.2274 10.4605C19.1498 10.3792 19.045 10.3334 18.9356 10.3334C18.8262 10.3334 18.7214 10.3792 18.6438 10.4605C18.5558 10.5561 18.473 10.6568 18.3955 10.7621C18.3871 10.7759 18.3754 10.7871 18.3617 10.7948C18.3479 10.8024 18.3325 10.8062 18.317 10.8058C18.3007 10.8071 18.2845 10.8036 18.2699 10.7959C18.2554 10.7882 18.243 10.7765 18.2342 10.7621C18.1568 10.6568 18.0739 10.5561 17.9859 10.4605C17.9084 10.3792 17.8035 10.3334 17.6942 10.3334C17.5848 10.3334 17.4799 10.3792 17.4024 10.4605C17.3637 10.5012 17.3329 10.5496 17.3119 10.6028C17.2909 10.6561 17.2801 10.7132 17.2801 10.7709C17.2801 10.8286 17.2909 10.8857 17.3119 10.939C17.3329 10.9922 17.3637 11.0406 17.4024 11.0812C17.5985 11.2969 17.7531 11.5507 17.8576 11.8285C17.8646 11.8442 17.8683 11.8615 17.8683 11.8788C17.8683 11.8962 17.8646 11.9134 17.8576 11.9291C17.848 11.9427 17.8355 11.9536 17.8211 11.9613C17.8068 11.9688 17.791 11.9727 17.7749 11.9727H16.3886C16.3727 11.9725 16.3568 11.9683 16.3425 11.9608C16.3283 11.9532 16.3157 11.9424 16.3058 11.9291C16.2989 11.9134 16.2952 11.8962 16.2952 11.8788C16.2952 11.8615 16.2989 11.8442 16.3058 11.8285C16.4065 11.5526 16.5553 11.2991 16.7445 11.0812C16.7832 11.0406 16.814 10.9922 16.835 10.939C16.856 10.8857 16.8668 10.8286 16.8668 10.7709C16.8668 10.7132 16.856 10.6561 16.835 10.6028C16.814 10.5496 16.7832 10.5012 16.7445 10.4605C16.667 10.3792 16.5621 10.3334 16.4527 10.3334C16.3434 10.3334 16.2385 10.3792 16.161 10.4605C16.0748 10.5567 15.9934 10.6573 15.9168 10.7621C15.9073 10.7757 15.8947 10.7867 15.8804 10.7943C15.866 10.8019 15.8502 10.8058 15.8341 10.8058C15.818 10.8058 15.8022 10.8019 15.7878 10.7943C15.7735 10.7867 15.7609 10.7757 15.7514 10.7621C15.6739 10.6568 15.5911 10.5561 15.5031 10.4605C15.4255 10.3792 15.3207 10.3334 15.2113 10.3334C15.1019 10.3334 14.9971 10.3792 14.9195 10.4605C14.8808 10.5012 14.85 10.5496 14.829 10.6028C14.808 10.6561 14.7972 10.7132 14.7972 10.7709C14.7972 10.8286 14.808 10.8857 14.829 10.939C14.85 10.9922 14.8808 11.0406 14.9195 11.0812C15.1156 11.2969 15.2703 11.5507 15.3747 11.8285C15.3818 11.8442 15.3854 11.8615 15.3854 11.8788C15.3854 11.8962 15.3818 11.9134 15.3747 11.9291C15.364 11.9426 15.3508 11.9534 15.3358 11.9609C15.3208 11.9685 15.3045 11.9725 15.2879 11.9727H13.9058C13.8898 11.9725 13.874 11.9683 13.8596 11.9608C13.8454 11.9532 13.8329 11.9424 13.823 11.9291C13.815 11.9136 13.8109 11.8964 13.8109 11.8788C13.8109 11.8612 13.815 11.844 13.823 11.8285C13.9217 11.5507 14.0723 11.2965 14.2658 11.0812C14.3436 10.9988 14.3875 10.8873 14.3875 10.7709C14.3875 10.6544 14.3436 10.5429 14.2658 10.4605C14.1879 10.3783 14.0821 10.332 13.972 10.332C13.8618 10.332 13.756 10.3783 13.6781 10.4605C13.592 10.5567 13.5105 10.6573 13.434 10.7621C13.4244 10.7757 13.4118 10.7867 13.3975 10.7943C13.3832 10.8019 13.3673 10.8058 13.3512 10.8058C13.3351 10.8058 13.3193 10.8019 13.305 10.7943C13.2906 10.7867 13.2781 10.7757 13.2685 10.7621C13.1485 10.6004 13.0491 10.4912 13.0244 10.4605C12.9858 10.4198 12.9399 10.3875 12.8895 10.3655C12.8391 10.3433 12.7851 10.332 12.7306 10.332C12.6759 10.332 12.622 10.3433 12.5716 10.3655C12.5211 10.3875 12.4753 10.4198 12.4367 10.4605C12.3982 10.5013 12.3675 10.5497 12.3467 10.6029C12.3258 10.6562 12.315 10.7133 12.315 10.7709C12.315 10.8285 12.3258 10.8856 12.3467 10.9389C12.3675 10.9921 12.3982 11.0405 12.4367 11.0812C12.6342 11.2957 12.7889 11.5499 12.8919 11.8285C12.8989 11.8442 12.9026 11.8615 12.9026 11.8788C12.9026 11.8962 12.8989 11.9134 12.8919 11.9291C12.8812 11.9426 12.868 11.9534 12.8529 11.9609C12.8379 11.9685 12.8216 11.9725 12.805 11.9727H11.4229C11.4069 11.9725 11.3911 11.9683 11.3768 11.9608C11.3626 11.9532 11.35 11.9424 11.3401 11.9291C11.3321 11.9136 11.328 11.8964 11.328 11.8788C11.328 11.8612 11.3321 11.844 11.3401 11.8285C11.4389 11.5507 11.5895 11.2965 11.783 11.0812C11.8608 10.9988 11.9046 10.8873 11.9046 10.7709C11.9046 10.6544 11.8608 10.5429 11.783 10.4605C11.705 10.3783 11.5993 10.332 11.4892 10.332C11.3789 10.332 11.2732 10.3783 11.1952 10.4605C11.1705 10.4912 11.0712 10.6004 10.9511 10.7621C10.9415 10.7757 10.929 10.7867 10.9146 10.7943C10.9003 10.8019 10.8845 10.8058 10.8684 10.8058C10.8523 10.8058 10.8365 10.8019 10.8221 10.7943C10.8078 10.7867 10.7952 10.7757 10.7857 10.7621C10.6656 10.6004 10.5663 10.4912 10.5415 10.4605C10.4636 10.3783 10.3579 10.332 10.2477 10.332C10.1375 10.332 10.0318 10.3783 9.95381 10.4605C9.87599 10.5429 9.83212 10.6544 9.83212 10.7709C9.83212 10.8873 9.87599 10.9988 9.95381 11.0812C10.1513 11.2957 10.3061 11.5499 10.409 11.8285C10.4171 11.844 10.4212 11.8612 10.4212 11.8788C10.4212 11.8964 10.4171 11.9136 10.409 11.9291C10.3992 11.9424 10.3866 11.9532 10.3723 11.9608C10.358 11.9683 10.3423 11.9725 10.3263 11.9727H10.0408C9.93106 11.9727 9.82571 12.0189 9.74814 12.1007C9.67058 12.1827 9.62695 12.2939 9.62695 12.4098C9.62695 12.5258 9.67058 12.6369 9.74814 12.7189C9.82571 12.8009 9.93106 12.8469 10.0408 12.8469H19.1445C19.2543 12.8469 19.3596 12.8009 19.4372 12.7189C19.5148 12.6369 19.5584 12.5258 19.5584 12.4098C19.5584 12.2939 19.5148 12.1827 19.4372 12.1007C19.3596 12.0189 19.2543 11.9727 19.1445 11.9727V11.9553Z" fill="#514AF3"/>
<path d="M22.7903 21.9113H22.1854C22.1498 21.9113 22.1147 21.903 22.0829 21.887C22.051 21.8711 22.0233 21.848 22.002 21.8196C21.9865 21.7865 21.9785 21.7506 21.9785 21.7141C21.9785 21.6776 21.9865 21.6417 22.002 21.6087C22.2291 21.0429 22.5585 20.5238 22.9737 20.0775C23.0596 19.9923 23.1279 19.8908 23.1744 19.7791C23.2209 19.6674 23.2449 19.5475 23.2449 19.4266C23.2449 19.3055 23.2209 19.1856 23.1744 19.0738C23.1279 18.9622 23.0596 18.8607 22.9737 18.7755C22.8019 18.6047 22.5696 18.5089 22.3274 18.5089C22.0853 18.5089 21.853 18.6047 21.6811 18.7755C21.4863 18.976 21.3026 19.1873 21.1311 19.4082C21.1124 19.437 21.0865 19.4606 21.0561 19.4767C21.0255 19.4927 20.9915 19.5007 20.957 19.4999C20.9211 19.5024 20.8851 19.4952 20.8528 19.479C20.8206 19.4629 20.7932 19.4384 20.7737 19.4082C20.6023 19.1873 20.4186 18.976 20.2237 18.7755C20.0519 18.6047 19.8196 18.5089 19.5774 18.5089C19.3353 18.5089 19.103 18.6047 18.9311 18.7755C18.8453 18.8607 18.7771 18.9622 18.7305 19.0738C18.684 19.1856 18.6601 19.3055 18.6601 19.4266C18.6601 19.5475 18.684 19.6674 18.7305 19.7791C18.7771 19.8908 18.8453 19.9923 18.9311 20.0775C19.3655 20.53 19.7079 21.0625 19.9395 21.6453C19.9551 21.6784 19.9631 21.7143 19.9631 21.7508C19.9631 21.7873 19.9551 21.8232 19.9395 21.8562C19.9181 21.8847 19.8905 21.9079 19.8587 21.9237C19.8269 21.9397 19.7918 21.948 19.7562 21.948H16.6854C16.6499 21.9472 16.6151 21.9387 16.5833 21.9228C16.5516 21.907 16.5238 21.8842 16.502 21.8562C16.4865 21.8232 16.4785 21.7873 16.4785 21.7508C16.4785 21.7143 16.4865 21.6784 16.502 21.6453C16.7251 21.0665 17.0546 20.5347 17.4737 20.0775C17.5596 19.9923 17.6279 19.8908 17.6744 19.7791C17.7209 19.6674 17.7449 19.5475 17.7449 19.4266C17.7449 19.3055 17.7209 19.1856 17.6744 19.0738C17.6279 18.9622 17.5596 18.8607 17.4737 18.7755C17.3019 18.6047 17.0696 18.5089 16.8274 18.5089C16.5853 18.5089 16.353 18.6047 16.1811 18.7755C15.9904 18.9771 15.8099 19.1883 15.6403 19.4082C15.6191 19.4366 15.5913 19.4598 15.5595 19.4756C15.5277 19.4916 15.4926 19.4999 15.457 19.4999C15.4215 19.4999 15.3864 19.4916 15.3546 19.4756C15.3228 19.4598 15.295 19.4366 15.2737 19.4082C15.1023 19.1873 14.9186 18.976 14.7237 18.7755C14.5519 18.6047 14.3196 18.5089 14.0774 18.5089C13.8353 18.5089 13.603 18.6047 13.4311 18.7755C13.3453 18.8607 13.2771 18.9622 13.2305 19.0738C13.184 19.1856 13.1601 19.3055 13.1601 19.4266C13.1601 19.5475 13.184 19.6674 13.2305 19.7791C13.2771 19.8908 13.3453 19.9923 13.4311 20.0775C13.8655 20.53 14.2079 21.0625 14.4395 21.6453C14.4551 21.6784 14.4631 21.7143 14.4631 21.7508C14.4631 21.7873 14.4551 21.8232 14.4395 21.8562C14.4159 21.8845 14.3864 21.9072 14.3533 21.9231C14.3201 21.9388 14.2839 21.9473 14.247 21.948H11.1854C11.1499 21.9472 11.1151 21.9387 11.0833 21.9228C11.0516 21.907 11.0238 21.8842 11.0021 21.8562C10.9844 21.8239 10.9752 21.7876 10.9752 21.7508C10.9752 21.714 10.9844 21.6777 11.0021 21.6453C11.221 21.0624 11.5545 20.5293 11.9829 20.0775C12.1555 19.9049 12.2524 19.6706 12.2524 19.4266C12.2524 19.1824 12.1555 18.9481 11.9829 18.7755C11.8103 18.6028 11.5761 18.5059 11.332 18.5059C11.088 18.5059 10.8538 18.6028 10.6811 18.7755C10.4904 18.9771 10.3099 19.1883 10.1403 19.4082C10.1191 19.4366 10.0913 19.4598 10.0595 19.4756C10.0277 19.4916 9.99261 19.4999 9.95703 19.4999C9.92145 19.4999 9.88638 19.4916 9.85457 19.4756C9.82277 19.4598 9.79499 19.4366 9.77374 19.4082C9.50786 19.0689 9.28785 18.8397 9.23292 18.7755C9.14743 18.6901 9.04598 18.6222 8.93422 18.5759C8.82259 18.5296 8.70291 18.5059 8.58197 18.5059C8.46116 18.5059 8.34148 18.5296 8.22984 18.5759C8.11808 18.6222 8.01663 18.6901 7.93114 18.7755C7.84578 18.861 7.7779 18.9624 7.73164 19.0742C7.68537 19.1859 7.66161 19.3056 7.66161 19.4266C7.66161 19.5474 7.68537 19.6671 7.73164 19.7788C7.7779 19.8905 7.84578 19.992 7.93114 20.0775C8.3685 20.5276 8.71133 21.0607 8.9395 21.6453C8.95509 21.6784 8.96313 21.7143 8.96313 21.7508C8.96313 21.7873 8.95509 21.8232 8.9395 21.8562C8.91587 21.8845 8.88645 21.9072 8.85326 21.9231C8.82007 21.9388 8.78387 21.9473 8.74703 21.948H5.68539C5.64993 21.9472 5.61511 21.9387 5.58331 21.9228C5.55163 21.907 5.52384 21.8842 5.50197 21.8562C5.48437 21.8239 5.47519 21.7876 5.47519 21.7508C5.47519 21.714 5.48437 21.6777 5.50197 21.6453C5.72096 21.0624 6.05448 20.5293 6.48292 20.0775C6.65552 19.9049 6.75245 19.6706 6.75245 19.4266C6.75245 19.1824 6.65552 18.9481 6.48292 18.7755C6.31031 18.6028 6.07611 18.5059 5.83197 18.5059C5.58796 18.5059 5.35375 18.6028 5.18114 18.7755C5.12621 18.8397 4.90621 19.0689 4.64032 19.4082C4.61908 19.4366 4.59129 19.4598 4.55949 19.4756C4.52768 19.4916 4.49261 19.4999 4.45703 19.4999C4.42145 19.4999 4.38638 19.4916 4.35457 19.4756C4.32277 19.4598 4.29499 19.4366 4.27374 19.4082C4.00786 19.0689 3.78785 18.8397 3.73292 18.7755C3.56031 18.6028 3.32611 18.5059 3.08197 18.5059C2.83796 18.5059 2.60375 18.6028 2.43114 18.7755C2.25854 18.9481 2.16161 19.1824 2.16161 19.4266C2.16161 19.6706 2.25854 19.9049 2.43114 20.0775C2.8685 20.5276 3.21133 21.0607 3.4395 21.6453C3.45723 21.6777 3.4664 21.714 3.4664 21.7508C3.4664 21.7876 3.45723 21.8239 3.4395 21.8562C3.41775 21.8842 3.38997 21.907 3.35816 21.9228C3.32648 21.9387 3.29166 21.9472 3.25621 21.948H2.62374C2.38061 21.948 2.14741 22.0445 1.97556 22.2164C1.80358 22.3884 1.70703 22.6216 1.70703 22.8648C1.70703 23.108 1.80358 23.3412 1.97556 23.5131C2.14741 23.6851 2.38061 23.7817 2.62374 23.7817H22.7903C23.0335 23.7817 23.2667 23.6851 23.4385 23.5131C23.6105 23.3412 23.707 23.108 23.707 22.8648C23.707 22.6216 23.6105 22.3884 23.4385 22.2164C23.2667 22.0445 23.0335 21.948 22.7903 21.948V21.9113Z" fill="#514AF3"/>
</svg>
