<svg width="25" height="25" viewBox="0 0 25 25" fill="none" xmlns="http://www.w3.org/2000/svg">
<mask id="mask0_7_97" style="mask-type:luminance" maskUnits="userSpaceOnUse" x="14" y="12" width="10" height="10">
<path d="M23.4072 12.3896H14.4122V21.993H23.4072V12.3896Z" fill="white"/>
</mask>
<g mask="url(#mask0_7_97)">
<path d="M21.4402 18.3917C21.8024 18.3917 22.0961 18.0782 22.0961 17.6914C22.0961 17.3048 21.8024 16.9912 21.4402 16.9912C21.078 16.9912 20.7843 17.3048 20.7843 17.6914C20.7843 18.0782 21.078 18.3917 21.4402 18.3917Z" fill="#E69F69"/>
<path d="M16.6617 18.7925C16.8687 18.7925 17.0366 18.6133 17.0366 18.3923C17.0366 18.1713 16.8687 17.9922 16.6617 17.9922C16.4547 17.9922 16.287 18.1713 16.287 18.3923C16.287 18.6133 16.4547 18.7925 16.6617 18.7925Z" fill="#E69F69"/>
<path d="M18.2546 19.9923C18.6169 19.9923 18.9106 19.6788 18.9106 19.292C18.9106 18.9053 18.6169 18.5918 18.2546 18.5918C17.8924 18.5918 17.5988 18.9053 17.5988 19.292C17.5988 19.6788 17.8924 19.9923 18.2546 19.9923Z" fill="#E69F69"/>
<path d="M23.4076 15.9112C23.4076 13.9586 21.3387 12.6662 19.4273 12.5902C19.2374 12.5844 19.0525 12.6559 18.9101 12.7902L14.6712 16.5955C14.6069 16.6489 14.5533 16.7155 14.5138 16.7916C14.4436 16.9113 14.4084 17.0506 14.4126 17.1917V19.2724C14.4126 19.3785 14.452 19.4803 14.5223 19.5554C14.5926 19.6305 14.6879 19.6726 14.7873 19.6726C14.8732 19.6682 14.9572 19.7003 15.0212 19.7617C15.085 19.8232 15.1236 19.9091 15.1285 20.0007C15.127 20.0703 15.1053 20.1378 15.0663 20.1937C15.0274 20.2497 14.9731 20.2913 14.911 20.3128C14.769 20.363 14.645 20.4587 14.5558 20.5869C14.4665 20.715 14.4166 20.8695 14.4126 21.0291C14.4133 21.1374 14.4365 21.2442 14.4806 21.3417C14.5247 21.4393 14.5885 21.5252 14.6675 21.5933C14.8024 21.725 14.9794 21.7965 15.1622 21.7933H15.2596L22.763 20.793C22.9395 20.7723 23.1029 20.683 23.2217 20.5421C23.3407 20.4012 23.4068 20.2184 23.4076 20.0287V15.9112ZM15.6719 20.9211C15.6522 20.9234 15.6324 20.9193 15.615 20.9092C15.5975 20.8992 15.5834 20.8839 15.5744 20.865C15.5639 20.8485 15.5583 20.829 15.5583 20.809C15.5583 20.789 15.5639 20.7696 15.5744 20.753C15.6902 20.6248 15.7754 20.469 15.823 20.2983C15.8705 20.1277 15.8791 19.9474 15.8478 19.7726C15.8167 19.5977 15.7466 19.4335 15.6435 19.2935C15.5405 19.1536 15.4076 19.0421 15.2558 18.9684C15.2269 18.9506 15.2031 18.9249 15.1866 18.8939C15.1702 18.863 15.1617 18.8279 15.1622 18.7923V17.5359C15.1626 17.4869 15.1795 17.4399 15.2097 17.4031C15.2401 17.3664 15.2817 17.3425 15.327 17.3358L22.4481 16.3914C22.4742 16.3883 22.5008 16.3909 22.5258 16.3992C22.551 16.4075 22.5743 16.4212 22.5943 16.4394C22.6145 16.4584 22.6306 16.4818 22.6416 16.5081C22.6527 16.5344 22.6582 16.5628 22.6579 16.5915V19.8167C22.6575 19.8655 22.6406 19.9127 22.6104 19.9495C22.58 19.9861 22.5384 20.01 22.4931 20.0167L15.6719 20.9211Z" fill="#E69F69"/>
<path d="M20.4091 19.5933C20.6161 19.5933 20.7839 19.4141 20.7839 19.1931C20.7839 18.9721 20.6161 18.793 20.4091 18.793C20.2021 18.793 20.0343 18.9721 20.0343 19.1931C20.0343 19.4141 20.2021 19.5933 20.4091 19.5933Z" fill="#E69F69"/>
</g>
<mask id="mask1_7_97" style="mask-type:luminance" maskUnits="userSpaceOnUse" x="2" y="2" width="14" height="17">
<path d="M15.6504 2.18555H2.49524V18.1511H15.6504V2.18555Z" fill="white"/>
</mask>
<g mask="url(#mask1_7_97)">
<path d="M14.2255 6.91585C14.0963 6.76112 13.922 6.67433 13.7404 6.67433C13.5588 6.67433 13.3845 6.76112 13.2552 6.91585L12.5975 7.72085C12.5715 7.75579 12.5391 7.78304 12.503 7.80032C12.4668 7.81761 12.4279 7.82457 12.3892 7.82061C12.3512 7.81869 12.314 7.80705 12.2799 7.7864C12.246 7.76575 12.216 7.73658 12.1919 7.70081L11.5999 6.84275C11.5616 6.78393 11.5404 6.71142 11.5397 6.63652V5.5122C11.5397 5.42397 11.5108 5.33946 11.4594 5.27704C11.408 5.21462 11.3383 5.17969 11.2655 5.17969H6.88047C6.80784 5.17969 6.73813 5.21462 6.68663 5.27704C6.63525 5.33946 6.60646 5.42397 6.60646 5.5122V6.60987C6.61085 6.6939 6.58937 6.77685 6.54608 6.84275L5.95961 7.70753C5.93307 7.74114 5.90114 7.76779 5.86573 7.78616C5.83042 7.8044 5.79242 7.81377 5.75407 7.81377C5.71562 7.81377 5.67773 7.8044 5.64231 7.78616C5.60701 7.76779 5.57507 7.74114 5.54854 7.70753L4.89078 6.92258C4.82736 6.84479 4.75203 6.78297 4.66905 6.74047C4.58596 6.6981 4.49691 6.67601 4.40685 6.67541C4.31667 6.67469 4.2274 6.6957 4.14397 6.73687C4.06054 6.77817 3.98465 6.83903 3.92056 6.91585C3.79114 7.07119 3.71794 7.28246 3.71693 7.50322C3.71581 7.7241 3.78721 7.93633 3.91505 8.09335L4.89629 9.29737C4.92586 9.33374 4.94812 9.37779 4.9615 9.42629C4.97477 9.47467 4.97871 9.52616 4.97297 9.57682C4.97297 9.64333 4.97297 9.70983 4.97297 9.77633V16.4886C4.97297 16.9274 5.11588 17.3483 5.37044 17.6598C5.62511 17.9714 5.97085 18.1482 6.33234 18.1517H11.8137C11.9937 18.1517 12.1718 18.1087 12.3381 18.025C12.5044 17.9415 12.6554 17.819 12.7827 17.6645C12.9099 17.5102 13.0108 17.3267 13.0797 17.1251C13.1485 16.9233 13.1841 16.707 13.1841 16.4886V9.77633C13.1841 9.70983 13.1841 9.64333 13.1841 9.57682C13.1782 9.52616 13.1821 9.47467 13.1955 9.42629C13.2088 9.37779 13.2312 9.33374 13.2607 9.29737L14.2419 8.09335C14.3672 7.93393 14.4358 7.72086 14.4328 7.50058C14.4296 7.28018 14.3552 7.07011 14.2255 6.91585Z" fill="#514AF3"/>
<path d="M6.08508 4.18124H12.0598C12.1003 4.18052 12.1403 4.16948 12.1771 4.14883C12.2139 4.12819 12.2468 4.09842 12.2735 4.06144C12.2983 4.02219 12.316 3.97705 12.3255 3.92892C12.3349 3.88078 12.3358 3.83072 12.3283 3.78211C12.2525 3.33135 12.0507 2.92621 11.757 2.63522C11.4634 2.34436 11.096 2.18543 10.7168 2.18555H7.42803C7.04889 2.18543 6.68145 2.34436 6.38787 2.63522C6.09419 2.92621 5.89236 3.33135 5.81647 3.78211C5.80905 3.83072 5.80995 3.88078 5.81939 3.92892C5.82883 3.97705 5.8466 4.02219 5.87134 4.06144C5.8981 4.09842 5.93093 4.12819 5.96781 4.14883C6.00458 4.16948 6.0446 4.18052 6.08508 4.18124Z" fill="#514AF3"/>
</g>
</svg>
