<svg width="25" height="25" viewBox="0 0 25 25" fill="none" xmlns="http://www.w3.org/2000/svg">
<path d="M9.06543 6.4559C9.16286 7.46503 9.29384 8.40912 9.45274 9.29248C9.99251 9.07596 10.6113 9.14657 11.0996 9.50432C11.7649 9.99173 12.5423 10.2375 13.3229 10.2375C14.1035 10.2375 14.881 9.99173 15.5463 9.50432C16.1546 9.0586 16.9656 9.0586 17.574 9.50432C18.2393 9.99173 19.0166 10.2375 19.7972 10.2375C20.6231 10.2375 21.4451 9.96251 22.1349 9.41725C22.2244 9.34654 22.3216 9.28411 22.4241 9.23185C22.4006 8.36405 22.3699 7.59668 22.336 6.92526C22.3252 6.71282 22.2295 6.51644 22.0745 6.38958C21.9196 6.26261 21.7215 6.21813 21.5339 6.2681C21.3022 6.32994 21.0828 6.44413 20.8907 6.60072C20.2617 7.11366 19.5234 7.36898 18.7857 7.36898C18.0943 7.36898 17.4026 7.14468 16.8009 6.69467C16.1746 6.22621 15.3271 6.22621 14.7008 6.69467C14.0991 7.14468 13.4074 7.36898 12.716 7.36898C12.0246 7.36898 11.3329 7.14468 10.7313 6.69467C10.2408 6.32784 9.61472 6.24825 9.06543 6.4559Z" fill="#514AF3"/>
<path d="M20.6487 22.4161L20.6477 22.4158C18.2621 21.8539 16.5167 21.4429 14.6698 19.783C15.2283 19.6242 15.7676 19.366 16.2628 19.0081C16.4362 18.8827 16.6815 18.8827 16.8549 19.0081C17.748 19.6537 18.7847 19.9744 19.8181 19.9744C20.6817 19.9744 21.5477 19.7504 22.33 19.3001C22.3111 19.6079 22.2917 19.8902 22.2726 20.1475C22.1986 21.138 21.7258 21.9852 21.0237 22.5045C20.8969 22.4745 20.7719 22.4451 20.6487 22.4161Z" fill="#514AF3"/>
<path d="M22.3503 17.6453C22.2644 17.6916 22.1828 17.7452 22.1067 17.8047C21.4171 18.3436 20.5954 18.6153 19.7699 18.6153C18.9896 18.6153 18.2125 18.3724 17.5475 17.8907C16.9394 17.4503 16.1288 17.4503 15.5207 17.8907C14.9053 18.3365 14.1938 18.5778 13.4727 18.6112C12.7688 17.7789 12.0526 16.7278 11.4006 15.4032C12.0105 15.655 12.655 15.7805 13.2983 15.7805C14.3242 15.7805 15.3535 15.4614 16.2401 14.8192C16.4123 14.6944 16.6558 14.6944 16.8281 14.8192C17.7147 15.4614 18.7439 15.7805 19.7699 15.7805C20.6866 15.7805 21.606 15.5257 22.4239 15.0132C22.4077 15.9969 22.3816 16.8726 22.3503 17.6453Z" fill="#514AF3"/>
<path d="M22.1778 13.6163C22.2811 13.5361 22.3943 13.4668 22.5144 13.411C22.5153 13.2025 22.5157 12.9898 22.5157 12.7732C22.5157 12.0822 22.5111 11.432 22.5026 10.8215C21.6782 11.3361 20.751 11.592 19.8264 11.592C18.794 11.592 17.7583 11.2729 16.866 10.6307C16.6927 10.5059 16.4477 10.5059 16.2744 10.6307C15.3822 11.2729 14.3465 11.592 13.314 11.592C12.2816 11.592 11.2458 11.2729 10.3536 10.6307C10.1803 10.5059 9.93529 10.5059 9.762 10.6307C9.74724 10.6414 9.73238 10.6519 9.71753 10.6623C9.95621 11.6771 10.2343 12.6005 10.5404 13.4403C10.7291 13.495 10.9109 13.5823 11.0776 13.7022C11.7468 14.184 12.5288 14.4268 13.314 14.4268C14.0993 14.4268 14.8812 14.184 15.5504 13.7022C16.1624 13.2618 16.9781 13.2618 17.59 13.7022C18.2593 14.184 19.0413 14.4268 19.8264 14.4268C20.6571 14.4268 21.484 14.1551 22.1778 13.6163Z" fill="#514AF3"/>
<path d="M5.20767 23.0233C6.68806 23.1573 9.09898 23.303 12.5857 23.303C14.6407 23.303 16.322 23.2523 17.6594 23.1833C17.6594 23.1833 7.99413 20.9168 7.52919 3.61639C7.50957 2.88384 6.9869 2.2571 6.30663 2.25879C5.54631 2.26069 4.95114 2.333 4.50087 2.42455C3.75241 2.57675 3.29252 3.2753 3.21797 4.09183C3.08251 5.5762 2.89941 8.39772 2.89941 12.8063C2.89941 16.5941 3.03459 19.2103 3.15855 20.8134C3.25094 22.0081 4.09862 22.9227 5.20767 23.0233Z" fill="#E69F69"/>
</svg>
