<svg width="25" height="25" viewBox="0 0 25 25" fill="none" xmlns="http://www.w3.org/2000/svg">
<path d="M5.58074 9.85033C5.84642 9.88315 6.11558 9.85872 6.37238 9.77868C6.62928 9.69852 6.86861 9.56427 7.07668 9.38379C7.48057 9.0311 7.74605 8.52814 7.82041 7.9749L8.13799 4.90598C8.1436 4.86715 8.15913 4.83073 8.18262 4.80074C8.20622 4.77064 8.23697 4.74806 8.27159 4.73552C8.30275 4.71382 8.33901 4.70237 8.37609 4.70237C8.41317 4.70237 8.44943 4.71382 8.48058 4.73552L9.20756 5.39051C9.28622 5.48801 9.38346 5.5662 9.49266 5.61974C9.60195 5.67318 9.72065 5.70088 9.84077 5.70066C9.9609 5.70044 10.0795 5.67242 10.1886 5.61854C10.2978 5.56467 10.3947 5.48615 10.4731 5.38833C10.5514 5.29061 10.6091 5.17589 10.6424 5.052C10.6757 4.92801 10.6837 4.7979 10.6659 4.67031C10.6481 4.54282 10.6049 4.4209 10.5394 4.31293C10.4737 4.20486 10.3872 4.11336 10.2856 4.04455L8.66445 2.57285C8.48886 2.41722 8.27752 2.31515 8.05259 2.2772C7.82766 2.23936 7.59732 2.26706 7.38588 2.35746C7.17433 2.447 6.98985 2.59738 6.85277 2.79205C6.71569 2.98682 6.63122 3.21835 6.60864 3.46121L6.40813 5.34569C6.40619 5.37753 6.39771 5.40861 6.38331 5.43653C6.3688 5.46445 6.34878 5.48866 6.32457 5.5072C6.2737 5.52966 6.2166 5.52966 6.16573 5.5072H6.03202C5.76746 5.47481 5.49953 5.4988 5.24365 5.57776C4.98767 5.65682 4.74885 5.78943 4.54078 5.96785C4.33271 6.14626 4.15947 6.36699 4.03107 6.61749C3.90257 6.86799 3.82157 7.14325 3.79245 7.42755C3.73127 8.00326 3.8851 8.58158 4.22035 9.03579C4.55559 9.4899 5.04477 9.78282 5.58074 9.85033Z" fill="#E69F69"/>
<path d="M9.18137 14.4268C9.25706 14.2042 9.24766 13.9586 9.15532 13.7434C9.06298 13.5281 8.89505 13.361 8.68831 13.2782L7.74396 12.9013C7.53057 12.8183 7.30044 12.7979 7.07714 12.8421C6.85395 12.8862 6.64568 12.9933 6.47376 13.1526C6.30461 13.3146 6.17958 13.5228 6.11186 13.7551C6.04413 13.9874 6.03637 14.235 6.08938 14.4717L6.2565 15.2523C6.26804 15.298 6.26528 15.3464 6.24873 15.3902C6.23208 15.434 6.20256 15.4707 6.16456 15.4946C5.93657 15.6343 5.74944 15.8395 5.6239 16.087C5.49846 16.3345 5.43973 16.6147 5.45434 16.8961C5.46894 17.1775 5.55628 17.4489 5.70644 17.68C5.85669 17.9111 6.06395 18.0927 6.30502 18.2043C6.54598 18.3159 6.81115 18.3533 7.07081 18.3121C7.33047 18.271 7.57429 18.1529 7.77491 17.9712C7.97553 17.7895 8.12507 17.5514 8.20668 17.2836C8.2883 17.0157 8.29882 16.7287 8.23702 16.4549C8.23702 16.3741 8.01975 15.4498 7.94457 15.1177C7.93497 15.0968 7.92997 15.0738 7.92997 15.0504C7.92997 15.0271 7.93497 15.0041 7.94457 14.9832C7.98472 14.9657 8.02966 14.9657 8.06991 14.9832C8.17655 15.0298 8.29096 15.0524 8.40607 15.0495C8.52119 15.0464 8.63447 15.0179 8.73877 14.9657C8.84316 14.9135 8.93632 14.8386 9.01252 14.7459C9.08862 14.6532 9.14613 14.5445 9.18137 14.4268Z" fill="#E69F69"/>
<path d="M14.9662 8.05609C16.12 8.05609 17.0554 7.05169 17.0554 5.81271C17.0554 4.57374 16.12 3.56934 14.9662 3.56934C13.8123 3.56934 12.877 4.57374 12.877 5.81271C12.877 7.05169 13.8123 8.05609 14.9662 8.05609Z" fill="#514AF3"/>
<path d="M20.3885 8.70241C20.1051 8.70045 19.8301 8.80525 19.6113 8.9985L19.0012 9.51902C18.6297 9.8331 18.1705 10.0038 17.6976 10.0036C17.4407 10.0069 17.1856 9.95829 16.9455 9.85993C15.6543 9.34508 14.2338 9.34508 12.9426 9.85993C12.6315 10.0287 12.2883 10.1177 11.9398 10.1202C11.5603 10.1159 11.1885 10.0044 10.8618 9.79711L10.1766 9.33951C9.97961 9.22326 9.75775 9.16448 9.53303 9.16895C9.31688 9.16851 9.10421 9.22773 8.91545 9.34082C8.72668 9.45391 8.56815 9.61728 8.45507 9.8151C8.36886 9.96615 8.31145 10.1341 8.28612 10.3092C8.26089 10.4844 8.26835 10.6631 8.30798 10.8351C8.34761 11.0071 8.41881 11.1689 8.51718 11.3111C8.61554 11.4534 8.73934 11.5732 8.88123 11.6636L9.59156 12.1213C10.3028 12.5824 11.1173 12.8273 11.9482 12.8302C12.5325 12.8152 13.1108 12.7001 13.6613 12.4891C13.7063 12.4903 13.75 12.506 13.7866 12.5341C13.8209 12.5558 13.8501 12.5858 13.8718 12.6215C13.8935 12.6573 13.9073 12.698 13.912 12.7404L14.0206 13.898C14.0291 13.9895 14.0113 14.0817 13.9695 14.1619C13.9276 14.2422 13.8637 14.3067 13.7866 14.3467L12.4914 15.0466C11.7316 15.4583 11.0942 16.0899 10.6512 16.8701C10.2082 17.6502 9.97726 18.5479 9.98431 19.4616V21.2563C9.98431 21.6133 10.1164 21.9557 10.3514 22.208C10.5866 22.4605 10.9054 22.6024 11.2379 22.6024C11.5703 22.6024 11.8891 22.4605 12.1242 22.208C12.3593 21.9557 12.4914 21.6133 12.4914 21.2563V19.4616C12.4816 19.0458 12.5806 18.6354 12.777 18.2769C12.9735 17.9185 13.2595 17.6263 13.6028 17.4336L13.9371 17.2541C13.9564 17.2431 13.9779 17.2374 13.9997 17.2374C14.0216 17.2374 14.0431 17.2431 14.0624 17.2541C14.0801 17.2651 14.0947 17.2807 14.105 17.2997C14.1152 17.3185 14.1207 17.3399 14.121 17.3618C14.1221 18.4322 14.4445 19.4738 15.0402 20.3321L16.7115 22.7639C16.911 23.0494 17.2079 23.2383 17.537 23.2888C17.8662 23.3393 18.2005 23.2472 18.4664 23.033C18.7324 22.8189 18.9083 22.5 18.9553 22.1466C19.0022 21.7932 18.9166 21.4342 18.7171 21.1487L17.0458 18.7078C16.7724 18.3208 16.6255 17.8477 16.6279 17.3618C16.6279 17.29 16.4525 13.0994 16.4525 13.0994C16.4478 13.0313 16.4574 12.9628 16.4804 12.8992C16.5036 12.8355 16.5397 12.7782 16.5862 12.7315C16.6314 12.6828 16.687 12.6467 16.7482 12.6263C16.8094 12.606 16.8742 12.6021 16.9371 12.6148C17.5735 12.7239 18.2241 12.6911 18.8481 12.5181C19.4721 12.3452 20.0562 12.036 20.564 11.6098L21.1656 11.0893C21.3682 10.9148 21.5153 10.6771 21.5866 10.4089C21.6579 10.1407 21.6499 9.85545 21.5636 9.59241C21.4774 9.32937 21.3172 9.10166 21.1051 8.94059C20.8932 8.77951 20.6399 8.69314 20.3801 8.69336L20.3885 8.70241Z" fill="#514AF3"/>
</svg>
