<svg width="25" height="25" viewBox="0 0 25 25" fill="none" xmlns="http://www.w3.org/2000/svg">
<mask id="mask0_7_146" style="mask-type:luminance" maskUnits="userSpaceOnUse" x="2" y="2" width="21" height="22">
<path d="M22.7382 2.07129H2.67493V23.4915H22.7382V2.07129Z" fill="white"/>
</mask>
<g mask="url(#mask0_7_146)">
<path d="M22.4211 4.74814C22.3207 4.66471 22.2038 4.60684 22.0792 4.57891C21.9546 4.5511 21.8257 4.55405 21.7023 4.58743L20.0303 5.0337C19.86 5.08056 19.7079 5.18364 19.5957 5.32826H14.0197C13.9745 5.32826 13.9305 5.31252 13.8943 5.28364C13.8581 5.25465 13.8317 5.21394 13.8191 5.16755L13.7104 4.74814C13.6259 4.48482 13.4655 4.25666 13.2523 4.09642C13.0392 3.93607 12.784 3.8518 12.5233 3.85559H7.6914C7.42991 3.85263 7.17397 3.93713 6.9597 4.09713C6.74532 4.25725 6.58315 4.48482 6.49603 4.74814L5.31729 9.05004C5.30465 9.09631 5.27827 9.13702 5.24202 9.16602C5.20589 9.19501 5.16188 9.21063 5.11665 9.21063H4.3476C4.1258 9.21063 3.91319 9.30472 3.75646 9.47206C3.59972 9.63939 3.5116 9.86649 3.5116 10.1032V13.2716C3.51215 13.3461 3.53022 13.4195 3.56414 13.4847C3.59806 13.5501 3.64672 13.6052 3.7058 13.6451C3.76488 13.6851 3.83239 13.7086 3.90211 13.7135C3.97183 13.7183 4.04166 13.7045 4.10518 13.6731C4.70564 13.3788 5.35874 13.2265 6.0195 13.227H18.559C19.43 13.2277 20.2827 13.494 21.0167 13.9944C21.0661 14.0273 21.1212 14.049 21.1788 14.0581C21.2363 14.0673 21.2949 14.0639 21.3511 14.048C21.4082 14.0309 21.4613 14.0014 21.5073 13.9615C21.5533 13.9216 21.5912 13.8721 21.6186 13.816L21.7859 13.4589C21.8934 13.2689 21.9306 13.0429 21.8905 12.8251C21.8503 12.6072 21.7355 12.4132 21.5685 12.2808L18.1494 9.70152C17.7923 9.39099 17.3476 9.21809 16.8871 9.21063H15.0981C15.0529 9.21063 15.0089 9.19501 14.9727 9.16602C14.9366 9.13702 14.9102 9.09631 14.8974 9.05004L14.4377 7.42566C14.4237 7.39501 14.4163 7.36152 14.4163 7.32743C14.4163 7.29347 14.4237 7.25986 14.4377 7.22933C14.4576 7.20211 14.483 7.17998 14.5119 7.16447C14.5407 7.14909 14.5725 7.14069 14.6049 7.13998H19.5622C19.6745 7.28459 19.8265 7.38767 19.9969 7.43453L21.6688 7.88081C21.7354 7.88945 21.8028 7.88945 21.8695 7.88081C22.0541 7.88022 22.2335 7.8143 22.3793 7.69335C22.4879 7.61311 22.577 7.50661 22.6394 7.38246C22.7019 7.25832 22.7359 7.12022 22.7388 6.97939V5.44423C22.7383 5.31015 22.7094 5.17796 22.6545 5.05749C22.5994 4.93701 22.5197 4.83122 22.4211 4.74814Z" fill="#514AF3"/>
<path d="M18.5584 14.5654H6.01884C5.13195 14.5654 4.28143 14.9415 3.65437 15.6111C3.0272 16.2806 2.67493 17.1886 2.67493 18.1355C2.67493 19.0822 3.0272 19.9903 3.65437 20.6599C4.28143 21.3293 5.13195 21.7054 6.01884 21.7054H18.5584C19.4451 21.7054 20.2957 21.3293 20.9228 20.6599C21.5499 19.9903 21.9022 19.0822 21.9022 18.1355C21.9022 17.1886 21.5499 16.2806 20.9228 15.6111C20.2957 14.9415 19.4451 14.5654 18.5584 14.5654ZM6.85473 19.9205C6.52407 19.9205 6.20085 19.8157 5.92584 19.6196C5.65094 19.4235 5.43667 19.1447 5.31008 18.8186C5.18361 18.4924 5.15046 18.1335 5.21498 17.7872C5.27949 17.4409 5.43866 17.123 5.67255 16.8732C5.90633 16.6237 6.20428 16.4536 6.52862 16.3847C6.85296 16.3158 7.18904 16.3512 7.49454 16.4863C7.80014 16.6214 8.06118 16.8502 8.24497 17.1438C8.42864 17.4373 8.52674 17.7824 8.52674 18.1355C8.52674 18.6089 8.3506 19.063 8.03702 19.3976C7.72343 19.7324 7.29823 19.9205 6.85473 19.9205ZM12.2885 19.9205C11.9579 19.9205 11.6347 19.8157 11.3596 19.6196C11.0847 19.4235 10.8705 19.1447 10.7439 18.8186C10.6173 18.4924 10.5843 18.1335 10.6488 17.7872C10.7133 17.4409 10.8725 17.123 11.1064 16.8732C11.3401 16.6237 11.6381 16.4536 11.9624 16.3847C12.2867 16.3158 12.6229 16.3512 12.9283 16.4863C13.2338 16.6214 13.495 16.8502 13.6787 17.1438C13.8625 17.4373 13.9604 17.7824 13.9604 18.1355C13.9604 18.6089 13.7843 19.063 13.4708 19.3976C13.1572 19.7324 12.732 19.9205 12.2885 19.9205ZM17.7223 19.9205C17.3917 19.9205 17.0685 19.8157 16.7935 19.6196C16.5186 19.4235 16.3042 19.1447 16.1777 18.8186C16.0511 18.4924 16.018 18.1335 16.0825 17.7872C16.147 17.4409 16.3063 17.123 16.5401 16.8732C16.7739 16.6237 17.0719 16.4536 17.3961 16.3847C17.7205 16.3158 18.0567 16.3512 18.3622 16.4863C18.6676 16.6214 18.9288 16.8502 19.1125 17.1438C19.2963 17.4373 19.3942 17.7824 19.3942 18.1355C19.3942 18.6089 19.2181 19.063 18.9046 19.3976C18.5911 19.7324 18.1657 19.9205 17.7223 19.9205Z" fill="#E69F69"/>
</g>
</svg>
