<svg width="25" height="25" viewBox="0 0 25 25" fill="none" xmlns="http://www.w3.org/2000/svg">
<g clip-path="url(#clip0_7_329)">
<mask id="mask0_7_329" style="mask-type:luminance" maskUnits="userSpaceOnUse" x="0" y="0" width="25" height="25">
<path d="M24.8418 0.78125H0.841797V24.7812H24.8418V0.78125Z" fill="white"/>
</mask>
<g mask="url(#mask0_7_329)">
<mask id="mask1_7_329" style="mask-type:luminance" maskUnits="userSpaceOnUse" x="0" y="0" width="25" height="25">
<path d="M24.8418 0.78125H0.841797V24.7812H24.8418V0.78125Z" fill="white"/>
</mask>
<g mask="url(#mask1_7_329)">
<path d="M12.8418 1.53125C7.94845 1.53125 5.3118 1.88481 3.93018 2.1982C2.74741 2.46649 2.07325 3.4616 1.94775 4.53008C1.79252 5.85155 1.5918 8.06515 1.5918 10.6812C1.5918 10.7803 1.59209 10.8788 1.59265 10.9767C1.62028 15.7878 4.16548 20.2857 8.44945 22.5537C9.2165 22.9598 9.99485 23.3244 10.7296 23.5889C11.455 23.8501 12.1852 24.0312 12.8418 24.0312C13.4984 24.0312 14.2286 23.8501 14.954 23.5889C15.6887 23.3244 16.4671 22.9598 17.2341 22.5537C21.5181 20.2857 24.0633 15.7878 24.0909 10.9767C24.0915 10.8788 24.0918 10.7803 24.0918 10.6812C24.0918 8.06515 23.8911 5.85155 23.7359 4.53008C23.6104 3.46161 22.9362 2.46649 21.7534 2.1982C20.3718 1.88481 17.7352 1.53125 12.8418 1.53125Z" fill="#514AF3"/>
<path d="M12.8418 5.03125C10.2944 5.03125 8.71935 5.1912 7.75615 5.36498C6.5513 5.58235 5.8715 6.58175 5.76587 7.6512C5.68024 8.518 5.5918 9.75725 5.5918 11.1812C5.5918 14.0863 7.0034 16.7593 9.35665 18.4422C9.9243 18.8481 10.5247 19.2347 11.0989 19.5226C11.6534 19.8007 12.2686 20.0312 12.8418 20.0312C13.415 20.0312 14.0302 19.8007 14.5847 19.5226C15.1588 19.2347 15.7593 18.8481 16.327 18.4422C18.6802 16.7593 20.0918 14.0863 20.0918 11.1812C20.0918 9.75725 20.0034 8.518 19.9178 7.6512C19.8121 6.58175 19.1323 5.58235 17.9274 5.36498C16.9642 5.1912 15.3892 5.03125 12.8418 5.03125Z" fill="#E69F69"/>
</g>
</g>
</g>
<defs>
<clipPath id="clip0_7_329">
<rect width="24" height="24" fill="white" transform="translate(0.841797 0.78125)"/>
</clipPath>
</defs>
</svg>
