<svg width="25" height="25" viewBox="0 0 25 25" fill="none" xmlns="http://www.w3.org/2000/svg">
<path d="M17.8343 7.14873C19.1699 7.14873 20.2525 5.99286 20.2525 4.56704C20.2525 3.14123 19.1699 1.98535 17.8343 1.98535C16.4988 1.98535 15.4161 3.14123 15.4161 4.56704C15.4161 5.99286 16.4988 7.14873 17.8343 7.14873Z" fill="#514AF3"/>
<path d="M16.355 7.62344C16.9585 7.91963 17.2534 8.65419 17.0463 9.32794L16.0944 12.424C16.0515 12.5634 16.1366 12.7099 16.2723 12.7337C17.4543 12.9404 19.055 13.4319 20.0909 13.772C20.6977 13.9711 21.069 14.612 20.9733 15.2819C20.7682 16.7181 20.3809 19.2731 19.9047 21.6715C19.8039 22.1791 19.442 22.5815 18.9573 22.6205C18.6793 22.6429 18.3384 22.6495 17.9536 22.6153C17.5074 22.5755 17.2077 22.1346 17.2498 21.6586L17.6208 17.4676C17.6322 17.3388 17.5437 17.2245 17.4232 17.2119L16.0249 17.0669C15.675 14.1676 13.6165 11.8397 10.9623 11.2716C11.1529 10.6562 11.3622 10.0091 11.5896 9.34457L10.5635 8.71227C10.4813 8.66152 10.3779 8.6729 10.3071 8.74049L7.54241 11.3774C7.30064 11.608 6.97752 11.7561 6.67797 11.6236C6.36745 11.4862 6.08224 11.2418 5.85327 11C5.48324 10.6093 5.48457 10.0009 5.78791 9.54954C6.45924 8.55029 7.77773 6.74013 9.40775 5.27439C9.74593 4.97044 10.2094 4.89497 10.6235 5.06012C11.6376 5.46481 13.7344 6.33708 16.355 7.62344Z" fill="#514AF3"/>
<path fill-rule="evenodd" clip-rule="evenodd" d="M14.9786 17.9453C14.9786 14.8344 12.6165 12.3125 9.70263 12.3125C6.78874 12.3125 4.42664 14.8344 4.42664 17.9453C4.42664 21.0563 6.78874 23.5781 9.70263 23.5781C12.6165 23.5781 14.9786 21.0563 14.9786 17.9453ZM12.1208 17.9453C12.1208 16.5195 11.0381 15.3636 9.70263 15.3636C8.36713 15.3636 7.28448 16.5195 7.28448 17.9453C7.28448 19.3711 8.36713 20.527 9.70263 20.527C11.0381 20.527 12.1208 19.3711 12.1208 17.9453Z" fill="#E69F69"/>
</svg>
