<svg width="25" height="25" viewBox="0 0 25 25" fill="none" xmlns="http://www.w3.org/2000/svg">
<path d="M15.2058 2.66113H12.6712C12.3108 2.66113 12.0186 2.88053 12.0186 3.15116V3.98531C12.0186 4.25595 12.3108 4.47534 12.6712 4.47534H15.2058C15.5662 4.47534 15.8584 4.25595 15.8584 3.98531V3.15116C15.8584 2.88053 15.5662 2.66113 15.2058 2.66113Z" fill="#514AF3"/>
<path d="M12.7727 4.74902H12.4728C12.4301 4.74902 12.3955 4.87234 12.3955 5.02447V5.49335C12.3955 5.64548 12.4301 5.7688 12.4728 5.7688H12.7727C12.8154 5.7688 12.85 5.64548 12.85 5.49335V5.02447C12.85 4.87234 12.8154 4.74902 12.7727 4.74902Z" fill="#514AF3"/>
<path d="M13.6395 7.60189L13.6399 7.60197C14.3602 7.74818 15.04 8.04667 15.6324 8.47707C16.2242 8.90708 16.7147 9.45858 17.0699 10.0938C17.1064 10.1572 17.1258 10.2292 17.1258 10.3026L13.6395 7.60189ZM13.6395 7.60189C13.6171 7.59738 13.5976 7.58551 13.5841 7.56917C13.5706 7.55292 13.5637 7.53314 13.5637 7.51325V7.5132M13.6395 7.60189L13.5637 7.5132M16.7067 10.7195C16.7791 10.7199 16.8506 10.7015 16.9139 10.6658C16.9777 10.6299 17.0311 10.5777 17.0683 10.5142L16.8758 10.3026C16.8758 10.3325 16.8678 10.3619 16.8526 10.3878C16.8379 10.4129 16.8168 10.4336 16.7913 10.448C16.7658 10.4624 16.7369 10.4698 16.7075 10.4695H8.53061M16.7067 10.7195C16.7062 10.7195 16.7057 10.7195 16.7053 10.7195L16.7075 10.4696V10.7195H16.7067ZM16.7067 10.7195H8.53141M8.53141 10.7195C8.53188 10.7195 8.53235 10.7195 8.53281 10.7195L8.53061 10.4695M8.53141 10.7195H8.53061V10.4695M8.53141 10.7195C8.45896 10.7199 8.38748 10.7015 8.32415 10.6658C8.26038 10.6299 8.20698 10.5777 8.16975 10.5142L8.38546 10.2175C8.37029 10.2434 8.3623 10.2727 8.3623 10.3026C8.3623 10.3325 8.37029 10.3619 8.38546 10.3878C8.40014 10.4129 8.42132 10.4336 8.44682 10.448C8.47232 10.4624 8.50124 10.4698 8.53061 10.4695M13.5637 7.5132V7.23392C13.5637 6.98576 13.4636 6.74853 13.2867 6.57419C13.11 6.39997 12.871 6.30273 12.6225 6.30273C12.374 6.30273 12.135 6.39997 11.9583 6.57419C11.7814 6.74853 11.6813 6.98576 11.6813 7.23392V7.5132V7.51325M13.5637 7.5132L11.6813 7.51325M11.6813 7.51325C11.6813 7.53314 11.6744 7.55292 11.6609 7.56917C11.6474 7.58551 11.6279 7.59738 11.6055 7.60189L11.6055 7.60189M11.6813 7.51325L11.6055 7.60189M11.6055 7.60189C10.8839 7.74714 10.2026 8.0452 9.60896 8.47564M11.6055 7.60189L9.60896 8.47564M9.60896 8.47564C9.0158 8.90573 8.52415 9.45777 8.16817 10.0938M9.60896 8.47564L8.16817 10.0938M8.16817 10.0938C8.13166 10.1572 8.1123 10.2292 8.1123 10.3026C8.1123 10.3771 8.13221 10.4501 8.16974 10.5141L8.16817 10.0938Z" fill="#E69F69" stroke="white" stroke-width="0.5"/>
<path d="M8.25419 11.1504C8.17672 11.1509 8.10157 11.1765 8.04035 11.2233C7.97913 11.2701 7.93525 11.3354 7.91551 11.4092C7.82934 11.771 7.78528 12.1412 7.78418 12.5128V14.7675C7.78418 14.8628 7.8533 14.9037 7.93624 14.856L11.7793 12.7307C12.0374 12.59 12.3276 12.5162 12.6226 12.5162C12.9176 12.5162 13.2077 12.59 13.4658 12.7307L17.3089 14.856C17.3918 14.9037 17.461 14.856 17.461 14.7675V12.5128C17.4599 12.1412 17.4158 11.771 17.3296 11.4092C17.3099 11.3354 17.266 11.2701 17.2048 11.2233C17.1436 11.1765 17.0684 11.1509 16.9909 11.1504H8.25419Z" fill="#514AF3"/>
<path d="M17.4037 15.4016L17.4037 15.4016L17.4017 15.4005L13.2558 13.1056C13.0649 12.9973 12.8487 12.9404 12.6289 12.9404C12.4091 12.9404 12.193 12.9973 12.002 13.1056L7.85608 15.4005L7.85608 15.4005L7.85412 15.4016C7.73983 15.4662 7.64951 15.5665 7.59778 15.6876C7.54639 15.8078 7.53615 15.9416 7.56874 16.0683C7.60014 16.1971 7.67515 16.3107 7.78046 16.3907C7.88431 16.4696 8.01157 16.5113 8.14158 16.5096C8.16793 16.5109 8.19225 16.5218 8.20998 16.5393C8.2279 16.557 8.23775 16.5799 8.23864 16.6034V21.4691C8.23841 21.4827 8.2354 21.4962 8.22967 21.5088C8.22417 21.5209 8.21622 21.5321 8.2061 21.5416C8.10925 21.624 8.03021 21.7252 7.97399 21.8392C7.91698 21.9548 7.88474 22.0809 7.87943 22.2096L7.87922 22.2096V22.2199C7.87922 22.468 7.97928 22.7053 8.15618 22.8796C8.33296 23.0538 8.57196 23.1511 8.82041 23.1511H16.4236C16.672 23.1511 16.911 23.0538 17.0878 22.8796C17.2647 22.7053 17.3648 22.468 17.3648 22.2199H17.3649L17.3647 22.2142C17.3618 22.0868 17.3325 21.9616 17.2788 21.846C17.2251 21.7305 17.1481 21.6273 17.0528 21.5426L16.8867 21.7294L17.0536 21.5433C17.0426 21.5334 17.034 21.5216 17.0282 21.5088C17.0224 21.4961 17.0194 21.4827 17.0192 21.4691V16.6034C17.0201 16.5799 17.0299 16.557 17.0479 16.5393C17.0656 16.5218 17.0899 16.5109 17.1162 16.5096C17.2463 16.5113 17.3735 16.4696 17.4774 16.3907C17.5827 16.3107 17.6577 16.1971 17.6891 16.0683C17.7217 15.9416 17.7114 15.8078 17.6601 15.6876C17.6083 15.5665 17.518 15.4662 17.4037 15.4016ZM10.2059 16.5096H11.5821C11.6091 16.5105 11.6341 16.5215 11.6521 16.5393C11.6701 16.557 11.6799 16.5799 11.6808 16.6034V21.1949C11.6799 21.2183 11.6701 21.2413 11.6521 21.259C11.6341 21.2768 11.6091 21.2878 11.5821 21.2887H10.2059C10.1789 21.2878 10.154 21.2768 10.1359 21.259C10.1179 21.2413 10.1081 21.2183 10.1072 21.1949V16.6034C10.1081 16.5799 10.1179 16.557 10.1359 16.5393C10.154 16.5215 10.1789 16.5105 10.2059 16.5096ZM15.1368 16.6034V21.1949C15.1359 21.2183 15.1261 21.2413 15.1081 21.259C15.09 21.2768 15.0651 21.2878 15.0381 21.2887H13.6619C13.6349 21.2878 13.61 21.2768 13.5919 21.259C13.5739 21.2413 13.5641 21.2183 13.5632 21.1949V16.6034C13.5641 16.5799 13.5739 16.557 13.5919 16.5393C13.61 16.5215 13.6349 16.5105 13.6619 16.5096H15.0381C15.0651 16.5105 15.09 16.5215 15.1081 16.5393C15.1261 16.557 15.1359 16.5799 15.1368 16.6034Z" fill="#514AF3" stroke="white" stroke-width="0.5"/>
<path d="M6.91529 16.2471H5.53289C5.19278 16.2471 4.86588 16.3802 4.62428 16.6183C4.38257 16.8565 4.24609 17.1804 4.24609 17.5188V21.7762C4.24609 22.0244 4.34616 22.2616 4.52306 22.436C4.69984 22.6102 4.93884 22.7074 5.18729 22.7074H6.91529C7.07208 22.7074 7.22318 22.6461 7.33514 22.5357C7.44724 22.4252 7.51089 22.2746 7.51089 22.1168V16.8377C7.51089 16.6798 7.44724 16.5292 7.33514 16.4188C7.22318 16.3084 7.07208 16.2471 6.91529 16.2471Z" fill="#E69F69" stroke="white" stroke-width="0.5"/>
<path d="M19.8813 16.2471H18.4989C18.3421 16.2471 18.191 16.3084 18.0791 16.4188C17.967 16.5292 17.9033 16.6798 17.9033 16.8377V22.1168C17.9033 22.2746 17.967 22.4252 18.0791 22.5357C18.191 22.6461 18.3421 22.7074 18.4989 22.7074H20.2269C20.4754 22.7074 20.7144 22.6102 20.8911 22.436C21.0681 22.2616 21.1681 22.0244 21.1681 21.7762V17.5188C21.1681 17.1804 21.0316 16.8565 20.7899 16.6183C20.5483 16.3802 20.2214 16.2471 19.8813 16.2471Z" fill="#E69F69" stroke="white" stroke-width="0.5"/>
</svg>
