<svg width="25" height="25" viewBox="0 0 25 25" fill="none" xmlns="http://www.w3.org/2000/svg">
<path d="M21.4485 21.3558H21.2543C21.1849 21.3558 21.1183 21.3264 21.0693 21.274C21.0203 21.2217 20.9926 21.1506 20.9926 21.0765V17.7584C20.9926 17.6843 21.0203 17.6132 21.0693 17.5609C21.1183 17.5085 21.1849 17.4791 21.2543 17.4791H21.4485C21.6368 17.4791 21.8173 17.3992 21.9504 17.2571C22.0834 17.1151 22.1581 16.9223 22.1581 16.7215C22.1581 16.5205 22.0834 16.3278 21.9504 16.1857C21.8173 16.0436 21.6368 15.9639 21.4485 15.9639H3.96646C3.77821 15.9639 3.59769 16.0436 3.46462 16.1857C3.33155 16.3278 3.25684 16.5205 3.25684 16.7215C3.25684 16.9223 3.33155 17.1151 3.46462 17.2571C3.59769 17.3992 3.77821 17.4791 3.96646 17.4791H4.16067C4.23006 17.4791 4.29666 17.5085 4.34563 17.5609C4.39472 17.6132 4.42237 17.6843 4.42237 17.7584V21.0765C4.42237 21.1506 4.39472 21.2217 4.34563 21.274C4.29666 21.3264 4.23006 21.3558 4.16067 21.3558H3.96646C3.77821 21.3558 3.59769 21.4357 3.46462 21.5777C3.33155 21.7198 3.25684 21.9125 3.25684 22.1134C3.25684 22.3144 3.33155 22.5071 3.46462 22.6492C3.59769 22.7912 3.77821 22.871 3.96646 22.871H21.4485C21.6368 22.871 21.8173 22.7912 21.9504 22.6492C22.0834 22.5071 22.1581 22.3144 22.1581 22.1134C22.1581 21.9125 22.0834 21.7198 21.9504 21.5777C21.8173 21.4357 21.6368 21.3558 21.4485 21.3558ZM7.91873 20.4543C7.91873 20.5834 7.87066 20.7072 7.78516 20.7985C7.69966 20.8897 7.58371 20.9411 7.46282 20.9411C7.34193 20.9411 7.22598 20.8897 7.14048 20.7985C7.05498 20.7072 7.0069 20.5834 7.0069 20.4543V18.3805C7.0069 18.2515 7.05498 18.1277 7.14048 18.0364C7.22598 17.9451 7.34193 17.8938 7.46282 17.8938C7.58371 17.8938 7.69966 17.9451 7.78516 18.0364C7.87066 18.1277 7.91873 18.2515 7.91873 18.3805V20.4543ZM11.4151 20.4543C11.4151 20.5834 11.3671 20.7072 11.2816 20.7985C11.1961 20.8897 11.0802 20.9411 10.9593 20.9411C10.8384 20.9411 10.7225 20.8897 10.637 20.7985C10.5515 20.7072 10.5034 20.5834 10.5034 20.4543V18.3805C10.5034 18.2515 10.5515 18.1277 10.637 18.0364C10.7225 17.9451 10.8384 17.8938 10.9593 17.8938C11.0802 17.8938 11.1961 17.9451 11.2816 18.0364C11.3671 18.1277 11.4151 18.2515 11.4151 18.3805V20.4543ZM14.9116 20.4543C14.9116 20.5834 14.8635 20.7072 14.778 20.7985C14.6925 20.8897 14.5766 20.9411 14.4557 20.9411C14.3348 20.9411 14.2188 20.8897 14.1333 20.7985C14.0478 20.7072 13.9999 20.5834 13.9999 20.4543V18.3805C13.9999 18.2515 14.0478 18.1277 14.1333 18.0364C14.2188 17.9451 14.3348 17.8938 14.4557 17.8938C14.5766 17.8938 14.6925 17.9451 14.778 18.0364C14.8635 18.1277 14.9116 18.2515 14.9116 18.3805V20.4543ZM18.4081 20.4543C18.4081 20.5834 18.36 20.7072 18.2745 20.7985C18.189 20.8897 18.073 20.9411 17.9522 20.9411C17.8313 20.9411 17.7153 20.8897 17.6298 20.7985C17.5443 20.7072 17.4962 20.5834 17.4962 20.4543V18.3805C17.4962 18.2515 17.5443 18.1277 17.6298 18.0364C17.7153 17.9451 17.8313 17.8938 17.9522 17.8938C18.073 17.8938 18.189 17.9451 18.2745 18.0364C18.36 18.1277 18.4081 18.2515 18.4081 18.3805V20.4543Z" fill="#E69F69" stroke="white"/>
<path d="M8.1694 9.18262L8.17764 9.18384H8.18589H17.23H17.2383L17.2466 9.18262C17.2921 9.17625 17.3359 9.15973 17.3752 9.13413C17.4144 9.10854 17.4482 9.07441 17.4743 9.03405L17.4795 9.02592L17.4837 9.01698C17.506 8.96863 17.5176 8.91554 17.5176 8.86164C17.5176 8.81004 17.5069 8.75912 17.4863 8.71253C17.1787 7.86444 16.6794 7.11075 16.033 6.51823C15.387 5.92624 14.614 5.51371 13.7828 5.31734C13.7317 5.29865 13.6876 5.26303 13.6567 5.21562C13.6249 5.1666 13.609 5.10768 13.6117 5.04809L13.6118 5.04498V5.04173V3.65637C13.6118 3.4004 13.5166 3.155 13.3471 2.97406C13.1776 2.79312 12.9478 2.69141 12.708 2.69141C12.4682 2.69141 12.2384 2.79312 12.0689 2.97406C11.8994 3.155 11.8042 3.4004 11.8042 3.65637V5.04173V5.04308V5.04457C11.8054 5.10782 11.7859 5.16958 11.749 5.21901C11.7121 5.26858 11.6602 5.30271 11.6021 5.31557L11.6009 5.31585L11.5997 5.31612C10.7732 5.51818 10.0061 5.9341 9.36576 6.5273C8.72667 7.11928 8.23359 7.86972 7.92952 8.71266C7.90909 8.75925 7.89844 8.81018 7.89844 8.86164C7.89844 8.91554 7.90998 8.96863 7.93231 9.01698L7.93649 9.02592L7.9417 9.03405C7.96783 9.07441 8.00157 9.10854 8.04077 9.13413C8.07997 9.15973 8.12386 9.17625 8.1694 9.18262Z" fill="#514AF3" stroke="white"/>
<path d="M6.68506 11.1223H7.26783C7.37083 11.1223 7.46965 11.166 7.54259 11.2438C7.61541 11.3215 7.65638 11.427 7.65638 11.537V14.8551C7.65638 14.9652 7.69723 15.0707 7.77004 15.1485C7.84299 15.2262 7.94181 15.27 8.04481 15.27H17.3686C17.4716 15.27 17.5704 15.2262 17.6434 15.1485C17.7162 15.0707 17.757 14.9652 17.757 14.8551V11.537C17.757 11.427 17.798 11.3215 17.8708 11.2438C17.9438 11.166 18.0426 11.1223 18.1456 11.1223H18.7284C18.8829 11.1223 19.0312 11.0567 19.1404 10.9401C19.2497 10.8234 19.311 10.6652 19.311 10.5001C19.311 10.3352 19.2497 10.1768 19.1404 10.0602C19.0312 9.94348 18.8829 9.87793 18.7284 9.87793H6.68506C6.53055 9.87793 6.38226 9.94348 6.27304 10.0602C6.16369 10.1768 6.10242 10.3352 6.10242 10.5001C6.10242 10.6652 6.16369 10.8234 6.27304 10.9401C6.38226 11.0567 6.53055 11.1223 6.68506 11.1223ZM13.8722 11.537C13.8722 11.372 13.9335 11.2138 14.0429 11.0971C14.1521 10.9805 14.3004 10.9149 14.4549 10.9149C14.6095 10.9149 14.7577 10.9805 14.867 11.0971C14.9763 11.2138 15.0377 11.372 15.0377 11.537V13.6109C15.0377 13.7759 14.9763 13.9342 14.867 14.0508C14.7577 14.1675 14.6095 14.2331 14.4549 14.2331C14.3004 14.2331 14.1521 14.1675 14.0429 14.0508C13.9335 13.9342 13.8722 13.7759 13.8722 13.6109V11.537ZM10.3758 11.537C10.3758 11.372 10.4372 11.2138 10.5464 11.0971C10.6557 10.9805 10.8039 10.9149 10.9585 10.9149C11.113 10.9149 11.2613 10.9805 11.3706 11.0971C11.4799 11.2138 11.5412 11.372 11.5412 11.537V13.6109C11.5412 13.7759 11.4799 13.9342 11.3706 14.0508C11.2613 14.1675 11.113 14.2331 10.9585 14.2331C10.8039 14.2331 10.6557 14.1675 10.5464 14.0508C10.4372 13.9342 10.3758 13.7759 10.3758 13.6109V11.537Z" fill="#514AF3"/>
</svg>
