<svg width="25" height="25" viewBox="0 0 25 25" fill="none" xmlns="http://www.w3.org/2000/svg">
<path d="M17.302 11.6436C17.2072 11.6441 17.1143 11.6668 17.033 11.7091C16.9517 11.7514 16.8848 11.8119 16.8393 11.8843C16.2383 12.8477 16.2383 13.1116 16.2383 13.209C16.2383 13.4546 16.3504 13.6902 16.5498 13.8639C16.7493 14.0376 17.0199 14.1352 17.302 14.1352C17.5841 14.1352 17.8547 14.0376 18.0542 13.8639C18.2537 13.6902 18.3658 13.4546 18.3658 13.209C18.3658 13.1209 18.3658 12.8569 17.7595 11.8936C17.7157 11.8201 17.6503 11.7582 17.5699 11.7142C17.4894 11.6702 17.397 11.6459 17.302 11.6436Z" fill="#514AF3"/>
<path d="M13.844 6.26172C13.7735 6.26172 13.7059 6.28608 13.656 6.32957C13.6061 6.37297 13.5781 6.43183 13.5781 6.4933V8.80893C13.5781 8.8704 13.6061 8.92926 13.656 8.97266C13.7059 9.01615 13.7735 9.04051 13.844 9.04051H14.9077C15.1194 9.04051 15.3223 9.11368 15.4719 9.24397C15.6216 9.37425 15.7056 9.55094 15.7056 9.73516V10.4299C15.7056 10.5528 15.7616 10.6706 15.8614 10.7574C15.9612 10.8443 16.0964 10.8931 16.2375 10.8931H17.8331C17.9741 10.8931 18.1094 10.8443 18.2091 10.7574C18.3089 10.6706 18.3649 10.5528 18.3649 10.4299V9.73516C18.3649 6.59981 15.2056 6.26172 13.844 6.26172Z" fill="#E69F69"/>
<path d="M7.46208 6.26172H5.86657C5.71963 6.26172 5.60059 6.36543 5.60059 6.4933V8.80893C5.60059 8.9368 5.71963 9.04051 5.86657 9.04051H7.46208C7.60901 9.04051 7.72806 8.9368 7.72806 8.80893V6.4933C7.72806 6.36543 7.60901 6.26172 7.46208 6.26172Z" fill="#E69F69"/>
<path d="M11.8555 4.27124C11.8157 4.26087 11.7806 4.23808 11.7555 4.20622C11.7305 4.17436 11.717 4.13537 11.7172 4.0953C11.7172 4.02661 11.7453 3.96084 11.7952 3.91235C11.845 3.86374 11.9127 3.83653 11.9832 3.83653H14.5095C14.6506 3.83653 14.7859 3.78199 14.8857 3.68489C14.9854 3.58791 15.0414 3.45625 15.0414 3.31898C15.0414 3.18171 14.9854 3.05016 14.8857 2.95306C14.7859 2.85597 14.6506 2.80143 14.5095 2.80143H11.8502C11.8323 2.80154 11.8145 2.79797 11.7981 2.79117C11.7816 2.78436 11.7667 2.77432 11.7542 2.76179C11.7418 2.74926 11.7321 2.73436 11.7258 2.71805C11.7195 2.70174 11.7166 2.68435 11.7172 2.66696C11.7172 2.52969 11.6613 2.39804 11.5615 2.30094C11.4617 2.20396 11.3265 2.14941 11.1854 2.14941H10.1217C9.98056 2.14941 9.8453 2.20396 9.74554 2.30094C9.64577 2.39804 9.58973 2.52969 9.58973 2.66696C9.58973 2.7012 9.57579 2.73414 9.55081 2.75844C9.52591 2.78264 9.49205 2.79635 9.45683 2.79635H6.79749C6.65645 2.79635 6.5211 2.85078 6.42134 2.94788C6.32166 3.04497 6.26562 3.17652 6.26562 3.31379C6.26562 3.45107 6.32166 3.58272 6.42134 3.67971C6.5211 3.7768 6.65645 3.83134 6.79749 3.83134H9.32384C9.39437 3.83134 9.46199 3.85856 9.51188 3.90716C9.56176 3.95565 9.58973 4.02143 9.58973 4.09012C9.58991 4.13148 9.57588 4.17188 9.5499 4.2046C9.52392 4.23743 9.48743 4.26087 9.44615 4.27124C9.10603 4.35915 8.80538 4.55388 8.59082 4.8254C8.37635 5.09681 8.26002 5.42957 8.26011 5.77205V8.87713C8.26011 9.28884 8.42822 9.6837 8.72743 9.97487C9.02672 10.266 9.43257 10.4297 9.85571 10.4297H11.4513C11.8745 10.4297 12.2803 10.266 12.5796 9.97487C12.8788 9.6837 13.0469 9.28884 13.0469 8.87713V5.77205C13.0467 5.42892 12.9296 5.09563 12.7141 4.82411C12.4986 4.55259 12.1967 4.35818 11.8555 4.27124Z" fill="#E69F69"/>
<path d="M19.8138 16.3807C19.8186 16.2467 19.7745 16.1161 19.6908 16.0163C19.6066 15.9267 19.4931 15.876 19.3745 15.875H15.2749C15.2118 15.8758 15.1494 15.8908 15.0919 15.9189C15.0345 15.947 14.9831 15.9877 14.9411 16.0383C14.8666 16.1364 14.829 16.2607 14.8357 16.387C15.0817 19.2141 14.9528 17.6969 15.3628 22.5533C15.3819 22.7888 15.4828 23.008 15.6455 23.1674C15.8082 23.3269 16.0209 23.4149 16.2412 23.414H18.4141C18.6344 23.4149 18.8471 23.3269 19.0098 23.1674C19.1725 23.008 19.2735 22.7888 19.2926 22.5533C19.7142 17.4801 19.5502 19.3932 19.8138 16.3807ZM19.0817 18.1586C19.0796 18.1782 19.071 18.1961 19.0576 18.2094C19.0442 18.2226 19.0268 18.2304 19.0085 18.2309H15.6527C15.6426 18.2323 15.6325 18.2314 15.6228 18.2285C15.6131 18.2255 15.6041 18.2206 15.5961 18.2138C15.5882 18.2072 15.5817 18.1987 15.5768 18.1893C15.5719 18.1798 15.5689 18.1695 15.5678 18.1586L15.4302 16.588C15.4291 16.5771 15.4303 16.566 15.434 16.5556C15.4375 16.5453 15.4432 16.536 15.4506 16.5284C15.4583 16.5184 15.4683 16.5108 15.4797 16.5063C15.491 16.5019 15.5032 16.5008 15.5151 16.5032H19.1344C19.1444 16.503 19.1542 16.5051 19.1634 16.5094C19.1725 16.5138 19.1806 16.5203 19.1871 16.5284C19.1941 16.5363 19.1995 16.5458 19.203 16.556C19.2066 16.5663 19.2081 16.5772 19.2077 16.588L19.0817 18.1586Z" fill="#514AF3"/>
</svg>
