<svg width="25" height="25" viewBox="0 0 25 25" fill="none" xmlns="http://www.w3.org/2000/svg">
<path fill-rule="evenodd" clip-rule="evenodd" d="M7.09277 8.59313C7.09277 5.2102 10.0375 2.46777 13.67 2.46777C17.3025 2.46777 20.2473 5.2102 20.2473 8.59313C20.2473 11.9761 17.3025 14.7185 13.67 14.7185C10.0375 14.7185 7.09277 11.9761 7.09277 8.59313ZM13.67 3.82893C10.8448 3.82893 8.55437 5.96198 8.55437 8.59313C8.55437 9.64673 8.9216 10.6205 9.54344 11.4093C9.70485 11.4015 9.85078 11.3918 9.97745 11.3821C10.3517 11.3532 10.7301 11.2072 10.9618 10.9017C11.2621 10.5056 11.4473 10.0448 11.5515 9.7218C11.649 9.41953 11.6152 9.10691 11.528 8.82204C11.456 8.58682 11.3731 8.28177 11.3251 7.99023C11.2761 7.69175 11.2681 7.43266 11.3242 7.27495C11.3528 7.19474 11.4296 7.11615 11.5612 7.04307C11.6911 6.97079 11.8587 6.91284 12.0391 6.86733C12.3995 6.77649 12.783 6.74224 12.9511 6.73089C13.0104 6.72692 13.0799 6.72152 13.151 6.70484C13.3655 6.65429 13.8902 6.48793 14.4195 5.99344C14.6792 5.75092 14.8007 5.4218 14.8128 5.09386C14.8234 4.80673 14.8276 4.40552 14.802 3.946C14.4379 3.86939 14.0591 3.82893 13.67 3.82893ZM15.6286 12.9956C17.3593 12.3271 18.6107 10.7991 18.7688 8.98344C17.6608 8.79455 16.6128 8.66388 15.9368 8.58827C15.4159 8.52996 14.8377 8.61738 14.45 9.00048C14.3054 9.14341 14.1836 9.2931 14.0812 9.44143C13.5647 10.1893 13.9976 11.0762 14.6959 11.5777L15.2992 12.011C15.4752 12.1375 15.5817 12.333 15.5945 12.5439C15.6022 12.6706 15.6132 12.8233 15.6286 12.9956Z" fill="#E69F69"/>
<path d="M20.0774 11.5521C19.1694 11.5867 18.0227 11.8102 17.1777 12.5972C16.1857 13.521 15.9812 14.9111 16.6799 15.8872C16.4283 16.4043 16.2678 16.9521 16.2678 17.5091C16.2678 17.6225 16.3666 17.7146 16.4885 17.7146C16.6105 17.7146 16.7093 17.6225 16.7093 17.5091C16.7093 17.0864 16.8161 16.6604 16.9965 16.2431C16.9971 16.2435 16.9975 16.2441 16.998 16.2445C17.1968 15.7936 17.4829 15.3616 17.8079 14.9619C17.7412 14.5713 17.7617 14.1427 17.7972 13.8147C17.816 13.6424 17.8392 13.4942 17.8579 13.3889C17.868 13.3322 17.8786 13.2755 17.891 13.2193C17.9157 13.1091 18.034 13.0359 18.1527 13.059C18.271 13.0821 18.3472 13.1896 18.324 13.2998C18.3284 13.2797 18.3208 13.3182 18.3119 13.3625C18.3042 13.401 18.2957 13.4438 18.2936 13.4559C18.276 13.5545 18.2541 13.6939 18.2366 13.8561C18.2151 14.0539 18.2007 14.2803 18.2072 14.5051C18.2971 14.409 18.3883 14.3154 18.4799 14.2246C18.6974 14.009 18.9198 13.8065 19.1378 13.6198C19.1422 13.2168 19.1975 12.9088 19.2545 12.6964C19.2862 12.5783 19.3232 12.4574 19.3809 12.3475L19.3812 12.3466L19.3814 12.3463L19.3816 12.3459C19.4361 12.2444 19.5687 12.2033 19.6777 12.254C19.7864 12.3046 19.8307 12.4275 19.777 12.5288L19.7764 12.5299C19.7707 12.5413 19.7275 12.63 19.6828 12.7962C19.6527 12.9083 19.622 13.0559 19.6019 13.2392C20.116 12.835 20.5588 12.5419 20.7811 12.4039C20.8826 12.341 21.0196 12.3665 21.0873 12.4609C21.1549 12.5554 21.1274 12.6831 21.026 12.7461C20.7576 12.9127 20.1441 13.3218 19.4817 13.884C19.7268 13.9035 19.9572 13.9483 20.147 13.9954C20.3086 14.0354 20.4448 14.0781 20.5411 14.1109C20.5937 14.1289 20.6462 14.1474 20.6975 14.1683L20.6981 14.1685C20.8096 14.2141 20.8603 14.3354 20.8114 14.4394C20.7623 14.5433 20.6322 14.5906 20.5206 14.5449C20.4774 14.5276 20.4334 14.512 20.3893 14.497C20.303 14.4676 20.1797 14.429 20.0334 14.3927C19.7388 14.3196 19.3667 14.2604 19.0202 14.2954C18.947 14.3641 18.8741 14.4343 18.8018 14.506C18.5465 14.7591 18.3026 15.0269 18.0842 15.3048C18.3541 15.2726 18.6109 15.2677 18.8219 15.2734C18.9897 15.2778 19.1313 15.289 19.2314 15.2992C19.2858 15.3046 19.3402 15.3106 19.3941 15.3188L19.3944 15.3189H19.3946C19.5149 15.3375 19.5961 15.4435 19.576 15.5555C19.556 15.6675 19.4423 15.7432 19.3221 15.7245C19.2762 15.7176 19.23 15.7125 19.1839 15.7079C19.0932 15.6988 18.9634 15.6885 18.8093 15.6844C18.5036 15.6762 18.112 15.6926 17.7415 15.7842C17.5876 16.0236 17.4571 16.2683 17.3582 16.5153C18.4057 17.1579 19.8913 16.9654 20.8797 16.0449C21.7247 15.2579 21.9648 14.1901 22.0018 13.3444C22.0239 12.8424 21.995 12.3184 21.8714 11.8268C21.8524 11.7515 21.7876 11.6913 21.7067 11.6736C21.1785 11.5592 20.6167 11.5316 20.0774 11.5521Z" fill="#514AF3"/>
<path d="M2.65803 9.97882C3.53194 9.89969 4.91041 9.80957 6.6536 9.80957C8.39689 9.80957 9.77546 9.89969 10.6494 9.97882C11.2386 10.0321 11.4966 10.6744 11.1266 11.0982L10.2624 12.0883V16.655C10.2624 17.8531 10.241 18.8562 10.2122 19.6652C10.1561 21.2348 8.93164 22.5382 7.25793 22.596C7.0609 22.6028 6.85875 22.6066 6.6537 22.6066C6.45542 22.6066 6.25995 22.603 6.06912 22.5966C4.38554 22.5404 3.15396 21.2246 3.09668 19.6466C3.0931 19.546 3.08952 19.4425 3.08613 19.3363H4.55285C4.88438 19.3363 5.15311 19.0817 5.15311 18.7675C5.15311 18.4534 4.88438 18.1988 4.55285 18.1988H3.05826C3.05052 17.7585 3.04578 17.2842 3.0451 16.7768H3.05216H4.55285C4.88438 16.7768 5.15311 16.5223 5.15311 16.2081C5.15311 15.8939 4.88438 15.6394 4.55285 15.6394H3.05216H3.0451V14.2174H3.05216H4.55285C4.88438 14.2174 5.15311 13.9628 5.15311 13.6487C5.15311 13.3345 4.88438 13.0799 4.55285 13.0799H3.05216H3.0451V12.0883L2.18076 11.0982C1.81082 10.6744 2.0688 10.0321 2.65803 9.97882Z" fill="#514AF3"/>
</svg>
