<svg width="25" height="25" viewBox="0 0 25 25" fill="none" xmlns="http://www.w3.org/2000/svg">
<path d="M1.66311 14.4677C1.71 13.9869 2.03024 13.5834 2.48407 13.4398C3.46713 13.1288 5.23938 12.6338 6.55897 12.6338C8.53958 12.6338 10.7467 13.1294 11.9365 13.4404C12.5127 13.591 13.0374 13.9198 13.289 14.4676C13.4096 14.7301 13.5304 15.0586 13.6213 15.4533C13.7903 16.188 13.1397 16.7902 12.3999 16.7289L9.13262 16.4582C8.78261 16.4292 8.48283 16.7101 8.48283 17.0671C8.48283 17.3634 8.69146 17.6166 8.97957 17.6612C9.58302 17.7548 10.6137 17.895 11.3687 17.895C12.9695 17.895 17.2347 17.1664 18.6217 16.9218C18.918 16.8695 19.2202 16.8333 19.508 16.9223C19.9295 17.0528 20.5401 17.3969 20.8273 18.3054C21.0417 18.9839 20.5562 19.6417 19.8964 19.8824C17.8697 20.6215 13.535 22.104 11.3687 22.104C8.507 22.104 4.45689 21.4995 2.6641 21.2068C2.11749 21.1177 1.70022 20.6732 1.64809 20.1129C1.58238 19.4061 1.50879 18.3874 1.50879 17.3689C1.50879 16.2722 1.59405 15.1754 1.66311 14.4677Z" fill="#514AF3"/>
<path d="M18.4939 13.518C20.7821 13.038 22.5085 10.8817 22.5085 8.29422C22.5085 5.35411 20.2797 2.9707 17.5302 2.9707C14.7808 2.9707 12.552 5.35411 12.552 8.29422C12.552 10.9815 14.4141 13.2039 16.8339 13.566C16.8443 13.2775 16.8528 12.9384 16.858 12.5417C16.6704 12.3493 16.3452 12.0115 15.8645 11.4975C15.3771 10.9762 15.0591 10.626 14.8805 10.4268C14.766 10.2989 14.7204 10.1169 14.8228 9.97779C14.8477 9.94407 14.8775 9.90773 14.9131 9.86966C14.9488 9.83149 14.9827 9.7997 15.0142 9.77312C15.1443 9.66363 15.3146 9.71234 15.434 9.83477C15.6204 10.0257 15.948 10.3658 16.4354 10.887C16.5959 11.0588 16.7382 11.212 16.8631 11.3474C16.8628 9.67774 16.8602 8.66791 16.8586 8.20706C16.858 8.01292 16.9169 7.8067 17.0897 7.74707C17.1391 7.72997 17.1963 7.71866 17.2611 7.71866C17.3259 7.71866 17.3831 7.72997 17.4326 7.74707C17.6053 7.8067 17.6643 8.01292 17.6636 8.20706C17.6627 8.47444 17.6615 8.9266 17.6605 9.58536C17.7773 9.45886 17.9088 9.31739 18.0555 9.16045C18.5429 8.6393 18.8705 8.29915 19.0567 8.1082C19.1763 7.98576 19.3465 7.93706 19.4766 8.04655C19.5081 8.07312 19.5421 8.10491 19.5777 8.14308C19.6134 8.18125 19.6432 8.21749 19.668 8.25131C19.7703 8.39037 19.7248 8.57243 19.6103 8.70018C19.4317 8.89944 19.1138 9.24965 18.6263 9.7709C18.1675 10.2615 17.8504 10.5916 17.6593 10.788C17.6592 11.069 17.659 11.3721 17.659 11.6982C17.659 14.3512 17.7993 15.0565 17.7993 15.0565H15.1084C14.8854 15.0565 14.7048 15.2498 14.7048 15.4881C14.7048 15.7265 14.8854 15.9198 15.1084 15.9198H19.9521C20.175 15.9198 20.3557 15.7265 20.3557 15.4881C20.3557 15.2498 20.175 15.0565 19.9521 15.0565H18.6066C18.6066 15.0565 18.5348 14.6954 18.4939 13.518Z" fill="#E69F69"/>
</svg>
