<svg width="25" height="25" viewBox="0 0 25 25" fill="none" xmlns="http://www.w3.org/2000/svg">
<g clip-path="url(#clip0_7_340)">
<mask id="mask0_7_340" style="mask-type:luminance" maskUnits="userSpaceOnUse" x="0" y="0" width="25" height="25">
<path d="M24.8418 0.78125H0.841797V24.7812H24.8418V0.78125Z" fill="white"/>
</mask>
<g mask="url(#mask0_7_340)">
<mask id="mask1_7_340" style="mask-type:luminance" maskUnits="userSpaceOnUse" x="0" y="0" width="25" height="25">
<path d="M24.8418 0.78125H0.841797V24.7812H24.8418V0.78125Z" fill="white"/>
</mask>
<g mask="url(#mask1_7_340)">
<path d="M22.9275 1.54357C22.2194 1.51404 20.7279 1.51023 19.0299 1.85854C18.0283 2.06402 17.7568 3.2681 18.4211 3.93242L19.2994 4.81078C18.9624 5.09816 18.5133 5.48669 17.9941 5.94985C16.9502 6.88095 15.6147 8.121 14.3341 9.4516C13.7643 8.7748 12.9021 7.7414 11.9135 6.5246C11.4731 5.98245 10.6833 5.79015 10.0271 6.16875C8.8928 6.8233 5.44392 8.98675 1.61031 13.0993C1.23374 13.5033 1.25596 14.1361 1.65995 14.5127C2.06394 14.8892 2.69672 14.867 3.07329 14.463C6.3596 10.9375 9.33435 8.92765 10.6415 8.13C11.7562 9.4962 12.6822 10.5972 13.1682 11.1706C13.758 11.8666 14.8041 11.8664 15.408 11.2242C16.7459 9.8014 18.2005 8.44585 19.3254 7.44235C19.8868 6.94165 20.3635 6.5308 20.6993 6.24575C20.7056 6.2403 20.712 6.23495 20.7183 6.2296L21.6911 7.20245C22.3555 7.86675 23.5595 7.5953 23.765 6.59365C24.1133 4.89568 24.1095 3.40409 24.0799 2.69603C24.0538 2.06831 23.5552 1.56975 22.9275 1.54357Z" fill="#E69F69"/>
<path fill-rule="evenodd" clip-rule="evenodd" d="M23.6556 8.74343C23.8918 8.87108 24.0416 9.11522 24.0487 9.38357C24.1473 13.1455 24.1259 16.9401 23.8193 20.7136C23.6857 22.3575 22.4173 23.6259 20.7734 23.7595C15.5215 24.1862 10.161 24.1862 4.9091 23.7595C3.26518 23.6259 1.99676 22.3575 1.86319 20.7136C1.81629 20.1362 1.76862 19.4393 1.72656 18.6165C1.71648 18.4193 1.7846 18.226 1.91614 18.0787C3.60022 16.1926 5.51636 14.5183 7.00371 13.3198C7.74906 12.7193 8.39041 12.2353 8.84641 11.9008C9.07446 11.7335 9.25641 11.6034 9.38196 11.5147C9.44476 11.4703 9.49351 11.4362 9.52691 11.413L9.56536 11.3864L9.57571 11.3793L9.57991 11.3765C9.58446 11.3733 9.58906 11.3703 9.59371 11.3672C10.1023 11.0359 10.752 11.1332 11.1536 11.5463L11.5899 11.9851C11.858 12.2545 12.2221 12.6202 12.6062 13.0054C13.2695 13.6703 13.9865 14.3872 14.3757 14.7701C16.0736 13.3577 18.1674 11.8812 19.846 10.7513C20.7163 10.1655 21.4798 9.66977 22.026 9.32022C22.2992 9.14542 22.5181 9.00708 22.6692 8.91228C22.7447 8.86483 22.8032 8.82828 22.843 8.80348L22.8885 8.77523L22.9043 8.76542C22.9043 8.76542 22.9047 8.76523 23.2989 9.40323L22.9043 8.76542C23.1327 8.62432 23.4194 8.61578 23.6556 8.74343Z" fill="#514AF3"/>
<path d="M9.69155 24.0292C9.64255 22.1086 9.5918 19.0807 9.5918 14.7813C9.5918 13.5359 9.59605 12.3973 9.6033 11.3613C9.6003 11.3632 9.59725 11.3652 9.59425 11.3671C9.5896 11.3701 9.585 11.3732 9.58045 11.3763L9.57625 11.3792L9.56595 11.3863L9.52745 11.4129C9.49405 11.4361 9.44535 11.4702 9.38255 11.5145C9.25695 11.6033 9.07505 11.7333 8.84695 11.9007C8.63445 12.0566 8.3817 12.2449 8.09695 12.4624C8.09365 13.1903 8.0918 13.9629 8.0918 14.7813C8.0918 19.0206 8.14105 22.0314 8.18955 23.9698C8.6897 23.9934 9.19045 24.0132 9.69155 24.0292Z" fill="#E69F69"/>
<path d="M17.5861 12.3174C17.5898 13.0874 17.5919 13.9081 17.5919 14.7809C17.5919 19.0202 17.5427 22.031 17.4942 23.9693C16.994 23.993 16.4933 24.0128 15.9922 24.0288C16.0412 22.1082 16.0919 19.0803 16.0919 14.7809C16.0919 14.3107 16.0913 13.8558 16.0902 13.4159C16.5841 13.0425 17.0878 12.6738 17.5861 12.3174Z" fill="#E69F69"/>
</g>
</g>
</g>
<defs>
<clipPath id="clip0_7_340">
<rect width="24" height="24" fill="white" transform="translate(0.841797 0.78125)"/>
</clipPath>
</defs>
</svg>
