<svg width="25" height="25" viewBox="0 0 25 25" fill="none" xmlns="http://www.w3.org/2000/svg">
<g clip-path="url(#clip0_7_353)">
<mask id="mask0_7_353" style="mask-type:luminance" maskUnits="userSpaceOnUse" x="0" y="0" width="25" height="25">
<path d="M24.8418 0.78125H0.841797V24.7812H24.8418V0.78125Z" fill="white"/>
</mask>
<g mask="url(#mask0_7_353)">
<path d="M8.55525 4.68728L5.2904 7.95213C4.81628 8.42628 4.42653 9.09693 4.37065 9.91178C4.33898 10.3734 4.32422 11.0408 4.37509 11.942C4.44529 13.1859 5.43762 14.1782 6.6815 14.2484C7.58275 14.2993 8.2501 14.2845 8.71175 14.2529C9.5266 14.197 10.1972 13.8072 10.6713 13.3331L15.735 8.26953C16.5373 7.46723 17.167 6.11053 16.7791 4.78414C18.1785 4.3796 19.7109 4.13643 21.5829 4.06319C22.6817 4.02019 23.6324 4.81199 23.7662 5.91523C23.7846 6.06643 23.8035 6.23088 23.8224 6.40853C23.9549 7.65208 24.0918 9.54083 24.0918 12.0394C24.0918 14.8951 23.913 16.9541 23.7662 18.1637C23.6307 19.2811 22.6798 20.0214 21.6415 20.062C21.4289 20.0704 21.2213 20.0809 21.0182 20.0938C17.9715 20.2871 15.947 20.9937 13.6747 22.1929C13.6421 22.2101 13.6092 22.2261 13.5759 22.2412C13.3427 22.3464 13.0923 22.399 12.8418 22.399C12.5555 22.399 12.2694 22.3303 12.0089 22.1929C9.58505 20.9138 7.4433 20.1951 4.04207 20.062C3.00379 20.0214 2.05297 19.2811 1.91735 18.1637C1.77052 16.9541 1.5918 14.8951 1.5918 12.0394C1.5918 9.18388 1.77052 7.12488 1.91735 5.91523C2.05126 4.81199 3.00189 4.02019 4.10072 4.06319C5.81819 4.13039 7.2499 4.34062 8.55525 4.68728Z" fill="#514AF3"/>
<path d="M14.6743 7.20872C15.4012 6.48182 15.6731 5.41599 15.02 4.62208C14.8818 4.45401 14.7211 4.27543 14.5345 4.08884C14.3479 3.90225 14.1693 3.74156 14.0013 3.60331C13.2073 2.95025 12.1415 3.22214 11.4146 3.94905L6.35105 9.01267C6.0791 9.28462 5.89345 9.63052 5.86715 10.0142C5.84004 10.4092 5.8251 11.0139 5.8727 11.8573C5.8999 12.3393 6.28405 12.7234 6.766 12.7506C7.60945 12.7982 8.21415 12.7833 8.60915 12.7562C8.99285 12.7299 9.33875 12.5442 9.6107 12.2723L14.6743 7.20872Z" fill="#E69F69"/>
</g>
</g>
<defs>
<clipPath id="clip0_7_353">
<rect width="24" height="24" fill="white" transform="translate(0.841797 0.78125)"/>
</clipPath>
</defs>
</svg>
