<svg width="25" height="25" viewBox="0 0 25 25" fill="none" xmlns="http://www.w3.org/2000/svg">
<path d="M9.91582 7.47363C9.84882 7.47363 9.78452 7.50646 9.73719 7.56499C9.68987 7.6234 9.66321 7.70272 9.66321 7.78544V8.66158C9.66321 8.70219 9.6698 8.74238 9.68258 8.7798C9.69526 8.81721 9.71403 8.85111 9.73749 8.87947C9.76106 8.90782 9.78901 8.9301 9.81957 8.94492C9.85022 8.95973 9.88287 8.96688 9.91582 8.96592C9.98122 8.96592 10.0439 8.93383 10.0902 8.8768C10.1364 8.81966 10.1623 8.74227 10.1623 8.66158V7.78544C10.1631 7.74482 10.1573 7.70453 10.1454 7.66668C10.1333 7.62884 10.1153 7.59441 10.0923 7.56541C10.0693 7.53631 10.0419 7.51329 10.0116 7.49751C9.98122 7.48173 9.94867 7.47363 9.91582 7.47363Z" fill="#514AF3"/>
<path d="M6.81626 15.6817C6.77073 15.6809 6.7255 15.6866 6.68316 15.6987C6.64083 15.7107 6.60219 15.7287 6.56964 15.7517C6.53709 15.7746 6.51123 15.802 6.49356 15.8322C6.47588 15.8625 6.4668 15.895 6.4668 15.9279V16.2822C6.4668 16.3491 6.50364 16.4132 6.56914 16.4605C6.63474 16.5079 6.7236 16.5344 6.81626 16.5344C6.90892 16.5344 6.99778 16.5079 7.06338 16.4605C7.12888 16.4132 7.16572 16.3491 7.16572 16.2822V15.9279C7.16572 15.895 7.15664 15.8625 7.13896 15.8322C7.12129 15.802 7.09543 15.7746 7.06288 15.7517C7.03033 15.7287 6.99169 15.7107 6.94935 15.6987C6.90702 15.6866 6.86179 15.6809 6.81626 15.6817Z" fill="#514AF3"/>
<path d="M15.3616 4.96859C15.2846 4.95175 15.2156 4.90676 15.1659 4.84131C15.1163 4.77586 15.0891 4.69399 15.0891 4.60946V3.50285C15.0891 3.11408 14.9457 2.7413 14.6903 2.46638C14.4349 2.19157 14.0884 2.03711 13.7272 2.03711H5.21483C4.67297 2.03711 4.15337 2.26875 3.77025 2.68108C3.38714 3.0934 3.17188 3.65262 3.17188 4.23572V17.4274C3.17188 18.0105 3.38714 18.5697 3.77025 18.982C4.15337 19.3944 4.67297 19.626 5.21483 19.626H15.0891C15.4504 19.626 15.7969 19.4715 16.0523 19.1967C16.3077 18.9218 16.4512 18.549 16.4512 18.1603V6.43433C16.4576 6.0914 16.3521 5.757 16.153 5.48911C15.9539 5.22134 15.6738 5.03713 15.3616 4.96859ZM4.53388 4.23572C4.53388 4.04139 4.60557 3.85495 4.73327 3.71754C4.86098 3.58003 5.03421 3.50285 5.21483 3.50285H13.3868C13.477 3.50285 13.5636 3.54144 13.6275 3.6102C13.6913 3.67885 13.7272 3.77212 13.7272 3.86934V4.6021C13.7272 4.69932 13.6913 4.79259 13.6275 4.86124C13.5636 4.93 13.477 4.96859 13.3868 4.96859H5.21483C5.03421 4.96859 4.86098 4.89141 4.73327 4.7539C4.60557 4.61649 4.53388 4.43005 4.53388 4.23572ZM8.06135 14.1808C8.05506 14.4937 7.95202 14.7955 7.7686 15.0382C7.94563 15.2806 8.04159 15.5801 8.04099 15.8883V16.3208C8.03919 16.6889 7.9035 17.0416 7.66287 17.3033C7.42224 17.565 7.09594 17.7148 6.75387 17.7205H5.95709C5.8217 17.7205 5.6918 17.6627 5.59595 17.5596C5.50019 17.4565 5.44638 17.3166 5.44638 17.1709V12.8982C5.44817 12.7531 5.50249 12.6143 5.59794 12.5117C5.6933 12.409 5.8222 12.3505 5.95709 12.3486H6.75387C6.9262 12.3486 7.09674 12.3852 7.25579 12.4564C7.41485 12.5275 7.55933 12.6319 7.68084 12.7633C7.80235 12.8948 7.8985 13.0507 7.9638 13.2223C8.0291 13.3939 8.06225 13.5777 8.06135 13.763V14.1808ZM11.2348 11.1907C11.2348 11.3364 11.181 11.4763 11.0852 11.5793C10.9895 11.6824 10.8596 11.7403 10.7241 11.7403C10.5886 11.7403 10.4587 11.6824 10.3629 11.5793C10.2672 11.4763 10.2133 11.3364 10.2133 11.1907V10.3332C10.2142 10.2931 10.2077 10.2533 10.1941 10.2159C10.1804 10.1786 10.16 10.1446 10.134 10.116C10.108 10.0873 10.0769 10.0645 10.0425 10.0489C10.0083 10.0334 9.97132 10.0253 9.93407 10.0253C9.85829 10.0253 9.7855 10.0579 9.73189 10.1155C9.67827 10.1733 9.64811 10.2515 9.64811 10.3332V11.1907C9.64811 11.3364 9.5943 11.4763 9.49845 11.5793C9.40269 11.6824 9.27279 11.7403 9.1373 11.7403C9.00191 11.7403 8.87201 11.6824 8.77616 11.5793C8.6804 11.4763 8.62658 11.3364 8.62658 11.1907V7.76821C8.6136 7.57537 8.63777 7.38168 8.69738 7.19929C8.75708 7.017 8.85104 6.84975 8.97335 6.70829C9.09576 6.56673 9.24394 6.45384 9.40858 6.37655C9.57333 6.29938 9.75106 6.25951 9.93068 6.25951C10.1103 6.25951 10.288 6.29938 10.4528 6.37655C10.6175 6.45384 10.7656 6.56673 10.888 6.70829C11.0103 6.84975 11.1043 7.017 11.164 7.19929C11.2237 7.38168 11.2478 7.57537 11.2348 7.76821V11.1907ZM13.8975 16.6212C14.0329 16.6212 14.1629 16.6792 14.2586 16.7822C14.3544 16.8853 14.4082 17.0251 14.4082 17.1709C14.4082 17.3166 14.3544 17.4565 14.2586 17.5596C14.1629 17.6627 14.0329 17.7205 13.8975 17.7205C13.3412 17.7205 12.8077 17.4827 12.4144 17.0594C12.021 16.6361 11.8 16.062 11.8 15.4633V14.6058C11.8 14.0071 12.021 13.433 12.4144 13.0097C12.8077 12.5864 13.3412 12.3486 13.8975 12.3486C14.0329 12.3486 14.1629 12.4065 14.2586 12.5095C14.3544 12.6126 14.4082 12.7525 14.4082 12.8982C14.4082 13.044 14.3544 13.1839 14.2586 13.287C14.1629 13.39 14.0329 13.4479 13.8975 13.4479C13.6121 13.4479 13.3384 13.5699 13.1366 13.787C12.9349 14.0042 12.8215 14.2987 12.8215 14.6058V15.4633C12.8215 15.7704 12.9349 16.0649 13.1366 16.2821C13.3384 16.4992 13.6121 16.6212 13.8975 16.6212Z" fill="#514AF3"/>
<path d="M6.81626 13.4434C6.7235 13.4434 6.63464 13.4766 6.56914 13.5357C6.50364 13.5948 6.4668 13.675 6.4668 13.7587V14.194C6.4668 14.2777 6.50364 14.3579 6.56914 14.417C6.63464 14.4761 6.7235 14.5094 6.81626 14.5094C6.90892 14.5094 6.99778 14.4761 7.06328 14.417C7.12878 14.3579 7.16562 14.2777 7.16562 14.194V13.7661C7.16672 13.7241 7.15853 13.6824 7.14146 13.6432C7.12439 13.6041 7.09882 13.5684 7.06627 13.5383C7.03372 13.5083 6.99478 13.4844 6.95185 13.4681C6.90892 13.4518 6.86279 13.4434 6.81626 13.4434Z" fill="#514AF3"/>
<path d="M15.8996 23.0211C16.0906 23.0516 16.2853 23.0382 16.4713 22.9816C16.6573 22.9251 16.8306 22.8267 16.9801 22.6927C17.0287 22.6502 17.089 22.6271 17.151 22.6271C17.2131 22.6271 17.2734 22.6502 17.322 22.6927C17.4715 22.8267 17.6448 22.9251 17.8309 22.9816C18.0169 23.0382 18.2116 23.0516 18.4026 23.0211C19.7396 23.0211 20.8446 20.4003 20.8446 18.7514C20.8446 17.1025 19.8311 15.6881 18.5552 15.6881C18.1121 15.6524 17.6694 15.7646 17.2854 16.0099C17.151 16.097 17.151 16.1372 16.7848 15.9697C16.5298 15.8342 16.2584 15.7393 15.9789 15.6881C15.8954 15.676 15.8104 15.683 15.7294 15.7086C15.6484 15.7343 15.5732 15.7781 15.5084 15.8373C15.4436 15.8965 15.3906 15.9698 15.3529 16.0526C15.3152 16.1353 15.2934 16.2258 15.2891 16.3182C15.1913 18.0073 14.416 18.3693 13.9643 18.4162C13.8145 18.4442 13.6795 18.5324 13.5857 18.6639C13.4921 18.7952 13.4463 18.9603 13.4576 19.1267C13.5614 20.6751 14.6054 23.0211 15.8996 23.0211Z" fill="#E69F69"/>
<path d="M18.5501 14.787C19.1218 14.1767 19.401 13.4853 19.1738 13.2426C18.9466 13 18.2989 13.2981 17.7271 13.9085C17.1555 14.5188 16.8762 15.2102 17.1035 15.4529C17.3307 15.6955 17.9783 15.3974 18.5501 14.787Z" fill="#E69F69"/>
</svg>
