<svg width="25" height="25" viewBox="0 0 25 25" fill="none" xmlns="http://www.w3.org/2000/svg">
<path fill-rule="evenodd" clip-rule="evenodd" d="M5.57146 8.54072C5.57146 8.19576 5.83349 7.91602 6.15669 7.91602H17.8599C18.1831 7.91602 18.4451 8.19576 18.4451 8.54072V10.4149C18.4451 10.76 18.1831 11.0398 17.8599 11.0398H6.15669C5.83349 11.0398 5.57146 10.76 5.57146 10.4149V8.54072ZM6.44921 11.9769H17.5674V21.6603H18.4451C18.7682 21.6603 19.0303 21.94 19.0303 22.2851C19.0303 22.63 18.7682 22.9098 18.4451 22.9098H15.8119V20.4109C15.8119 19.5482 15.1569 18.8489 14.3489 18.8489C13.541 18.8489 12.886 19.5482 12.886 20.4109V22.9098H5.57146C5.24835 22.9098 4.98633 22.63 4.98633 22.2851C4.98633 21.94 5.24835 21.6603 5.57146 21.6603H6.44921V11.9769ZM9.08245 13.8511C8.75934 13.8511 8.49731 14.1307 8.49731 14.4758V15.7253C8.49731 16.0703 8.75934 16.35 9.08245 16.35H10.2528C10.576 16.35 10.8379 16.0703 10.8379 15.7253V14.4758C10.8379 14.1307 10.576 13.8511 10.2528 13.8511H9.08245ZM13.1787 14.4758C13.1787 14.1307 13.4406 13.8511 13.7638 13.8511H14.9342C15.2573 13.8511 15.5193 14.1307 15.5193 14.4758V15.7253C15.5193 16.0703 15.2573 16.35 14.9342 16.35H13.7638C13.4406 16.35 13.1787 16.0703 13.1787 15.7253V14.4758ZM9.08245 18.2242C8.75934 18.2242 8.49731 18.504 8.49731 18.8489V20.0985C8.49731 20.4435 8.75934 20.7232 9.08245 20.7232H10.2528C10.576 20.7232 10.8379 20.4435 10.8379 20.0985V18.8489C10.8379 18.504 10.576 18.2242 10.2528 18.2242H9.08245Z" fill="#514AF3"/>
<path d="M8.34398 6.77706H8.34513L8.34629 6.77696C8.53453 6.77213 8.71547 6.69891 8.85947 6.56941C9.00337 6.43991 9.10168 6.26183 9.13804 6.06465L9.1389 6.06013L9.13938 6.05551C9.14583 5.98886 9.14602 5.9216 9.13987 5.85495V5.73007C9.13987 5.72945 9.14006 5.72894 9.14044 5.72853C9.14083 5.72812 9.14141 5.72781 9.14198 5.72781H9.65295H9.65372C9.66728 5.7277 9.68065 5.73079 9.69297 5.73684C9.70528 5.7429 9.71625 5.75174 9.725 5.76283L9.72586 5.76396L9.72683 5.76509L11.1372 7.44285C11.1785 7.4944 11.2298 7.53589 11.2875 7.56434C11.3456 7.59309 11.4089 7.60799 11.4729 7.60799H11.473C11.5892 7.60799 11.7007 7.55869 11.7828 7.47099C11.865 7.38328 11.9111 7.26426 11.9111 7.1402V7.13466C11.9111 7.08074 11.9111 7.03381 11.9071 6.9954C11.9026 6.95216 11.8921 6.91088 11.8662 6.87144L11.8614 6.86405L11.8554 6.85768L11.5489 6.53039C11.5304 6.51067 11.52 6.48397 11.52 6.45613C11.52 6.4282 11.5304 6.4015 11.5489 6.38178C11.5674 6.36217 11.5924 6.35108 11.6184 6.35108C11.6445 6.35108 11.6695 6.36217 11.688 6.38178L11.6884 6.38219L12.0539 6.76833L12.063 6.77789L12.0741 6.78456C12.1481 6.82954 12.2307 6.85583 12.3157 6.86148C12.4007 6.86723 12.4858 6.85214 12.5645 6.81742C12.6432 6.78281 12.7135 6.72941 12.7699 6.66132C12.8263 6.59344 12.8674 6.51272 12.8903 6.42533C12.8997 6.3902 12.9004 6.35313 12.8924 6.3176C12.8844 6.28186 12.8679 6.24899 12.8443 6.22219L12.8426 6.22024L12.8407 6.21839L12.3345 5.69885C12.3164 5.67913 12.3062 5.65274 12.3062 5.62511C12.3062 5.59728 12.3166 5.57058 12.3351 5.55086C12.3535 5.53114 12.3785 5.52015 12.4046 5.52015C12.4307 5.52015 12.4557 5.53114 12.4741 5.55086L12.9773 6.08807L12.9792 6.08992L12.981 6.09176C13.0193 6.12853 13.0606 6.14219 13.0993 6.1464C13.1216 6.14897 13.1498 6.14835 13.1714 6.14784C13.1788 6.14763 13.1854 6.14753 13.1908 6.14753C13.2817 6.14753 13.3707 6.12052 13.448 6.06948C13.5253 6.01854 13.5878 5.94552 13.6284 5.85875C13.669 5.77197 13.6863 5.67481 13.6781 5.57828C13.6699 5.48164 13.6367 5.38932 13.5822 5.31168L13.5817 5.31096L13.5811 5.31014L12.4532 3.76609L12.453 3.76588C12.4285 3.7322 12.395 3.70714 12.357 3.6941C12.3188 3.68095 12.2779 3.68054 12.2395 3.69276L12.238 3.69317L12.2366 3.69369L11.6233 3.91192L11.6225 3.91233C11.4887 3.96152 11.3426 3.95567 11.2126 3.896C11.0826 3.83623 10.9783 3.72686 10.9199 3.58924L10.9194 3.58811L10.9188 3.58698C10.8709 3.481 10.8532 3.36238 10.8682 3.24572C10.883 3.12926 10.9298 3.0201 11.0024 2.93188C11.0256 2.90425 11.0414 2.87057 11.0481 2.83421C11.0549 2.79786 11.0525 2.76017 11.0411 2.72515C11.0293 2.6889 11.0081 2.65686 10.98 2.63282C10.9524 2.60931 10.9192 2.59431 10.8841 2.58979C10.7561 2.56997 10.6254 2.58671 10.5054 2.63827L10.5051 2.63847L9.16074 3.22179L9.1591 3.22251L9.15949 3.21912V3.21204V3.08623C9.16372 3.0316 9.16363 2.97665 9.1592 2.92202L9.15891 2.91822L9.15833 2.91452C9.12736 2.70985 9.03069 2.52304 8.88467 2.38625C8.73875 2.24946 8.55271 2.1713 8.3586 2.16504H8.35725H8.35581H7.68757C7.55781 2.16504 7.43333 2.22008 7.34157 2.31806C7.2498 2.41603 7.19824 2.54892 7.19824 2.68746V6.25464C7.19824 6.39318 7.2498 6.52607 7.34157 6.62405C7.43333 6.72202 7.55781 6.77706 7.68757 6.77706H8.34398Z" fill="#E69F69" stroke="white" stroke-width="0.2"/>
<path d="M12.8369 3.48726C12.8074 3.4964 12.7803 3.51294 12.7579 3.53543C12.7349 3.55864 12.7175 3.58739 12.7072 3.61944L12.7055 3.62478L12.7044 3.63032C12.6978 3.66144 12.6977 3.69379 12.7041 3.72501C12.7104 3.75633 12.7231 3.7857 12.7411 3.81117L12.742 3.8123L13.7402 5.18002C13.8315 5.30798 13.8811 5.46439 13.8813 5.62532V5.63014L13.8818 5.63507C13.8852 5.67307 13.8852 5.71137 13.8818 5.74937C13.8788 5.78162 13.8826 5.81407 13.8929 5.84457C13.9033 5.87497 13.92 5.9026 13.9417 5.92519L13.9421 5.9256C13.9641 5.9483 13.9907 5.96524 14.0198 5.9751C14.0489 5.98506 14.0797 5.98763 14.1099 5.9827L14.1117 5.98239L14.1133 5.98208L14.8602 5.83091L14.8636 5.8303C14.8625 5.93341 14.8774 6.0361 14.9077 6.13418C14.9571 6.31205 15.0581 6.46856 15.1962 6.58101C15.3348 6.69388 15.5035 6.75663 15.6778 6.76022H15.6786H15.6796H16.336C16.4658 6.76022 16.5902 6.70518 16.682 6.6072C16.7738 6.50923 16.8253 6.37644 16.8253 6.2379V2.68746C16.8253 2.54892 16.7738 2.41603 16.682 2.31806C16.5902 2.22008 16.4658 2.16504 16.336 2.16504H15.6796H15.6786C15.5526 2.16627 15.4286 2.19944 15.3168 2.26157C15.2052 2.3236 15.1089 2.41295 15.0357 2.52212C14.9723 2.61403 14.9251 2.71734 14.8963 2.82723C14.8944 2.82702 14.8925 2.82651 14.8907 2.82589C14.8907 2.82579 14.8906 2.82579 14.8906 2.82579L13.3187 2.2132L13.3163 2.21228L13.3138 2.21146C13.2025 2.1751 13.0855 2.16268 12.9697 2.1748C12.8544 2.18691 12.7426 2.22306 12.6405 2.28119L11.2861 2.98528C11.2861 2.98528 11.2861 2.98528 11.286 2.98528C11.2 3.02975 11.134 3.10852 11.1019 3.20464C11.07 3.30056 11.0746 3.40613 11.1149 3.49846C11.1524 3.58585 11.2185 3.65548 11.3009 3.6942C11.3834 3.73292 11.4763 3.73805 11.562 3.70837L11.5625 3.70827L12.9619 3.21727L12.9629 3.21686L12.9641 3.21645C12.9762 3.21183 12.9891 3.20988 13.0019 3.2107C13.0148 3.21152 13.0274 3.21501 13.0389 3.22107C13.0505 3.22713 13.0608 3.23566 13.0692 3.24603C13.0777 3.2564 13.0841 3.26852 13.0881 3.28156L13.0884 3.28279L13.0889 3.28403C13.0933 3.29738 13.0951 3.31155 13.0944 3.32572C13.0937 3.33989 13.0903 3.35376 13.0845 3.36649C13.0788 3.37923 13.0707 3.39063 13.0607 3.39997C13.0509 3.40932 13.0395 3.4164 13.0271 3.42102L12.8369 3.48726Z" fill="#514AF3" stroke="white" stroke-width="0.2"/>
</svg>
