<svg width="25" height="25" viewBox="0 0 25 25" fill="none" xmlns="http://www.w3.org/2000/svg">
<g clip-path="url(#clip0_7_1139)">
<path d="M3.30224 13.4025C4.32668 13.4025 5.15721 12.5247 5.15721 11.442C5.15721 10.3591 4.32668 9.48145 3.30224 9.48145C2.2778 9.48145 1.44727 10.3591 1.44727 11.442C1.44727 12.5247 2.2778 13.4025 3.30224 13.4025Z" fill="#514AF3" stroke="white" stroke-width="0.5"/>
<path d="M4.6861 17.6601V17.66C4.68578 17.2947 4.68589 17.0216 4.686 16.7015C4.686 16.5225 4.6861 16.3287 4.6861 16.096V16.0922V16.0884V16.0846V16.0809V16.0771V16.0733V16.0695V16.0658V16.0619V16.0582V16.0544V16.0506V16.0469V16.0431V16.0394V16.0356V16.0319V16.0282V16.0244V16.0207V16.017V16.0132V16.0095V16.0058V16.0021V15.9983V15.9946V15.9909V15.9872V15.9835V15.9798V15.9761V15.9724V15.9687V15.965V15.9613V15.9576V15.9539V15.9502V15.9465V15.9429V15.9392V15.9355V15.9318V15.9282V15.9245V15.9208V15.9172V15.9135V15.9098V15.9062V15.9025V15.899V15.8953V15.8917V15.888V15.8844V15.8807V15.8771V15.8734V15.8698V15.8663V15.8626V15.859V15.8554V15.8517V15.8481V15.8445V15.8409V15.8372V15.8337V15.8301V15.8265V15.8229V15.8193V15.8157V15.8122V15.8086V15.805V15.8013V15.7977V15.7942V15.7907V15.7871V15.7835V15.7799V15.7763V15.7727V15.7692V15.7656V15.762V15.7585V15.7549V15.7514V15.7478V15.7443V15.7407V15.7371V15.7336V15.7301V15.7265V15.7229V15.7195V15.7159V15.7123V15.7088V15.7052V15.7018V15.6982V15.6947V15.6911V15.6877V15.6841V15.6806V15.677V15.6736V15.67V15.6665V15.6629V15.6595V15.6559V15.6524V15.6489V15.6454V15.6419V15.6384V15.6348V15.6314V15.6279V15.6243V15.6209V15.6174V15.6138V15.6103V15.6069V15.6034V15.5999V15.5963V15.5929V15.5894V15.5859V15.5825V15.5789V15.5754V15.572V15.5685V15.565V15.5616V15.558V15.5545V15.551V15.5476V15.5441V15.5406V15.5372V15.5337V15.5302V15.5268V15.5233V15.5198V15.5164V15.5129V15.5094V15.506V15.5025V15.499V15.4956V15.4921V15.4886V15.4852V15.4817V15.4782V15.4747V15.4713V15.4678V15.4643V15.4609V15.4574V15.4539V15.4505V15.447V15.4435V15.4401V15.4366V15.4331V15.4297V15.4263V15.4228V15.4194V15.4159V15.4124V15.409V15.4055V15.402V15.3986V15.3951V15.3918V15.3883V15.3848V15.3814V15.3779V15.3744V15.3709V15.3675V15.364V15.3607V15.3572V15.3537V15.3503V15.3468V15.3433V15.3399V15.3364V15.3329V15.3296V15.3261V15.3226V15.3192V15.3157V15.3122V15.3088V15.3053V15.3018V15.2985V15.295V15.2915V15.2881V15.2846V15.2811V15.2777V15.2742V15.2707V15.2673V15.2638V15.2603V15.2569V15.2534V15.25V15.2466V15.2431V15.2396V15.2362V15.2327V15.2292V15.2258V15.2223V15.2188V15.2154V15.2119V15.2084V15.205V15.2015V15.198V15.1946V15.1911V15.1875V15.184V15.1806V15.1771V15.1736V15.1702V15.1667V15.1632V15.1598V15.1563V15.1528V15.1492V15.1458V15.1423V15.1388V15.1354V15.1319V15.1283V15.1249V15.1214V15.1179V15.1145V15.1109V15.1074V15.1039V15.1005V15.0969V15.0934V15.0899V15.0864V15.0829V15.0794V15.0758V15.0724V15.0689V15.0653V15.0619V15.0584V15.0548V15.0513V15.0478V15.0443V15.0407V15.0372V15.0337V15.0302V15.0266V15.0231V15.0196V15.0161V15.0125V15.009V15.0055V15.0019V14.9984V14.9948V14.9912V14.9878V14.9842V14.9806V14.9771V14.9736V14.97V14.9664V14.9629V14.9593V14.9557V14.9522V14.9486V14.945V14.9415V14.9379V14.9344V14.9308V14.9272V14.9236V14.92V14.9164V14.9129V14.9093V14.9057V14.9021V14.8985V14.8949V14.8914V14.8877V14.8841V14.8805V14.8769V14.8733V14.8696V14.8661V14.8625V14.8589V14.8552V14.8516V14.848V14.8443V14.8407V14.837V14.8335V14.8298V14.8262V14.8226V14.8189V14.8152V14.8116V14.8079V14.8043V14.8006V14.7969V14.7933V14.7896V14.7859V14.7824V14.7787V14.775V14.7713V14.7676V14.7639V14.7603V14.7566V14.7529V14.7492V14.7455V14.7418V14.7381V14.7344V14.7307V14.727V14.7232V14.7195V14.7158V14.7121V14.7084V14.7046V14.7009V14.6972V14.6935V14.6897V14.686V14.6821V14.6784V14.6746V14.6709V14.6671V14.6634V14.6596V14.6559V14.6521V14.6483V14.6446V14.6408V14.637V14.6333V14.6294V14.6256V14.6218V14.618V14.6142V14.6104V14.6066V14.6027V14.5989V14.5951V14.5913V14.5875V14.5837V14.5798V14.576V14.5721V14.5683V14.5645V14.5605V14.5567V14.5529V14.549V14.5452V14.5412V14.5374V14.5335V14.5297V14.5258V14.5218V14.518V14.5141V14.5101V14.5062V14.5024V14.4985V14.4945V14.4906V14.4867V14.4828V14.4788V14.4749V14.471V14.467V14.4631V14.4591V14.4551V14.4512V14.4473V14.4432V14.4393V14.4352V14.4313V14.4274V14.4233V14.4194V14.4154V14.4113V14.4074V14.4033V14.3993V14.3954V14.3913V14.3873V14.3832V14.3792V14.3751V14.3711V14.3671V14.363V14.359V14.3549V14.3509V14.3467V14.3427V14.3386V14.3346V14.3304V14.3264V14.3222V14.3182V14.314V14.3099V14.3058V14.3016V14.2976V14.2934V14.2893V14.2851V14.2811V14.2769V14.2727V14.2686V14.2644V14.2602V14.2561V14.2518V14.2476V14.2435V14.2393V14.235V14.2309V14.2267V14.1212L4.61064 14.0521C4.45512 13.9094 4.31929 13.8004 4.16289 13.7209C4.00508 13.6408 3.83917 13.597 3.63006 13.5651C3.19379 13.4984 2.74856 13.5655 2.34729 13.7587C1.94613 13.9517 1.60578 14.2626 1.36693 14.6542C1.12807 15.0458 1.00077 15.5018 1 15.9676V15.9681V17.8529V18.0841H1.21873H1.95827L2.19112 21.0152L2.20796 21.2271H2.40908H4.19253H4.39442L4.4105 21.0143L4.49045 19.9585C4.52151 19.6818 4.54951 19.4586 4.574 19.2633C4.64476 18.7002 4.68621 18.3699 4.6861 17.6601Z" fill="#514AF3" stroke="white" stroke-width="0.5"/>
<path d="M7.23846 11.4027C8.49323 11.4027 9.51023 10.3277 9.51023 9.00162C9.51023 7.67557 8.49323 6.60059 7.23846 6.60059C5.9838 6.60059 4.9668 7.67557 4.9668 9.00162C4.9668 10.3277 5.9838 11.4027 7.23846 11.4027Z" fill="#514AF3" stroke="white" stroke-width="0.5"/>
<path d="M8.91896 16.8363C8.91852 16.378 8.91863 16.0351 8.91874 15.6334C8.91885 15.4088 8.91896 15.1658 8.91896 14.8738V14.8691V14.8644V14.8595V14.8548V14.85V14.8453V14.8406V14.8358V14.8311V14.8263V14.8216V14.817V14.8122V14.8075V14.8028V14.798V14.7934V14.7887V14.784V14.7793V14.7746V14.7699V14.7652V14.7606V14.7559V14.7512V14.7466V14.742V14.7372V14.7326V14.728V14.7234V14.7186V14.714V14.7094V14.7047V14.7001V14.6955V14.6909V14.6862V14.6816V14.677V14.6724V14.6679V14.6632V14.6586V14.654V14.6495V14.6449V14.6402V14.6357V14.6311V14.6265V14.622V14.6174V14.6128V14.6082V14.6037V14.5991V14.5946V14.5901V14.5855V14.5809V14.5764V14.5718V14.5673V14.5628V14.5583V14.5538V14.5492V14.5447V14.5401V14.5356V14.5311V14.5266V14.5221V14.5176V14.5131V14.5086V14.5041V14.4996V14.4951V14.4907V14.4862V14.4817V14.4771V14.4726V14.4682V14.4637V14.4592V14.4548V14.4503V14.4458V14.4414V14.4369V14.4324V14.428V14.4235V14.4191V14.4146V14.4102V14.4057V14.4013V14.3968V14.3924V14.388V14.3835V14.3791V14.3747V14.3702V14.3658V14.3614V14.3569V14.3525V14.3481V14.3438V14.3392V14.3349V14.3305V14.3261V14.3217V14.3173V14.3128V14.3084V14.304V14.2996V14.2952V14.2908V14.2864V14.282V14.2776V14.2732V14.2689V14.2645V14.2601V14.2557V14.2513V14.2469V14.2425V14.2382V14.2338V14.2294V14.225V14.2207V14.2163V14.2119V14.2076V14.2032V14.1988V14.1944V14.19V14.1857V14.1814V14.177V14.1726V14.1683V14.1639V14.1595V14.1552V14.1508V14.1464V14.1422V14.1378V14.1334V14.1291V14.1247V14.1203V14.116V14.1116V14.1073V14.103V14.0986V14.0943V14.0899V14.0855V14.0812V14.0769V14.0726V14.0682V14.0639V14.0595V14.0551V14.0508V14.0465V14.0422V14.0378V14.0335V14.0291V14.0248V14.0204V14.0162V14.0118V14.0075V14.0031V13.9988V13.9944V13.9902V13.9858V13.9815V13.9771V13.9728V13.9684V13.9642V13.9598V13.9555V13.9511V13.9468V13.9424V13.9381V13.9338V13.9295V13.9251V13.9208V13.9164V13.9121V13.9077V13.9035V13.8991V13.8948V13.8904V13.886V13.8817V13.8773V13.8731V13.8687V13.8644V13.86V13.8557V13.8513V13.8471V13.8427V13.8384V13.834V13.8296V13.8253V13.8209V13.8167V13.8123V13.808V13.8036V13.7992V13.7949V13.7905V13.7863V13.7819V13.7775V13.7732V13.7688V13.7644V13.7601V13.7557V13.7514V13.7471V13.7427V13.7383V13.734V13.7296V13.7252V13.7208V13.7166V13.7122V13.7078V13.7034V13.6991V13.6947V13.6903V13.6859V13.6815V13.6773V13.6729V13.6685V13.6641V13.6597V13.6553V13.6509V13.6465V13.6421V13.6378V13.6335V13.6291V13.6247V13.6203V13.6159V13.6115V13.6071V13.6027V13.5983V13.5938V13.5894V13.585V13.5806V13.5762V13.5718V13.5675V13.5631V13.5586V13.5542V13.5498V13.5454V13.5409V13.5365V13.5321V13.5277V13.5232V13.5188V13.5144V13.5099V13.5055V13.501V13.4966V13.4921V13.4877V13.4833V13.4788V13.4743V13.4699V13.4654V13.461V13.4565V13.4521V13.4476V13.4431V13.4387V13.4342V13.4297V13.4252V13.4208V13.4163V13.4118V13.4072V13.4027V13.3983V13.3938V13.3893V13.3848V13.3803V13.3758V13.3713V13.3668V13.3623V13.3578V13.3533V13.3488V13.3441V13.3396V13.3351V13.3306V13.3261V13.3215V13.317V13.3125V13.3078V13.3033V13.2988V13.2942V13.2897V13.2851V13.2806V13.2759V13.2714V13.2668V13.2622V13.2577V13.253V13.2484V13.2439V13.2393V13.2347V13.23V13.2255V13.2209V13.2163V13.2117V13.207V13.2024V13.1978V13.1932V13.1885V13.1839V13.1793V13.1747V13.1699V13.1653V13.1607V13.1561V13.1513V13.1467V13.1421V13.1373V13.1327V13.128V13.1234V13.1186V13.114V13.1093V13.1045V13.0999V13.0952V13.0904V13.0858V13.081V13.0763V13.0716V13.0668V13.0621V13.0574V13.0526V13.0479V13.0431V13.0384V13.0337V13.0289V13.0241V13.0193V13.0146V13.0098V13.005V13.0003V12.9954V12.9907V12.9858V12.9811V12.9762V12.9715V12.9666V12.9618V12.9569V12.9522V12.9473V12.9425V12.9376V12.9327V12.9279V12.923V12.9182V12.9133V12.9085V12.9036V12.8986V12.8938V12.8889V12.884V12.8791V12.8743V12.8693V12.8644V12.8595V12.8546V12.8496V12.8447V12.8397V12.8348V12.8299V12.8249V12.8199V12.815V12.81V12.805V12.8001V12.7951V12.7901V12.7851V12.7801V12.7751V12.7701V12.765V12.7601V12.755V12.75V12.7449V12.7399V12.7349V12.7298V12.7248V12.7197V12.7146V12.7095V12.7045V12.6994V12.6943V12.6892V12.6841V12.679V12.6738V12.6687V12.6637V12.6585V12.6534V12.6482V12.6431V12.6379V12.6328V12.6276V12.6224V12.6173V12.6121V12.6069V12.6017V12.5965V12.5913V12.5861V12.5809V12.5756V12.5704V12.5652V12.56V12.5547V12.5495V12.5441V12.5389V12.5336V12.5283V12.4229L8.8435 12.3538C8.64959 12.1759 8.48357 12.0432 8.29404 11.9469C8.10308 11.8498 7.90108 11.796 7.64166 11.7564C7.10478 11.6743 6.55685 11.7571 6.06317 11.9947C5.56949 12.2323 5.15072 12.6148 4.85685 13.0967C4.56298 13.5785 4.40626 14.1396 4.40527 14.7129V14.7133V17.0783V17.3094H4.62401H5.60328L5.89966 21.0412L5.91651 21.253H6.11763H8.35528H8.55728L8.57336 21.0402L8.67365 19.7143C8.71291 19.3649 8.74824 19.0838 8.77897 18.8382C8.86756 18.1331 8.91907 17.7228 8.91896 16.8363Z" fill="#514AF3" stroke="white" stroke-width="0.5"/>
<path d="M11.8778 8.9033C13.4202 8.9033 14.6704 7.58175 14.6704 5.95159C14.6704 4.32142 13.4202 3 11.8778 3C10.3354 3 9.08496 4.32142 9.08496 5.95159C9.08496 7.58175 10.3354 8.9033 11.8778 8.9033Z" fill="#514AF3" stroke="white" stroke-width="0.5"/>
<path d="M13.9308 15.7729V15.7727C13.9302 15.198 13.9305 14.7682 13.9306 14.2646C13.9307 13.983 13.9308 13.6783 13.9308 13.3124V13.3064V13.3003V13.2945V13.2884V13.2825V13.2765V13.2706V13.2646V13.2587V13.2528V13.2469V13.2409V13.235V13.2291V13.2233V13.2174V13.2115V13.2056V13.1997V13.1938V13.1879V13.1821V13.1762V13.1703V13.1644V13.1586V13.1527V13.147V13.1411V13.1353V13.1294V13.1236V13.1178V13.1119V13.1062V13.1004V13.0945V13.0887V13.0829V13.0771V13.0714V13.0656V13.0598V13.054V13.0482V13.0425V13.0367V13.031V13.0252V13.0195V13.0137V13.008V13.0022V12.9966V12.9908V12.985V12.9794V12.9737V12.9679V12.9622V12.9565V12.9508V12.9451V12.9394V12.9337V12.928V12.9224V12.9167V12.911V12.9053V12.8996V12.8939V12.8883V12.8826V12.8769V12.8714V12.8657V12.8601V12.8544V12.8487V12.8431V12.8375V12.8319V12.8262V12.8207V12.815V12.8093V12.8038V12.7981V12.7926V12.7869V12.7813V12.7757V12.7701V12.7646V12.7589V12.7534V12.7477V12.7422V12.7366V12.7311V12.7254V12.7199V12.7143V12.7088V12.7032V12.6977V12.6921V12.6865V12.6809V12.6754V12.6698V12.6643V12.6587V12.6532V12.6477V12.6422V12.6366V12.6311V12.6255V12.62V12.6144V12.609V12.6035V12.5979V12.5924V12.5869V12.5814V12.5758V12.5704V12.5649V12.5593V12.5539V12.5483V12.5428V12.5373V12.5318V12.5264V12.5208V12.5154V12.5098V12.5044V12.4988V12.4934V12.4879V12.4824V12.477V12.4715V12.466V12.4605V12.455V12.4496V12.4441V12.4386V12.4332V12.4276V12.4222V12.4168V12.4113V12.4058V12.4004V12.3949V12.3895V12.384V12.3785V12.3731V12.3677V12.3622V12.3567V12.3512V12.3458V12.3404V12.3349V12.3295V12.3241V12.3185V12.3131V12.3077V12.3022V12.2968V12.2914V12.2859V12.2805V12.2751V12.2696V12.2642V12.2587V12.2532V12.2478V12.2424V12.2369V12.2315V12.2261V12.2206V12.2152V12.2098V12.2043V12.1989V12.1935V12.188V12.1826V12.1772V12.1717V12.1663V12.1609V12.1554V12.15V12.1446V12.1391V12.1337V12.1283V12.1228V12.1174V12.112V12.1065V12.1011V12.0957V12.0902V12.0848V12.0794V12.0739V12.0685V12.0631V12.0576V12.0521V12.0467V12.0412V12.0358V12.0304V12.0249V12.0195V12.0141V12.0086V12.0032V11.9978V11.9923V11.9869V11.9814V11.9759V11.9705V11.9651V11.9596V11.9542V11.9488V11.9432V11.9378V11.9323V11.9269V11.9215V11.9159V11.9105V11.9051V11.8996V11.8941V11.8886V11.8832V11.8778V11.8722V11.8668V11.8614V11.8558V11.8504V11.845V11.8394V11.834V11.8284V11.823V11.8176V11.812V11.8066V11.801V11.7956V11.7901V11.7846V11.7791V11.7736V11.7681V11.7627V11.7571V11.7516V11.7461V11.7406V11.7351V11.7296V11.724V11.7186V11.7131V11.7075V11.702V11.6965V11.691V11.6854V11.6799V11.6743V11.6688V11.6634V11.6578V11.6523V11.6467V11.6412V11.6356V11.6301V11.6245V11.619V11.6134V11.6079V11.6022V11.5967V11.5911V11.5856V11.58V11.5745V11.5688V11.5633V11.5577V11.5521V11.5465V11.541V11.5353V11.5297V11.5241V11.5185V11.5129V11.5073V11.5017V11.4961V11.4904V11.4849V11.4792V11.4736V11.468V11.4624V11.4567V11.451V11.4455V11.4398V11.4341V11.4285V11.4228V11.4172V11.4115V11.4058V11.4002V11.3945V11.3888V11.3832V11.3774V11.3717V11.3661V11.3604V11.3546V11.349V11.3433V11.3375V11.3319V11.3262V11.3204V11.3146V11.309V11.3032V11.2975V11.2917V11.286V11.2803V11.2745V11.2687V11.263V11.2572V11.2514V11.2457V11.24V11.2342V11.2284V11.2225V11.2167V11.2109V11.2052V11.1994V11.1935V11.1877V11.1819V11.176V11.1703V11.1645V11.1586V11.1528V11.1469V11.141V11.1352V11.1293V11.1234V11.1175V11.1118V11.1059V11.1V11.0941V11.0882V11.0823V11.0764V11.0705V11.0646V11.0586V11.0527V11.0468V11.0409V11.0349V11.029V11.023V11.0171V11.0111V11.0052V10.9992V10.9932V10.9873V10.9813V10.9753V10.9692V10.9632V10.9572V10.9512V10.9452V10.9392V10.9332V10.9272V10.921V10.915V10.909V10.9029V10.8969V10.8909V10.8848V10.8786V10.8726V10.8665V10.8604V10.8544V10.8482V10.8421V10.836V10.8298V10.8237V10.8176V10.8115V10.8052V10.7991V10.793V10.7868V10.7806V10.7745V10.7682V10.7621V10.7559V10.7496V10.7435V10.7373V10.731V10.7248V10.7185V10.7123V10.706V10.6998V10.6936V10.6872V10.681V10.6747V10.6684V10.6621V10.6558V10.6495V10.6432V10.6369V10.6306V10.6242V10.6179V10.6115V10.6051V10.5988V10.5924V10.5861V10.5797V10.5732V10.5669V10.5605V10.554V10.5477V10.5412V10.5349V10.5284V10.5219V10.5154V10.509V10.5025V10.496V10.4895V10.4831V10.4766V10.4701V10.4635V10.4571V10.4505V10.444V10.4374V10.4309V10.4244V10.4178V10.4112V10.4046V10.398V10.3914V10.3848V10.3782V10.3716V10.2661L13.8554 10.197C13.6135 9.97517 13.4098 9.81277 13.1788 9.69544C12.9465 9.57731 12.6993 9.51108 12.377 9.46184C11.7143 9.36058 11.0382 9.46265 10.4288 9.7559C9.81957 10.0491 9.30281 10.5212 8.94015 11.1159C8.57738 11.7108 8.38391 12.403 8.38281 13.1107V13.111V16.0761V16.3073H8.60155H9.88027L10.2563 21.0398L10.2731 21.2517H10.4742H13.2797H13.4816L13.4977 21.0389L13.6237 19.3754C13.673 18.935 13.7174 18.5813 13.7561 18.2731C13.8669 17.3905 13.931 16.8802 13.9308 15.7729Z" fill="#514AF3" stroke="white" stroke-width="0.5"/>
<path d="M20.178 8.68848H18.8583C18.7553 8.68848 18.6719 8.77679 18.6719 8.88556V10.2804C18.6719 10.3893 18.7553 10.4775 18.8583 10.4775H20.178C20.281 10.4775 20.3644 10.3893 20.3644 10.2804V8.88556C20.3644 8.77679 20.281 8.68848 20.178 8.68848Z" fill="#E69F69"/>
<path d="M17.7265 8.73047H16.3099C16.2386 8.73047 16.1702 8.76041 16.1198 8.81369C16.0693 8.86698 16.041 8.93934 16.041 9.0147C16.041 9.09007 16.0693 9.16243 16.1198 9.21572C16.1702 9.269 16.2386 9.29894 16.3099 9.29894H17.7265C17.7978 9.29894 17.8661 9.269 17.9167 9.21572C17.9671 9.16243 17.9954 9.09007 17.9954 9.0147C17.9954 8.93934 17.9671 8.86698 17.9167 8.81369C17.8661 8.76041 17.7978 8.73047 17.7265 8.73047Z" fill="#E69F69"/>
<path d="M15.5283 9.95463V8.09375C15.526 8.06288 15.5346 8.03225 15.5526 8.00775C15.5704 7.98324 15.5962 7.9666 15.6251 7.96105H20.8571C20.8863 7.96579 20.9127 7.9822 20.9307 8.00682C20.9487 8.03156 20.9571 8.06265 20.954 8.09375V11.0765H21.0974C21.2328 11.0767 21.3669 11.105 21.4919 11.1599V8.09375C21.4937 8.00359 21.4789 7.914 21.448 7.82997C21.4172 7.74594 21.3709 7.66919 21.312 7.60411C21.253 7.53903 21.1825 7.48678 21.1045 7.45049C21.0264 7.41419 20.9424 7.39454 20.8571 7.39258H15.6251C15.4533 7.39755 15.2902 7.47395 15.1713 7.60515C15.0524 7.73646 14.9875 7.91204 14.9903 8.09375V9.95463H15.5283Z" fill="#E69F69"/>
<path d="M22.6094 11.4811C22.5436 11.4509 22.4694 11.4497 22.4029 11.4773C22.3363 11.505 22.2828 11.5596 22.2542 11.629C22.2258 11.6983 22.2245 11.7768 22.2507 11.8472C22.2769 11.9176 22.3285 11.974 22.3941 12.0042C22.423 12.0161 22.4465 12.0392 22.4597 12.0688C22.4731 12.0984 22.4753 12.1321 22.4659 12.1633L21.6303 14.4715V12.1974C21.6303 12.0487 21.5744 11.906 21.4749 11.8008C21.3754 11.6956 21.2403 11.6366 21.0995 11.6366H17.0652L16.6816 10.8027C16.6345 10.7109 16.5644 10.6348 16.479 10.5826C16.3936 10.5305 16.2961 10.5043 16.1974 10.507H14.9387C14.8687 10.5066 14.7993 10.5207 14.7345 10.5486C14.6697 10.5766 14.6108 10.6179 14.5611 10.67C14.5115 10.7221 14.472 10.7842 14.4451 10.8525C14.4182 10.9207 14.4044 10.994 14.4044 11.068V15.9269C14.4044 16.0009 14.4182 16.0742 14.4451 16.1425C14.472 16.2108 14.5115 16.2728 14.5611 16.3249C14.6108 16.377 14.6697 16.4183 14.7345 16.4463C14.7993 16.4743 14.8687 16.4884 14.9387 16.4879H21.0995C21.1981 16.482 21.2937 16.4496 21.3771 16.394C21.4606 16.3383 21.5291 16.261 21.5765 16.1696L22.9535 12.3794C23.0166 12.2116 23.016 12.0246 22.9519 11.8572C22.8878 11.69 22.7651 11.5552 22.6094 11.4811ZM17.3916 14.8278C17.4629 14.8278 17.5313 14.8577 17.5817 14.911C17.6322 14.9644 17.6605 15.0367 17.6605 15.112C17.6605 15.1875 17.6322 15.2597 17.5817 15.313C17.5313 15.3663 17.4629 15.3964 17.3916 15.3964C17.1125 15.3914 16.846 15.2721 16.6486 15.0635C16.4512 14.8548 16.3384 14.5733 16.3337 14.2783V13.8613C16.3337 13.5598 16.4471 13.2706 16.6488 13.0573C16.8505 12.8441 17.1242 12.7243 17.4095 12.7243C17.4808 12.7243 17.5493 12.7542 17.5997 12.8075C17.6501 12.8609 17.6784 12.9332 17.6784 13.0085C17.6784 13.084 17.6501 13.1562 17.5997 13.2095C17.5493 13.2628 17.4808 13.2929 17.4095 13.2929C17.2716 13.2929 17.1394 13.3507 17.0418 13.4538C16.9444 13.5569 16.8896 13.6966 16.8896 13.8424V14.2593C16.8872 14.3314 16.8982 14.4035 16.9222 14.4711C16.9461 14.5387 16.9824 14.6008 17.0291 14.6535C17.0757 14.7063 17.1317 14.749 17.1939 14.7788C17.2562 14.8087 17.3233 14.8254 17.3916 14.8278ZM19.6329 13.7363C19.6236 14.3098 19.4229 14.8615 19.0663 15.294C19.0407 15.326 19.0089 15.3518 18.973 15.3694C18.937 15.3871 18.8979 15.3963 18.8583 15.3964C18.8192 15.3963 18.7806 15.387 18.7453 15.3693C18.7099 15.3516 18.6787 15.3259 18.6539 15.294C18.2994 14.861 18.1024 14.3088 18.0981 13.7363V13.0275C18.0981 12.9521 18.1264 12.8799 18.1768 12.8265C18.2272 12.7732 18.2957 12.7432 18.367 12.7432C18.4383 12.7432 18.5068 12.7732 18.5572 12.8265C18.6076 12.8799 18.6359 12.9521 18.6359 13.0275V13.7363C18.6371 14.0447 18.7137 14.3476 18.8583 14.6156C19.004 14.3479 19.0818 14.045 19.0842 13.7363V13.0275C19.0842 12.9521 19.1126 12.8799 19.163 12.8265C19.2134 12.7732 19.2819 12.7432 19.3532 12.7432C19.4245 12.7432 19.4929 12.7732 19.5434 12.8265C19.5938 12.8799 19.6221 12.9521 19.6221 13.0275L19.6329 13.7363Z" fill="#514AF3"/>
</g>
<defs>
<clipPath id="clip0_7_1139">
<rect width="24" height="24" fill="white" transform="translate(0.304688 0.09375)"/>
</clipPath>
</defs>
</svg>
