<svg width="25" height="25" viewBox="0 0 25 25" fill="none" xmlns="http://www.w3.org/2000/svg">
<path d="M18.5781 17.2814L18.5756 17.2812H18.5732H5.43341H5.43102L5.42849 17.2814C5.3458 17.2843 5.26431 17.3047 5.18908 17.3416C4.89386 17.4749 4.63655 17.6885 4.44282 17.9612C4.24864 18.2346 4.12536 18.5579 4.08521 18.8983L4.08506 18.8997L4.08491 18.901C4.04983 19.2431 4.10147 19.5892 4.23416 19.903C4.36655 20.2161 4.57491 20.4857 4.83774 20.684C6.91042 22.3254 9.42265 23.2115 12.0032 23.2115C14.584 23.2115 17.0961 22.3254 19.1687 20.684C19.4317 20.4859 19.6401 20.2161 19.7725 19.903C19.9052 19.5892 19.9567 19.2431 19.9217 18.901L19.9216 18.8993L19.9213 18.8975C19.8793 18.5579 19.7555 18.2359 19.5616 17.9629C19.3683 17.6906 19.112 17.4766 18.8179 17.3418C18.7425 17.3048 18.661 17.2843 18.5781 17.2814Z" fill="#E69F69" stroke="white" stroke-width="0.2"/>
<path d="M18.5969 16.8613C18.7062 16.8613 18.8109 16.8118 18.888 16.7237C18.9653 16.6354 19.0087 16.5159 19.0087 16.3912V15.4506C19.0107 15.3431 18.9797 15.2381 18.921 15.154C18.8624 15.0699 18.7797 15.0117 18.6875 14.9899L17.9794 14.8018C16.0328 14.1961 14.0261 13.8801 12.0088 13.8613C9.99152 13.8793 7.98463 14.1954 6.03835 14.8018L5.33005 14.9899C5.23787 15.0117 5.15536 15.0699 5.09671 15.154C5.03806 15.2381 5.00691 15.3431 5.00888 15.4506V16.3912C5.00888 16.5159 5.05237 16.6354 5.12955 16.7237C5.20672 16.8118 5.31153 16.8613 5.42069 16.8613H18.5969Z" fill="#E69F69"/>
<path d="M21.9428 9.53711L21.9426 9.53647C21.7974 8.90306 21.4261 8.35539 20.9079 8.01056L13.3604 2.3177L13.3598 2.31722C12.9624 2.02052 12.4891 1.86133 12.004 1.86133C11.5191 1.86133 11.0458 2.02052 10.6483 2.31722L10.6474 2.31786L3.16313 7.9908C2.62134 8.33037 2.22702 8.8849 2.06627 9.5336L2.06538 9.53695L2.06463 9.5403C1.93015 10.1967 2.04075 10.8833 2.37284 11.4541L2.37687 11.4611L2.38149 11.4674L4.23791 14.0291L4.23836 14.0296C4.30656 14.1251 4.39865 14.1977 4.50388 14.2396C4.6094 14.2815 4.72373 14.2908 4.83402 14.2662L4.83626 14.2658L4.8385 14.2651L5.38164 14.1249L5.38357 14.1243L5.38537 14.1238C7.54372 13.5017 9.76834 13.1798 12.0039 13.1659C14.2401 13.1859 16.4647 13.5141 18.6223 14.1424L18.6244 14.1431L18.6265 14.1435L19.1697 14.2838L19.1719 14.2844L19.1741 14.2849C19.2843 14.3096 19.3988 14.3003 19.5043 14.2584C19.6094 14.2165 19.7014 14.1439 19.7697 14.0486C19.7697 14.0486 19.77 14.0481 19.7701 14.0478L21.6526 11.4679L21.6579 11.4606L21.6623 11.4528C21.989 10.8787 22.0898 10.1901 21.9428 9.53711ZM13.6876 7.86284C13.6876 7.91351 13.6934 7.96371 13.7047 8.01215H13.5725L13.8042 8.2797L14.2334 8.77527L14.2349 8.77718L14.2365 8.77893C14.2994 8.84713 14.3395 8.93525 14.3512 9.03007C14.3627 9.12504 14.3449 9.22128 14.3006 9.3043C14.2562 9.38748 14.1876 9.45281 14.1053 9.49042C14.0234 9.52803 13.9324 9.53599 13.8458 9.51353L13.2604 9.34557L13.2586 9.34509L13.2567 9.34462C13.1176 9.30877 12.9709 9.33091 12.8467 9.40676C12.7227 9.48245 12.6303 9.60579 12.5886 9.75159C12.5885 9.75191 12.5885 9.75207 12.5883 9.75239L12.3961 10.4052V10.4056C12.3697 10.4943 12.3174 10.5718 12.247 10.6267C12.1765 10.6819 12.0915 10.7115 12.004 10.7115C11.9167 10.7115 11.8316 10.6819 11.7612 10.6267C11.6906 10.5718 11.6385 10.4942 11.6119 10.4052L11.4198 9.75239L11.4195 9.75175C11.3777 9.60579 11.2855 9.48245 11.1615 9.40676C11.0376 9.33123 10.8913 9.30892 10.7525 9.3443L10.1316 9.49377L10.1301 9.49408L10.1286 9.4944C10.0416 9.51735 9.95013 9.50938 9.86774 9.47178C9.78535 9.43401 9.71685 9.36868 9.67252 9.28566C9.62819 9.20248 9.61043 9.10623 9.62192 9.01142C9.63356 8.91661 9.67371 8.82833 9.73655 8.76013L9.73819 8.75838L9.73968 8.75662L10.1689 8.26089L10.1697 8.2601C10.2667 8.14632 10.3206 7.99797 10.3206 7.8442C10.3206 7.69027 10.2667 7.54192 10.1697 7.42814L10.1689 7.42734L9.74103 6.93321C9.68446 6.86421 9.64953 6.77816 9.64117 6.68702C9.63267 6.59523 9.65147 6.50297 9.69491 6.42329C9.73819 6.34362 9.80401 6.28052 9.88282 6.24291C9.96132 6.20547 10.0488 6.19527 10.133 6.21359L10.7525 6.36274C10.8913 6.39812 11.0376 6.37581 11.1615 6.30028C11.2855 6.22459 11.3777 6.10125 11.4195 5.95529L11.4198 5.95465L11.6119 5.30181V5.30165C11.6385 5.21289 11.6907 5.13529 11.7612 5.08015C11.8316 5.02518 11.9167 4.99538 12.004 4.99538C12.0915 4.99538 12.1765 5.02518 12.247 5.08015C12.3174 5.13529 12.3697 5.21273 12.3961 5.30149V5.30181L12.5883 5.95465C12.5883 5.95465 12.5885 5.95513 12.5886 5.95545C12.6303 6.10125 12.7227 6.22459 12.8467 6.30028C12.9706 6.37581 13.1168 6.39812 13.2555 6.36274L13.8764 6.21328L13.8779 6.21296L13.8795 6.21248C13.9664 6.18953 14.058 6.1975 14.1404 6.23527C14.2227 6.27287 14.2913 6.33836 14.3356 6.42138C14.38 6.5044 14.3977 6.60081 14.3862 6.69562C14.3746 6.79043 14.3343 6.87871 14.2716 6.94675L14.27 6.94851L14.2683 6.95042L13.8392 7.44599L13.8385 7.44694C13.7413 7.56072 13.6876 7.70891 13.6876 7.86284Z" fill="#514AF3" stroke="white" stroke-width="0.2"/>
</svg>
