<svg width="25" height="25" viewBox="0 0 25 25" fill="none" xmlns="http://www.w3.org/2000/svg">
<g clip-path="url(#clip0_7_360)">
<mask id="mask0_7_360" style="mask-type:luminance" maskUnits="userSpaceOnUse" x="0" y="0" width="25" height="25">
<path d="M24.8418 0.78125H0.841797V24.7812H24.8418V0.78125Z" fill="white"/>
</mask>
<g mask="url(#mask0_7_360)">
<mask id="mask1_7_360" style="mask-type:luminance" maskUnits="userSpaceOnUse" x="0" y="0" width="25" height="25">
<path d="M24.8418 0.78125H0.841797V24.7812H24.8418V0.78125Z" fill="white"/>
</mask>
<g mask="url(#mask1_7_360)">
<path d="M17.6067 3.3432C17.1458 4.05716 16.7319 4.78185 16.4098 5.39658C16.0755 6.03435 16.0295 6.80785 16.372 7.4856C16.4414 7.62295 16.5238 7.7501 16.6171 7.86625C16.5128 8.0735 16.4142 8.27545 16.3223 8.4694C16.0272 9.0928 15.9991 9.8369 16.3344 10.4896C16.3874 10.5927 16.4477 10.69 16.5145 10.7811H3.84194C3.75646 10.7811 3.67097 10.7845 3.58569 10.7911C4.51247 9.13086 5.77354 7.16961 6.99697 5.76604C7.72092 4.93553 8.96292 4.93553 9.68687 5.76604C9.85457 5.95841 10.023 6.16126 10.1911 6.37241C11.3332 4.77488 12.5853 3.2282 13.7851 2.07559C14.5216 1.36803 15.6621 1.36803 16.3987 2.07559C16.7975 2.45878 17.2022 2.88552 17.6067 3.3432Z" fill="#514AF3"/>
<path fill-rule="evenodd" clip-rule="evenodd" d="M3.84166 12.0312C2.63281 12.0312 1.51322 13.0388 1.70486 14.3827C2.48275 19.8376 7.17182 24.0312 12.8417 24.0312C18.5115 24.0312 23.2006 19.8376 23.9784 14.3827C24.1701 13.0388 23.0505 12.0312 21.8417 12.0312H3.84166Z" fill="#514AF3"/>
<path fill-rule="evenodd" clip-rule="evenodd" d="M13.1267 12.0312H21.8417C23.0505 12.0312 24.1701 13.0388 23.9784 14.3827C23.3757 18.6094 20.4249 22.0787 16.4891 23.4268C15.5719 21.6815 16.4427 20.2416 17.1624 19.0513C17.6303 18.2774 18.0344 17.6093 17.8417 17.0312C17.5764 16.4416 16.8263 16.2427 15.9962 16.0226C14.5115 15.6289 12.771 15.1676 13.0917 12.2812C13.101 12.1978 13.1127 12.1143 13.1267 12.0312ZM8.07618 12.0312C8.94798 13.0882 9.39557 14.2852 8.84172 15.5312C8.40967 16.5034 7.56688 16.9408 6.70868 17.3862C5.66757 17.9266 4.60374 18.4789 4.22267 20.0117C2.90507 18.4426 2.008 16.5084 1.70486 14.3827C1.51322 13.0388 2.63281 12.0312 3.84166 12.0312H8.07618Z" fill="#E69F69"/>
<path d="M20.2983 1.88878C20.5676 1.61911 20.9986 1.61911 21.2679 1.88878C22.2576 2.87974 23.3501 4.64237 24.0494 5.97671C24.2145 6.29186 24.222 6.63811 24.0787 6.92171C23.9371 7.20186 23.6606 7.39576 23.309 7.43551C23.61 7.98026 23.8848 8.51966 24.1142 9.00421C24.2599 9.31196 24.2604 9.6452 24.1201 9.91825C23.9784 10.1941 23.7049 10.3845 23.3566 10.4221C22.9322 10.4679 22.3426 10.5083 21.5331 10.5241V12.781C21.5331 13.1952 21.1973 13.531 20.7831 13.531C20.3689 13.531 20.0331 13.1952 20.0331 12.781V10.5241C19.2236 10.5083 18.6341 10.4679 18.2096 10.4221C17.8613 10.3845 17.5879 10.1941 17.4462 9.91825C17.3059 9.6452 17.3063 9.31196 17.452 9.00421C17.6815 8.51966 17.9563 7.98026 18.2573 7.43551C17.9056 7.39576 17.6292 7.20186 17.4876 6.92171C17.3443 6.63811 17.3517 6.29186 17.5169 5.97671C18.2162 4.64236 19.3086 2.87974 20.2983 1.88878Z" fill="#E69F69"/>
</g>
</g>
</g>
<defs>
<clipPath id="clip0_7_360">
<rect width="24" height="24" fill="white" transform="translate(0.841797 0.78125)"/>
</clipPath>
</defs>
</svg>
