<svg width="25" height="25" viewBox="0 0 25 25" fill="none" xmlns="http://www.w3.org/2000/svg">
<path fill-rule="evenodd" clip-rule="evenodd" d="M16.5167 11.1541C16.5167 8.1991 16.4075 6.02233 16.3034 4.61836C16.198 3.1958 15.156 2.09684 13.831 1.97337C12.6579 1.86407 11.0153 1.75 9.26273 1.75C7.51919 1.75 5.88457 1.86285 4.71275 1.9716C3.37678 2.09574 2.33066 3.20996 2.22558 4.63971C2.1206 6.07024 2.00879 8.26991 2.00879 11.1541C2.00879 14.6735 2.09221 17.345 2.15055 18.7819C2.19128 19.7845 2.96683 20.5582 3.89823 20.5582H14.6316C15.56 20.5582 16.3351 19.7897 16.3766 18.788C16.4349 17.3828 16.5167 14.7668 16.5167 11.1541ZM9.26273 14.7067C8.88697 14.7067 8.57827 14.7247 8.32614 14.7519C7.5822 14.8321 7.15328 15.4812 7.12769 16.2286C7.11515 16.5945 7.10613 17.0755 7.10613 17.7021C7.10613 17.9143 7.10717 18.1097 7.10903 18.2896C7.11494 18.8577 7.55183 19.3043 8.07951 19.3043H10.4459C10.9736 19.3043 11.4105 18.8577 11.4164 18.2896C11.4183 18.1097 11.4193 17.9143 11.4193 17.7021C11.4193 17.0755 11.4103 16.5945 11.3978 16.2286C11.3722 15.4812 10.9433 14.8321 10.1993 14.7519C9.94719 14.7247 9.63848 14.7067 9.26273 14.7067ZM8.47847 5.30264C8.47847 5.76433 8.12738 6.13861 7.69432 6.13861H5.34166C4.9086 6.13861 4.55751 5.76433 4.55751 5.30264C4.55751 4.84096 4.9086 4.46679 5.34166 4.46679H7.69432C8.12738 4.46679 8.47847 4.84096 8.47847 5.30264ZM7.69432 9.48226C8.12738 9.48226 8.47847 9.10798 8.47847 8.64629C8.47847 8.18461 8.12738 7.81044 7.69432 7.81044H5.34166C4.9086 7.81044 4.55751 8.18461 4.55751 8.64629C4.55751 9.10798 4.9086 9.48226 5.34166 9.48226H7.69432ZM8.47847 11.9901C8.47847 12.4516 8.12738 12.8259 7.69432 12.8259H5.34166C4.9086 12.8259 4.55751 12.4516 4.55751 11.9901C4.55751 11.5284 4.9086 11.1541 5.34166 11.1541H7.69432C8.12738 11.1541 8.47847 11.5284 8.47847 11.9901ZM13.1838 6.13861C13.6168 6.13861 13.9679 5.76433 13.9679 5.30264C13.9679 4.84096 13.6168 4.46679 13.1838 4.46679H10.8311C10.3981 4.46679 10.047 4.84096 10.047 5.30264C10.047 5.76433 10.3981 6.13861 10.8311 6.13861H13.1838ZM13.9679 8.64629C13.9679 9.10798 13.6168 9.48226 13.1838 9.48226H10.8311C10.3981 9.48226 10.047 9.10798 10.047 8.64629C10.047 8.18461 10.3981 7.81044 10.8311 7.81044H13.1838C13.6168 7.81044 13.9679 8.18461 13.9679 8.64629ZM13.1838 12.8259C13.6168 12.8259 13.9679 12.4516 13.9679 11.9901C13.9679 11.5284 13.6168 11.1541 13.1838 11.1541H10.8311C10.3981 11.1541 10.047 11.5284 10.047 11.9901C10.047 12.4516 10.3981 12.8259 10.8311 12.8259H13.1838Z" fill="#E69F69"/>
<path d="M16.5708 14.916H16.5658C14.8671 14.916 13.9095 14.916 12.7379 14.9823C12.0581 15.0208 11.5018 15.5639 11.3811 16.3045C11.2811 16.9174 11.1746 17.7268 11.1295 18.5947C11.1012 19.1402 11.4276 19.6381 11.9372 19.7047C12.0463 19.719 12.1668 19.7317 12.2982 19.7415L12.4938 22.2532C12.5347 22.7788 12.8751 23.2382 13.3727 23.2895C13.5688 23.3099 13.7985 23.3244 14.0544 23.3244C14.318 23.3244 14.5541 23.3089 14.754 23.2878C14.8775 23.2746 14.9926 23.2356 15.0962 23.176C15.2181 23.1056 15.3346 23.0187 15.4459 22.9311C15.4839 22.9012 15.5209 22.8715 15.5574 22.8422C15.6302 22.7839 15.7009 22.7273 15.774 22.6729C15.9923 22.5109 16.1958 22.3992 16.4139 22.3992H16.7227C16.9408 22.3992 17.1443 22.5109 17.3626 22.6729C17.4357 22.7273 17.5064 22.7839 17.5792 22.8422C17.6157 22.8715 17.6527 22.9012 17.6907 22.9311C17.802 23.0187 17.9185 23.1056 18.0404 23.176C18.144 23.2356 18.2591 23.2746 18.3826 23.2878C18.5825 23.3089 18.8186 23.3244 19.0822 23.3244C19.338 23.3244 19.5679 23.3099 19.7639 23.2895C20.2615 23.2382 20.6019 22.7788 20.6428 22.2532L20.8384 19.7415C20.9699 19.7317 21.0903 19.719 21.1994 19.7047C21.709 19.6381 22.0354 19.1402 22.0071 18.5947C21.962 17.7268 21.8555 16.9174 21.7555 16.3045C21.6348 15.5639 21.0785 15.0208 20.3987 14.9823C19.2271 14.916 18.2696 14.916 16.5708 14.916Z" fill="#514AF3"/>
<path d="M15.0635 15.3025C15.0635 16.1884 15.7362 16.9067 16.5661 16.9067C17.3959 16.9067 18.0687 16.1884 18.0687 15.3025C18.0687 14.4165 17.3959 13.6982 16.5661 13.6982C15.7362 13.6982 15.0635 14.4165 15.0635 15.3025Z" fill="#E69F69" stroke="white" stroke-width="0.2"/>
<path d="M17.5894 17.4845C18.0974 17.5113 18.4984 17.9037 18.5833 18.4353C18.6527 18.8701 18.7318 19.4429 18.7915 20.0965C18.8301 20.5196 18.5382 20.8865 18.1379 20.9104C18.0247 20.9172 17.8979 20.9238 17.7576 20.9296L17.6731 22.3846C17.6529 22.7327 17.4232 23.0283 17.0964 23.0687C16.9395 23.088 16.7584 23.1024 16.5669 23.1024C16.3753 23.1024 16.1942 23.088 16.0372 23.0687C15.7105 23.0283 15.4808 22.7327 15.4605 22.3846L15.3761 20.9296C15.2358 20.9238 15.109 20.9172 14.9958 20.9104C14.5956 20.8865 14.3036 20.5196 14.3423 20.0965C14.402 19.4429 14.4811 18.8701 14.5505 18.4352C14.6354 17.9036 15.0363 17.5113 15.5444 17.4845C15.8136 17.4704 16.1523 17.46 16.5668 17.46C16.9814 17.46 17.3201 17.4704 17.5894 17.4845Z" fill="#E69F69" stroke="white" stroke-width="0.2"/>
<path d="M20.6613 12.7585C20.6613 13.6445 19.9654 14.3628 19.1069 14.3628C18.2485 14.3628 17.5525 13.6445 17.5525 12.7585C17.5525 11.8725 18.2485 11.1543 19.1069 11.1543C19.9654 11.1543 20.6613 11.8725 20.6613 12.7585Z" fill="#514AF3"/>
<path d="M12.5773 12.7585C12.5773 13.6445 13.25 14.3628 14.0799 14.3628C14.9097 14.3628 15.5825 13.6445 15.5825 12.7585C15.5825 11.8725 14.9097 11.1543 14.0799 11.1543C13.25 11.1543 12.5773 11.8725 12.5773 12.7585Z" fill="#514AF3"/>
</svg>
