<svg width="25" height="25" viewBox="0 0 25 25" fill="none" xmlns="http://www.w3.org/2000/svg">
<path d="M9.87201 13.3249C9.87201 12.7217 10.2126 12.2249 10.6282 12.2249H14.1929C14.2192 12.226 14.2455 12.221 14.2699 12.2102C14.2942 12.1996 14.3162 12.1833 14.3341 12.1627C14.3548 12.1423 14.3713 12.1176 14.3827 12.0901C14.3942 12.0627 14.4003 12.0331 14.4007 12.0031V6.95522C14.3986 6.89711 14.3761 6.84185 14.3375 6.80082C14.299 6.75967 14.2473 6.7356 14.1929 6.7334H2.26044C2.20456 6.7334 2.15086 6.75644 2.11062 6.79772C2.07025 6.83913 2.04662 6.89556 2.04443 6.95522V14.8596C2.04443 15.034 2.07668 15.2066 2.13947 15.3676C2.20226 15.5286 2.29414 15.6747 2.41002 15.7975C2.52591 15.9203 2.66337 16.0175 2.81452 16.0835C2.96568 16.1494 3.12763 16.1826 3.29091 16.1815H9.66424C9.71939 16.1815 9.77212 16.1582 9.81116 16.1165C9.85007 16.075 9.87201 16.0185 9.87201 15.9598V13.3249Z" fill="#514AF3"/>
<path d="M8.83274 5.18092C8.82644 5.21341 8.82716 5.24718 8.8348 5.27941C8.84244 5.31163 8.85674 5.34166 8.87662 5.36728C8.89662 5.39277 8.92171 5.41322 8.95008 5.42707C8.97844 5.44092 9.00935 5.44765 9.04051 5.447H13.4362C13.4767 5.44713 13.5164 5.43458 13.5504 5.41102C13.5843 5.38734 13.6111 5.35356 13.6273 5.31396C13.6488 5.27824 13.6602 5.23657 13.6602 5.19412C13.6602 5.15168 13.6488 5.11013 13.6273 5.07441L11.1843 2.50164C10.9636 2.26391 10.6666 2.1244 10.3534 2.11133H9.04051C8.98535 2.11133 8.9325 2.13475 8.89359 2.17629C8.85456 2.21784 8.83274 2.27426 8.83274 2.33315V5.18092Z" fill="#514AF3"/>
<path d="M7.40291 5.44685C7.45807 5.44685 7.51092 5.42342 7.54983 5.38188C7.58886 5.34021 7.61068 5.28379 7.61068 5.22503V2.35059C7.61068 2.29184 7.58886 2.23541 7.54983 2.19387C7.51092 2.1522 7.45807 2.12891 7.40291 2.12891H6.09838C5.786 2.13874 5.48902 2.27515 5.26744 2.51029L2.87426 5.03867C2.8448 5.06896 2.82443 5.10778 2.81546 5.15049C2.80662 5.19306 2.80977 5.23746 2.82444 5.27822C2.83413 5.32183 2.85607 5.36131 2.88723 5.39146C2.91838 5.42148 2.95729 5.4409 2.99899 5.44685H7.40291Z" fill="#514AF3"/>
<path d="M14.1586 18.754C14.277 18.6361 14.4329 18.5704 14.5949 18.5704C14.7568 18.5704 14.9127 18.6361 15.0311 18.754C15.5113 19.3235 16.104 19.7719 16.7666 20.0665C17.4292 20.3612 18.1449 20.4946 18.8618 20.4572C19.0278 20.4325 19.1917 20.3939 19.352 20.3419C19.386 20.3323 19.4169 20.3133 19.4416 20.2867C19.4665 20.2602 19.4843 20.2272 19.4934 20.1911L20.1581 17.7336C20.1748 17.6689 20.1775 17.6009 20.166 17.5347C20.1545 17.4687 20.129 17.4062 20.0916 17.3523C20.0534 17.2966 20.0033 17.2514 19.9455 17.2206C19.8877 17.1898 19.8238 17.1741 19.7592 17.1748H10.1035C9.96742 17.1746 9.83336 17.21 9.71311 17.2781C9.59286 17.3462 9.49007 17.4448 9.41394 17.5651C9.33794 17.6886 9.29212 17.8303 9.28049 17.9775C9.26897 18.1247 9.29188 18.2727 9.3474 18.4079C9.3474 18.4079 9.3474 18.3015 10.1783 20.3064C10.1894 20.3362 10.2074 20.3625 10.2307 20.3826C10.254 20.403 10.2817 20.4163 10.3113 20.4217L10.4859 20.4661C11.179 20.4921 11.8688 20.3518 12.5045 20.0555C13.14 19.7593 13.7054 19.3145 14.1586 18.754Z" fill="#E69F69"/>
<path d="M20.1261 12.5445C20.1426 12.3673 20.0936 12.1903 19.9896 12.0511C19.8856 11.9119 19.7348 11.8215 19.5694 11.7993H19.3368C19.2816 11.7993 19.2288 11.7759 19.1898 11.7343C19.1509 11.6928 19.129 11.6364 19.129 11.5775V10.6194C19.129 10.4452 19.0643 10.2783 18.9489 10.1552C18.8336 10.032 18.6772 9.96289 18.5141 9.96289C18.351 9.96289 18.1947 10.032 18.0793 10.1552C17.964 10.2783 17.8993 10.4452 17.8993 10.6194V11.5687C17.8993 11.6274 17.8773 11.6839 17.8384 11.7254C17.7994 11.7671 17.7465 11.7904 17.6915 11.7904H16.1708C16.0039 11.8105 15.851 11.9 15.7452 12.0394C15.6395 12.1789 15.5895 12.3571 15.6058 12.5357V15.96C15.6058 15.9891 15.6112 16.018 15.6216 16.0449C15.632 16.0718 15.6473 16.0963 15.6667 16.1168C15.686 16.1374 15.7089 16.1537 15.7341 16.165C15.7592 16.1761 15.7862 16.1818 15.8135 16.1818H19.8935C19.9485 16.1818 20.0014 16.1584 20.0404 16.1168C20.0793 16.0753 20.1013 16.0189 20.1013 15.96L20.1261 12.5445Z" fill="#E69F69"/>
<path d="M10.3541 22.9504C10.509 22.9595 10.6644 22.9595 10.8194 22.9504C12.1638 22.9119 13.4526 22.3684 14.4589 21.4157C14.4954 21.3807 14.5428 21.3615 14.5919 21.3615C14.6409 21.3615 14.6883 21.3807 14.7248 21.4157C15.3031 21.9651 15.9798 22.3836 16.7139 22.6459C17.448 22.9081 18.2243 23.0088 18.9958 22.9416C19.5812 22.8694 20.144 22.6583 20.6429 22.3237C21.142 21.989 21.5643 21.5393 21.8793 21.0076C21.9224 20.9343 21.9515 20.8525 21.965 20.7671C21.9785 20.6816 21.9762 20.5942 21.958 20.5098C21.94 20.4253 21.9064 20.3456 21.8593 20.2749C21.8123 20.2044 21.7528 20.1443 21.6841 20.0982C21.6152 20.0523 21.5387 20.0211 21.4587 20.0067C21.3787 19.9923 21.2968 19.9948 21.2177 20.0143C21.1386 20.0335 21.0639 20.0694 20.9977 20.1196C20.9317 20.1698 20.8754 20.2334 20.8323 20.3067C20.6159 20.6744 20.3238 20.9846 19.9782 21.2137C19.6326 21.4427 19.2426 21.5846 18.838 21.6286C18.1211 21.666 17.4055 21.5325 16.7429 21.2379C16.0803 20.9433 15.4875 20.4949 15.0073 19.9253C14.8923 19.8179 14.7446 19.7588 14.5919 19.7588C14.4391 19.7588 14.2914 19.8179 14.1764 19.9253C13.723 20.4852 13.1576 20.929 12.5218 21.2239C11.886 21.5187 11.1963 21.657 10.5036 21.6286C10.0685 21.5855 9.64845 21.4368 9.27547 21.1939C8.90248 20.951 8.58635 20.6202 8.35143 20.2269C8.27434 20.0981 8.15761 20.002 8.02136 19.9552C7.88499 19.9084 7.73771 19.914 7.60474 19.9706C7.47188 20.0275 7.3617 20.1319 7.29321 20.2662C7.22472 20.4004 7.20218 20.556 7.22969 20.706C7.53225 21.3299 7.97699 21.8626 8.52295 22.2547C9.06904 22.6469 9.69863 22.8862 10.3541 22.9504Z" fill="#514AF3"/>
<path d="M11.6591 13.5469C11.5828 13.5514 11.5078 13.572 11.439 13.6074C11.37 13.643 11.3082 13.6926 11.2573 13.7537C11.2064 13.8146 11.1672 13.8857 11.142 13.9629C11.1169 14.0401 11.1063 14.1219 11.1107 14.2034V15.9777C11.1107 16.0366 11.1327 16.093 11.1716 16.1345C11.2105 16.1761 11.2634 16.1995 11.3185 16.1995H14.1935C14.2487 16.1995 14.3015 16.1761 14.3404 16.1345C14.3795 16.093 14.4013 16.0366 14.4013 15.9777V13.7687C14.4013 13.7099 14.3795 13.6535 14.3404 13.6118C14.3015 13.5703 14.2487 13.5469 14.1935 13.5469H11.6591Z" fill="#E69F69"/>
</svg>
