<svg width="25" height="24" viewBox="0 0 25 24" fill="none" xmlns="http://www.w3.org/2000/svg">
<path d="M13.9508 5.81152H11.6638C11.0673 5.81152 10.582 6.28046 10.582 6.85603V12.6577V15.6224H15.0277V13.5897C15.0277 13.5714 15.0318 13.5539 15.0318 13.5349V6.85603C15.0326 6.28046 14.5445 5.81152 13.9508 5.81152Z" fill="#514AF3"/>
<path d="M9.06463 6.30665H7.1306C6.37772 6.30665 5.76147 6.93306 5.76147 7.6984V11.4588V15.6219H10.1138V12.6726V6.89966C10.1138 6.87132 10.1138 6.84367 10.1185 6.81612C9.98691 6.65528 9.82475 6.52665 9.64291 6.43875C9.46116 6.35085 9.26401 6.30586 9.06463 6.30665Z" fill="#514AF3"/>
<path d="M18.9261 12.6611L18.891 10.4407V10.0615H18.8855L18.8713 9.1879C18.8713 8.42057 18.2618 7.79297 17.523 7.79297H16.4719C16.1115 7.79257 15.7654 7.94509 15.509 8.21741V10.0585H15.5015V13.6687C15.5015 13.6846 15.4981 13.7 15.4961 13.716H15.5015V15.6218H18.891V12.6662L18.9261 12.6611Z" fill="#514AF3"/>
<path d="M14.5863 3.40506C14.5863 3.37216 14.5863 3.30695 14.5863 3.24264C14.5763 2.85982 14.4552 2.48988 14.2398 2.18396C14.0243 1.87794 13.7253 1.6513 13.384 1.53515C13.0426 1.41901 12.6759 1.41931 12.3347 1.53585C11.9935 1.65249 11.6947 1.87962 11.4796 2.18584C11.1757 2.61474 11.1196 3.1036 11.1374 3.6209C11.1456 3.90661 11.2156 4.18627 11.3418 4.43818C11.468 4.69009 11.6471 4.90731 11.865 5.07281C12.0829 5.23841 12.3336 5.34781 12.5977 5.39251C12.8617 5.4372 13.1318 5.41599 13.3868 5.33047C13.9975 5.12474 14.6334 4.46761 14.5863 3.40506ZM10.205 4.19687C10.205 4.16763 10.205 4.11343 10.205 4.06001C10.1985 3.69562 10.0854 3.34263 9.88152 3.05058C9.67749 2.75854 9.39309 2.5422 9.06812 2.432C8.74315 2.32181 8.39405 2.32329 8.06991 2.43627C7.74587 2.54924 7.46304 2.76805 7.26134 3.06188C6.96487 3.48484 6.91902 3.96854 6.94779 4.47207C7.01007 5.53897 7.98832 6.29639 8.9597 6.04389C9.58885 5.88077 10.2426 5.24405 10.205 4.19687Z" fill="#E69F69"/>
<path d="M14.5864 3.40496C14.6323 4.46751 13.9963 5.12464 13.3843 5.33037C13.1292 5.41589 12.8591 5.4371 12.595 5.3924C12.3311 5.34771 12.0803 5.2383 11.8624 5.07271C11.6446 4.90721 11.4655 4.68999 11.3393 4.43807C11.213 4.18616 11.143 3.9065 11.1348 3.6208C11.1197 3.1035 11.1759 2.61464 11.4771 2.18574C11.6918 1.87833 11.9908 1.65011 12.3325 1.53277C12.6741 1.41544 13.0415 1.41484 13.3836 1.53109C13.7256 1.64733 14.0252 1.87467 14.2408 2.18138C14.4564 2.48809 14.5772 2.85902 14.5864 3.24254C14.5864 3.30547 14.5864 3.37206 14.5864 3.40496Z" fill="#E69F69"/>
<path d="M10.2046 4.19692C10.2442 5.24421 9.58842 5.88013 8.96002 6.04404C7.98855 6.29655 7.0103 5.53913 6.94801 4.47212C6.91859 3.9687 6.96509 3.48489 7.26157 3.06194C7.46327 2.76821 7.7461 2.54939 8.07023 2.43642C8.39436 2.32345 8.74347 2.32196 9.06843 2.43216C9.39331 2.54226 9.67781 2.75859 9.88174 3.05064C10.0857 3.34269 10.1988 3.69578 10.2052 4.06017C10.2046 4.11061 10.2046 4.16769 10.2046 4.19692Z" fill="#E69F69"/>
<path d="M15.3916 5.99803C15.3698 5.6377 15.4805 5.28263 15.7001 5.00822C15.9196 4.73391 16.2306 4.56197 16.567 4.52917C16.9033 4.49637 17.2384 4.60518 17.5008 4.83252C17.7631 5.05985 17.9322 5.38777 17.9718 5.74631C18.0217 6.26807 17.9437 6.7496 17.5611 7.11547C17.1558 7.50117 16.6841 7.59403 16.1857 7.37016C15.6874 7.14619 15.4286 6.73424 15.3943 6.15896C15.3888 6.10555 15.3916 6.05144 15.3916 5.99803Z" fill="#E69F69"/>
<path d="M12.3626 17.3453L12.363 17.3459L12.3635 17.3464C12.421 17.41 12.49 17.4607 12.5663 17.4953C12.6426 17.5298 12.7246 17.5477 12.8074 17.5477C12.8903 17.5477 12.9723 17.5298 13.0486 17.4953C13.1249 17.4607 13.1939 17.41 13.2514 17.3464L13.2519 17.3459L13.2523 17.3453L15.265 15.0933C15.4997 14.8414 15.6544 14.5171 15.7074 14.1662C15.7606 13.8144 15.7088 13.4537 15.5593 13.1351C15.447 12.8946 15.2827 12.6858 15.0801 12.5265C14.8775 12.367 14.6422 12.2613 14.3938 12.2182C14.1453 12.1751 13.8909 12.1958 13.6514 12.2785C13.4119 12.3613 13.1943 12.5037 13.0166 12.6941C13.0165 12.6941 13.0165 12.6941 13.0165 12.6942L12.8074 12.9177L12.5983 12.6941C12.3005 12.3756 11.8964 12.1965 11.4751 12.1965C11.0537 12.1965 10.6496 12.3756 10.3518 12.6941C10.054 13.0126 9.88672 13.4445 9.88672 13.8947C9.88672 14.344 10.0532 14.775 10.3499 15.0933L12.3626 17.3453Z" fill="#E69F69"/>
<path d="M12.5983 12.6941L12.8074 12.9177L13.0165 12.6942C13.0165 12.6941 13.0165 12.6941 13.0166 12.6941C13.1943 12.5037 13.4119 12.3613 13.6514 12.2785C13.8909 12.1958 14.1453 12.1751 14.3938 12.2182C14.6422 12.2613 14.8775 12.367 15.0801 12.5265C15.2827 12.6858 15.447 12.8946 15.5593 13.1351C15.7088 13.4537 15.7606 13.8144 15.7074 14.1662C15.6544 14.5171 15.4997 14.8414 15.265 15.0933L13.2523 17.3453L13.2519 17.3459L13.2514 17.3464C13.1939 17.41 13.1249 17.4607 13.0486 17.4953C12.9723 17.5298 12.8903 17.5477 12.8074 17.5477C12.7246 17.5477 12.6426 17.5298 12.5663 17.4953C12.49 17.4607 12.421 17.41 12.3635 17.3464L12.363 17.3459L12.3626 17.3453L10.3499 15.0933C10.0532 14.775 9.88672 14.344 9.88672 13.8947C9.88672 13.4445 10.054 13.0126 10.3518 12.6941C10.6496 12.3756 11.0537 12.1965 11.4751 12.1965C11.8964 12.1965 12.3005 12.3756 12.5983 12.6941ZM12.5983 12.6941L12.434 12.8691" stroke="white" stroke-width="0.2"/>
<path d="M7.37212 17.2519L7.37759 17.2633L7.38381 17.2742L8.40931 19.072L8.41014 19.0734L8.41089 19.0748C8.41451 19.081 8.41692 19.0879 8.41803 19.0951C8.41915 19.1024 8.41896 19.1098 8.41738 19.1169C8.4158 19.1241 8.41293 19.1308 8.40893 19.1366C8.40634 19.1404 8.40337 19.1438 8.40002 19.1467C8.38833 19.1516 8.37543 19.1522 8.36327 19.1484C8.3486 19.1439 8.33607 19.1333 8.32855 19.1188L8.3253 19.1125L8.32178 19.1062L7.30937 17.3267C7.18814 17.0706 7.13161 16.7851 7.14535 16.4983C7.15918 16.2082 7.24449 15.9273 7.39244 15.6839C7.46828 15.5621 7.50838 15.4189 7.50754 15.2726V12.9571C7.50754 12.5454 7.35457 12.1505 7.08214 11.8593C6.80971 11.568 6.44009 11.4043 6.0546 11.4043C5.66911 11.4043 5.2995 11.568 5.02697 11.8593C4.75454 12.1505 4.60157 12.5454 4.60157 12.9571V17.0933C4.59971 17.9961 4.88765 18.8723 5.41757 19.5755L7.40572 22.2705L7.40581 22.2706C7.47106 22.3593 7.55423 22.431 7.6491 22.4806C7.74405 22.5301 7.8482 22.5561 7.95383 22.5566H7.95457H7.95522H10.9498C11.1359 22.5566 11.3142 22.4776 11.4456 22.3371C11.5769 22.1966 11.6507 22.0062 11.6507 21.8078V19.389C11.6517 18.6035 11.4323 17.8357 11.0208 17.1848L11.0055 17.1606L10.9868 17.1395C10.8113 16.943 10.6508 16.7588 10.5017 16.5874C10.4857 16.5691 10.4699 16.5508 10.4541 16.5328C10.3234 16.3825 10.2008 16.2415 10.0859 16.1125C9.83124 15.8263 9.59947 15.5813 9.37725 15.4048C9.15327 15.227 8.91212 15.0966 8.63876 15.0797C8.36234 15.0627 8.10467 15.1646 7.8533 15.3412C7.56565 15.5388 7.35699 15.8436 7.26788 16.1963C7.17858 16.5497 7.2158 16.9261 7.37212 17.2519Z" fill="#514AF3" stroke="white" stroke-width="0.2"/>
<path d="M17.9494 15.3444L17.948 15.3434L17.9466 15.3424C17.6947 15.1651 17.4365 15.0627 17.1593 15.0797C16.8861 15.0966 16.6449 15.227 16.4209 15.4048C16.1987 15.5813 15.967 15.8263 15.7123 16.1125C15.5973 16.2415 15.4747 16.3825 15.344 16.5328C15.3283 16.5508 15.3125 16.5691 15.2965 16.5874C15.1473 16.7588 14.9868 16.943 14.8114 17.1395L14.7926 17.1606L14.7774 17.1848C14.3659 17.8357 14.1465 18.6034 14.1475 19.3889V21.8078C14.1475 22.0062 14.2212 22.1966 14.3526 22.3371C14.484 22.4776 14.6623 22.5566 14.8484 22.5566H17.843H17.8436H17.8443C17.95 22.5561 18.0541 22.5301 18.1491 22.4806C18.2439 22.431 18.327 22.3593 18.3923 22.2707L18.3924 22.2705L20.3806 19.5755C20.9105 18.8722 21.1985 17.996 21.1965 17.0932V17.0929V12.9571C21.1965 12.5454 21.0436 12.1505 20.7711 11.8593C20.4987 11.568 20.1291 11.4043 19.7436 11.4043C19.3581 11.4043 18.9885 11.568 18.7161 11.8593C18.4436 12.1505 18.2907 12.5454 18.2907 12.9571V15.2726C18.2898 15.4189 18.3298 15.5621 18.4058 15.6839C18.5537 15.9273 18.639 16.2082 18.6528 16.4983C18.6666 16.7854 18.6099 17.0712 18.4885 17.3275L17.4767 19.1276C17.4686 19.1411 17.4562 19.1506 17.4419 19.1545C17.4283 19.1581 17.414 19.1564 17.4015 19.1495C17.3968 19.146 17.3927 19.1417 17.3893 19.1366C17.3853 19.1308 17.3824 19.1241 17.3808 19.1169C17.3792 19.1098 17.379 19.1024 17.3801 19.0951C17.3812 19.0879 17.3836 19.081 17.3872 19.0748L17.3891 19.0716L17.3908 19.0685L18.389 17.2706L18.3929 17.2636L18.3966 17.2563C18.5563 16.9348 18.5989 16.5617 18.5164 16.2086C18.4339 15.8557 18.2319 15.5477 17.9494 15.3444Z" fill="#514AF3" stroke="white" stroke-width="0.2"/>
</svg>
