<svg width="25" height="25" viewBox="0 0 25 25" fill="none" xmlns="http://www.w3.org/2000/svg">
<path d="M14.1534 9.90781C15.0833 9.94235 16.0095 9.76445 16.8697 9.38594L16.871 9.38534L16.8724 9.38464C16.9192 9.36086 16.9705 9.34844 17.0224 9.34844C17.0743 9.34844 17.1256 9.36086 17.1725 9.38464C17.2189 9.40817 17.2594 9.44319 17.2906 9.48683C17.3219 9.53036 17.3429 9.58111 17.3521 9.63504L17.3522 9.6354C17.5516 10.767 17.3026 12.1478 16.8267 13.3687C16.3504 14.5906 15.6524 15.6389 14.9663 16.1125L14.9646 16.1137L14.963 16.1151C14.5717 16.431 14.1135 16.6394 13.6288 16.7222C13.145 16.8048 12.6495 16.7594 12.186 16.5901C11.9188 16.4624 11.683 16.2706 11.4967 16.0297L11.4962 16.029L11.4955 16.0283C11.4397 15.9604 11.4088 15.8731 11.4088 15.7827C11.4088 15.6923 11.4397 15.605 11.4955 15.5371H11.4956L11.4965 15.536C12.2734 14.5441 13.2907 13.7989 14.4376 13.3815C14.496 13.3664 14.5512 13.3393 14.5998 13.3015C14.6492 13.2632 14.691 13.2148 14.7227 13.1591C14.7544 13.1034 14.7753 13.0416 14.7843 12.9771C14.7932 12.9129 14.7903 12.8473 14.7752 12.7843C14.7612 12.7222 14.7357 12.6635 14.7003 12.6121C14.6647 12.5604 14.62 12.5167 14.5684 12.4838C14.5169 12.4508 14.4598 12.4292 14.4004 12.4201C14.3411 12.411 14.2807 12.4145 14.2228 12.4306C13.1694 12.7017 12.0993 13.5102 11.1677 14.4778C10.2348 15.4465 9.43521 16.5807 8.92324 17.5123H8.92313C8.84912 17.6475 8.72769 17.7457 8.58565 17.7854C8.44362 17.8251 8.29261 17.803 8.16586 17.724C8.03911 17.645 7.94705 17.5155 7.90982 17.3641C7.87259 17.2129 7.8932 17.0521 7.9671 16.9172C8.59385 15.8327 9.32597 14.8216 10.1512 13.9005C10.2143 13.8321 10.2568 13.745 10.2732 13.6505C10.2896 13.5559 10.2791 13.458 10.243 13.3699L10.2426 13.3687C10.0617 12.9527 10.0173 12.484 10.1163 12.0379C10.2417 11.6109 10.4648 11.2239 10.7656 10.9119C11.0669 10.5994 11.4365 10.3722 11.841 10.2506L11.842 10.2504L11.8428 10.25C12.5889 9.99558 13.3706 9.8799 14.1534 9.90781ZM20.8508 12.7833V12.7812V12.7791C20.7805 10.7097 20.4729 8.65718 19.9349 6.66749C19.8398 6.28721 19.7524 5.89852 19.6651 5.50877L20.2139 4.3297C20.214 4.32958 20.214 4.32958 20.2141 4.32946C20.3123 4.12376 20.3592 3.89464 20.3504 3.66399C20.3415 3.43333 20.277 3.20894 20.1631 3.01247L20.163 3.01223C20.0483 2.81647 19.8888 2.65489 19.6995 2.54299C19.5102 2.43098 19.2973 2.37219 19.0808 2.37207H6.33435C6.11786 2.37219 5.90492 2.43098 5.71569 2.54299C5.52634 2.65489 5.3668 2.81647 5.25213 3.01223L5.25202 3.01247C5.13813 3.20894 5.07364 3.43333 5.06478 3.66399C5.05592 3.89464 5.10289 4.12376 5.20105 4.32946C5.20117 4.32958 5.20117 4.32958 5.20128 4.3297L5.75003 5.50877C5.66273 5.8984 5.57531 6.28744 5.48025 6.67625C4.94158 8.66286 4.63402 10.7125 4.56433 12.7791V12.7812V12.7833C4.63402 14.8499 4.94158 16.8996 5.48025 18.8862C5.57531 19.275 5.66273 19.664 5.75003 20.0536L5.20128 21.2327C5.20117 21.2328 5.20117 21.2328 5.20105 21.233C5.10289 21.4387 5.05592 21.6678 5.06478 21.8984C5.07364 22.1291 5.13813 22.3535 5.25202 22.5499L5.25213 22.5502C5.3668 22.7459 5.52634 22.9075 5.71569 23.0194C5.90492 23.1314 6.11786 23.1902 6.33435 23.1903H19.0808C19.2973 23.1902 19.5102 23.1314 19.6995 23.0194C19.8888 22.9075 20.0483 22.7459 20.163 22.5502L20.1631 22.5499C20.277 22.3535 20.3415 22.1291 20.3504 21.8984C20.3592 21.6678 20.3123 21.4387 20.2141 21.233C20.214 21.2328 20.214 21.2328 20.2139 21.2327L19.6651 20.0536C19.7524 19.664 19.8398 19.275 19.9349 18.8862C20.4736 16.8996 20.7811 14.8499 20.8508 12.7833Z" fill="#514AF3"/>
<path d="M14.1534 9.90781C15.0833 9.94235 16.0095 9.76445 16.8697 9.38594L16.871 9.38534L16.8724 9.38464C16.9192 9.36086 16.9705 9.34844 17.0224 9.34844C17.0743 9.34844 17.1256 9.36086 17.1725 9.38464C17.2189 9.40817 17.2594 9.44319 17.2906 9.48683C17.3219 9.53036 17.3429 9.58111 17.3521 9.63504L17.3522 9.6354C17.5516 10.767 17.3026 12.1478 16.8267 13.3687C16.3504 14.5906 15.6524 15.6389 14.9663 16.1125L14.9646 16.1137L14.963 16.1151C14.5717 16.431 14.1135 16.6394 13.6288 16.7222C13.145 16.8048 12.6495 16.7594 12.186 16.5901C11.9188 16.4624 11.683 16.2706 11.4967 16.0297L11.4962 16.029L11.4955 16.0283C11.4397 15.9604 11.4088 15.8731 11.4088 15.7827C11.4088 15.6923 11.4397 15.605 11.4955 15.5371H11.4956L11.4965 15.536C12.2734 14.5441 13.2907 13.7989 14.4376 13.3815C14.496 13.3664 14.5512 13.3393 14.5998 13.3015C14.6492 13.2632 14.691 13.2148 14.7227 13.1591C14.7544 13.1034 14.7753 13.0416 14.7843 12.9771C14.7932 12.9129 14.7903 12.8473 14.7752 12.7843C14.7612 12.7222 14.7357 12.6635 14.7003 12.6121C14.6647 12.5604 14.62 12.5167 14.5684 12.4838C14.5169 12.4508 14.4598 12.4292 14.4004 12.4201C14.3411 12.411 14.2807 12.4145 14.2228 12.4306C13.1694 12.7017 12.0993 13.5102 11.1677 14.4778C10.2348 15.4465 9.43521 16.5807 8.92324 17.5123H8.92313C8.84912 17.6475 8.72769 17.7457 8.58565 17.7854C8.44362 17.8251 8.29261 17.803 8.16586 17.724C8.03911 17.645 7.94705 17.5155 7.90982 17.3641C7.87259 17.2129 7.8932 17.0521 7.9671 16.9172C8.59385 15.8327 9.32597 14.8216 10.1512 13.9005C10.2143 13.8321 10.2568 13.745 10.2732 13.6505C10.2896 13.5559 10.2791 13.458 10.243 13.3699L10.2426 13.3687C10.0617 12.9527 10.0173 12.484 10.1163 12.0379C10.2417 11.6109 10.4648 11.2239 10.7656 10.9119C11.0669 10.5994 11.4365 10.3722 11.841 10.2506L11.842 10.2504L11.8428 10.25C12.5889 9.99558 13.3706 9.8799 14.1534 9.90781ZM14.1534 9.90781L14.1553 9.84867M20.8508 12.7833V12.7812V12.7791C20.7805 10.7097 20.4729 8.65718 19.9349 6.66749C19.8398 6.28721 19.7524 5.89852 19.6651 5.50877L20.2139 4.3297C20.214 4.32958 20.214 4.32958 20.2141 4.32946C20.3123 4.12376 20.3592 3.89464 20.3504 3.66399C20.3415 3.43333 20.277 3.20894 20.1631 3.01247L20.163 3.01223C20.0483 2.81647 19.8888 2.65489 19.6995 2.54299C19.5102 2.43098 19.2973 2.37219 19.0808 2.37207H6.33435C6.11786 2.37219 5.90492 2.43098 5.71569 2.54299C5.52634 2.65489 5.3668 2.81647 5.25213 3.01223L5.25202 3.01247C5.13813 3.20894 5.07364 3.43333 5.06478 3.66399C5.05592 3.89464 5.10289 4.12376 5.20105 4.32946C5.20117 4.32958 5.20117 4.32958 5.20128 4.3297L5.75003 5.50877C5.66273 5.8984 5.57531 6.28744 5.48025 6.67625C4.94158 8.66286 4.63402 10.7125 4.56433 12.7791V12.7812V12.7833C4.63402 14.8499 4.94158 16.8996 5.48025 18.8862C5.57531 19.275 5.66273 19.664 5.75003 20.0536L5.20128 21.2327C5.20117 21.2328 5.20117 21.2328 5.20105 21.233C5.10289 21.4387 5.05592 21.6678 5.06478 21.8984C5.07364 22.1291 5.13813 22.3535 5.25202 22.5499L5.25213 22.5502C5.3668 22.7459 5.52634 22.9075 5.71569 23.0194C5.90492 23.1314 6.11786 23.1902 6.33435 23.1903H19.0808C19.2973 23.1902 19.5102 23.1314 19.6995 23.0194C19.8888 22.9075 20.0483 22.7459 20.163 22.5502L20.1631 22.5499C20.277 22.3535 20.3415 22.1291 20.3504 21.8984C20.3592 21.6678 20.3123 21.4387 20.2141 21.233C20.214 21.2328 20.214 21.2328 20.2139 21.2327L19.6651 20.0536C19.7524 19.664 19.8398 19.275 19.9349 18.8862C20.4736 16.8996 20.7811 14.8499 20.8508 12.7833Z" stroke="white"/>
<path d="M13.7968 9.05932L13.7949 9.0592H13.793C12.3751 9.0469 11.3639 9.35551 10.7018 9.6705C10.371 9.82782 10.128 9.98644 9.96546 10.1065C9.88425 10.1666 9.82332 10.2167 9.78188 10.252C9.76792 10.2639 9.75562 10.2747 9.74621 10.2829C9.74421 10.2845 9.74244 10.2862 9.74067 10.2876L9.72139 10.303C9.24443 10.6809 8.85665 11.1727 8.58887 11.7392C8.32119 12.3054 8.18082 12.9307 8.17894 13.5651C8.17196 14.0949 8.26303 14.6209 8.44683 15.1129C8.45503 15.1355 8.45702 15.1603 8.45281 15.1842C8.4486 15.2082 8.43819 15.2304 8.42268 15.2484L8.42213 15.249L7.22313 16.6625C7.17095 16.7184 7.12951 16.7847 7.10115 16.8575C7.07234 16.9315 7.0575 17.0107 7.0575 17.0907C7.0575 17.1708 7.07234 17.25 7.10115 17.3238C7.12995 17.3977 7.17206 17.4648 7.22524 17.5212L7.22612 17.5222L7.22701 17.523C7.32705 17.6245 7.45834 17.6836 7.59628 17.6892C7.73411 17.6949 7.86916 17.6465 7.97619 17.5534L7.97807 17.5516L7.97995 17.5499C8.16043 17.3778 8.36086 17.1356 8.60094 16.8456C9.46136 15.806 10.8306 14.1518 13.6157 12.9038C13.6582 12.8849 13.7036 12.875 13.7495 12.8749C13.7953 12.8746 13.8409 12.8841 13.8833 12.9027C13.9259 12.9212 13.9645 12.9486 13.9971 12.9831C14.0298 13.0178 14.0557 13.0588 14.0734 13.1041C14.0913 13.1494 14.1005 13.198 14.1007 13.2472C14.1009 13.2963 14.092 13.345 14.0746 13.3905C14.0573 13.436 14.0317 13.4773 13.9993 13.5122C13.9671 13.547 13.9288 13.5745 13.8866 13.5936C12.4386 14.2256 11.1193 15.1525 10.002 16.3229L10.0009 16.3241L9.9997 16.3254L9.89013 16.4474L9.8878 16.4499L9.88569 16.4526C9.85135 16.4958 9.82675 16.5468 9.8139 16.6018C9.80138 16.6553 9.80038 16.7111 9.8108 16.765C9.81822 16.8172 9.83639 16.8669 9.86376 16.9109C9.89157 16.9556 9.92846 16.9931 9.97156 17.0208C10.5721 17.4225 11.2665 17.635 11.9749 17.6337H11.9759L11.9769 17.6336C12.9196 17.6137 13.8429 17.3435 14.6635 16.8474C18.7174 14.4492 18.3408 9.84296 18.1298 8.50385C18.1141 8.4026 18.0748 8.30726 18.0153 8.22683C17.9561 8.14663 17.8789 8.0837 17.791 8.04396C17.7001 8.00019 17.6002 7.98268 17.501 7.99321C17.4027 8.00374 17.3088 8.04147 17.2284 8.10263C16.1995 8.78064 15.0043 9.11385 13.7968 9.05932Z" fill="#E69F69" stroke="white" stroke-width="0.5"/>
</svg>
