<svg width="25" height="24" viewBox="0 0 25 24" fill="none" xmlns="http://www.w3.org/2000/svg">
<path fill-rule="evenodd" clip-rule="evenodd" d="M20.3457 5.59559C20.3457 6.15513 19.8834 6.64478 19.355 6.64478H16.053C15.5246 6.64478 15.0623 6.15513 15.0623 5.59559V4.75623C15.0623 4.19669 15.5246 3.70703 16.053 3.70703H19.355C19.8834 3.70703 20.3457 4.19669 20.3457 4.75623V5.59559ZM19.322 10.6755C19.8504 10.6755 20.3127 10.1859 20.3127 9.62623V8.78697C20.3127 8.22734 19.8504 7.73768 19.322 7.73768H16.0199C15.4916 7.73768 15.0293 8.22734 15.0293 8.78697V9.62623C15.0293 10.1859 15.4916 10.6755 16.0199 10.6755H19.322ZM20.3457 13.6067C20.3457 14.1663 19.8834 14.656 19.355 14.656H16.053C15.5246 14.656 15.0623 14.1663 15.0623 13.6067V12.7674C15.0623 12.2078 15.5246 11.7182 16.053 11.7182H19.355C19.8834 11.7182 20.3457 12.2078 20.3457 12.7674V13.6067ZM9.77893 6.64488C10.3072 6.64488 10.7695 6.15522 10.7695 5.59559V4.75632C10.7695 4.19669 10.3072 3.70703 9.77893 3.70703H6.47679C5.94842 3.70703 5.48612 4.19669 5.48612 4.75632V5.59559C5.48612 6.15522 5.94842 6.64488 6.47679 6.64488H9.77893ZM10.7365 9.62633C10.7365 10.1859 10.2742 10.6755 9.74584 10.6755H6.44379C5.91542 10.6755 5.45312 10.1859 5.45312 9.62633V8.78697C5.45312 8.22743 5.91542 7.73777 6.44379 7.73777H9.74584C10.2742 7.73777 10.7365 8.22743 10.7365 8.78697V9.62633ZM9.77893 14.656C10.3072 14.656 10.7695 14.1664 10.7695 13.6068V12.7674C10.7695 12.2079 10.3072 11.7182 9.77893 11.7182H6.47679C5.94842 11.7182 5.48612 12.2079 5.48612 12.7674V13.6068C5.48612 14.1664 5.94842 14.656 6.47679 14.656H9.77893Z" fill="#514AF3"/>
<path d="M13.1238 2.32617C13.1238 2.32617 13.2239 12.6591 12.7671 14.9889C12.3658 17.0359 10.2256 18.1308 10.2256 18.1308" stroke="#E69F69" stroke-width="0.5" stroke-linecap="round" stroke-linejoin="round"/>
<path d="M13.212 19.7973L12.0527 19.1309" stroke="#E69F69" stroke-width="0.5" stroke-linecap="round" stroke-linejoin="round"/>
<path d="M10.2327 21.6743L10.2284 20.2686" stroke="#E69F69" stroke-width="0.5" stroke-linecap="round" stroke-linejoin="round"/>
<path d="M7.23645 19.8684L8.40458 19.2197" stroke="#E69F69" stroke-width="0.5" stroke-linecap="round" stroke-linejoin="round"/>
<path d="M7.14661 16.4512L8.3447 17.0343" stroke="#E69F69" stroke-width="0.5" stroke-linecap="round" stroke-linejoin="round"/>
</svg>
