<svg width="25" height="24" viewBox="0 0 25 24" fill="none" xmlns="http://www.w3.org/2000/svg">
<g clip-path="url(#clip0_7_945)">
<path fill-rule="evenodd" clip-rule="evenodd" d="M22.356 15.6043C21.5538 15.6882 20.3011 15.7738 18.5315 15.7738C16.7619 15.7738 15.5092 15.6882 14.707 15.6043C13.8626 15.5162 13.2183 14.6946 13.1533 13.6404C13.0883 12.5902 13.0205 10.9236 13.0205 8.54704C13.0205 6.17054 13.0883 4.50391 13.1533 3.45367C13.2183 2.39946 13.8626 1.57792 14.707 1.48979C15.5092 1.40588 16.7619 1.32031 18.5315 1.32031C20.3011 1.32031 21.5538 1.40588 22.356 1.48979C23.2004 1.57792 23.8447 2.39946 23.9097 3.45367C23.9747 4.50391 24.0425 6.17054 24.0425 8.54704C24.0425 10.9236 23.9747 12.5902 23.9097 13.6404C23.8447 14.6946 23.2004 15.5162 22.356 15.6043ZM16.6673 7.84151C17.904 7.94332 19.159 7.94332 20.3956 7.84151C20.7875 7.80928 21.1184 7.44385 21.1633 6.93056C21.2555 5.87942 21.2555 4.79093 21.1633 3.7398C21.1184 3.22651 20.7875 2.86108 20.3956 2.82885C19.159 2.7269 17.904 2.7269 16.6673 2.82885C16.2755 2.86108 15.9446 3.22651 15.8996 3.7398C15.8075 4.79093 15.8075 5.87942 15.8996 6.93056C15.9446 7.44385 16.2755 7.80928 16.6673 7.84151ZM16.6673 14.2652C17.904 14.3672 19.159 14.3672 20.3956 14.2652C20.7875 14.233 21.1184 13.8676 21.1633 13.3543C21.2555 12.3032 21.2555 11.2147 21.1633 10.1635C21.1184 9.65024 20.7875 9.28481 20.3956 9.25258C19.159 9.15076 17.904 9.15076 16.6673 9.25258C16.2755 9.28481 15.9446 9.65024 15.8996 10.1635C15.8075 11.2147 15.8075 12.3032 15.8996 13.3543C15.9446 13.8676 16.2755 14.233 16.6673 14.2652ZM22.5046 6.45935C22.7168 6.45935 22.889 6.24357 22.889 5.97752C22.889 5.71148 22.7168 5.4957 22.5046 5.4957H22.2482C22.0359 5.4957 21.8637 5.71148 21.8637 5.97752C21.8637 6.24357 22.0359 6.45935 22.2482 6.45935H22.5046ZM22.889 8.54704C22.889 8.81309 22.7168 9.02887 22.5046 9.02887H22.2482C22.0359 9.02887 21.8637 8.81309 21.8637 8.54704C21.8637 8.281 22.0359 8.06522 22.2482 8.06522H22.5046C22.7168 8.06522 22.889 8.281 22.889 8.54704ZM22.5046 11.5984C22.7168 11.5984 22.889 11.3826 22.889 11.1166C22.889 10.8505 22.7168 10.6347 22.5046 10.6347H22.2482C22.0359 10.6347 21.8637 10.8505 21.8637 11.1166C21.8637 11.3826 22.0359 11.5984 22.2482 11.5984H22.5046ZM22.889 13.6861C22.889 13.9521 22.7168 14.1678 22.5046 14.1678H22.2482C22.0359 14.1678 21.8637 13.9521 21.8637 13.6861C21.8637 13.42 22.0359 13.2043 22.2482 13.2043H22.5046C22.7168 13.2043 22.889 13.42 22.889 13.6861ZM22.5046 3.88983C22.7168 3.88983 22.889 3.67418 22.889 3.40801C22.889 3.14196 22.7168 2.92631 22.5046 2.92631H22.2482C22.0359 2.92631 21.8637 3.14196 21.8637 3.40801C21.8637 3.67418 22.0359 3.88983 22.2482 3.88983H22.5046ZM14.174 5.97752C14.174 6.24357 14.3461 6.45935 14.5584 6.45935H14.8148C15.0271 6.45935 15.1993 6.24357 15.1993 5.97752C15.1993 5.71148 15.0271 5.4957 14.8148 5.4957H14.5584C14.3461 5.4957 14.174 5.71148 14.174 5.97752ZM14.5584 9.02887C14.3461 9.02887 14.174 8.81309 14.174 8.54704C14.174 8.281 14.3461 8.06522 14.5584 8.06522H14.8148C15.0271 8.06522 15.1993 8.281 15.1993 8.54704C15.1993 8.81309 15.0271 9.02887 14.8148 9.02887H14.5584ZM14.174 11.1166C14.174 11.3826 14.3461 11.5984 14.5584 11.5984H14.8148C15.0271 11.5984 15.1993 11.3826 15.1993 11.1166C15.1993 10.8505 15.0271 10.6347 14.8148 10.6347H14.5584C14.3461 10.6347 14.174 10.8505 14.174 11.1166ZM14.5584 14.1678C14.3461 14.1678 14.174 13.9521 14.174 13.6861C14.174 13.42 14.3461 13.2043 14.5584 13.2043H14.8148C15.0271 13.2043 15.1993 13.42 15.1993 13.6861C15.1993 13.9521 15.0271 14.1678 14.8148 14.1678H14.5584ZM14.174 3.40801C14.174 3.67418 14.3461 3.88983 14.5584 3.88983H14.8148C15.0271 3.88983 15.1993 3.67418 15.1993 3.40801C15.1993 3.14196 15.0271 2.92631 14.8148 2.92631H14.5584C14.3461 2.92631 14.174 3.14196 14.174 3.40801Z" fill="#E69F69"/>
<path d="M15.0592 20.926C15.1828 20.6864 15.2876 20.2163 15.2876 19.3869C15.2876 18.9607 15.6114 18.6152 16.0105 18.6152C16.4097 18.6152 16.7333 18.9607 16.7333 19.3869C16.7333 20.2917 16.6289 21.0825 16.3255 21.6704C16.1666 21.9784 15.9473 22.2424 15.6554 22.4248C15.3641 22.6069 15.0438 22.6807 14.7219 22.6807C14.2595 22.6807 13.7438 22.4983 13.3437 22.0619C12.9363 21.6176 12.7105 20.9791 12.7105 20.1894C12.7105 20.0707 12.7186 19.9483 12.7328 19.8238C11.5847 20.7533 10.1532 21.305 8.60126 21.305C4.8218 21.305 1.75781 18.0339 1.75781 13.9987C1.75781 9.9636 4.8218 6.69238 8.60126 6.69238C12.3808 6.69238 15.4447 9.9636 15.4447 13.9987C15.4447 14.1901 15.4379 14.3801 15.4243 14.568C15.4243 14.568 15.4242 14.5681 15.4242 14.5682L15.0592 20.926ZM15.0592 20.926C15.0047 21.0316 14.9565 21.0732 14.925 21.0928ZM15.0592 20.926L14.925 21.0928ZM14.925 21.0928C14.8931 21.1127 14.8348 21.1373 14.7219 21.1373C14.605 21.1373 14.4762 21.0907 14.3768 20.9823M14.925 21.0928L14.3768 20.9823ZM14.3768 20.9823C14.2846 20.8818 14.1562 20.6603 14.1562 20.1894C14.1562 19.99 14.2108 19.6849 14.3297 19.2407L14.0993 19.1703M14.3768 20.9823L14.0993 19.1703ZM14.0993 19.1703L14.3297 19.2407C14.4083 18.9473 14.5034 18.6322 14.6088 18.2834C14.6596 18.1152 14.7127 17.9396 14.767 17.7563L14.5385 17.6793L14.0993 19.1703ZM7.39124 10.5594C7.39124 9.84592 7.93299 9.26753 8.60126 9.26753C9.26953 9.26753 9.81128 9.84592 9.81128 10.5594C9.81128 11.2729 9.26953 11.8512 8.60126 11.8512C7.93299 11.8512 7.39124 11.2729 7.39124 10.5594ZM11.8227 12.7068C12.4909 12.7068 13.0327 13.2852 13.0327 13.9987C13.0327 14.7121 12.4909 15.2905 11.8227 15.2905C11.1544 15.2905 10.6126 14.7121 10.6126 13.9987C10.6126 13.2852 11.1544 12.7068 11.8227 12.7068ZM8.60126 18.7298C7.93299 18.7298 7.39124 18.1514 7.39124 17.438C7.39124 16.7245 7.93299 16.1461 8.60126 16.1461C9.26953 16.1461 9.81128 16.7245 9.81128 17.438C9.81128 18.1514 9.26953 18.7298 8.60126 18.7298ZM4.16983 13.9987C4.16983 13.2852 4.71158 12.7068 5.37985 12.7068C6.04812 12.7068 6.58987 13.2852 6.58987 13.9987C6.58987 14.7121 6.04812 15.2905 5.37985 15.2905C4.71158 15.2905 4.16983 14.7121 4.16983 13.9987Z" fill="#514AF3"/>
<path d="M15.0592 20.926C15.1828 20.6864 15.2876 20.2163 15.2876 19.3869C15.2876 18.9607 15.6114 18.6152 16.0105 18.6152C16.4097 18.6152 16.7333 18.9607 16.7333 19.3869C16.7333 20.2917 16.6289 21.0825 16.3255 21.6704C16.1666 21.9784 15.9473 22.2424 15.6554 22.4248C15.3641 22.6069 15.0438 22.6807 14.7219 22.6807C14.2595 22.6807 13.7438 22.4983 13.3437 22.0619C12.9363 21.6176 12.7105 20.9791 12.7105 20.1894C12.7105 20.0707 12.7186 19.9483 12.7328 19.8238C11.5847 20.7533 10.1532 21.305 8.60126 21.305C4.8218 21.305 1.75781 18.0339 1.75781 13.9987C1.75781 9.9636 4.8218 6.69238 8.60126 6.69238C12.3808 6.69238 15.4447 9.9636 15.4447 13.9987C15.4447 14.1901 15.4379 14.3801 15.4243 14.568C15.4243 14.568 15.4242 14.5681 15.4242 14.5682L15.0592 20.926ZM15.0592 20.926C15.0047 21.0316 14.9565 21.0732 14.925 21.0928M15.0592 20.926L14.925 21.0928M14.925 21.0928C14.8931 21.1127 14.8348 21.1373 14.7219 21.1373C14.605 21.1373 14.4762 21.0907 14.3768 20.9823M14.925 21.0928L14.3768 20.9823M14.3768 20.9823C14.2846 20.8818 14.1562 20.6603 14.1562 20.1894C14.1562 19.99 14.2108 19.6849 14.3297 19.2407M14.3768 20.9823L14.0993 19.1703M14.3297 19.2407L14.0993 19.1703M14.3297 19.2407C14.4083 18.9473 14.5034 18.6322 14.6088 18.2834C14.6596 18.1152 14.7127 17.9396 14.767 17.7563L14.5385 17.6793L14.0993 19.1703M7.39124 10.5594C7.39124 9.84592 7.93299 9.26753 8.60126 9.26753C9.26953 9.26753 9.81128 9.84592 9.81128 10.5594C9.81128 11.2729 9.26953 11.8512 8.60126 11.8512C7.93299 11.8512 7.39124 11.2729 7.39124 10.5594ZM11.8227 12.7068C12.4909 12.7068 13.0327 13.2852 13.0327 13.9987C13.0327 14.7121 12.4909 15.2905 11.8227 15.2905C11.1544 15.2905 10.6126 14.7121 10.6126 13.9987C10.6126 13.2852 11.1544 12.7068 11.8227 12.7068ZM8.60126 18.7298C7.93299 18.7298 7.39124 18.1514 7.39124 17.438C7.39124 16.7245 7.93299 16.1461 8.60126 16.1461C9.26953 16.1461 9.81128 16.7245 9.81128 17.438C9.81128 18.1514 9.26953 18.7298 8.60126 18.7298ZM4.16983 13.9987C4.16983 13.2852 4.71158 12.7068 5.37985 12.7068C6.04812 12.7068 6.58987 13.2852 6.58987 13.9987C6.58987 14.7121 6.04812 15.2905 5.37985 15.2905C4.71158 15.2905 4.16983 14.7121 4.16983 13.9987Z" stroke="white" stroke-width="0.2"/>
</g>
<defs>
<clipPath id="clip0_7_945">
<rect width="24" height="24" fill="white" transform="translate(0.899414)"/>
</clipPath>
</defs>
</svg>
