<svg width="25" height="25" viewBox="0 0 25 25" fill="none" xmlns="http://www.w3.org/2000/svg">
<g clip-path="url(#clip0_7_373)">
<mask id="mask0_7_373" style="mask-type:luminance" maskUnits="userSpaceOnUse" x="0" y="0" width="25" height="25">
<path d="M24.8418 0.78125H0.841797V24.7812H24.8418V0.78125Z" fill="white"/>
</mask>
<g mask="url(#mask0_7_373)">
<path fill-rule="evenodd" clip-rule="evenodd" d="M11.5918 7.78125C11.5918 4.32947 14.39 1.53125 17.8418 1.53125C21.2936 1.53125 24.0918 4.32947 24.0918 7.78125C24.0918 11.2331 21.2936 14.0312 17.8418 14.0312C14.39 14.0312 11.5918 11.2331 11.5918 7.78125Z" fill="#E69F69"/>
<path fill-rule="evenodd" clip-rule="evenodd" d="M15.0918 7.78125C15.0918 7.36705 14.756 7.03125 14.3418 7.03125C13.9276 7.03125 13.5918 7.36705 13.5918 7.78125C13.5918 10.1284 15.4946 12.0312 17.8418 12.0312C18.256 12.0312 18.5918 11.6955 18.5918 11.2812C18.5918 10.867 18.256 10.5312 17.8418 10.5312C16.323 10.5312 15.0918 9.30005 15.0918 7.78125Z" fill="#514AF3"/>
<path d="M17.8418 3.53125C17.4276 3.53125 17.0918 3.86704 17.0918 4.28125C17.0918 4.69546 17.4276 5.03125 17.8418 5.03125C19.3606 5.03125 20.5918 6.26245 20.5918 7.78125C20.5918 8.19545 20.9276 8.53125 21.3418 8.53125C21.756 8.53125 22.0918 8.19545 22.0918 7.78125C22.0918 5.43404 20.189 3.53125 17.8418 3.53125Z" fill="#514AF3"/>
<path d="M1.52399 14.9115C1.57935 14.353 1.95748 13.8843 2.49341 13.7175C3.65415 13.3563 5.74664 12.7812 7.30475 12.7812C9.6434 12.7812 12.2495 13.3571 13.6543 13.7182C14.3346 13.8931 14.9542 14.275 15.2513 14.9114C15.3936 15.2163 15.5363 15.5978 15.6436 16.0562C15.8432 16.9096 15.075 17.6092 14.2014 17.538L10.3436 17.2234C9.93035 17.1897 9.57635 17.516 9.57635 17.9307C9.57635 18.2749 9.8227 18.5689 10.1629 18.6208C10.8754 18.7294 12.0924 18.8923 12.9838 18.8923C14.8741 18.8923 19.9102 18.0461 21.5478 17.7619C21.8977 17.7013 22.2546 17.6592 22.5944 17.7626C23.092 17.9141 23.813 18.3138 24.152 19.3689C24.4053 20.157 23.832 20.9213 23.0529 21.2008C20.6599 22.0594 15.5417 23.7812 12.9838 23.7812C9.60495 23.7812 4.8228 23.079 2.70589 22.7391C2.06052 22.6355 1.56786 22.1193 1.50632 21.4685C1.42868 20.6474 1.3418 19.4643 1.3418 18.2812C1.3418 17.0073 1.44252 15.7335 1.52399 14.9115Z" fill="#514AF3"/>
</g>
</g>
<defs>
<clipPath id="clip0_7_373">
<rect width="24" height="24" fill="white" transform="translate(0.841797 0.78125)"/>
</clipPath>
</defs>
</svg>
