<svg width="25" height="24" viewBox="0 0 25 24" fill="none" xmlns="http://www.w3.org/2000/svg">
<path d="M20.6321 12.8321C20.6788 12.8747 20.7343 12.9057 20.7941 12.923C20.8539 12.9401 20.9166 12.9432 20.9776 12.9315H21.3406H21.7035C21.7645 12.9452 21.8278 12.9434 21.8879 12.926C21.9481 12.9086 22.0034 12.8765 22.0492 12.8321C22.0983 12.7908 22.1379 12.7385 22.1647 12.6789C22.1917 12.6194 22.2054 12.5541 22.2047 12.4882V2.0464C22.2047 1.80644 22.1137 1.57636 21.9515 1.40665C21.7895 1.23694 21.5698 1.1416 21.3406 1.1416C21.1114 1.1416 20.8916 1.23694 20.7296 1.40665C20.5676 1.57636 20.4765 1.80644 20.4765 2.0464V12.4882C20.4758 12.5541 20.4895 12.6194 20.5164 12.6789C20.5434 12.7385 20.5829 12.7908 20.6321 12.8321Z" fill="#E69F69"/>
<path d="M22.0494 18.4063C22.0026 18.3636 21.9473 18.3325 21.8874 18.3154C21.8276 18.2981 21.7649 18.2952 21.7038 18.3067C21.4631 18.3423 21.2187 18.3423 20.978 18.3067C20.9165 18.2963 20.8535 18.2999 20.7935 18.3173C20.7334 18.3347 20.6777 18.3655 20.6301 18.4077C20.5825 18.4498 20.5441 18.5022 20.5177 18.5613C20.4913 18.6204 20.4773 18.6848 20.4768 18.75V20.5597C20.4768 20.6797 20.4314 20.7948 20.3503 20.8796C20.2693 20.9645 20.1594 21.0122 20.0448 21.0122C19.9303 21.0122 19.8203 20.9645 19.7394 20.8796C19.6583 20.7948 19.6128 20.6797 19.6128 20.5597V20.1435C19.6128 19.9036 19.5217 19.6734 19.3597 19.5037C19.1976 19.334 18.9778 19.2386 18.7487 19.2386C18.5196 19.2386 18.2998 19.334 18.1377 19.5037C17.9757 19.6734 17.8846 19.9036 17.8846 20.1435V20.5959C17.8846 21.1959 18.1122 21.7713 18.5173 22.1955C18.9224 22.6197 19.4719 22.858 20.0448 22.858C20.6178 22.858 21.1672 22.6197 21.5723 22.1955C21.9774 21.7713 22.205 21.1959 22.205 20.5959V18.7863C22.2113 18.7144 22.2004 18.642 22.1732 18.5756C22.146 18.5093 22.1035 18.4511 22.0494 18.4063Z" fill="#E69F69"/>
<path d="M18.3943 12.7597C17.5129 11.7101 15.1453 9.28516 12.2679 9.28516C9.75348 9.28516 7.62781 11.1492 6.57367 12.2621C6.53269 12.3097 6.48163 12.3467 6.42468 12.3701C6.36773 12.3937 6.3064 12.4031 6.24538 12.3978C6.18365 12.3937 6.12334 12.3763 6.06832 12.3468C6.0133 12.3171 5.96478 12.276 5.92563 12.2258L4.27521 10.0452C4.16446 9.89581 4.01181 9.78647 3.83861 9.73261C3.66541 9.67865 3.48052 9.68299 3.30976 9.74499C3.1391 9.80688 2.99123 9.92328 2.88699 10.0777C2.78274 10.2322 2.72731 10.417 2.72854 10.6063V16.1076C2.72813 16.2973 2.78457 16.4824 2.89004 16.6366C2.9954 16.7909 3.1445 16.9065 3.31617 16.9672C3.40577 16.9961 3.49882 17.0114 3.59259 17.0125C3.72389 17.0131 3.85356 16.9826 3.97184 16.923C4.09012 16.8634 4.19385 16.7764 4.27521 16.6686L5.89105 14.488C5.93021 14.4378 5.97882 14.3967 6.03384 14.367C6.08876 14.3375 6.14907 14.3201 6.2108 14.316C6.27182 14.3107 6.33315 14.3201 6.3901 14.3437C6.44705 14.3671 6.49811 14.4042 6.53909 14.4517C7.62781 15.5647 9.75348 17.4287 12.2679 17.4287C15.1453 17.4287 17.5129 15.0037 18.3943 13.9541C18.5328 13.7889 18.6091 13.5767 18.6091 13.3569C18.6091 13.1371 18.5328 12.9249 18.3943 12.7597ZM13.9961 13.8094C13.8252 13.8094 13.6581 13.7563 13.516 13.6568C13.374 13.5575 13.2632 13.4161 13.1978 13.2507C13.1324 13.0855 13.1152 12.9035 13.1486 12.728C13.1819 12.5524 13.2642 12.3912 13.3851 12.2647C13.506 12.1381 13.6599 12.052 13.8275 12.017C13.9951 11.9822 14.1689 12.0001 14.3268 12.0685C14.4846 12.137 14.6196 12.253 14.7146 12.4018C14.8095 12.5506 14.8601 12.7255 14.8601 12.9045C14.8601 13.1444 14.7691 13.3746 14.6071 13.5443C14.4451 13.714 14.2253 13.8094 13.9961 13.8094Z" fill="#514AF3"/>
<path d="M21.3414 17.4289C22.2959 17.4289 23.0696 16.6186 23.0696 15.6193C23.0696 14.6198 22.2959 13.8096 21.3414 13.8096C20.387 13.8096 19.6133 14.6198 19.6133 15.6193C19.6133 16.6186 20.387 17.4289 21.3414 17.4289Z" fill="#E69F69"/>
</svg>
