<svg width="25" height="24" viewBox="0 0 25 24" fill="none" xmlns="http://www.w3.org/2000/svg">
<path d="M13.694 12.0042C13.6079 11.8892 13.4905 11.8055 13.3579 11.7647C13.2254 11.7239 13.0843 11.728 12.954 11.7764C12.8239 11.8249 12.7111 11.9154 12.6311 12.0352C12.5511 12.155 12.5079 12.2984 12.5073 12.4455V13.5132C12.023 13.4568 11.5581 13.2792 11.1503 12.9947C10.7425 12.7103 10.4034 12.327 10.1606 11.8761C10.0722 11.7109 9.92599 11.59 9.75404 11.5399C9.58217 11.4899 9.39863 11.5148 9.24397 11.6091C9.08922 11.7035 8.97597 11.8597 8.92904 12.0432C8.88222 12.2268 8.90549 12.4227 8.99391 12.5879C9.34591 13.2644 9.8477 13.8388 10.4555 14.2606C11.0633 14.6824 11.7586 14.939 12.4806 15.0078V16.1537C12.4798 16.3022 12.5224 16.447 12.6025 16.5683C12.6826 16.6896 12.7961 16.781 12.9273 16.8299C12.9976 16.8585 13.0721 16.873 13.1473 16.8727C13.248 16.8713 13.3471 16.8456 13.4372 16.7976C13.5273 16.7495 13.6059 16.6802 13.6673 16.5951L15.0473 14.716C15.1404 14.5904 15.191 14.4349 15.191 14.2747C15.191 14.1146 15.1404 13.9591 15.0473 13.8335L13.694 12.0042Z" fill="#E69F69"/>
<path d="M20.9333 13.4481C20.7418 13.2946 20.5938 13.0874 20.5057 12.8497C20.4176 12.6119 20.393 12.3527 20.4345 12.1008V11.161C20.4345 11.0779 20.4036 10.9981 20.3485 10.9394C20.2934 10.8807 20.2188 10.8477 20.141 10.8477H18.3803C18.3025 10.8477 18.2279 10.8807 18.1728 10.9394C18.1177 10.9981 18.0868 11.0779 18.0868 11.161V12.1008C18.1283 12.3527 18.1037 12.6119 18.0155 12.8497C17.9275 13.0874 17.7795 13.2946 17.588 13.4481C17.2134 13.7853 16.908 14.2015 16.6909 14.6704C16.4737 15.1394 16.3495 15.6512 16.3262 16.1737V21.8131C16.3262 22.0624 16.4189 22.3014 16.584 22.4777C16.7491 22.654 16.973 22.753 17.2065 22.753H21.3149C21.5483 22.753 21.7722 22.654 21.9374 22.4777C22.1024 22.3014 22.1951 22.0624 22.1951 21.8131V16.1737C22.1717 15.6512 22.0476 15.1394 21.8304 14.6704C21.6133 14.2015 21.308 13.7853 20.9333 13.4481Z" fill="#514AF3"/>
<path d="M18.3804 9.90793H20.1411C20.2189 9.90793 20.2936 9.87492 20.3486 9.81618C20.4036 9.75744 20.4346 9.67778 20.4346 9.59468V8.34142C20.4346 8.17523 20.3727 8.01591 20.2627 7.89843C20.1526 7.78085 20.0033 7.71484 19.8477 7.71484H18.6739C18.5182 7.71484 18.3689 7.78085 18.2589 7.89843C18.1487 8.01591 18.0869 8.17523 18.0869 8.34142V9.59468C18.0869 9.67778 18.1178 9.75744 18.1729 9.81618C18.228 9.87492 18.3026 9.90793 18.3804 9.90793Z" fill="#E69F69"/>
<path d="M8.20018 4.62416C8.0895 4.5997 7.98498 4.5504 7.89362 4.47967C7.80217 4.40895 7.72599 4.31839 7.66996 4.21397C7.61402 4.10966 7.57962 3.99375 7.56904 3.87411C7.55845 3.75447 7.57198 3.63385 7.6086 3.52021L7.69517 3.27867V1.63044C7.69517 1.52868 7.65717 1.43123 7.58955 1.35934C7.52184 1.28746 7.43011 1.24707 7.33443 1.24707C7.23874 1.24707 7.14702 1.28746 7.07939 1.35934C7.01177 1.43123 6.97378 1.52868 6.97378 1.63044V3.32857L6.92326 3.30165C6.9159 3.34202 6.90247 3.38082 6.88352 3.41668C6.83641 3.50469 6.79428 3.59555 6.75729 3.68886C6.41835 4.46602 6.28301 5.32599 6.36554 6.17809C6.44816 7.0301 6.74542 7.84272 7.22623 8.5303C7.26745 8.58717 7.29284 8.65524 7.29947 8.72675C7.306 8.79826 7.29358 8.87036 7.26349 8.93469C7.23341 8.99903 7.18685 9.05305 7.12926 9.09068C7.07167 9.1283 7.00524 9.14794 6.93762 9.14745C6.88223 9.14686 6.82777 9.13272 6.77836 9.1061C6.72886 9.07948 6.6859 9.04117 6.65268 8.99412C6.09248 8.20056 5.74415 7.26103 5.64442 6.27475C5.54478 5.28836 5.69741 4.29167 6.08631 3.38986C6.13323 3.27484 6.18374 3.16758 6.23425 3.06405C4.66505 2.69983 3.60453 3.8307 3.60453 6.23035C3.58125 7.30582 3.95994 8.3473 4.6576 9.12682C5.35535 9.90624 6.31522 10.3602 7.32725 10.3894C8.33919 10.3602 9.29915 9.90624 9.99681 9.12682C10.6946 8.3473 11.0732 7.30582 11.05 6.23035C11.071 5.55799 10.9605 4.88839 10.7253 4.26387C10.1884 4.55511 9.59301 4.70373 8.99021 4.69705C8.72533 4.69862 8.46082 4.67426 8.20018 4.62416Z" fill="#514AF3"/>
<path d="M8.99075 4.13364C9.67608 4.12804 10.3421 3.89211 10.8936 3.45972C11.4449 3.02733 11.8534 2.42059 12.0605 1.72633C12.0715 1.69058 12.0752 1.65286 12.0714 1.61553C12.0677 1.57821 12.0567 1.54206 12.0389 1.50955C12.0212 1.47703 11.9973 1.44884 11.9688 1.42673C11.9402 1.40465 11.9075 1.38919 11.873 1.38135C11.645 1.33162 11.4131 1.30593 11.1804 1.30469C10.4949 1.30756 9.82807 1.54245 9.27669 1.97533C8.72532 2.40821 8.31811 3.01652 8.11424 3.71196C8.10264 3.74771 8.09841 3.78553 8.10163 3.82315C8.10485 3.86077 8.11543 3.89712 8.13282 3.93012C8.15021 3.96302 8.17385 3.99171 8.20237 4.0142C8.23089 4.03669 8.26346 4.05261 8.29815 4.06076C8.52622 4.10928 8.75816 4.13374 8.99075 4.13364Z" fill="#E69F69"/>
</svg>
