<svg width="25" height="25" viewBox="0 0 25 25" fill="none" xmlns="http://www.w3.org/2000/svg">
<g clip-path="url(#clip0_7_382)">
<mask id="mask0_7_382" style="mask-type:luminance" maskUnits="userSpaceOnUse" x="0" y="0" width="25" height="25">
<path d="M24.8418 0.78125H0.841797V24.7812H24.8418V0.78125Z" fill="white"/>
</mask>
<g mask="url(#mask0_7_382)">
<path d="M17.2118 2.0192C17.1014 1.9088 16.9902 1.81397 16.8806 1.73257C16.4937 1.44518 16.0525 1.41057 15.6456 1.52439C15.2452 1.63637 14.872 1.89183 14.5797 2.19914C12.3105 4.58452 10.0937 7.33614 9.14629 8.53789C8.97184 8.75919 8.84109 9.03544 8.80794 9.31874C8.77414 9.60714 8.84209 9.91304 9.08009 10.151C9.31804 10.389 9.62394 10.4569 9.91234 10.4231C10.1956 10.3899 10.4718 10.2592 10.6931 10.0848C11.8949 9.13739 14.6464 6.92084 17.0317 4.65166C17.3391 4.35924 17.5946 3.986 17.7066 3.5855C17.8204 3.17844 17.7858 2.73717 17.4983 2.35019C17.4169 2.24064 17.3221 2.12955 17.2118 2.0192Z" fill="#E69F69"/>
<path d="M23.8738 5.12561C23.7957 4.9904 23.713 4.87003 23.6282 4.76304C23.3289 4.3853 22.9117 4.23769 22.4892 4.24229C22.0734 4.24683 21.6468 4.397 21.2849 4.61818C18.4756 6.33495 15.6223 8.4191 14.3961 9.3347C14.1703 9.5033 13.9725 9.7363 13.8672 10.0014C13.7599 10.2712 13.7463 10.5843 13.9146 10.8758C14.0829 11.1672 14.3608 11.312 14.6481 11.354C14.9304 11.3953 15.231 11.3406 15.4899 11.2293C16.8959 10.6252 20.1273 9.19625 23.0186 7.62175C23.3912 7.41885 23.7347 7.1245 23.9465 6.7666C24.1618 6.4029 24.2425 5.96765 24.065 5.51948C24.0148 5.3926 23.9518 5.26076 23.8738 5.12561Z" fill="#E69F69"/>
<path fill-rule="evenodd" clip-rule="evenodd" d="M2.19291 14.9348C2.01612 13.6981 2.97912 12.726 4.12451 12.6719C5.49671 12.6071 8.11185 12.5312 12.8415 12.5312C17.5711 12.5312 20.1863 12.6071 21.5585 12.6719C22.7038 12.726 23.6669 13.6981 23.4901 14.9348C22.7669 19.9936 18.2708 24.0312 12.8415 24.0312C7.4122 24.0312 2.9161 19.9936 2.19291 14.9348Z" fill="#514AF3"/>
<path fill-rule="evenodd" clip-rule="evenodd" d="M16.1769 19.1334C15.8185 19.3411 15.6963 19.7999 15.9039 20.1584C16.1115 20.5168 16.5703 20.639 16.9288 20.4314C18.6221 19.4505 19.9392 17.8867 20.6077 16.0374C20.7485 15.6478 20.5469 15.2179 20.1573 15.0771C19.7678 14.9363 19.3379 15.1379 19.197 15.5275C18.6497 17.0418 17.5675 18.3279 16.1769 19.1334Z" fill="#E69F69"/>
</g>
</g>
<defs>
<clipPath id="clip0_7_382">
<rect width="24" height="24" fill="white" transform="translate(0.841797 0.78125)"/>
</clipPath>
</defs>
</svg>
