<svg width="25" height="25" viewBox="0 0 25 25" fill="none" xmlns="http://www.w3.org/2000/svg">
<g clip-path="url(#clip0_7_391)">
<mask id="mask0_7_391" style="mask-type:luminance" maskUnits="userSpaceOnUse" x="0" y="0" width="25" height="25">
<path d="M24.8418 0.78125H0.841797V24.7812H24.8418V0.78125Z" fill="white"/>
</mask>
<g mask="url(#mask0_7_391)">
<path d="M23.7818 15.6459C20.17 18.5016 16.6026 20.9559 14.639 22.2663C13.6939 22.8971 12.4771 22.9114 11.5215 22.2964C10.0555 21.3529 7.69826 19.7797 5.03711 17.788C7.72766 14.4657 10.9957 11.2315 14.4011 8.59475C14.9103 8.20045 15.5402 7.9837 16.1815 8.0438C17.9302 8.2077 19.3912 8.7337 19.3912 8.7337C19.3912 8.7337 21.4155 6.9372 23.7872 5.02543C23.929 4.91111 24.1289 4.98457 24.151 5.16539C24.2249 5.77172 24.3412 7.2128 24.3412 10.2813C24.3412 13.1733 24.2379 14.4624 24.1641 15.0144C24.1298 15.2707 23.9847 15.4855 23.7818 15.6459Z" fill="#E69F69"/>
<path fill-rule="evenodd" clip-rule="evenodd" d="M2.22637 15.6459C5.83826 18.5016 9.40565 20.9559 11.3692 22.2663C12.3144 22.8971 13.5312 22.9114 14.4867 22.2964C15.9527 21.3529 18.3099 19.7797 20.9711 17.788C20.0877 16.6972 19.1421 15.6159 18.1498 14.5621C18.9977 14.4798 19.8737 14.1316 20.742 13.4805L21.119 13.1977C21.4504 12.9491 21.5176 12.479 21.269 12.1477C21.0205 11.8163 20.5504 11.7491 20.219 11.9977L19.842 12.2805C18.8416 13.0307 17.9666 13.1762 17.2482 13.0305C16.7747 12.9344 16.3685 12.7123 16.0354 12.4481C16.0271 12.4415 16.0187 12.4351 16.0103 12.4289C15.8522 12.3012 15.7124 12.1652 15.5919 12.0314C15.4321 12.1713 15.2738 12.3064 15.1179 12.4366C15.099 12.4508 15.0807 12.466 15.063 12.4822C13.9085 13.4411 12.8896 14.1273 12.3206 14.4886C12.0149 14.6828 11.6421 14.744 11.3192 14.5801C11.0271 14.4318 10.6433 14.1818 10.2497 13.7689C9.80315 13.3005 9.87445 12.5772 10.3202 12.1081C10.8855 11.5131 11.7662 10.635 12.9132 9.6406C12.4807 9.28285 12.045 8.93385 11.6071 8.59475C11.0979 8.20045 10.4679 7.9837 9.82675 8.0438C8.07795 8.2077 6.617 8.7337 6.617 8.7337C6.617 8.7337 4.59261 6.9372 2.22095 5.02543C2.07913 4.91111 1.87925 4.98457 1.8572 5.16539C1.78324 5.77172 1.66699 7.2128 1.66699 10.2813C1.66699 13.1733 1.77025 14.4624 1.84405 15.0144C1.87832 15.2707 2.02352 15.4855 2.22637 15.6459Z" fill="#514AF3"/>
</g>
</g>
<defs>
<clipPath id="clip0_7_391">
<rect width="24" height="24" fill="white" transform="translate(0.841797 0.78125)"/>
</clipPath>
</defs>
</svg>
