<svg width="25" height="24" viewBox="0 0 25 24" fill="none" xmlns="http://www.w3.org/2000/svg">
<path d="M20.5241 9.89591H22.5157C22.6044 9.88926 22.6896 9.85622 22.7616 9.80037C22.8338 9.74462 22.8898 9.6683 22.9235 9.58002C22.9573 9.49184 22.9672 9.39527 22.9524 9.30136C22.9375 9.20735 22.8985 9.11968 22.8396 9.04828L21.8534 7.69017C21.89 7.75748 21.9404 7.81487 22.0008 7.85804C22.0612 7.90121 22.1301 7.92893 22.202 7.93927C22.274 7.9496 22.3473 7.94213 22.4162 7.91737C22.485 7.89272 22.5478 7.85149 22.5995 7.79687C22.6512 7.74224 22.6906 7.67564 22.7147 7.60219C22.7386 7.52874 22.7467 7.45038 22.7381 7.37305C22.7296 7.29581 22.7047 7.22165 22.6653 7.15618C22.6258 7.09081 22.573 7.03598 22.5109 6.99577L21.4531 5.61721L21.3436 5.4743L21.2054 5.3007C21.2699 5.37466 21.3524 5.42765 21.4437 5.45384H21.477H21.5485C21.6437 5.44719 21.7349 5.40995 21.8102 5.34704C21.8856 5.28403 21.9415 5.1983 21.9707 5.10091C22.0001 5.00352 22.0013 4.89887 21.9745 4.80067C21.9476 4.70246 21.8938 4.6152 21.82 4.55014L21.4437 4.11619C20.2716 2.76822 20.3622 2.85507 20.2525 2.79891C20.1801 2.7541 20.098 2.73047 20.0143 2.73047C19.9307 2.73047 19.8486 2.7541 19.7761 2.79891C19.3695 3.20677 18.9905 3.64532 18.6422 4.11108L18.2563 4.55526C18.1816 4.62144 18.1276 4.71054 18.1014 4.81059C18.0752 4.91054 18.0781 5.01672 18.1096 5.11493C18.1412 5.21313 18.1999 5.29865 18.2781 5.36013C18.3562 5.42161 18.45 5.45609 18.5469 5.45895H18.5708C18.5943 5.46417 18.6187 5.46417 18.6422 5.45895C18.7304 5.42939 18.8094 5.37466 18.8709 5.3007L18.7423 5.46918L18.6422 5.59685L17.575 6.98053C17.5127 7.02063 17.4599 7.07546 17.4206 7.14093C17.3812 7.2063 17.3562 7.28047 17.3477 7.3577C17.3391 7.43504 17.3472 7.5134 17.3712 7.58685C17.3953 7.6603 17.4347 7.7269 17.4864 7.78152C17.5381 7.83615 17.6008 7.87738 17.6697 7.90203C17.7386 7.92679 17.8118 7.93425 17.8837 7.92392C17.9558 7.91369 18.0246 7.88587 18.0851 7.8427C18.1455 7.79953 18.1959 7.74214 18.2324 7.67482L17.2463 9.03303C17.1829 9.10393 17.1401 9.19292 17.1229 9.28929C17.1055 9.38565 17.1145 9.48529 17.1486 9.57634C17.1828 9.66738 17.2408 9.74595 17.3156 9.80262C17.3903 9.85929 17.4787 9.89162 17.5702 9.89591H19.5713V11.9382C19.5713 12.0736 19.6214 12.2034 19.7108 12.2992C19.8001 12.3949 19.9213 12.4488 20.0477 12.4488C20.1741 12.4488 20.2952 12.3949 20.3846 12.2992C20.4739 12.2034 20.5241 12.0736 20.5241 11.9382V9.89591Z" fill="#514AF3"/>
<path d="M21.195 13.9877H23.1866C23.2753 13.9811 23.3605 13.948 23.4325 13.8922C23.5047 13.8364 23.5607 13.7601 23.5944 13.6718C23.6282 13.5836 23.6381 13.4871 23.6233 13.3932C23.6084 13.2991 23.5694 13.2115 23.5105 13.1401L22.5243 11.782C22.5609 11.8493 22.6113 11.9067 22.6717 11.9498C22.7321 11.993 22.801 12.0207 22.8729 12.0311C22.9449 12.0414 23.0182 12.0339 23.0871 12.0092C23.1559 11.9845 23.2187 11.9433 23.2704 11.8887C23.3221 11.834 23.3615 11.7674 23.3856 11.694C23.4095 11.6205 23.4176 11.5422 23.409 11.4648C23.4005 11.3876 23.3756 11.3134 23.3362 11.248C23.2967 11.1826 23.2439 11.1278 23.1818 11.0876L22.124 9.70901L22.0145 9.5661L21.8763 9.3925C21.9408 9.46646 22.0233 9.51945 22.1145 9.54564H22.1479H22.2194C22.3146 9.53899 22.4058 9.50175 22.4811 9.43884C22.5565 9.37582 22.6124 9.2901 22.6416 9.19271C22.671 9.09532 22.6722 8.99067 22.6454 8.89247C22.6185 8.79426 22.5647 8.707 22.4909 8.64194L22.1145 8.20799C20.9425 6.86001 21.0331 6.94686 20.9234 6.8907C20.851 6.8459 20.7689 6.82227 20.6852 6.82227C20.6016 6.82227 20.5195 6.8459 20.447 6.8907C20.0404 7.29856 19.6614 7.73711 19.3131 8.20288L18.9272 8.64705C18.8525 8.71324 18.7985 8.80234 18.7722 8.90239C18.7461 9.00233 18.749 9.10852 18.7805 9.20672C18.8121 9.30493 18.8708 9.39045 18.949 9.45193C19.0271 9.51341 19.1209 9.54789 19.2178 9.55075H19.2417C19.2652 9.55597 19.2896 9.55597 19.3131 9.55075C19.4013 9.52119 19.4803 9.46646 19.5418 9.3925L19.4132 9.56098L19.3131 9.68865L18.2459 11.0723C18.1836 11.1124 18.1308 11.1673 18.0915 11.2327C18.0521 11.2981 18.0271 11.3723 18.0186 11.4495C18.01 11.5268 18.0181 11.6052 18.0421 11.6786C18.0662 11.7521 18.1056 11.8187 18.1573 11.8733C18.209 11.9279 18.2717 11.9692 18.3406 11.9938C18.4095 12.0186 18.4827 12.0261 18.5546 12.0157C18.6267 12.0055 18.6955 11.9777 18.756 11.9345C18.8164 11.8913 18.8668 11.8339 18.9033 11.7666L17.9172 13.1248C17.8538 13.1957 17.811 13.2847 17.7938 13.3811C17.7764 13.4775 17.7854 13.5771 17.8195 13.6681C17.8537 13.7592 17.9117 13.8377 17.9865 13.8944C18.0612 13.9511 18.1496 13.9834 18.2411 13.9877H20.2422V16.03C20.2422 16.1654 20.2923 16.2952 20.3817 16.391C20.471 16.4867 20.5922 16.5406 20.7186 16.5406C20.845 16.5406 20.9661 16.4867 21.0555 16.391C21.1448 16.2952 21.195 16.1654 21.195 16.03V13.9877Z" fill="#514AF3"/>
<path d="M5.8573 18.3008H8.01204C8.10805 18.2938 8.20022 18.2582 8.27831 18.1983C8.35631 18.1384 8.41696 18.0564 8.45337 17.9617C8.48988 17.867 8.5007 17.7634 8.4847 17.6625C8.46861 17.5615 8.42635 17.4675 8.36253 17.3908L7.29551 15.9326C7.33509 16.0049 7.38961 16.0664 7.45505 16.1128C7.5204 16.1591 7.59494 16.189 7.67275 16.2C7.75065 16.2111 7.82989 16.203 7.90443 16.1765C7.97898 16.15 8.04682 16.1057 8.10277 16.0471C8.15873 15.9885 8.20137 15.917 8.22734 15.8381C8.2534 15.7592 8.26212 15.675 8.25283 15.5921C8.24363 15.5091 8.21661 15.4295 8.17397 15.3593C8.13133 15.2891 8.07422 15.2302 8.00686 15.1871L6.86251 13.7069L6.74399 13.5534L6.59442 13.367C6.66427 13.4464 6.75357 13.5034 6.85217 13.5315H6.88829H6.96561C7.06871 13.5243 7.16741 13.4843 7.24885 13.4167C7.33039 13.3492 7.39085 13.2571 7.42257 13.1525C7.45419 13.0479 7.45562 12.9356 7.4265 12.8301C7.39746 12.7247 7.33921 12.631 7.25949 12.5612L6.85217 12.0952C5.58412 10.6479 5.68205 10.7411 5.56352 10.6809C5.48514 10.6328 5.39622 10.6074 5.30577 10.6074C5.21522 10.6074 5.1264 10.6328 5.04802 10.6809C4.60803 11.1189 4.19803 11.5897 3.82118 12.0897L3.4036 12.5666C3.32283 12.6377 3.26438 12.7334 3.23602 12.8408C3.20766 12.9481 3.21072 13.0622 3.24493 13.1676C3.27904 13.273 3.34266 13.3649 3.42718 13.4309C3.51178 13.4969 3.61325 13.5339 3.71808 13.537H3.74385C3.76934 13.5425 3.79569 13.5425 3.82118 13.537C3.91661 13.5052 4.00208 13.4465 4.06858 13.367L3.92935 13.548L3.82118 13.6849L2.66648 15.1706C2.59912 15.2137 2.54202 15.2726 2.49938 15.3428C2.45674 15.4131 2.42972 15.4926 2.42052 15.5756C2.41122 15.6587 2.41994 15.7428 2.44601 15.8216C2.47197 15.9005 2.51461 15.972 2.57057 16.0306C2.62653 16.0894 2.69436 16.1335 2.76891 16.1601C2.84346 16.1866 2.9227 16.1946 3.0006 16.1836C3.0785 16.1725 3.15295 16.1427 3.21829 16.0963C3.28374 16.05 3.33826 15.9884 3.37783 15.9162L2.31081 17.3743C2.2423 17.4505 2.19592 17.5461 2.17724 17.6495C2.15855 17.753 2.16823 17.86 2.20522 17.9577C2.2422 18.0555 2.30487 18.1398 2.38574 18.2007C2.46661 18.2615 2.56233 18.2963 2.66131 18.3008H4.8263V20.4936C4.8263 20.6389 4.88063 20.7784 4.97731 20.8812C5.07399 20.984 5.20516 21.0418 5.3418 21.0418C5.47853 21.0418 5.6097 20.984 5.70638 20.8812C5.80297 20.7784 5.8573 20.6389 5.8573 20.4936V18.3008Z" fill="#E69F69"/>
<path d="M22.0545 14.1928L22.0469 14.1922H22.0392H20.5437C20.4953 14.1922 20.449 14.1716 20.4149 14.1351C20.3807 14.0987 20.3615 14.0492 20.3615 13.9976V13.5984C20.3615 13.5468 20.3807 13.4973 20.4149 13.4609C20.449 13.4243 20.4953 13.4038 20.5437 13.4038H21.6638C21.7637 13.4054 21.8621 13.3779 21.9485 13.3243C22.0348 13.2707 22.1058 13.1931 22.1539 13.0999C22.2029 13.0085 22.2286 12.9052 22.2286 12.8C22.2286 12.6942 22.2025 12.5903 22.1531 12.4985C22.1531 12.4985 22.1529 12.4983 22.1528 12.4981L21.2186 10.7507L21.2168 10.7473L21.2148 10.7439C21.2079 10.7321 21.2043 10.7185 21.2043 10.7044C21.2043 10.6904 21.2079 10.6767 21.2148 10.6649L21.2173 10.6607L21.2196 10.6563C21.2269 10.6423 21.2375 10.6306 21.2505 10.6224C21.2634 10.6142 21.2781 10.6098 21.2931 10.6096C21.394 10.6087 21.4928 10.5793 21.5795 10.5246C21.6654 10.4705 21.7365 10.3934 21.7858 10.3009C21.8374 10.2094 21.8647 10.1047 21.8647 9.99788C21.8647 9.88985 21.8368 9.78397 21.7841 9.6918L21.7835 9.69078L21.7829 9.68986L19.9135 6.49653L19.9128 6.49531L19.912 6.49398C19.8607 6.40927 19.7904 6.33961 19.7074 6.29132C19.6245 6.24304 19.5315 6.21777 19.437 6.21777C19.3425 6.21777 19.2495 6.24304 19.1665 6.29132C19.0836 6.33961 19.0132 6.40927 18.962 6.49398L18.9612 6.49531L18.9604 6.49653L17.091 9.68986L17.0905 9.69078L17.09 9.6918C17.0373 9.78397 17.0094 9.88985 17.0094 9.99788C17.0094 10.1047 17.0366 10.2094 17.0882 10.3009C17.1375 10.3934 17.2086 10.4705 17.2945 10.5246C17.3813 10.5793 17.4801 10.6087 17.5809 10.6096C17.5959 10.6098 17.6106 10.6142 17.6235 10.6224C17.6364 10.6306 17.6471 10.6423 17.6544 10.6563L17.6567 10.6607L17.6591 10.6649C17.666 10.6767 17.6698 10.6904 17.6698 10.7044C17.6698 10.7185 17.666 10.7321 17.6591 10.7439L17.6572 10.7473L17.6554 10.7507L16.7212 12.4981C16.7211 12.4983 16.721 12.4984 16.7209 12.4986C16.6715 12.5903 16.6454 12.6942 16.6454 12.8C16.6454 12.9052 16.6712 13.0086 16.72 13.0999C16.7681 13.1931 16.8392 13.2707 16.9255 13.3243C17.0119 13.3779 17.1103 13.4054 17.2101 13.4038H18.3304C18.3786 13.4038 18.425 13.4243 18.4592 13.4609C18.4933 13.4973 18.5126 13.5468 18.5126 13.5984V14.261V14.2625V14.264C18.5132 14.3073 18.5002 14.3494 18.4758 14.384C18.4514 14.4186 18.4169 14.4434 18.3777 14.4547L18.3767 14.4549L18.3758 14.4552C16.8841 14.9023 15.4973 15.6798 14.3057 16.7371C14.2531 16.7825 14.2129 16.842 14.1891 16.9096C14.1655 16.9771 14.159 17.0503 14.1707 17.1213C14.1816 17.1918 14.21 17.2578 14.2531 17.3126C14.2967 17.3678 14.3536 17.4093 14.4177 17.4326L14.4191 17.4331L14.4204 17.4335C16.0026 17.9788 17.4205 18.9634 18.529 20.2862C18.722 20.5361 18.8273 20.8501 18.8266 21.1742V21.1746C18.8266 21.3347 18.8862 21.4883 18.9923 21.6015C19.0983 21.7148 19.2421 21.7784 19.3921 21.7784H22.0093C22.1593 21.7784 22.3031 21.7148 22.4092 21.6015C22.5153 21.4883 22.5748 21.3347 22.5748 21.1746V14.7879V14.7862V14.7845C22.5725 14.6344 22.5179 14.4908 22.4217 14.3814C22.3255 14.272 22.1946 14.2048 22.0545 14.1928Z" fill="#E69F69" stroke="white" stroke-width="0.2"/>
<path d="M11.9963 17.6906H13.733V19.4468C13.733 19.631 13.8016 19.8078 13.9235 19.938C14.0456 20.0684 14.2111 20.1415 14.3838 20.1415C14.5563 20.1415 14.7218 20.0684 14.8439 19.938C14.9659 19.8078 15.0345 19.631 15.0345 19.4468V17.6906H16.7619H16.7687L16.7753 17.6901C16.8965 17.6812 17.0129 17.6362 17.1113 17.5602C17.2098 17.4843 17.2864 17.3805 17.3324 17.2604C17.3784 17.1404 17.3921 17.009 17.3719 16.8812C17.352 16.7555 17.3002 16.6383 17.2221 16.5421L16.6781 15.7959C16.6946 15.7915 16.7108 15.7864 16.727 15.7806C16.821 15.7471 16.9066 15.6909 16.9773 15.6167C17.048 15.5423 17.1018 15.4517 17.1346 15.3517C17.1674 15.2518 17.1785 15.1452 17.1668 15.04C17.1551 14.9347 17.1211 14.8339 17.0672 14.7449C17.0199 14.6666 16.9584 14.5994 16.8863 14.5471L15.9984 13.3941C16.071 13.3693 16.1393 13.3308 16.2002 13.2803C16.303 13.1946 16.3793 13.0779 16.4193 12.9454C16.4594 12.8128 16.4611 12.6705 16.4244 12.5369C16.3889 12.408 16.3194 12.2929 16.2241 12.2055L15.8693 11.798L15.8691 11.7978C15.6441 11.54 15.4671 11.3364 15.327 11.1754C15.1167 10.9336 14.9898 10.7878 14.9094 10.6983C14.8444 10.626 14.8007 10.5797 14.7631 10.5488C14.7245 10.5171 14.6888 10.5 14.6711 10.4915C14.6703 10.4912 14.6695 10.4908 14.6688 10.4905C14.5718 10.4327 14.4627 10.4023 14.3516 10.4023C14.2374 10.4023 14.1251 10.4345 14.0262 10.4954L14.0071 10.5072L13.9911 10.5233C13.5943 10.9198 13.2245 11.3459 12.8842 11.7985L12.5249 12.2106C12.4282 12.2996 12.3582 12.4172 12.3236 12.5486C12.2878 12.6847 12.2918 12.8292 12.3349 12.9629C12.378 13.0965 12.4583 13.2129 12.565 13.2966C12.6217 13.3409 12.6843 13.375 12.7506 13.3977L11.8721 14.5323C11.8 14.5846 11.7384 14.6518 11.691 14.7302C11.6372 14.8192 11.6031 14.9201 11.5915 15.0253C11.5799 15.1304 11.5908 15.237 11.6236 15.337C11.6565 15.4369 11.7103 15.5276 11.781 15.6019C11.8516 15.6763 11.9373 15.7324 12.0313 15.7659C12.0474 15.7717 12.0637 15.7768 12.0801 15.7812L11.5383 16.5246C11.4559 16.6197 11.3999 16.7376 11.3769 16.865C11.3533 16.9961 11.3656 17.1318 11.4123 17.2557C11.4589 17.3796 11.5381 17.4865 11.6402 17.5636C11.7424 17.6407 11.8631 17.6847 11.988 17.6904L11.9922 17.6906H11.9963Z" fill="#514AF3" stroke="white" stroke-width="0.2"/>
<path d="M10.6408 17.2395V17.2385V15.9931C10.6408 15.9415 10.66 15.892 10.6941 15.8556C10.7283 15.819 10.7747 15.7986 10.823 15.7986H13.0663H13.0667C13.238 15.7983 13.4061 15.7479 13.5526 15.653C13.6991 15.558 13.8185 15.4221 13.8978 15.2599C13.9771 15.0977 14.0133 14.9154 14.0026 14.7328C13.9919 14.5504 13.9348 14.3746 13.8372 14.2244C13.8371 14.2242 13.837 14.2241 13.8369 14.2239L12.3451 11.9064C12.3411 11.8989 12.339 11.8904 12.339 11.8817C12.339 11.8722 12.3415 11.8628 12.3463 11.8547L12.3508 11.847L12.3546 11.8389C12.3592 11.8294 12.3661 11.8213 12.3747 11.8157C12.3832 11.8101 12.3931 11.807 12.4031 11.8068H12.4063L12.4096 11.8067C12.5707 11.7988 12.7273 11.7468 12.8642 11.6556C13.0011 11.5644 13.1137 11.437 13.1911 11.2858C13.2686 11.1347 13.3081 10.9648 13.3061 10.7924C13.3042 10.6202 13.2607 10.4514 13.1798 10.3022L13.1781 10.299L13.1763 10.296L11.4871 7.42325C11.4641 7.38264 11.4552 7.33476 11.462 7.28781C11.4688 7.24055 11.491 7.19748 11.5248 7.16597C11.6913 7.01119 11.8014 6.79862 11.8357 6.56579C11.8701 6.33296 11.8265 6.09461 11.7127 5.89267L11.7125 5.89247L9.81357 2.50007L9.8107 2.49495L9.80754 2.49004C9.75426 2.40647 9.68269 2.33803 9.59904 2.29077C9.51539 2.24351 9.42216 2.21875 9.32749 2.21875C9.23282 2.21875 9.13959 2.24351 9.05595 2.29077C8.9723 2.33803 8.90072 2.40647 8.84754 2.49004L8.84438 2.49495L8.84151 2.50007L6.9425 5.89247L6.94231 5.89277C6.82848 6.09471 6.78498 6.33296 6.81928 6.56579C6.85368 6.79862 6.96368 7.01119 7.13021 7.16597C7.16394 7.19748 7.18617 7.24055 7.19297 7.28781C7.19977 7.33476 7.19086 7.38264 7.16796 7.42325L5.4787 10.296L5.47688 10.2991L5.47506 10.3025C5.39266 10.4549 5.34925 10.6279 5.34925 10.804C5.34925 10.9792 5.39227 11.1514 5.47401 11.3034C5.55507 11.4607 5.67426 11.592 5.81914 11.6833C5.96402 11.7748 6.1293 11.823 6.29765 11.8229C6.30743 11.8232 6.31691 11.8261 6.32515 11.8317C6.33368 11.8373 6.34067 11.8454 6.34518 11.8549L6.34911 11.863L6.35361 11.8706C6.3583 11.8787 6.3608 11.8881 6.3608 11.8977C6.3608 11.9063 6.35878 11.9148 6.35486 11.9224L4.86298 14.2399C4.86288 14.2401 4.86269 14.2403 4.86269 14.2403C4.76515 14.3905 4.70795 14.5664 4.69721 14.7489C4.68648 14.9315 4.7228 15.1137 4.80213 15.2759C4.88147 15.4381 5.00086 15.574 5.14736 15.669C5.29387 15.7639 5.46184 15.8142 5.63325 15.8145H5.63354H7.86331C7.90288 15.8218 7.93919 15.843 7.9665 15.8748C7.99534 15.9083 8.01221 15.9516 8.01422 15.997V17.3822C8.01422 17.4272 7.99975 17.4706 7.97311 17.5053C7.94676 17.5399 7.90997 17.5637 7.86915 17.5728C6.66856 17.8227 5.52977 18.3362 4.52474 19.0805C4.44761 19.1343 4.38437 19.2078 4.34077 19.2945C4.29689 19.382 4.27437 19.4798 4.27543 19.5789V21.1743C4.27543 21.3344 4.33502 21.488 4.44109 21.6012C4.54707 21.7145 4.69099 21.7781 4.84094 21.7781H17.5438C17.6579 21.7885 17.7722 21.7612 17.8713 21.6998C17.972 21.6374 18.0519 21.543 18.0999 21.4299C18.1482 21.3263 18.1666 21.2097 18.1524 21.0949C18.1381 20.9792 18.0914 20.8709 18.0185 20.7839C16.1962 18.5037 12.9932 17.6431 10.8039 17.434C10.7591 17.429 10.7177 17.4064 10.6875 17.3707C10.6572 17.3347 10.6406 17.2879 10.6408 17.2395Z" fill="#514AF3" stroke="white" stroke-width="0.2"/>
</svg>
