<svg width="25" height="24" viewBox="0 0 25 24" fill="none" xmlns="http://www.w3.org/2000/svg">
<path d="M16.5671 4.31642C16.3833 4.29995 16.2677 4.49128 16.3251 4.6561C16.4295 4.9563 16.6364 5.56506 16.7352 5.95038C16.7107 5.97781 16.6776 6.01581 16.6366 6.06431C16.5436 6.17456 16.4108 6.33911 16.2499 6.55804C15.9283 6.99582 15.4947 7.65088 15.0438 8.5233C14.8635 8.87227 14.8726 9.32063 15.1675 9.61291C15.3109 9.75491 15.4983 9.9121 15.7337 10.0559C15.9844 10.2092 16.2864 10.1773 16.5197 10.0246C16.918 9.76402 17.6224 9.29109 18.2611 8.80077C18.284 8.78319 18.3092 8.77003 18.3354 8.76138C18.4337 8.69604 18.5597 8.6803 18.675 8.73064L18.6756 8.73092C18.6774 8.73156 18.6815 8.73322 18.6879 8.73561C18.7005 8.74021 18.7216 8.74748 18.7494 8.75512C18.8059 8.77067 18.8859 8.78705 18.9779 8.79C19.1586 8.7958 19.3741 8.75126 19.5682 8.55266C19.7142 8.40321 19.9481 8.40634 20.0904 8.55965C20.2328 8.71288 20.2299 8.95832 20.0839 9.10777C19.7097 9.49061 19.2789 9.57528 18.9554 9.56497C18.829 9.56092 18.7172 9.54251 18.6279 9.52172C18.5743 9.58282 18.5148 9.64623 18.45 9.71277C18.3755 9.78924 18.2944 9.8694 18.2089 9.95397C17.999 10.1614 17.7627 10.395 17.5333 10.6636C16.9762 11.316 16.4424 12.1926 16.2957 13.5182C16.8594 13.4985 17.6234 13.4818 18.5949 13.4818C19.5269 13.4818 20.2682 13.4971 20.8246 13.5158C21.062 12.9165 21.5539 12.5763 21.8543 12.4166C22.0305 12.3229 22.1654 12.1328 22.1646 11.9092C22.1579 10.063 22.0769 8.48704 21.5631 7.30899C21.3044 6.71587 20.9356 6.22205 20.4124 5.84473C19.8963 5.47276 19.2364 5.21858 18.3966 5.089C18.3919 5.0855 18.3865 5.08145 18.3806 5.07704C18.3539 5.05734 18.315 5.02937 18.2657 4.99568C18.1671 4.92841 18.026 4.83804 17.8555 4.745C17.5161 4.55993 17.0514 4.35968 16.5671 4.31642Z" fill="#E69F69"/>
<path fill-rule="evenodd" clip-rule="evenodd" d="M22.1651 15.3791C22.1651 15.4486 22.138 15.5476 22.0988 15.628C22.0788 15.669 22.0524 15.7122 22.0186 15.7469C21.9865 15.7799 21.9335 15.8191 21.8618 15.8191H16.0034C15.9317 15.8191 15.8788 15.7799 15.8466 15.7469C15.8129 15.7122 15.7865 15.669 15.7665 15.628C15.7273 15.5476 15.7002 15.4486 15.7002 15.3791C15.7002 15.0663 15.8285 14.8167 16.0448 14.6445C16.2584 14.4743 16.5495 14.3861 16.8678 14.3761C17.372 14.3602 18.0581 14.3467 18.9326 14.3467C19.8071 14.3467 20.4932 14.3602 20.9975 14.3761C21.3158 14.3861 21.6068 14.4743 21.8205 14.6445C22.0367 14.8167 22.1651 15.0663 22.1651 15.3791Z" fill="#E69F69"/>
<path d="M12.8128 5.69613C13.9791 5.69613 14.9246 4.66606 14.9246 3.39543C14.9246 2.12479 13.9791 1.09473 12.8128 1.09473C11.6464 1.09473 10.7009 2.12479 10.7009 3.39543C10.7009 4.66606 11.6464 5.69613 12.8128 5.69613Z" fill="#514AF3"/>
<path d="M20.8377 18.607L21.3495 17.5415C21.4109 17.4349 21.451 17.316 21.4674 17.1921C21.4839 17.0683 21.4762 16.9421 21.4449 16.8215C21.4137 16.701 21.3595 16.5885 21.2858 16.4913C21.212 16.3941 21.1203 16.3141 21.0163 16.2564C20.9124 16.1987 20.7983 16.1646 20.6815 16.156C20.5646 16.1473 20.4473 16.1646 20.3369 16.2066C20.2265 16.2486 20.1254 16.3144 20.0399 16.3999C19.9544 16.4854 19.8863 16.5888 19.8399 16.7037C19.8399 16.7037 19.2855 17.8329 19.2599 17.8512C19.2236 17.8822 19.1785 17.8991 19.132 17.8991C19.0855 17.8991 19.0403 17.8822 19.004 17.8512L15.7631 13.1157C15.7319 13.0673 15.6911 13.0269 15.6437 12.9973C15.7475 12.7577 15.7826 12.4907 15.7447 12.2298C15.7068 11.9689 15.5974 11.7259 15.4304 11.5311L11.5925 6.97785C11.4599 6.82011 11.2947 6.69753 11.11 6.61977C10.9254 6.54191 10.7263 6.51109 10.5285 6.52967C10.3308 6.54826 10.1398 6.61563 9.97064 6.72661C9.80152 6.8376 9.65894 6.98908 9.55404 7.16909C5.86958 13.5437 5.89518 13.5437 5.83553 13.744C5.7683 13.9074 5.73623 14.0848 5.74166 14.2632V16.7219C5.74072 16.9614 5.68201 17.1966 5.57108 17.4049L3.72885 20.8563C3.61084 21.1628 3.60128 21.5047 3.70187 21.8182C3.80246 22.1317 4.00632 22.3956 4.27561 22.5605C4.5448 22.7253 4.86098 22.7802 5.16526 22.7146C5.46954 22.649 5.74106 22.4676 5.92932 22.2041L7.76301 18.7435C8.09643 18.1225 8.27279 17.4195 8.27477 16.7037V16.2939L9.42612 16.8039C9.73307 16.9274 9.98383 17.1719 10.1267 17.4872C10.2695 17.8024 10.2935 18.1641 10.1937 18.4976L9.06797 21.0748C8.95488 21.419 8.97444 21.797 9.12236 22.1259C9.27036 22.4546 9.53456 22.7071 9.85685 22.8278C10.1791 22.9486 10.5333 22.9277 10.8412 22.7698C11.1491 22.6118 11.3856 22.3297 11.4987 21.9855L12.5989 19.4084C12.902 18.4257 12.8473 17.3571 12.4459 16.4155C12.0445 15.4739 11.3257 14.7282 10.4326 14.3268L9.11908 13.6985C9.09064 13.6872 9.06504 13.6689 9.04435 13.6452C9.02366 13.6215 9.00832 13.593 8.9997 13.5619C8.97884 13.5002 8.97884 13.4325 8.9997 13.3707L10.7055 10.4019C10.7239 10.3728 10.7479 10.348 10.7758 10.3291C10.8037 10.3104 10.8349 10.2979 10.8675 10.2927C10.9011 10.2915 10.9347 10.2982 10.9656 10.3124C10.9966 10.3266 11.0242 10.3478 11.0466 10.3746L13.5456 13.3342C13.7343 13.5532 13.9868 13.6976 14.262 13.744C14.2756 13.8975 14.3255 14.0448 14.407 14.1721L17.665 18.9257C17.8416 19.1712 18.069 19.3696 18.3295 19.5055C18.5899 19.6414 18.8762 19.7109 19.1661 19.7088C19.5121 19.704 19.8503 19.5989 20.1447 19.405C20.4392 19.2109 20.6787 18.9351 20.8377 18.607Z" fill="#514AF3"/>
<path d="M22.1639 19.9197C22.1649 19.6189 22.0823 19.3246 21.9264 19.074C21.7706 18.8234 21.5484 18.6278 21.2884 18.5122C21.0282 18.3965 20.7419 18.366 20.4654 18.4244C20.1891 18.4829 19.9352 18.6275 19.736 18.8403C19.5367 19.053 19.4012 19.3241 19.3464 19.6191C19.2917 19.9143 19.3203 20.22 19.4287 20.4977C19.5369 20.7754 19.7201 21.0125 19.9548 21.1789C20.1895 21.3453 20.4652 21.4336 20.747 21.4325C21.1224 21.431 21.4819 21.271 21.7473 20.9877C22.0127 20.7043 22.1625 20.3205 22.1639 19.9197Z" fill="#E69F69"/>
</svg>
