<svg width="25" height="24" viewBox="0 0 25 24" fill="none" xmlns="http://www.w3.org/2000/svg">
<mask id="mask0_7_977" style="mask-type:luminance" maskUnits="userSpaceOnUse" x="3" y="1" width="20" height="22">
<path d="M22.4189 1.83594H3.37891V22.1637H22.4189V1.83594Z" fill="white"/>
</mask>
<g mask="url(#mask0_7_977)">
<path d="M13.509 20.6307C12.0729 19.7127 10.9582 18.3173 10.3357 16.6584H11.9224C12.1328 16.6584 12.3346 16.5692 12.4833 16.4103C12.6321 16.2514 12.7157 16.0361 12.7157 15.8115C12.7157 15.5868 12.6321 15.3714 12.4833 15.2125C12.3346 15.0537 12.1328 14.9645 11.9224 14.9645H9.81204C9.59539 13.9934 9.48889 12.9981 9.4947 11.9999C9.49234 11.1469 9.56936 10.2957 9.7248 9.45897C18.4515 9.45897 20.6331 9.45897 21.2202 9.45897C21.3482 9.45426 21.473 9.41648 21.5844 9.34906C21.6956 9.28165 21.79 9.18644 21.8593 9.07159C21.9287 8.95675 21.9711 8.82571 21.9827 8.68961C21.9943 8.55352 21.975 8.41651 21.9263 8.29018C21.2249 6.38006 19.9986 4.74132 18.4083 3.5893C16.8182 2.43739 14.9388 1.82618 13.0171 1.83606C7.05123 2.25111 3.83831 6.99426 3.56852 11.2885C3.47708 12.6797 3.65479 14.0761 4.09056 15.3909C4.52644 16.7056 5.21102 17.9105 6.1017 18.9306C6.9925 19.9507 8.07036 20.7642 9.26827 21.3204C10.4662 21.8767 11.7584 22.1637 13.0648 22.1638C13.2515 22.1675 13.4334 22.1007 13.5785 21.9751C13.7236 21.8496 13.8226 21.6735 13.8581 21.4777C13.8831 21.3157 13.8635 21.1493 13.8014 20.9988C13.7394 20.8485 13.6379 20.7206 13.509 20.6307ZM8.18578 14.9645H5.63915C5.01535 13.1981 4.96511 11.2594 5.49629 9.45897H8.13813C8.00302 10.2983 7.93675 11.1485 7.93977 11.9999C7.92955 12.9944 8.01195 13.9874 8.18578 14.9645ZM13.0648 3.67405C14.3954 4.69159 15.403 6.1189 15.9525 7.76499H10.1691C10.718 6.11626 11.7289 4.68792 13.0648 3.67405ZM19.935 7.76499H17.6581C17.2578 6.39671 16.6111 5.12502 15.7541 4.02135C17.5242 4.69159 19.0086 6.02082 19.935 7.76499ZM10.415 4.03823C9.55311 5.13455 8.9008 6.40073 8.49515 7.76499H6.20239C7.1432 6.04069 8.61951 4.72225 10.3754 4.03823H10.415ZM6.4483 16.6584H8.62209C9.01698 17.8599 9.61077 18.9759 10.3754 19.9532C8.76817 19.3349 7.39094 18.1794 6.4483 16.6584Z" fill="#E69F69"/>
<path d="M18.0626 10.5645C16.9642 10.5645 15.9109 11.0345 15.1341 11.8712C14.3575 12.7078 13.9211 13.8426 13.9211 15.0258C13.9211 17.8543 17.6153 21.8605 17.7727 22.0301C17.8103 22.072 17.8553 22.1056 17.9051 22.1285C17.9549 22.1515 18.0085 22.1636 18.0626 22.1639C18.1746 22.1636 18.2818 22.1154 18.3608 22.0301C18.5099 21.8605 22.2041 17.8543 22.2041 15.0258C22.2041 13.8426 21.7678 12.7078 20.9911 11.8712C20.2145 11.0345 19.161 10.5645 18.0626 10.5645ZM18.0626 13.4643C18.3478 13.4713 18.6248 13.5688 18.8588 13.7447C19.0927 13.9205 19.2733 14.1667 19.378 14.4526C19.4826 14.7384 19.5067 15.0511 19.4471 15.3517C19.3874 15.6523 19.2468 15.9271 19.0428 16.142C18.8389 16.3567 18.5806 16.5019 18.3004 16.5593C18.0201 16.6167 17.7303 16.5838 17.4674 16.4647C17.2044 16.3455 16.98 16.1454 16.8221 15.8894C16.6643 15.6335 16.5801 15.3331 16.58 15.0258C16.58 14.8177 16.6185 14.6116 16.6934 14.4198C16.7683 14.228 16.8781 14.0543 17.0162 13.9089C17.1543 13.7634 17.318 13.6491 17.4978 13.5727C17.6774 13.4965 17.8695 13.4596 18.0626 13.4643Z" fill="#514AF3"/>
</g>
</svg>
