<svg width="25" height="25" viewBox="0 0 25 25" fill="none" xmlns="http://www.w3.org/2000/svg">
<g clip-path="url(#clip0_7_398)">
<mask id="mask0_7_398" style="mask-type:luminance" maskUnits="userSpaceOnUse" x="0" y="0" width="25" height="25">
<path d="M24.8418 0.78125H0.841797V24.7812H24.8418V0.78125Z" fill="white"/>
</mask>
<g mask="url(#mask0_7_398)">
<path fill-rule="evenodd" clip-rule="evenodd" d="M12.8423 1.53125C11.5112 1.53125 10.7347 1.799 10.3314 2.01033C10.0253 2.17069 9.84639 2.42541 9.74444 2.63828C9.59954 2.94086 9.28164 3.62297 9.00424 4.36257C8.46379 4.60935 7.95124 4.90665 7.47264 5.24842C6.69264 5.11861 5.94189 5.05279 5.60708 5.02697C5.37176 5.00882 5.06169 5.03643 4.76979 5.22131C4.38509 5.46496 3.76502 6.00345 3.09945 7.15625C2.43388 8.30905 2.27757 9.1153 2.25891 9.57025C2.24476 9.9155 2.37588 10.1979 2.50926 10.3926C2.69903 10.6696 3.13144 11.2868 3.63388 11.8975C3.60631 12.1883 3.59221 12.4832 3.59221 12.7812C3.59221 13.0793 3.60631 13.3741 3.63387 13.6649C3.13141 14.2756 2.69898 14.8928 2.5092 15.1699C2.37583 15.3646 2.2447 15.6471 2.25886 15.9923C2.27752 16.4473 2.43383 17.2535 3.0994 18.4062C3.76497 19.559 4.38504 20.0976 4.76973 20.3412C5.06164 20.5261 5.3717 20.5536 5.60702 20.5355C5.94184 20.5096 6.69259 20.444 7.47264 20.3141C7.95124 20.6559 8.46379 20.9531 9.00424 21.1999C9.28164 21.9395 9.59954 22.6216 9.74449 22.9242C9.84639 23.1371 10.0253 23.3918 10.3314 23.5522C10.7347 23.7636 11.5112 24.0312 12.8423 24.0312C14.1735 24.0312 14.9498 23.7636 15.3532 23.5522C15.6593 23.3918 15.8382 23.1371 15.9401 22.9242C16.0851 22.6216 16.403 21.9396 16.6804 21.1999C17.2208 20.9532 17.7333 20.6558 18.2118 20.3141C18.9918 20.444 19.7426 20.5096 20.0774 20.5355C20.3127 20.5536 20.6228 20.5261 20.9147 20.3412C21.2994 20.0976 21.9195 19.559 22.5851 18.4062C23.2506 17.2535 23.4069 16.4473 23.4256 15.9923C23.4398 15.6471 23.3086 15.3646 23.1753 15.1699C22.9855 14.8928 22.553 14.2756 22.0506 13.6649C22.0781 13.3741 22.0922 13.0793 22.0922 12.7812C22.0922 12.4832 22.0781 12.1883 22.0506 11.8975C22.553 11.2868 22.9854 10.6696 23.1752 10.3926C23.3086 10.1979 23.4397 9.9155 23.4255 9.57025C23.4069 9.1153 23.2506 8.30905 22.585 7.15625C21.9194 6.00345 21.2994 5.46496 20.9147 5.22131C20.6228 5.03643 20.3127 5.00882 20.0774 5.02697C19.7426 5.05279 18.9918 5.11861 18.2118 5.24842C17.7333 4.90669 17.2208 4.60942 16.6804 4.36265C16.403 3.62301 16.0851 2.94088 15.9401 2.63828C15.8382 2.42541 15.6593 2.17069 15.3532 2.01033C14.9498 1.799 14.1735 1.53125 12.8423 1.53125Z" fill="#514AF3"/>
<path fill-rule="evenodd" clip-rule="evenodd" d="M15.8414 11.2812C15.8414 12.2531 15.3794 13.1168 14.663 13.6651C15.7027 14.1258 16.5352 14.969 16.9822 16.0162C17.0511 16.1776 17.0179 16.364 16.8993 16.4935C15.8937 17.5923 14.4478 18.2812 12.841 18.2812C11.2346 18.2812 9.78902 17.5926 8.78347 16.4943C8.66492 16.3649 8.63167 16.1785 8.70057 16.017C9.14737 14.9695 9.98002 14.1261 11.0199 13.6652C10.3035 13.1169 9.84147 12.2531 9.84147 11.2812C9.84147 9.6244 11.1846 8.28125 12.8414 8.28125C14.4983 8.28125 15.8414 9.6244 15.8414 11.2812Z" fill="#E69F69"/>
</g>
</g>
<defs>
<clipPath id="clip0_7_398">
<rect width="24" height="24" fill="white" transform="translate(0.841797 0.78125)"/>
</clipPath>
</defs>
</svg>
