
<svg width="201" height="241" viewBox="0 0 201 241" fill="none" xmlns="http://www.w3.org/2000/svg">
<path d="M194.719 228.438H192.625C191.514 228.438 190.449 227.996 189.664 227.211C188.879 226.426 188.438 225.361 188.438 224.25V190.75C188.438 189.639 188.879 188.574 189.664 187.789C190.449 187.004 191.514 186.562 192.625 186.562H194.719C196.385 186.562 197.982 185.901 199.16 184.723C200.338 183.545 201 181.947 201 180.281C201 178.615 200.338 177.018 199.16 175.84C197.982 174.662 196.385 174 194.719 174H6.28125C4.61536 174 3.0177 174.662 1.83974 175.84C0.661773 177.018 0 178.615 0 180.281C0 181.947 0.661773 183.545 1.83974 184.723C3.0177 185.901 4.61536 186.562 6.28125 186.562H8.375C9.48559 186.562 10.5507 187.004 11.336 187.789C12.1213 188.574 12.5625 189.639 12.5625 190.75V224.25C12.5625 225.361 12.1213 226.426 11.336 227.211C10.5507 227.996 9.48559 228.438 8.375 228.438H6.28125C4.61536 228.438 3.0177 229.099 1.83974 230.277C0.661773 231.455 0 233.053 0 234.719C0 236.385 0.661773 237.982 1.83974 239.16C3.0177 240.338 4.61536 241 6.28125 241H194.719C196.385 241 197.982 240.338 199.16 239.16C200.338 237.982 201 236.385 201 234.719C201 233.053 200.338 231.455 199.16 230.277C197.982 229.099 196.385 228.438 194.719 228.438ZM50.25 217.969C50.25 219.635 49.5882 221.232 48.4103 222.41C47.2323 223.588 45.6346 224.25 43.9688 224.25C42.3029 224.25 40.7052 223.588 39.5272 222.41C38.3493 221.232 37.6875 219.635 37.6875 217.969V197.031C37.6875 195.365 38.3493 193.768 39.5272 192.59C40.7052 191.412 42.3029 190.75 43.9688 190.75C45.6346 190.75 47.2323 191.412 48.4103 192.59C49.5882 193.768 50.25 195.365 50.25 197.031V217.969ZM87.9375 217.969C87.9375 219.635 87.2757 221.232 86.0978 222.41C84.9198 223.588 83.3221 224.25 81.6562 224.25C79.9904 224.25 78.3927 223.588 77.2147 222.41C76.0368 221.232 75.375 219.635 75.375 217.969V197.031C75.375 195.365 76.0368 193.768 77.2147 192.59C78.3927 191.412 79.9904 190.75 81.6562 190.75C83.3221 190.75 84.9198 191.412 86.0978 192.59C87.2757 193.768 87.9375 195.365 87.9375 197.031V217.969ZM125.625 217.969C125.625 219.635 124.963 221.232 123.785 222.41C122.607 223.588 121.01 224.25 119.344 224.25C117.678 224.25 116.08 223.588 114.902 222.41C113.724 221.232 113.062 219.635 113.062 217.969V197.031C113.062 195.365 113.724 193.768 114.902 192.59C116.08 191.412 117.678 190.75 119.344 190.75C121.01 190.75 122.607 191.412 123.785 192.59C124.963 193.768 125.625 195.365 125.625 197.031V217.969ZM163.312 217.969C163.312 219.635 162.651 221.232 161.473 222.41C160.295 223.588 158.697 224.25 157.031 224.25C155.365 224.25 153.768 223.588 152.59 222.41C151.412 221.232 150.75 219.635 150.75 217.969V197.031C150.75 195.365 151.412 193.768 152.59 192.59C153.768 191.412 155.365 190.75 157.031 190.75C158.697 190.75 160.295 191.412 161.473 192.59C162.651 193.768 163.312 195.365 163.312 197.031V217.969Z" fill="#514AF3"/>
<path d="M51.7575 102.812H149.242C149.544 102.773 149.834 102.67 150.094 102.512C150.354 102.353 150.577 102.142 150.75 101.891C150.898 101.592 150.975 101.262 150.975 100.928C150.975 100.594 150.898 100.265 150.75 99.965C147.516 91.593 142.26 84.1521 135.449 78.3066C128.639 72.4611 120.488 68.3928 111.722 66.465C110.862 66.1896 110.117 65.6382 109.602 64.8962C109.088 64.1543 108.832 63.2633 108.875 62.3613V48.375C108.875 46.1538 107.993 44.0236 106.422 42.453C104.851 40.8824 102.721 40 100.5 40C98.2788 40 96.1486 40.8824 94.578 42.453C93.0073 44.0236 92.125 46.1538 92.125 48.375V62.3613C92.1451 63.319 91.8295 64.2535 91.233 65.003C90.6365 65.7525 89.7965 66.2697 88.8587 66.465C80.1697 68.4549 72.1034 72.5513 65.3706 78.3932C58.6377 84.2351 53.445 91.6433 50.25 99.965C50.1022 100.265 50.0254 100.594 50.0254 100.928C50.0254 101.262 50.1022 101.592 50.25 101.891C50.4229 102.142 50.6464 102.353 50.9061 102.512C51.1657 102.67 51.4558 102.773 51.7575 102.812Z" fill="#514AF3"/>
<path d="M35.5938 123.75H41.875C42.9856 123.75 44.0507 124.191 44.836 124.976C45.6213 125.762 46.0625 126.827 46.0625 127.938V161.438C46.0625 162.548 46.5037 163.613 47.289 164.399C48.0743 165.184 49.1394 165.625 50.25 165.625H150.75C151.861 165.625 152.926 165.184 153.711 164.399C154.496 163.613 154.938 162.548 154.938 161.438V127.938C154.938 126.827 155.379 125.762 156.164 124.976C156.949 124.191 158.014 123.75 159.125 123.75H165.406C167.072 123.75 168.67 123.088 169.848 121.91C171.026 120.732 171.688 119.135 171.688 117.469C171.688 115.803 171.026 114.205 169.848 113.027C168.67 111.849 167.072 111.188 165.406 111.188H35.5938C33.9279 111.188 32.3302 111.849 31.1522 113.027C29.9743 114.205 29.3125 115.803 29.3125 117.469C29.3125 119.135 29.9743 120.732 31.1522 121.91C32.3302 123.088 33.9279 123.75 35.5938 123.75ZM113.062 127.938C113.062 126.272 113.724 124.674 114.902 123.496C116.08 122.318 117.678 121.656 119.344 121.656C121.01 121.656 122.607 122.318 123.785 123.496C124.963 124.674 125.625 126.272 125.625 127.938V148.875C125.625 150.541 124.963 152.139 123.785 153.317C122.607 154.494 121.01 155.156 119.344 155.156C117.678 155.156 116.08 154.494 114.902 153.317C113.724 152.139 113.062 150.541 113.062 148.875V127.938ZM75.375 127.938C75.375 126.272 76.0368 124.674 77.2147 123.496C78.3927 122.318 79.9904 121.656 81.6562 121.656C83.3221 121.656 84.9198 122.318 86.0978 123.496C87.2757 124.674 87.9375 126.272 87.9375 127.938V148.875C87.9375 150.541 87.2757 152.139 86.0978 153.317C84.9198 154.494 83.3221 155.156 81.6562 155.156C79.9904 155.156 78.3927 154.494 77.2147 153.317C76.0368 152.139 75.375 150.541 75.375 148.875V127.938Z" fill="#E69F69"/>
<rect x="96" y="23" width="8" height="15" rx="1" fill="#E69F69"/>
<rect x="95.5" y="0.5" width="39" height="21" rx="1.5" fill="#514AF3" stroke="white"/>
</svg>
