<svg width="25" height="24" viewBox="0 0 25 24" fill="none" xmlns="http://www.w3.org/2000/svg">
<path d="M18.0419 14.1426H11.5748C11.3574 14.1426 11.149 14.2348 10.9951 14.3988C10.8415 14.5629 10.7551 14.7855 10.7551 15.0176C10.7551 15.2497 10.8415 15.4723 10.9951 15.6364C11.149 15.8006 11.3574 15.8927 11.5748 15.8927H18.0419C18.2593 15.8927 18.4678 15.8006 18.6216 15.6364C18.7753 15.4723 18.8617 15.2497 18.8617 15.0176C18.8617 14.7855 18.7753 14.5629 18.6216 14.3988C18.4678 14.2348 18.2593 14.1426 18.0419 14.1426Z" fill="#E69F69"/>
<path d="M18.0419 10.9697H11.5748C11.3574 10.9697 11.149 11.0619 10.9951 11.226C10.8415 11.3901 10.7551 11.6126 10.7551 11.8447C10.7551 12.0768 10.8415 12.2994 10.9951 12.4635C11.149 12.6277 11.3574 12.7199 11.5748 12.7199H18.0419C18.2593 12.7199 18.4678 12.6277 18.6216 12.4635C18.7753 12.2994 18.8617 12.0768 18.8617 11.8447C18.8617 11.6126 18.7753 11.3901 18.6216 11.226C18.4678 11.0619 18.2593 10.9697 18.0419 10.9697Z" fill="#E69F69"/>
<path d="M18.0419 17.3164H11.5748C11.3574 17.3164 11.149 17.4086 10.9951 17.5727C10.8415 17.7367 10.7551 17.9593 10.7551 18.1914C10.7551 18.4235 10.8415 18.6461 10.9951 18.8102C11.149 18.9744 11.3574 19.0666 11.5748 19.0666H18.0419C18.2593 19.0666 18.4678 18.9744 18.6216 18.8102C18.7753 18.6461 18.8617 18.4235 18.8617 18.1914C18.8617 17.9593 18.7753 17.7367 18.6216 17.5727C18.4678 17.4086 18.2593 17.3164 18.0419 17.3164Z" fill="#E69F69"/>
<path d="M20.4262 2H4.57379C4.15643 2 3.75614 2.17691 3.46093 2.49208C3.16585 2.80712 3.00002 3.23449 3.00002 3.6802V7.82814C2.99899 8.04949 3.03892 8.26889 3.11751 8.47381C3.19609 8.67873 3.31178 8.86489 3.45809 9.02192C3.60427 9.17882 3.77824 9.30343 3.96966 9.38843C4.16109 9.4733 4.36647 9.51704 4.57379 9.51704H7.5246V20.6047C7.5268 21.0511 7.69444 21.4784 7.99081 21.7933C8.28731 22.1082 8.68838 22.2849 9.10664 22.2849H20.4262C20.8436 22.2849 21.2439 22.108 21.5391 21.7928C21.8342 21.4777 22 21.0504 22 20.6047V3.6802C22 3.23449 21.8342 2.80712 21.5391 2.49208C21.2439 2.17691 20.8436 2 20.4262 2ZM20.3607 20.5347H9.1639V9.51704H14.7623C14.9797 9.51704 15.1882 9.42486 15.3419 9.26079C15.4957 9.09671 15.582 8.87413 15.582 8.64203V3.75017H20.3607V20.5347Z" fill="#514AF3"/>
<path d="M16.4907 5.53504L17.671 7.21525C17.7092 7.26962 17.7587 7.31364 17.8155 7.344C17.8725 7.37435 17.9352 7.39022 17.999 7.39022C18.0626 7.39022 18.1252 7.37435 18.1822 7.344C18.2391 7.31364 18.2886 7.26962 18.3267 7.21525L19.5071 5.52621C19.5553 5.46329 19.585 5.38642 19.5922 5.30542C19.5996 5.22442 19.5842 5.14287 19.548 5.07125C19.5143 4.99756 19.4618 4.9356 19.3966 4.89227C19.3313 4.84894 19.2561 4.82603 19.1793 4.82617H16.8186C16.7417 4.82603 16.6665 4.84894 16.6012 4.89227C16.536 4.9356 16.4835 4.99756 16.4497 5.07125C16.4139 5.14452 16.3988 5.22732 16.4061 5.30956C16.4133 5.39181 16.4428 5.47019 16.4907 5.53504Z" fill="#E69F69"/>
</svg>
