<svg width="25" height="25" viewBox="0 0 25 25" fill="none" xmlns="http://www.w3.org/2000/svg">
<g clip-path="url(#clip0_7_222)">
<path d="M5.28533 3.96945C5.26764 3.90294 5.23171 3.8446 5.18269 3.80311C5.13366 3.76163 5.07423 3.73926 5.01323 3.73926C4.95223 3.73926 4.8928 3.76163 4.84378 3.80311C4.79476 3.8446 4.75882 3.90294 4.74113 3.96945L3.69418 8.07734C3.67538 8.15203 3.67207 8.2308 3.68451 8.30723C3.69685 8.38365 3.72459 8.45578 3.76559 8.518C3.80651 8.58023 3.85949 8.6308 3.92049 8.66574C3.9814 8.70069 4.04857 8.71908 4.11685 8.71949H4.6488C4.68105 8.71949 4.71192 8.7341 4.73477 8.76005C4.75753 8.786 4.77034 8.82125 4.77034 8.85793V10.1036C4.77034 10.177 4.79586 10.2474 4.84147 10.2993C4.88699 10.3513 4.94882 10.3804 5.01323 10.3804C5.07764 10.3804 5.13947 10.3513 5.18499 10.2993C5.2306 10.2474 5.25612 10.177 5.25612 10.1036V8.85793C5.25612 8.82125 5.26893 8.786 5.29169 8.76005C5.31454 8.7341 5.34541 8.71949 5.37766 8.71949H5.90961C5.97789 8.71908 6.04507 8.70069 6.10597 8.66574C6.16697 8.6308 6.21996 8.58023 6.26087 8.518C6.30187 8.45578 6.32961 8.38365 6.34196 8.30723C6.3544 8.2308 6.35108 8.15203 6.33228 8.07734L5.28533 3.96945Z" fill="#514AF3"/>
<path d="M8.00751 3.73926C7.59857 3.73916 7.20391 3.90048 6.89956 4.19218C6.59521 4.48388 6.40253 4.88551 6.35849 5.31974C6.31453 5.75407 6.42234 6.19034 6.66127 6.54488C6.90021 6.89931 7.25339 7.14707 7.65293 7.24035C7.6815 7.24669 7.70702 7.26355 7.72527 7.28786C7.74342 7.31228 7.753 7.34263 7.75236 7.37379V9.18835C7.75236 9.26068 7.77927 9.32996 7.82709 9.38104C7.875 9.43213 7.93987 9.46084 8.00751 9.46084C8.07514 9.46084 8.14001 9.43213 8.18792 9.38104C8.23575 9.32996 8.26265 9.26068 8.26265 9.18835V7.37379C8.26201 7.34263 8.27159 7.31228 8.28975 7.28786C8.30799 7.26355 8.33351 7.24669 8.36208 7.24035C8.76162 7.14707 9.11481 6.89931 9.35374 6.54488C9.59267 6.19034 9.70048 5.75407 9.65653 5.31974C9.61248 4.88551 9.41981 4.48388 9.11545 4.19218C8.8111 3.90048 8.41644 3.73916 8.00751 3.73926Z" fill="#514AF3"/>
<path d="M12.5155 17.4337C12.4997 17.2365 12.4375 17.0578 12.3425 16.9368C12.2475 16.8156 12.1274 16.7619 12.0086 16.7876C11.2754 16.9529 10.7684 15.6606 10.7639 15.6531C10.7238 15.541 10.6669 15.4481 10.5987 15.3835C10.5304 15.3191 10.4533 15.2852 10.3747 15.2852C10.2962 15.2852 10.219 15.3191 10.1508 15.3835C10.0825 15.4481 10.0256 15.541 9.98549 15.6531C9.85888 16.0035 9.68169 16.2962 9.46994 16.5048C9.25819 16.7133 9.01852 16.8311 8.77259 16.8477C8.5543 16.8381 8.34135 16.733 8.1554 16.543C7.96945 16.353 7.81705 16.085 7.71348 15.7658C7.68012 15.6467 7.62852 15.5443 7.56393 15.4687C7.49924 15.3929 7.42378 15.3468 7.34508 15.3346C7.2663 15.3224 7.18696 15.3447 7.11509 15.3993C7.04313 15.4538 6.98102 15.5387 6.93504 15.6456C6.7725 15.9934 6.56747 16.2802 6.33352 16.4874C6.09956 16.6945 5.84184 16.8173 5.57729 16.8477C5.33403 16.8165 5.09842 16.6925 4.88879 16.4853C4.67916 16.278 4.50123 15.9932 4.36881 15.6531C4.33039 15.5513 4.27778 15.4664 4.21539 15.4054C4.15301 15.3444 4.0828 15.3091 4.01056 15.3025C3.93822 15.2959 3.86607 15.3181 3.8001 15.3673C3.73403 15.4165 3.67616 15.4913 3.6311 15.5854C3.6311 15.5854 2.91606 16.9829 2.16472 16.8477C2.04792 16.8194 1.92907 16.8679 1.83353 16.983C1.73799 17.0981 1.67331 17.2706 1.6533 17.4638C1.63788 17.6609 1.67019 17.8603 1.74315 18.018C1.81611 18.1758 1.92378 18.279 2.04253 18.3052C2.1239 18.3164 2.20563 18.3164 2.2869 18.3052C2.87008 18.2596 3.42608 17.883 3.86193 17.2384C3.88303 17.2097 3.90938 17.194 3.93666 17.194C3.96384 17.194 3.99028 17.2097 4.01129 17.2384C4.42604 17.9246 4.98286 18.3223 5.56817 18.3503C6.15835 18.333 6.72707 17.9803 7.17941 17.3511C7.20005 17.3209 7.22659 17.3044 7.25414 17.3044C7.2816 17.3044 7.30813 17.3209 7.32877 17.3511C7.51758 17.668 7.74241 17.9195 7.99028 18.0911C8.23815 18.2626 8.50408 18.3507 8.77259 18.3503C9.33817 18.3471 9.88311 17.9965 10.3023 17.3661C10.3234 17.3374 10.3497 17.3217 10.377 17.3217C10.4042 17.3217 10.4306 17.3374 10.4516 17.3661C10.6702 17.7199 10.9335 17.9884 11.2223 18.1522C11.5112 18.316 11.8185 18.3707 12.1218 18.3127C12.1831 18.3009 12.2425 18.2684 12.296 18.2173C12.3496 18.166 12.3963 18.097 12.4332 18.0147C12.4701 17.9323 12.4964 17.8382 12.5106 17.7383C12.5247 17.6384 12.5264 17.5348 12.5155 17.4337Z" fill="#514AF3"/>
<path d="M23.8495 17.4337C23.8337 17.2365 23.7714 17.0578 23.6764 16.9368C23.5814 16.8156 23.4614 16.7619 23.3426 16.7876C22.6094 16.9529 22.1024 15.6606 22.0979 15.6531C22.0578 15.541 22.0009 15.4481 21.9327 15.3835C21.8644 15.3191 21.7873 15.2852 21.7087 15.2852C21.6302 15.2852 21.5529 15.3191 21.4848 15.3835C21.4165 15.4481 21.3595 15.541 21.3195 15.6531C21.1928 16.0035 21.0157 16.2962 20.8039 16.5048C20.5922 16.7133 20.3525 16.8311 20.1066 16.8477C19.8883 16.8381 19.6753 16.733 19.4894 16.543C19.3034 16.353 19.151 16.085 19.0474 15.7658C19.0141 15.6467 18.9625 15.5443 18.8979 15.4687C18.8332 15.3929 18.7577 15.3468 18.679 15.3346C18.6003 15.3224 18.5209 15.3447 18.4491 15.3993C18.3771 15.4538 18.315 15.5387 18.269 15.6456C18.1065 15.9934 17.9014 16.2802 17.6675 16.4874C17.4335 16.6945 17.1758 16.8173 16.9113 16.8477C16.668 16.8165 16.4324 16.6925 16.2228 16.4853C16.0131 16.278 15.8352 15.9932 15.7028 15.6531C15.6644 15.5513 15.6117 15.4664 15.5494 15.4054C15.487 15.3444 15.4168 15.3091 15.3445 15.3025C15.2722 15.2959 15.2 15.3181 15.1341 15.3673C15.068 15.4165 15.0101 15.4913 14.9651 15.5854C14.9651 15.5854 14.25 16.9829 13.4987 16.8477C13.3818 16.8194 13.2631 16.8679 13.1675 16.983C13.072 17.0981 13.0073 17.2706 12.9873 17.4638C12.9719 17.6609 13.0041 17.8603 13.0771 18.018C13.1501 18.1758 13.2577 18.279 13.3765 18.3052C13.4579 18.3164 13.5396 18.3164 13.6209 18.3052C14.204 18.2596 14.76 17.883 15.1959 17.2384C15.217 17.2097 15.2433 17.194 15.2706 17.194C15.2978 17.194 15.3242 17.2097 15.3453 17.2384C15.76 17.9246 16.3168 18.3223 16.9021 18.3503C17.4923 18.333 18.061 17.9803 18.5134 17.3511C18.534 17.3209 18.5606 17.3044 18.5881 17.3044C18.6156 17.3044 18.6421 17.3209 18.6627 17.3511C18.8515 17.668 19.0764 17.9195 19.3242 18.0911C19.5721 18.2626 19.838 18.3507 20.1066 18.3503C20.6721 18.3471 21.2171 17.9965 21.6362 17.3661C21.6573 17.3374 21.6837 17.3217 21.711 17.3217C21.7382 17.3217 21.7646 17.3374 21.7856 17.3661C22.0042 17.7199 22.2674 17.9884 22.5563 18.1522C22.8452 18.316 23.1525 18.3707 23.4557 18.3127C23.5171 18.3009 23.5764 18.2684 23.63 18.2173C23.6836 18.166 23.7302 18.097 23.7672 18.0147C23.804 17.9323 23.8304 17.8382 23.8446 17.7383C23.8587 17.6384 23.8603 17.5348 23.8495 17.4337Z" fill="#514AF3"/>
<path d="M12.5155 20.9064C12.4997 20.7092 12.4375 20.5305 12.3425 20.4094C12.2475 20.2882 12.1274 20.2346 12.0086 20.2602C11.2754 20.4255 10.7684 19.1333 10.7639 19.1257C10.7238 19.0137 10.6669 18.9208 10.5987 18.8562C10.5304 18.7917 10.4533 18.7578 10.3747 18.7578C10.2962 18.7578 10.219 18.7917 10.1508 18.8562C10.0825 18.9208 10.0256 19.0137 9.98549 19.1257C9.85888 19.4762 9.68169 19.7689 9.46994 19.9774C9.25819 20.186 9.01852 20.3038 8.77259 20.3203C8.5543 20.3107 8.34135 20.2057 8.1554 20.0156C7.96945 19.8257 7.81705 19.5576 7.71348 19.2384C7.68012 19.1194 7.62852 19.0169 7.56393 18.9413C7.49924 18.8656 7.42378 18.8194 7.34508 18.8073C7.2663 18.7951 7.18696 18.8174 7.11509 18.8719C7.04313 18.9265 6.98102 19.0114 6.93504 19.1183C6.7725 19.4661 6.56747 19.7529 6.33352 19.9601C6.09956 20.1672 5.84184 20.29 5.57729 20.3203C5.33403 20.2892 5.09842 20.1651 4.88879 19.9579C4.67916 19.7506 4.50123 19.4659 4.36881 19.1257C4.33039 19.024 4.27778 18.9391 4.21539 18.8781C4.15301 18.8171 4.0828 18.7817 4.01056 18.7752C3.93822 18.7685 3.86607 18.7907 3.8001 18.84C3.73403 18.8892 3.67616 18.964 3.6311 19.0581C3.6311 19.0581 2.91606 20.4556 2.16472 20.3203C2.04792 20.292 1.92907 20.3405 1.83353 20.4557C1.73799 20.5707 1.67331 20.7433 1.6533 20.9364C1.63788 21.1336 1.67019 21.3329 1.74315 21.4907C1.81611 21.6484 1.92378 21.7516 2.04253 21.7779C2.1239 21.789 2.20563 21.789 2.2869 21.7779C2.87008 21.7322 3.42608 21.3556 3.86193 20.711C3.88303 20.6823 3.90938 20.6667 3.93666 20.6667C3.96384 20.6667 3.99028 20.6823 4.01129 20.711C4.42604 21.3973 4.98286 21.795 5.56817 21.8229C6.15835 21.8057 6.72707 21.453 7.17941 20.8237C7.20005 20.7936 7.22659 20.777 7.25414 20.777C7.2816 20.777 7.30813 20.7936 7.32877 20.8237C7.51758 21.1406 7.74241 21.3922 7.99028 21.5637C8.23815 21.7353 8.50408 21.8234 8.77259 21.8229C9.33817 21.8198 9.88311 21.4691 10.3023 20.8387C10.3234 20.81 10.3497 20.7944 10.377 20.7944C10.4042 20.7944 10.4306 20.81 10.4516 20.8387C10.6702 21.1925 10.9335 21.4611 11.2223 21.6248C11.5112 21.7886 11.8185 21.8434 12.1218 21.7853C12.1831 21.7736 12.2425 21.7411 12.296 21.6899C12.3496 21.6386 12.3963 21.5697 12.4332 21.4873C12.4701 21.405 12.4964 21.3109 12.5106 21.2109C12.5247 21.111 12.5264 21.0074 12.5155 20.9064Z" fill="#514AF3"/>
<path d="M23.8495 20.9064C23.8337 20.7092 23.7714 20.5305 23.6764 20.4094C23.5814 20.2882 23.4614 20.2346 23.3426 20.2602C22.6094 20.4255 22.1024 19.1333 22.0979 19.1257C22.0578 19.0137 22.0009 18.9208 21.9327 18.8562C21.8644 18.7917 21.7873 18.7578 21.7087 18.7578C21.6302 18.7578 21.5529 18.7917 21.4848 18.8562C21.4165 18.9208 21.3595 19.0137 21.3195 19.1257C21.1928 19.4762 21.0157 19.7689 20.8039 19.9774C20.5922 20.186 20.3525 20.3038 20.1066 20.3203C19.8883 20.3107 19.6753 20.2057 19.4894 20.0156C19.3034 19.8257 19.151 19.5576 19.0474 19.2384C19.0141 19.1194 18.9625 19.0169 18.8979 18.9413C18.8332 18.8656 18.7577 18.8194 18.679 18.8073C18.6003 18.7951 18.5209 18.8174 18.4491 18.8719C18.3771 18.9265 18.315 19.0114 18.269 19.1183C18.1065 19.4661 17.9014 19.7529 17.6675 19.9601C17.4335 20.1672 17.1758 20.29 16.9113 20.3203C16.668 20.2892 16.4324 20.1651 16.2228 19.9579C16.0131 19.7506 15.8352 19.4659 15.7028 19.1257C15.6644 19.024 15.6117 18.9391 15.5494 18.8781C15.487 18.8171 15.4168 18.7817 15.3445 18.7752C15.2722 18.7685 15.2 18.7907 15.1341 18.84C15.068 18.8892 15.0101 18.964 14.9651 19.0581C14.9651 19.0581 14.25 20.4556 13.4987 20.3203C13.3818 20.292 13.2631 20.3405 13.1675 20.4557C13.072 20.5707 13.0073 20.7433 12.9873 20.9364C12.9719 21.1336 13.0041 21.3329 13.0771 21.4907C13.1501 21.6484 13.2577 21.7516 13.3765 21.7779C13.4579 21.789 13.5396 21.789 13.6209 21.7779C14.204 21.7322 14.76 21.3556 15.1959 20.711C15.217 20.6823 15.2433 20.6667 15.2706 20.6667C15.2978 20.6667 15.3242 20.6823 15.3453 20.711C15.76 21.3973 16.3168 21.795 16.9021 21.8229C17.4923 21.8057 18.061 21.453 18.5134 20.8237C18.534 20.7936 18.5606 20.777 18.5881 20.777C18.6156 20.777 18.6421 20.7936 18.6627 20.8237C18.8515 21.1406 19.0764 21.3922 19.3242 21.5637C19.5721 21.7353 19.838 21.8234 20.1066 21.8229C20.6721 21.8198 21.2171 21.4691 21.6362 20.8387C21.6573 20.81 21.6837 20.7944 21.711 20.7944C21.7382 20.7944 21.7646 20.81 21.7856 20.8387C22.0042 21.1925 22.2674 21.4611 22.5563 21.6248C22.8452 21.7886 23.1525 21.8434 23.4557 21.7853C23.5171 21.7736 23.5764 21.7411 23.63 21.6899C23.6836 21.6386 23.7302 21.5697 23.7672 21.4873C23.804 21.405 23.8304 21.3109 23.8446 21.2109C23.8587 21.111 23.8603 21.0074 23.8495 20.9064Z" fill="#514AF3"/>
<path d="M1.82066 13.7818C1.9137 13.8313 2.02137 13.8566 2.13054 13.8543H8.81995H8.99038L8.92977 13.7158C8.84355 13.5189 8.82006 13.3059 8.86176 13.0985C8.90346 12.8918 9.00847 12.6982 9.16621 12.5379C9.97773 11.7593 10.836 11.0177 11.7375 10.3162L11.8357 10.2398L11.7371 10.1637C10.8665 9.4918 9.77605 9.0682 8.6151 8.95091L8.6084 8.9502H8.60159C8.00244 8.9502 7.35442 9.13216 6.70417 9.41783C6.05275 9.70391 5.39111 10.0976 4.76259 10.5296C3.50637 11.3929 2.37266 12.4159 1.70535 13.0589C1.63221 13.126 1.5835 13.2104 1.56549 13.3015C1.54739 13.393 1.56116 13.4871 1.60502 13.5719L1.60542 13.5726L1.60583 13.5734C1.65241 13.6596 1.72714 13.7319 1.82066 13.7818Z" fill="#E69F69" stroke="white" stroke-width="0.5"/>
<path d="M9.07812 13.8542H9.07777C8.96007 13.8538 8.84496 13.8236 8.74689 13.7673C8.64975 13.7115 8.5734 13.6324 8.52736 13.5397C8.47615 13.4485 8.45806 13.346 8.47568 13.2456C8.49329 13.1448 8.54615 13.0511 8.62696 12.977C9.38386 12.2482 10.6637 11.0923 12.0814 10.1175C12.7905 9.62989 13.5367 9.18585 14.2714 8.8634C15.0049 8.54136 15.7348 8.33691 16.4094 8.33691C17.087 8.33691 17.799 8.5433 18.5019 8.8682C19.2056 9.19352 19.9075 9.64103 20.5669 10.1317C21.8859 11.1129 23.0454 12.2744 23.7232 12.999L23.7237 12.9996L23.7243 13.0002C23.7949 13.0781 23.8392 13.1714 23.8521 13.2699C23.865 13.3683 23.8461 13.4679 23.7975 13.5576L23.797 13.5585L23.7966 13.5593C23.7461 13.6481 23.6676 13.7228 23.5705 13.7748C23.4734 13.8269 23.3614 13.8544 23.2472 13.8542C23.2472 13.8542 23.2471 13.8542 23.247 13.8542M9.07812 13.8542L8.63413 13.497C8.67089 13.5724 8.73267 13.6366 8.81161 13.682C8.89054 13.7274 8.98321 13.7517 9.07812 13.752H23.2472L23.247 13.8542M9.07812 13.8542H23.247ZM9.07812 13.8542H23.247Z" fill="#E69F69"/>
<path d="M9.07812 13.8542H9.07777C8.96007 13.8538 8.84496 13.8236 8.74689 13.7673C8.64975 13.7115 8.5734 13.6324 8.52736 13.5397C8.47615 13.4485 8.45806 13.346 8.47568 13.2456C8.49329 13.1448 8.54615 13.0511 8.62696 12.977C9.38386 12.2482 10.6637 11.0923 12.0814 10.1175C12.7905 9.62989 13.5367 9.18585 14.2714 8.8634C15.0049 8.54136 15.7348 8.33691 16.4094 8.33691C17.087 8.33691 17.799 8.5433 18.5019 8.8682C19.2056 9.19352 19.9075 9.64103 20.5669 10.1317C21.8859 11.1129 23.0454 12.2744 23.7232 12.999L23.7237 12.9996L23.7243 13.0002C23.7949 13.0781 23.8392 13.1714 23.8521 13.2699C23.865 13.3683 23.8461 13.4679 23.7975 13.5576L23.797 13.5585L23.7966 13.5593C23.7461 13.6481 23.6676 13.7228 23.5705 13.7748C23.4734 13.8269 23.3614 13.8544 23.2472 13.8542C23.2472 13.8542 23.2471 13.8542 23.247 13.8542M9.07812 13.8542L8.63413 13.497C8.67089 13.5724 8.73267 13.6366 8.81161 13.682C8.89054 13.7274 8.98321 13.7517 9.07812 13.752H23.2472L23.247 13.8542M9.07812 13.8542H23.247" stroke="white" stroke-width="0.5"/>
</g>
<defs>
<clipPath id="clip0_7_222">
<rect width="24" height="24" fill="white" transform="translate(0.707031 0.78125)"/>
</clipPath>
</defs>
</svg>
