<svg width="25" height="24" viewBox="0 0 25 24" fill="none" xmlns="http://www.w3.org/2000/svg">
<path d="M11.2957 14.4998C11.2663 14.4933 11.2388 14.4792 11.2158 14.4586C11.1929 14.438 11.175 14.4116 11.164 14.3818C11.151 14.3535 11.1443 14.3223 11.1447 14.2907C11.145 14.2591 11.1523 14.2281 11.1659 14.2002C11.508 13.5508 11.7161 12.8309 11.7762 12.0886C11.8364 11.3463 11.747 10.599 11.5144 9.89661C11.2819 9.19418 10.9112 8.55297 10.4275 8.01607C9.9438 7.47918 9.3581 7.05879 8.70971 6.78335C8.62857 6.74843 8.56126 6.68441 8.51944 6.60237C8.47761 6.52033 8.46377 6.42531 8.48044 6.33353L8.79567 4.56481C8.80332 4.51042 8.82167 4.45837 8.84966 4.41226C8.87765 4.36604 8.91445 4.32675 8.95785 4.29709C9.16133 4.15853 9.32539 3.963 9.43211 3.73188C9.53873 3.50065 9.58402 3.24278 9.56294 2.98602C9.54187 2.72927 9.45528 2.4836 9.3126 2.27587C9.16992 2.06803 8.97651 1.90597 8.75353 1.80725C8.53055 1.70865 8.2865 1.67708 8.0479 1.71626C7.8093 1.75532 7.58537 1.86355 7.40034 2.02919C7.21542 2.19473 7.07651 2.4113 6.99873 2.65518C6.92105 2.89917 6.90742 3.1613 6.95952 3.4129C7.00051 3.63003 7.09161 3.83272 7.22475 4.00262C7.25714 4.04963 7.27989 4.10335 7.29132 4.16032C7.30285 4.21729 7.30274 4.27627 7.29121 4.33335L6.98175 6.09245C6.96487 6.18053 6.92147 6.26022 6.85815 6.31932C6.79483 6.37853 6.71505 6.41389 6.63108 6.41994C6.4818 6.42643 6.33283 6.44132 6.18502 6.4646C6.10482 6.47624 6.02336 6.46012 5.9525 6.41848C5.88163 6.37696 5.82512 6.31216 5.79137 6.2337L4.57447 3.3669C4.55119 3.31575 4.53872 3.2599 4.53798 3.20316C4.53725 3.14641 4.54815 3.09011 4.57006 3.0384C4.67741 2.77718 4.70792 2.48718 4.6576 2.20693C4.60717 1.92678 4.47834 1.66947 4.28806 1.46913C4.09779 1.26879 3.855 1.13493 3.59176 1.08512C3.32863 1.03532 3.05753 1.07192 2.81432 1.19022C2.57111 1.30852 2.36731 1.50282 2.22977 1.74748C2.09223 1.99215 2.02755 2.27565 2.04422 2.56038C2.06089 2.84523 2.15817 3.11787 2.32318 3.34228C2.48808 3.56679 2.71305 3.73255 2.96811 3.8175C3.01843 3.8353 3.06477 3.86384 3.10419 3.90155C3.1436 3.93927 3.17537 3.98527 3.19738 4.03676L4.35316 6.75291C4.39132 6.8401 4.39824 6.93915 4.37277 7.03137C4.34729 7.12371 4.2911 7.20284 4.21479 7.25399C3.25472 7.92172 2.54406 8.92724 2.20619 10.0962C1.86841 11.2651 1.92471 12.5233 2.36543 13.6525C2.80625 14.7817 3.6035 15.7103 4.61881 16.2771C5.63422 16.844 6.80343 17.0132 7.92346 16.7554L10.8728 16.0791C10.9706 16.0566 11.0727 16.0767 11.1567 16.1346C11.2408 16.1926 11.2997 16.2838 11.3208 16.3881C11.3417 16.4926 11.323 16.6016 11.2688 16.6912C11.2145 16.7809 11.129 16.8439 11.0312 16.8663L7.16017 17.7539C6.96466 17.7988 6.79378 17.9247 6.68517 18.104C6.57657 18.2835 6.53914 18.5015 6.58118 18.7102C6.62322 18.9191 6.74115 19.1015 6.9091 19.2173C7.07714 19.3333 7.28136 19.3732 7.47687 19.3284L11.3479 18.4407C11.7749 18.3468 12.1581 18.0977 12.4324 17.736C12.7068 17.3743 12.8552 16.9224 12.8525 16.4569C12.8498 15.9915 12.6962 15.5416 12.4176 15.1834C12.1392 14.8254 11.7531 14.5814 11.3252 14.4931L11.2957 14.4998ZM7.99275 14.9525C7.98709 14.9909 7.97116 15.0267 7.94694 15.0557C7.92262 15.0846 7.89096 15.1054 7.85584 15.1156C7.3864 15.2639 6.89243 15.3022 6.40779 15.2278C5.92314 15.1535 5.45926 14.9684 5.04789 14.6851C4.63642 14.4017 4.28712 14.027 4.02378 13.5863C3.76044 13.1456 3.58935 12.6495 3.52226 12.1317C3.51639 12.0931 3.52226 12.0536 3.53872 12.0187C3.55528 11.9839 3.5817 11.9554 3.6143 11.9376C3.63841 11.9104 3.66955 11.8917 3.70383 11.8839C3.73801 11.8761 3.77365 11.8794 3.80604 11.8936L7.90732 14.7579C7.9373 14.7785 7.96131 14.8076 7.9764 14.842C7.9915 14.8764 7.99716 14.9147 7.99275 14.9525ZM10.0535 12.9646C9.91812 13.3351 9.7269 13.6795 9.48715 13.9839C9.43264 14.0624 9.35307 14.1171 9.26354 14.1376C9.17401 14.1581 9.0805 14.1432 9.00051 14.0955L3.98405 10.5929C3.90616 10.5407 3.84881 10.4599 3.82271 10.3658C3.79671 10.2717 3.80373 10.1707 3.84263 10.0817C4.00585 9.72435 4.22118 9.39709 4.48064 9.11191C4.54102 9.04521 4.62133 9.00279 4.70771 8.99204C4.79409 8.98119 4.88131 9.00256 4.95459 9.05259L9.89579 12.449C9.97756 12.4985 10.039 12.5788 10.0681 12.6742C10.0974 12.7696 10.0921 12.8732 10.0535 12.9646ZM10.1317 11.0525C10.0993 11.0743 10.0619 11.0857 10.0237 11.0857C9.98552 11.0858 9.9481 11.0743 9.91571 11.0527L6.15378 8.45649C6.12453 8.4331 6.10199 8.40131 6.08867 8.36494C6.07547 8.32856 6.07201 8.28894 6.07871 8.25055C6.08542 8.21227 6.10209 8.17657 6.12673 8.14781C6.15147 8.11904 6.18313 8.09811 6.21835 8.08759C7.08752 7.90102 7.99045 8.08423 8.73497 8.59796C9.4795 9.1118 10.0067 9.91563 10.2043 10.8383C10.212 10.8777 10.2092 10.9186 10.1963 10.9564C10.1836 10.9942 10.1611 11.0276 10.1317 11.0525Z" fill="#514AF3"/>
<path d="M23.1195 15.1499C23.2947 14.9236 23.426 14.6622 23.5058 14.3812C23.5856 14.1002 23.6123 13.805 23.5844 13.5129C23.5564 13.2208 23.4744 12.9375 23.3431 12.6794C23.2117 12.4214 23.0336 12.1939 22.8192 12.0099L21.6931 11.1837C21.5845 11.1006 21.45 11.0655 21.3177 11.0856C21.2485 11.0968 21.1823 11.1227 21.1227 11.1618C21.0632 11.201 21.0117 11.2526 20.9712 11.3135C20.8938 11.4358 20.8619 11.5847 20.8817 11.7309C20.894 11.8028 20.9195 11.8717 20.9567 11.9331C20.994 11.9946 21.0422 12.0475 21.0988 12.0889L22.1638 12.8912C22.3729 13.0797 22.5037 13.3486 22.5279 13.6395C22.5521 13.9304 22.4678 14.2198 22.2934 14.4448L21.9455 14.8914C21.6139 15.3181 21.4441 15.8621 21.4697 16.4159C21.4953 16.9698 21.7144 17.4932 22.0837 17.8831L22.9304 18.7754C23.0278 18.8775 23.1588 18.9343 23.2952 18.934C23.4316 18.9336 23.5624 18.8759 23.6593 18.7733C23.7091 18.7229 23.7483 18.6618 23.7743 18.594C23.8003 18.5263 23.8123 18.4533 23.8098 18.3801C23.8092 18.2334 23.754 18.093 23.6565 17.9896L22.815 17.0963C22.6303 16.9015 22.5209 16.6397 22.5081 16.3628C22.4952 16.0859 22.5801 15.8139 22.746 15.6005L23.1195 15.1499Z" fill="#E69F69"/>
<path d="M21.5966 13.2555C21.5914 13.2167 21.5788 13.1794 21.5598 13.1459C21.5407 13.1123 21.5156 13.0832 21.4858 13.0601C21.07 12.7444 20.9007 12.6196 20.8124 12.5494C20.7746 12.5218 20.7308 12.5049 20.6852 12.5003C20.6396 12.4956 20.5937 12.5035 20.5516 12.5231C20.515 12.5343 20.4769 12.5402 20.4387 12.5408C20.3711 12.5518 20.3023 12.5484 20.236 12.531C20.1696 12.5135 20.1072 12.4822 20.0522 12.4388C19.9425 12.3511 19.8697 12.2206 19.8498 12.0757C19.8299 11.9308 19.8645 11.7834 19.946 11.6658L21.195 9.87379C21.2809 9.76858 21.4008 9.70188 21.5308 9.68699C21.6608 9.67211 21.7913 9.71005 21.8961 9.79343C22.0011 9.8767 22.0726 9.99926 22.0966 10.1365C22.1205 10.2737 22.0951 10.4155 22.0254 10.5336C22.0089 10.5523 21.9966 10.5747 21.989 10.5991C21.9816 10.6235 21.9791 10.6493 21.9818 10.6748C21.9841 10.6965 21.9909 10.7175 22.0016 10.736C22.0123 10.7547 22.0268 10.7706 22.0438 10.7827L22.8652 11.3766C22.894 11.3999 22.9276 11.4156 22.9631 11.4227C22.9988 11.4299 23.0353 11.428 23.0702 11.4173C23.1042 11.4143 23.1374 11.4039 23.1674 11.3867C23.1975 11.3694 23.224 11.3457 23.2452 11.3171C23.4363 10.9456 23.517 10.5207 23.4766 10.099C23.4361 9.66841 23.2701 9.26224 23.0019 8.93778C22.7337 8.61331 22.377 8.38689 21.9819 8.2903C21.5868 8.19382 21.1732 8.23221 20.7996 8.39987C20.426 8.56765 20.111 8.85641 19.8993 9.22542L19.7234 9.5106C19.7146 9.5275 19.7022 9.54194 19.6874 9.55302C19.6725 9.5641 19.6555 9.57137 19.6377 9.57439C19.6213 9.57887 19.6041 9.57954 19.5873 9.57641C19.5706 9.57316 19.5547 9.56623 19.5407 9.55593C19.4673 9.50075 19.3903 9.45106 19.3104 9.40718C18.8702 9.18099 18.371 9.12167 17.8951 9.23896C17.4191 9.35626 16.9948 9.64323 16.692 10.0525L14.7784 12.8111C14.7379 12.8703 14.6869 12.9204 14.6282 12.9585C14.5695 12.9966 14.5043 13.0217 14.4363 13.0327C14.3647 13.0401 14.2925 13.0315 14.2241 13.0074C14.1558 12.9835 14.0929 12.9445 14.0394 12.8931L13.3427 12.2517C13.2931 12.1971 13.2335 12.154 13.1674 12.125C13.1015 12.0961 13.0306 12.082 12.9593 12.0836C12.888 12.0852 12.8178 12.1024 12.753 12.1343C12.6883 12.1661 12.6304 12.2119 12.5829 12.2687C12.5354 12.3255 12.4994 12.3922 12.4771 12.4645C12.4549 12.5368 12.4468 12.6132 12.4534 12.6891C12.46 12.7649 12.4812 12.8384 12.5156 12.9051C12.55 12.9718 12.5969 13.0301 12.6534 13.0766L13.3245 13.7222C13.4857 13.8765 13.6753 13.9933 13.8813 14.0651C14.0872 14.1368 14.305 14.1619 14.5205 14.1386C14.736 14.1155 14.9448 14.0445 15.1331 13.9303C15.3215 13.8161 15.4855 13.6612 15.6146 13.4755L17.5385 10.7153C17.6752 10.5335 17.8608 10.4007 18.0703 10.3349C18.2798 10.2691 18.5031 10.2732 18.7103 10.347C18.8183 10.3839 18.919 10.4422 19.0067 10.519C19.0199 10.5294 19.031 10.5425 19.0394 10.5575C19.0478 10.5725 19.0534 10.5892 19.0558 10.6065C19.0582 10.6238 19.0574 10.6415 19.0533 10.6585C19.0493 10.6754 19.0422 10.6914 19.0324 10.7054L12.6516 21.5794C12.547 21.771 12.5117 21.9969 12.5522 22.2143C12.5927 22.4319 12.7064 22.6261 12.8717 22.7604C13.0392 22.892 13.2464 22.9531 13.4534 22.9321C13.6606 22.911 13.8531 22.8092 13.9943 22.6461L21.5313 13.4674C21.5554 13.4389 21.5736 13.4053 21.5849 13.3688C21.5961 13.3324 21.6001 13.2938 21.5966 13.2555Z" fill="#E69F69"/>
</svg>
