<svg width="25" height="24" viewBox="0 0 25 24" fill="none" xmlns="http://www.w3.org/2000/svg">
<path d="M6.33701 6.53746H8.14366C8.19108 6.5379 8.23695 6.51769 8.27263 6.48071C8.3082 6.44373 8.33098 6.39265 8.3367 6.33713L8.63011 3.55137C8.63572 3.49596 8.65861 3.44477 8.69418 3.4079C8.72975 3.37092 8.77562 3.35071 8.82305 3.35116H16.9761C17.0235 3.35071 17.0693 3.37092 17.105 3.4079C17.1406 3.44477 17.1634 3.49596 17.1691 3.55137L17.4625 6.33713C17.4681 6.39265 17.491 6.44373 17.5266 6.48071C17.5621 6.51769 17.6081 6.5379 17.6554 6.53746H19.4621C19.5192 6.53646 19.5756 6.52135 19.6274 6.49315C19.6793 6.46483 19.7255 6.42419 19.7632 6.37356C19.7995 6.32059 19.8258 6.25907 19.8404 6.19311C19.855 6.12726 19.8576 6.05841 19.8482 5.99123L19.1996 2.22228C19.1528 1.90381 19.0128 1.61476 18.8041 1.40522C18.5954 1.19568 18.3311 1.07897 18.0569 1.0752H7.74218C7.47051 1.08064 7.20892 1.19712 7.00194 1.40455C6.79496 1.61209 6.65549 1.89792 6.60722 2.21318L5.95103 5.99123C5.94042 6.05775 5.94177 6.12626 5.95508 6.19211C5.9684 6.25796 5.99336 6.31981 6.0282 6.37356C6.06679 6.4253 6.11432 6.46672 6.16758 6.49493C6.22083 6.52324 6.27866 6.53768 6.33701 6.53746Z" fill="#514AF3"/>
<path d="M21.2531 7.21973H4.54537C4.19548 7.21973 3.86005 7.36575 3.61261 7.62559C3.36528 7.88544 3.22632 8.23789 3.22632 8.60533C3.22632 8.97289 3.36528 9.32535 3.61261 9.58519C3.86005 9.84503 4.19548 9.99094 4.54537 9.99094H5.34552L6.40953 21.6858C6.44042 22.0271 6.59228 22.3438 6.83493 22.5731C7.07759 22.8024 7.39347 22.9275 7.71985 22.9237H18.017C18.3364 22.9225 18.6447 22.8004 18.8853 22.5798C19.126 22.3593 19.2829 22.055 19.3273 21.7228L20.7518 9.99094H21.2531C21.603 9.99094 21.9384 9.84503 22.1858 9.58519C22.4332 9.32535 22.5721 8.97289 22.5721 8.60533C22.5721 8.23789 22.4332 7.88544 22.1858 7.62559C21.9384 7.36575 21.603 7.21973 21.2531 7.21973Z" fill="#514AF3"/>
<path d="M15.9153 14.8958C15.9145 14.3735 15.7747 13.8605 15.5101 13.4081C15.2454 12.9556 14.8651 12.5796 14.4071 12.3176C14.3715 12.2989 14.3315 12.2893 14.2912 12.2901H14.2309C14.2012 12.298 14.1735 12.3118 14.1496 12.3307C14.1256 12.3496 14.1059 12.3733 14.0916 12.4L13.2796 13.7739C13.2639 13.7996 13.2536 13.8283 13.2492 13.858C13.2449 13.8877 13.2467 13.918 13.2545 13.9471C13.2623 13.9761 13.2759 14.0033 13.2946 14.027C13.3133 14.0508 13.3366 14.0706 13.3631 14.0853C13.504 14.1656 13.621 14.2811 13.7026 14.4201C13.784 14.5592 13.827 14.717 13.8271 14.8776C13.8271 14.9383 13.8515 14.9966 13.8951 15.0395C13.9386 15.0824 13.9976 15.1066 14.0591 15.1066H15.6832C15.7417 15.1067 15.7981 15.0852 15.8411 15.0461C15.8841 15.007 15.9106 14.9534 15.9153 14.8958Z" fill="#E69F69"/>
<path d="M11.9718 14.8958C11.972 14.7352 12.0149 14.5774 12.0964 14.4384C12.1778 14.2994 12.2948 14.1839 12.4359 14.1035C12.4624 14.0888 12.4857 14.0691 12.5043 14.0453C12.5229 14.0216 12.5365 13.9943 12.5443 13.9653C12.5521 13.9363 12.5539 13.906 12.5496 13.8762C12.5454 13.8464 12.5351 13.8179 12.5194 13.7921L11.7073 12.4183C11.6889 12.3811 11.6606 12.3496 11.6254 12.327C11.5903 12.3044 11.5496 12.2916 11.5078 12.29C11.4674 12.2904 11.4278 12.2998 11.3917 12.3175C10.9344 12.5802 10.5546 12.9564 10.29 13.4087C10.0255 13.8609 9.88544 14.3736 9.88357 14.8958C9.88315 14.9266 9.88908 14.957 9.90104 14.9854C9.913 15.0137 9.93079 15.0394 9.95315 15.0607C9.99683 15.1021 10.0551 15.1251 10.1156 15.1248H11.7397C11.8013 15.1248 11.8603 15.1007 11.9038 15.0577C11.9473 15.0147 11.9718 14.9565 11.9718 14.8958Z" fill="#E69F69"/>
<path d="M13.4799 15.6611C13.4388 15.6643 13.3991 15.6768 13.3638 15.6977C13.2229 15.7784 13.0628 15.821 12.8999 15.8214C12.7371 15.8196 12.5774 15.7771 12.4358 15.6977C12.4011 15.676 12.3608 15.6649 12.3198 15.6657C12.2999 15.6614 12.2793 15.6614 12.2595 15.6657C12.2298 15.6719 12.2019 15.6846 12.1778 15.7028C12.1538 15.7211 12.134 15.7443 12.1203 15.771L11.3082 17.1449C11.2919 17.1706 11.2814 17.1993 11.2773 17.2294C11.2734 17.2594 11.276 17.2899 11.285 17.3189C11.2922 17.3478 11.3054 17.375 11.3237 17.3986C11.3421 17.4223 11.3653 17.442 11.3917 17.4563C11.8504 17.7171 12.3704 17.8544 12.8999 17.8544C13.4293 17.8544 13.9493 17.7171 14.408 17.4563C14.435 17.4426 14.4585 17.4232 14.4771 17.3994C14.4955 17.3757 14.5084 17.3482 14.5147 17.3189C14.5238 17.2899 14.5264 17.2594 14.5223 17.2294C14.5183 17.1993 14.5078 17.1706 14.4915 17.1449L13.6794 15.771C13.6586 15.7372 13.6293 15.7093 13.5943 15.6901C13.5594 15.6709 13.52 15.6608 13.4799 15.6611Z" fill="#E69F69"/>
<path d="M12.8997 15.3544C13.1559 15.3544 13.3637 15.1494 13.3637 14.8964C13.3637 14.6435 13.1559 14.4385 12.8997 14.4385C12.6434 14.4385 12.4357 14.6435 12.4357 14.8964C12.4357 15.1494 12.6434 15.3544 12.8997 15.3544Z" fill="#E69F69"/>
</svg>
