<svg width="25" height="25" viewBox="0 0 25 25" fill="none" xmlns="http://www.w3.org/2000/svg">
<g clip-path="url(#clip0_7_405)">
<mask id="mask0_7_405" style="mask-type:luminance" maskUnits="userSpaceOnUse" x="0" y="0" width="25" height="25">
<path d="M24.8418 0.78125H0.841797V24.7812H24.8418V0.78125Z" fill="white"/>
</mask>
<g mask="url(#mask0_7_405)">
<mask id="mask1_7_405" style="mask-type:luminance" maskUnits="userSpaceOnUse" x="0" y="0" width="25" height="25">
<path d="M24.8418 0.78125H0.841797V24.7812H24.8418V0.78125Z" fill="white"/>
</mask>
<g mask="url(#mask1_7_405)">
<path d="M15.8418 1.53125C13.6196 1.53125 11.9526 1.60129 10.7798 1.68021C9.1263 1.79146 7.852 3.06575 7.74075 4.71925C7.66185 5.8921 7.5918 7.559 7.5918 9.78125C7.5918 12.0034 7.66185 13.6705 7.74075 14.8433C7.852 16.4968 9.1263 17.771 10.7798 17.8822C11.9526 17.9611 13.6196 18.0312 15.8418 18.0312C18.064 18.0312 19.731 17.9611 20.9038 17.8822C22.5573 17.771 23.8316 16.4968 23.9428 14.8433C24.0217 13.6705 24.0918 12.0034 24.0918 9.78125C24.0918 7.559 24.0217 5.8921 23.9428 4.71925C23.8316 3.06575 22.5573 1.79147 20.9038 1.68022C19.731 1.6013 18.064 1.53125 15.8418 1.53125Z" fill="#514AF3"/>
<path fill-rule="evenodd" clip-rule="evenodd" d="M7.6392 12.7812C7.66535 13.5602 7.6999 14.225 7.73665 14.7812H5.09071C5.08494 19.3245 5.0578 21.7801 5.0478 22.5429C5.04422 22.8156 4.97375 23.2353 4.62385 23.5492C4.36926 23.7777 3.94324 24.0312 3.3418 24.0312C2.74036 24.0312 2.31434 23.7777 2.05974 23.5492C1.70985 23.2353 1.63938 22.8156 1.6358 22.5429C1.62458 21.6874 1.5918 18.7024 1.5918 13.0312C1.5918 7.36 1.62458 4.3752 1.6358 3.51969C1.63938 3.24697 1.70984 2.82732 2.05974 2.51333C2.31434 2.28487 2.74035 2.03125 3.34179 2.03125C3.94324 2.03125 4.36926 2.28487 4.62385 2.51333C4.97375 2.82732 5.04421 3.24697 5.04779 3.51969C5.05098 3.76329 5.05593 4.17952 5.06136 4.78125H7.73665C7.6999 5.33763 7.66535 6.0022 7.6392 6.78125H5.07585C5.08435 8.2667 5.09134 10.2495 5.09178 12.7812H7.6392Z" fill="#E69F69"/>
<path d="M17.3062 6.8804C17.2901 6.32165 16.9374 5.8458 16.3802 5.8015C16.2234 5.78905 16.0443 5.78125 15.8418 5.78125C15.6393 5.78125 15.4602 5.78905 15.3034 5.8015C14.7462 5.8458 14.3935 6.32165 14.3774 6.8804C14.3671 7.23695 14.3569 7.70365 14.3501 8.2895C13.7642 8.29635 13.2975 8.3066 12.9409 8.31685C12.3822 8.33295 11.9064 8.6856 11.8621 9.24285C11.8496 9.39965 11.8418 9.57875 11.8418 9.78125C11.8418 9.98375 11.8496 10.1628 11.8621 10.3196C11.9064 10.8768 12.3822 11.2296 12.9409 11.2457C13.2975 11.256 13.7642 11.2662 14.3501 11.273C14.3569 11.8589 14.3671 12.3255 14.3774 12.6821C14.3935 13.2408 14.7462 13.7167 15.3034 13.761C15.4602 13.7735 15.6393 13.7812 15.8418 13.7812C16.0443 13.7812 16.2234 13.7735 16.3802 13.761C16.9374 13.7167 17.2901 13.2408 17.3062 12.6821C17.3164 12.3255 17.3267 11.8589 17.3336 11.273C17.9194 11.2662 18.3861 11.256 18.7427 11.2457C19.3014 11.2296 19.7772 10.8768 19.8215 10.3196C19.834 10.1628 19.8418 9.98375 19.8418 9.78125C19.8418 9.57875 19.834 9.39965 19.8215 9.24285C19.7772 8.6856 19.3014 8.33295 18.7427 8.31685C18.3861 8.3066 17.9194 8.29635 17.3336 8.2895C17.3267 7.70365 17.3164 7.23695 17.3062 6.8804Z" fill="#E69F69"/>
</g>
</g>
</g>
<defs>
<clipPath id="clip0_7_405">
<rect width="24" height="24" fill="white" transform="translate(0.841797 0.78125)"/>
</clipPath>
</defs>
</svg>
