<svg width="25" height="24" viewBox="0 0 25 24" fill="none" xmlns="http://www.w3.org/2000/svg">
<path d="M11.2416 6.96869V6.9686C11.351 6.69076 11.5069 6.43652 11.7015 6.21818C11.7354 6.18248 11.7611 6.13872 11.7762 6.09043C11.7912 6.04243 11.7953 5.99119 11.7883 5.94113C11.7833 5.89127 11.767 5.84327 11.7409 5.80147C11.7144 5.75918 11.6788 5.72447 11.637 5.70027L5.58313 2.02689C5.28218 1.8358 4.92485 1.77305 4.58244 1.85104C4.23975 1.92913 3.93723 2.14255 3.73558 2.44852C3.53393 2.75449 3.44789 3.13048 3.49478 3.50126C3.54158 3.87184 3.71771 4.20987 3.9878 4.44778L4.52984 4.93875V12.8672C3.83479 13.1063 3.23869 13.5968 2.84506 14.2553C2.43899 14.9344 2.27557 15.7468 2.38446 16.5441C2.49344 17.3413 2.86753 18.0701 3.4384 18.597C4.00917 19.124 4.73858 19.4139 5.49323 19.4139C6.24787 19.4139 6.97728 19.124 7.54814 18.597C8.11901 18.0701 8.49301 17.3413 8.60199 16.5441C8.71097 15.7468 8.54746 14.9344 8.14149 14.2553C7.74786 13.5968 7.15175 13.1063 6.45671 12.8672V6.69784L9.7288 9.69349L9.72936 9.69408L9.73 9.69457C9.7674 9.72761 9.81162 9.75092 9.85897 9.76233C9.90521 9.77354 9.95311 9.77335 9.99927 9.76164C10.0471 9.75249 10.0918 9.73037 10.1294 9.69732C10.1674 9.66398 10.1966 9.62061 10.2141 9.57163L11.2416 6.96869Z" fill="#E69F69" stroke="white" stroke-width="0.3"/>
<path d="M21.6122 18.2646H12.028C11.5413 18.2646 11.0747 18.471 10.7306 18.8383C10.3865 19.2057 10.1932 19.7039 10.1932 20.2234C10.1932 20.743 10.3865 21.2411 10.7306 21.6086C11.0747 21.9759 11.5413 22.1822 12.028 22.1822H21.6122C22.0989 22.1822 22.5655 21.9759 22.9096 21.6086C23.2537 21.2411 23.447 20.743 23.447 20.2234C23.447 19.7039 23.2537 19.2057 22.9096 18.8383C22.5655 18.471 22.0989 18.2646 21.6122 18.2646ZM12.8993 20.8227C12.7883 20.8227 12.6797 20.7876 12.5873 20.7217C12.495 20.6559 12.4231 20.5623 12.3806 20.4527C12.3382 20.3433 12.327 20.2228 12.3487 20.1065C12.3703 19.9902 12.4238 19.8835 12.5023 19.7996C12.5808 19.7158 12.6808 19.6588 12.7897 19.6356C12.8986 19.6125 13.0115 19.6243 13.1141 19.6697C13.2166 19.7151 13.3043 19.7919 13.366 19.8905C13.4277 19.989 13.4606 20.1049 13.4606 20.2234C13.4606 20.3824 13.4015 20.5349 13.2962 20.6472C13.1909 20.7596 13.0481 20.8227 12.8993 20.8227ZM16.8201 20.8227C16.7091 20.8227 16.6005 20.7876 16.5082 20.7217C16.4159 20.6559 16.344 20.5623 16.3015 20.4527C16.259 20.3433 16.2479 20.2228 16.2696 20.1065C16.2912 19.9902 16.3446 19.8835 16.4232 19.7996C16.5017 19.7158 16.6017 19.6588 16.7106 19.6356C16.8195 19.6125 16.9324 19.6243 17.0349 19.6697C17.1375 19.7151 17.2252 19.7919 17.2868 19.8905C17.3486 19.989 17.3814 20.1049 17.3814 20.2234C17.3814 20.3824 17.3223 20.5349 17.217 20.6472C17.1118 20.7596 16.969 20.8227 16.8201 20.8227ZM20.741 20.8227C20.63 20.8227 20.5214 20.7876 20.429 20.7217C20.3367 20.6559 20.2648 20.5623 20.2223 20.4527C20.1799 20.3433 20.1687 20.2228 20.1904 20.1065C20.212 19.9902 20.2655 19.8835 20.344 19.7996C20.4225 19.7158 20.5225 19.6588 20.6314 19.6356C20.7403 19.6125 20.8532 19.6243 20.9558 19.6697C21.0583 19.7151 21.146 19.7919 21.2077 19.8905C21.2694 19.989 21.3023 20.1049 21.3023 20.2234C21.3023 20.3824 21.2432 20.5349 21.1379 20.6472C21.0326 20.7596 20.8898 20.8227 20.741 20.8227Z" fill="#E69F69" stroke="white" stroke-width="0.3"/>
<path d="M20.7408 11.3865H18.5625V9.06094C18.5602 8.44487 18.33 7.85477 17.922 7.41918C17.514 6.98359 16.9613 6.73781 16.3843 6.73535H13.3347C13.1208 6.74381 12.9134 6.81629 12.7362 6.94464C12.559 7.07289 12.4192 7.25189 12.3327 7.46098L10.7556 11.6004C10.7427 11.6586 10.7427 11.7191 10.7556 11.7772V15.5725C10.7556 15.9426 10.8934 16.2975 11.1385 16.5592C11.3836 16.8209 11.716 16.9679 12.0626 16.9679H20.7408C21.0874 16.9679 21.4198 16.8209 21.6649 16.5592C21.9101 16.2975 22.0477 15.9426 22.0477 15.5725V12.7818C22.0477 12.4118 21.9101 12.0569 21.6649 11.7952C21.4198 11.5336 21.0874 11.3865 20.7408 11.3865ZM12.8991 10.9679L13.4741 8.79116C13.4987 8.70029 13.5501 8.62033 13.6208 8.56329C13.6915 8.50624 13.7776 8.47526 13.8663 8.47487H16.3843C16.4381 8.47487 16.4913 8.48618 16.541 8.50821C16.5907 8.53014 16.6358 8.5624 16.6739 8.60292C16.7119 8.64354 16.7421 8.69173 16.7626 8.74484C16.7832 8.79785 16.7938 8.8547 16.7938 8.91214V11.0796C16.7938 11.1369 16.7832 11.1938 16.7626 11.2469C16.7421 11.2999 16.7119 11.3481 16.6739 11.3887C16.6358 11.4293 16.5907 11.4615 16.541 11.4835C16.4913 11.5054 16.4381 11.5167 16.3843 11.5167H13.3086C13.2442 11.5211 13.1798 11.5088 13.1208 11.4808C13.0619 11.4529 13.01 11.4102 12.9698 11.3563C12.9296 11.3024 12.9022 11.239 12.8899 11.1713C12.8775 11.1038 12.8808 11.0339 12.8991 10.9679Z" fill="#514AF3"/>
</svg>
