<svg width="25" height="25" viewBox="0 0 25 25" fill="none" xmlns="http://www.w3.org/2000/svg">
<path d="M18.9707 8.37822C18.9707 8.2494 18.9234 8.12576 18.8389 8.03399C18.7544 7.94212 18.6395 7.88929 18.5189 7.88701H17.3934V6.65918C17.3945 6.60197 17.385 6.54516 17.3652 6.49203C17.3455 6.4389 17.316 6.39043 17.2785 6.34961C17.2411 6.30879 17.1963 6.27632 17.1469 6.25417C17.0975 6.23202 17.0445 6.2206 16.9909 6.2207H7.09213C7.03854 6.2206 6.98552 6.23202 6.93622 6.25417C6.88682 6.27632 6.84208 6.30879 6.80459 6.34961C6.7671 6.39043 6.73761 6.4389 6.71789 6.49203C6.69808 6.54516 6.6885 6.60197 6.68961 6.65918V7.88701H5.5231C5.40254 7.88929 5.28766 7.94212 5.2031 8.03399C5.11864 8.12576 5.07129 8.2494 5.07129 8.37822V10.5795H18.9707V8.37822Z" fill="#E69F69"/>
<path d="M12.0227 2.08985C11.1376 2.04635 10.2613 2.29375 9.51211 2.79876C8.7629 3.30378 8.17685 4.04208 7.83313 4.91397H16.2122C15.8685 4.04208 15.2824 3.30378 14.5332 2.79876C13.7841 2.29375 12.9077 2.04635 12.0227 2.08985Z" fill="#514AF3"/>
<path d="M19.4893 11.8945H4.55488C4.40474 11.9132 4.26632 11.99 4.16577 12.1104C4.0653 12.2309 4.00977 12.3866 4.00977 12.5479C4.00977 12.7093 4.0653 12.8649 4.16577 12.9854C4.26632 13.1059 4.40474 13.1827 4.55488 13.2013H5.04772V23.1381H9.04009V17.4725C9.02242 16.6078 9.32623 15.7708 9.88511 15.1446C10.4439 14.5184 11.2123 14.1539 12.022 14.131C12.8319 14.1539 13.6003 14.5184 14.1591 15.1446C14.718 15.7708 15.0217 16.6078 15.0041 17.4725V23.1381H18.9718V13.2013H19.4647C19.6148 13.1827 19.7532 13.1059 19.8538 12.9854C19.9542 12.8649 20.0098 12.7093 20.0098 12.5479C20.0098 12.3866 19.9542 12.2309 19.8538 12.1104C19.7532 11.99 19.6148 11.9132 19.4647 11.8945H19.4893Z" fill="#514AF3"/>
</svg>
