<svg width="25" height="25" viewBox="0 0 25 25" fill="none" xmlns="http://www.w3.org/2000/svg">
<path d="M11.8974 16.1371C10.3391 16.1611 8.852 16.8397 7.75713 18.0264C6.66226 19.2133 6.04729 20.8131 6.04492 22.4807C6.04492 22.6153 6.09488 22.7443 6.18378 22.8395C6.2728 22.9346 6.39342 22.9881 6.51914 22.9881H17.4273C17.553 22.9881 17.6736 22.9346 17.7626 22.8395C17.8515 22.7443 17.9015 22.6153 17.9015 22.4807C17.9003 21.6411 17.7436 20.8101 17.4405 20.0358C17.1373 19.2614 16.6939 18.5591 16.1356 17.9692C15.5773 17.3793 14.9153 16.9137 14.1879 16.5993C13.4603 16.2849 12.6819 16.1278 11.8974 16.1371Z" fill="#514AF3"/>
<path d="M18.9683 5.01797L12.1579 2.28771C12.0799 2.25245 11.996 2.23438 11.9114 2.23438C11.8266 2.23438 11.7428 2.25245 11.6647 2.28771L4.8543 5.01797L4.51278 5.27162C4.50876 5.29172 4.50876 5.31257 4.51278 5.33254V5.42392C4.50888 5.44742 4.50888 5.47144 4.51278 5.49494V9.33157C4.51278 9.5334 4.58783 9.72702 4.72125 9.86983C4.85466 10.0125 5.03554 10.0928 5.22423 10.0928C5.41292 10.0928 5.5938 10.0125 5.72722 9.86983C5.86063 9.72702 5.93556 9.5334 5.93556 9.33157V6.82462L8.0319 7.66697V11.3006C8.0319 12.4608 8.46256 13.5735 9.22929 14.3939C9.9959 15.2142 11.0357 15.6751 12.1199 15.6751C13.2043 15.6751 14.2441 15.2142 15.0107 14.3939C15.7774 13.5735 16.2081 12.4608 16.2081 11.3006V7.59594L19.0538 6.4389C19.1879 6.38367 19.3033 6.28623 19.3848 6.15934C19.4662 6.03258 19.5098 5.88231 19.5098 5.72837C19.5098 5.57456 19.4662 5.42429 19.3848 5.2974C19.3033 5.17064 19.1879 5.0732 19.0538 5.01797H18.9683ZM11.9967 13.6553C11.7081 13.6553 11.4225 13.5944 11.156 13.4759C10.8895 13.3574 10.6476 13.1839 10.444 12.965C10.2404 12.7462 10.0792 12.4866 9.96962 12.201C9.86012 11.9154 9.80437 11.6094 9.80555 11.3006V10.722L11.7027 11.3615C11.7719 11.3705 11.842 11.3705 11.9114 11.3615C11.9806 11.3714 12.0507 11.3714 12.1199 11.3615L14.1878 10.6916V11.3006C14.1878 11.9233 13.9573 12.5207 13.5466 12.9621C13.136 13.4034 12.5787 13.6526 11.9967 13.6553Z" fill="#E69F69"/>
</svg>
