<svg width="25" height="24" viewBox="0 0 25 24" fill="none" xmlns="http://www.w3.org/2000/svg">
<path d="M13.6663 4.80084H16.5551C16.7763 4.80084 16.9832 4.68355 17.1072 4.48772C17.2312 4.29189 17.2563 4.04311 17.1741 3.82348L16.8287 2.90042L17.1741 1.97733C17.2563 1.75777 17.2312 1.50894 17.1072 1.31313C16.9832 1.1173 16.7763 1 16.5551 1H12.9996C12.6314 1 12.3329 1.31906 12.3329 1.71266V6.4637C12.3329 6.85727 12.6314 7.17636 12.9996 7.17636C13.3678 7.17636 13.6663 6.85727 13.6663 6.4637V4.80084Z" fill="#E69F69"/>
<path d="M20.5547 10.0274H5.44409C5.07588 10.0274 4.77734 9.70804 4.77734 9.31447V8.12698C4.77734 7.85242 4.79548 7.61866 4.82252 7.42265C4.92992 6.6442 5.57327 6.28258 6.11949 6.27317C7.06333 6.25679 9.31193 6.22656 12.9996 6.22656C16.6873 6.22656 18.9358 6.25679 19.8797 6.27317C20.4259 6.28258 21.0692 6.6442 21.1767 7.42265C21.2037 7.61866 21.2218 7.85242 21.2218 8.12698V9.31474C21.2218 9.5037 21.1516 9.68505 21.0266 9.81872C20.9015 9.95238 20.7319 10.0274 20.5551 10.0274V9.31474L20.5547 10.0274Z" fill="#E69F69"/>
<path fill-rule="evenodd" clip-rule="evenodd" d="M3 10.0269C3 9.65195 3.08934 9.36083 3.19512 9.15259C3.40322 8.74283 3.78813 8.63631 4.03793 8.63378C4.73443 8.62681 7.63105 8.60156 13 8.60156C18.369 8.60156 21.2656 8.62681 21.9621 8.63378C22.2119 8.63631 22.5968 8.74283 22.8049 9.15259C22.9107 9.36083 23 9.65195 23 10.0269C23 10.4018 22.9107 10.6929 22.8049 10.9012C22.5968 11.3109 22.2119 11.4174 21.9621 11.42C21.8883 11.4207 21.79 11.4216 21.6667 11.4227V19.5584C21.79 19.5596 21.8883 19.5605 21.9621 19.5612C22.2119 19.5637 22.5968 19.6702 22.8049 20.08C22.9107 20.2882 23 20.5794 23 20.9543C23 21.3292 22.9107 21.6203 22.8049 21.8286C22.5968 22.2383 22.2119 22.3448 21.9621 22.3474C21.2656 22.3544 18.369 22.3796 13 22.3796C7.63105 22.3796 4.73443 22.3544 4.03793 22.3474C3.78813 22.3448 3.40322 22.2383 3.19512 21.8286C3.08934 21.6203 3 21.3292 3 20.9543C3 20.5794 3.08934 20.2882 3.19512 20.08C3.40322 19.6702 3.78813 19.5637 4.03793 19.5612C4.11167 19.5605 4.21 19.5596 4.33333 19.5584V11.4227C4.21 11.4216 4.11167 11.4207 4.03793 11.42C3.78813 11.4174 3.40322 11.3109 3.19512 10.9012C3.08934 10.6929 3 10.4018 3 10.0269Z" fill="#514AF3"/>
<path fill-rule="evenodd" clip-rule="evenodd" d="M8.13964 19.0563C8.5076 19.0563 8.8063 18.738 8.8063 18.3441V13.3543C8.8063 12.5669 8.20923 11.9297 7.47298 11.9297C6.73681 11.9297 6.13965 12.5669 6.13965 13.3543V18.3441C6.13965 18.738 6.43844 19.0563 6.80631 19.0563H8.13964Z" fill="#EEEEEE"/>
<path d="M19.2218 19.0543C19.5898 19.0543 19.8885 18.736 19.8885 18.3421V13.3523C19.8885 12.565 19.2914 11.9277 18.5551 11.9277C17.819 11.9277 17.2218 12.565 17.2218 13.3523V18.3421C17.2218 18.736 17.5206 19.0543 17.8885 19.0543H19.2218Z" fill="#EEEEEE"/>
<path d="M15.5857 12.4877L15.5838 12.4864L15.5818 12.4853C15.4989 12.435 15.405 12.4084 15.3096 12.4084C15.2149 12.4084 15.1218 12.4345 15.0394 12.484L14.536 12.7713L13.2639 12.0524L13.2637 12.0523C13.1851 12.0077 13.0974 11.9844 13.0084 11.9844C12.9195 11.9844 12.832 12.0076 12.7535 12.0522L11.4809 12.7632L10.9775 12.4759C10.895 12.4264 10.8019 12.4003 10.7073 12.4003C10.6117 12.4003 10.518 12.4267 10.4349 12.477L10.4327 12.4785L10.4305 12.4798C10.3498 12.5323 10.2829 12.6059 10.2362 12.6935C10.1894 12.7812 10.1643 12.8801 10.1631 12.9809V12.982V12.9832V15.2987C10.1631 16.321 10.8021 17.2178 11.4434 17.8429C11.7678 18.159 12.1019 18.4146 12.3755 18.592C12.5122 18.6806 12.6358 18.751 12.7373 18.7999C12.788 18.8243 12.8352 18.8444 12.8772 18.8587C12.9156 18.8719 12.9627 18.8849 13.0084 18.8849C13.0541 18.8849 13.1012 18.8719 13.1396 18.8587C13.1816 18.8444 13.2288 18.8243 13.2795 18.7999C13.381 18.751 13.5046 18.6806 13.6414 18.592C13.915 18.4146 14.2489 18.159 14.5733 17.8429C15.2147 17.2178 15.8537 16.321 15.8537 15.2987V12.9832V12.9806L15.8536 12.9779C15.851 12.8788 15.825 12.782 15.7782 12.6963C15.7314 12.6107 15.6652 12.5389 15.5857 12.4877Z" fill="#E69F69" stroke="white" stroke-width="0.5"/>
<path d="M14.246 14.7943H13.6187C13.5919 14.794 13.5657 14.7865 13.543 14.7728C13.5203 14.7589 13.5018 14.7392 13.4898 14.7158L13.1632 14.0542C13.1475 14.0236 13.1233 13.9978 13.0935 13.9797C13.0636 13.9617 13.0293 13.9521 12.9942 13.9521C12.9591 13.9521 12.9247 13.9617 12.8948 13.9797C12.865 13.9978 12.8408 14.0236 12.8251 14.0542L12.4957 14.7158C12.4841 14.7396 12.4658 14.7596 12.443 14.7736C12.4201 14.7875 12.3937 14.7947 12.3667 14.7943H11.7423C11.7059 14.7925 11.67 14.8019 11.6394 14.8211C11.6087 14.8403 11.585 14.8683 11.5714 14.9014C11.5579 14.9343 11.5552 14.9707 11.5637 15.0053C11.5723 15.0398 11.5916 15.071 11.6191 15.0942L12.1748 15.6549C12.1944 15.6751 12.2076 15.7004 12.2126 15.7278C12.2177 15.7552 12.2146 15.7834 12.2035 15.809L11.897 16.5014C11.8809 16.5369 11.8768 16.5764 11.8853 16.6143C11.8938 16.6521 11.9144 16.6864 11.944 16.712C11.9737 16.7376 12.011 16.7533 12.0505 16.7568C12.0899 16.7602 12.1295 16.7514 12.1634 16.7314L12.9225 16.3136C12.9443 16.3013 12.969 16.2949 12.9942 16.2949C13.0193 16.2949 13.044 16.3013 13.0658 16.3136L13.8249 16.7314C13.8588 16.7514 13.8984 16.7602 13.9378 16.7568C13.9773 16.7533 14.0145 16.7376 14.0443 16.712C14.074 16.6864 14.0946 16.6521 14.103 16.6143C14.1115 16.5764 14.1074 16.5369 14.0913 16.5014L13.7848 15.8146C13.7737 15.789 13.7706 15.7608 13.7757 15.7334C13.7808 15.7061 13.7939 15.6807 13.8135 15.6605L14.3693 15.0998C14.3992 15.0772 14.4208 15.0456 14.4309 15.01C14.4409 14.9742 14.4389 14.9363 14.425 14.9018C14.4111 14.8673 14.3862 14.8382 14.3539 14.8188C14.3216 14.7995 14.2838 14.7909 14.246 14.7943Z" fill="white"/>
</svg>
