<svg width="25" height="25" viewBox="0 0 25 25" fill="none" xmlns="http://www.w3.org/2000/svg">
<path d="M19.9388 11.81C19.8517 11.7054 19.7435 11.6215 19.6217 11.5639C19.5 11.5064 19.3675 11.4766 19.2334 11.4766H13.6647C13.5307 11.4766 13.3982 11.5064 13.2764 11.5639C13.1547 11.6215 13.0465 11.7054 12.9594 11.81L10.175 15.1443C10.0312 15.3169 9.95225 15.5365 9.95227 15.7636V21.0033C9.95227 21.2559 10.0501 21.4982 10.2241 21.6769C10.3982 21.8556 10.6342 21.9559 10.8804 21.9559H22.0178C22.2639 21.9559 22.5 21.8556 22.6741 21.6769C22.8481 21.4982 22.9459 21.2559 22.9459 21.0033V15.7636C22.9459 15.5365 22.8669 15.3169 22.7231 15.1443L19.9388 11.81ZM21.0897 19.5742C21.0897 19.7006 21.0408 19.8217 20.9537 19.9111C20.8667 20.0004 20.7487 20.0506 20.6256 20.0506H17.8413C17.7182 20.0506 17.6001 20.0004 17.5131 19.9111C17.4261 19.8217 17.3772 19.7006 17.3772 19.5742V16.2971C17.3761 16.1819 17.4156 16.0702 17.4886 15.9827L19.0571 14.0773C19.0789 14.0512 19.1059 14.0302 19.1364 14.0158C19.1668 14.0014 19.1999 13.994 19.2334 13.994C19.2669 13.994 19.3001 14.0014 19.3305 14.0158C19.3609 14.0302 19.388 14.0512 19.4098 14.0773L20.9783 15.9827C21.0512 16.0702 21.0908 16.1819 21.0897 16.2971V19.5742Z" fill="#514AF3"/>
<path d="M6.36646 13.2119C6.27647 13.2115 6.18823 13.2349 6.11035 13.2795C6.03226 13.3242 5.96751 13.3884 5.92185 13.4653L5.92179 13.4652L5.91898 13.4702C5.8753 13.5478 5.85254 13.6352 5.85254 13.7239C5.85254 13.8093 5.8736 13.8935 5.91407 13.9688C6.12695 14.416 6.43407 14.8099 6.81382 15.1219C7.19553 15.4355 7.641 15.6584 8.11801 15.774L8.11814 15.774C8.11991 15.7744 8.12219 15.7755 8.12453 15.7777C8.1269 15.7799 8.12924 15.7833 8.13069 15.7878L8.13068 15.7878L8.13108 15.789L8.39623 16.5988C8.42728 16.7028 8.49015 16.7951 8.57698 16.8617C8.66532 16.9294 8.77349 16.9665 8.88535 16.9665C8.99721 16.9665 9.10539 16.9294 9.19372 16.8617C9.28055 16.7951 9.34343 16.7028 9.37448 16.5988L9.63963 15.789L9.63963 15.789L9.64002 15.7878C9.64146 15.7833 9.6438 15.7799 9.64618 15.7777C9.64851 15.7755 9.65079 15.7744 9.65257 15.774L9.65331 15.7738C10.1296 15.6571 10.5744 15.4338 10.9558 15.1205C11.3353 14.8087 11.6427 14.4155 11.8565 13.9691C11.897 13.8937 11.9182 13.8094 11.9182 13.7239C11.9182 13.6352 11.8954 13.5478 11.8517 13.4702L11.8518 13.4702L11.8494 13.4661C11.8004 13.3828 11.7291 13.3144 11.6429 13.2693C11.5604 13.2261 11.4677 13.2062 11.3746 13.2119H6.36646ZM6.36646 13.2119C6.36675 13.2119 6.36704 13.2119 6.36733 13.2119L6.36584 13.4619V13.2119H6.36646Z" fill="#E69F69" stroke="white" stroke-width="0.5"/>
<path d="M14.7796 8.89241L14.7803 8.8931C15.2055 9.33304 15.4603 9.91461 15.4993 10.5303C15.5383 11.146 15.3589 11.756 14.9931 12.2481C14.6272 12.7403 14.0989 13.0816 13.5048 13.2074C12.9107 13.3333 12.2924 13.2346 11.7644 12.9304L11.7637 12.9299C11.7209 12.9051 11.673 12.8924 11.6247 12.8928L11.6229 12.8928L6.1258 12.8928H6.12403C6.07621 12.8924 6.02879 12.9048 5.98636 12.9292C5.45864 13.2456 4.83542 13.3537 4.23446 13.2322C3.63288 13.1106 3.09702 12.7678 2.72716 12.2703C2.35741 11.773 2.17871 11.155 2.22359 10.5332C2.26842 9.91187 2.53346 9.32772 2.97032 8.89117L6.26369 5.51024C6.26981 5.50324 6.27417 5.49357 6.27512 5.4826C6.27464 5.48005 6.27385 5.47768 6.27281 5.47555C6.27126 5.47237 6.2693 5.47001 6.2674 5.46839L6.26717 5.4682L5.4419 4.76424C5.44183 4.76418 5.44176 4.76412 5.44168 4.76405C5.36268 4.69687 5.29774 4.61471 5.25028 4.52246C5.20278 4.43014 5.17364 4.32939 5.16434 4.22596C5.15504 4.12253 5.16572 4.01818 5.19586 3.91882C5.22596 3.81957 5.27495 3.72701 5.34031 3.64654C5.40558 3.5659 5.48603 3.49886 5.57728 3.44954C5.66861 3.40018 5.76883 3.36963 5.87218 3.35986C5.97553 3.35009 6.0797 3.36134 6.17861 3.39285C6.27752 3.42436 6.36901 3.47545 6.44795 3.54287L6.44858 3.54341L7.57035 4.50787C7.574 4.51072 7.57776 4.5122 7.58117 4.51274C7.58443 4.51325 7.58785 4.51299 7.59126 4.51179C7.59162 4.51167 7.59197 4.51153 7.59232 4.51139L7.68651 4.74297M14.7796 8.89241L10.0622 4.74297C9.68617 4.58081 9.28232 4.49727 8.87435 4.49727C8.46639 4.49727 8.06254 4.58081 7.68651 4.74297M14.7796 8.89241L11.485 5.51024M14.7796 8.89241L11.3033 5.68199M7.68651 4.74297C7.64072 4.76159 7.59092 4.76736 7.54223 4.75969C7.49354 4.75201 7.44773 4.73116 7.40952 4.6993L6.28559 3.73297M7.68651 4.74297L6.28559 3.73297M12.2142 3.80395L12.4085 3.64672C12.3432 3.566 12.2627 3.49889 12.1714 3.44954C12.0801 3.40018 11.9799 3.36963 11.8765 3.35986C11.7732 3.35009 11.669 3.36134 11.5701 3.39285C11.4712 3.42436 11.3797 3.47545 11.3008 3.54287L11.3001 3.54341L10.1784 4.50787C10.1747 4.51072 10.1709 4.5122 10.1675 4.51274C10.1643 4.51325 10.1609 4.51299 10.1574 4.51179L11.3193 5.278C11.2909 5.30216 11.2677 5.33211 11.2512 5.36594C11.2347 5.39977 11.2252 5.43676 11.2234 5.47454M12.2142 3.80395L12.4081 3.64624C12.4736 3.72678 12.5227 3.81945 12.5528 3.91882C12.583 4.01818 12.5937 4.12253 12.5844 4.22596C12.5751 4.32939 12.5459 4.43015 12.4984 4.52246C12.451 4.61468 12.3861 4.69682 12.3071 4.76399L12.3072 4.76393L12.1449 4.57373L12.3068 4.76424L11.4815 5.4682L11.4813 5.46839C11.4794 5.47001 11.4774 5.47237 11.4759 5.47555C11.4749 5.47767 11.4741 5.48005 11.4736 5.4826M12.2142 3.80395C12.1695 3.74866 12.1145 3.70297 12.0526 3.66947C11.9906 3.63598 11.9228 3.61534 11.853 3.60875C11.7832 3.60216 11.7129 3.60974 11.646 3.63105C11.5791 3.65237 11.5169 3.687 11.4631 3.73297L12.2142 3.80395ZM11.4736 5.4826C11.4734 5.48091 11.4734 5.4792 11.4734 5.47746L11.2234 5.47454M11.4736 5.4826C11.4733 5.48388 11.4732 5.48522 11.4731 5.48658L11.2234 5.47454M11.4736 5.4826C11.4745 5.49357 11.4789 5.50324 11.485 5.51024M11.2234 5.47454C11.2225 5.55174 11.2512 5.62623 11.3033 5.68199M6.28559 3.73297C6.23177 3.687 6.16963 3.65237 6.10272 3.63105C6.03582 3.60974 5.96547 3.60216 5.8957 3.60875C5.82593 3.61534 5.75812 3.63598 5.69614 3.66947C5.63417 3.70297 5.57925 3.74866 5.53454 3.80395L6.28559 3.73297ZM11.3033 5.68199L11.4824 5.50755L11.485 5.51024M11.3033 5.68199L11.486 5.51129C11.4856 5.51095 11.4853 5.5106 11.485 5.51024M12.1872 11.5509V11.5509C12.1872 11.4142 12.1342 11.2818 12.0381 11.1833C11.9418 11.0846 11.8098 11.0279 11.6709 11.0279H6.07786C5.9389 11.0279 5.80692 11.0846 5.71059 11.1833C5.61446 11.2818 5.56152 11.4142 5.56152 11.5509V11.5509C5.56152 11.578 5.55545 11.6045 5.54403 11.6283C5.53278 11.6517 5.51677 11.6717 5.49764 11.687C5.26104 11.8693 4.96986 11.9587 4.67614 11.9405C4.38242 11.9223 4.10353 11.7976 3.88966 11.5871C3.77685 11.4723 3.68694 11.3354 3.6254 11.1842C3.56364 11.0325 3.53176 10.8695 3.53176 10.7047C3.53176 10.5399 3.56364 10.3769 3.6254 10.2251C3.68716 10.0734 3.77749 9.93609 3.89088 9.82103L3.89089 9.82103L3.892 9.81988L5.56978 8.09539C5.58811 8.19799 5.63653 8.29396 5.71059 8.36987C5.80692 8.4686 5.9389 8.52523 6.07786 8.52523H11.6709C11.8098 8.52523 11.9418 8.4686 12.0381 8.36987C12.1122 8.29396 12.1606 8.19799 12.1789 8.09539L13.8567 9.81989L13.8578 9.82103C13.9712 9.93609 14.0615 10.0734 14.1233 10.2251C14.1851 10.3769 14.2169 10.5399 14.2169 10.7047C14.2169 10.8695 14.1851 11.0325 14.1233 11.1842C14.0618 11.3354 13.9719 11.4723 13.859 11.5871C13.6452 11.7976 13.3663 11.9223 13.0726 11.9405C12.7788 11.9587 12.4877 11.8693 12.2511 11.687C12.2319 11.6717 12.2159 11.6517 12.2047 11.6283C12.1933 11.6045 12.1872 11.578 12.1872 11.5509ZM12.1872 7.81579C12.1872 7.81607 12.1872 7.81635 12.1872 7.81664L12.1872 7.81579Z" fill="#E69F69" stroke="white" stroke-width="0.5"/>
<path d="M11.6699 8.84375H6.07688C5.78595 8.84375 5.56055 9.08373 5.56055 9.36672V10.1856C5.56055 10.4686 5.78595 10.7086 6.07688 10.7086H11.6699C11.9608 10.7086 12.1862 10.4686 12.1862 10.1856V9.36672C12.1862 9.08373 11.9608 8.84375 11.6699 8.84375Z" fill="#E69F69" stroke="white" stroke-width="0.5"/>
</svg>
