<svg width="25" height="25" viewBox="0 0 25 25" fill="none" xmlns="http://www.w3.org/2000/svg">
<mask id="mask0_7_1369" style="mask-type:luminance" maskUnits="userSpaceOnUse" x="11" y="13" width="12" height="11">
<path d="M22.0449 13.9893H11.9883V23.6526H22.0449V13.9893Z" fill="white"/>
</mask>
<g mask="url(#mask0_7_1369)">
<path fill-rule="evenodd" clip-rule="evenodd" d="M17.5244 14.8818C17.244 14.6123 16.789 14.6123 16.5086 14.8818L12.1986 19.0232C11.918 19.2928 11.918 19.7298 12.1986 19.9994C12.4792 20.2689 12.934 20.2689 13.2144 19.9994L13.4248 19.7973V22.9625C13.4248 23.3437 13.7465 23.6527 14.1431 23.6527H16.2982V21.582C16.2982 21.2008 16.6198 20.8918 17.0165 20.8918C17.4132 20.8918 17.7348 21.2008 17.7348 21.582V23.6527H19.8899C20.2866 23.6527 20.6082 23.3437 20.6082 22.9625V19.7973L20.8186 19.9994C21.099 20.2689 21.554 20.2689 21.8344 19.9994C22.1149 19.7298 22.1149 19.2928 21.8344 19.0232L17.5244 14.8818Z" fill="#E69F69"/>
</g>
<path d="M10.3285 9.88842C10.1808 9.79071 9.99986 9.75053 9.82257 9.77605C9.64517 9.80167 9.4846 9.89103 9.3733 10.0261L7.23361 12.6327L6.13518 11.5681C6.00083 11.4391 5.81879 11.3668 5.62896 11.3668C5.43913 11.3668 5.25698 11.4391 5.12263 11.5681C5.05506 11.6313 5.00138 11.707 4.96466 11.7906C4.92805 11.8741 4.90918 11.9639 4.90918 12.0545C4.90918 12.1452 4.92805 12.235 4.96466 12.3185C5.00138 12.4021 5.05506 12.4776 5.12263 12.5409L6.22117 13.6056C6.36603 13.751 6.54208 13.8644 6.73711 13.9377C6.93214 14.0111 7.14152 14.0428 7.35057 14.0305C7.55972 14.0183 7.76345 13.9624 7.94786 13.8669C8.13216 13.7713 8.29261 13.6383 8.41804 13.4771L10.4239 10.843C10.5403 10.7032 10.5955 10.5253 10.5776 10.3471C10.5598 10.1689 10.4704 10.0044 10.3285 9.88842Z" fill="#514AF3"/>
<path d="M10.3285 16.0838C10.1808 15.986 9.99986 15.9458 9.82257 15.9714C9.64517 15.9969 9.4846 16.0863 9.3733 16.2215L7.23361 18.8281L6.13518 17.7634C6.00083 17.6345 5.81879 17.5621 5.62896 17.5621C5.43913 17.5621 5.25698 17.6345 5.12263 17.7634C5.05506 17.8267 5.00138 17.9023 4.96466 17.9858C4.92805 18.0694 4.90918 18.1591 4.90918 18.2498C4.90918 18.3405 4.92805 18.4302 4.96466 18.5138C5.00138 18.5973 5.05506 18.673 5.12263 18.7363L6.22117 19.801C6.36728 19.9453 6.54445 20.0574 6.74028 20.1292C6.9361 20.2011 7.14593 20.2311 7.35508 20.2171C7.56413 20.2032 7.76763 20.1455 7.95125 20.0482C8.13476 19.9511 8.29408 19.8165 8.41804 19.6541L10.4239 17.0383C10.5403 16.8985 10.5955 16.7206 10.5776 16.5424C10.5598 16.3642 10.4704 16.1996 10.3285 16.0838Z" fill="#514AF3"/>
<path d="M17.8691 7.97034C17.8669 7.48425 17.6642 7.01889 17.3054 6.67622L12.6347 2.1513C12.4287 1.95967 12.1821 1.81298 11.9117 1.72112C11.6414 1.62927 11.3537 1.59441 11.0681 1.61895H4.1941C3.62404 1.61895 3.07748 1.83654 2.67442 2.22383C2.27137 2.61112 2.04492 3.13642 2.04492 3.68407V21.5817C2.04492 22.1295 2.27137 22.6546 2.67442 23.0419C3.07748 23.4292 3.62404 23.6468 4.1941 23.6468H11.1832C11.3732 23.6468 11.5554 23.5743 11.6898 23.4452C11.8241 23.3161 11.8996 23.1411 11.8996 22.9584C11.8996 22.7759 11.8241 22.6008 11.6898 22.4717C11.5554 22.3426 11.3732 22.2701 11.1832 22.2701H4.1941C4.00404 22.2701 3.82189 22.1975 3.68754 22.0684C3.55319 21.9393 3.47771 21.7643 3.47771 21.5817V3.68407C3.47646 3.59341 3.49409 3.5033 3.52957 3.41926C3.56517 3.33511 3.61793 3.25878 3.68472 3.19461C3.7515 3.13044 3.83093 3.07974 3.91839 3.04565C4.00596 3.01144 4.09964 2.99451 4.1941 2.9957H10.4664V6.89652C10.4664 7.38338 10.6676 7.85026 11.0259 8.19444C11.3841 8.53874 11.8701 8.73211 12.3767 8.73211H17.1527C17.3418 8.72973 17.5226 8.65644 17.6565 8.52788C17.7903 8.39933 17.8666 8.22561 17.8691 8.04374C17.8735 8.02572 17.8735 8.00682 17.8691 7.98869C17.87 7.98261 17.87 7.97642 17.8691 7.97034ZM11.8992 6.89652V3.38126L16.0159 7.34625H12.3767C12.2517 7.34625 12.1316 7.29912 12.0423 7.21508C11.9531 7.13094 11.9017 7.01661 11.8992 6.89652Z" fill="#514AF3"/>
<path d="M17.3652 8.0957V12.3302" stroke="#514AF3" stroke-linecap="round"/>
</svg>
