<svg width="25" height="25" viewBox="0 0 25 25" fill="none" xmlns="http://www.w3.org/2000/svg">
<g clip-path="url(#clip0_7_417)">
<mask id="mask0_7_417" style="mask-type:luminance" maskUnits="userSpaceOnUse" x="0" y="0" width="25" height="25">
<path d="M24.8418 0.78125H0.841797V24.7812H24.8418V0.78125Z" fill="white"/>
</mask>
<g mask="url(#mask0_7_417)">
<mask id="mask1_7_417" style="mask-type:luminance" maskUnits="userSpaceOnUse" x="0" y="0" width="25" height="25">
<path d="M24.8418 0.78125H0.841797V24.7812H24.8418V0.78125Z" fill="white"/>
</mask>
<g mask="url(#mask1_7_417)">
<path fill-rule="evenodd" clip-rule="evenodd" d="M13.931 1.75058C13.2396 1.3982 12.4408 1.39825 11.7494 1.75068C10.7315 2.26953 8.8498 3.45502 6.10185 6.0786C3.81077 8.26595 2.45092 9.7785 1.68308 10.7095C1.30428 11.1688 1.20265 11.7633 1.42146 12.2844C1.63965 12.8041 2.13304 13.1478 2.72201 13.2043C3.08972 13.2396 3.54138 13.2766 4.09184 13.3126V16.7815C4.09184 19.0182 4.19231 20.6102 4.29209 21.6397C4.41059 22.8623 5.38143 23.7643 6.58175 23.8486C7.81185 23.935 9.8547 24.0315 12.8419 24.0315C15.829 24.0315 17.8719 23.935 19.102 23.8486C20.3023 23.7643 21.2731 22.8623 21.3916 21.6397C21.4914 20.6102 21.5918 19.0182 21.5918 16.7815V13.3124C22.1405 13.2766 22.591 13.2396 22.9579 13.2043C23.547 13.1478 24.0404 12.804 24.2586 12.2843C24.4774 11.7632 24.3758 11.1687 23.9969 10.7093C23.2289 9.77825 21.869 8.2658 19.5786 6.07865C16.831 3.45491 14.9491 2.26939 13.931 1.75058Z" fill="#514AF3"/>
<path fill-rule="evenodd" clip-rule="evenodd" d="M18.0918 14.2812C18.0918 13.7887 18.0544 13.4423 18.0092 13.2029C17.9342 12.8052 17.5977 12.5854 17.2422 12.5639C16.9616 12.547 16.5194 12.5312 15.8418 12.5312C15.1642 12.5312 14.7221 12.547 14.4415 12.5639C14.0859 12.5854 13.7495 12.8052 13.6744 13.2029C13.6292 13.4423 13.5918 13.7887 13.5918 14.2812C13.5918 14.7738 13.6292 15.1202 13.6744 15.3596C13.7495 15.7573 14.0859 15.9771 14.4415 15.9986C14.7221 16.0155 15.1642 16.0312 15.8418 16.0312C16.5194 16.0312 16.9616 16.0155 17.2422 15.9986C17.5977 15.9771 17.9342 15.7573 18.0092 15.3596C18.0544 15.1202 18.0918 14.7738 18.0918 14.2812Z" fill="#E69F69"/>
<path d="M12.2622 24.0299C12.2969 23.5883 12.3418 22.6949 12.3418 21.0312C12.3418 19.7782 12.3163 18.9623 12.289 18.4471C12.2619 17.9376 11.9734 17.5061 11.4723 17.4098C11.1058 17.3393 10.5799 17.2812 9.8418 17.2812C9.1037 17.2812 8.57775 17.3393 8.2113 17.4098C7.7102 17.5061 7.42175 17.9376 7.39465 18.4471C7.3673 18.9623 7.3418 19.7782 7.3418 21.0312C7.3418 22.5458 7.37905 23.4219 7.41185 23.9C8.5576 23.9634 10.1569 24.0208 12.2622 24.0299Z" fill="#E69F69"/>
</g>
</g>
</g>
<defs>
<clipPath id="clip0_7_417">
<rect width="24" height="24" fill="white" transform="translate(0.841797 0.78125)"/>
</clipPath>
</defs>
</svg>
