<svg width="25" height="25" viewBox="0 0 25 25" fill="none" xmlns="http://www.w3.org/2000/svg">
<path d="M9.03711 9.32565C9.29601 9.2249 9.57416 9.19223 9.84755 9.23044C10.121 9.26875 10.3816 9.37666 10.6069 9.54505C10.8321 9.71344 11.0155 9.93722 11.1409 10.1973C11.2664 10.4572 11.3303 10.7455 11.3271 11.0373V14.74H14.3407V8.9112C14.343 8.28924 14.4707 7.6749 14.7153 7.10938H9.03711V9.32565Z" fill="#E69F69"/>
<path d="M15.6177 5.73079C15.9374 5.40682 16.302 5.13641 16.6988 4.92902V3.83894C16.6988 3.36101 16.5195 2.90271 16.2002 2.56489C15.8808 2.22696 15.4478 2.03711 14.9962 2.03711H10.7397C10.2882 2.03711 9.85511 2.22696 9.53578 2.56489C9.21645 2.90271 9.03711 3.36101 9.03711 3.83894V5.73079H15.6177Z" fill="#514AF3"/>
<path d="M21.3728 11.5684H15.618V14.7396H21.3728V11.5684Z" fill="#E69F69"/>
<path d="M21.3728 10.2175V8.91127C21.3728 8.10361 21.0697 7.32907 20.5301 6.75812C19.9904 6.18706 19.2586 5.86621 18.4955 5.86621C17.7323 5.86621 17.0004 6.18706 16.4608 6.75812C15.9212 7.32907 15.618 8.10361 15.618 8.91127V10.2175H21.3728Z" fill="#514AF3"/>
<path d="M21.7901 16.1177H10.0505V11.0367C10.0538 10.9601 10.0385 10.8842 10.0062 10.8156C9.9739 10.7472 9.92569 10.6886 9.86612 10.6453C9.80645 10.602 9.73737 10.5756 9.66538 10.5684C9.59349 10.5612 9.52095 10.5735 9.45469 10.6042L2.64427 13.415C2.39585 13.5134 2.18159 13.6892 2.0296 13.9192C1.87761 14.1492 1.79502 14.4227 1.79297 14.7033V22.5772C1.79297 22.6375 1.80421 22.6973 1.82605 22.7531C1.84788 22.8088 1.87977 22.8595 1.9201 22.9021C1.96042 22.9448 2.00831 22.9786 2.06095 23.0017C2.11371 23.0247 2.17014 23.0366 2.22711 23.0366H4.3979C4.45498 23.0366 4.51141 23.0247 4.56405 23.0017C4.61681 22.9786 4.66459 22.9448 4.70491 22.9021C4.74523 22.8595 4.77723 22.8088 4.79906 22.7531C4.8209 22.6973 4.83214 22.6375 4.83214 22.5772V20.2349C4.83214 19.7462 5.01548 19.2776 5.34206 18.9321C5.66853 18.5866 6.11131 18.3925 6.57302 18.3925C7.03472 18.3925 7.4775 18.5866 7.80408 18.9321C8.13055 19.2776 8.31389 19.7462 8.31389 20.2349V22.5322C8.31389 22.654 8.35972 22.7709 8.44112 22.857C8.52252 22.9433 8.633 22.9916 8.74813 22.9916H21.7901C21.9052 22.9916 22.0156 22.9433 22.0971 22.857C22.1785 22.7709 22.2242 22.654 22.2242 22.5322V16.5502C22.2177 16.433 22.1691 16.323 22.0883 16.2426C22.0077 16.1622 21.9009 16.1175 21.7901 16.1177ZM12.1193 20.2169H11.268C11.0986 20.2169 10.9362 20.1456 10.8164 20.0189C10.6968 19.8922 10.6295 19.7203 10.6295 19.5411C10.6295 19.362 10.6968 19.1901 10.8164 19.0634C10.9362 18.9367 11.0986 18.8655 11.268 18.8655H12.1193C12.2886 18.8655 12.4509 18.9367 12.5707 19.0634C12.6905 19.1901 12.7577 19.362 12.7577 19.5411C12.7577 19.7203 12.6905 19.8922 12.5707 20.0189C12.4509 20.1456 12.2886 20.2169 12.1193 20.2169ZM15.5926 20.2169H14.7413C14.5719 20.2169 14.4095 20.1456 14.2898 20.0189C14.1701 19.8922 14.1028 19.7203 14.1028 19.5411C14.1028 19.362 14.1701 19.1901 14.2898 19.0634C14.4095 18.9367 14.5719 18.8655 14.7413 18.8655H15.5926C15.7619 18.8655 15.9243 18.9367 16.044 19.0634C16.1638 19.1901 16.231 19.362 16.231 19.5411C16.231 19.7203 16.1638 19.8922 16.044 20.0189C15.9243 20.1456 15.7619 20.2169 15.5926 20.2169ZM19.0743 20.2169H18.223C18.0538 20.2169 17.8914 20.1456 17.7716 20.0189C17.6519 19.8922 17.5846 19.7203 17.5846 19.5411C17.5846 19.362 17.6519 19.1901 17.7716 19.0634C17.8914 18.9367 18.0538 18.8655 18.223 18.8655H19.0743C19.2437 18.8655 19.4061 18.9367 19.5259 19.0634C19.6456 19.1901 19.7129 19.362 19.7129 19.5411C19.7129 19.7203 19.6456 19.8922 19.5259 20.0189C19.4061 20.1456 19.2437 20.2169 19.0743 20.2169Z" fill="#514AF3"/>
</svg>
