<svg width="25" height="25" viewBox="0 0 25 25" fill="none" xmlns="http://www.w3.org/2000/svg">
<path d="M3.21003 6.50733C3.19837 6.53561 3.19226 6.56619 3.19226 6.59701C3.19226 6.62795 3.19837 6.65853 3.21003 6.68669C3.22905 6.7128 3.25328 6.73395 3.28102 6.7487C3.30864 6.76356 3.33909 6.77154 3.37 6.77214H11.2101C11.2633 6.7719 11.3146 6.75051 11.3541 6.71232C11.3708 6.69141 11.3832 6.66687 11.3901 6.64028C11.397 6.61369 11.3983 6.58577 11.394 6.55858L11.338 2.50165C11.338 2.44497 11.3169 2.3907 11.2795 2.35057C11.2419 2.31057 11.1911 2.28809 11.1381 2.28809H6.13C5.74158 2.30053 5.36437 2.42974 5.04162 2.66095C4.71898 2.89204 4.46403 3.21584 4.306 3.59487L3.36207 5.87533C3.30105 6.08298 3.25034 6.29401 3.21003 6.50733Z" fill="#E69F69"/>
<path d="M12.8094 6.77214H20.6494C20.6803 6.77154 20.7107 6.76356 20.7384 6.7487C20.7661 6.73395 20.7903 6.7128 20.8093 6.68669C20.8211 6.65853 20.8271 6.62795 20.8271 6.59701C20.8271 6.56619 20.8211 6.53561 20.8093 6.50733C20.7586 6.2934 20.6971 6.08237 20.6254 5.87533V5.79846L19.5694 3.62049C19.4129 3.23469 19.1568 2.90449 18.8309 2.66845C18.5051 2.43252 18.1229 2.30053 17.7294 2.28809H12.7374C12.6867 2.28966 12.6383 2.31093 12.6013 2.34791C12.5626 2.38865 12.5398 2.44364 12.5374 2.50165L12.6013 6.55858C12.6013 6.58734 12.6067 6.61587 12.6173 6.64234C12.6278 6.66881 12.6433 6.69274 12.6628 6.71268C12.6821 6.73262 12.7051 6.74821 12.7304 6.75836C12.7556 6.76864 12.7824 6.77335 12.8094 6.77214Z" fill="#E69F69"/>
<path d="M3.00879 8.26728V21.0789C3.00879 21.5319 3.17736 21.9664 3.47747 22.2868C3.77747 22.6071 4.18445 22.787 4.60875 22.787H19.4088C19.8331 22.787 20.2401 22.6071 20.5401 22.2868C20.8402 21.9664 21.0088 21.5319 21.0088 21.0789V8.26728C21.0088 8.21059 20.9877 8.15633 20.9503 8.11632C20.9127 8.07619 20.8618 8.05371 20.8088 8.05371H3.20883C3.15573 8.05371 3.1049 8.07619 3.06732 8.11632C3.02985 8.15633 3.00879 8.21059 3.00879 8.26728ZM7.64079 15.1429C7.67283 15.0671 7.72456 15.0027 7.78977 14.9573C7.85498 14.9119 7.93094 14.8874 8.00883 14.8866H9.40875C9.46185 14.8866 9.51268 14.864 9.55026 14.824C9.58773 14.784 9.60879 14.7296 9.60879 14.6731V10.616C9.60879 10.5028 9.6509 10.3941 9.72596 10.3141C9.80102 10.234 9.90268 10.189 10.0088 10.189H13.8088C13.9149 10.189 14.0166 10.234 14.0916 10.3141C14.1666 10.3941 14.2088 10.5028 14.2088 10.616V14.6731C14.2088 14.7296 14.2298 14.784 14.2674 14.824C14.3049 14.864 14.3557 14.8866 14.4088 14.8866H15.8088C15.8846 14.8893 15.9583 14.9144 16.0213 14.9593C16.0845 15.0042 16.1346 15.067 16.1662 15.1406C16.1978 15.2143 16.2096 15.2958 16.2001 15.3761C16.1907 15.4565 16.1605 15.5324 16.1128 15.5955L12.3128 20.2931C12.2757 20.3381 12.2302 20.3742 12.1793 20.3993C12.1282 20.4243 12.0729 20.4376 12.0168 20.4383C11.9614 20.4382 11.9064 20.426 11.8556 20.4025C11.8047 20.3789 11.7588 20.3446 11.7208 20.3016L7.72083 15.6041C7.66762 15.5433 7.63185 15.4676 7.6177 15.3859C7.60354 15.3042 7.61147 15.2199 7.64079 15.1429Z" fill="#514AF3"/>
</svg>
