<svg width="25" height="25" viewBox="0 0 25 25" fill="none" xmlns="http://www.w3.org/2000/svg">
<g clip-path="url(#clip0_7_429)">
<mask id="mask0_7_429" style="mask-type:luminance" maskUnits="userSpaceOnUse" x="0" y="0" width="25" height="25">
<path d="M24.8418 0.78125H0.841797V24.7812H24.8418V0.78125Z" fill="white"/>
</mask>
<g mask="url(#mask0_7_429)">
<mask id="mask1_7_429" style="mask-type:luminance" maskUnits="userSpaceOnUse" x="0" y="0" width="25" height="25">
<path d="M24.8418 0.78125H0.841797V24.7812H24.8418V0.78125Z" fill="white"/>
</mask>
<g mask="url(#mask1_7_429)">
<path d="M1.59514 12.2093C1.92235 8.04695 2.2742 4.55414 2.42304 3.12834C2.49841 2.4063 3.02902 1.76643 3.80963 1.64886C4.20926 1.58868 4.74563 1.53125 5.3418 1.53125C5.93795 1.53125 6.47435 1.58868 6.87395 1.64886C7.6546 1.76643 8.1852 2.4063 8.26055 3.12834C8.40125 4.47593 8.72325 7.66995 9.03445 11.5306H9.36415C10.6828 10.0533 12.8093 8.1286 15.781 6.82435C16.5159 6.5018 17.3722 6.9619 17.4617 7.79155C17.5092 8.23155 17.5614 8.9012 17.5823 9.83005C18.8042 8.76155 20.3672 7.66435 22.2811 6.82435C23.0159 6.50185 23.8722 6.96195 23.9617 7.79155C24.0229 8.35795 24.0918 9.30475 24.0918 10.6952V15.173C23.8598 14.8854 23.5821 14.6138 23.2622 14.4044C22.8004 14.1022 22.3231 14.0974 22.0929 14.1101C21.9247 14.1194 21.7669 14.1462 21.6328 14.176C21.5916 14.0446 21.5355 13.8933 21.4586 13.7417C21.3544 13.5361 21.1119 13.1274 20.621 12.8795C20.0382 12.5851 19.3598 12.4883 18.7937 12.4883C18.2276 12.4883 17.5491 12.5851 16.9663 12.8795C16.4754 13.1274 16.233 13.5362 16.1288 13.7418C16.0519 13.8933 15.9958 14.0446 15.9546 14.176C15.8205 14.1462 15.6627 14.1194 15.4946 14.1101C15.2644 14.0974 14.7871 14.1022 14.3253 14.4044C13.7789 14.7619 13.3558 15.3011 13.0728 15.7913C12.7898 16.2815 12.5344 16.9176 12.4979 17.5695C12.4666 18.1302 12.7092 18.5525 12.8366 18.7453C12.924 18.8777 13.0203 18.9948 13.11 19.0935C13.021 19.1916 12.9259 19.3077 12.8395 19.438C12.7117 19.6308 12.4663 20.0552 12.4979 20.6189C12.5344 21.2708 12.7898 21.907 13.0728 22.3972C13.3558 22.8874 13.7789 23.4266 14.3252 23.784C14.5099 23.9049 14.6975 23.9788 14.8717 24.0229C14.2362 24.0279 13.5599 24.0306 12.8418 24.0306C9.0454 24.0306 6.4184 23.9537 4.80262 23.8829C3.27088 23.8157 1.92951 22.7496 1.75454 21.1318C1.66352 20.2902 1.5918 19.1822 1.5918 17.7806V12.2812C1.5918 12.2572 1.59293 12.2327 1.59514 12.2093Z" fill="#514AF3"/>
<path d="M9.0348 11.5312H1.64941C1.79989 9.66425 1.95291 7.9531 2.08673 6.53125H8.59745C8.7313 7.9531 8.8843 9.66425 9.0348 11.5312Z" fill="#E69F69"/>
<path d="M10.5408 24.0207C10.5417 23.9949 10.5427 23.9685 10.5437 23.9415C10.5678 23.2679 10.5918 21.734 10.5918 20.2812C10.5918 18.6251 10.5607 17.6718 10.5331 17.1516C10.5055 16.6296 10.231 15.9682 9.5133 15.7432C9.13365 15.6242 8.59635 15.5312 7.8418 15.5312C7.08725 15.5312 6.54995 15.6242 6.1703 15.7432C5.45255 15.9682 5.17809 16.6296 5.15045 17.1516C5.12291 17.6718 5.0918 18.6251 5.0918 20.2812C5.0918 21.7024 5.11471 23.2229 5.13833 23.8972C6.3941 23.9483 8.1755 23.9997 10.5408 24.0207Z" fill="#E69F69"/>
<path d="M17.5074 14.3931C17.5311 14.3192 17.5733 14.2528 17.6425 14.2179C17.7892 14.1438 18.1225 14.0312 18.7937 14.0312C19.4648 14.0312 19.7982 14.1438 19.9448 14.2179C20.0141 14.2528 20.0563 14.3192 20.08 14.3931C20.1334 14.5603 20.2404 14.9041 20.3644 15.3513C20.6785 15.4855 20.972 15.659 21.2387 15.8652C21.6931 15.7474 22.0487 15.6671 22.2215 15.6295C22.2974 15.613 22.3758 15.6165 22.4408 15.659C22.5783 15.7489 22.8424 15.9812 23.178 16.5625C23.5136 17.1437 23.5828 17.4888 23.5919 17.6528C23.5962 17.7303 23.56 17.8001 23.5078 17.8575C23.3842 17.9935 23.1223 18.2769 22.774 18.6297C22.7871 18.7617 22.7939 18.8958 22.7939 19.0312C22.7939 19.2052 22.7828 19.3766 22.7612 19.5448C23.1159 19.9035 23.3827 20.1924 23.5078 20.33C23.56 20.3874 23.5962 20.4572 23.5919 20.5347C23.5827 20.6987 23.5136 21.0438 23.178 21.625C22.8424 22.2063 22.5783 22.4386 22.4408 22.5285C22.3758 22.571 22.2974 22.5744 22.2215 22.5579C22.0332 22.5169 21.6279 22.4255 21.1142 22.2899C20.893 22.4477 20.655 22.5836 20.4034 22.6943C20.2632 23.2105 20.139 23.6098 20.0801 23.7943C20.0565 23.8682 20.0142 23.9345 19.9449 23.9695C19.7983 24.0436 19.465 24.1562 18.7938 24.1562C18.1226 24.1562 17.7893 24.0436 17.6427 23.9695C17.5734 23.9345 17.5311 23.8682 17.5075 23.7943C17.4485 23.6098 17.3244 23.2104 17.1842 22.6942C16.9326 22.5835 16.6946 22.4475 16.4734 22.2897C15.9596 22.4253 15.5543 22.5169 15.366 22.5579C15.2901 22.5744 15.2116 22.571 15.1467 22.5285C15.0092 22.4386 14.745 22.2063 14.4094 21.625C14.0739 21.0438 14.0047 20.6987 13.9955 20.5347C13.9912 20.4572 14.0275 20.3874 14.0797 20.33C14.2048 20.1924 14.4716 19.9035 14.8265 19.5446C14.8049 19.3765 14.7938 19.2052 14.7938 19.0312C14.7938 18.8959 14.8006 18.7619 14.8137 18.6299C14.4652 18.2771 14.2033 17.9935 14.0797 17.8575C14.0275 17.8001 13.9912 17.7303 13.9956 17.6528C14.0047 17.4888 14.0739 17.1437 14.4094 16.5625C14.745 15.9812 15.0092 15.7489 15.1467 15.659C15.2116 15.6165 15.2901 15.613 15.366 15.6295C15.5389 15.6671 15.8944 15.7475 16.3489 15.8652C16.6155 15.6591 16.9089 15.4857 17.2229 15.3514C17.3469 14.9041 17.454 14.5603 17.5074 14.3931Z" fill="#E69F69"/>
<path d="M18.7939 17.2812C17.8274 17.2812 17.0439 18.0648 17.0439 19.0312C17.0439 19.9977 17.8274 20.7812 18.7939 20.7812C19.7604 20.7812 20.5439 19.9977 20.5439 19.0312C20.5439 18.0648 19.7604 17.2812 18.7939 17.2812Z" fill="#514AF3"/>
</g>
</g>
</g>
<defs>
<clipPath id="clip0_7_429">
<rect width="24" height="24" fill="white" transform="translate(0.841797 0.78125)"/>
</clipPath>
</defs>
</svg>
