<svg width="25" height="25" viewBox="0 0 25 25" fill="none" xmlns="http://www.w3.org/2000/svg">
<path d="M5.32258 5.14629C5.49077 5.5664 5.74119 5.94316 6.05691 6.25148C6.37274 6.5598 6.74659 6.79256 7.15345 6.93396C7.56031 7.07548 7.99077 7.1224 8.41605 7.0718C8.84134 7.0211 9.25155 6.87407 9.61922 6.64034C10.2539 6.21786 10.7214 5.56154 10.9332 4.79559C11.163 4.03105 10.9332 4.18543 11.2681 4.18543C11.6399 4.16846 12.0045 4.07224 12.3408 3.9024C12.6771 3.73257 12.978 3.49246 13.226 3.19646C13.4501 3.43257 13.7249 3.60673 14.0265 3.70359C14.3281 3.80035 14.6473 3.817 14.9562 3.75203C15.2652 3.68705 15.5546 3.5423 15.7992 3.33062C16.0438 3.11884 16.2362 2.84641 16.3597 2.53711H1.93262C1.9473 3.00716 2.0762 3.465 2.30657 3.86576C2.53683 4.26662 2.86076 4.59667 3.24656 4.8237C3.55084 5.03289 3.89361 5.16997 4.25176 5.22564C4.60992 5.28132 4.97506 5.25429 5.32258 5.14629Z" fill="#E69F69"/>
<path d="M12.0605 9.20559C12.0606 9.37748 12.1081 9.54548 12.1969 9.68883C12.2858 9.83218 12.4122 9.9444 12.5604 10.0117C12.7085 10.079 12.8719 10.0982 13.0303 10.0672C13.1886 10.0361 13.3349 9.95597 13.4509 9.83683C13.567 9.7177 13.6477 9.56483 13.683 9.39716C13.7183 9.22937 13.7066 9.05435 13.6495 8.89359C13.5923 8.73294 13.4923 8.5937 13.3615 8.49337C13.2309 8.39294 13.0755 8.33564 12.9146 8.32883C12.804 8.32408 12.6937 8.34332 12.5902 8.38527C12.4867 8.4271 12.3924 8.491 12.3126 8.57283C12.2328 8.65478 12.1694 8.75305 12.1261 8.8617C12.0827 8.97045 12.0604 9.08743 12.0605 9.20559Z" fill="#E69F69"/>
<path d="M14.9551 7.13652C14.9551 7.30993 15.0033 7.47944 15.0935 7.62355C15.1837 7.76776 15.312 7.88009 15.462 7.94647C15.612 8.01284 15.7772 8.03025 15.9365 7.99641C16.0958 7.96257 16.2421 7.87901 16.357 7.75641C16.4718 7.63382 16.55 7.4776 16.5817 7.30755C16.6134 7.13749 16.5972 6.96117 16.535 6.80095C16.4729 6.64074 16.3675 6.50376 16.2326 6.40744C16.0975 6.31112 15.9387 6.25977 15.7763 6.25977C15.5585 6.25977 15.3496 6.35209 15.1956 6.51652C15.0416 6.68095 14.9551 6.90398 14.9551 7.13652Z" fill="#E69F69"/>
<path d="M14.0301 6.22439C14.0301 6.05099 13.982 5.88147 13.8917 5.73726C13.8015 5.59315 13.6733 5.48072 13.5232 5.41434C13.3731 5.34807 13.208 5.33066 13.0487 5.3645C12.8894 5.39834 12.7431 5.4818 12.6283 5.60439C12.5133 5.72709 12.4352 5.88331 12.4035 6.05336C12.3718 6.22342 12.3881 6.39974 12.4502 6.55996C12.5123 6.72007 12.6176 6.85704 12.7526 6.95336C12.8877 7.04969 13.0465 7.10115 13.2089 7.10115C13.4267 7.10115 13.6356 7.00882 13.7896 6.84439C13.9436 6.67996 14.0301 6.45693 14.0301 6.22439Z" fill="#E69F69"/>
<path d="M19.0013 5.99655H21.5151C21.6163 5.99698 21.7158 5.9679 21.8032 5.91233C21.8906 5.85687 21.9628 5.77687 22.0123 5.68066C22.0618 5.58455 22.0868 5.47568 22.0847 5.36552C22.0825 5.25525 22.0534 5.14769 22.0003 5.05385C20.6355 2.63688 20.7349 2.8038 20.6866 2.74499C20.6279 2.67288 20.5543 2.61666 20.472 2.58099C20.3898 2.54521 20.3009 2.53104 20.2127 2.53948C20.1244 2.54791 20.0392 2.57861 19.9639 2.62942C19.8885 2.68012 19.8251 2.74931 19.7787 2.83158C18.4282 5.22379 18.5047 5.07547 18.4764 5.15893C18.444 5.25201 18.4326 5.35233 18.4434 5.45115C18.4541 5.55006 18.4867 5.64466 18.5383 5.72693C18.5898 5.8092 18.6588 5.87666 18.7394 5.92358C18.8201 5.9705 18.9099 5.99558 19.0013 5.99655ZM20.2553 5.53287C20.2059 5.53287 20.1575 5.51688 20.1164 5.48682C20.0753 5.45688 20.0433 5.41417 20.0244 5.36433C20.0056 5.31439 20.0009 5.25958 20.0107 5.20671C20.0206 5.15385 20.0446 5.10542 20.0798 5.06747C20.1151 5.02963 20.1598 5.0039 20.2084 4.99385C20.257 4.98369 20.3074 4.98952 20.3529 5.0105C20.3985 5.03158 20.4373 5.06693 20.4643 5.11212C20.4915 5.1572 20.5056 5.21006 20.505 5.26401C20.505 5.29958 20.4985 5.33482 20.486 5.36769C20.4734 5.40044 20.455 5.43028 20.4317 5.45525C20.4085 5.48023 20.381 5.50001 20.3507 5.51331C20.3204 5.52671 20.288 5.53331 20.2553 5.53287ZM20.3972 3.63212V4.50369C20.3972 4.54466 20.3823 4.58401 20.3557 4.61298C20.329 4.64196 20.293 4.65828 20.2553 4.65828C20.218 4.65742 20.1823 4.64088 20.1559 4.61212C20.1295 4.58326 20.1143 4.54444 20.1135 4.50369V3.63212C20.1135 3.59115 20.1284 3.5518 20.1551 3.52282C20.1817 3.49385 20.2178 3.47753 20.2553 3.47753C20.293 3.47753 20.329 3.49385 20.3557 3.52282C20.3823 3.5518 20.3972 3.59115 20.3972 3.63212Z" fill="#514AF3"/>
<path d="M6.99684 10.1042C6.94905 9.58003 6.90905 9.15939 6.881 8.86998C6.83564 8.40155 6.51616 7.98652 6.04612 7.91031C5.80552 7.87128 5.48251 7.83398 5.12354 7.83398C4.76458 7.83398 4.44156 7.87128 4.20097 7.91031C3.73092 7.98652 3.41145 8.40155 3.36608 8.86998C3.33804 9.15939 3.29804 9.58003 3.25024 10.1042H6.99684Z" fill="#514AF3"/>
<path d="M7.29977 13.4558H3.04688C3.11178 12.6223 3.17568 11.8545 3.2335 11.1855H7.11315C7.17097 11.8545 7.23486 12.6223 7.29977 13.4558Z" fill="#E69F69"/>
<path fill-rule="evenodd" clip-rule="evenodd" d="M2.84732 14.8634C2.84631 14.8772 2.8457 14.8911 2.8457 14.9052V18.4776C2.8457 19.388 2.88965 20.1076 2.94534 20.6542C3.05237 21.705 3.87339 22.3976 4.81095 22.4412C5.79985 22.4873 7.40774 22.5371 9.73134 22.5371C12.0549 22.5371 13.6628 22.4873 14.6517 22.4412C15.5893 22.3976 16.4103 21.705 16.5173 20.6542C16.573 20.1076 16.617 19.388 16.617 18.4776V13.8754C16.617 12.9723 16.5749 12.3574 16.5374 11.9895C16.4826 11.4506 15.9584 11.1518 15.5087 11.3613C14.3373 11.9068 13.3807 12.6195 12.6328 13.3136C12.6201 12.7102 12.5881 12.2753 12.559 11.9895C12.5042 11.4506 11.9801 11.1518 11.5303 11.3613C9.7115 12.2084 8.40991 13.4586 7.60287 14.418H7.40106L2.88074 14.4179C2.8696 14.5649 2.85846 14.7135 2.84732 14.8634ZM5.84896 17.1063C6.04175 17.0554 6.30817 17.016 6.67108 17.016C7.03399 17.016 7.30031 17.0554 7.4931 17.1063C7.84579 17.1994 8.00376 17.5439 8.01793 17.8727C8.03292 18.223 8.04821 18.8152 8.04821 19.7765C8.04821 20.1556 8.04578 20.4774 8.04203 20.7495C8.03829 21.0174 7.8305 21.2298 7.57928 21.2266C6.87573 21.2176 6.26544 21.204 5.74354 21.1884C5.4991 21.1811 5.30307 20.9712 5.29962 20.7111C5.29608 20.4473 5.29395 20.1379 5.29395 19.7765C5.29395 18.8152 5.30924 18.223 5.32423 17.8727C5.33831 17.5439 5.49627 17.1994 5.84896 17.1063ZM10.6495 17.3407C10.3959 17.3407 10.1904 17.5589 10.1904 17.8279C10.1904 18.0969 10.3959 18.315 10.6495 18.315H13.7097C13.9632 18.315 14.1687 18.0969 14.1687 17.8279C14.1687 17.5589 13.9632 17.3407 13.7097 17.3407H10.6495ZM10.1904 20.1013C10.1904 19.8322 10.3959 19.6141 10.6495 19.6141H13.7097C13.9632 19.6141 14.1687 19.8322 14.1687 20.1013C14.1687 20.3702 13.9632 20.5884 13.7097 20.5884H10.6495C10.3959 20.5884 10.1904 20.3702 10.1904 20.1013Z" fill="#514AF3"/>
</svg>
