<svg width="25" height="25" viewBox="0 0 25 25" fill="none" xmlns="http://www.w3.org/2000/svg">
<path d="M12.3498 16.1374C12.3432 16.127 12.3395 16.1146 12.3395 16.1019C12.3395 16.0893 12.3432 16.077 12.3498 16.0666C12.3552 16.0549 12.3635 16.0452 12.3739 16.0384C12.3843 16.0318 12.3963 16.0285 12.4084 16.029C12.5119 16.029 12.6111 15.9851 12.6844 15.907C12.7576 15.8287 12.7987 15.7228 12.7987 15.6123C12.7987 15.5017 12.7576 15.3958 12.6844 15.3177C12.6111 15.2394 12.5119 15.1956 12.4084 15.1956H8.50125C8.44939 15.1956 8.39978 15.1736 8.36325 15.1345C8.32661 15.0954 8.30603 15.0424 8.30603 14.9872V10.199C8.30603 10.1437 8.32661 10.0908 8.36325 10.0516C8.39978 10.0126 8.44939 9.99067 8.50125 9.99067H14.9416C14.9934 9.99067 15.043 10.0126 15.0796 10.0516C15.1162 10.0908 15.1368 10.1437 15.1368 10.199V10.4074C15.1368 10.5179 15.1779 10.6239 15.2511 10.7021C15.3243 10.7802 15.4235 10.8241 15.5271 10.8241C15.6306 10.8241 15.73 10.7802 15.8031 10.7021C15.8763 10.6239 15.9175 10.5179 15.9175 10.4074V9.99067C15.9175 9.76955 15.8352 9.55759 15.6888 9.40133C15.5424 9.24496 15.3438 9.15723 15.1368 9.15723H8.30603C8.09903 9.15723 7.90039 9.24496 7.75403 9.40133C7.60768 9.55759 7.52539 9.76955 7.52539 9.99067V15.1997C7.52539 15.4207 7.60768 15.6328 7.75403 15.7891C7.90039 15.9453 8.09903 16.0332 8.30603 16.0332H10.7846C10.8021 16.0332 10.8194 16.0381 10.8345 16.0477C10.8496 16.0572 10.862 16.0709 10.8705 16.0874C10.8791 16.104 10.8835 16.1226 10.8835 16.1415C10.8835 16.1605 10.8791 16.1791 10.8705 16.1957L10.3865 16.9708C10.3665 17.0023 10.355 17.0391 10.3532 17.0771C10.3515 17.1151 10.3594 17.1528 10.3764 17.1863C10.3932 17.2197 10.4184 17.2476 10.4491 17.267C10.4797 17.2863 10.5148 17.2962 10.5505 17.2959H12.6972C12.7329 17.2962 12.7679 17.2863 12.7986 17.267C12.8293 17.2476 12.8545 17.2197 12.8713 17.1863C12.8882 17.1528 12.8961 17.1151 12.8944 17.0771C12.8926 17.0391 12.8811 17.0023 12.8612 16.9708L12.3498 16.1374Z" fill="#E69F69"/>
<path d="M16.5022 11.4492H13.77C13.6665 11.4492 13.5671 11.4931 13.494 11.5713C13.4208 11.6494 13.3796 11.7554 13.3796 11.8659V16.8666C13.3796 16.9772 13.4208 17.0831 13.494 17.1614C13.5671 17.2395 13.6665 17.2834 13.77 17.2834H16.5022C16.6058 17.2834 16.705 17.2395 16.7782 17.1614C16.8515 17.0831 16.8925 16.9772 16.8925 16.8666V11.8659C16.8925 11.7554 16.8515 11.6494 16.7782 11.5713C16.705 11.4931 16.6058 11.4492 16.5022 11.4492ZM16.1119 12.8036H15.3312C15.2537 12.8036 15.1792 12.7706 15.1242 12.712C15.0694 12.6534 15.0385 12.5739 15.0385 12.491C15.0385 12.4081 15.0694 12.3286 15.1242 12.27C15.1792 12.2114 15.2537 12.1785 15.3312 12.1785H16.1119C16.1896 12.1785 16.264 12.2114 16.3189 12.27C16.3739 12.3286 16.4047 12.4081 16.4047 12.491C16.4047 12.5739 16.3739 12.6534 16.3189 12.712C16.264 12.7706 16.1896 12.8036 16.1119 12.8036ZM16.2095 16.0331C16.2085 16.1157 16.1774 16.1947 16.1226 16.253C16.068 16.3113 15.9941 16.3446 15.9168 16.3458H14.3555C14.2778 16.3458 14.2034 16.3128 14.1485 16.2541C14.0935 16.1956 14.0627 16.1161 14.0627 16.0331C14.0627 15.9503 14.0935 15.8708 14.1485 15.8121C14.2034 15.7536 14.2778 15.7206 14.3555 15.7206H15.9168C15.9941 15.7218 16.068 15.7549 16.1226 15.8134C16.1774 15.8717 16.2085 15.9507 16.2095 16.0331Z" fill="#E69F69"/>
<path fill-rule="evenodd" clip-rule="evenodd" d="M16.342 1.57227C16.026 1.57227 15.7328 1.74671 15.5671 2.03303L14.4544 3.95717H11.946C11.4435 3.95717 11.0362 4.3907 11.0362 4.92536C11.0362 5.46013 11.4435 5.89366 11.946 5.89366H14.9628C15.2788 5.89366 15.5722 5.71922 15.7377 5.43279L16.8504 3.50876H21.3294C21.8319 3.50876 22.2392 3.07523 22.2392 2.54046C22.2392 2.0058 21.8319 1.57227 21.3294 1.57227H16.342ZM3.53723 2.72382C3.53723 2.18917 3.94459 1.75563 4.44698 1.75563H7.20527C7.52252 1.75563 7.81694 1.93156 7.98205 2.21982L10.1369 5.9806C10.3986 6.43724 10.2628 7.03298 9.8338 7.3114C9.4048 7.58971 8.84498 7.44535 8.58334 6.98871L6.69441 3.69213H4.44698C3.94459 3.69213 3.53723 3.25859 3.53723 2.72382ZM15.582 19.5929C15.2646 19.1784 14.6914 19.1161 14.302 19.4539C13.9123 19.7917 13.8539 20.4015 14.1713 20.8162L16.0676 23.2928C16.2404 23.5185 16.4995 23.6494 16.7729 23.6494H20.1346C20.637 23.6494 21.0444 23.216 21.0444 22.6812C21.0444 22.1464 20.637 21.7129 20.1346 21.7129H17.2052L15.582 19.5929ZM11.7274 20.8892C12.0827 20.5111 12.0827 19.898 11.7274 19.5199C11.3722 19.1419 10.7961 19.1419 10.4408 19.5199L8.37998 21.7129H2.41962C1.91712 21.7129 1.50977 22.1464 1.50977 22.6812C1.50977 23.216 1.91712 23.6494 2.41962 23.6494H8.7568C8.99809 23.6494 9.22952 23.5475 9.40019 23.3658L11.7274 20.8892ZM16.2941 7.2184C16.2941 6.68363 16.7014 6.51136 17.2039 6.51136H21.3294C21.8319 6.51136 22.2392 6.68363 22.2392 7.2184C22.2392 7.75306 21.8319 7.92533 21.3294 7.92533H17.2039C16.7014 7.92533 16.2941 7.75306 16.2941 7.2184ZM2.46077 18.6065C1.95827 18.6065 1.55091 18.7787 1.55091 19.3135C1.55091 19.8481 1.95827 20.0205 2.46077 20.0205H6.86048C7.36298 20.0205 7.77034 19.8481 7.77034 19.3135C7.77034 18.7787 7.36298 18.6065 6.86048 18.6065H2.46077ZM1.50977 6.39286C1.50977 5.8582 1.91712 5.68593 2.41962 5.68593H5.91237C6.41477 5.68593 6.82212 5.8582 6.82212 6.39286C6.82212 6.92763 6.41477 7.0999 5.91237 7.0999H2.41962C1.91712 7.0999 1.50977 6.92763 1.50977 6.39286ZM17.9798 18.6065C17.4773 18.6065 17.0699 18.7787 17.0699 19.3135C17.0699 19.8481 17.4773 20.0205 17.9798 20.0205H21.5999C22.1023 20.0205 22.5098 19.8481 22.5098 19.3135C22.5098 18.7787 22.1023 18.6065 21.5999 18.6065H17.9798Z" fill="#514AF3"/>
</svg>
