<svg width="25" height="25" viewBox="0 0 25 25" fill="none" xmlns="http://www.w3.org/2000/svg">
<g clip-path="url(#clip0_7_453)">
<mask id="mask0_7_453" style="mask-type:luminance" maskUnits="userSpaceOnUse" x="0" y="0" width="25" height="25">
<path d="M24.8418 0.78125H0.841797V24.7812H24.8418V0.78125Z" fill="white"/>
</mask>
<g mask="url(#mask0_7_453)">
<mask id="mask1_7_453" style="mask-type:luminance" maskUnits="userSpaceOnUse" x="0" y="0" width="25" height="25">
<path d="M24.8418 0.78125H0.841797V24.7812H24.8418V0.78125Z" fill="white"/>
</mask>
<g mask="url(#mask1_7_453)">
<path d="M3.80526 1.7284C4.66149 1.62883 5.97635 1.53125 7.8418 1.53125C8.42025 1.53125 8.9457 1.54063 9.421 1.55655C9.49295 1.55896 9.56425 1.57172 9.63255 1.59445C10.023 1.72432 10.9578 2.15134 12.2345 3.48264C13.4379 4.73744 13.8666 5.67101 14.013 6.105C14.0362 6.17395 14.0494 6.24585 14.0519 6.31855C14.0735 6.9357 14.0879 7.6402 14.0911 8.44085C13.9377 8.45585 13.7944 8.47125 13.6608 8.48675C11.9846 8.6817 10.72 9.9898 10.5505 11.6465C10.4579 12.5518 10.3656 13.94 10.3457 15.964C9.65505 16.0042 8.82485 16.0312 7.8418 16.0312C5.97635 16.0312 4.66149 15.9337 3.80526 15.8341C2.71844 15.7077 1.90457 14.8693 1.79406 13.7888C1.69461 12.8163 1.5918 11.2215 1.5918 8.78125C1.5918 6.3411 1.69461 4.74616 1.79406 3.77368C1.90457 2.69316 2.71844 1.85479 3.80526 1.7284Z" fill="#E69F69"/>
<path d="M14.048 6.26397C14.0421 6.20987 14.0304 6.15652 14.013 6.10487C13.8666 5.67084 13.4379 4.73727 12.2345 3.48247C10.9578 2.15116 10.023 1.72414 9.63255 1.59428C9.5877 1.57935 9.54155 1.56872 9.49475 1.5625C9.4241 2.34134 9.49945 3.526 9.58685 4.47454C9.66965 5.37333 10.3749 6.07837 11.2737 6.16107C12.168 6.24337 13.2721 6.31502 14.048 6.26397Z" fill="#514AF3"/>
<path d="M2.51724 18.3527C2.4778 17.8019 2.8924 17.3233 3.44327 17.2839C3.99415 17.2444 4.47269 17.659 4.51213 18.2099C4.52375 18.3722 4.53556 18.5261 4.54741 18.6717C4.61034 19.4449 5.19836 20.0254 5.99138 20.0802C6.18583 20.0937 6.39478 20.1071 6.61848 20.1204C6.63283 19.8519 6.65133 19.6416 6.67048 19.4783C6.69523 19.267 6.81288 19.0924 6.99058 19.0021C7.16648 18.9127 7.37493 18.9192 7.55933 19.0132C7.86803 19.1704 8.33803 19.43 8.99243 19.8429C9.47418 20.1468 9.80963 20.398 10.0427 20.5969C10.2561 20.779 10.3768 21.0231 10.3768 21.2816C10.3768 21.54 10.2561 21.7841 10.0427 21.9663C9.80968 22.1652 9.47418 22.4164 8.99238 22.7203C8.33808 23.133 7.86813 23.3926 7.55943 23.5499C7.37503 23.6438 7.16653 23.6503 6.99058 23.561C6.81293 23.4707 6.69518 23.296 6.67043 23.0847C6.64433 22.8615 6.61928 22.5506 6.60463 22.123C6.33483 22.1074 6.08458 22.0914 5.85338 22.0754C4.09295 21.9537 2.69871 20.6119 2.554 18.8339C2.54162 18.6818 2.52932 18.5214 2.51724 18.3527Z" fill="#E69F69"/>
<path d="M18.5778 3.41266C18.563 2.99901 18.5385 2.69659 18.5129 2.4781C18.4882 2.26677 18.3705 2.09208 18.1928 2.00184C18.0168 1.91247 17.8084 1.91897 17.624 2.01292C17.3152 2.17021 16.8453 2.4298 16.191 2.8425C15.7092 3.14639 15.3737 3.39762 15.1406 3.59655C14.9272 3.77868 14.8066 4.02276 14.8066 4.28123C14.8066 4.53969 14.9273 4.78375 15.1407 4.96588C15.3738 5.16478 15.7092 5.41602 16.191 5.71994C16.8454 6.13275 17.3154 6.39235 17.6241 6.54965C17.8085 6.64355 18.0169 6.65005 18.1928 6.5607C18.3705 6.47045 18.4882 6.29575 18.5129 6.08445C18.5327 5.9156 18.5519 5.69655 18.5663 5.41474C18.9848 5.43664 19.3596 5.45971 19.692 5.4827C20.4853 5.53756 21.073 6.11775 21.1359 6.89065C21.1696 7.3045 21.2029 7.78495 21.2326 8.33495C21.2624 8.8864 21.7336 9.30935 22.2851 9.27955C22.8365 9.2498 23.2595 8.7786 23.2297 8.2271C23.199 7.65935 23.1645 7.16075 23.1293 6.7284C22.9846 4.95024 21.5902 3.60921 19.83 3.48747C19.4616 3.46199 19.0448 3.43654 18.5778 3.41266Z" fill="#E69F69"/>
<path d="M17.8418 9.53125C15.9764 9.53125 14.6615 9.62885 13.8053 9.7284C12.7185 9.8548 11.9045 10.6932 11.794 11.7737C11.6946 12.7462 11.5918 14.341 11.5918 16.7812C11.5918 19.2215 11.6946 20.8163 11.794 21.7887C11.9045 22.8693 12.7185 23.7078 13.8053 23.8342C14.6615 23.9337 15.9764 24.0312 17.8418 24.0312C19.7072 24.0312 21.0221 23.9337 21.8784 23.8342C22.9652 23.7078 23.7791 22.8693 23.8896 21.7887C23.989 20.8163 24.0918 19.2215 24.0918 16.7812C24.0918 15.8382 24.0765 15.0217 24.0519 14.3186C24.0494 14.2459 24.0362 14.1739 24.013 14.1049C23.8666 13.6709 23.4379 12.7374 22.2345 11.4826C20.9578 10.1513 20.0231 9.7243 19.6326 9.59445C19.5643 9.5717 19.493 9.55895 19.421 9.55655C18.9457 9.54065 18.4203 9.53125 17.8418 9.53125Z" fill="#514AF3"/>
<path d="M24.048 14.2639C24.0421 14.2098 24.0304 14.1565 24.013 14.1048C23.8666 13.6708 23.4379 12.7372 22.2345 11.4824C20.9578 10.1511 20.0231 9.72415 19.6326 9.59425C19.5877 9.57935 19.5415 9.5687 19.4947 9.5625C19.4241 10.3413 19.4994 11.526 19.5868 12.4745C19.6696 13.3733 20.3749 14.0783 21.2737 14.161C22.168 14.2433 23.2721 14.315 24.048 14.2639Z" fill="#E69F69"/>
</g>
</g>
</g>
<defs>
<clipPath id="clip0_7_453">
<rect width="24" height="24" fill="white" transform="translate(0.841797 0.78125)"/>
</clipPath>
</defs>
</svg>
