<svg width="25" height="25" viewBox="0 0 25 25" fill="none" xmlns="http://www.w3.org/2000/svg">
<g clip-path="url(#clip0_7_443)">
<mask id="mask0_7_443" style="mask-type:luminance" maskUnits="userSpaceOnUse" x="0" y="0" width="25" height="25">
<path d="M24.8418 0.78125H0.841797V24.7812H24.8418V0.78125Z" fill="white"/>
</mask>
<g mask="url(#mask0_7_443)">
<path d="M6.47305 3.41872C3.63137 6.2437 3.63137 10.8207 6.47305 13.6458C6.96265 14.1325 6.965 14.9239 6.4783 15.4135C5.9916 15.9032 5.20012 15.9054 4.71053 15.4187C0.885554 11.6162 0.885553 5.44819 4.71053 1.64574C5.20012 1.15903 5.9916 1.16136 6.4783 1.65096C6.965 2.14055 6.96265 2.93201 6.47305 3.41872Z" fill="#514AF3"/>
<path d="M9.51844 5.37116C7.94959 7.1041 7.94959 9.96035 9.51844 11.6934C9.98179 12.2052 9.94249 12.9956 9.43074 13.459C8.91894 13.9223 8.12844 13.883 7.66514 13.3712C5.23401 10.6858 5.23401 6.37865 7.66514 3.6933C8.12844 3.18152 8.91894 3.14225 9.43074 3.60558C9.94249 4.0689 9.98179 4.85939 9.51844 5.37116Z" fill="#514AF3"/>
<path d="M19.7105 13.6458C22.5522 10.8207 22.5522 6.2437 19.7105 3.41872C19.2209 2.93201 19.2186 2.14055 19.7053 1.65096C20.192 1.16136 20.9835 1.15903 21.4731 1.64574C25.298 5.44819 25.298 11.6162 21.4731 15.4187C20.9835 15.9054 20.192 15.9032 19.7053 15.4135C19.2186 14.9239 19.2209 14.1325 19.7105 13.6458Z" fill="#514AF3"/>
<path d="M16.6652 11.6934C18.2341 9.96035 18.2341 7.1041 16.6652 5.37116C16.2018 4.85939 16.2411 4.0689 16.7529 3.60558C17.2647 3.14225 18.0552 3.18152 18.5185 3.6933C20.9496 6.37865 20.9496 10.6858 18.5185 13.3712C18.0552 13.883 17.2647 13.9223 16.7529 13.459C16.2411 12.9956 16.2018 12.2052 16.6652 11.6934Z" fill="#514AF3"/>
<path d="M13.0914 6.29883C11.8488 6.29883 10.8414 7.30618 10.8414 8.54883C10.8414 9.24703 11.1597 9.87088 11.6581 10.2833L10.5499 20.9553C10.4182 22.2229 11.1768 23.51 12.4921 23.7246C12.7039 23.7592 12.9111 23.7822 13.0913 23.7822C13.2715 23.7822 13.4787 23.7592 13.6905 23.7246C15.0058 23.51 15.7644 22.2229 15.6327 20.9553L14.5245 10.2834C15.0231 9.87108 15.3414 9.24713 15.3414 8.54883C15.3414 7.30618 14.3341 6.29883 13.0914 6.29883Z" fill="#E69F69"/>
</g>
</g>
<defs>
<clipPath id="clip0_7_443">
<rect width="24" height="24" fill="white" transform="translate(0.841797 0.78125)"/>
</clipPath>
</defs>
</svg>
