<svg width="25" height="25" viewBox="0 0 25 25" fill="none" xmlns="http://www.w3.org/2000/svg">
<g clip-path="url(#clip0_7_468)">
<mask id="mask0_7_468" style="mask-type:luminance" maskUnits="userSpaceOnUse" x="0" y="0" width="25" height="25">
<path d="M24.8418 0.78125H0.841797V24.7812H24.8418V0.78125Z" fill="white"/>
</mask>
<g mask="url(#mask0_7_468)">
<mask id="mask1_7_468" style="mask-type:luminance" maskUnits="userSpaceOnUse" x="0" y="0" width="25" height="25">
<path d="M24.8418 0.78125H0.841797V24.7812H24.8418V0.78125Z" fill="white"/>
</mask>
<g mask="url(#mask1_7_468)">
<path fill-rule="evenodd" clip-rule="evenodd" d="M15.4294 23.313C15.4123 23.7146 15.0819 24.0312 14.6801 24.0312H12.8952C13.1076 23.6897 13.2394 23.2924 13.2645 22.8654C13.2962 22.3248 13.3418 21.3558 13.3418 20.2475C13.3418 19.2822 13.3072 18.4234 13.2774 17.8617C13.2311 16.9876 12.8831 16.0917 12.1776 15.4083C11.4965 14.7487 10.1739 13.6073 8.3933 12.7694C7.4106 12.3069 6.273 12.307 5.2903 12.7694C4.44967 13.165 3.71114 13.6282 3.09399 14.0764C3.09257 13.6564 3.0918 13.2244 3.0918 12.7812C3.0918 9.3073 3.18549 6.6666 3.2725 4.96313C3.35755 3.29814 4.58187 1.89561 6.2838 1.70797C7.1586 1.61152 8.222 1.53125 9.3418 1.53125C10.468 1.53125 11.5373 1.61245 12.415 1.70964C14.1081 1.89714 15.3292 3.28954 15.4146 4.94849C15.5006 6.6199 15.5918 9.22855 15.5918 12.7812C15.5918 16.1282 15.5513 18.7589 15.5108 20.5539C15.4905 21.4515 15.4702 22.1401 15.4549 22.6049C15.4473 22.8373 15.4409 23.0138 15.4365 23.1324C15.4342 23.1917 15.4324 23.2366 15.4312 23.2668L15.4294 23.313Z" fill="#514AF3"/>
<path fill-rule="evenodd" clip-rule="evenodd" d="M9.3418 5.53125C9.756 5.53125 10.0918 5.86705 10.0918 6.28125V6.78125C10.0918 7.19545 9.756 7.53125 9.3418 7.53125C8.9276 7.53125 8.5918 7.19545 8.5918 6.78125V6.28125C8.5918 5.86705 8.9276 5.53125 9.3418 5.53125ZM10.0918 9.78125C10.0918 9.36705 9.756 9.03125 9.3418 9.03125C8.9276 9.03125 8.5918 9.36705 8.5918 9.78125V10.2812C8.5918 10.6955 8.9276 11.0312 9.3418 11.0312C9.756 11.0312 10.0918 10.6955 10.0918 10.2812V9.78125ZM6.3418 5.53125C6.756 5.53125 7.0918 5.86705 7.0918 6.28125V6.78125C7.0918 7.19545 6.756 7.53125 6.3418 7.53125C5.9276 7.53125 5.5918 7.19545 5.5918 6.78125V6.28125C5.5918 5.86705 5.9276 5.53125 6.3418 5.53125ZM7.0918 9.78125C7.0918 9.36705 6.756 9.03125 6.3418 9.03125C5.9276 9.03125 5.5918 9.36705 5.5918 9.78125V10.2812C5.5918 10.6955 5.9276 11.0312 6.3418 11.0312C6.756 11.0312 7.0918 10.6955 7.0918 10.2812V9.78125ZM12.3418 5.53125C12.756 5.53125 13.0918 5.86705 13.0918 6.28125V6.78125C13.0918 7.19545 12.756 7.53125 12.3418 7.53125C11.9276 7.53125 11.5918 7.19545 11.5918 6.78125V6.28125C11.5918 5.86705 11.9276 5.53125 12.3418 5.53125ZM13.0918 9.78125C13.0918 9.36705 12.756 9.03125 12.3418 9.03125C11.9276 9.03125 11.5918 9.36705 11.5918 9.78125V10.2812C11.5918 10.6955 11.9276 11.0312 12.3418 11.0312C12.756 11.0312 13.0918 10.6955 13.0918 10.2812V9.78125Z" fill="#E69F69"/>
<path d="M7.86105 13.9007C7.21545 13.5969 6.46815 13.5969 5.82255 13.9007C4.21146 14.6589 3.0014 15.7005 2.37565 16.3066C1.92021 16.7477 1.68591 17.3352 1.65445 17.9283C1.62545 18.4751 1.5918 19.3109 1.5918 20.2479C1.5918 21.3242 1.6362 22.2673 1.66701 22.7926C1.70402 23.4237 2.2094 23.9232 2.84106 23.9526C3.49311 23.9829 4.84925 24.0316 6.8418 24.0316C8.83435 24.0316 10.1905 23.9829 10.8425 23.9526C11.4742 23.9232 11.9795 23.4237 12.0166 22.7926C12.0474 22.2673 12.0918 21.3242 12.0918 20.2479C12.0918 19.3109 12.0582 18.4751 12.0292 17.9283C11.9977 17.3352 11.7634 16.7477 11.308 16.3066C10.6822 15.7005 9.47215 14.6589 7.86105 13.9007Z" fill="#E69F69"/>
<path d="M8.54725 22.2962L8.5471 22.2985C8.538 22.4295 8.42885 22.5312 8.29745 22.5312H5.38592C5.25416 22.5312 5.14502 22.4288 5.13644 22.2974L5.1363 22.2952L5.1359 22.2889L5.13445 22.2647C5.13321 22.2435 5.13146 22.2123 5.12936 22.1716C5.12516 22.0903 5.11958 21.9711 5.11402 21.8181C5.1029 21.5122 5.0918 21.0716 5.0918 20.5312C5.0918 20.3354 5.0947 20.1553 5.09946 19.9914C5.12282 19.1871 5.75221 18.5555 6.55815 18.535C6.65035 18.5327 6.7453 18.5312 6.8418 18.5312C6.9427 18.5312 7.0419 18.5326 7.13805 18.5352C7.9375 18.5564 8.56145 19.1799 8.5842 19.979C8.58895 20.1451 8.5918 20.3292 8.5918 20.5312C8.5918 21.0914 8.5807 21.5319 8.56955 21.833C8.564 21.9836 8.5584 22.0993 8.5542 22.1777C8.5521 22.2169 8.55035 22.2468 8.5491 22.267L8.54765 22.2901L8.54725 22.2962Z" fill="#514AF3"/>
<path fill-rule="evenodd" clip-rule="evenodd" d="M22.7403 24.0312H16.5342C16.6178 23.8248 16.6679 23.6007 16.6779 23.3659L16.6799 23.3167C16.6811 23.2855 16.6829 23.2396 16.6852 23.1793C16.6898 23.0587 16.6962 22.8803 16.7039 22.6458C16.7193 22.1769 16.7397 21.484 16.76 20.5821C16.7889 19.3056 16.8177 17.6101 16.832 15.5382C17.1608 15.5337 17.4986 15.5312 17.8414 15.5312C19.3127 15.5312 20.6903 15.5785 21.6601 15.6228C22.8167 15.6757 23.8626 16.4924 23.9929 17.7435C24.0487 18.2796 24.0914 18.9586 24.0914 19.7812C24.0914 21.2666 24.0207 22.3389 23.971 22.9081C23.9145 23.557 23.3703 24.0312 22.7403 24.0312Z" fill="#514AF3"/>
<path fill-rule="evenodd" clip-rule="evenodd" d="M19.3418 18.0312C18.9276 18.0312 18.5918 18.367 18.5918 18.7812C18.5918 19.1955 18.9276 19.5312 19.3418 19.5312H21.3418C21.756 19.5312 22.0918 19.1955 22.0918 18.7812C22.0918 18.367 21.756 18.0312 21.3418 18.0312H19.3418Z" fill="#E69F69"/>
<path fill-rule="evenodd" clip-rule="evenodd" d="M16.8391 14.2883C16.8409 13.8034 16.8418 13.301 16.8418 12.7814C16.8418 10.1793 16.7932 8.07764 16.7332 6.47369C17.9616 5.99159 19.011 5.74758 19.8194 5.62765C21.253 5.41497 22.314 6.53449 22.3988 7.82264C22.4888 9.18979 22.5906 11.4192 22.5918 14.5172C22.3072 14.4361 22.0133 14.3877 21.7176 14.3742C20.7358 14.3293 19.338 14.2814 17.8418 14.2814C17.5012 14.2814 17.1657 14.2839 16.8391 14.2883Z" fill="#E69F69"/>
<path fill-rule="evenodd" clip-rule="evenodd" d="M18.5918 8.78125C18.5918 8.36705 18.9276 8.03125 19.3418 8.03125H19.8418C20.256 8.03125 20.5918 8.36705 20.5918 8.78125C20.5918 9.19545 20.256 9.53125 19.8418 9.53125H19.3418C18.9276 9.53125 18.5918 9.19545 18.5918 8.78125ZM18.8418 11.0312C18.4276 11.0312 18.0918 11.367 18.0918 11.7812C18.0918 12.1955 18.4276 12.5312 18.8418 12.5312H19.8418C20.256 12.5312 20.5918 12.1955 20.5918 11.7812C20.5918 11.367 20.256 11.0312 19.8418 11.0312H18.8418Z" fill="#514AF3"/>
</g>
</g>
</g>
<defs>
<clipPath id="clip0_7_468">
<rect width="24" height="24" fill="white" transform="translate(0.841797 0.78125)"/>
</clipPath>
</defs>
</svg>
