<svg width="25" height="25" viewBox="0 0 25 25" fill="none" xmlns="http://www.w3.org/2000/svg">
<path d="M18.1355 3.3291C17.2702 3.3291 16.4244 3.60303 15.705 4.11621C14.9856 4.62939 14.4248 5.35893 14.0938 6.21237C13.7626 7.0658 13.676 8.00482 13.8449 8.91091C14.0136 9.81689 14.4303 10.6491 15.0421 11.3022C15.6539 11.9554 16.4334 12.4003 17.2819 12.5805C18.1306 12.7608 19.0102 12.6683 19.8095 12.3147C20.6089 11.9613 21.2922 11.3626 21.7729 10.5945C22.2536 9.82646 22.5102 8.92341 22.5102 7.99968C22.5083 6.76163 22.0468 5.57472 21.2268 4.69922C20.4068 3.82383 19.2951 3.33109 18.1355 3.3291Z" fill="#E69F69"/>
<path d="M18.3224 7.37757H16.7902C16.7276 7.37757 16.665 7.37757 16.6023 7.37757C16.5465 7.38048 16.4907 7.37254 16.4382 7.35433C16.3858 7.33611 16.3376 7.30797 16.2967 7.27143C16.2559 7.23488 16.2231 7.19086 16.2005 7.14193C16.1778 7.09301 16.1657 7.04023 16.1648 6.98664C16.1648 6.76642 16.3468 6.60528 16.6054 6.59863C16.9245 6.59863 17.2446 6.59863 17.5637 6.59863H18.3213C18.1424 6.28301 17.8919 6.11721 17.5479 6.10191C17.2495 6.0886 16.9433 6.10191 16.6411 6.09619C16.3558 6.09619 16.1679 5.93984 16.1648 5.70818C16.1619 5.47652 16.3517 5.31539 16.6341 5.31445C17.6383 5.31445 18.6429 5.31445 19.6478 5.31445C19.9331 5.31445 20.121 5.46987 20.1239 5.69581C20.127 5.92175 19.9341 6.08954 19.6388 6.0914H19.0064C18.9975 6.0914 18.9885 6.10004 18.9786 6.10577C19.0382 6.24682 19.0929 6.39172 19.1605 6.52518C19.1736 6.54305 19.1907 6.55788 19.2104 6.5685C19.2302 6.57925 19.2523 6.58567 19.2749 6.58719C19.4121 6.59477 19.5493 6.58719 19.6855 6.58719C19.9421 6.59477 20.1239 6.7607 20.121 6.98092C20.118 7.20113 19.9351 7.36227 19.6786 7.36227C19.5245 7.36227 19.3703 7.36227 19.2162 7.36227C19.2045 7.36425 19.1931 7.36776 19.1824 7.37278C18.9458 8.1126 18.4287 8.54252 17.6245 8.65497L17.5856 8.70074C17.6413 8.72736 17.6939 8.75924 17.7428 8.79614C18.1922 9.20037 18.6399 9.60613 19.0859 10.0135C19.1463 10.0605 19.1909 10.1233 19.2144 10.1943C19.238 10.2653 19.2393 10.3413 19.2183 10.413C19.2049 10.484 19.1678 10.5488 19.1125 10.5977C19.0573 10.6465 18.9868 10.6767 18.9119 10.6838C18.7846 10.6943 18.6575 10.6604 18.5541 10.5884C17.7994 9.92105 17.0577 9.24031 16.313 8.56249C16.246 8.50948 16.199 8.43697 16.1789 8.35582C16.159 8.27478 16.1673 8.18966 16.2027 8.11353C16.2341 8.036 16.2907 7.97015 16.3641 7.92566C16.4375 7.88117 16.5238 7.8605 16.6103 7.86657C16.9185 7.86657 17.2267 7.86658 17.534 7.85899C17.8809 7.8542 18.1334 7.69119 18.3224 7.37757Z" fill="white"/>
<path d="M1.67699 13.609C1.72784 13.0872 2.07509 12.6495 2.56713 12.4937C3.63281 12.1563 5.55396 11.6191 6.9846 11.6191C9.13182 11.6191 11.5246 12.157 12.8143 12.4943C13.4389 12.6576 14.0078 13.0145 14.2806 13.6089C14.4112 13.8937 14.5422 14.2501 14.6407 14.6784C14.8241 15.4755 14.1188 16.1289 13.3167 16.0624L9.77468 15.7687C9.39517 15.7372 9.07024 16.0419 9.07024 16.4294C9.07024 16.7508 9.29641 17.0256 9.60877 17.0739C10.2629 17.1755 11.3803 17.3276 12.1987 17.3276C13.9343 17.3276 18.5581 16.537 20.0616 16.2716C20.3829 16.215 20.7105 16.1756 21.0225 16.2722C21.4794 16.4137 22.1414 16.7873 22.4527 17.7729C22.6852 18.5089 22.1588 19.2228 21.4436 19.4839C19.2464 20.2859 14.5472 21.8944 12.1987 21.8944C9.09649 21.8944 4.70582 21.2384 2.76224 20.9209C2.16969 20.8242 1.71735 20.342 1.6608 19.7342C1.58949 18.9671 1.50977 17.862 1.50977 16.7568C1.50977 15.5668 1.60229 14.3769 1.67699 13.609Z" fill="#514AF3"/>
</svg>
