<svg width="25" height="25" viewBox="0 0 25 25" fill="none" xmlns="http://www.w3.org/2000/svg">
<path fill-rule="evenodd" clip-rule="evenodd" d="M12.6565 2.43672C12.5131 2.23717 12.2777 2.11604 12.0245 2.11146C11.7712 2.10688 11.5312 2.21942 11.38 2.41365C10.3925 3.68215 9.06536 4.67254 7.53827 5.28065C6.01126 5.88875 4.34084 6.09195 2.70312 5.86886C2.47797 5.83818 2.2499 5.90244 2.07806 6.04485C1.90633 6.18736 1.80762 6.39403 1.80762 6.61139V10.7814V10.7831C1.81367 13.3413 2.62482 15.8387 4.13561 17.9506C5.6464 20.0624 7.78704 21.691 10.2793 22.6248L11.2067 22.9704L11.2162 22.9738C11.7278 23.1572 12.2915 23.1572 12.8031 22.9738L12.8126 22.9704L13.7386 22.6253C16.2307 21.6916 18.3728 20.0624 19.8836 17.9506C21.3943 15.8387 22.2055 13.3413 22.2116 10.7831V10.7814V6.61139C22.2116 6.40369 22.1215 6.20537 21.9629 6.06352C21.8042 5.92177 21.5911 5.84916 21.3743 5.86304C17.3734 6.1199 14.4249 4.89751 12.6565 2.43672Z" fill="#514AF3"/>
<path d="M11.2564 10.8092C11.2564 10.423 11.5774 10.119 11.962 10.119C12.3466 10.119 12.6676 10.423 12.6676 10.8092V10.8963H11.2564V10.8092ZM8.93973 10.8092V10.9941C8.3921 11.2021 8.00781 11.7187 8.00781 12.3169V15.9354C8.00781 16.715 8.6603 17.3561 9.47672 17.3561H14.4473C15.2636 17.3561 15.9162 16.715 15.9162 15.9354V12.3169C15.9162 11.7186 15.5319 11.2021 14.9843 10.9941V10.8092C14.9843 9.19688 13.6362 7.88086 11.962 7.88086C10.2878 7.88086 8.93973 9.19688 8.93973 10.8092ZM12.2017 14.1261C12.2017 14.2625 12.0892 14.3641 11.962 14.3641C11.8348 14.3641 11.7223 14.2625 11.7223 14.1261C11.7223 13.9898 11.8348 13.8883 11.962 13.8883C12.0892 13.8883 12.2017 13.9898 12.2017 14.1261Z" fill="#E69F69" stroke="white" stroke-width="0.4"/>
</svg>
