<svg width="25" height="25" viewBox="0 0 25 25" fill="none" xmlns="http://www.w3.org/2000/svg">
<path d="M22.2951 18.8648C20.4505 18.2583 18.7684 17.2696 17.3689 15.9693C15.5957 14.4909 15.7146 14.6572 15.806 14.6221C16.0472 14.5489 16.2603 14.4088 16.4184 14.2197L17.3872 13.1088L18.3011 14.6134V15.5669L21.2624 17.159V14.6746C21.1984 14.3772 21.1984 14.3247 18.8587 10.117C18.7487 9.93531 18.5947 9.78157 18.4097 9.66868C18.2247 9.55579 18.0141 9.48701 17.7957 9.46821C17.5772 9.44931 17.3572 9.48092 17.154 9.56031C16.951 9.6398 16.7707 9.76466 16.6285 9.92459L14.5996 12.2603L12.2507 13.0126C10.9527 12.7431 9.60949 12.7431 8.31148 13.0126C8.09717 13.0857 7.91898 13.2327 7.81182 13.425C7.70478 13.6171 7.67643 13.8407 7.73247 14.0518C7.7884 14.2629 7.92478 14.4465 8.11468 14.5665C8.30458 14.6866 8.53444 14.7345 8.75936 14.7008C9.38227 14.5853 10.0185 14.55 10.6513 14.5958C10.6625 14.7995 10.7236 14.9977 10.8296 15.1746C10.9354 15.3515 11.0832 15.5021 11.261 15.6144C11.4388 15.7267 11.6416 15.7976 11.8532 15.8212C12.0648 15.8448 12.2792 15.8207 12.4792 15.7505L13.5942 15.3657C14.5136 15.9254 15.371 16.5731 16.1533 17.2989C17.7668 18.8069 19.726 19.9332 21.8747 20.5881C22.1135 20.6415 22.3646 20.6019 22.5729 20.4781C22.7811 20.3542 22.9295 20.1562 22.9852 19.9277C23.0409 19.6991 22.9995 19.4588 22.8702 19.2594C22.7408 19.0601 22.5339 18.9181 22.2951 18.8648Z" fill="#514AF3"/>
<path d="M3.14223 17.7904C3.63039 17.7816 4.09481 17.5902 4.434 17.2582C4.77309 16.9263 4.95927 16.4808 4.95161 16.0194C4.95161 15.1507 3.67658 13.5951 3.42013 13.2921C3.38598 13.2538 3.34341 13.2231 3.29547 13.2019C3.24752 13.1808 3.1952 13.1699 3.14223 13.1699C3.08936 13.1699 3.03704 13.1808 2.9891 13.2019C2.94105 13.2231 2.89859 13.2538 2.86444 13.2921C2.61521 13.5951 1.34007 15.1507 1.34007 16.0194C1.33241 16.4797 1.51761 16.9242 1.85516 17.2559C2.19283 17.5877 2.65549 17.7798 3.14223 17.7904Z" fill="#E69F69"/>
<path d="M4.80781 19.1844C4.29983 19.568 3.85151 20.0176 3.47597 20.5199C3.09901 20.0166 2.64828 19.5669 2.13714 19.1844C1.98773 19.0781 1.7998 19.0324 1.61471 19.0575C1.42973 19.0825 1.26282 19.1762 1.15074 19.3179C1.03855 19.4596 0.990387 19.6377 1.01688 19.813C1.04325 19.9883 1.14209 20.1465 1.2916 20.2528C1.97919 20.7555 2.50008 21.4346 2.79254 22.2093C2.81564 22.2994 2.85822 22.3839 2.91765 22.4575C2.97708 22.5311 3.05206 22.5921 3.13776 22.6367C3.24492 22.6953 3.36641 22.7262 3.49009 22.7262C3.61378 22.7262 3.73527 22.6953 3.84243 22.6367H3.80718C3.8942 22.5928 3.97049 22.5321 4.03112 22.4584C4.09187 22.3848 4.13554 22.3 4.15951 22.2093C4.44792 21.4342 4.96663 20.7548 5.65334 20.2528C5.80285 20.1465 5.90169 19.9883 5.92807 19.813C5.95456 19.6377 5.9064 19.4596 5.79421 19.3179C5.68213 19.1762 5.51521 19.0825 5.33023 19.0575C5.14515 19.0324 4.95721 19.0781 4.80781 19.1844Z" fill="#E69F69"/>
<path d="M10.397 19.1848C9.88522 19.5684 9.43383 20.0195 9.05632 20.5243C8.68024 20.0206 8.23126 19.5695 7.72263 19.1848C7.64853 19.132 7.56414 19.0935 7.47439 19.0718C7.38464 19.0499 7.29116 19.0451 7.19944 19.0575C7.01424 19.0826 6.847 19.1766 6.7347 19.3187C6.62251 19.4609 6.57424 19.6395 6.60073 19.8153C6.62722 19.9912 6.72616 20.1498 6.87589 20.2564C7.56151 20.7618 8.08054 21.4427 8.3718 22.2189C8.39577 22.3098 8.43955 22.395 8.5003 22.4688C8.56116 22.5426 8.63755 22.6035 8.72468 22.6476C8.8268 22.6992 8.94063 22.7262 9.05632 22.7262C9.17202 22.7262 9.28585 22.6992 9.38797 22.6476C9.47378 22.6028 9.54887 22.5416 9.60841 22.4678C9.66795 22.394 9.71064 22.3093 9.73373 22.2189C10.0266 21.4417 10.5483 20.7606 11.2368 20.2564C11.3865 20.1498 11.4854 19.9912 11.5119 19.8153C11.5384 19.6395 11.4901 19.4609 11.3779 19.3187C11.2656 19.1766 11.0984 19.0826 10.9132 19.0575C10.7279 19.0324 10.5398 19.0782 10.39 19.1848H10.397Z" fill="#E69F69"/>
<path d="M18.2848 21.7695C18.2802 21.9658 18.3176 22.1609 18.3949 22.3427C18.4723 22.5245 18.5878 22.6892 18.7342 22.8266C18.8807 22.9639 19.055 23.0711 19.2466 23.1414C19.438 23.2118 19.6426 23.2437 19.8475 23.2353C20.0524 23.2269 20.2532 23.1784 20.4378 23.0926C20.6223 23.0069 20.7864 22.8859 20.9201 22.737C21.0538 22.5881 21.1541 22.4146 21.2149 22.2272C21.2756 22.0396 21.2955 21.8422 21.2734 21.6471L18.2848 20.335V21.7695Z" fill="#514AF3"/>
<path d="M15.8152 9.01497C16.4212 9.01497 17.0024 8.78458 17.4309 8.37451C17.8594 7.96433 18.1001 7.40808 18.1001 6.8281V6.39062H13.5303V6.8281C13.5303 7.40808 13.771 7.96433 14.1995 8.37451C14.628 8.78458 15.2092 9.01497 15.8152 9.01497Z" fill="#514AF3"/>
<path d="M11.4103 5.77851H20.6139C20.9287 5.77851 21.2306 5.6588 21.4534 5.44563C21.6762 5.23235 21.8014 4.94304 21.8014 4.64113C21.8014 4.33933 21.6762 4.05002 21.4534 3.83674C21.2306 3.62357 20.9287 3.50385 20.6139 3.50385H18.1817C18.0023 3.08643 17.7054 2.72341 17.3224 2.45615C16.8847 2.15078 16.3571 1.98633 15.8156 1.98633C15.2741 1.98633 14.7465 2.15078 14.3088 2.45615C13.9258 2.72341 13.6289 3.08643 13.4495 3.50385H11.4103C11.0956 3.50385 10.7936 3.62357 10.5707 3.83674C10.348 4.05002 10.2227 4.33933 10.2227 4.64113C10.2227 4.94304 10.348 5.23235 10.5707 5.44563C10.7936 5.6588 11.0956 5.77851 11.4103 5.77851Z" fill="#514AF3" stroke="white" stroke-width="0.3"/>
</svg>
