<svg width="25" height="25" viewBox="0 0 25 25" fill="none" xmlns="http://www.w3.org/2000/svg">
<g clip-path="url(#clip0_7_485)">
<mask id="mask0_7_485" style="mask-type:luminance" maskUnits="userSpaceOnUse" x="0" y="0" width="25" height="25">
<path d="M24.8418 0.78125H0.841797V24.7812H24.8418V0.78125Z" fill="white"/>
</mask>
<g mask="url(#mask0_7_485)">
<mask id="mask1_7_485" style="mask-type:luminance" maskUnits="userSpaceOnUse" x="0" y="0" width="25" height="25">
<path d="M24.8418 0.78125H0.841797V24.7812H24.8418V0.78125Z" fill="white"/>
</mask>
<g mask="url(#mask1_7_485)">
<path d="M8.99949 5.39499C7.31399 7.08045 6.2804 8.2427 5.6546 9.0076C4.86583 9.97165 4.82682 11.2902 5.65114 12.2733C6.01695 12.7095 6.5211 13.2657 7.21325 13.9578C7.9054 14.65 8.4615 15.1541 8.89775 15.5199C9.8808 16.3442 11.1994 16.3052 12.1634 15.5164C12.9283 14.8906 14.0906 13.857 15.776 12.1715C17.4616 10.4861 18.4951 9.32385 19.121 8.55895C19.9097 7.5949 19.9488 6.2763 19.1244 5.29326C18.7586 4.85701 18.2545 4.30092 17.5623 3.60877C16.8702 2.91662 16.314 2.41245 15.8778 2.04665C14.8947 1.22233 13.5762 1.26133 12.6121 2.0501C11.8472 2.67592 10.6849 3.70953 8.99949 5.39499Z" fill="#514AF3"/>
<path fill-rule="evenodd" clip-rule="evenodd" d="M14.0742 13.825C14.5705 13.3594 15.1356 12.8129 15.7762 12.1723C16.4174 11.531 16.9644 10.9654 17.4304 10.4688C20.2524 13.0229 22.2979 14.8391 23.3845 15.7979C24.0432 16.379 24.7522 17.4756 24.1752 18.6315C23.9967 18.9891 23.7352 19.3726 23.3566 19.7512C22.9779 20.1298 22.5945 20.3914 22.2369 20.5699C21.081 21.1469 19.9845 20.4378 19.4033 19.7792C18.4445 18.6926 16.6284 16.647 14.0742 13.825Z" fill="#E69F69"/>
<path d="M5.67595 18.6222C6.26105 18.5795 7.10935 18.5312 7.96295 18.5312C8.7576 18.5312 9.54725 18.573 10.124 18.6131C10.9153 18.6682 11.6934 19.093 12.0796 19.8813C12.3732 20.4808 12.7312 21.3756 12.9692 22.5312H13.3418C13.756 22.5312 14.0918 22.867 14.0918 23.2812C14.0918 23.6955 13.756 24.0312 13.3418 24.0312H2.3418C1.92759 24.0312 1.5918 23.6955 1.5918 23.2812C1.5918 22.867 1.92759 22.5312 2.3418 22.5312H2.71912C3.00563 21.2356 3.50029 20.2633 3.87774 19.6609C4.29051 19.0022 4.98842 18.6724 5.67595 18.6222Z" fill="#E69F69"/>
</g>
</g>
</g>
<defs>
<clipPath id="clip0_7_485">
<rect width="24" height="24" fill="white" transform="translate(0.841797 0.78125)"/>
</clipPath>
</defs>
</svg>
