<svg width="25" height="25" viewBox="0 0 25 25" fill="none" xmlns="http://www.w3.org/2000/svg">
<g clip-path="url(#clip0_7_497)">
<mask id="mask0_7_497" style="mask-type:luminance" maskUnits="userSpaceOnUse" x="0" y="0" width="25" height="25">
<path d="M24.8418 0.78125H0.841797V24.7812H24.8418V0.78125Z" fill="white"/>
</mask>
<g mask="url(#mask0_7_497)">
<mask id="mask1_7_497" style="mask-type:luminance" maskUnits="userSpaceOnUse" x="0" y="0" width="25" height="25">
<path d="M24.8418 0.78125H0.841797V24.7812H24.8418V0.78125Z" fill="white"/>
</mask>
<g mask="url(#mask1_7_497)">
<path fill-rule="evenodd" clip-rule="evenodd" d="M11.4906 1.88706C12.3417 1.42312 13.3393 1.42305 14.1905 1.88693C15.2538 2.46642 17.0495 3.66281 19.579 6.07825C21.4726 7.8865 22.73 9.2335 23.5427 10.1718C24.0411 10.7474 24.1829 11.4888 23.913 12.1366C23.6437 12.7826 23.0196 13.205 22.2644 13.264C22.0587 13.28 21.8352 13.2961 21.5922 13.312V16.7811C21.5922 19.0178 21.4917 20.6097 21.3919 21.6392C21.2734 22.8618 20.3026 23.7638 19.1023 23.8482C17.8722 23.9346 15.8294 24.031 12.8422 24.031C9.8551 24.031 7.8122 23.9346 6.5821 23.8482C5.3818 23.7638 4.41096 22.8618 4.29246 21.6392C4.19269 20.6097 4.09221 19.0178 4.09221 16.7811V13.3122C3.84773 13.2963 3.62276 13.2801 3.41599 13.2639C2.6609 13.2049 2.03684 12.7827 1.7676 12.1368C1.49762 11.4891 1.63935 10.7478 2.13773 10.1723C2.95035 9.23385 4.2079 7.88675 6.1022 6.0782C8.63195 3.66294 10.4274 2.46658 11.4906 1.88706Z" fill="#E69F69"/>
<path fill-rule="evenodd" clip-rule="evenodd" d="M12.2952 10.8343C12.4575 10.8035 12.6442 10.7812 12.842 10.7812C13.0398 10.7812 13.2266 10.8035 13.3889 10.8343C13.4723 10.8501 13.6019 10.9327 13.6768 11.1574L13.8026 11.535C13.5042 11.5326 13.1844 11.5312 12.8418 11.5312C12.4994 11.5312 12.1797 11.5326 11.8813 11.535L12.0071 11.1574C12.082 10.9327 12.2118 10.8501 12.2952 10.8343ZM10.2913 11.5616L10.5841 10.6831C10.7802 10.0948 11.2573 9.50435 12.0159 9.3606C12.2519 9.31585 12.5335 9.28125 12.842 9.28125C13.1505 9.28125 13.4321 9.31585 13.6682 9.3606C14.4267 9.50435 14.9037 10.0948 15.0998 10.6831L15.3927 11.5616C15.9461 11.5767 16.3777 11.5957 16.7102 11.6149C17.633 11.668 18.3948 12.3404 18.485 13.3036C18.5415 13.9077 18.5918 14.8201 18.5918 16.1565C18.5918 17.5949 18.5335 18.5789 18.4724 19.216C18.3854 20.1225 17.6961 20.814 16.7856 20.8971C16.0507 20.9643 14.8222 21.0312 12.8418 21.0312C10.8614 21.0312 9.63285 20.9643 8.89795 20.8971C7.9875 20.814 7.29815 20.1225 7.21115 19.216C7.15005 18.5789 7.0918 17.5949 7.0918 16.1565C7.0918 16.0733 7.092 15.9916 7.09235 15.9117C7.51185 16.0818 8.0281 16.2842 8.5855 16.4869C9.2845 16.7411 10.057 16.9991 10.7892 17.1943C11.5081 17.386 12.2411 17.5322 12.8418 17.5322C13.4425 17.5322 14.1756 17.386 14.8945 17.1943C15.6267 16.9991 16.3991 16.7411 17.0981 16.4869C17.6555 16.2842 18.1717 16.0819 18.5911 15.9118C18.5881 15.2797 18.5736 14.7486 18.5528 14.3048C18.4819 14.3346 18.4043 14.367 18.3207 14.4016C17.8745 14.5863 17.26 14.832 16.5855 15.0773C15.9095 15.3231 15.182 15.5653 14.508 15.745C13.8206 15.9283 13.2411 16.0321 12.8418 16.0321C12.4425 16.0321 11.8631 15.9283 11.1757 15.745C10.5016 15.5653 9.77415 15.3231 9.09815 15.0773C8.42365 14.832 7.80915 14.5863 7.36295 14.4016C7.2793 14.367 7.2016 14.3346 7.1307 14.3047C7.1495 13.9031 7.17345 13.5727 7.19865 13.3036C7.2888 12.3404 8.0506 11.668 8.97345 11.6149C9.30605 11.5957 9.73775 11.5767 10.2913 11.5616Z" fill="#514AF3"/>
</g>
</g>
</g>
<defs>
<clipPath id="clip0_7_497">
<rect width="24" height="24" fill="white" transform="translate(0.841797 0.78125)"/>
</clipPath>
</defs>
</svg>
