<svg width="25" height="25" viewBox="0 0 25 25" fill="none" xmlns="http://www.w3.org/2000/svg">
<mask id="mask0_7_1380" style="mask-type:luminance" maskUnits="userSpaceOnUse" x="2" y="1" width="21" height="23">
<path d="M22.0098 1.93457H2.00977V23.2872H22.0098V1.93457Z" fill="white"/>
</mask>
<g mask="url(#mask0_7_1380)">
<path d="M9.79306 16.2583C9.85648 16.276 9.9228 16.2771 9.9866 16.2615C10.0504 16.2461 10.1098 16.2145 10.1598 16.1694C10.2136 16.1294 10.2575 16.0763 10.288 16.0142C10.3184 15.9523 10.3344 15.8834 10.3347 15.8135C10.3866 14.5397 10.6696 13.2888 11.1681 12.1302C11.1994 12.0674 11.2165 11.9976 11.218 11.9265C11.2194 11.8555 11.2052 11.785 11.1765 11.7209C10.4899 10.6239 9.56015 9.72506 8.46977 9.10421C7.37939 8.48322 6.16217 8.15969 4.92648 8.16212C4.81597 8.16212 4.70989 8.20902 4.63179 8.2924C4.55369 8.37578 4.50977 8.48903 4.50977 8.60701C4.50939 10.3175 5.02217 11.9833 5.97293 13.3603C6.92369 14.7371 8.26242 15.7527 9.79306 16.2583Z" fill="#E69F69"/>
<path d="M9.50941 8.21554C10.4055 8.80558 11.1957 9.56184 11.8427 10.4486C11.8622 10.4762 11.8873 10.4987 11.9162 10.5141C11.9451 10.5296 11.977 10.5376 12.0094 10.5376C12.0418 10.5376 12.0737 10.5296 12.1026 10.5141C12.1316 10.4987 12.1566 10.4762 12.1761 10.4486C12.8237 9.55995 13.6137 8.80084 14.5094 8.20662C14.5727 8.16445 14.6246 8.10526 14.6597 8.03499C14.6947 7.96471 14.7119 7.88579 14.7094 7.80619C14.606 5.63687 13.747 3.58701 12.3011 2.05881C12.2232 1.97732 12.1185 1.93164 12.0094 1.93164C11.9003 1.93164 11.7956 1.97732 11.7178 2.05881C10.2749 3.58836 9.4189 5.63808 9.31777 7.80619C9.31194 7.8866 9.32675 7.96714 9.36055 8.03918C9.39422 8.11121 9.44574 8.17216 9.50941 8.21554Z" fill="#E69F69"/>
<path d="M18.2598 18.8384C17.41 18.8442 16.5874 19.1579 15.9265 19.7281C15.8788 19.7681 15.8236 19.7967 15.7646 19.8121C15.7057 19.8274 15.6443 19.8292 15.5848 19.8171C15.525 19.8048 15.4685 19.7786 15.4195 19.7401C15.3705 19.7016 15.3301 19.652 15.3014 19.5947C14.8346 18.6907 14.0581 18.0147 13.1348 17.7085C13.0498 17.68 12.9756 17.6231 12.9231 17.5462C12.8707 17.4694 12.8425 17.3766 12.8431 17.2814V16.9701C12.8438 16.8649 12.8794 16.7636 12.9434 16.6837C13.0075 16.604 13.096 16.551 13.1931 16.5341C14.958 16.233 16.5642 15.269 17.7223 13.8156C18.8804 12.3622 19.5143 10.5151 19.5098 8.607C19.5098 8.48902 19.4658 8.37577 19.3877 8.29239C19.3096 8.209 19.2036 8.16211 19.0931 8.16211C17.1039 8.16211 15.1963 9.00567 13.7898 10.5074C12.3833 12.009 11.5931 14.0457 11.5931 16.1694V17.1481C11.5931 17.2505 11.5599 17.35 11.4993 17.4294C11.4385 17.5089 11.3539 17.5635 11.2598 17.5839C10.7329 17.7034 10.2365 17.9435 9.80496 18.2875C9.37331 18.6315 9.01673 19.0714 8.75977 19.5769C8.73103 19.6342 8.69065 19.6839 8.64166 19.7223C8.59268 19.7608 8.53622 19.7871 8.47648 19.7993C8.41179 19.8209 8.34331 19.8257 8.27673 19.8134C8.21002 19.8009 8.14711 19.7717 8.09306 19.7281C7.54217 19.2606 6.87913 18.968 6.17976 18.8838C5.48052 18.7997 4.77306 18.9274 4.1385 19.2521C3.50394 19.577 2.96774 20.0859 2.59128 20.7207C2.21483 21.3556 2.01331 22.0907 2.00977 22.8421C2.00977 22.96 2.05369 23.0732 2.13179 23.1567C2.20989 23.2401 2.31597 23.287 2.42648 23.287H21.5931C21.7036 23.287 21.8096 23.2401 21.8877 23.1567C21.9658 23.0732 22.0098 22.96 22.0098 22.8421C22.0076 21.7809 21.6118 20.764 20.909 20.0136C20.2062 19.2633 19.2537 18.8407 18.2598 18.8384Z" fill="#514AF3"/>
</g>
</svg>
