<svg width="25" height="25" viewBox="0 0 25 25" fill="none" xmlns="http://www.w3.org/2000/svg">
<path fill-rule="evenodd" clip-rule="evenodd" d="M13.1751 3.25684C13.3496 3.07051 13.5862 2.96582 13.833 2.96582H15.5342C16.0481 2.96582 16.4648 3.41058 16.4648 3.95923C16.4648 4.50788 16.0481 4.95274 15.5342 4.95274H14.7636L14.7637 6.27985H17.8236C18.8514 6.27985 19.6847 7.16948 19.6847 8.26678V9.21662H8.16303V8.26678C8.16303 7.16948 8.99621 6.27985 10.024 6.27985H12.9027L12.9026 3.95933C12.9026 3.69582 13.0006 3.44308 13.1751 3.25684ZM7.71609 10.8723C7.10938 11.1998 6.69344 11.8713 6.69344 12.6467V19.4498H6.2691C5.75521 19.4498 5.33862 19.8947 5.33862 20.4434C5.33862 20.9919 5.75521 21.4368 6.2691 21.4368H21.5786C22.0925 21.4368 22.5091 20.9919 22.5091 20.4434C22.5091 19.8947 22.0925 19.4498 21.5786 19.4498H21.1543V12.6467C21.1543 11.8713 20.7383 11.1998 20.1316 10.8723H7.71609ZM18.257 19.4498V15.1596C18.257 14.2994 17.604 13.6021 16.7983 13.6021C15.9926 13.6021 15.3394 14.2994 15.3394 15.1595V19.4498H18.257ZM12.5083 19.4498V15.1595C12.5083 14.2993 11.8551 13.602 11.0494 13.602C10.2437 13.602 9.5906 14.2993 9.5906 15.1595V19.4498H12.5083Z" fill="#514AF3"/>
<mask id="mask0_7_1352" style="mask-type:luminance" maskUnits="userSpaceOnUse" x="1" y="14" width="8" height="9">
<path d="M8.32584 14.8301H1.50879V22.1082H8.32584V14.8301Z" fill="white"/>
</mask>
<g mask="url(#mask0_7_1352)">
<path fill-rule="evenodd" clip-rule="evenodd" d="M4.91732 14.8301C3.03488 14.8301 1.50879 16.4594 1.50879 18.4691C1.50879 20.4789 3.03488 22.1082 4.91732 22.1082C6.79976 22.1082 8.32584 20.4789 8.32584 18.4691C8.32584 16.4594 6.79976 14.8301 4.91732 14.8301ZM6.19285 17.1073C6.25803 17.177 6.28082 17.2799 6.25168 17.3733L5.35379 20.2492C5.32372 20.3455 5.24388 20.4143 5.14938 20.4254C5.05487 20.4364 4.96298 20.3878 4.91405 20.3007L4.27194 19.1582L3.20175 18.4726C3.12023 18.4204 3.07466 18.3223 3.08502 18.2214C3.09539 18.1205 3.15982 18.0352 3.25003 18.0031L5.9437 17.0445C6.0312 17.0134 6.12767 17.0377 6.19285 17.1073Z" fill="#E69F69"/>
</g>
</svg>
