<svg width="25" height="24" viewBox="0 0 25 24" fill="none" xmlns="http://www.w3.org/2000/svg">
<path fill-rule="evenodd" clip-rule="evenodd" d="M12.8996 1.73926C8.38363 1.73926 4.74512 5.71952 4.74512 10.5997C4.74512 13.5137 6.09817 16.0258 7.6203 17.9362C9.14741 19.8531 10.9037 21.2391 11.8467 21.916C12.4868 22.3754 13.3123 22.3754 13.9524 21.916C14.8955 21.2391 16.6517 19.8531 18.1788 17.9362C19.7009 16.0258 21.0539 13.5137 21.0539 10.5997C21.0539 5.71952 17.4155 1.73926 12.8996 1.73926ZM12.919 16.7136C16.2022 16.7136 18.8638 13.8721 18.8638 10.3669C18.8638 6.86168 16.2022 4.02016 12.919 4.02016C9.63595 4.02016 6.97443 6.86168 6.97443 10.3669C6.97443 13.8721 9.63595 16.7136 12.919 16.7136Z" fill="#514AF3"/>
<path fill-rule="evenodd" clip-rule="evenodd" d="M9.87458 8.08791C9.87458 7.835 9.68246 7.62988 9.44549 7.62988C9.2086 7.62988 9.01648 7.835 9.01648 8.08791V11.0804C9.01648 11.0886 9.01666 11.0966 9.0171 11.1046C9.01666 11.1126 9.01648 11.1207 9.01648 11.1288V12.4802C9.01648 12.7331 9.2086 12.9382 9.44558 12.9382C9.68246 12.9382 9.87458 12.7331 9.87458 12.4802V11.5868H16.0242V12.4802C16.0242 12.7331 16.2163 12.9382 16.4532 12.9382C16.6902 12.9382 16.8822 12.7331 16.8822 12.4802V11.1288C16.8822 11.1125 16.8814 11.0964 16.8799 11.0805H16.8823V10.1881C16.8823 9.1762 16.1139 8.35592 15.1661 8.35592H13.4987C13.1827 8.35592 12.9266 8.62934 12.9266 8.96661V10.6706H9.87458V8.08791ZM11.3443 10.453C11.8686 10.453 12.2936 9.99923 12.2936 9.43946C12.2936 8.87959 11.8686 8.42584 11.3443 8.42584C10.8199 8.42584 10.3949 8.87959 10.3949 9.43946C10.3949 9.99923 10.8199 10.453 11.3443 10.453Z" fill="#E69F69"/>
</svg>
