<svg width="25" height="25" viewBox="0 0 25 25" fill="none" xmlns="http://www.w3.org/2000/svg">
<path d="M4.74366 7.27273H19.3437C19.4096 7.27216 19.4744 7.25506 19.5329 7.22257C19.5913 7.19008 19.6417 7.14324 19.68 7.08596C19.7182 7.02867 19.7431 6.96243 19.7528 6.89286C19.7624 6.82329 19.7565 6.75223 19.7353 6.68554C18.8853 3.8919 15.7186 1.93457 12.0437 1.93457C8.36861 1.93457 5.20194 3.8919 4.35194 6.68554C4.33087 6.75223 4.32495 6.82329 4.33452 6.89286C4.3442 6.96243 4.36915 7.02867 4.40732 7.08596C4.4456 7.14324 4.49603 7.19008 4.55442 7.22257C4.61291 7.25506 4.67775 7.27216 4.74366 7.27273Z" fill="#514AF3"/>
<path d="M21.42 23.2878C21.5857 23.2878 21.7447 23.2175 21.8619 23.0924C21.9791 22.9672 22.0449 22.7975 22.0449 22.6206C22.0449 22.4435 21.9791 22.2739 21.8619 22.1487C21.7447 22.0235 21.5857 21.9532 21.42 21.9532H21.02C20.948 21.9537 20.8772 21.9343 20.8144 21.8969C20.7516 21.8594 20.699 21.8052 20.6616 21.7397L19.9033 20.3874C19.8659 20.3218 19.8132 20.2676 19.7504 20.2302C19.6876 20.1928 19.6169 20.1734 19.5449 20.1738H4.54492C4.47299 20.1734 4.40223 20.1928 4.33944 20.2302C4.27664 20.2676 4.22395 20.3218 4.18654 20.3874L3.42826 21.7397C3.39084 21.8052 3.33826 21.8594 3.27546 21.8969C3.21266 21.9343 3.1418 21.9537 3.06998 21.9532H2.66987C2.50417 21.9532 2.34514 22.0235 2.22793 22.1487C2.11073 22.2739 2.04492 22.4435 2.04492 22.6206C2.04492 22.7975 2.11073 22.9672 2.22793 23.0924C2.34514 23.2175 2.50417 23.2878 2.66987 23.2878H21.42Z" fill="#E69F69"/>
<path d="M6.62923 12.6113H4.96257C4.73246 12.6113 4.5459 12.8105 4.5459 13.0562V18.8392C4.5459 19.0849 4.73246 19.284 4.96257 19.284H6.62923C6.85934 19.284 7.0459 19.0849 7.0459 18.8392V13.0562C7.0459 12.8105 6.85934 12.6113 6.62923 12.6113Z" fill="#514AF3"/>
<path d="M10.7943 12.6113H9.1276C8.8975 12.6113 8.71094 12.8105 8.71094 13.0562V18.8392C8.71094 19.0849 8.8975 19.284 9.1276 19.284H10.7943C11.0244 19.284 11.2109 19.0849 11.2109 18.8392V13.0562C11.2109 12.8105 11.0244 12.6113 10.7943 12.6113Z" fill="#514AF3"/>
<path d="M14.9622 12.6113H13.2956C13.0655 12.6113 12.8789 12.8105 12.8789 13.0562V18.8392C12.8789 19.0849 13.0655 19.284 13.2956 19.284H14.9622C15.1923 19.284 15.3789 19.0849 15.3789 18.8392V13.0562C15.3789 12.8105 15.1923 12.6113 14.9622 12.6113Z" fill="#514AF3"/>
<path d="M19.1283 12.6113H17.4616C17.2315 12.6113 17.0449 12.8105 17.0449 13.0562V18.8392C17.0449 19.0849 17.2315 19.284 17.4616 19.284H19.1283C19.3584 19.284 19.5449 19.0849 19.5449 18.8392V13.0562C19.5449 12.8105 19.3584 12.6113 19.1283 12.6113Z" fill="#514AF3"/>
<path d="M3.63687 11.1159C3.69493 11.3 3.80773 11.4589 3.95827 11.5681C4.1087 11.6774 4.28848 11.731 4.4702 11.7209H19.6619C19.8367 11.7213 20.0071 11.6633 20.1491 11.5547C20.2912 11.4461 20.3976 11.2926 20.4535 11.1159L21.0035 9.3365C21.0458 9.20322 21.0577 9.0611 21.0385 8.92185C21.0192 8.78271 20.9693 8.65035 20.8929 8.53567C20.8164 8.4211 20.7156 8.32742 20.5987 8.26244C20.4817 8.19758 20.352 8.16314 20.2202 8.16211H3.8702C3.73848 8.16314 3.6088 8.19758 3.49181 8.26244C3.37493 8.32742 3.27407 8.4211 3.19762 8.53567C3.12117 8.65035 3.07128 8.78271 3.05203 8.92185C3.03278 9.0611 3.04472 9.20322 3.08687 9.3365L3.63687 11.1159Z" fill="#E69F69"/>
</svg>
