<svg width="25" height="24" viewBox="0 0 25 24" fill="none" xmlns="http://www.w3.org/2000/svg">
<path d="M19.5216 1.15672C19.0258 1.13453 17.9814 1.13166 16.7925 1.39349C16.0911 1.54795 15.9011 2.45308 16.3662 2.9524L16.9813 3.61268C16.7452 3.8287 16.4308 4.12083 16.0673 4.46896C15.3363 5.1689 14.4011 6.10101 13.5045 7.10125C13.1054 6.59244 12.5018 5.81565 11.8096 4.90101C11.5012 4.49349 10.9482 4.34888 10.4888 4.6335C9.69449 5.12549 7.27956 6.7518 4.59523 9.84329C4.33155 10.147 4.34713 10.6226 4.63 10.9057C4.91287 11.1887 5.356 11.1721 5.61968 10.8684C7.92072 8.21829 10.0037 6.70736 10.9189 6.10778C11.6995 7.1348 12.3478 7.96243 12.6881 8.39343C13.101 8.91662 13.8336 8.91653 14.2564 8.43374C15.1932 7.36416 16.2117 6.34522 16.9994 5.59089C17.3924 5.21447 17.7263 4.90561 17.9614 4.69138C17.9658 4.68724 17.9703 4.6833 17.9747 4.67926L18.6558 5.41057C19.1211 5.90989 19.9641 5.7058 20.108 4.95288C20.3519 3.67648 20.3493 2.55531 20.3286 2.02301C20.3103 1.55117 19.9611 1.1764 19.5216 1.15672Z" fill="#E69F69"/>
<path fill-rule="evenodd" clip-rule="evenodd" d="M20.9521 6.48491C21.1388 6.59221 21.2573 6.79743 21.2629 7.02303C21.3409 10.1852 21.324 13.3749 21.0816 16.5468C20.976 17.9286 19.9732 18.9948 18.6734 19.1071C14.5213 19.4657 10.2833 19.4657 6.13109 19.1071C4.83143 18.9948 3.82864 17.9286 3.72302 16.5468C3.68597 16.0615 3.6483 15.4757 3.61504 14.784C3.60704 14.6182 3.66089 14.4558 3.76492 14.332C5.09635 12.7465 6.61119 11.3391 7.7871 10.3317C8.37642 9.8269 8.88345 9.42013 9.24394 9.1389C9.42428 8.99824 9.56809 8.88886 9.66736 8.81435C9.717 8.77705 9.75555 8.74839 9.78195 8.72894L9.81241 8.70657L9.82059 8.70056L9.82385 8.69821C9.82745 8.69549 9.83106 8.69295 9.83476 8.69041C10.2369 8.41191 10.7505 8.49365 11.0681 8.84094L11.4131 9.20975C11.6249 9.4362 11.9128 9.74355 12.2165 10.0674C12.7408 10.6263 13.3078 11.2289 13.6154 11.5507C14.9578 10.3636 16.6132 9.12246 17.9403 8.17268C18.6283 7.68031 19.2319 7.26358 19.6637 6.96976C19.8798 6.8228 20.0528 6.70657 20.1722 6.62689C20.232 6.58695 20.2782 6.55623 20.3097 6.53537L20.3457 6.51169L20.3582 6.50342C20.3582 6.50342 20.3585 6.50323 20.6701 7.03957L20.3582 6.50342C20.5387 6.38484 20.7654 6.3776 20.9521 6.48491Z" fill="#514AF3"/>
<path d="M15.1759 17.157C15.1886 17.1259 15.2173 17.1063 15.2489 17.1063H16.315C16.364 17.1063 16.4017 17.1526 16.3954 17.2045C16.3598 17.4953 16.3355 17.7962 16.3235 18.1026C16.3218 18.1489 16.2861 18.1858 16.2427 18.1858H15.0144C14.9666 18.1858 14.9293 18.1418 14.9353 18.0913C14.9743 17.7632 15.0566 17.4495 15.1759 17.157ZM21.1469 17.9978H20.1209C20.1096 17.7592 20.0908 17.5239 20.0653 17.2942H20.9601C21.0459 17.5174 21.1092 17.753 21.1469 17.9978ZM17.7737 15.2956C17.8926 15.2807 18.0136 15.2729 18.1364 15.2729C18.2592 15.2729 18.3802 15.2807 18.4991 15.2956C18.6317 15.5339 18.7545 15.8505 18.8562 16.2293H17.4165C17.5183 15.8505 17.6411 15.5339 17.7737 15.2956ZM16.5016 15.7794C16.4593 15.9241 16.4203 16.0743 16.385 16.2293H15.9769C16.1354 16.0596 16.3114 15.9086 16.5016 15.7794ZM15.3126 17.2942H16.2075C16.1819 17.5239 16.1633 17.7592 16.1519 17.9978H15.1259C15.1636 17.753 15.2268 17.5174 15.3126 17.2942ZM17.2127 17.2942H19.0601C19.0882 17.5198 19.1093 17.7551 19.1221 17.9978H17.1507C17.1635 17.7551 17.1846 17.5198 17.2127 17.2942ZM20.2959 16.2293H19.8878C19.8525 16.0743 19.8135 15.9241 19.7712 15.7794C19.9614 15.9086 20.1374 16.0596 20.2959 16.2293ZM15.1259 19.0628H16.1504C16.1611 19.302 16.1792 19.5371 16.2044 19.7664H15.3126C15.2268 19.5432 15.1636 19.3077 15.1259 19.0628ZM16.4961 21.2774C16.308 21.1491 16.1339 20.9994 15.9769 20.8314H16.3807C16.4156 20.9849 16.4542 21.1339 16.4961 21.2774ZM18.8606 20.8314C18.7605 21.2044 18.6392 21.5198 18.507 21.764C18.3855 21.7797 18.2619 21.7877 18.1364 21.7877C18.0109 21.7877 17.8872 21.7797 17.7658 21.764C17.6337 21.5198 17.5123 21.2044 17.4121 20.8314H18.8606ZM17.2206 19.8546C17.2206 19.8544 17.2206 19.8544 17.2206 19.8543C17.2206 19.8544 17.2206 19.8545 17.2206 19.8546ZM19.0634 19.7664H17.2094C17.1816 19.5411 17.1611 19.3059 17.1491 19.0628H19.1237C19.1116 19.3059 19.0912 19.5411 19.0634 19.7664ZM20.2959 20.8314C20.1389 20.9994 19.9648 21.1491 19.7767 21.2774C19.8186 21.1339 19.8572 20.9849 19.8921 20.8314H20.2959ZM20.9601 19.7664H20.0684C20.0936 19.5371 20.1117 19.302 20.1224 19.0628H21.1469C21.1092 19.3077 21.0459 19.5432 20.9601 19.7664ZM18.1364 14.208C15.9005 14.208 14.0879 16.1432 14.0879 18.5303C14.0879 20.9175 15.9005 22.8526 18.1364 22.8526C20.3723 22.8526 22.1849 20.9175 22.1849 18.5303C22.1849 16.1432 20.3723 14.208 18.1364 14.208Z" fill="#E69F69"/>
<path d="M15.1759 17.157C15.1886 17.1259 15.2173 17.1063 15.2489 17.1063H16.315C16.364 17.1063 16.4017 17.1526 16.3954 17.2045C16.3598 17.4953 16.3355 17.7962 16.3235 18.1026C16.3218 18.1489 16.2861 18.1858 16.2427 18.1858H15.0144C14.9666 18.1858 14.9293 18.1418 14.9353 18.0913C14.9743 17.7632 15.0566 17.4495 15.1759 17.157ZM15.1759 17.157L15.2489 17.1909M19.6948 21.538C19.6948 21.5379 19.6948 21.5378 19.6949 21.5377M21.1469 17.9978H20.1209C20.1096 17.7592 20.0908 17.5239 20.0653 17.2942H20.9601C21.0459 17.5174 21.1092 17.753 21.1469 17.9978ZM17.7737 15.2956C17.8926 15.2807 18.0136 15.2729 18.1364 15.2729C18.2592 15.2729 18.3802 15.2807 18.4991 15.2956C18.6317 15.5339 18.7545 15.8505 18.8562 16.2293H17.4165C17.5183 15.8505 17.6411 15.5339 17.7737 15.2956ZM16.5016 15.7794C16.4593 15.9241 16.4203 16.0743 16.385 16.2293H15.9769C16.1354 16.0596 16.3114 15.9086 16.5016 15.7794ZM15.3126 17.2942H16.2075C16.1819 17.5239 16.1633 17.7592 16.1519 17.9978H15.1259C15.1636 17.753 15.2268 17.5174 15.3126 17.2942ZM17.2127 17.2942H19.0601C19.0882 17.5198 19.1093 17.7551 19.1221 17.9978H17.1507C17.1635 17.7551 17.1846 17.5198 17.2127 17.2942ZM20.2959 16.2293H19.8878C19.8525 16.0743 19.8135 15.9241 19.7712 15.7794C19.9614 15.9086 20.1374 16.0596 20.2959 16.2293ZM15.1259 19.0628H16.1504C16.1611 19.302 16.1792 19.5371 16.2044 19.7664H15.3126C15.2268 19.5432 15.1636 19.3077 15.1259 19.0628ZM16.4961 21.2774C16.308 21.1491 16.1339 20.9994 15.9769 20.8314H16.3807C16.4156 20.9849 16.4542 21.1339 16.4961 21.2774ZM18.8606 20.8314C18.7605 21.2044 18.6392 21.5198 18.507 21.764C18.3855 21.7797 18.2619 21.7877 18.1364 21.7877C18.0109 21.7877 17.8872 21.7797 17.7658 21.764C17.6337 21.5198 17.5123 21.2044 17.4121 20.8314H18.8606ZM17.2206 19.8546C17.2206 19.8544 17.2206 19.8544 17.2206 19.8543C17.2206 19.8544 17.2206 19.8545 17.2206 19.8546ZM19.0634 19.7664H17.2094C17.1816 19.5411 17.1611 19.3059 17.1491 19.0628H19.1237C19.1116 19.3059 19.0912 19.5411 19.0634 19.7664ZM20.2959 20.8314C20.1389 20.9994 19.9648 21.1491 19.7767 21.2774C19.8186 21.1339 19.8572 20.9849 19.8921 20.8314H20.2959ZM20.9601 19.7664H20.0684C20.0936 19.5371 20.1117 19.302 20.1224 19.0628H21.1469C21.1092 19.3077 21.0459 19.5432 20.9601 19.7664ZM18.1364 14.208C15.9005 14.208 14.0879 16.1432 14.0879 18.5303C14.0879 20.9175 15.9005 22.8526 18.1364 22.8526C20.3723 22.8526 22.1849 20.9175 22.1849 18.5303C22.1849 16.1432 20.3723 14.208 18.1364 14.208Z" stroke="white" stroke-width="0.4"/>
</svg>
