<svg width="25" height="24" viewBox="0 0 25 24" fill="none" xmlns="http://www.w3.org/2000/svg">
<path d="M12.7438 4.43889H11.8562C11.7002 3.53599 11.2357 2.7281 10.5537 2.17333C9.87172 1.61866 9.02125 1.35704 8.16883 1.43982C7.31652 1.52249 6.52357 1.94366 5.94544 2.62063C5.36723 3.29771 5.04552 4.18194 5.04309 5.1002V5.88495C5.04309 6.86245 5.40502 7.7999 6.04931 8.49108C6.6935 9.18226 7.56729 9.57065 8.47839 9.57065C9.38949 9.57065 10.2633 9.18226 10.9075 8.49108C11.5518 7.7999 11.9137 6.86245 11.9137 5.88495V5.76151H12.7355C12.899 5.76151 13.0558 5.6918 13.1714 5.56784C13.287 5.44377 13.3519 5.27551 13.3519 5.1002C13.3519 4.92478 13.287 4.75653 13.1714 4.63256C13.0558 4.5085 12.899 4.43889 12.7355 4.43889H12.7438ZM8.47839 8.24803C7.89493 8.24564 7.33595 7.99595 6.92339 7.55332C6.51074 7.11068 6.27803 6.51089 6.2759 5.88495V5.76151H10.6809V5.88495C10.6788 6.51089 10.446 7.11068 10.0334 7.55332C9.62084 7.99595 9.06186 8.24564 8.47839 8.24803Z" fill="#514AF3"/>
<path d="M12.7102 12.5691C12.1203 11.8236 11.3494 11.2681 10.483 10.9643C10.3959 10.9302 10.3004 10.93 10.2133 10.9639C10.1261 10.9977 10.0528 11.0635 10.0064 11.1495L9.11055 12.7542C9.07207 12.8223 9.01766 12.8784 8.95285 12.917C8.88804 12.9557 8.81488 12.9755 8.74075 12.9747C8.66651 12.9755 8.59345 12.9557 8.52864 12.917C8.46373 12.8784 8.40942 12.8223 8.37085 12.7542L7.434 11.1142C7.38639 11.0294 7.31303 10.9647 7.22626 10.9311C7.1395 10.8974 7.04457 10.8967 6.95731 10.929C5.96518 11.2915 5.10441 11.9795 4.49675 12.8957C3.88919 13.8119 3.56544 14.9098 3.57137 16.0343C3.57137 16.1512 3.61461 16.2634 3.69175 16.3461C3.7688 16.4287 3.87325 16.4752 3.98227 16.4752H12.7102V12.5691Z" fill="#514AF3"/>
<path d="M22.2234 16.8819C22.2289 16.8182 22.2289 16.7541 22.2234 16.6904V11.0581C22.2234 10.7593 22.1131 10.4728 21.9167 10.2616C21.7203 10.0503 21.454 9.93164 21.1763 9.93164H19.4384V13.311C19.4384 13.4604 19.3832 13.6036 19.285 13.7092C19.1868 13.8148 19.0537 13.8742 18.9148 13.8742H17.5328C17.3939 13.8742 17.2607 13.8148 17.1626 13.7092C17.0645 13.6036 17.0093 13.4604 17.0093 13.311V9.93164H15.02C14.7423 9.93164 14.4759 10.0503 14.2796 10.2616C14.0833 10.4728 13.9729 10.7593 13.9729 11.0581V16.6904C13.9672 16.7541 13.9672 16.8182 13.9729 16.8819H22.2234Z" fill="#E69F69"/>
<path d="M20.1409 18.168H5.75872C5.21382 18.168 4.69118 18.4002 4.30583 18.8136C3.92058 19.2271 3.7041 19.7878 3.7041 20.3723C3.7041 20.957 3.92058 21.5177 4.30583 21.931C4.69118 22.3445 5.21382 22.5767 5.75872 22.5767H20.1409C20.6858 22.5767 21.2084 22.3445 21.5937 21.931C21.9791 21.5177 22.1954 20.957 22.1954 20.3723C22.1954 19.7878 21.9791 19.2271 21.5937 18.8136C21.2084 18.4002 20.6858 18.168 20.1409 18.168ZM6.78602 21.2541C6.62347 21.2541 6.46461 21.2024 6.32945 21.1055C6.1943 21.0086 6.08888 20.8709 6.02669 20.7098C5.96451 20.5487 5.94828 20.3714 5.97996 20.2003C6.01163 20.0293 6.08995 19.8722 6.20489 19.7489C6.31983 19.6255 6.46626 19.5416 6.6257 19.5076C6.78505 19.4736 6.95033 19.491 7.10054 19.5577C7.25066 19.6245 7.37901 19.7375 7.46937 19.8825C7.55964 20.0275 7.60783 20.198 7.60783 20.3723C7.60783 20.6063 7.52126 20.8305 7.36716 20.9959C7.21296 21.1612 7.00396 21.2541 6.78602 21.2541ZM10.8952 21.2541C10.7327 21.2541 10.5737 21.2024 10.4386 21.1055C10.3034 21.0086 10.1981 20.8709 10.1359 20.7098C10.0737 20.5487 10.0574 20.3714 10.0892 20.2003C10.1209 20.0293 10.1992 19.8722 10.314 19.7489C10.429 19.6255 10.5755 19.5416 10.7348 19.5076C10.8943 19.4736 11.0596 19.491 11.2097 19.5577C11.3599 19.6245 11.4882 19.7375 11.5785 19.8825C11.6689 20.0275 11.7171 20.198 11.7171 20.3723C11.7171 20.6063 11.6305 20.8305 11.4763 20.9959C11.3222 21.1612 11.1132 21.2541 10.8952 21.2541ZM15.0044 21.2541C14.8418 21.2541 14.683 21.2024 14.5478 21.1055C14.4127 21.0086 14.3073 20.8709 14.2451 20.7098C14.1829 20.5487 14.1666 20.3714 14.1983 20.2003C14.2301 20.0293 14.3083 19.8722 14.4233 19.7489C14.5382 19.6255 14.6846 19.5416 14.8441 19.5076C15.0035 19.4736 15.1687 19.491 15.3189 19.5577C15.4691 19.6245 15.5975 19.7375 15.6877 19.8825C15.778 20.0275 15.8262 20.198 15.8262 20.3723C15.8264 20.6002 15.7444 20.8193 15.5973 20.9837C15.4502 21.1481 15.2495 21.2451 15.0372 21.2541H15.0044ZM19.1136 21.2541C18.9511 21.2541 18.7922 21.2024 18.657 21.1055C18.5219 21.0086 18.4165 20.8709 18.3543 20.7098C18.2921 20.5487 18.2759 20.3714 18.3075 20.2003C18.3392 20.0293 18.4175 19.8722 18.5325 19.7489C18.6474 19.6255 18.7938 19.5416 18.9533 19.5076C19.1126 19.4736 19.2779 19.491 19.4281 19.5577C19.5782 19.6245 19.7066 19.7375 19.797 19.8825C19.8872 20.0275 19.9354 20.198 19.9354 20.3723C19.9356 20.6002 19.8535 20.8193 19.7064 20.9837C19.5594 21.1481 19.3587 21.2451 19.1465 21.2541H19.1136Z" fill="#514AF3"/>
</svg>
