<svg width="25" height="24" viewBox="0 0 25 24" fill="none" xmlns="http://www.w3.org/2000/svg">
<path d="M21.8286 7.01326C20.9213 5.93276 18.4841 3.43652 15.5221 3.43652C12.9337 3.43652 10.7456 5.35532 9.66039 6.501C9.61817 6.54994 9.56566 6.58807 9.50706 6.61223C9.44839 6.63648 9.38523 6.64621 9.32242 6.64071C9.25884 6.63648 9.19687 6.61863 9.14022 6.58816C9.08357 6.5577 9.03358 6.51533 8.99331 6.46368L7.29442 4.21893C7.18036 4.06507 7.02315 3.95257 6.84492 3.89705C6.66669 3.84161 6.4763 3.84612 6.30052 3.90985C6.12482 3.97357 5.9726 4.09337 5.86529 4.25238C5.75798 4.41147 5.7009 4.60167 5.70217 4.79646V10.4596C5.70175 10.6549 5.75984 10.8454 5.86841 11.0041C5.9769 11.1629 6.13039 11.282 6.30702 11.3445C6.3993 11.3742 6.49513 11.3899 6.59172 11.3911C6.7268 11.3918 6.86029 11.3603 6.98203 11.299C7.10378 11.2377 7.21058 11.1481 7.29442 11.0371L8.95768 8.79235C8.99795 8.7407 9.04802 8.69833 9.10467 8.66786C9.16124 8.6374 9.2233 8.61955 9.28687 8.61531C9.3496 8.60981 9.41284 8.61955 9.47143 8.6438C9.53011 8.66795 9.58254 8.70608 9.62484 8.75503C10.7456 9.9007 12.9337 11.8195 15.5221 11.8195C18.4841 11.8195 20.9213 9.32327 21.8286 8.24277C21.9712 8.07276 22.0498 7.85426 22.0498 7.62801C22.0498 7.40176 21.9712 7.18326 21.8286 7.01326ZM17.3011 8.09377C17.1251 8.09377 16.9532 8.03914 16.8069 7.93674C16.6607 7.83443 16.5466 7.68895 16.4793 7.51876C16.4119 7.34858 16.3944 7.16127 16.4287 6.98054C16.463 6.7999 16.5477 6.63395 16.6722 6.5037C16.7965 6.37336 16.955 6.28466 17.1276 6.24879C17.3001 6.21282 17.479 6.23121 17.6415 6.30179C17.804 6.37228 17.9429 6.49162 18.0407 6.64477C18.1384 6.79801 18.1905 6.97811 18.1905 7.16226C18.1905 7.40933 18.0968 7.64622 17.9301 7.82091C17.7632 7.9956 17.537 8.09377 17.3011 8.09377Z" fill="#E69F69"/>
<path d="M15.1399 11.3688C14.4083 10.4975 12.4427 8.48438 10.0541 8.48438C7.96664 8.48438 6.20198 10.0318 5.32687 10.9557C5.29285 10.9952 5.25046 11.026 5.20318 11.0454C5.1559 11.065 5.10499 11.0728 5.05433 11.0684C5.00309 11.065 4.95302 11.0506 4.90734 11.026C4.86167 11.0014 4.82139 10.9673 4.78889 10.9256L3.41877 9.11535C3.32682 8.99132 3.2001 8.90055 3.05631 8.85584C2.91253 8.81104 2.75904 8.81465 2.61728 8.86612C2.47561 8.9175 2.35285 9.01412 2.26629 9.1423C2.17973 9.27057 2.13374 9.42399 2.13478 9.5811V14.1481C2.13439 14.3056 2.18128 14.4593 2.26881 14.5873C2.35634 14.7154 2.48008 14.8114 2.6226 14.8617C2.69698 14.8857 2.77423 14.8984 2.85208 14.8993C2.96108 14.8999 3.06872 14.8745 3.16692 14.8251C3.26511 14.7756 3.35122 14.7034 3.41877 14.6139L4.76018 12.8036C4.79269 12.7619 4.83304 12.7278 4.87872 12.7032C4.92431 12.6787 4.97438 12.6642 5.02563 12.6608C5.07629 12.6564 5.1272 12.6642 5.17448 12.6838C5.22176 12.7033 5.26414 12.734 5.29817 12.7735C6.20198 13.6974 7.96664 15.2448 10.0541 15.2448C12.4427 15.2448 14.4083 13.2318 15.1399 12.3604C15.2549 12.2233 15.3183 12.0471 15.3183 11.8646C15.3183 11.6822 15.2549 11.5059 15.1399 11.3688ZM11.4887 12.2402C11.3469 12.2402 11.2081 12.1961 11.0902 12.1136C10.9722 12.0311 10.8803 11.9137 10.826 11.7765C10.7717 11.6393 10.7575 11.4882 10.7851 11.3425C10.8128 11.1968 10.8811 11.0629 10.9815 10.9579C11.0818 10.8528 11.2097 10.7813 11.3488 10.7523C11.4879 10.7234 11.6321 10.7382 11.7633 10.795C11.8943 10.8519 12.0063 10.9482 12.0852 11.0717C12.164 11.1952 12.206 11.3404 12.206 11.489C12.206 11.6882 12.1304 11.8793 11.9959 12.0202C11.8615 12.1611 11.679 12.2402 11.4887 12.2402Z" fill="#514AF3"/>
<path d="M17.3044 10.0674C17.9476 10.0017 18.9625 9.92676 20.2458 9.92676C21.5291 9.92676 22.544 10.0017 23.1872 10.0674C23.621 10.1117 23.8109 10.6455 23.5386 10.9978L22.9024 11.8209V15.6165C22.9024 16.6122 22.8867 17.4459 22.8654 18.1185C22.8241 19.423 21.9228 20.5064 20.6906 20.5544C20.5456 20.5601 20.3968 20.5632 20.2458 20.5632C20.0998 20.5632 19.9559 20.5603 19.8155 20.5549C18.5761 20.5082 17.6695 19.4146 17.6273 18.103C17.6246 18.0193 17.622 17.9333 17.6195 17.845H18.6992C18.9433 17.845 19.1411 17.6334 19.1411 17.3723C19.1411 17.1112 18.9433 16.8996 18.6992 16.8996H17.599C17.5933 16.5336 17.5898 16.1394 17.5893 15.7177H17.5946H18.6992C18.9433 15.7177 19.1411 15.5061 19.1411 15.245C19.1411 14.9839 18.9433 14.7723 18.6992 14.7723H17.5946H17.5892V13.5904H17.5946H18.6992C18.9433 13.5904 19.1411 13.3788 19.1411 13.1177C19.1411 12.8566 18.9433 12.645 18.6992 12.645H17.5946H17.5892V11.8209L16.953 10.9978C16.6807 10.6455 16.8706 10.1117 17.3044 10.0674Z" fill="#514AF3"/>
</svg>
