<svg width="25" height="24" viewBox="0 0 25 24" fill="none" xmlns="http://www.w3.org/2000/svg">
<path d="M8.2207 17.8767C8.0317 17.7442 7.80127 17.6968 7.57965 17.7449C7.35802 17.7929 7.16315 17.9324 7.03745 18.1331L4.89391 21.5659C4.83435 21.6685 4.79452 21.7828 4.77656 21.902C4.75852 22.0211 4.76287 22.143 4.7891 22.2604C4.81541 22.3778 4.86324 22.4885 4.92974 22.5861C4.99632 22.6837 5.08024 22.7664 5.17679 22.8292C5.30285 22.9237 5.45166 22.9777 5.60555 22.9848C5.74681 22.984 5.88567 22.946 6.00977 22.8741C6.13396 22.8022 6.23958 22.6988 6.31719 22.5728L8.46081 19.14C8.58492 18.9382 8.62928 18.6922 8.5843 18.4556C8.53931 18.219 8.40863 18.011 8.2207 17.8767Z" fill="#514AF3"/>
<path d="M20.8932 21.5659L18.7497 18.1331C18.6932 18.0209 18.6155 17.9224 18.5215 17.8441C18.4274 17.7657 18.319 17.7092 18.2034 17.6781C18.0876 17.647 17.9672 17.642 17.8496 17.6635C17.732 17.6849 17.6199 17.7324 17.5204 17.8027C17.421 17.8731 17.3364 17.9648 17.272 18.0721C17.2076 18.1793 17.165 18.2997 17.1467 18.4256C17.1284 18.5515 17.135 18.6801 17.1659 18.8031C17.1969 18.9261 17.2515 19.0409 17.3263 19.1401L19.4698 22.5729C19.5475 22.6988 19.6532 22.8024 19.7773 22.8742C19.9014 22.9461 20.0403 22.984 20.1816 22.9849C20.3501 22.9869 20.515 22.9325 20.6531 22.8292C20.8411 22.695 20.9718 22.487 21.0167 22.2503C21.0617 22.0137 21.0173 21.7677 20.8932 21.5659Z" fill="#514AF3"/>
<path d="M19.753 14.746V5.14321C19.753 4.04822 19.3456 2.99811 18.6204 2.22392C17.8952 1.44962 16.9116 1.01465 15.886 1.01465H9.88396C8.86135 1.01949 7.88222 1.4566 7.16071 2.23037C6.43921 3.00409 6.03409 4.05144 6.03418 5.14321V14.746C6.03374 15.2193 6.18753 15.6781 6.46908 16.0438C6.75062 16.4096 7.1424 16.6594 7.57747 16.7507C9.32452 17.1711 11.104 17.4193 12.8936 17.4922C14.6856 17.4145 16.4675 17.1664 18.2183 16.7507C18.6517 16.6576 19.0416 16.4069 19.3214 16.0414C19.6013 15.6759 19.7538 15.2181 19.753 14.746ZM13.751 3.07433C13.751 3.01368 13.7736 2.9554 13.8138 2.9125C13.854 2.8696 13.9085 2.8455 13.9653 2.8455H15.886C16.4561 2.84787 17.0022 3.09075 17.4053 3.52117C17.8084 3.9515 18.0359 4.53454 18.0382 5.14321V8.64925C18.0392 8.68399 18.0327 8.71863 18.0194 8.75033C18.006 8.78204 17.9861 8.81013 17.961 8.83234C17.9312 8.84591 17.8991 8.85294 17.8667 8.85294C17.8342 8.85294 17.8022 8.84591 17.7723 8.83234C16.5167 8.54741 15.2399 8.38198 13.9568 8.33804C13.9043 8.33595 13.8543 8.31336 13.8164 8.27454C13.7785 8.23572 13.7552 8.18343 13.751 8.12743V3.07433ZM7.74896 5.14321C7.75127 4.53454 7.97876 3.9515 8.38183 3.52117C8.78499 3.09075 9.3311 2.84787 9.90112 2.8455H11.8218C11.8787 2.8455 11.9332 2.8696 11.9734 2.9125C12.0135 2.9554 12.0361 3.01368 12.0361 3.07433V8.12743C12.0362 8.18665 12.0148 8.24351 11.9765 8.28612C11.9381 8.32883 11.8857 8.35398 11.8304 8.35636C10.5468 8.40628 9.26994 8.57788 8.01477 8.86897C7.98499 8.88255 7.95289 8.88957 7.92044 8.88957C7.88809 8.88957 7.85599 8.88255 7.82621 8.86897C7.7959 8.84316 7.77278 8.80918 7.75918 8.77046C7.74558 8.73183 7.74211 8.68988 7.74896 8.64925V5.14321ZM9.24949 12.9152H7.96338C7.84968 12.9152 7.7406 12.8669 7.66024 12.781C7.57978 12.6952 7.53462 12.5788 7.53462 12.4574V11.542C7.53462 11.4206 7.57978 11.3042 7.66024 11.2183C7.7406 11.1325 7.84968 11.0843 7.96338 11.0843H9.24949C9.47689 11.0843 9.69496 11.1807 9.85578 11.3524C10.0166 11.524 10.1069 11.7569 10.1069 11.9997C10.1069 12.2425 10.0166 12.4753 9.85578 12.647C9.69496 12.8186 9.47689 12.9152 9.24949 12.9152ZM14.8228 15.5241C14.8252 15.5808 14.8068 15.6365 14.7717 15.6791C14.7365 15.7218 14.6873 15.7483 14.6342 15.7529C14.0654 15.8335 13.4929 15.8793 12.9193 15.8903C12.3457 15.8793 11.7732 15.8335 11.2045 15.7529C11.1514 15.7483 11.1021 15.7218 11.0669 15.6791C11.0317 15.6365 11.0134 15.5808 11.0158 15.5241V13.8306C11.0158 13.7698 11.0384 13.7117 11.0786 13.6688C11.1188 13.6258 11.1734 13.6017 11.2302 13.6017H14.6599C14.7167 13.6017 14.7713 13.6258 14.8115 13.6688C14.8517 13.7117 14.8742 13.7698 14.8742 13.8306L14.8228 15.5241ZM17.8238 12.9152H16.5376C16.3102 12.9152 16.0922 12.8186 15.9313 12.647C15.7706 12.4753 15.6802 12.2425 15.6802 11.9997C15.6802 11.7569 15.7706 11.524 15.9313 11.3524C16.0922 11.1807 16.3102 11.0843 16.5376 11.0843H17.8238C17.9375 11.0843 18.0465 11.1325 18.127 11.2183C18.2073 11.3042 18.2525 11.4206 18.2525 11.542V12.4574C18.2525 12.5788 18.2073 12.6952 18.127 12.781C18.0465 12.8669 17.9375 12.9152 17.8238 12.9152Z" fill="#E69F69"/>
</svg>
