<svg width="25" height="24" viewBox="0 0 25 24" fill="none" xmlns="http://www.w3.org/2000/svg">
<path d="M20.7115 4.79189L20.6438 2.50809C20.6438 2.26877 20.5547 2.03919 20.3962 1.86989C20.2377 1.70059 20.0226 1.60547 19.7984 1.60547H17.2112C16.9869 1.60547 16.7719 1.70059 16.6133 1.86989C16.4547 2.03919 16.3656 2.26877 16.3656 2.50809L16.2811 4.79189H20.7115Z" fill="#E69F69"/>
<path d="M20.9905 14.721L20.7537 6.14551H16.2641L16.0275 14.721H20.9905Z" fill="#514AF3"/>
<path d="M22.4105 16.0752H13.9556V21.9426C13.9531 22.095 13.9332 22.2466 13.8964 22.3939H22.4105C22.5227 22.3939 22.6302 22.3464 22.7095 22.2617C22.7888 22.1771 22.8333 22.0623 22.8333 21.9426V16.5265C22.8333 16.4067 22.7888 16.292 22.7095 16.2073C22.6302 16.1227 22.5227 16.0752 22.4105 16.0752ZM17.1262 19.9116H15.8579C15.6898 19.9116 15.5285 19.8402 15.4096 19.7133C15.2907 19.5863 15.2238 19.4141 15.2238 19.2345C15.2238 19.055 15.2907 18.8828 15.4096 18.7558C15.5285 18.6288 15.6898 18.5575 15.8579 18.5575H17.1262C17.2944 18.5575 17.4557 18.6288 17.5746 18.7558C17.6935 18.8828 17.7604 19.055 17.7604 19.2345C17.7604 19.4141 17.6935 19.5863 17.5746 19.7133C17.4557 19.8402 17.2944 19.9116 17.1262 19.9116ZM20.9309 19.9116H19.6627C19.4945 19.9116 19.3332 19.8402 19.2143 19.7133C19.0954 19.5863 19.0285 19.4141 19.0285 19.2345C19.0285 19.055 19.0954 18.8828 19.2143 18.7558C19.3332 18.6288 19.4945 18.5575 19.6627 18.5575H20.9309C21.0991 18.5575 21.2604 18.6288 21.3793 18.7558C21.4982 18.8828 21.5651 19.055 21.5651 19.2345C21.5651 19.4141 21.4982 19.5863 21.3793 19.7133C21.2604 19.8402 21.0991 19.9116 20.9309 19.9116Z" fill="#E69F69"/>
<path d="M12.2653 14.2695H3.38757C3.27548 14.2695 3.16791 14.3172 3.08868 14.4017C3.00934 14.4864 2.96484 14.6012 2.96484 14.721V21.9423C2.96484 22.0621 3.00934 22.1768 3.08868 22.2615C3.16791 22.3461 3.27548 22.3937 3.38757 22.3937H6.21156C6.32364 22.3937 6.43122 22.3461 6.51045 22.2615C6.58979 22.1768 6.63429 22.0621 6.63429 21.9423V17.2394H9.01016V21.9423C9.01016 22.0621 9.05466 22.1768 9.134 22.2615C9.21323 22.3461 9.3208 22.3937 9.43288 22.3937H12.2653C12.3775 22.3937 12.4849 22.3461 12.5643 22.2615C12.6435 22.1768 12.6881 22.0621 12.6881 21.9423V14.721C12.6881 14.6012 12.6435 14.4864 12.5643 14.4017C12.4849 14.3172 12.3775 14.2695 12.2653 14.2695Z" fill="#514AF3"/>
<path d="M3.13212 12.9158H12.5171C12.5561 12.866 12.5851 12.8084 12.6026 12.7464C12.62 12.6843 12.6254 12.6191 12.6186 12.5547C12.4473 11.3246 11.8702 10.2004 10.9913 9.38448C10.1123 8.56858 8.98937 8.11458 7.82457 8.10449C6.65894 8.11088 5.53412 8.56354 4.65447 9.38011C3.77481 10.1968 3.19865 11.3232 3.03063 12.5547C3.02213 12.6184 3.02602 12.6834 3.04197 12.7456C3.05792 12.8076 3.08573 12.8656 3.12362 12.9158H3.13212Z" fill="#E69F69"/>
</svg>
