<svg width="25" height="25" viewBox="0 0 25 25" fill="none" xmlns="http://www.w3.org/2000/svg">
<g clip-path="url(#clip0_7_508)">
<mask id="mask0_7_508" style="mask-type:luminance" maskUnits="userSpaceOnUse" x="0" y="0" width="25" height="25">
<path d="M24.8418 0.78125H0.841797V24.7812H24.8418V0.78125Z" fill="white"/>
</mask>
<g mask="url(#mask0_7_508)">
<path fill-rule="evenodd" clip-rule="evenodd" d="M16.49 17.2178C17.0072 17.4117 17.5836 17.1497 17.7775 16.6326L21.2287 7.4294C21.2905 7.26465 21.4343 7.14455 21.6074 7.11305L23.5201 6.7653C24.0634 6.6665 24.4238 6.1459 24.325 5.60254C24.2262 5.05916 23.7057 4.69875 23.1623 4.79755L21.2496 5.14531C20.3841 5.30268 19.6649 5.90345 19.356 6.72715L15.9048 15.9303C15.7109 16.4475 15.9729 17.0239 16.49 17.2178Z" fill="#514AF3"/>
<path d="M2.63955 11.5445C2.55318 11.3142 2.58524 11.0562 2.72535 10.854C2.86546 10.6518 3.09581 10.5312 3.3418 10.5312H18.5918C18.8348 10.5312 19.0629 10.649 19.2035 10.8472C19.3441 11.0454 19.38 11.2996 19.2997 11.529L17.5497 16.529C17.4692 16.7589 17.2821 16.9354 17.0479 17.0023L6.54784 20.0025C6.17204 20.1099 5.77678 19.9105 5.63955 19.5446L2.63955 11.5445Z" fill="#514AF3"/>
<path fill-rule="evenodd" clip-rule="evenodd" d="M16.7514 15.2854C17.3014 15.2354 17.7878 15.6407 17.8378 16.1908L18.1891 20.0549C18.3222 21.519 17.1694 22.7813 15.6994 22.7813H15.631C14.8077 22.7813 14.0372 22.376 13.5709 21.6976L11.2679 18.3478C10.955 17.8927 11.0703 17.2701 11.5254 16.9572C11.9805 16.6444 12.6031 16.7597 12.916 17.2148L15.2189 20.5646C15.3122 20.7002 15.4663 20.7813 15.631 20.7813H15.6994C15.9934 20.7813 16.2239 20.5288 16.1973 20.236L15.846 16.3718C15.796 15.8218 16.2014 15.3354 16.7514 15.2854Z" fill="#514AF3"/>
<path fill-rule="evenodd" clip-rule="evenodd" d="M19.6044 8.0909L19.4421 8.0883C19.3353 8.08665 19.1766 8.08435 18.9691 8.08155C18.5541 8.07595 17.9438 8.0685 17.1615 8.06105C15.5969 8.04615 13.3445 8.03125 10.5918 8.03125C7.2262 8.03125 5.03484 8.0535 3.83818 8.07085C3.3866 8.0774 2.88146 8.17795 2.45639 8.43625C2.00858 8.7084 1.64155 9.16835 1.59883 9.81535C1.59422 9.88515 1.5918 9.9571 1.5918 10.0312C1.5918 10.1054 1.59422 10.1774 1.59883 10.2472C1.64155 10.8943 2.00858 11.3542 2.45639 11.6263C2.88146 11.8846 3.3866 11.985 3.83818 11.9916C5.03484 12.0089 7.2262 12.0312 10.5918 12.0312C13.3445 12.0312 15.3474 12.0163 16.6628 12.0014C17.3206 11.9939 17.8065 11.9865 18.1283 11.9809C18.2893 11.9781 18.4091 11.9757 18.489 11.9741L18.579 11.9722L18.6096 11.9715C18.905 11.9645 19.1688 11.7845 19.2833 11.5121L20.2833 9.1312C20.3796 8.90175 20.356 8.6394 20.22 8.43095C20.084 8.2225 19.8532 8.0951 19.6044 8.0909Z" fill="#514AF3"/>
<path d="M7.54679 4.09737C8.32579 3.14202 9.51274 2.53125 10.8423 2.53125C12.1719 2.53125 13.3589 3.14202 14.1378 4.09737C14.3662 4.05394 14.6017 4.03125 14.8423 4.03125C16.583 4.03125 18.0466 5.21714 18.4693 6.82505C18.1132 6.82075 17.6793 6.8159 17.1739 6.8111C15.6059 6.79615 13.3494 6.78125 10.5923 6.78125C7.22124 6.78125 5.0238 6.80355 3.82056 6.821C3.6266 6.8238 3.41846 6.8394 3.20312 6.8727C3.60926 5.24063 5.08455 4.03125 6.84228 4.03125C7.08293 4.03125 7.31844 4.05394 7.54679 4.09737Z" fill="#E69F69"/>
<path d="M6.0918 16.0312C4.15881 16.0312 2.5918 17.5983 2.5918 19.5312C2.5918 21.4642 4.15881 23.0312 6.0918 23.0312C8.0248 23.0312 9.5918 21.4642 9.5918 19.5312C9.5918 17.5983 8.0248 16.0312 6.0918 16.0312Z" fill="#E69F69"/>
</g>
</g>
<defs>
<clipPath id="clip0_7_508">
<rect width="24" height="24" fill="white" transform="translate(0.841797 0.78125)"/>
</clipPath>
</defs>
</svg>
