<svg width="25" height="24" viewBox="0 0 25 24" fill="none" xmlns="http://www.w3.org/2000/svg">
<path d="M18.0184 9.42693C17.3259 9.42294 16.6436 9.59455 16.0346 9.92579C15.4257 10.2572 14.9099 10.7374 14.5349 11.3223C14.4072 10.6876 14.1032 10.1023 13.6582 9.63389C13.2132 9.16561 12.6453 8.83317 12.0202 8.67539C11.3952 8.51748 10.7383 8.54048 10.1258 8.74185C9.51306 8.9431 8.96971 9.31435 8.55829 9.8128C8.41855 9.20641 8.0647 8.67154 7.56223 8.3072C7.05991 7.94286 6.44298 7.77378 5.82605 7.83134C5.20899 7.88903 4.63375 8.16923 4.20672 8.62036C3.77982 9.07137 3.53011 9.6626 3.50391 10.2845V14.1437C3.50391 14.2574 3.5489 14.3666 3.62896 14.4468C3.70902 14.5273 3.81753 14.5725 3.93081 14.5725H7.7729V18.4317C7.7729 18.5455 7.8179 18.6545 7.89796 18.7349C7.97802 18.8153 8.08653 18.8605 8.1998 18.8605H13.7494V21.8621C13.7494 21.9758 13.7944 22.0849 13.8744 22.1653C13.9545 22.2458 14.0631 22.291 14.1763 22.291H21.8605C21.9736 22.291 22.0823 22.2458 22.1623 22.1653C22.2424 22.0849 22.2874 21.9758 22.2874 21.8621V14.0494C22.3219 13.4612 22.2377 12.8723 22.0398 12.3177C21.8417 11.7633 21.534 11.2547 21.1352 10.8229C20.7363 10.3909 20.2545 10.0446 19.7188 9.80469C19.1833 9.56477 18.6047 9.43624 18.0184 9.42693Z" fill="#514AF3"/>
<path d="M18.0186 8.56889C19.9047 8.56889 21.4338 7.03298 21.4338 5.13845C21.4338 3.24392 19.9047 1.70801 18.0186 1.70801C16.1325 1.70801 14.6034 3.24392 14.6034 5.13845C14.6034 7.03298 16.1325 8.56889 18.0186 8.56889Z" fill="#E69F69"/>
<path d="M11.1881 7.71109C12.6027 7.71109 13.7495 6.55919 13.7495 5.13826C13.7495 3.71733 12.6027 2.56543 11.1881 2.56543C9.77349 2.56543 8.62671 3.71733 8.62671 5.13826C8.62671 6.55919 9.77349 7.71109 11.1881 7.71109Z" fill="#E69F69"/>
<path d="M6.06698 6.85427C7.00997 6.85427 7.77457 6.08638 7.77457 5.13905C7.77457 4.19185 7.00997 3.42383 6.06698 3.42383C5.12385 3.42383 4.35938 4.19185 4.35938 5.13905C4.35938 6.08638 5.12385 6.85427 6.06698 6.85427Z" fill="#E69F69"/>
</svg>
