<svg width="25" height="25" viewBox="0 0 25 25" fill="none" xmlns="http://www.w3.org/2000/svg">
<g clip-path="url(#clip0_7_903)">
<path d="M11.6878 7.07372C13.2662 7.07372 14.5458 5.76964 14.5458 4.16095C14.5458 2.55213 13.2662 1.24805 11.6878 1.24805C10.1092 1.24805 8.8297 2.55213 8.8297 4.16095C8.8297 5.76964 10.1092 7.07372 11.6878 7.07372ZM11.6875 7.48172C9.14408 7.48172 7.08203 9.58321 7.08203 12.1757C7.08203 12.5547 7.38363 12.8621 7.75565 12.8621H15.6196C15.9915 12.8621 16.2931 12.5547 16.2931 12.1757C16.2931 9.58321 14.2312 7.48172 11.6875 7.48172Z" fill="#514AF3" stroke="white" stroke-width="0.5"/>
<path d="M5.7696 13.4554C7.50461 13.4554 8.91122 12.0659 8.91122 10.3518C8.91122 8.63757 7.50461 7.24805 5.7696 7.24805C4.03458 7.24805 2.6281 8.63757 2.6281 10.3518C2.6281 12.0659 4.03458 13.4554 5.7696 13.4554ZM5.76947 13.8901C2.97354 13.8901 0.707031 16.1293 0.707031 18.8917C0.707031 19.2955 1.03855 19.623 1.44749 19.623H10.0916C10.5005 19.623 10.832 19.2955 10.832 18.8917C10.832 16.1293 8.56539 13.8901 5.76947 13.8901Z" fill="#E69F69" stroke="white" stroke-width="0.5"/>
<path d="M17.7696 10.4554C19.5046 10.4554 20.9112 9.06588 20.9112 7.35179C20.9112 5.63757 19.5046 4.24805 17.7696 4.24805C16.0346 4.24805 14.628 5.63757 14.628 7.35179C14.628 9.06588 16.0346 10.4554 17.7696 10.4554ZM17.7695 10.8901C14.9735 10.8901 12.707 13.1293 12.707 15.8917C12.707 16.2955 13.0384 16.623 13.4475 16.623H22.0916C22.5004 16.623 22.832 16.2955 22.832 15.8917C22.832 13.1293 20.5654 10.8901 17.7695 10.8901Z" fill="#E69F69" stroke="white" stroke-width="0.5"/>
</g>
<defs>
<clipPath id="clip0_7_903">
<rect width="24" height="24" fill="white" transform="translate(0.707031 0.248047)"/>
</clipPath>
</defs>
</svg>
