<svg width="25" height="25" viewBox="0 0 25 25" fill="none" xmlns="http://www.w3.org/2000/svg">
<path fill-rule="evenodd" clip-rule="evenodd" d="M8.70019 16.5176C8.47512 15.8432 7.86063 15.3906 7.17011 15.3906H4.31677C3.58865 15.3906 2.95013 15.8929 2.75652 16.6179L2.33647 18.191C2.13249 18.2437 1.97566 18.2956 1.85771 18.341C1.60605 18.4378 1.40097 18.6459 1.32577 18.9334C1.25817 19.1918 1.19141 19.6152 1.19141 20.2825C1.19141 20.7259 1.22085 21.0613 1.26028 21.312C1.32054 21.6941 1.55689 21.9547 1.85083 22.0894C1.95227 21.2043 2.68113 20.5179 3.56517 20.5179C4.51772 20.5179 5.29005 21.3147 5.29151 22.2984C5.52851 22.3002 5.77999 22.3012 6.04688 22.3012C6.31367 22.3012 6.56516 22.3002 6.80215 22.2984C6.80362 21.3147 7.57604 20.5179 8.52859 20.5179C9.41263 20.5179 10.1415 21.2043 10.2429 22.0894C10.5368 21.9547 10.7732 21.6941 10.8334 21.312C10.8729 21.0613 10.9023 20.7259 10.9023 20.2825C10.9023 19.6152 10.8356 19.1918 10.768 18.9334C10.6927 18.6459 10.4877 18.4378 10.236 18.341C10.0304 18.2619 9.70657 18.163 9.21975 18.0741L8.70019 16.5176ZM7.55925 17.1027C7.48386 16.8785 7.27934 16.7282 7.04959 16.7282H6.58625C6.34788 16.7282 6.15464 16.9278 6.15464 17.174V18.0657C6.15464 18.312 6.34788 18.5115 6.58625 18.5115H7.42599C7.72287 18.5115 7.93106 18.2092 7.83376 17.9195L7.55925 17.1027ZM5.29151 17.174C5.29151 16.9278 5.09827 16.7282 4.8599 16.7282H4.42215C4.18002 16.7282 3.96761 16.8947 3.90249 17.1357L3.68366 17.9459C3.6069 18.23 3.81371 18.5115 4.09941 18.5115H4.8599C5.09827 18.5115 5.29151 18.312 5.29151 18.0657V17.174Z" fill="#514AF3"/>
<path d="M3.56481 23.5274C2.90933 23.5274 2.37793 22.9785 2.37793 22.3012C2.37793 21.6241 2.90933 21.0752 3.56481 21.0752C4.2203 21.0752 4.75169 21.6241 4.75169 22.3012C4.75169 22.9785 4.2203 23.5274 3.56481 23.5274Z" fill="#E69F69"/>
<path d="M8.52868 23.5274C7.87319 23.5274 7.3418 22.9785 7.3418 22.3012C7.3418 21.6241 7.87319 21.0752 8.52868 21.0752C9.18425 21.0752 9.71565 21.6241 9.71565 22.3012C9.71565 22.9785 9.18425 23.5274 8.52868 23.5274Z" fill="#E69F69"/>
<path d="M6.70952 14.9444H4.9541C4.97336 14.8429 4.99675 14.7322 5.0249 14.6132C5.08745 14.349 5.29381 14.1137 5.59097 14.071C5.66223 14.0608 5.74532 14.0527 5.83181 14.0527C5.91821 14.0527 6.0013 14.0608 6.07265 14.071C6.36981 14.1137 6.57617 14.349 6.63863 14.6132C6.66678 14.7322 6.69017 14.8429 6.70952 14.9444Z" fill="#E69F69"/>
<path d="M16.0665 4.97729C16.0847 4.99292 16.1077 5.00136 16.1313 5.00098L18.4487 4.54309C18.4968 4.53731 18.5455 4.53731 18.5938 4.54309C18.6407 4.53721 18.6881 4.53721 18.735 4.54309L21.0561 5.00098C21.0704 5.00306 21.0849 5.00202 21.0986 4.99794C21.1125 4.99387 21.1253 4.98686 21.1363 4.97729C21.1469 4.9682 21.1556 4.95673 21.1614 4.94375C21.1674 4.93077 21.1705 4.91666 21.1707 4.90235V4.31021C21.1707 4.02229 21.0601 3.74612 20.8632 3.54252C20.6663 3.33901 20.3993 3.22457 20.1208 3.22457H19.468C19.4427 3.22457 19.4184 3.21424 19.4005 3.19567C19.3826 3.17719 19.3725 3.15209 19.3725 3.12594V1.75215C19.3735 1.7259 19.3695 1.6997 19.3606 1.6751C19.3517 1.65049 19.3381 1.62797 19.3207 1.60885C19.3033 1.58974 19.2824 1.57441 19.2592 1.56377C19.236 1.55312 19.2108 1.54738 19.1855 1.54688H18.0402C17.9896 1.54688 17.9411 1.56767 17.9052 1.60469C17.8694 1.6417 17.8493 1.69191 17.8493 1.74425V3.12594C17.8493 3.15209 17.8392 3.17719 17.8214 3.19567C17.8035 3.21424 17.7792 3.22457 17.7539 3.22457H17.082C16.8035 3.22457 16.5365 3.33901 16.3396 3.54252C16.1427 3.74612 16.0321 4.02229 16.0321 4.31021V4.90235C16.0314 4.91675 16.034 4.93125 16.0401 4.94432C16.046 4.95739 16.0551 4.96876 16.0665 4.97729Z" fill="#E69F69"/>
<path d="M18.9339 5.21825C18.9228 5.22706 18.9139 5.23843 18.9079 5.25151C18.9018 5.26458 18.899 5.27889 18.8995 5.29329V8.79476C18.8997 8.81447 18.9057 8.8337 18.9165 8.8499C18.9274 8.86601 18.9427 8.87851 18.9605 8.88562C19.1867 8.97638 19.3711 9.15279 19.4759 9.37903C19.5171 9.45208 19.5754 9.51319 19.6455 9.55668C19.7155 9.60016 19.7951 9.62461 19.8768 9.62773C19.9902 9.6212 20.1007 9.58756 20.1994 9.5293C20.2982 9.47103 20.3824 9.38993 20.4456 9.29216C20.5268 9.14407 20.6453 9.02157 20.7885 8.93744C20.9317 8.85331 21.0941 8.81087 21.2587 8.81456C21.3833 8.81466 21.5065 8.84014 21.6215 8.8895C21.634 8.89528 21.6477 8.89831 21.6615 8.89831C21.6753 8.89831 21.689 8.89528 21.7016 8.8895C21.7141 8.88372 21.725 8.87501 21.7336 8.86402C21.7423 8.85303 21.7483 8.84014 21.7512 8.8264L22.4155 6.08277C22.4222 6.05691 22.4236 6.02981 22.4197 6.00338C22.4157 5.97685 22.4065 5.95146 22.3926 5.92882C22.3633 5.88381 22.318 5.85264 22.2666 5.84203L19.014 5.19457C18.9998 5.19229 18.9852 5.19324 18.9714 5.19732C18.9575 5.20139 18.9447 5.20859 18.9339 5.21825Z" fill="#E69F69"/>
<path d="M15.4518 8.76334C15.4581 8.7875 15.473 8.80824 15.4936 8.82151C15.5141 8.83468 15.5388 8.83932 15.5625 8.83439C15.6239 8.82065 15.6867 8.81402 15.7496 8.81469C15.9122 8.81497 16.0719 8.85779 16.2142 8.93927C16.3563 9.02075 16.4763 9.13814 16.5627 9.28053C16.6286 9.37651 16.7133 9.45704 16.8113 9.51691C16.9093 9.57679 17.0184 9.61459 17.1315 9.62786C17.4144 9.60076 17.6752 9.45884 17.8569 9.23316C17.964 9.07977 18.1129 8.96296 18.2845 8.89758C18.3029 8.89029 18.3186 8.87722 18.3296 8.86026C18.3405 8.8433 18.3461 8.82321 18.3456 8.80284V5.29341C18.346 5.27844 18.3432 5.26357 18.3372 5.24983C18.3312 5.23619 18.3223 5.22406 18.3113 5.21449C18.2854 5.20454 18.2569 5.20454 18.231 5.21449L14.9516 5.83818C14.9003 5.84879 14.855 5.88005 14.8257 5.92506C14.8113 5.94751 14.8016 5.97271 14.7969 5.99915C14.7923 6.02567 14.7931 6.05286 14.7989 6.07901L15.4518 8.76334Z" fill="#E69F69"/>
<path d="M23.0024 10.539C22.9891 10.4355 22.9366 10.3416 22.8565 10.2779C22.7763 10.2143 22.6751 10.1861 22.5748 10.1995C21.9564 10.2864 21.5288 9.60741 21.525 9.60343C21.4911 9.5446 21.4432 9.4958 21.3856 9.46189C21.328 9.42797 21.2628 9.41016 21.1966 9.41016C21.1304 9.41016 21.0653 9.42797 21.0077 9.46189C20.9502 9.4958 20.9021 9.5446 20.8683 9.60343C20.7615 9.78761 20.612 9.94137 20.4335 10.051C20.2548 10.1605 20.0527 10.2225 19.8452 10.2311C19.6611 10.2261 19.4815 10.1708 19.3246 10.0711C19.1678 9.97122 19.0392 9.83034 18.9519 9.66264C18.9238 9.60011 18.8802 9.5463 18.8257 9.50651C18.7711 9.46681 18.7075 9.44256 18.6411 9.43612C18.5747 9.42977 18.5077 9.44152 18.4471 9.47013C18.3864 9.49883 18.334 9.54346 18.2952 9.59955C18.1581 9.7823 17.9852 9.93304 17.7879 10.0418C17.5905 10.1507 17.3731 10.2152 17.15 10.2311C16.9448 10.2147 16.7461 10.1495 16.5693 10.0407C16.3924 9.93181 16.2423 9.78221 16.1307 9.60343C16.0982 9.55 16.0538 9.50537 16.0012 9.47335C15.9486 9.44133 15.8894 9.42276 15.8284 9.41925C15.7675 9.41575 15.7066 9.42749 15.6509 9.45336C15.5952 9.47922 15.5464 9.51854 15.5084 9.5679C15.5084 9.5679 14.9052 10.3022 14.2714 10.2311C14.1729 10.2162 14.0727 10.2418 13.9921 10.3022C13.9115 10.3627 13.857 10.4534 13.8401 10.5548C13.8271 10.6585 13.8543 10.7632 13.9159 10.8461C13.9774 10.929 14.0682 10.9832 14.1683 10.997C14.2369 11.0029 14.3059 11.0029 14.3745 10.997C14.8664 10.973 15.3354 10.7751 15.7031 10.4364C15.7208 10.4213 15.7431 10.4131 15.766 10.4131C15.789 10.4131 15.8113 10.4213 15.829 10.4364C16.1789 10.797 16.6486 11.0059 17.1423 11.0207C17.6401 11.0116 18.1198 10.8263 18.5014 10.4956C18.5188 10.4798 18.5412 10.4711 18.5644 10.4711C18.5875 10.4711 18.61 10.4798 18.6273 10.4956C18.7866 10.6622 18.9763 10.7943 19.1853 10.8844C19.3944 10.9746 19.6187 11.0209 19.8452 11.0207C20.3223 11.019 20.782 10.8348 21.1356 10.5035C21.1533 10.4884 21.1756 10.4802 21.1986 10.4802C21.2216 10.4802 21.2438 10.4884 21.2616 10.5035C21.4459 10.6895 21.668 10.8305 21.9116 10.9166C22.1553 11.0026 22.4144 11.0314 22.6703 11.0009C22.722 10.9947 22.7721 10.9777 22.8173 10.9508C22.8624 10.9238 22.9019 10.8876 22.933 10.8443C22.9641 10.801 22.9864 10.7516 22.9983 10.6991C23.0102 10.6466 23.0116 10.5922 23.0024 10.539Z" fill="#514AF3"/>
<path d="M22.3579 21.6951V16.9468C22.3579 16.4053 22.1488 15.886 21.7765 15.5032C21.4042 15.1203 20.8993 14.9053 20.3728 14.9053H17.2918C16.7668 14.9076 16.2642 15.1238 15.8938 15.5064C15.5235 15.889 15.3156 16.4068 15.3156 16.9468V21.6951C15.3154 21.9292 15.3942 22.1561 15.5388 22.3369C15.6833 22.5177 15.8845 22.6413 16.1078 22.6864C17.0046 22.8943 17.918 23.017 18.8367 23.0531C19.7566 23.0147 20.6713 22.8919 21.57 22.6864C21.7925 22.6404 21.9927 22.5164 22.1364 22.3357C22.28 22.1549 22.3583 21.9286 22.3579 21.6951ZM19.2769 15.9237C19.2769 15.8937 19.2885 15.8649 19.3091 15.8437C19.3297 15.8225 19.3577 15.8106 19.3869 15.8106H20.3728C20.6655 15.8118 20.9458 15.9319 21.1527 16.1447C21.3596 16.3575 21.4764 16.6458 21.4776 16.9468V18.6805C21.4781 18.6976 21.4748 18.7148 21.468 18.7304C21.4611 18.7461 21.4508 18.7599 21.438 18.7709C21.4227 18.7777 21.4062 18.7812 21.3895 18.7812C21.3729 18.7812 21.3564 18.7777 21.3411 18.7709C20.6965 18.6301 20.0412 18.5483 19.3825 18.5265C19.3555 18.5255 19.3299 18.5144 19.3104 18.4951C19.2909 18.4759 19.279 18.45 19.2769 18.4224V15.9237ZM16.1958 16.9468C16.1969 16.6458 16.3138 16.3575 16.5207 16.1447C16.7276 15.9319 17.008 15.8118 17.3006 15.8106H18.2866C18.3157 15.8106 18.3437 15.8225 18.3643 15.8437C18.385 15.8649 18.3965 15.8937 18.3965 15.9237V18.4224C18.3966 18.4517 18.3856 18.4798 18.3659 18.5008C18.3462 18.522 18.3193 18.5344 18.291 18.5356C17.632 18.5603 16.9766 18.6451 16.3323 18.789C16.317 18.7958 16.3005 18.7993 16.2839 18.7993C16.2672 18.7993 16.2508 18.7958 16.2355 18.789C16.2199 18.7763 16.208 18.7595 16.2011 18.7403C16.1941 18.7212 16.1923 18.7005 16.1958 18.6805V16.9468ZM16.9661 20.7898H16.3059C16.2475 20.7898 16.1915 20.7659 16.1502 20.7235C16.109 20.681 16.0858 20.6235 16.0858 20.5634V20.1108C16.0858 20.0508 16.109 19.9932 16.1502 19.9508C16.1915 19.9083 16.2475 19.8845 16.3059 19.8845H16.9661C17.0828 19.8845 17.1948 19.9322 17.2773 20.0171C17.3599 20.102 17.4062 20.2171 17.4062 20.3371C17.4062 20.4572 17.3599 20.5724 17.2773 20.6572C17.1948 20.7421 17.0828 20.7898 16.9661 20.7898ZM19.827 22.0799C19.8283 22.1079 19.8188 22.1354 19.8008 22.1565C19.7828 22.1777 19.7575 22.1907 19.7302 22.193C19.4383 22.2329 19.1444 22.2555 18.8499 22.2609C18.5555 22.2555 18.2615 22.2329 17.9696 22.193C17.9424 22.1907 17.917 22.1777 17.899 22.1565C17.8809 22.1354 17.8715 22.1079 17.8727 22.0799V21.2425C17.8727 21.2124 17.8844 21.1836 17.905 21.1624C17.9257 21.1412 17.9536 21.1292 17.9828 21.1292H19.7434C19.7726 21.1292 19.8006 21.1412 19.8212 21.1624C19.8419 21.1836 19.8534 21.2124 19.8534 21.2425L19.827 22.0799ZM21.3675 20.7898H20.7074C20.5906 20.7898 20.4786 20.7421 20.3961 20.6572C20.3135 20.5724 20.2672 20.4572 20.2672 20.3371C20.2672 20.2171 20.3135 20.102 20.3961 20.0171C20.4786 19.9322 20.5906 19.8845 20.7074 19.8845H21.3675C21.426 19.8845 21.4819 19.9083 21.5232 19.9508C21.5644 19.9932 21.5876 20.0508 21.5876 20.1108V20.5634C21.5876 20.6235 21.5644 20.681 21.5232 20.7235C21.4819 20.7659 21.426 20.7898 21.3675 20.7898Z" fill="#E69F69"/>
<path d="M3.32413 6.90256C3.29625 6.92236 3.26323 6.93288 3.22939 6.93288C3.19564 6.93288 3.16262 6.92236 3.13474 6.90256L2.02618 6.22459C1.99215 6.20014 1.9518 6.18707 1.91044 6.18707C1.86907 6.18707 1.82863 6.20014 1.7946 6.22459L1.09298 6.85889C1.06684 6.88001 1.04557 6.90701 1.03098 6.93799C1.0164 6.96898 1.00879 7.00299 1.00879 7.03747C1.00879 7.07196 1.0164 7.10597 1.03098 7.13695C1.04557 7.16784 1.06684 7.19493 1.09298 7.21606L3.42942 8.95117C3.49664 9.00223 3.57763 9.03028 3.66091 9.03132C3.73556 9.0299 3.80838 9.00725 3.87139 8.96566L10.2981 4.81758C10.4867 4.69327 10.6354 4.51364 10.7258 4.30142C10.816 4.08929 10.8438 3.85405 10.8056 3.62544C10.7672 3.39692 10.6646 3.18527 10.5106 3.01729C10.3566 2.84931 10.1582 2.7325 9.94034 2.68162C9.79864 2.6496 9.65208 2.64789 9.50974 2.67679C9.3674 2.70559 9.23221 2.76433 9.11243 2.84922L7.28822 4.1396C7.26346 4.15362 7.23576 4.16101 7.20761 4.16101C7.17936 4.16101 7.15166 4.15362 7.1269 4.1396L3.08558 2.60867C3.04421 2.59095 2.99891 2.58498 2.95452 2.59133C2.91022 2.59777 2.86821 2.61634 2.833 2.64514L2.13138 3.20649C2.10047 3.23321 2.07562 3.26656 2.05856 3.30436C2.0415 3.34216 2.0326 3.38347 2.0326 3.42515C2.0326 3.46694 2.0415 3.50815 2.05856 3.54595C2.07562 3.58375 2.10047 3.6172 2.13138 3.64391L4.83265 5.42269C4.85742 5.43757 4.87814 5.4587 4.89291 5.48428C4.90768 5.50976 4.91584 5.53875 4.91685 5.5685C4.91923 5.59815 4.9141 5.628 4.90171 5.65491C4.88942 5.68181 4.87035 5.70483 4.84668 5.7216L3.32413 6.90256Z" fill="#514AF3"/>
</svg>
