<svg width="25" height="24" viewBox="0 0 25 24" fill="none" xmlns="http://www.w3.org/2000/svg">
<path d="M15.5895 18.8483H17.5083C17.5438 18.8488 17.5783 18.8606 17.6075 18.8823C17.6367 18.904 17.659 18.9345 17.6718 18.9698C17.712 19.0745 17.7805 19.1639 17.8684 19.2269C17.9564 19.2898 18.0599 19.3233 18.1657 19.3231H18.521C18.6624 19.3231 18.798 19.2631 18.8979 19.1562C18.9979 19.0493 19.0541 18.9045 19.0541 18.7533V16.2881C19.0541 16.137 18.9979 15.992 18.8979 15.8852C18.798 15.7783 18.6624 15.7183 18.521 15.7183H18.1657C18.0596 15.719 17.956 15.7532 17.8681 15.8167C17.7802 15.8803 17.7118 15.9703 17.6718 16.0754C17.6583 16.1097 17.6356 16.1388 17.6064 16.1591C17.5772 16.1794 17.5431 16.1899 17.5083 16.1894H17.3662C17.319 16.1894 17.2739 16.1693 17.2406 16.1337C17.2072 16.0981 17.1885 16.0498 17.1885 15.9994V15.6195C17.1885 15.5692 17.2072 15.5208 17.2406 15.4852C17.2739 15.4496 17.319 15.4296 17.3662 15.4296H17.5439C17.6381 15.4296 17.7285 15.3896 17.7951 15.3184C17.8617 15.2472 17.8992 15.1505 17.8992 15.0498C17.8992 14.949 17.8617 14.8524 17.7951 14.7812C17.7285 14.7099 17.6381 14.6699 17.5439 14.6699H16.1225C16.0283 14.6699 15.9379 14.7099 15.8713 14.7812C15.8046 14.8524 15.7672 14.949 15.7672 15.0498C15.7672 15.1505 15.8046 15.2472 15.8713 15.3184C15.9379 15.3896 16.0283 15.4296 16.1225 15.4296H16.3001C16.3473 15.4296 16.3925 15.4496 16.4258 15.4852C16.4591 15.5208 16.4778 15.5692 16.4778 15.6195V15.9994C16.4778 16.0498 16.4591 16.0981 16.4258 16.1337C16.3925 16.1693 16.3473 16.1894 16.3001 16.1894H15.5895C15.5424 16.1894 15.4972 16.2094 15.4639 16.245C15.4305 16.2805 15.4119 16.3289 15.4119 16.3792V18.6584C15.4119 18.7087 15.4305 18.7571 15.4639 18.7927C15.4972 18.8283 15.5424 18.8483 15.5895 18.8483Z" fill="#E69F69"/>
<path d="M21.8072 15.8095C21.856 15.8562 21.9192 15.882 21.9848 15.882C22.0504 15.882 22.1136 15.8562 22.1625 15.8095L22.5178 15.4297C22.5563 15.41 22.5898 15.3808 22.6155 15.3445C22.6413 15.3081 22.6585 15.2657 22.6656 15.2208C22.6728 15.1758 22.6698 15.1297 22.657 15.0863C22.644 15.0429 22.6216 15.0034 22.5914 14.9711C22.5612 14.9389 22.5243 14.9148 22.4837 14.9011C22.443 14.8872 22.3999 14.8841 22.3579 14.8918C22.3159 14.8995 22.2762 14.9178 22.2422 14.9453C22.2082 14.9729 22.1809 15.0087 22.1625 15.0498C22.1405 15.0771 22.1132 15.0991 22.0826 15.1141C22.0519 15.1291 22.0185 15.1368 21.9848 15.1368C21.9511 15.1368 21.9177 15.1291 21.8871 15.1141C21.8564 15.0991 21.8291 15.0771 21.8072 15.0498C21.7574 15.0245 21.7015 15.0161 21.6472 15.0261C21.5929 15.036 21.5428 15.0638 21.5039 15.1054C21.4649 15.1471 21.439 15.2007 21.4296 15.2587C21.4203 15.3168 21.428 15.3765 21.4518 15.4297L21.8072 15.8095Z" fill="#514AF3"/>
<path d="M22.5188 17.1539L22.8741 17.5338C22.9241 17.5871 22.9918 17.6171 23.0625 17.6171C23.1331 17.6171 23.2008 17.5871 23.2508 17.5338L23.6061 17.1539C23.6532 17.0999 23.6788 17.0285 23.6776 16.9547C23.6764 16.8809 23.6484 16.8105 23.5996 16.7583C23.5508 16.7061 23.4849 16.6762 23.4158 16.6748C23.3468 16.6736 23.28 16.7009 23.2295 16.7513C23.2077 16.775 23.1817 16.7937 23.153 16.8066C23.1243 16.8194 23.0935 16.826 23.0625 16.826C23.0314 16.826 23.0006 16.8194 22.972 16.8066C22.9432 16.7937 22.9172 16.775 22.8955 16.7513C22.8449 16.7009 22.7781 16.6736 22.7091 16.6748C22.6401 16.6762 22.5742 16.7061 22.5253 16.7583C22.4765 16.8105 22.4486 16.8809 22.4473 16.9547C22.4461 17.0285 22.4717 17.0999 22.5188 17.1539Z" fill="#514AF3"/>
<path d="M19.7509 18.2906C20.1933 18.3343 20.6042 18.5535 20.9029 18.905C21.2015 19.2566 21.3661 19.715 21.3642 20.1898V20.4367C21.3643 20.4653 21.3727 20.4932 21.388 20.5166C21.4033 20.54 21.4251 20.558 21.4501 20.5678C21.4753 20.5777 21.5026 20.5792 21.5285 20.5721C21.5544 20.565 21.5777 20.5496 21.5952 20.5279C21.6829 20.4285 21.7886 20.3494 21.9059 20.2953C22.0232 20.2412 22.1497 20.2134 22.2774 20.2134C22.4051 20.2134 22.5316 20.2412 22.6489 20.2953C22.7663 20.3494 22.872 20.4285 22.9596 20.5279C22.9853 20.5591 23.0195 20.5808 23.0575 20.5896C23.0954 20.5986 23.135 20.5941 23.1705 20.5771C23.2059 20.5601 23.2353 20.5314 23.2542 20.4951C23.2732 20.4589 23.2809 20.4171 23.2759 20.3759C23.1555 19.4585 22.7399 18.6145 22.1005 17.9892C21.461 17.3639 20.6378 16.9963 19.7723 16.9497C19.7489 16.9479 19.7254 16.9513 19.7034 16.9598C19.6814 16.9683 19.6612 16.9817 19.6444 16.999C19.6266 17.0172 19.6124 17.0391 19.6027 17.0632C19.5929 17.0873 19.5878 17.1133 19.5875 17.1396V18.0892C19.5856 18.1139 19.5883 18.1389 19.5955 18.1625C19.6028 18.1861 19.6143 18.208 19.6295 18.2267C19.6448 18.2455 19.6633 18.2608 19.6842 18.2717C19.705 18.2827 19.7278 18.2891 19.7509 18.2906Z" fill="#514AF3"/>
<path d="M9.30461 20.3209C8.09904 20.315 7.00737 20.2834 6.05835 20.2275L5.85176 20.215L5.83771 19.995C5.81585 19.6615 5.79016 19.0272 5.79016 17.9327C5.79016 17.1783 5.80258 16.554 5.826 16.0772C5.85098 15.577 6.13791 15.1919 6.55976 15.1052C6.93336 15.0361 7.3121 15.004 7.69124 15.0094C8.0714 15.004 8.45116 15.036 8.82577 15.1052C9.24613 15.1886 9.53463 15.5737 9.55961 16.0772C9.58296 16.5531 9.59467 17.1775 9.59467 17.9327C9.59467 19.1114 9.56578 19.7566 9.54165 20.09L9.52448 20.3217L9.30461 20.3209Z" fill="#E69F69"/>
<path d="M7.69153 15.2592C8.05732 15.2532 8.42279 15.2839 8.78319 15.3509C9.11697 15.4193 9.30958 15.7268 9.32902 16.0903C9.34854 16.4537 9.36416 17.0397 9.36416 17.9325C9.36416 19.1186 9.33449 19.7555 9.31115 20.0706C7.90749 20.0639 6.84081 20.0231 6.07659 19.978C6.05473 19.6371 6.02983 19.0119 6.02983 17.9325C6.02983 17.0397 6.047 16.4579 6.06566 16.0903C6.0844 15.7227 6.27546 15.4193 6.6115 15.3509C6.97041 15.2841 7.33433 15.2534 7.69855 15.2592M7.69855 14.7591C7.30474 14.7536 6.91139 14.7874 6.52343 14.8599C5.99313 14.9683 5.63054 15.4434 5.59939 16.0636C5.57597 16.5437 5.56348 17.1722 5.56348 17.9325C5.56348 19.0353 5.59002 19.6721 5.61188 20.0122L5.63991 20.4523L6.05239 20.4774C7.00531 20.5332 8.10166 20.5607 9.31115 20.5707H9.74548L9.77976 20.1081C9.80396 19.7697 9.83355 19.117 9.83355 17.9308C9.83355 17.1714 9.82184 16.5421 9.7985 16.0619C9.76727 15.4393 9.40858 14.9666 8.87446 14.8583C8.48627 14.7857 8.09261 14.752 7.69855 14.7574V14.7591Z" fill="white"/>
<path fill-rule="evenodd" clip-rule="evenodd" d="M17.1321 10.5739C16.6197 9.90709 15.7129 8.83262 14.1861 7.27301C12.3535 5.40248 11.0981 4.55724 10.4197 4.1888C10.1947 4.06477 9.94527 4 9.69215 4C9.43903 4 9.18957 4.06477 8.96463 4.1888C8.28545 4.55891 7.03084 5.40331 5.19831 7.27301C3.66996 8.83262 2.76309 9.91042 2.25156 10.5748C2.12696 10.7252 2.0445 10.9101 2.01361 11.1083C1.98272 11.3066 2.00466 11.51 2.0769 11.6956C2.14915 11.8811 2.26879 12.0411 2.42214 12.1573C2.57548 12.2735 2.75633 12.3413 2.944 12.3528C3.18963 12.3778 3.48984 12.4045 3.85789 12.4303V14.9035C3.85789 16.4973 3.92496 17.6326 3.99124 18.3662C4.02794 18.7803 4.20205 19.1668 4.48211 19.4557C4.76209 19.7446 5.12952 19.917 5.51803 19.9416L5.60149 19.9474C5.58041 19.594 5.55707 18.9688 5.55707 17.9327C5.55707 17.1725 5.56948 16.544 5.5929 16.0638C5.62406 15.4412 5.98672 14.9685 6.51694 14.8602C6.9049 14.7876 7.29825 14.7539 7.69207 14.7593C8.08612 14.7539 8.47978 14.7876 8.86797 14.8602C9.39819 14.9685 9.76078 15.4437 9.79201 16.0638C9.81535 16.544 9.82707 17.1733 9.82707 17.9327C9.82707 19.0764 9.79982 19.7232 9.77561 20.0716C11.725 20.0716 13.0593 20.0016 13.8679 19.9416C14.2564 19.9172 14.624 19.7449 14.904 19.4559C15.184 19.167 15.3581 18.7804 15.3947 18.3662C15.4618 17.6326 15.528 16.4973 15.528 14.9035V12.4303C15.8945 12.4045 16.1947 12.3778 16.4396 12.3528C16.6274 12.3414 16.8084 12.2737 16.9619 12.1575C17.1154 12.0412 17.2351 11.8811 17.3074 11.6953C17.3797 11.5097 17.4016 11.3061 17.3706 11.1077C17.3395 10.9094 17.2569 10.7244 17.1321 10.5739Z" fill="#514AF3"/>
<path fill-rule="evenodd" clip-rule="evenodd" d="M13.193 13.1201C13.1968 12.8626 13.1783 12.6053 13.1376 12.3515C13.1136 12.2247 13.0498 12.1104 12.9568 12.0277C12.8638 11.9449 12.7471 11.8986 12.6261 11.8964C12.439 11.8839 12.1442 11.873 11.6904 11.873C11.2365 11.873 10.9433 11.8839 10.7546 11.8964C10.6336 11.8986 10.5169 11.9449 10.4239 12.0277C10.3308 12.1104 10.267 12.2247 10.2431 12.3515C10.1703 12.8612 10.1703 13.3797 10.2431 13.8895C10.267 14.0163 10.3308 14.1305 10.4239 14.2133C10.5169 14.2961 10.6336 14.3424 10.7546 14.3446C10.9418 14.3571 11.2365 14.3679 11.6904 14.3679C12.1442 14.3679 12.4366 14.3571 12.6261 14.3446C12.7471 14.3424 12.8638 14.2961 12.9568 14.2133C13.0498 14.1305 13.1136 14.0163 13.1376 13.8895C13.1783 13.6354 13.1968 13.3778 13.193 13.1201Z" fill="#E69F69"/>
</svg>
