<svg width="25" height="25" viewBox="0 0 25 25" fill="none" xmlns="http://www.w3.org/2000/svg">
<path d="M15.707 3.04204C15.7075 2.76447 15.6405 2.4911 15.5119 2.24651C15.3833 2.00174 15.1972 1.79331 14.9702 1.63972C14.7455 1.48412 14.4864 1.38823 14.2162 1.36081C13.9459 1.33322 13.6731 1.37494 13.4227 1.4821L6.79131 4.24181C6.48612 4.36748 6.22486 4.58314 6.04095 4.86105C5.8572 5.13912 5.75915 5.46665 5.75965 5.80159V13.1658C5.75965 13.2156 5.74027 13.2632 5.70569 13.2983C5.67112 13.3335 5.62435 13.3533 5.57557 13.3533H4.6545C3.87274 13.3533 3.12305 13.6693 2.57031 14.2318C2.01756 14.7943 1.70703 15.5574 1.70703 16.3529C1.70703 17.1485 2.01756 17.9114 2.57031 18.4739C3.12305 19.0364 3.87274 19.3525 4.6545 19.3525C5.42974 19.3317 6.16757 19.009 6.7158 18.4509C7.2642 17.8929 7.58125 17.1419 7.60179 16.3529V9.42379C7.60129 9.38611 7.61232 9.34909 7.63337 9.31814C7.65458 9.28719 7.68482 9.26381 7.71973 9.25119L13.6143 6.79158C13.6404 6.77712 13.6694 6.76955 13.6992 6.76955C13.7287 6.76955 13.7578 6.77712 13.7839 6.79158C13.8091 6.80723 13.8298 6.82927 13.844 6.85551C13.8582 6.88192 13.8654 6.91153 13.8649 6.94147V10.1512C13.8649 10.2008 13.8455 10.2486 13.8109 10.2837C13.7764 10.3189 13.7296 10.3386 13.6806 10.3386H12.7596C11.978 10.3386 11.2283 10.6547 10.6755 11.2172C10.1228 11.7798 9.81227 12.5427 9.81227 13.3382C9.81227 14.1339 10.1228 14.8968 10.6755 15.4593C11.2283 16.0219 11.978 16.338 12.7596 16.338C13.5348 16.3171 14.2726 15.9943 14.821 15.4363C15.3694 14.8781 15.6865 14.1272 15.707 13.3382V3.04204ZM7.85236 7.16656C7.8263 7.18086 7.79723 7.18842 7.7675 7.18842C7.73793 7.18842 7.70887 7.18086 7.68281 7.16656C7.65775 7.15091 7.63704 7.1287 7.62267 7.10246C7.60848 7.07622 7.60129 7.04661 7.60179 7.0165V6.18413C7.60497 6.11263 7.62819 6.04366 7.66861 5.98512C7.7092 5.92674 7.76516 5.88132 7.83014 5.85407L13.3564 3.55193C13.4129 3.52837 13.4742 3.51929 13.5348 3.52585C13.5954 3.53224 13.6536 3.55394 13.7039 3.58877C13.7543 3.62376 13.7954 3.67086 13.8235 3.72604C13.8515 3.78105 13.8659 3.84228 13.8649 3.90436V4.55673C13.8656 4.59458 13.8544 4.63142 13.8333 4.66237C13.8121 4.69333 13.7819 4.71671 13.747 4.72933L7.85236 7.16656Z" fill="#514AF3"/>
<path d="M23.6438 14.8958C23.2767 13.8488 22.6711 12.9003 21.8741 12.1248C21.0769 11.3491 20.1103 10.7671 19.0493 10.4244C18.8585 10.3575 18.6544 10.3368 18.454 10.3645C18.2535 10.392 18.0626 10.4669 17.8974 10.5831C17.7322 10.6991 17.5972 10.8528 17.5043 11.0314C17.4111 11.21 17.3624 11.4083 17.3624 11.6094V18.5793C17.0119 18.4096 16.6273 18.3215 16.2376 18.3222C15.7372 18.3222 15.2478 18.4697 14.8317 18.7461C14.4156 19.0223 14.0912 19.4152 13.8998 19.8749C13.7081 20.3345 13.658 20.8401 13.7556 21.328C13.8533 21.816 14.0943 22.2641 14.4482 22.6158C14.8021 22.9677 15.253 23.2071 15.7439 23.3041C16.2348 23.4013 16.7436 23.3515 17.206 23.1611C17.6684 22.9707 18.0636 22.6483 18.3417 22.2347C18.6197 21.8211 18.7681 21.3348 18.7681 20.8374C18.7737 20.7479 18.7737 20.6584 18.7681 20.569V11.8217C19.5972 12.1002 20.3507 12.5646 20.97 13.1792C21.5891 13.7938 22.0576 14.5418 22.3391 15.3654C22.37 15.4519 22.4179 15.5317 22.4799 15.5999C22.542 15.6682 22.6168 15.7236 22.7004 15.7631C22.7839 15.8024 22.8744 15.8252 22.9669 15.8298C23.0593 15.8344 23.1516 15.8211 23.2389 15.7901C23.326 15.7593 23.4062 15.7118 23.4748 15.6502C23.5434 15.5884 23.5992 15.514 23.6389 15.4311C23.6785 15.3479 23.7013 15.258 23.7061 15.1661C23.7108 15.0743 23.6972 14.9826 23.6662 14.8958H23.6438Z" fill="#E69F69"/>
</svg>
