<svg width="25" height="24" viewBox="0 0 25 24" fill="none" xmlns="http://www.w3.org/2000/svg">
<path d="M12.8898 5.38867H12.8844C11.068 5.38867 10.0441 5.38867 8.79128 5.4591C8.06433 5.49996 7.4695 6.07691 7.34036 6.8635C7.23353 7.51458 7.11958 8.37447 7.07141 9.29616C7.04112 9.87568 7.39007 10.4045 7.935 10.4752C8.05164 10.4904 8.18049 10.504 8.32107 10.5144L8.53021 13.1824C8.57397 13.7408 8.93792 14.2286 9.47006 14.2832C9.67968 14.3048 9.92546 14.3202 10.1989 14.3202C10.4809 14.3202 10.7333 14.3038 10.947 14.2813C11.0792 14.2673 11.2022 14.2259 11.3129 14.1626C11.4434 14.0879 11.5679 13.9955 11.6869 13.9025C11.7276 13.8706 11.7672 13.8391 11.8061 13.8081C11.8839 13.7461 11.9597 13.6858 12.0378 13.6282C12.2712 13.456 12.4887 13.3374 12.722 13.3374H13.0522C13.2855 13.3374 13.503 13.456 13.7365 13.6282C13.8146 13.6858 13.8902 13.7461 13.968 13.8081C14.0071 13.8391 14.0467 13.8706 14.0874 13.9025C14.2063 13.9955 14.3308 14.0879 14.4612 14.1626C14.572 14.2259 14.6951 14.2673 14.8272 14.2813C15.041 14.3038 15.2934 14.3202 15.5753 14.3202C15.8488 14.3202 16.0946 14.3048 16.3042 14.2832C16.8363 14.2286 17.2003 13.7408 17.244 13.1824L17.4532 10.5144C17.5937 10.504 17.7226 10.4904 17.8392 10.4752C18.3841 10.4045 18.7331 9.87568 18.7028 9.29616C18.6547 8.37447 18.5407 7.51458 18.4339 6.8635C18.3047 6.07691 17.7099 5.49996 16.983 5.4591C15.7301 5.38867 14.7062 5.38867 12.8898 5.38867Z" fill="#514AF3"/>
<path d="M11.301 5.90149C11.301 6.86537 12.0113 7.64673 12.8876 7.64673C13.7639 7.64673 14.4742 6.86537 14.4742 5.90149C14.4742 4.9376 13.7639 4.15625 12.8876 4.15625C12.0113 4.15625 11.301 4.9376 11.301 5.90149Z" fill="#E69F69"/>
<path d="M13.9693 8.08441C14.5064 8.11357 14.9305 8.54197 15.0202 9.12232C15.0936 9.59702 15.1772 10.2223 15.2403 10.9359C15.2811 11.3977 14.9726 11.7983 14.5493 11.8244C14.4296 11.8317 14.2954 11.8389 14.1471 11.8453L14.0577 13.4337C14.0364 13.8136 13.7935 14.1364 13.448 14.1804C13.282 14.2016 13.0906 14.2173 12.8881 14.2173C12.6855 14.2173 12.494 14.2016 12.328 14.1804C11.9826 14.1364 11.7397 13.8136 11.7183 13.4337L11.629 11.8453C11.4806 11.8389 11.3466 11.8317 11.2268 11.8244C10.8036 11.7983 10.495 11.3977 10.5359 10.9359C10.5989 10.2223 10.6825 9.59702 10.756 9.12232C10.8457 8.54197 11.2697 8.11357 11.8069 8.08441C12.0915 8.06901 12.4497 8.05762 12.888 8.05762C13.3264 8.05762 13.6845 8.06901 13.9693 8.08441Z" fill="#E69F69"/>
<path d="M17.1676 3.07867C17.1676 4.01422 16.4573 4.77258 15.581 4.77258C14.7047 4.77258 13.9944 4.01422 13.9944 3.07867C13.9944 2.14312 14.7047 1.38477 15.581 1.38477C16.4573 1.38477 17.1676 2.14312 17.1676 3.07867Z" fill="#514AF3"/>
<path d="M8.61035 3.07867C8.61035 4.01422 9.34221 4.77258 10.245 4.77258C11.1479 4.77258 11.8797 4.01422 11.8797 3.07867C11.8797 2.14312 11.1479 1.38477 10.245 1.38477C9.34221 1.38477 8.61035 2.14312 8.61035 3.07867Z" fill="#514AF3"/>
<path d="M21.8402 7.97686C21.6174 7.74074 21.3168 7.60893 21.0041 7.61036H20.2299C20.1283 7.6158 20.0287 7.6428 19.9367 7.68972C19.8447 7.73664 19.7622 7.80254 19.694 7.88385C19.6256 7.96506 19.5729 8.05992 19.5387 8.16309C19.5044 8.26626 19.4894 8.3757 19.4945 8.48514C19.4996 8.59457 19.5247 8.70185 19.5683 8.80082C19.6119 8.89979 19.6732 8.98859 19.7487 9.06209C19.8242 9.1356 19.9123 9.19237 20.0082 9.22912C20.1041 9.26598 20.2057 9.2821 20.3073 9.27665C20.3523 9.27255 20.3975 9.2786 20.4402 9.29441C20.4828 9.31022 20.522 9.33538 20.5551 9.36823C20.6177 9.43763 20.6537 9.52992 20.6557 9.62652V17.6081C20.654 17.7152 20.6147 17.8175 20.5458 17.8948C20.4769 17.972 20.3835 18.0184 20.2842 18.0247C18.193 18.0636 16.136 18.6015 14.2614 19.5994C14.2021 19.6344 14.1356 19.6527 14.0679 19.6527C14.0003 19.6527 13.9336 19.6344 13.8744 19.5994C13.8187 19.5671 13.7712 19.5205 13.7361 19.4639C13.701 19.4072 13.6794 19.3422 13.673 19.2745V15.5253C13.673 15.3043 13.5915 15.0924 13.4463 14.9362C13.3012 14.7799 13.1043 14.6921 12.899 14.6921C12.6937 14.6921 12.4967 14.7799 12.3515 14.9362C12.2063 15.0924 12.1248 15.3043 12.1248 15.5253V19.2745C12.1252 19.3464 12.1083 19.4171 12.0758 19.4799C12.0432 19.5427 11.9961 19.5953 11.939 19.6327C11.8797 19.6677 11.8132 19.6861 11.7455 19.6861C11.6779 19.6861 11.6113 19.6677 11.552 19.6327C9.67731 18.6348 7.6203 18.097 5.52926 18.0581C5.47733 18.0549 5.42656 18.0407 5.37983 18.0163C5.333 17.992 5.29117 17.958 5.25665 17.9161C5.22213 17.8743 5.19559 17.8257 5.17857 17.7728C5.16165 17.7199 5.15453 17.664 5.15761 17.6081V9.72651C5.15742 9.66995 5.16828 9.614 5.18963 9.56226C5.21098 9.51052 5.24232 9.46432 5.28146 9.42664C5.3155 9.37983 5.35906 9.34205 5.40868 9.31608C5.45829 9.2901 5.51272 9.27665 5.56791 9.27665C5.67705 9.27665 5.776 9.30827 5.86908 9.32244C6.07236 9.35334 6.26592 9.39194 6.42997 9.2591C6.59401 9.12636 6.70229 8.92884 6.73113 8.71007C6.75065 8.49284 6.69036 8.27602 6.56295 8.10622C6.43554 7.93631 6.25131 7.82708 6.04986 7.80193C5.41752 7.68962 5.43454 7.62556 4.79375 7.61036C4.48624 7.61242 4.19171 7.74403 3.97324 7.97686C3.85919 8.09082 3.76804 8.22869 3.70544 8.38207C3.64284 8.53544 3.61014 8.70093 3.60938 8.86837V18.4413C3.60938 18.7699 3.72957 19.0853 3.944 19.3192C4.15844 19.553 4.44979 19.6867 4.75509 19.691C8.37802 19.7577 10.4218 20.7658 11.4358 21.499C11.7631 21.7333 12.0598 22.0135 12.3184 22.3322C12.391 22.4208 12.4803 22.4918 12.5804 22.5405C12.6805 22.589 12.7892 22.6142 12.899 22.6142C13.0088 22.6142 13.1173 22.589 13.2174 22.5405C13.3175 22.4918 13.4069 22.4208 13.4796 22.3322C13.738 22.0135 14.0348 21.7333 14.362 21.499C15.3762 20.7658 17.4199 19.7577 21.0429 19.691C21.3481 19.6867 21.6395 19.553 21.8539 19.3192C22.0684 19.0853 22.1886 18.7699 22.1885 18.4413V8.86837C22.1889 8.70227 22.1582 8.5378 22.0983 8.38463C22.0385 8.23146 21.9507 8.09287 21.8402 7.97686Z" fill="#E69F69"/>
</svg>
