<svg width="25" height="25" viewBox="0 0 25 25" fill="none" xmlns="http://www.w3.org/2000/svg">
<path d="M16.3378 3.42459C16.0068 3.97542 15.7095 4.53458 15.4782 5.00884C15.2381 5.50099 15.2051 6.09773 15.4511 6.62072C15.501 6.72662 15.5601 6.82479 15.6271 6.91442C15.5522 7.07428 15.4814 7.23012 15.4154 7.37973C15.2034 7.86073 15.1832 8.43486 15.4241 8.93846C15.4621 9.01794 15.5054 9.093 15.5534 9.16333H6.45179C6.39033 9.16333 6.32897 9.16594 6.2677 9.17107C6.93336 7.89007 7.83902 6.37686 8.71776 5.2939C9.23773 4.65315 10.1297 4.65315 10.6496 5.2939C10.7701 5.44231 10.891 5.59885 11.0118 5.76173C11.8322 4.52916 12.7314 3.33587 13.5931 2.44653C14.1221 1.90063 14.9412 1.90063 15.4702 2.44653C15.7567 2.74214 16.0473 3.07141 16.3378 3.42459Z" fill="#514AF3"/>
<path fill-rule="evenodd" clip-rule="evenodd" d="M18.2404 2.29233C18.4327 2.08615 18.7404 2.08615 18.9326 2.29233C19.6392 3.04984 20.4192 4.39726 20.9185 5.41732C21.0364 5.65827 21.0418 5.92293 20.9394 6.13976C20.8383 6.35388 20.641 6.50219 20.3899 6.53253C20.6048 6.94901 20.801 7.36128 20.9648 7.73174C21.0688 7.96696 21.0692 8.22178 20.969 8.43047C20.8679 8.64138 20.6726 8.78687 20.4239 8.81561C20.1209 8.85067 19.6999 8.88152 19.122 8.89358V10.0456H19.3424C20.2054 10.0456 21.0048 10.8157 20.868 11.8431C20.3126 16.0132 16.9648 19.2191 12.9167 19.2191C8.8687 19.2191 5.5208 16.0132 4.96543 11.8431C4.82859 10.8157 5.62799 10.0456 6.49101 10.0456H18.0511V8.89358C17.4731 8.88152 17.0522 8.85067 16.7491 8.81561C16.5005 8.78687 16.3053 8.64138 16.2041 8.43047C16.104 8.22178 16.1042 7.96696 16.2082 7.73174C16.3721 7.36128 16.5683 6.94901 16.7832 6.53253C16.5321 6.50219 16.3347 6.35388 16.2336 6.13976C16.1313 5.92293 16.1366 5.65827 16.2545 5.41732C16.7538 4.39726 17.5338 3.04984 18.2404 2.29233ZM19.6311 11.6542C19.276 14.3206 17.5674 16.5202 15.2744 17.4304C14.9775 16.4073 15.51 15.7317 15.9685 15.1501C16.3189 14.7056 16.6261 14.3159 16.4866 13.8679C16.2972 13.4171 15.7616 13.2651 15.1689 13.0968C14.328 12.8582 13.3722 12.5868 13.1273 11.3834H19.3425C19.4443 11.3834 19.5274 11.4279 19.5774 11.4839C19.623 11.535 19.6396 11.5905 19.6311 11.6542ZM6.49111 11.3834H10.1818C10.2758 11.8155 10.2507 12.264 10.0609 12.7212C9.74988 13.4706 9.16779 13.7483 8.58033 14.0286C8.15202 14.2331 7.72079 14.4389 7.3898 14.8298C6.77608 13.908 6.3585 12.8262 6.20246 11.6542C6.1939 11.5905 6.21046 11.535 6.25611 11.4839C6.30608 11.4279 6.38918 11.3834 6.49111 11.3834Z" fill="#E69F69"/>
<path fill-rule="evenodd" clip-rule="evenodd" d="M5.79054 14.2823C6.0694 14.0322 6.46581 14.0322 6.74467 14.2823C7.60035 15.05 9.56158 17.1111 9.56158 19.911C9.56158 20.7925 9.24338 21.5769 8.66806 22.14C8.09312 22.7028 7.26916 23.0373 6.2676 23.0373C5.26605 23.0373 4.44209 22.7028 3.86715 22.14C3.29183 21.5769 2.97363 20.7925 2.97363 19.911C2.97363 17.1111 4.93486 15.05 5.79054 14.2823ZM8.34158 19.7807C8.34158 19.5649 8.17773 19.3899 7.97558 19.3899C7.77342 19.3899 7.60957 19.5649 7.60957 19.7807C7.60957 20.4282 7.11801 20.9531 6.51164 20.9531C6.30949 20.9531 6.14563 21.128 6.14563 21.3438C6.14563 21.5597 6.30949 21.7347 6.51164 21.7347C7.52223 21.7347 8.34158 20.8598 8.34158 19.7807Z" fill="#514AF3"/>
</svg>
