<svg width="25" height="25" viewBox="0 0 25 25" fill="none" xmlns="http://www.w3.org/2000/svg">
<path d="M12.1328 4.3758L7.33932 9.49349C7.32067 9.51507 7.29826 9.53222 7.27312 9.54411C7.24812 9.55601 7.22105 9.56237 7.19358 9.56278H4.61068C4.1811 9.56278 3.76927 9.74494 3.46548 10.0691C3.16182 10.3933 2.99121 10.8331 2.99121 11.2916V14.2395C2.99121 14.698 3.16182 15.1379 3.46548 15.4621C3.76927 15.7864 4.1811 15.9685 4.61068 15.9685H7.19358C7.24721 15.9703 7.29865 15.9916 7.33932 16.029L12.1328 21.1554C12.2457 21.2767 12.3896 21.3597 12.5466 21.3937C12.7035 21.4279 12.8663 21.4114 13.0145 21.3467C13.1627 21.2818 13.2897 21.1716 13.3792 21.0298C13.4687 20.888 13.5168 20.7212 13.5175 20.5502V4.98961C13.5185 4.81797 13.4714 4.64979 13.3826 4.50678C13.2937 4.36363 13.1669 4.25201 13.0183 4.18618C12.8698 4.12034 12.7062 4.10319 12.5485 4.13708C12.3909 4.17083 12.2462 4.25395 12.1328 4.3758Z" fill="#E69F69"/>
<path d="M22.3422 12.3115C22.2493 12.1055 22.084 11.9472 21.8822 11.8711C21.6804 11.7949 21.4586 11.8072 21.2653 11.9053L19.1843 13.0117L19.4029 11.0407C19.4156 10.8901 19.3911 10.7385 19.3318 10.6011C19.2725 10.4638 19.1804 10.3456 19.0648 10.258C18.9493 10.1705 18.8143 10.1169 18.6733 10.1025C18.5323 10.0882 18.3901 10.1136 18.2612 10.1763L14.8523 11.9053C14.7487 11.9477 14.6545 12.0124 14.5754 12.0954C14.4962 12.1784 14.4338 12.2779 14.3922 12.3877C14.3506 12.4975 14.3305 12.6153 14.3333 12.7337C14.336 12.8521 14.3615 12.9686 14.4083 13.076C14.4549 13.1835 14.5219 13.2796 14.6048 13.3583C14.6877 13.437 14.7849 13.4966 14.8903 13.5336C14.9958 13.5705 15.107 13.5839 15.2175 13.573C15.328 13.5621 15.4352 13.5269 15.5325 13.4699L17.5648 12.3979L17.2895 14.3777C17.2732 14.5009 17.282 14.6265 17.3153 14.7457C17.3486 14.8649 17.4057 14.9752 17.4825 15.0688C17.5595 15.1623 17.6543 15.2371 17.7608 15.2879C17.8673 15.3386 17.9827 15.3644 18.0993 15.3631C18.2226 15.3637 18.3445 15.3341 18.4556 15.2767L21.9535 13.4699C22.0507 13.4217 22.1381 13.3533 22.2103 13.2687C22.2826 13.1842 22.3385 13.0852 22.3746 12.9774C22.4108 12.8697 22.4266 12.7553 22.421 12.6411C22.4154 12.5267 22.3886 12.4146 22.3422 12.3115Z" fill="#514AF3"/>
<path d="M20.5696 21.4835L18.3753 20.472L19.5737 18.9333C19.658 18.8235 19.7156 18.6934 19.7416 18.5542C19.7676 18.4151 19.7611 18.2713 19.7226 18.1354C19.6843 17.9995 19.6151 17.8758 19.5213 17.7753C19.4275 17.6747 19.3121 17.6003 19.185 17.5588L15.3955 16.2275C15.1926 16.1531 14.9703 16.1679 14.7776 16.2683C14.5847 16.3688 14.4371 16.5468 14.3672 16.7634C14.333 16.8713 14.319 16.9853 14.326 17.099C14.3331 17.2125 14.3612 17.3236 14.4086 17.4256C14.4559 17.5276 14.5217 17.6186 14.6022 17.6934C14.6826 17.7682 14.7761 17.8252 14.8773 17.8613L17.5656 18.8209L16.4239 20.2906C16.3442 20.3939 16.2881 20.5157 16.26 20.6462C16.2319 20.7767 16.2325 20.9124 16.2619 21.0426C16.2911 21.1744 16.3487 21.2969 16.4302 21.4005C16.5118 21.5042 16.6151 21.5858 16.7315 21.6391L19.9705 23.1C20.0709 23.1436 20.1779 23.1671 20.2862 23.1692C20.4465 23.1708 20.6037 23.1215 20.7378 23.0277C20.8718 22.9338 20.9768 22.7995 21.0392 22.642C21.0834 22.5334 21.1063 22.4164 21.1063 22.298C21.1065 22.1797 21.0838 22.0626 21.0397 21.954C20.9957 21.8454 20.9313 21.7476 20.8503 21.6666C20.7695 21.5857 20.674 21.5234 20.5696 21.4835Z" fill="#514AF3"/>
<path d="M15.1382 9.398C15.229 9.38749 15.317 9.35803 15.3973 9.31156L19.1868 7.98034C19.3118 7.93567 19.4248 7.85904 19.5159 7.75725C19.6069 7.65532 19.6733 7.53139 19.7091 7.39585C19.7452 7.26044 19.7494 7.11757 19.722 6.97995C19.6944 6.8422 19.6358 6.71385 19.5511 6.60583L18.377 5.06701L20.6118 4.05556C20.8021 3.95805 20.9492 3.78517 21.0217 3.57369C21.0944 3.36222 21.0867 3.12875 21.0006 2.92309C20.959 2.8177 20.8984 2.72213 20.8221 2.64191C20.7456 2.56169 20.6552 2.49834 20.5557 2.45574C20.4564 2.41315 20.35 2.39199 20.2429 2.39365C20.1357 2.39517 20.03 2.41937 19.9317 2.46501L16.6929 3.92596C16.5763 3.97921 16.4731 4.06082 16.3916 4.16441C16.31 4.268 16.2523 4.39068 16.2233 4.52235C16.1938 4.65264 16.1931 4.78832 16.2212 4.91888C16.2493 5.04931 16.3054 5.17116 16.3852 5.27447L17.5673 6.71814L14.8791 7.7123C14.6957 7.77675 14.5398 7.90897 14.4396 8.08518C14.3394 8.26152 14.3016 8.47009 14.3328 8.67354C14.3642 8.877 14.4625 9.06191 14.6102 9.19469C14.7579 9.3276 14.9451 9.39966 15.1382 9.398Z" fill="#514AF3"/>
</svg>
