<svg width="25" height="25" viewBox="0 0 25 25" fill="none" xmlns="http://www.w3.org/2000/svg">
<path d="M11.418 3.88524L6.48418 9.15273C6.46498 9.17494 6.44191 9.1926 6.41604 9.20484C6.39031 9.21708 6.36244 9.22363 6.33417 9.22406H3.67566C3.23351 9.22406 2.80962 9.41154 2.49694 9.74523C2.1844 10.0789 2.00879 10.5316 2.00879 11.0035V14.0377C2.00879 14.5096 2.1844 14.9623 2.49694 15.296C2.80962 15.6298 3.23351 15.8173 3.67566 15.8173H6.33417C6.38938 15.8192 6.44231 15.8411 6.48418 15.8795L11.418 21.156C11.5341 21.2809 11.6823 21.3663 11.8439 21.4013C12.0053 21.4365 12.173 21.4195 12.3255 21.3529C12.478 21.2861 12.6087 21.1727 12.7008 21.0267C12.793 20.8808 12.8425 20.7091 12.8433 20.5331V4.51702C12.8442 4.34035 12.7958 4.16725 12.7043 4.02005C12.6128 3.87271 12.4823 3.75783 12.3294 3.69006C12.1766 3.6223 12.0081 3.60465 11.8459 3.63953C11.6836 3.67426 11.5347 3.75982 11.418 3.88524Z" fill="#E69F69"/>
<path d="M21.9263 12.053C21.8307 11.841 21.6605 11.678 21.4528 11.5997C21.2451 11.5213 21.0168 11.534 20.8178 11.6349L18.6759 12.7738L18.901 10.745C18.914 10.59 18.8888 10.434 18.8278 10.2926C18.7667 10.1513 18.6719 10.0295 18.5529 9.93943C18.434 9.84931 18.2951 9.79422 18.15 9.77942C18.0048 9.76461 17.8585 9.79081 17.7258 9.85529L14.2172 11.6349C14.1105 11.6786 14.0135 11.7452 13.9321 11.8306C13.8506 11.9161 13.7863 12.0184 13.7435 12.1314C13.7007 12.2445 13.6801 12.3658 13.6829 12.4876C13.6857 12.6095 13.7119 12.7293 13.7601 12.84C13.8081 12.9506 13.877 13.0495 13.9623 13.1305C14.0477 13.2115 14.1477 13.2729 14.2562 13.3109C14.3648 13.3489 14.4793 13.3627 14.593 13.3514C14.7068 13.3402 14.817 13.304 14.9172 13.2454L17.009 12.142L16.7257 14.1797C16.7089 14.3065 16.7179 14.4358 16.7522 14.5585C16.7865 14.6812 16.8453 14.7947 16.9243 14.891C17.0035 14.9873 17.1011 15.0643 17.2108 15.1165C17.3204 15.1688 17.4392 15.1953 17.5592 15.194C17.6861 15.1945 17.8116 15.1641 17.9258 15.105L21.5261 13.2454C21.6263 13.1957 21.7161 13.1254 21.7905 13.0383C21.865 12.9513 21.9224 12.8493 21.9596 12.7385C21.9968 12.6276 22.0131 12.5098 22.0074 12.3922C22.0016 12.2745 21.974 12.1592 21.9263 12.053Z" fill="#514AF3"/>
<path d="M20.1003 21.4942L17.8418 20.4531L19.0752 18.8694C19.162 18.7564 19.2214 18.6224 19.248 18.4792C19.2748 18.336 19.2682 18.1879 19.2286 18.0481C19.1891 17.9082 19.1179 17.7809 19.0214 17.6774C18.9248 17.5739 18.806 17.4974 18.6752 17.4546L14.7748 16.0843C14.566 16.0077 14.3372 16.023 14.1387 16.1263C13.9402 16.2298 13.7883 16.413 13.7163 16.636C13.6811 16.747 13.6667 16.8643 13.6739 16.9813C13.6813 17.0982 13.7102 17.2125 13.759 17.3176C13.8077 17.4225 13.8754 17.5161 13.9582 17.5932C14.041 17.6702 14.1373 17.7288 14.2414 17.766L17.0083 18.7537L15.8332 20.2663C15.7512 20.3727 15.6935 20.4981 15.6645 20.6323C15.6356 20.7667 15.6363 20.9064 15.6665 21.0403C15.6965 21.176 15.7559 21.3021 15.8398 21.4088C15.9238 21.5155 16.03 21.5995 16.1499 21.6543L19.4836 23.158C19.587 23.2029 19.6971 23.2271 19.8086 23.2292C19.9737 23.2309 20.1354 23.1801 20.2734 23.0836C20.4114 22.9869 20.5194 22.8487 20.5837 22.6866C20.6292 22.5748 20.6528 22.4544 20.6528 22.3325C20.6529 22.2108 20.6296 22.0902 20.5842 21.9785C20.5389 21.8667 20.4726 21.7661 20.3893 21.6827C20.3061 21.5994 20.2078 21.5353 20.1003 21.4942Z" fill="#514AF3"/>
<path d="M14.511 9.05519C14.6044 9.04437 14.695 9.01405 14.7776 8.96621L18.6781 7.59603C18.8068 7.55005 18.923 7.47118 19.0168 7.36641C19.1105 7.26149 19.1788 7.13394 19.2157 6.99443C19.2528 6.85506 19.2572 6.708 19.2289 6.56636C19.2005 6.42457 19.1402 6.29246 19.053 6.18128L17.8446 4.59742L20.1448 3.55636C20.3407 3.456 20.492 3.27805 20.5667 3.06039C20.6415 2.84272 20.6336 2.60242 20.545 2.39074C20.5022 2.28226 20.4398 2.18389 20.3612 2.10133C20.2826 2.01876 20.1895 1.95356 20.0871 1.90971C19.9848 1.86587 19.8753 1.84409 19.7651 1.8458C19.6548 1.84736 19.546 1.87227 19.4448 1.91925L16.1112 3.42297C15.9912 3.47778 15.8849 3.56177 15.801 3.66839C15.717 3.77502 15.6577 3.90129 15.6278 4.03681C15.5974 4.17091 15.5967 4.31057 15.6257 4.44495C15.6546 4.5792 15.7124 4.70461 15.7945 4.81095L17.0112 6.29688L14.2443 7.32014C14.0555 7.38648 13.8951 7.52257 13.7919 7.70393C13.6888 7.88544 13.6499 8.10011 13.682 8.30952C13.7143 8.51893 13.8155 8.70926 13.9675 8.84592C14.1195 8.98273 14.3122 9.0569 14.511 9.05519Z" fill="#514AF3"/>
</svg>
