<svg width="25" height="25" viewBox="0 0 25 25" fill="none" xmlns="http://www.w3.org/2000/svg">
<g clip-path="url(#clip0_7_742)">
<path d="M2.59546 3.82291C2.59546 4.95048 3.50193 5.86456 4.62015 5.86456C5.73837 5.86456 6.64484 4.95048 6.64484 3.82291C6.64484 2.69533 5.73837 1.78125 4.62015 1.78125C3.50193 1.78125 2.59546 2.69533 2.59546 3.82291Z" fill="#E69F69"/>
<path d="M5.95773 6.28385C6.62213 6.31748 7.14657 6.81108 7.25759 7.47977C7.34835 8.02664 7.45176 8.74715 7.52978 9.56936C7.58025 10.1014 7.19862 10.563 6.67507 10.593C6.52702 10.6015 6.36129 10.6097 6.17769 10.6171L6.06727 12.4472C6.0408 12.885 5.74045 13.2569 5.31319 13.3076C5.10796 13.332 4.87112 13.3501 4.62055 13.3501C4.37008 13.3501 4.13324 13.332 3.92801 13.3076C3.50075 13.2569 3.2003 12.885 3.17393 12.4472L3.06341 10.6171C2.88001 10.6097 2.71418 10.6015 2.56613 10.593C2.04267 10.563 1.66104 10.1014 1.71151 9.56936C1.78954 8.74715 1.89294 8.02664 1.98371 7.47967C2.09472 6.81098 2.61917 6.31748 3.28346 6.28385C3.63556 6.26605 4.07852 6.25293 4.62055 6.25293C5.16267 6.25293 5.60564 6.26605 5.95773 6.28385Z" fill="#E69F69"/>
<path fill-rule="evenodd" clip-rule="evenodd" d="M15.707 16.7309C15.707 14.5495 17.5034 12.7812 19.7194 12.7812C21.9354 12.7812 23.7317 14.5495 23.7317 16.7309C23.7317 18.1461 22.9898 19.3366 22.1832 20.2152C21.3741 21.0965 20.4699 21.6971 20.0767 21.9381C19.8562 22.0733 19.5826 22.0733 19.362 21.9381C18.9689 21.6971 18.0647 21.0965 17.2556 20.2152C16.449 19.3366 15.707 18.1461 15.707 16.7309ZM19.5015 14.2555C19.6379 14.1803 19.8009 14.1803 19.9373 14.2555C20.307 14.4596 21.2148 15.0284 22.1728 16.1423C22.2686 16.2538 22.2895 16.3939 22.2413 16.5119C22.1929 16.6305 22.0789 16.7169 21.9295 16.7283C21.8518 16.7342 21.7629 16.7401 21.6616 16.7459C21.6691 16.9217 21.674 17.1362 21.674 17.3967C21.674 17.926 21.6537 18.2657 21.6321 18.477C21.6079 18.7139 21.4331 18.8946 21.187 18.9326C21.0399 18.9553 20.8355 18.9785 20.5582 18.9949C20.3767 19.0056 20.2308 18.8595 20.2328 18.6857C20.2335 18.6324 20.2337 18.5742 20.2337 18.5106C20.2337 18.2391 20.2274 18.0642 20.2207 17.9556C20.2163 17.8839 20.1771 17.8413 20.1249 17.8317C20.0414 17.8162 19.912 17.8018 19.7194 17.8018C19.5268 17.8018 19.3973 17.8162 19.3138 17.8317C19.2617 17.8413 19.2224 17.8839 19.218 17.9556C19.2113 18.0642 19.2049 18.2391 19.2049 18.5106C19.2049 18.5742 19.2053 18.6324 19.2059 18.6857C19.208 18.8595 19.0621 19.0056 18.8806 18.9949C18.6032 18.9785 18.3989 18.9553 18.2516 18.9326C18.0056 18.8946 17.8308 18.7139 17.8067 18.477C17.7851 18.2657 17.7646 17.926 17.7646 17.3967C17.7646 17.1362 17.7695 16.9217 17.7772 16.7459C17.6757 16.7402 17.5869 16.7342 17.5093 16.7284C17.3599 16.7169 17.2459 16.6305 17.1975 16.5119C17.1493 16.3939 17.17 16.2538 17.2659 16.1423C18.224 15.0285 19.1317 14.4596 19.5015 14.2555Z" fill="#E69F69"/>
<path fill-rule="evenodd" clip-rule="evenodd" d="M6.05298 9.11403C6.05298 7.37318 7.51224 5.96191 9.31224 5.96191C11.1122 5.96191 12.5715 7.37318 12.5715 9.11403C12.5715 10.2436 11.9688 11.1936 11.3136 11.8949C10.6563 12.5982 9.92192 13.0775 9.60251 13.2699C9.42335 13.3777 9.20113 13.3777 9.02197 13.2699C8.70256 13.0775 7.96814 12.5982 7.31085 11.8949C6.65564 11.1936 6.05298 10.2436 6.05298 9.11403ZM9.31224 10.4072C10.0507 10.4072 10.6493 9.82822 10.6493 9.11403C10.6493 8.39984 10.0507 7.82089 9.31224 7.82089C8.57377 7.82089 7.97515 8.39984 7.97515 9.11403C7.97515 9.82822 8.57377 10.4072 9.31224 10.4072Z" fill="#514AF3"/>
<path d="M18.707 23.2041C15.3208 24.9852 11.4211 22.3377 12.4035 19.4314C13.3859 16.5251 11.4509 14.7812 9.70703 14.7812" stroke="#514AF3" stroke-width="0.6" stroke-linecap="round" stroke-dasharray="24 5"/>
</g>
<defs>
<clipPath id="clip0_7_742">
<rect width="24" height="24" fill="white" transform="translate(0.707031 0.78125)"/>
</clipPath>
</defs>
</svg>
