<svg width="25" height="25" viewBox="0 0 25 25" fill="none" xmlns="http://www.w3.org/2000/svg">
<g clip-path="url(#clip0_5171_244274)">
<path d="M22.9167 1.38889H10.4167C10.2325 1.38889 10.0559 1.46205 9.92563 1.59228C9.79539 1.72252 9.72223 1.89915 9.72223 2.08333V9.72222H16.6667V23.6111H22.9167C23.1009 23.6111 23.2775 23.5379 23.4077 23.4077C23.538 23.2775 23.6111 23.1008 23.6111 22.9167V2.08333C23.6111 1.89915 23.538 1.72252 23.4077 1.59228C23.2775 1.46205 23.1009 1.38889 22.9167 1.38889ZM15.2778 6.94444H11.1111V4.16666H15.2778V6.94444ZM22.2222 18.0556H18.0556V15.2778H22.2222V18.0556ZM22.2222 12.5H18.0556V9.72222H22.2222V12.5ZM22.2222 6.94444H18.0556V4.16666H22.2222V6.94444Z" fill="#514AF3"/>
<path d="M1.38889 11.8055V22.9166C1.38889 23.1008 1.46205 23.2775 1.59228 23.4077C1.72252 23.5379 1.89915 23.6111 2.08333 23.6111H14.5833C14.7675 23.6111 14.9441 23.5379 15.0744 23.4077C15.2046 23.2775 15.2778 23.1008 15.2778 22.9166V11.8055C15.2778 11.6214 15.2046 11.4447 15.0744 11.3145C14.9441 11.1842 14.7675 11.1111 14.5833 11.1111H2.08333C1.89915 11.1111 1.72252 11.1842 1.59228 11.3145C1.46205 11.4447 1.38889 11.6214 1.38889 11.8055ZM9.72222 12.5H13.8889V15.2778H9.72222V12.5ZM2.77777 12.5H6.94444V15.2778H2.77777V12.5ZM2.77777 18.0555H6.94444V20.8333H2.77777V18.0555Z" fill="#E69F69"/>
</g>
<defs>
<clipPath id="clip0_5171_244274">
<rect width="25" height="25" fill="white"/>
</clipPath>
</defs>
</svg>
