<svg width="25" height="25" viewBox="0 0 25 25" fill="none" xmlns="http://www.w3.org/2000/svg">
<g clip-path="url(#clip0_7_759)">
<path d="M4.45612 14.8672H2.62344C2.1173 14.8672 1.70703 15.2854 1.70703 15.8014V22.3404C1.70703 22.8563 2.1173 23.2746 2.62344 23.2746H4.45612C4.96227 23.2746 5.37253 22.8563 5.37253 22.3404V15.8014C5.37253 15.2854 4.96227 14.8672 4.45612 14.8672Z" fill="#514AF3"/>
<path d="M23.5629 18.7995C23.1979 18.3135 22.6963 17.9524 22.1252 17.7639C21.554 17.5753 20.9401 17.5683 20.3648 17.7438L18.5321 18.3417C18.4386 18.3745 18.3576 18.4364 18.3001 18.5185C18.2427 18.6004 18.2116 18.6986 18.2113 18.7995C18.2139 19.0779 18.1624 19.3541 18.06 19.6123C17.9577 19.8705 17.8066 20.1057 17.6151 20.3043C17.4236 20.5029 17.1956 20.6612 16.9443 20.77C16.6927 20.8789 16.4227 20.9362 16.1496 20.9386H11.3294C11.2079 20.9386 11.0914 20.8894 11.0055 20.8018C10.9196 20.7143 10.8713 20.5954 10.8713 20.4716C10.8713 20.3477 10.9196 20.2289 11.0055 20.1412C11.0914 20.0536 11.2079 20.0044 11.3294 20.0044H16.1404C16.4442 20.0044 16.7356 19.8814 16.9504 19.6625C17.1651 19.4434 17.2859 19.1465 17.2859 18.8367C17.2859 18.5271 17.1651 18.23 16.9504 18.0111C16.7356 17.7921 16.4442 17.6691 16.1404 17.6691H12.7589C12.577 17.5633 12.4025 17.4447 12.2366 17.3141C11.2076 16.4185 9.9214 15.8874 8.57108 15.8008H6.73841C6.61696 15.8008 6.50042 15.85 6.4145 15.9376C6.32844 16.0251 6.28027 16.144 6.28027 16.2678V21.7794C6.28221 21.8762 6.31313 21.9699 6.36887 22.0484C6.42446 22.1269 6.50221 22.1861 6.59184 22.2184L8.35123 22.8349C10.7613 23.6849 12.0992 24.1521 13.318 24.1521C14.8116 24.1521 16.1129 23.4607 18.9445 21.9195C20.1174 21.2842 21.5836 20.4902 23.4439 19.5468C23.5123 19.5166 23.5719 19.469 23.6169 19.4084C23.6618 19.3479 23.6906 19.2764 23.7004 19.2011C23.7137 19.1277 23.708 19.0521 23.6839 18.9817C23.6597 18.9113 23.6181 18.8484 23.5629 18.7995Z" fill="#514AF3"/>
<path d="M10.8709 11.8498C10.9634 11.7883 11.0297 11.6938 11.0569 11.5847C11.0839 11.4758 11.07 11.3604 11.0175 11.2613C10.3396 9.88896 9.52268 8.59284 8.57996 7.39397C8.50608 7.29596 8.47323 7.17219 8.48869 7.04964C8.50415 6.92709 8.56673 6.81574 8.66246 6.74C8.75744 6.66365 8.87814 6.62865 8.99825 6.64274C9.11851 6.65668 9.22836 6.71849 9.30387 6.81483C11.0817 9.11274 12.9694 12.7092 13.4002 15.3155C13.4238 15.4728 13.4995 15.617 13.6144 15.7247C13.7293 15.8324 13.8767 15.8969 14.0324 15.9078C14.1881 15.9186 14.3427 15.8751 14.471 15.7845C14.5993 15.6938 14.6934 15.5614 14.738 15.409C15.3244 13.4753 16.7357 10.7382 18.5593 9.80413C18.6687 9.74959 18.7947 9.74156 18.9099 9.78186C19.025 9.82215 19.1198 9.90744 19.1732 10.0189C19.2267 10.1304 19.2346 10.259 19.195 10.3763C19.1555 10.4937 19.0718 10.5903 18.9624 10.6447C17.9986 11.2551 17.2185 12.1246 16.7082 13.1576C16.6761 13.2135 16.6554 13.2755 16.6475 13.3397C16.6396 13.4039 16.6447 13.4691 16.6624 13.5313C16.6841 13.5945 16.718 13.6527 16.7621 13.7023C16.8061 13.7522 16.8595 13.7923 16.9189 13.8208C17.1593 13.9256 17.4181 13.9797 17.6796 13.9797C18.0989 13.9526 18.5086 13.8402 18.8847 13.6493C19.2609 13.4585 19.5956 13.1927 19.8696 12.8681C20.508 11.9748 20.9248 10.9373 21.0843 9.84412C21.244 8.75099 21.1416 7.63468 20.786 6.59063C20.756 6.52807 20.7138 6.47262 20.6616 6.42763C20.6096 6.38264 20.5491 6.34901 20.4837 6.32901C20.4092 6.29856 20.328 6.28948 20.2489 6.30266C20.1697 6.31583 20.0957 6.35083 20.0346 6.4037C19.3404 6.91148 18.5462 7.25884 17.7071 7.42199C16.9796 7.58181 16.2851 7.86949 15.6544 8.27199C15.2939 8.48104 14.9904 8.77856 14.7711 9.13743C14.5519 9.49631 14.4239 9.90517 14.3989 10.3272C14.4023 10.7221 14.5239 11.1066 14.7472 11.4294C14.7916 11.5041 14.8151 11.5897 14.8151 11.677C14.8151 11.7644 14.7916 11.85 14.7472 11.9245C14.6464 12.1207 14.5364 12.3076 14.4447 12.4944C14.4231 12.5345 14.3913 12.5679 14.3525 12.5909C14.3139 12.6139 14.2696 12.6257 14.2249 12.6251C14.1813 12.6207 14.1397 12.6045 14.1042 12.5782C14.0688 12.552 14.0408 12.5167 14.0233 12.4758C13.7383 11.6904 13.4016 10.9259 13.0152 10.1871C12.9646 10.0918 12.9489 9.98122 12.9706 9.87517C12.9924 9.76913 13.0504 9.67446 13.1344 9.60795C13.6152 9.23878 13.9606 8.71569 14.1149 8.12262C14.189 7.5656 14.1331 6.99843 13.9516 6.46762C13.77 5.93681 13.4681 5.45721 13.0702 5.06788C12.201 4.17744 11.0905 3.5724 9.88122 3.33048C8.75343 3.06765 7.69402 2.56123 6.77478 1.84515C6.72231 1.79925 6.66032 1.76592 6.59343 1.74789C6.52654 1.72986 6.45653 1.72759 6.38859 1.74108C6.32081 1.75456 6.25674 1.78349 6.20145 1.82576C6.14615 1.86802 6.10081 1.92256 6.06915 1.98527C4.8046 4.41407 5.37273 8.85127 6.78385 10.514C9.08402 13.2791 10.7609 11.9153 10.8709 11.8498Z" fill="#E69F69"/>
</g>
<defs>
<clipPath id="clip0_7_759">
<rect width="24" height="24" fill="white" transform="translate(0.707031 0.78125)"/>
</clipPath>
</defs>
</svg>
