<svg width="25" height="25" viewBox="0 0 25 25" fill="none" xmlns="http://www.w3.org/2000/svg">
<g clip-path="url(#clip0_7_519)">
<mask id="mask0_7_519" style="mask-type:luminance" maskUnits="userSpaceOnUse" x="0" y="0" width="25" height="25">
<path d="M24.8418 0.78125H0.841797V24.7812H24.8418V0.78125Z" fill="white"/>
</mask>
<g mask="url(#mask0_7_519)">
<path d="M12.8418 1.53125C10.4297 1.53125 8.6999 1.6431 7.5438 1.76166C6.08945 1.91081 4.98386 3.01125 4.83747 4.46968C4.71231 5.71659 4.5918 7.66175 4.5918 10.5312C4.5918 13.4007 4.71231 15.3458 4.83747 16.5928C4.98386 18.0512 6.08945 19.1516 7.5438 19.3008C8.6999 19.4193 10.4297 19.5312 12.8418 19.5312C15.2539 19.5312 16.9837 19.4193 18.1398 19.3008C19.5941 19.1516 20.6998 18.0512 20.8462 16.5928C20.9713 15.3458 21.0918 13.4007 21.0918 10.5312C21.0918 9.172 21.0647 8.02025 21.023 7.05205C21.0193 6.96565 21.0006 6.88055 20.9679 6.8005C20.7477 6.2618 20.1175 5.12472 18.3828 3.59821C17.1923 2.55062 16.2165 1.96613 15.5336 1.6432C15.4415 1.59964 15.3415 1.57531 15.2396 1.57169C14.5297 1.5465 13.7322 1.53125 12.8418 1.53125Z" fill="#514AF3"/>
<path d="M21.0185 6.99693C21.0106 6.92963 20.9936 6.86368 20.9679 6.80083C20.7477 6.26213 20.1174 5.12504 18.3828 3.59854C17.1923 2.55094 16.2164 1.96646 15.5335 1.64353C15.4779 1.6172 15.4193 1.59789 15.3592 1.58594C15.3118 2.3836 15.3678 3.45301 15.446 4.4066C15.5568 5.75595 16.6179 6.81678 17.9672 6.92738C19.0163 7.01338 20.2054 7.07238 21.0185 6.99693Z" fill="#E69F69"/>
<path d="M9.8444 8.87214C9.08415 8.01779 7.95515 7.53104 6.7806 7.65619C5.9168 7.74824 5.22133 7.86119 4.6741 7.97264C3.35325 8.24164 2.50044 9.33899 2.36873 10.6C2.23677 11.8635 2.0918 13.8484 2.0918 16.4715C2.0918 18.2302 2.22657 19.8009 2.35396 20.8937C2.50084 22.1537 3.36665 23.2384 4.69598 23.4821C6.13255 23.7454 8.65415 24.0312 12.8418 24.0312C17.0295 24.0312 19.551 23.7454 20.9876 23.4821C22.3169 23.2384 23.1828 22.1537 23.3297 20.8937C23.457 19.8009 23.5918 18.2302 23.5918 16.4715C23.5918 15.5627 23.573 14.6695 23.5428 13.8446C23.4705 11.8635 21.8194 10.3711 19.8782 10.3711H11.7393C11.3825 10.3711 11.0426 10.2186 10.8054 9.95214L9.8444 8.87214Z" fill="#E69F69"/>
</g>
</g>
<defs>
<clipPath id="clip0_7_519">
<rect width="24" height="24" fill="white" transform="translate(0.841797 0.78125)"/>
</clipPath>
</defs>
</svg>
