<svg width="25" height="25" viewBox="0 0 25 25" fill="none" xmlns="http://www.w3.org/2000/svg">
<path d="M9.13367 20.6564C9.13367 20.8571 9.20824 21.0496 9.34084 21.1916C9.47356 21.3335 9.6534 21.4133 9.84103 21.4133C10.0287 21.4133 10.2085 21.3335 10.3412 21.1916C10.4738 21.0496 10.5484 20.8571 10.5484 20.6564V17.0613C10.5484 17.0111 10.5297 16.963 10.4966 16.9275C10.4634 16.8919 10.4184 16.8721 10.3716 16.8721H9.31051C9.26363 16.8721 9.21867 16.8919 9.18546 16.9275C9.15237 16.963 9.13367 17.0111 9.13367 17.0613V20.6564Z" fill="#E69F69"/>
<path d="M3.55247 20.3159C3.50235 20.4051 3.46986 20.5044 3.45715 20.6076C3.44456 20.7107 3.45188 20.8156 3.47885 20.9157C3.50571 21.0156 3.55163 21.1087 3.61373 21.1888C3.67571 21.2689 3.75257 21.3346 3.83937 21.3816C3.92617 21.4286 4.02112 21.4558 4.11824 21.4617C4.21535 21.4677 4.31246 21.4521 4.4037 21.416C4.49494 21.3799 4.57826 21.3241 4.6484 21.2521C4.71854 21.18 4.77405 21.0932 4.81145 20.9971L6.61523 17.1446C6.62854 17.1155 6.63465 17.0831 6.63297 17.0507C6.63129 17.0182 6.6217 16.9868 6.6054 16.9594C6.58909 16.932 6.56643 16.9096 6.53958 16.8944C6.51284 16.879 6.48287 16.8714 6.45254 16.8721H5.27124C5.23755 16.8714 5.20422 16.8808 5.17545 16.8996C5.14655 16.9185 5.12341 16.9456 5.10855 16.9781L3.55247 20.3159Z" fill="#E69F69"/>
<path d="M14.8705 20.9971C14.9079 21.0932 14.9635 21.18 15.0336 21.2521C15.1037 21.3241 15.1871 21.3799 15.2783 21.416C15.3695 21.4521 15.4668 21.4677 15.5639 21.4617C15.661 21.4558 15.7558 21.4286 15.8426 21.3816C15.9294 21.3346 16.0063 21.2689 16.0684 21.1888C16.1304 21.1087 16.1763 21.0156 16.2033 20.9157C16.2301 20.8156 16.2374 20.7107 16.2248 20.6076C16.2121 20.5044 16.1798 20.4051 16.1295 20.3159L14.5734 16.9781C14.5586 16.9456 14.5354 16.9185 14.5065 16.8996C14.4778 16.8808 14.4446 16.8714 14.4108 16.8721H13.2296C13.1992 16.8714 13.1691 16.879 13.1424 16.8944C13.1156 16.9096 13.093 16.932 13.0766 16.9594C13.0603 16.9868 13.0508 17.0182 13.0491 17.0507C13.0473 17.0831 13.0535 17.1155 13.0669 17.1446L14.8705 20.9971Z" fill="#E69F69"/>
<path d="M17.9755 15.3581C17.9755 15.1572 17.901 14.9647 17.7684 14.8229C17.6357 14.6809 17.4558 14.6012 17.2682 14.6012H16.7377C16.6908 14.6012 16.6458 14.5812 16.6126 14.5458C16.5795 14.5102 16.5608 14.4621 16.5608 14.4119V7.41089C16.5608 6.909 16.3745 6.42771 16.0429 6.0729C15.7113 5.71808 15.2616 5.51865 14.7925 5.51865H10.7254C10.6784 5.51865 10.6335 5.49868 10.6004 5.46323C10.5672 5.42777 10.5486 5.37964 10.5486 5.32947V4.00491C10.5486 3.80421 10.474 3.6117 10.3414 3.46974C10.2087 3.32779 10.0289 3.24805 9.84123 3.24805C9.6536 3.24805 9.47376 3.32779 9.34104 3.46974C9.20844 3.6117 9.13387 3.80421 9.13387 4.00491V5.32947C9.13387 5.37964 9.11529 5.42777 9.08208 5.46323C9.04898 5.49868 9.00403 5.51865 8.95703 5.51865H4.88993C4.42091 5.51865 3.97119 5.71808 3.63957 6.0729C3.30795 6.42771 3.12164 6.909 3.12164 7.41089V14.4119C3.12164 14.4621 3.10306 14.5102 3.06985 14.5458C3.03664 14.5812 2.99168 14.6012 2.9448 14.6012H2.41428C2.22676 14.6012 2.04681 14.6809 1.9142 14.8229C1.78148 14.9647 1.70703 15.1572 1.70703 15.3581C1.70703 15.5588 1.78148 15.7513 1.9142 15.8932C2.04681 16.0352 2.22676 16.1149 2.41428 16.1149H17.2682C17.4558 16.1149 17.6357 16.0352 17.7684 15.8932C17.901 15.7513 17.9755 15.5588 17.9755 15.3581ZM4.53625 7.41089C4.53625 7.31054 4.57353 7.21428 4.63983 7.14324C4.70625 7.07233 4.79617 7.03239 4.88993 7.03239H14.7925C14.8863 7.03239 14.9763 7.07233 15.0426 7.14324C15.1089 7.21428 15.1462 7.31054 15.1462 7.41089V14.4119C15.1462 14.4621 15.1275 14.5102 15.0944 14.5458C15.0612 14.5812 15.0163 14.6012 14.9694 14.6012H4.71309C4.66621 14.6012 4.62125 14.5812 4.58804 14.5458C4.55495 14.5102 4.53625 14.4621 4.53625 14.4119V7.41089Z" fill="#514AF3"/>
<path d="M23.6206 6.882C23.6841 6.79676 23.7146 6.68847 23.7056 6.57979C23.6966 6.47112 23.6489 6.37026 23.5723 6.29819C23.4957 6.22613 23.3961 6.18837 23.2942 6.19272C23.1923 6.19695 23.0959 6.24315 23.025 6.32136L19.8645 9.73898C19.8575 9.74679 19.8525 9.75639 19.8499 9.76676C19.8472 9.77713 19.8471 9.78813 19.8495 9.7985C19.8519 9.809 19.8567 9.81873 19.8635 9.82666C19.8704 9.8346 19.8789 9.84049 19.8885 9.84394C20.0473 9.89988 20.1939 9.98973 20.3193 10.1081C20.4448 10.2265 20.5464 10.3709 20.6181 10.5326C20.6222 10.5426 20.6287 10.5513 20.6367 10.5578C20.6449 10.5643 20.6543 10.5687 20.6644 10.5702C20.6745 10.5718 20.6847 10.5705 20.6941 10.5666C20.7037 10.5627 20.7121 10.5563 20.7186 10.5479L23.6206 6.882Z" fill="#E69F69"/>
<path d="M20.3166 10.7653C20.276 10.6505 20.2146 10.5453 20.1359 10.4559C20.0572 10.3666 19.9628 10.2948 19.8582 10.2446C19.7534 10.1943 19.6404 10.1668 19.5257 10.1634C19.4111 10.1601 19.2968 10.1811 19.1898 10.2251C19.0838 10.2686 18.9869 10.3343 18.9048 10.4183C18.8226 10.5022 18.7568 10.6027 18.7113 10.7141C18.6658 10.8242 18.6324 10.9266 18.5988 11.0213C18.4983 11.3003 18.4529 11.436 18.2136 11.5026C18.1501 11.5206 18.0931 11.5594 18.0508 11.6133C18.0083 11.6673 17.9826 11.7339 17.9768 11.804C17.9711 11.8743 17.9857 11.9447 18.0187 12.0057C18.0516 12.0667 18.1013 12.1154 18.161 12.1451C18.3963 12.2625 18.6526 12.3237 18.9122 12.3243C19.1141 12.3243 19.3143 12.2853 19.5032 12.2091C19.8444 12.0815 20.1279 11.821 20.2974 11.4795C20.3449 11.3678 20.3711 11.2471 20.3743 11.1245C20.3777 11.0018 20.358 10.8797 20.3166 10.7653Z" fill="#514AF3"/>
<path d="M12.1424 10.2842C12.123 10.2485 12.0953 10.2184 12.0618 10.1968C12.0282 10.1751 11.9898 10.1626 11.9504 10.1604C11.9103 10.1585 11.8704 10.1672 11.8346 10.1859C11.7987 10.2044 11.768 10.2322 11.7455 10.2665L10.7211 11.8627C10.7031 11.8934 10.6782 11.9191 10.6485 11.9376C10.6187 11.9561 10.585 11.9668 10.5504 11.9688C10.5171 11.9729 10.4831 11.9691 10.4514 11.9575C10.4195 11.946 10.3907 11.9272 10.367 11.9024L9.58166 11.0845C9.53407 11.0388 9.47148 11.0135 9.40662 11.0138C9.34272 11.0184 9.28313 11.0485 9.24021 11.0978L8.3397 12.1942C8.31165 12.2294 8.29366 12.272 8.28791 12.3172C8.28215 12.3624 8.28875 12.4084 8.30709 12.4498C8.32531 12.4914 8.35445 12.5268 8.39114 12.5519C8.42782 12.5771 8.47062 12.591 8.51462 12.5922H12.9618C13.0019 12.5924 13.0413 12.5816 13.0759 12.5606C13.1104 12.5396 13.1389 12.5092 13.1582 12.4728C13.1793 12.4368 13.1904 12.3956 13.1904 12.3535C13.1904 12.3113 13.1793 12.27 13.1582 12.234L12.1424 10.2842Z" fill="#514AF3"/>
<path d="M7.32925 11.1844C7.72573 11.1844 8.04704 10.8406 8.04704 10.4164C8.04704 9.99225 7.72573 9.64844 7.32925 9.64844C6.93288 9.64844 6.61157 9.99225 6.61157 10.4164C6.61157 10.8406 6.93288 11.1844 7.32925 11.1844Z" fill="#E69F69"/>
</svg>
