<svg width="25" height="25" viewBox="0 0 25 25" fill="none" xmlns="http://www.w3.org/2000/svg">
<path d="M7.85684 4.91308C8.48317 3.01185 10.1796 1.64844 12.1755 1.64844C14.1714 1.64844 15.8678 3.01185 16.4942 4.91308C18.1126 5.49986 19.2776 7.13528 19.2776 9.06231C19.2776 11.4819 17.4405 13.4433 15.1742 13.4433C14.4912 13.4433 13.8472 13.2651 13.281 12.9501C13.3128 15.1735 13.4381 15.8023 13.4381 15.8023H15.0164C15.2778 15.8023 15.4898 16.0286 15.4898 16.3078C15.4898 16.587 15.2778 18.306 15.0164 18.306H9.33465C9.07315 18.306 8.86121 16.587 8.86121 16.3078C8.86121 16.0286 9.07315 15.8023 9.33465 15.8023H12.4911C12.4911 15.8023 12.3641 15.1643 12.3333 12.9006L12.3339 12.8572L12.3328 12.8561C12.3288 12.556 12.3267 12.2278 12.3267 11.8694C12.3267 11.2108 12.3269 10.6321 12.3274 10.1289C12.5516 9.89889 12.9235 9.51236 13.4613 8.93824C14.0329 8.32782 14.406 7.91765 14.6155 7.68433C14.7498 7.53459 14.8032 7.32144 14.6832 7.15857C14.654 7.11904 14.6191 7.07653 14.5773 7.03188C14.5353 6.98722 14.4956 6.94996 14.4586 6.91879C14.306 6.79067 14.1063 6.84763 13.9661 6.99104C13.7476 7.21469 13.3634 7.61292 12.7917 8.22334C12.62 8.40663 12.4663 8.57178 12.3295 8.7196C12.3304 8.30263 12.3312 7.99228 12.332 7.78081C12.3328 7.55345 12.2636 7.31189 12.061 7.24204C12.0029 7.22209 11.9358 7.20884 11.8599 7.20884C11.7838 7.20884 11.7167 7.22209 11.6587 7.24204C11.4561 7.31189 11.387 7.55345 11.3878 7.78081C11.3893 8.25534 11.3919 9.22709 11.3927 10.7843C11.2463 10.6258 11.0795 10.4465 10.8912 10.2454C10.3194 9.63499 9.93525 9.23664 9.71671 9.01311C9.57645 8.86958 9.37681 8.81262 9.22426 8.94075C9.18724 8.97191 9.14742 9.00917 9.10559 9.05395C9.06376 9.09861 9.02886 9.141 8.99967 9.18052C8.87955 9.34352 8.93301 9.55666 9.06734 9.70628C9.27682 9.93973 9.64982 10.3498 10.2216 10.9602C10.7902 11.5673 11.1733 11.9645 11.3925 12.1889C11.3917 12.3869 11.3902 12.5748 11.3882 12.7532C10.7502 13.1899 9.99129 13.4433 9.17683 13.4433C6.91052 13.4433 5.07336 11.4819 5.07336 9.06231C5.07336 7.13528 6.23834 5.49986 7.85684 4.91308Z" fill="#514AF3"/>
<path d="M5.91309 19.2841C6.45946 19.2841 6.90236 18.8112 6.90236 18.2279C6.90236 17.6447 6.45946 17.1719 5.91309 17.1719C5.36673 17.1719 4.92383 17.6447 4.92383 18.2279C4.92383 18.8112 5.36673 19.2841 5.91309 19.2841Z" fill="#E69F69"/>
<path d="M7.42215 21.396C7.40235 21.3944 7.38267 21.3933 7.3631 21.3929C7.19566 21.3893 6.95475 21.3853 6.63667 21.3825H6.38088C6.08404 21.3825 6.3122 21.3825 5.91202 21.3825C5.51173 21.3825 5.73788 21.381 5.34217 21.381H5.18727C4.85766 21.383 4.59695 21.3865 4.40234 21.3899C4.44194 20.983 4.50256 20.6411 4.55837 20.3852C4.638 20.0198 4.89099 19.7214 5.25449 19.6641C5.42572 19.6371 5.64337 19.6172 5.91202 19.6172C6.18067 19.6172 6.39821 19.6371 6.56956 19.6641C6.93294 19.7214 7.18593 20.0198 7.26557 20.3851C7.3216 20.6423 7.38256 20.9863 7.42215 21.396Z" fill="#E69F69"/>
<path d="M9.82618 21.3134C10.3725 21.3134 10.8154 20.8405 10.8154 20.2572C10.8154 19.674 10.3725 19.2012 9.82618 19.2012C9.27982 19.2012 8.83691 19.674 8.83691 20.2572C8.83691 20.8405 9.27982 21.3134 9.82618 21.3134Z" fill="#E69F69"/>
<path d="M11.3372 23.4263C11.3174 23.4246 11.2977 23.4236 11.2781 23.4232C11.1107 23.4196 10.8698 23.4156 10.5517 23.4128H10.2959C9.99908 23.4128 10.2272 23.4128 9.82706 23.4128C9.42677 23.4128 9.65292 23.4113 9.25721 23.4113H9.10231C8.7727 23.4133 8.51199 23.4167 8.31738 23.4202C8.35698 23.0133 8.4176 22.6714 8.47341 22.4155C8.55304 22.0501 8.80603 21.7517 9.16953 21.6944C9.34076 21.6674 9.55841 21.6475 9.82706 21.6475C10.0957 21.6475 10.3133 21.6674 10.4846 21.6944C10.848 21.7517 11.101 22.0501 11.1806 22.4154C11.2366 22.6726 11.2976 23.0166 11.3372 23.4263Z" fill="#E69F69"/>
<path d="M14.1876 21.3134C14.734 21.3134 15.1769 20.8405 15.1769 20.2572C15.1769 19.674 14.734 19.2012 14.1876 19.2012C13.6413 19.2012 13.1984 19.674 13.1984 20.2572C13.1984 20.8405 13.6413 21.3134 14.1876 21.3134Z" fill="#E69F69"/>
<path d="M15.6995 23.4263C15.6797 23.4246 15.66 23.4236 15.6404 23.4232C15.473 23.4196 15.2321 23.4156 14.914 23.4128H14.6582C14.3614 23.4128 14.5895 23.4128 14.1894 23.4128C13.7891 23.4128 14.0152 23.4113 13.6195 23.4113H13.4646C13.135 23.4133 12.8743 23.4167 12.6797 23.4202C12.7193 23.0133 12.7799 22.6714 12.8357 22.4155C12.9153 22.0501 13.1683 21.7517 13.5318 21.6944C13.7031 21.6674 13.9207 21.6475 14.1894 21.6475C14.458 21.6475 14.6756 21.6674 14.8469 21.6944C15.2103 21.7517 15.4633 22.0501 15.5429 22.4154C15.5989 22.6726 15.6599 23.0166 15.6995 23.4263Z" fill="#E69F69"/>
<path d="M18.1045 19.0448C18.6509 19.0448 19.0938 18.572 19.0938 17.9887C19.0938 17.4055 18.6509 16.9326 18.1045 16.9326C17.5581 16.9326 17.1152 17.4055 17.1152 17.9887C17.1152 18.572 17.5581 19.0448 18.1045 19.0448Z" fill="#E69F69"/>
<path d="M19.6138 21.1577C19.594 21.1561 19.5743 21.155 19.5547 21.1546C19.3873 21.1511 19.1464 21.147 18.8283 21.1442H18.5725C18.2757 21.1442 18.5039 21.1442 18.1037 21.1442C17.7034 21.1442 17.9295 21.1427 17.5338 21.1427H17.3789C17.0493 21.1447 16.7886 21.1482 16.594 21.1517C16.6336 20.7447 16.6942 20.4028 16.75 20.1469C16.8296 19.7816 17.0826 19.4832 17.4461 19.4258C17.6174 19.3988 17.835 19.3789 18.1037 19.3789C18.3723 19.3789 18.5899 19.3988 18.7612 19.4258C19.1246 19.4832 19.3776 19.7816 19.4572 20.1468C19.5133 20.404 19.5742 20.7481 19.6138 21.1577Z" fill="#E69F69"/>
</svg>
