<svg width="25" height="25" viewBox="0 0 25 25" fill="none" xmlns="http://www.w3.org/2000/svg">
<path d="M11.7102 16.2737C11.0804 15.88 9.93649 15.1421 8.77824 14.2839C8.71313 14.2355 8.66666 14.171 8.6556 14.094C8.63181 13.9281 8.59863 13.5406 8.59863 12.6714C8.59863 11.7491 8.63585 11.3158 8.65957 11.1337C8.6668 11.0794 8.7308 11.0573 8.77629 11.0916C9.53687 11.6663 10.1861 12.2062 10.1861 12.2062C10.1861 12.2062 10.6547 12.0482 11.2156 11.9989C11.4212 11.9808 11.6232 12.0459 11.7865 12.1644L11.8372 12.2013C11.5634 12.4265 11.3005 12.663 11.049 12.9099C10.7673 13.1879 10.6712 13.681 11.0271 14.0309C11.1948 14.1957 11.3633 14.3003 11.5004 14.3655C11.7943 14.5053 12.0969 14.4358 12.2972 14.3167C12.5729 14.1515 12.8389 13.9725 13.0941 13.7806C13.3062 13.9004 13.5747 13.9859 13.8879 13.9613C14.2011 14.2728 14.5019 14.5951 14.7895 14.9276C14.1133 15.4017 13.4196 15.8538 12.7099 16.2829C12.5606 16.3731 12.3863 16.4204 12.2086 16.4188C12.0309 16.4172 11.8576 16.3666 11.7102 16.2737Z" fill="#E69F69"/>
<path d="M14.9863 14.4691C14.7545 14.2049 14.514 13.9473 14.2652 13.6966C14.3721 13.6493 14.4791 13.5889 14.586 13.515L14.7026 13.4339C14.7519 13.3997 14.7845 13.3488 14.7932 13.2923C14.802 13.2358 14.786 13.1785 14.7491 13.1329C14.7121 13.0873 14.6571 13.0571 14.5961 13.0491C14.5351 13.041 14.4731 13.0557 14.4238 13.0899L14.3069 13.1709C14.1715 13.2648 14.0435 13.3257 13.9236 13.361L13.9233 13.3608C13.4951 13.4866 13.1717 13.2854 12.9901 13.0988C12.6717 13.3566 12.3329 13.592 11.9766 13.8033C11.8818 13.8589 11.7663 13.8763 11.6663 13.8295C11.5758 13.7869 11.4569 13.7152 11.3348 13.5969C11.1966 13.4627 11.2185 13.2553 11.3568 13.1209C11.7179 12.7716 12.1034 12.4449 12.5109 12.1425L12.5079 12.1399L12.5439 12.114C12.6894 12.0098 12.8664 11.9489 13.049 11.9535C13.066 11.9538 13.0832 11.9548 13.1004 11.9564C13.6402 12.0037 14.09 12.1536 14.09 12.1536C14.0975 12.1475 14.7217 11.6358 15.4521 11.0908C15.4961 11.0581 15.5581 11.0792 15.5649 11.1309C15.5879 11.3048 15.6238 11.7179 15.6238 12.5975C15.6238 13.4265 15.5918 13.7959 15.5689 13.9542C15.5582 14.0277 15.5135 14.0891 15.4505 14.1351C15.2967 14.2476 15.142 14.359 14.9863 14.4691Z" fill="#514AF3"/>
<path d="M9.89818 15.6379C9.61868 15.416 9.31679 15.2275 8.99806 15.0756C8.98325 15.0683 8.96697 15.0645 8.95055 15.0645C8.93414 15.0645 8.91793 15.0683 8.90311 15.0756C8.88816 15.0852 8.87577 15.0987 8.86715 15.1147C8.85845 15.1307 8.85379 15.1487 8.85352 15.1672V16.8625C8.85352 16.8915 8.86444 16.9191 8.88377 16.9396C8.90311 16.96 8.92941 16.9715 8.95674 16.9715H10.0923C10.147 16.9715 10.1995 16.9485 10.2383 16.9076C10.2769 16.8668 10.2987 16.8114 10.2987 16.7536V16.4877C10.2986 16.3231 10.2623 16.1607 10.1928 16.0132C10.1233 15.8659 10.0225 15.7373 9.89818 15.6379Z" fill="#E69F69"/>
<path d="M8.64741 15.0214C8.64664 15.0006 8.6376 14.9806 8.62146 14.9639C8.60539 14.9473 8.58306 14.9349 8.5576 14.9285C8.22914 14.86 7.89601 14.8057 7.55976 14.766C7.50202 14.759 7.44289 14.7679 7.39274 14.7912C7.34259 14.8146 7.30461 14.8509 7.28541 14.8937C7.16987 15.1615 6.94873 15.3943 6.65331 15.5592C6.35789 15.7241 6.00306 15.8129 5.63905 15.8129C5.27503 15.8129 4.92027 15.7241 4.62485 15.5592C4.32936 15.3943 4.10829 15.1615 3.99268 14.8937C3.97355 14.8509 3.93557 14.8146 3.88542 14.7912C3.83527 14.7679 3.77614 14.759 3.71834 14.766C3.38209 14.8057 3.04897 14.86 2.72054 14.9285C2.70062 14.9383 2.68452 14.9522 2.67397 14.9685C2.66342 14.9849 2.65883 15.0032 2.66068 15.0214V16.8751C2.66068 16.9007 2.67382 16.9254 2.6972 16.9435C2.7206 16.9616 2.75232 16.9718 2.7854 16.9718H8.52268C8.55573 16.9718 8.58745 16.9616 8.61082 16.9435C8.63426 16.9254 8.64741 16.9007 8.64741 16.8751V15.0214Z" fill="#E69F69"/>
<path d="M2.45394 15.1671C2.4537 15.1487 2.44907 15.1307 2.44047 15.1146C2.43188 15.0987 2.41962 15.0852 2.40482 15.0756C2.39009 15.0683 2.37402 15.0645 2.35774 15.0645C2.34147 15.0645 2.32539 15.0683 2.31066 15.0756C1.99463 15.2274 1.69533 15.416 1.41822 15.6377C1.28991 15.738 1.18586 15.8693 1.11467 16.0208C1.04349 16.1724 1.00721 16.3398 1.00884 16.5092V16.775C1.01404 16.8312 1.03958 16.8832 1.08006 16.9197C1.12055 16.9563 1.17281 16.9747 1.22581 16.971H2.3516C2.37875 16.971 2.40478 16.9596 2.42397 16.9391C2.44316 16.9187 2.45394 16.891 2.45394 16.8621V15.1671Z" fill="#E69F69"/>
<path d="M3.23936 14.0251V12.7974C3.23966 12.7822 3.24344 12.7673 3.25041 12.7537C3.25739 12.7401 3.2674 12.7283 3.2797 12.7189C3.29393 12.7114 3.30988 12.7074 3.32609 12.7074C3.3423 12.7074 3.35825 12.7114 3.37248 12.7189C3.38247 12.7229 3.39154 12.7287 3.39916 12.7362C3.40678 12.7435 3.4128 12.7523 3.41686 12.7621C3.589 13.2265 3.88936 13.6358 4.28503 13.9451C4.68069 14.2543 5.15634 14.4517 5.65975 14.5154C6.16609 14.4501 6.6439 14.2494 7.03991 13.9357C7.43592 13.622 7.73461 13.2076 7.90267 12.7385C7.90441 12.7326 7.90747 12.727 7.91164 12.7222C7.91582 12.7175 7.92103 12.7137 7.92688 12.7111H7.94705C7.96124 12.7035 7.97724 12.6996 7.99345 12.6996C8.00965 12.6996 8.02558 12.7035 8.03984 12.7111C8.05209 12.7204 8.0621 12.7323 8.06913 12.7459C8.07609 12.7595 8.07984 12.7744 8.08012 12.7895V14.0251C8.08012 14.1291 8.12262 14.2289 8.1983 14.3024C8.27399 14.376 8.37659 14.4173 8.48357 14.4173C8.59056 14.4173 8.69316 14.376 8.76877 14.3024C8.84445 14.2289 8.88695 14.1291 8.88695 14.0251V12.4561C8.8873 12.4356 8.89398 12.4155 8.90622 12.3987C8.91847 12.3819 8.93565 12.3691 8.95554 12.362C9.03554 12.3378 9.10941 12.2975 9.17243 12.2438C9.23552 12.1902 9.2863 12.1243 9.32164 12.0504C9.35698 11.9766 9.37604 11.8964 9.37757 11.8149C9.3791 11.7334 9.36317 11.6526 9.33068 11.5775L9.01606 10.7538C8.94893 10.6003 8.84355 10.4656 8.70944 10.3616C8.68989 10.3456 8.67702 10.3233 8.67313 10.2988C8.64113 9.8457 8.50312 9.40572 8.26974 9.01224C8.26626 9.00076 8.26626 8.98848 8.26974 8.97693C8.25917 8.85345 8.21256 8.73538 8.13542 8.63674C8.05821 8.53803 7.95366 8.46286 7.83408 8.41996L7.79777 8.39642C7.51793 8.12404 7.18557 7.90791 6.81975 7.76046C6.45393 7.613 6.06182 7.53711 5.66581 7.53711C5.2698 7.53711 4.87768 7.613 4.51186 7.76046C4.14604 7.90791 3.81368 8.12404 3.53384 8.39642L3.49754 8.41996C3.37828 8.46105 3.27375 8.53471 3.19647 8.63212C3.1192 8.72953 3.07246 8.84651 3.06186 8.96913C3.06477 8.98068 3.06477 8.99281 3.06186 9.00444C2.82624 9.39972 2.68816 9.84281 2.65847 10.2988C2.65558 10.3247 2.64259 10.3486 2.62216 10.3655C2.48805 10.4695 2.38269 10.6043 2.31558 10.7577L2.00092 11.5814C1.96909 11.6566 1.95361 11.7373 1.95547 11.8187C1.95733 11.8999 1.97649 11.9799 2.01174 12.0536C2.04699 12.1273 2.09756 12.1931 2.16027 12.2469C2.22298 12.3006 2.29647 12.3412 2.37609 12.3659C2.39596 12.373 2.41314 12.3859 2.42538 12.4026C2.43763 12.4194 2.44435 12.4395 2.44467 12.46V14.029C2.44467 14.133 2.48717 14.2328 2.56282 14.3064C2.63847 14.3799 2.74108 14.4213 2.84806 14.4213C2.95505 14.4213 3.05766 14.3799 3.13331 14.3064C3.20896 14.2328 3.25147 14.133 3.25147 14.029L3.23936 14.0251ZM5.65975 13.9271C5.25637 13.9271 4.11878 13.3426 3.9695 12.46C3.94988 12.3496 3.90293 12.2455 3.8326 12.1566C3.76235 12.0678 3.67087 11.9969 3.56612 11.9501C3.46175 11.8307 3.39829 11.6827 3.38458 11.5266C3.38032 11.5027 3.38487 11.4782 3.39742 11.4575C3.40998 11.4366 3.42974 11.4208 3.45316 11.4128C4.88951 10.9735 6.43 10.9735 7.86636 11.4128C7.8898 11.4208 7.90956 11.4366 7.92208 11.4575C7.93467 11.4782 7.93919 11.5027 7.93495 11.5266C7.91923 11.6822 7.856 11.8297 7.75339 11.9501C7.64864 11.9969 7.55716 12.0678 7.48691 12.1566C7.41658 12.2455 7.36963 12.3496 7.35001 12.46C7.20073 13.3426 6.06314 13.9271 5.65975 13.9271Z" fill="#514AF3"/>
<path d="M22.6294 15.6409C22.3643 15.4193 22.078 15.2311 21.7757 15.0795C21.7617 15.0722 21.7463 15.0684 21.7307 15.0684C21.7151 15.0684 21.6997 15.0722 21.6856 15.0795C21.6715 15.0891 21.6597 15.1025 21.6515 15.1185C21.6433 15.1344 21.6389 15.1525 21.6387 15.1709V16.8636C21.6387 16.8925 21.649 16.9201 21.6673 16.9405C21.6857 16.9609 21.7106 16.9724 21.7365 16.9724H22.8135C22.8654 16.9724 22.9152 16.9495 22.9519 16.9087C22.9886 16.8678 23.0092 16.8125 23.0092 16.7548V16.4894C23.0091 16.325 22.9747 16.1628 22.9088 16.0156C22.843 15.8684 22.7473 15.7402 22.6294 15.6409Z" fill="#514AF3"/>
<path d="M21.4428 15.025C21.4421 15.0042 21.4335 14.9841 21.4183 14.9676C21.4031 14.9509 21.3818 14.9386 21.3576 14.9322C21.0462 14.8637 20.7303 14.8096 20.4113 14.7699C20.3566 14.7629 20.3005 14.7718 20.2529 14.7951C20.2054 14.8184 20.1693 14.8547 20.1511 14.8975C20.0415 15.1648 19.8318 15.3972 19.5516 15.5619C19.2714 15.7265 18.935 15.8152 18.5897 15.8152C18.2445 15.8152 17.9081 15.7265 17.6279 15.5619C17.3477 15.3972 17.1379 15.1648 17.0283 14.8975C17.0102 14.8547 16.9741 14.8184 16.9265 14.7951C16.879 14.7718 16.8229 14.7629 16.7681 14.7699C16.4492 14.8096 16.1333 14.8637 15.8218 14.9322C15.8029 14.942 15.7876 14.9558 15.7776 14.9721C15.7676 14.9885 15.7633 15.0067 15.765 15.025V16.8757C15.765 16.9013 15.7775 16.9258 15.7997 16.944C15.8219 16.9621 15.8519 16.9723 15.8833 16.9723H21.3245C21.3559 16.9723 21.386 16.9621 21.4082 16.944C21.4304 16.9258 21.4428 16.9013 21.4428 16.8757V15.025Z" fill="#514AF3"/>
<path d="M15.5688 15.1708C15.5686 15.1524 15.5642 15.1344 15.556 15.1185C15.5479 15.1025 15.5363 15.0891 15.5222 15.0795C15.5083 15.0722 15.493 15.0684 15.4776 15.0684C15.4621 15.0684 15.4469 15.0722 15.4329 15.0795C15.1332 15.231 14.8494 15.4193 14.5865 15.6407C14.4648 15.7408 14.3661 15.8719 14.2987 16.0233C14.2311 16.1745 14.1968 16.3416 14.1983 16.5108V16.7762C14.2032 16.8323 14.2274 16.8842 14.2658 16.9207C14.3042 16.9572 14.3538 16.9756 14.4041 16.9719H15.4717C15.4975 16.9719 15.5222 16.9604 15.5404 16.9401C15.5586 16.9197 15.5688 16.892 15.5688 16.8632V15.1708Z" fill="#514AF3"/>
<path d="M16.3135 13.6904V12.526C16.3138 12.5116 16.3174 12.4975 16.324 12.4846C16.3306 12.4717 16.3401 12.4605 16.3518 12.4516C16.3653 12.4444 16.3803 12.4407 16.3957 12.4407C16.4111 12.4407 16.4263 12.4444 16.4398 12.4516C16.4492 12.4553 16.4578 12.4609 16.4651 12.4679C16.4723 12.475 16.478 12.4833 16.4818 12.4925C16.6451 12.9329 16.9299 13.3211 17.3052 13.6145C17.6804 13.9078 18.1315 14.095 18.609 14.1554C19.0893 14.0934 19.5424 13.9032 19.9179 13.6056C20.2936 13.3081 20.5768 12.915 20.7362 12.4702C20.7378 12.4645 20.7408 12.4592 20.7447 12.4548C20.7487 12.4502 20.7536 12.4466 20.7591 12.4441H20.7783C20.7918 12.437 20.8069 12.4332 20.8223 12.4332C20.8377 12.4332 20.8528 12.437 20.8662 12.4441C20.8779 12.453 20.8874 12.4643 20.8941 12.4771C20.9007 12.4901 20.9042 12.5042 20.9045 12.5186V13.6904C20.9045 13.789 20.9449 13.8837 21.0166 13.9534C21.0884 14.0232 21.1857 14.0624 21.2871 14.0624C21.3886 14.0624 21.4859 14.0232 21.5576 13.9534C21.6294 13.8837 21.6697 13.789 21.6697 13.6904V12.2024C21.67 12.1828 21.6764 12.1639 21.688 12.1479C21.6996 12.132 21.7159 12.1198 21.7347 12.1131C21.8106 12.0901 21.8807 12.0519 21.9405 12.0011C22.0002 11.9501 22.0484 11.8877 22.082 11.8176C22.1155 11.7476 22.1335 11.6715 22.135 11.5942C22.1365 11.517 22.1213 11.4403 22.0905 11.3691L21.7921 10.5879C21.7285 10.4423 21.6286 10.3145 21.5013 10.2159C21.4828 10.2008 21.4706 10.1796 21.4669 10.1564C21.4365 9.72662 21.3057 9.30931 21.0843 8.9362C21.0811 8.92522 21.0811 8.9136 21.0843 8.90269C21.0743 8.78557 21.0301 8.67357 20.957 8.57998C20.8837 8.48647 20.7846 8.41513 20.6711 8.37447L20.6367 8.35216C20.3713 8.09379 20.0561 7.88878 19.7092 7.74898C19.3622 7.6091 18.9903 7.53711 18.6148 7.53711C18.2391 7.53711 17.8673 7.6091 17.5204 7.74898C17.1734 7.88878 16.8582 8.09379 16.5928 8.35216L16.5584 8.37447C16.4452 8.41339 16.3461 8.48329 16.2728 8.57565C16.1996 8.66801 16.1552 8.779 16.1452 8.89526C16.1479 8.90623 16.1479 8.91771 16.1452 8.92876C15.9217 9.30368 15.7908 9.72388 15.7626 10.1564C15.7599 10.1809 15.7475 10.2036 15.7281 10.2196C15.6009 10.3182 15.501 10.4461 15.4374 10.5916L15.139 11.3728C15.1088 11.4441 15.0941 11.5206 15.0958 11.5978C15.0977 11.6748 15.1158 11.7507 15.1492 11.8206C15.1827 11.8905 15.2306 11.9529 15.2901 12.0039C15.3495 12.0549 15.4192 12.0933 15.4948 12.1168C15.5136 12.1235 15.5299 12.1357 15.5415 12.1516C15.5531 12.1676 15.5595 12.1866 15.5598 12.2061V13.6941C15.5598 13.7928 15.6001 13.8874 15.6719 13.9571C15.7436 14.0269 15.8409 14.0661 15.9424 14.0661C16.0439 14.0661 16.1412 14.0269 16.2129 13.9571C16.2846 13.8874 16.325 13.7928 16.325 13.6941L16.3135 13.6904ZM18.609 13.5974C18.2264 13.5974 17.1475 13.0431 17.006 12.2061C16.9874 12.1014 16.9428 12.0026 16.8762 11.9183C16.8095 11.834 16.7227 11.7668 16.6234 11.7225C16.5244 11.6092 16.4642 11.4688 16.4512 11.3207C16.4472 11.2982 16.4515 11.2749 16.4634 11.2552C16.4753 11.2354 16.4941 11.2205 16.5163 11.2128C17.8785 10.7962 19.3395 10.7962 20.7017 11.2128C20.724 11.2205 20.7427 11.2354 20.7546 11.2552C20.7665 11.2749 20.7708 11.2982 20.7668 11.3207C20.7519 11.4684 20.6919 11.6082 20.5946 11.7225C20.4953 11.7668 20.4085 11.834 20.3418 11.9183C20.2752 12.0026 20.2307 12.1014 20.212 12.2061C20.0705 13.0431 18.9916 13.5974 18.609 13.5974Z" fill="#E69F69"/>
</svg>
