<svg width="25" height="25" viewBox="0 0 25 25" fill="none" xmlns="http://www.w3.org/2000/svg">
<g clip-path="url(#clip0_7_527)">
<mask id="mask0_7_527" style="mask-type:luminance" maskUnits="userSpaceOnUse" x="0" y="0" width="25" height="25">
<path d="M24.8418 0.78125H0.841797V24.7812H24.8418V0.78125Z" fill="white"/>
</mask>
<g mask="url(#mask0_7_527)">
<mask id="mask1_7_527" style="mask-type:luminance" maskUnits="userSpaceOnUse" x="0" y="0" width="25" height="25">
<path d="M24.8418 0.78125H0.841797V24.7812H24.8418V0.78125Z" fill="white"/>
</mask>
<g mask="url(#mask1_7_527)">
<path d="M17.6923 10.9057L17.68 10.9286C17.5561 11.161 17.5632 11.4415 17.6988 11.6674C17.8343 11.8932 18.0785 12.0314 18.3419 12.0314H23.3419C23.6052 12.0314 23.8493 11.8933 23.9849 11.6675C24.1205 11.4417 24.1276 11.1613 24.0038 10.9288L23.9915 10.9058L23.9527 10.8336C23.9169 10.7668 23.8598 10.6608 23.7743 10.5028C23.6034 10.1869 23.3189 9.66258 22.864 8.82828C22.4141 8.00308 22.0578 7.48978 21.7923 7.16873C21.5621 6.89038 21.2245 6.70703 20.8419 6.70703C20.4592 6.70698 20.1217 6.89028 19.8914 7.16868C19.6258 7.48973 19.2696 8.00303 18.8197 8.82833C18.3649 9.66263 18.0805 10.1869 17.9095 10.5028C17.8241 10.6608 17.7669 10.7668 17.7311 10.8335L17.6923 10.9057Z" fill="#E69F69"/>
<path d="M7.99135 10.9057L8.0036 10.9286C8.12755 11.161 8.1204 11.4415 7.98485 11.6674C7.8493 11.8932 7.60515 12.0314 7.34175 12.0314H2.34179C2.07841 12.0314 1.83433 11.8933 1.69877 11.6675C1.5632 11.4417 1.55604 11.1613 1.67986 10.9288L1.69214 10.9058L1.73091 10.8336C1.76677 10.7668 1.8239 10.6608 1.90937 10.5028C2.0803 10.1869 2.3648 9.66258 2.81966 8.82828C3.26956 8.00308 3.62581 7.48978 3.89135 7.16873C4.12158 6.89038 4.45911 6.70703 4.84176 6.70703C5.22441 6.70698 5.56197 6.89028 5.79224 7.16868C6.0578 7.48973 6.4141 8.00303 6.86395 8.82833C7.3187 9.66263 7.6032 10.1869 7.77415 10.5028C7.8596 10.6608 7.91675 10.7668 7.9526 10.8335L7.99135 10.9057Z" fill="#E69F69"/>
<path d="M13.5918 5.53125H16.8418C17.0906 5.53125 17.3233 5.4078 17.4628 5.20172C17.6024 4.99564 17.6306 4.73378 17.5382 4.50271L17.1496 3.53125L17.5382 2.5598C17.6306 2.32873 17.6024 2.06686 17.4628 1.86078C17.3233 1.6547 17.0906 1.53125 16.8418 1.53125H12.8418C12.4276 1.53125 12.0918 1.86704 12.0918 2.28125V7.28125C12.0918 7.69545 12.4276 8.03125 12.8418 8.03125C13.256 8.03125 13.5918 7.69545 13.5918 7.28125V5.53125Z" fill="#E69F69"/>
<path d="M19.0297 11.5799C18.9108 11.854 18.6405 12.0313 18.3418 12.0313H7.34208C7.04328 12.0313 6.77263 11.8539 6.65373 11.5798C6.53478 11.3057 6.59013 10.9869 6.79423 10.7687L6.79503 10.7679L6.79628 10.7666L6.79928 10.7634L6.80758 10.7547C6.81413 10.7479 6.82308 10.739 6.83408 10.7278C6.85613 10.7056 6.88738 10.6742 6.93033 10.6328C7.01613 10.55 7.14808 10.4262 7.34148 10.2531C7.72803 9.90694 8.36298 9.36069 9.37013 8.54629C10.4037 7.71049 11.1955 7.21954 11.7458 6.93349C12.021 6.79044 12.236 6.69859 12.3907 6.64054C12.468 6.61149 12.5302 6.59094 12.5773 6.57669C12.6008 6.56954 12.6206 6.56399 12.6365 6.55974C12.6445 6.55759 12.6515 6.55579 12.6576 6.55429L12.666 6.55224L12.6697 6.55134L12.6714 6.55094L12.673 6.55039C12.7841 6.52474 12.8995 6.52494 13.0106 6.55059L13.0122 6.55094L13.0139 6.55134L13.0176 6.55224L13.026 6.55429C13.0321 6.55579 13.0391 6.55759 13.0471 6.55974C13.063 6.56399 13.0828 6.56954 13.1063 6.57669C13.1534 6.59099 13.2156 6.61154 13.2929 6.64054C13.4475 6.69859 13.6624 6.79049 13.9376 6.93354C14.4878 7.21954 15.2795 7.71049 16.3133 8.54624C17.3207 9.36064 17.9557 9.90694 18.3422 10.2531C18.5356 10.4263 18.6675 10.5501 18.7533 10.6329C18.7962 10.6743 18.8278 10.7057 18.8498 10.728C18.8609 10.7391 18.8695 10.7481 18.8761 10.7549L18.8844 10.7636L18.8874 10.7667L18.8886 10.7681L18.8897 10.7692C19.0937 10.9874 19.1487 11.3059 19.0297 11.5799Z" fill="#E69F69"/>
<path d="M1.5918 11.2812V22.5312C1.5918 23.3597 2.26337 24.0312 3.0918 24.0312H22.5918C23.4202 24.0312 24.0918 23.3597 24.0918 22.5312V11.2812C24.0918 11.0824 24.0128 10.8916 23.8721 10.7509C23.7315 10.6103 23.5407 10.5312 23.3418 10.5312H7.3418H2.34182C2.14291 10.5312 1.95213 10.6103 1.81148 10.7509C1.67082 10.8916 1.5918 11.0824 1.5918 11.2812Z" fill="#514AF3"/>
<path fill-rule="evenodd" clip-rule="evenodd" d="M4.8418 13.5312C4.42759 13.5312 4.0918 13.867 4.0918 14.2812V15.2812C4.0918 15.6955 4.42759 16.0312 4.8418 16.0312C5.25601 16.0312 5.5918 15.6955 5.5918 15.2812V14.2812C5.5918 13.867 5.25601 13.5312 4.8418 13.5312Z" fill="#E69F69"/>
<path d="M4.0918 19.2812C4.0918 18.867 4.42759 18.5312 4.8418 18.5312C5.25601 18.5312 5.5918 18.867 5.5918 19.2812V20.2812C5.5918 20.6955 5.25601 21.0312 4.8418 21.0312C4.42759 21.0312 4.0918 20.6955 4.0918 20.2812V19.2812Z" fill="#E69F69"/>
<path d="M10.0918 14.2812C10.0918 13.867 10.4276 13.5312 10.8418 13.5312C11.256 13.5312 11.5918 13.867 11.5918 14.2812V15.2812C11.5918 15.6955 11.256 16.0312 10.8418 16.0312C10.4276 16.0312 10.0918 15.6955 10.0918 15.2812V14.2812Z" fill="#E69F69"/>
<path d="M14.8418 13.5312C15.256 13.5312 15.5918 13.867 15.5918 14.2812V15.2812C15.5918 15.6955 15.256 16.0312 14.8418 16.0312C14.4276 16.0312 14.0918 15.6955 14.0918 15.2812V14.2812C14.0918 13.867 14.4276 13.5312 14.8418 13.5312Z" fill="#E69F69"/>
<path d="M21.5918 19.2812C21.5918 18.867 21.256 18.5312 20.8418 18.5312C20.4276 18.5312 20.0918 18.867 20.0918 19.2812V20.2812C20.0918 20.6955 20.4276 21.0312 20.8418 21.0312C21.256 21.0312 21.5918 20.6955 21.5918 20.2812V19.2812Z" fill="#E69F69"/>
<path d="M20.8418 13.5312C21.256 13.5312 21.5918 13.867 21.5918 14.2812V15.2812C21.5918 15.6955 21.256 16.0312 20.8418 16.0312C20.4276 16.0312 20.0918 15.6955 20.0918 15.2812V14.2812C20.0918 13.867 20.4276 13.5312 20.8418 13.5312Z" fill="#E69F69"/>
<path fill-rule="evenodd" clip-rule="evenodd" d="M16.0918 24.0312H9.5918V23.7812C9.5918 22.5252 9.6764 21.2756 9.7694 20.2799C9.91885 18.6794 11.2795 17.5312 12.8418 17.5312C14.4041 17.5312 15.7648 18.6794 15.9142 20.2799C16.0072 21.2756 16.0918 22.5252 16.0918 23.7812V24.0312Z" fill="#E69F69"/>
</g>
</g>
</g>
<defs>
<clipPath id="clip0_7_527">
<rect width="24" height="24" fill="white" transform="translate(0.841797 0.78125)"/>
</clipPath>
</defs>
</svg>
