<svg width="25" height="25" viewBox="0 0 25 25" fill="none" xmlns="http://www.w3.org/2000/svg">
<path d="M14.1768 8.11166H16.2908C16.3603 8.11202 16.4289 8.09658 16.4913 8.06653C16.5537 8.03649 16.6083 7.99264 16.6509 7.9384C16.6942 7.88543 16.725 7.82353 16.741 7.75725C16.757 7.69097 16.7577 7.622 16.7432 7.5554C16.4084 6.12582 15.6578 4.82414 14.5837 3.81062C13.5095 2.7971 12.1588 2.11598 10.6978 1.85112C9.23677 1.58626 7.72923 1.74922 6.36078 2.31994C4.99233 2.89067 3.8227 3.84423 2.99589 5.06324C2.16909 6.28225 1.72119 7.71349 1.70736 9.18075C1.69353 10.648 2.11436 12.0872 2.91804 13.3213C3.72172 14.5553 4.87317 15.5302 6.23062 16.126C7.58808 16.7218 9.09228 16.9124 10.558 16.6745C10.6657 16.6573 10.7637 16.603 10.8347 16.5212C10.9056 16.4394 10.945 16.3354 10.9458 16.2277V15.3158C10.9447 15.2483 10.9294 15.1818 10.9008 15.1206C10.8722 15.0593 10.8309 15.0047 10.7796 14.9601C10.7251 14.9189 10.6624 14.8895 10.5956 14.8738C10.5288 14.858 10.4594 14.8564 10.3919 14.8689C9.61529 15.0153 8.8164 15.001 8.04573 14.8267C7.27506 14.6525 6.54938 14.3222 5.91457 13.8567C5.84379 13.8053 5.78899 13.7353 5.75636 13.6548C5.72374 13.5742 5.71458 13.4862 5.72994 13.4007L6.01612 12.0055H6.32999C6.54054 12.0062 6.74841 11.9589 6.93737 11.8671C7.12633 11.7754 7.29127 11.6417 7.41931 11.4766C7.5512 11.3153 7.64254 11.1254 7.68586 10.9226C7.72918 10.7197 7.72326 10.5096 7.66856 10.3094L7.20699 8.48555C7.13701 8.18097 6.96296 7.90951 6.71411 7.71684C6.46527 7.52418 6.15683 7.42208 5.84072 7.42773H4.55753C4.47771 7.42394 4.39998 7.40125 4.3309 7.36158C4.26181 7.3219 4.2034 7.2664 4.16057 7.19975C4.12176 7.13153 4.10136 7.05459 4.10136 6.97633C4.10136 6.89808 4.12176 6.82114 4.16057 6.75292C4.51352 6.02535 5.01929 5.38039 5.64423 4.86096C6.26917 4.34152 6.99894 3.95952 7.78497 3.74039C8.571 3.52126 9.39526 3.47001 10.2029 3.59007C11.0105 3.71012 11.783 3.99872 12.469 4.43666C12.4932 4.45153 12.5118 4.4739 12.5218 4.5003C12.5318 4.52669 12.5327 4.55562 12.5244 4.58257C12.5149 4.60903 12.4974 4.63197 12.4743 4.64829C12.4512 4.6646 12.4235 4.67349 12.3951 4.67376C12.0862 4.67341 11.7862 4.77577 11.5434 4.96435C11.3006 5.15293 11.1291 5.41676 11.0565 5.71334L10.595 7.53716C10.5403 7.73734 10.5343 7.94747 10.5777 8.15036C10.621 8.35324 10.7123 8.5431 10.8442 8.70441C11.0008 8.90872 11.2165 9.06134 11.4627 9.14212C11.5351 9.15743 11.6101 9.1546 11.6811 9.13389C11.752 9.11319 11.8166 9.07526 11.8689 9.02357C12.173 8.72776 12.5337 8.49477 12.93 8.3382C13.3262 8.18162 13.7501 8.10461 14.1768 8.11166Z" fill="#514AF3"/>
<path d="M16.1811 14.7682L16.1812 14.7682L14.5422 16.7426L14.3487 16.6918C14.3487 16.6921 14.3486 16.6923 14.3486 16.6925C14.329 16.7672 14.3267 16.8455 14.3418 16.9212C14.3568 16.9969 14.3889 17.0684 14.4358 17.1299C14.4812 17.1899 14.5397 17.2389 14.6072 17.2727C14.6749 17.3067 14.7497 17.3243 14.8256 17.3239L14.826 17.3239L15.647 17.3179C15.7125 17.3188 15.7775 17.3063 15.838 17.2813C15.8995 17.2559 15.9549 17.218 16.0012 17.1705C16.0474 17.1229 16.0835 17.0665 16.1076 17.0048C16.1306 16.9461 16.1423 16.8835 16.1422 16.8205C16.1749 16.3 16.2479 15.783 16.3606 15.2744C16.3823 15.1822 16.3772 15.0855 16.3459 14.996C16.3143 14.9059 16.2573 14.8264 16.1811 14.7682Z" fill="#514AF3" stroke="white" stroke-width="0.4"/>
<path d="M19.7536 14.7453L19.7535 14.7454C20.3666 15.2262 20.8049 15.9032 21.0001 16.6682C21.0196 16.7429 21.0219 16.8211 21.0069 16.8968C20.9918 16.9725 20.9598 17.044 20.9128 17.1055C20.8675 17.1655 20.809 17.2145 20.7415 17.2483C20.6739 17.2822 20.5994 17.2998 20.5237 17.2995M19.7536 14.7453L20.5242 17.0995M19.7536 14.7453L19.7483 14.7414C19.6645 14.6801 19.5636 14.6467 19.4595 14.6467C19.3575 14.6467 19.2584 14.6788 19.1757 14.7378C19.0906 14.794 19.0257 14.8756 18.9892 14.9703C18.9523 15.0663 18.946 15.1716 18.9712 15.2712C19.0923 15.7828 19.1731 16.3036 19.2129 16.8287C19.2207 16.9543 19.2747 17.0733 19.3655 17.1611C19.457 17.2496 19.579 17.2997 19.7068 17.2995M19.7536 14.7453L19.7068 17.2995M20.5237 17.2995C20.5235 17.2995 20.5233 17.2995 20.5231 17.2995L20.5242 17.0995M20.5237 17.2995H20.5242V17.0995M20.5237 17.2995L19.7069 17.2995L19.7065 17.0995M20.5242 17.0995H19.7065M19.7065 17.0995V17.2995H19.7068M19.7065 17.0995L19.7068 17.2995" fill="#514AF3" stroke="white" stroke-width="0.4"/>
<path d="M17.1123 17.3426H17.1127L18.2421 17.3426L18.2425 17.3426C18.3112 17.3425 18.3791 17.3279 18.4419 17.3C18.5045 17.2722 18.5605 17.2317 18.6068 17.1814C18.6543 17.1299 18.6902 17.0689 18.7122 17.0026C18.7336 16.9383 18.7416 16.8704 18.7358 16.803C18.7022 15.9053 18.4765 15.026 18.0746 14.2279C18.0584 14.1839 18.031 14.1442 17.9943 14.1133C17.9498 14.0759 17.8941 14.0534 17.8351 14.0503L17.8351 14.05H17.8244H17.4833H17.3988L17.3399 14.1105C17.3144 14.1368 17.2947 14.1676 17.2815 14.2011C16.8753 15.0074 16.649 15.8964 16.6189 16.8035C16.6132 16.8707 16.6212 16.9385 16.6426 17.0026C16.6647 17.069 16.7006 17.1302 16.7483 17.1817L16.8951 17.0458L16.7477 17.181C16.794 17.2315 16.8501 17.2721 16.9129 17.3C16.9757 17.3279 17.0435 17.3425 17.1123 17.3426Z" fill="#514AF3" stroke="white" stroke-width="0.4"/>
<path d="M15.6019 20.3799L15.6019 20.3798C14.9872 19.9002 14.5483 19.2224 14.3548 18.4564C14.3354 18.3818 14.3331 18.3037 14.3481 18.228C14.3632 18.1523 14.3953 18.0809 14.4422 18.0194C14.4875 17.9594 14.546 17.9104 14.6135 17.8765C14.6811 17.8427 14.7556 17.8251 14.8313 17.8254M15.6019 20.3799L15.6542 17.8254M15.6019 20.3799L15.6068 20.3834M15.6019 20.3799L15.6068 20.3834M14.8313 17.8254C14.8315 17.8254 14.8317 17.8254 14.8319 17.8254L14.8309 18.0254V17.8254H14.8313ZM14.8313 17.8254H15.6542M15.6542 17.8254C15.6541 17.8254 15.6541 17.8254 15.654 17.8254L15.6544 18.0254V17.8254H15.6542ZM15.6068 20.3834C15.6905 20.4448 15.7914 20.4782 15.8955 20.4782C15.9988 20.4782 16.099 20.4453 16.1824 20.3848C16.2655 20.3263 16.3286 20.244 16.3644 20.1492C16.4005 20.0538 16.4074 19.9497 16.3845 19.8503L16.3845 19.8503M15.6068 20.3834L16.3845 19.8503M16.3845 19.8503L16.3839 19.8479M16.3845 19.8503L16.3839 19.8479M16.3839 19.8479C16.2598 19.3396 16.1808 18.8208 16.1481 18.2977L16.3839 19.8479Z" fill="#514AF3" stroke="white" stroke-width="0.4"/>
<path d="M18.0085 21.0757H17.8836H17.8366H17.6542H17.4719H17.347L17.2922 20.9635C16.8972 20.1554 16.6702 19.2718 16.6254 18.3689C16.6178 18.3002 16.6251 18.2305 16.647 18.1648C16.6691 18.0982 16.7057 18.0371 16.7545 17.9864C16.7989 17.9366 16.8531 17.8964 16.9139 17.8685C16.9765 17.8399 17.0446 17.8251 17.1135 17.8254M18.0085 21.0757L18.242 17.8254H17.1135M18.0085 21.0757L18.0633 20.9635C18.4583 20.1554 18.6853 19.2718 18.7301 18.3689L18.0085 21.0757ZM17.1135 17.8254C17.1137 17.8254 17.1138 17.8254 17.114 17.8254L17.1131 18.0254M17.1135 17.8254H17.1131V18.0254M17.1131 18.0254C17.0731 18.0252 17.0336 18.0337 16.9971 18.0504C16.9606 18.0671 16.9279 18.0916 16.9013 18.1222M17.1131 18.0254H18.2424C18.2824 18.0252 18.3219 18.0337 18.3584 18.0504C18.3949 18.0671 18.4276 18.0916 18.4542 18.1222H16.9013M16.9013 18.1222C16.8721 18.1518 16.85 18.188 16.8368 18.2279C16.8235 18.2678 16.8194 18.3104 16.8248 18.3522C16.8675 19.2305 17.0878 20.09 17.4719 20.8757L16.9013 18.1222Z" fill="#514AF3" stroke="white" stroke-width="0.4"/>
<path d="M23.0007 12.0769C22.9481 12.055 22.9031 12.0173 22.8717 11.9687C22.8402 11.9202 22.8237 11.8629 22.8243 11.8046V10.1585C22.8243 9.83756 22.7003 9.52971 22.4797 9.30273C22.2591 9.07576 21.9598 8.94824 21.6478 8.94824H14.0011C13.4551 8.94824 12.9315 9.17139 12.5454 9.5686C12.1593 9.96581 11.9424 10.5045 11.9424 11.0663V21.6565C11.9424 22.138 12.1283 22.5997 12.4592 22.9402C12.7902 23.2807 13.239 23.4719 13.707 23.4719H22.5302C22.8422 23.4719 23.1414 23.3444 23.362 23.1174C23.5826 22.8905 23.7066 22.5826 23.7066 22.2616V13.1843C23.7062 12.9491 23.6393 12.7191 23.5139 12.5225C23.3886 12.3258 23.2102 12.171 23.0007 12.0769ZM13.1188 11.0663C13.1188 10.8255 13.2118 10.5947 13.3772 10.4244C13.5427 10.2542 13.7671 10.1585 14.0011 10.1585H21.3537C21.4317 10.1585 21.5065 10.1904 21.5617 10.2472C21.6169 10.3039 21.6478 10.3809 21.6478 10.4611V11.6714C21.6478 11.7517 21.6169 11.8286 21.5617 11.8854C21.5065 11.9421 21.4317 11.974 21.3537 11.974H14.0011C13.7671 11.974 13.5427 11.8784 13.3772 11.7081C13.2118 11.5379 13.1188 11.307 13.1188 11.0663ZM17.6774 21.8078C16.8631 21.8078 16.067 21.5593 15.3899 21.0939C14.7128 20.6284 14.185 19.9668 13.8734 19.1928C13.5617 18.4187 13.4802 17.567 13.6391 16.7453C13.7979 15.9235 14.1901 15.1688 14.7659 14.5763C15.3418 13.9839 16.0754 13.5805 16.8741 13.417C17.6729 13.2536 18.5007 13.3374 19.2531 13.6581C20.0055 13.9787 20.6485 14.5216 21.101 15.2182C21.5534 15.9149 21.7949 16.7339 21.7949 17.5717C21.7949 18.6952 21.3611 19.7726 20.5889 20.567C19.8167 21.3615 18.7694 21.8078 17.6774 21.8078Z" fill="#E69F69"/>
<path d="M19.7021 17.8254V17.8254L20.5303 17.8314L20.5314 17.8314L20.53 18.0314C20.5742 18.0312 20.6179 18.0415 20.6577 18.0614C20.6975 18.0813 20.7323 18.1104 20.7594 18.1464L19.7021 17.8254ZM19.7021 17.8254L19.701 17.8254C19.5731 17.8252 19.4511 17.8753 19.3596 17.9637C19.2683 18.0521 19.2142 18.1718 19.2068 18.2981L19.2068 18.2982C19.1763 18.8232 19.0993 19.3442 18.9767 19.8547L18.9767 19.8547L18.9763 19.8564C18.9534 19.9557 18.9603 20.0599 18.9964 20.1553C19.0322 20.25 19.0953 20.3323 19.1784 20.3909L19.7021 17.8254ZM21.0127 18.2341C20.9976 18.1584 20.9656 18.0869 20.9187 18.0255L19.6359 20.2282C20.2152 19.7762 20.6296 19.1366 20.8123 18.4127L21.0057 18.4635C21.0058 18.4632 21.0059 18.4629 21.006 18.4626C21.0255 18.3879 21.0277 18.3097 21.0127 18.2341Z" fill="#514AF3" stroke="white" stroke-width="0.4"/>
</svg>
