<svg width="25" height="25" viewBox="0 0 25 25" fill="none" xmlns="http://www.w3.org/2000/svg">
<path d="M13.2533 9.87048C13.3932 9.80297 13.5108 9.69565 13.5917 9.56173C13.6727 9.42771 13.7136 9.2728 13.7094 9.11569V5.71525C13.7081 5.41931 13.6012 5.13376 13.4085 4.91156C13.2159 4.68925 12.9504 4.54516 12.6611 4.506H12.5891C12.5551 4.50249 12.5225 4.49024 12.4945 4.47033C12.4665 4.45042 12.444 4.42361 12.4291 4.39243C11.9221 3.59158 11.2247 2.93285 10.4013 2.47663C9.57781 2.0203 8.65457 1.78125 7.71623 1.78125C6.77789 1.78125 5.85454 2.0203 5.03108 2.47663C4.20762 2.93285 3.51036 3.59158 3.00328 4.39243C2.98839 4.42361 2.96585 4.45042 2.93791 4.47033C2.90986 4.49024 2.87729 4.50249 2.8432 4.506H2.75518C2.46599 4.54516 2.20053 4.68925 2.00787 4.91156C1.81522 5.13376 1.70833 5.41931 1.70703 5.71525V9.11569C1.70746 9.26251 1.74705 9.40649 1.82169 9.53219C1.89645 9.65801 2.00334 9.76085 2.13117 9.82989C2.13117 9.82989 2.13117 9.82989 2.13117 9.88667C2.32727 11.235 2.99486 12.4669 4.01216 13.3576C5.02935 14.2482 6.3284 14.7383 7.67222 14.7383C9.01603 14.7383 10.315 14.2482 11.3323 13.3576C12.3495 12.4669 13.0171 11.235 13.2133 9.88667L13.2533 9.87048ZM7.70814 13.1166C6.6835 13.1182 5.69727 12.7209 4.95298 12.0066C4.20859 11.2924 3.76277 10.3158 3.70744 9.27805L3.90742 9.13188C4.51936 8.73058 4.95072 8.10073 5.10767 7.37898L5.45176 5.81263C5.49329 5.62314 5.48963 5.42621 5.44087 5.23847C5.39211 5.05073 5.29988 4.87743 5.17174 4.73323L5.10767 4.66835C5.08534 4.64943 5.06732 4.6259 5.05492 4.59932C5.04251 4.57262 5.03593 4.54363 5.03572 4.51409C5.04305 4.45633 5.06819 4.40228 5.10767 4.35994C5.83232 3.7313 6.75459 3.38579 7.70814 3.38579C8.6618 3.38579 9.58406 3.7313 10.3087 4.35994C10.3493 4.40075 10.3724 4.45611 10.3727 4.51409C10.376 4.54319 10.3718 4.57273 10.3606 4.59975C10.3494 4.62678 10.3315 4.65041 10.3087 4.66835L10.2446 4.73323C10.1165 4.87743 10.0243 5.05073 9.97552 5.23847C9.92676 5.42621 9.92309 5.62314 9.96462 5.81263L10.3087 7.38708C10.4637 8.10314 10.8887 8.72938 11.4929 9.13188L11.693 9.27805C11.6378 10.313 11.1942 11.2873 10.4533 12.001C9.71232 12.7149 8.73008 13.114 7.70814 13.1166Z" fill="#514AF3"/>
<path d="M6.90802 5.4063H8.50834C8.61437 5.4063 8.7162 5.36352 8.79117 5.28737C8.86624 5.21134 8.90831 5.10806 8.90831 5.00051C8.90831 4.89286 8.86624 4.78969 8.79117 4.71354C8.7162 4.63739 8.61437 4.59473 8.50834 4.59473H6.90802C6.80187 4.59473 6.70015 4.63739 6.62508 4.71354C6.55 4.78969 6.50793 4.89286 6.50793 5.00051C6.50793 5.10806 6.55 5.21134 6.62508 5.28737C6.70015 5.36352 6.80187 5.4063 6.90802 5.4063Z" fill="#514AF3"/>
<path d="M6.90802 7.03032H8.50834C8.61437 7.03032 8.7162 6.98754 8.79117 6.9114C8.86624 6.83536 8.90831 6.73208 8.90831 6.62454C8.90831 6.51688 8.86624 6.41371 8.79117 6.33756C8.7162 6.26142 8.61437 6.21875 8.50834 6.21875H6.90802C6.80187 6.21875 6.70015 6.26142 6.62508 6.33756C6.55 6.41371 6.50793 6.51688 6.50793 6.62454C6.50793 6.73208 6.55 6.83536 6.62508 6.9114C6.70015 6.98754 6.80187 7.03032 6.90802 7.03032Z" fill="#514AF3"/>
<path d="M9.30895 9.88681C9.75078 9.88681 10.1091 9.52348 10.1091 9.07524C10.1091 8.62701 9.75078 8.26367 9.30895 8.26367C8.86702 8.26367 8.50879 8.62701 8.50879 9.07524C8.50879 9.52348 8.86702 9.88681 9.30895 9.88681Z" fill="#514AF3"/>
<path d="M6.10778 9.88681C6.5496 9.88681 6.90794 9.52348 6.90794 9.07524C6.90794 8.62701 6.5496 8.26367 6.10778 8.26367C5.66585 8.26367 5.30762 8.62701 5.30762 9.07524C5.30762 9.52348 5.66585 9.88681 6.10778 9.88681Z" fill="#514AF3"/>
<path d="M8.57229 10.7872H6.97197C6.85806 10.7856 6.74707 10.8234 6.65689 10.894C6.56682 10.9648 6.50307 11.0644 6.47589 11.1766C6.4446 11.2881 6.45216 11.4072 6.49735 11.5136C6.54255 11.6201 6.62259 11.7075 6.72398 11.761C6.83563 11.8228 6.95374 11.8718 7.07606 11.907C7.3015 11.9778 7.53622 12.0134 7.77213 12.0126C8.00825 12.0151 8.2433 11.9795 8.46831 11.907C8.58934 11.8754 8.70519 11.8262 8.81241 11.761C8.91315 11.7065 8.99319 11.6194 9.03958 11.5135C9.08596 11.4077 9.0961 11.2891 9.06838 11.1766C9.03882 11.0658 8.97432 10.9678 8.88479 10.8974C8.79526 10.8272 8.68555 10.7885 8.57229 10.7872Z" fill="#514AF3"/>
<path d="M11.4819 18.7938C11.4127 18.8644 11.3304 18.9206 11.2398 18.9588C11.1492 18.9971 11.052 19.0168 10.9539 19.0168C10.8557 19.0168 10.7585 18.9971 10.6679 18.9588C10.5773 18.9206 10.4951 18.8644 10.426 18.7938L9.80162 18.1674C9.73205 18.0973 9.67671 18.0138 9.63896 17.9219C9.6012 17.83 9.58179 17.7314 9.58179 17.6319C9.58179 17.5323 9.6012 17.4337 9.63896 17.3418C9.67671 17.2499 9.73205 17.1666 9.80162 17.0964C9.87055 17.0246 9.95328 16.9678 10.0446 16.9295C10.136 16.8913 10.2342 16.8725 10.333 16.8741C10.4308 16.8726 10.5279 16.8915 10.6182 16.9297C10.7085 16.968 10.7899 17.0248 10.8575 17.0964L11.4819 17.7228C11.5516 17.7929 11.6068 17.8764 11.6445 17.9683C11.6823 18.0602 11.7017 18.1588 11.7017 18.2583C11.7017 18.3579 11.6823 18.4565 11.6445 18.5484C11.6068 18.6403 11.5516 18.7236 11.4819 18.7938Z" fill="#E69F69"/>
<path d="M10.745 16.2606C10.605 16.1185 10.5264 15.9259 10.5264 15.7251C10.5264 15.5242 10.605 15.3317 10.745 15.1896C10.885 15.0475 11.075 14.9678 11.273 14.9678C11.471 14.9678 11.6609 15.0475 11.8009 15.1896L12.8901 16.2942C12.9595 16.3638 13.0147 16.4467 13.0523 16.538C13.0898 16.6293 13.1093 16.7273 13.1093 16.8264C13.1088 17.0282 13.0301 17.2217 12.8901 17.3652C12.7471 17.5016 12.5584 17.5775 12.3621 17.5775C12.1658 17.5775 11.9771 17.5016 11.8342 17.3652L10.745 16.2606Z" fill="#E69F69"/>
<path d="M14.2976 15.9379C14.2285 16.0086 14.1462 16.0647 14.0556 16.1029C13.965 16.1412 13.8678 16.1609 13.7696 16.1609C13.6715 16.1609 13.5743 16.1412 13.4837 16.1029C13.3931 16.0647 13.3109 16.0086 13.2417 15.9379L12.1526 14.8332C12.0829 14.7631 12.0277 14.6797 11.9899 14.5878C11.9522 14.4959 11.9327 14.3973 11.9327 14.2978C11.9327 14.1982 11.9522 14.0997 11.9899 14.0078C12.0277 13.9158 12.0829 13.8324 12.1526 13.7622C12.2212 13.6918 12.3028 13.6359 12.3929 13.5978C12.483 13.5596 12.5796 13.5399 12.6772 13.54C12.7758 13.5398 12.8736 13.5594 12.9647 13.5975C13.0559 13.6357 13.1387 13.6917 13.2085 13.7622L14.2976 14.8669C14.3673 14.937 14.4225 15.0204 14.4603 15.1124C14.498 15.2043 14.5175 15.3029 14.5175 15.4023C14.5175 15.5019 14.498 15.6005 14.4603 15.6924C14.4225 15.7844 14.3673 15.8678 14.2976 15.9379Z" fill="#E69F69"/>
<path d="M15.6853 14.3343C15.6892 14.4026 15.672 14.4702 15.6363 14.5282C15.6007 14.5861 15.5482 14.6314 15.4861 14.6577C15.3462 14.7227 15.1902 14.7434 15.0384 14.7169C14.8868 14.6906 14.7465 14.6182 14.6361 14.5095L14.0184 13.8764C13.9526 13.809 13.9005 13.7291 13.8651 13.6413C13.8299 13.5534 13.812 13.4593 13.8126 13.3645C13.8109 13.2642 13.8294 13.1647 13.8672 13.072C13.9048 12.9794 13.9608 12.8955 14.0317 12.8256C14.1746 12.6892 14.3635 12.6133 14.5597 12.6133C14.7559 12.6133 14.9447 12.6892 15.0876 12.8256L15.6787 13.4319C15.722 13.4759 15.7524 13.5315 15.7664 13.5921C15.7805 13.6527 15.7777 13.7162 15.7583 13.7754C15.7046 13.9566 15.6799 14.1453 15.6853 14.3343Z" fill="#E69F69"/>
<path d="M17.0186 16.7488C17.0791 16.6831 17.1125 16.5962 17.1116 16.5063C17.1121 16.4184 17.0787 16.3339 17.0186 16.2705L16.3147 15.5565C16.2564 15.4983 16.2031 15.4353 16.1553 15.368C16.1122 15.3088 16.0513 15.2657 15.9817 15.2451C15.9121 15.2244 15.8378 15.2273 15.7702 15.2535C15.6682 15.2947 15.5607 15.3197 15.4513 15.3275C15.3733 15.3363 15.3005 15.3717 15.245 15.4281C15.1894 15.4843 15.1545 15.5582 15.1458 15.6374C15.1144 15.9244 14.9853 16.1912 14.7806 16.3918C14.5796 16.5938 14.3178 16.7218 14.0368 16.7555C13.9586 16.7668 13.8864 16.804 13.8311 16.8612C13.7758 16.9184 13.7407 16.9926 13.7314 17.0721C13.6981 17.3552 13.5718 17.6186 13.3727 17.8198C13.1798 18.0168 12.9273 18.1427 12.6555 18.1768C12.5745 18.194 12.5004 18.2351 12.4424 18.2951C12.3845 18.355 12.3454 18.431 12.33 18.5135C12.2989 18.7919 12.1747 19.0509 11.9781 19.2477C11.7868 19.4471 11.5334 19.5731 11.2609 19.6046C11.1877 19.6122 11.1196 19.6456 11.0683 19.699L8.46505 22.3933C8.41985 22.4404 8.38889 22.4997 8.37595 22.5643C8.363 22.6287 8.36861 22.6956 8.39202 22.7569C8.41694 22.8184 8.45922 22.8712 8.51359 22.9083C8.56795 22.9454 8.63192 22.9655 8.6975 22.9658H10.7296C10.8135 22.9718 10.8966 22.9453 10.9621 22.8917L17.0186 16.7488Z" fill="#514AF3"/>
<path d="M19.2257 21.8844L20.0824 22.8543H14.2118C14.1276 22.8634 14.0429 22.8419 13.9728 22.7937L13.1161 21.8911C13.0548 21.827 13.0205 21.7412 13.0205 21.652C13.0205 21.5628 13.0548 21.477 13.1161 21.4129L17.5788 16.8865C17.641 16.8239 17.6904 16.7494 17.7242 16.6673C17.7578 16.5852 17.7752 16.4972 17.7752 16.4083C17.7752 16.3194 17.7578 16.2313 17.7242 16.1493C17.6904 16.0672 17.641 15.9927 17.5788 15.93L16.6291 14.9804C16.4532 14.7888 16.3574 14.5355 16.3619 14.2737C16.3665 14.012 16.471 13.7623 16.6535 13.5771C16.836 13.392 17.0823 13.286 17.3403 13.2814C17.5984 13.2767 17.8481 13.3739 18.037 13.5524L19.4449 14.9804C19.6919 15.2306 19.8878 15.5277 20.0214 15.8547C20.1552 16.1819 20.224 16.5324 20.224 16.8865C20.224 17.2406 20.1552 17.5912 20.0214 17.9182C19.8878 18.2454 19.6919 18.5425 19.4449 18.7927L19.2124 19.0285C18.8412 19.4091 18.6339 19.9238 18.6364 20.4592C18.6389 20.9947 18.8509 21.5073 19.2257 21.8844Z" fill="#E69F69"/>
<path d="M23.5953 10.1725C23.5837 10.113 23.5564 10.0577 23.5164 10.0127C23.4764 9.96759 23.425 9.93433 23.3679 9.91639C23.3108 9.89844 23.2498 9.89658 23.1917 9.91081C23.1336 9.92503 23.0803 9.9549 23.0376 9.99735L22.0547 11.0145C21.9998 11.0677 21.9304 11.1028 21.8554 11.1155L20.7995 11.23C20.75 11.2366 20.6996 11.2317 20.6524 11.2154C20.605 11.1991 20.5621 11.172 20.5268 11.1361C20.4915 11.1004 20.4648 11.0567 20.4487 11.0088C20.4327 10.9608 20.4277 10.9098 20.4343 10.8596L20.5472 9.7886C20.5596 9.71256 20.5944 9.64222 20.6468 9.58653L21.6297 8.58963C21.6714 8.54761 21.7015 8.4951 21.7167 8.43744C21.7319 8.37979 21.7317 8.31907 21.7162 8.26152C21.7007 8.20397 21.6703 8.15157 21.6283 8.10977C21.5862 8.06809 21.534 8.03833 21.4769 8.02378C21.2302 7.95485 20.9758 7.91864 20.7198 7.91602C19.9273 7.91602 19.1672 8.23537 18.6067 8.80384C18.0463 9.3722 17.7314 10.1432 17.7314 10.9471C17.7314 11.751 18.0463 12.5219 18.6067 13.0904C19.1672 13.6588 19.9273 13.9782 20.7198 13.9782C21.1781 13.9811 21.6309 13.8764 22.0426 13.6723C22.4543 13.4681 22.8138 13.1701 23.093 12.8014C23.3722 12.4328 23.5634 12.0036 23.6517 11.5476C23.74 11.0915 23.7231 10.6208 23.602 10.1725H23.5953Z" fill="#514AF3"/>
</svg>
