<svg width="25" height="25" viewBox="0 0 25 25" fill="none" xmlns="http://www.w3.org/2000/svg">
<g clip-path="url(#clip0_7_881)">
<path d="M19.267 17.5246C19.2663 17.4873 19.2559 17.4509 19.2369 17.4187C19.2181 17.3867 19.1912 17.36 19.159 17.3413C16.7656 16.0695 14.0803 15.4517 11.3732 15.5502C6.52049 15.5502 3.8034 17.0747 2.64838 17.9828C2.3879 18.1745 2.17672 18.4256 2.03221 18.7153C1.88783 19.0051 1.81421 19.3252 1.81749 19.649V21.7984C1.81749 21.9088 1.8612 22.0148 1.93919 22.0929C2.01705 22.1711 2.12277 22.2149 2.23286 22.2149H9.42048C9.46542 22.2149 9.50913 22.2004 9.54505 22.1733C9.58111 22.1463 9.60734 22.1082 9.6199 22.0649L10.9577 17.3081C10.9835 17.2175 11.038 17.1378 11.113 17.0811C11.188 17.0245 11.2792 16.9938 11.3732 16.9938C11.467 16.9938 11.5584 17.0245 11.6334 17.0811C11.7084 17.1378 11.7629 17.2175 11.7886 17.3081L13.143 22.0649C13.1556 22.1082 13.1818 22.1463 13.2179 22.1733C13.2538 22.2004 13.2975 22.2149 13.3424 22.2149H19.0759C19.1309 22.2149 19.1838 22.193 19.2227 22.154C19.2618 22.1149 19.2837 22.0619 19.2837 22.0066L19.267 17.5246Z" fill="#E69F69"/>
<path d="M17.1319 10.5519C17.2773 10.4826 17.3992 10.3725 17.4834 10.2348C17.5674 10.0973 17.6099 9.93833 17.6055 9.77701V6.28635C17.6043 5.9826 17.4932 5.68954 17.2931 5.46138C17.0931 5.23323 16.8174 5.08532 16.517 5.04506H16.4423C16.4069 5.0415 16.373 5.0289 16.3439 5.0085C16.3148 4.98809 16.2915 4.96056 16.276 4.92852C15.7495 4.10642 15.0254 3.43018 14.1702 2.96182C13.3151 2.49346 12.3563 2.24805 11.3818 2.24805C10.4075 2.24805 9.44862 2.49346 8.59342 2.96182C7.73835 3.43018 7.01428 4.10642 6.48772 4.92852C6.47228 4.96056 6.44892 4.98809 6.41983 5.0085C6.39074 5.0289 6.35686 5.0415 6.32148 5.04506H6.2301C5.92974 5.08532 5.6541 5.23323 5.45399 5.46138C5.25388 5.68954 5.14297 5.9826 5.1416 6.28635V9.77701C5.14201 9.92779 5.18312 10.0756 5.26071 10.2047C5.33829 10.3337 5.44934 10.4393 5.58197 10.5102C5.58197 10.5102 5.58197 10.5102 5.58197 10.5686C5.78577 11.9527 6.47897 13.2173 7.53538 14.1315C8.59164 15.0458 9.94063 15.5488 11.3362 15.5488C12.7316 15.5488 14.0806 15.0458 15.137 14.1315C16.1934 13.2173 16.8866 11.9527 17.0904 10.5686L17.1319 10.5519ZM11.3736 13.8842C10.3094 13.8857 9.2854 13.4779 8.51229 12.7448C7.73931 12.0116 7.2764 11.009 7.2189 9.94367L7.42665 9.79371C8.06208 9.38178 8.50996 8.73511 8.67305 7.99423L9.03038 6.38633C9.07354 6.19186 9.06958 5.98972 9.01904 5.79704C8.9685 5.60422 8.87262 5.42646 8.73957 5.27842L8.67305 5.21173C8.64983 5.19242 8.63112 5.16818 8.61828 5.14079C8.6053 5.11354 8.59847 5.08368 8.5982 5.05342C8.60585 4.99412 8.63208 4.93865 8.67305 4.8951C9.42554 4.24981 10.3833 3.89511 11.3736 3.89511C12.3638 3.89511 13.3216 4.24981 14.074 4.8951C14.1162 4.93701 14.1402 4.99398 14.1406 5.05342C14.144 5.08327 14.1397 5.11354 14.128 5.14134C14.1164 5.169 14.0978 5.19324 14.074 5.21173L14.0077 5.27842C13.8745 5.42646 13.7787 5.60422 13.7281 5.79704C13.6775 5.98972 13.6736 6.19186 13.7169 6.38633L14.074 8.00258C14.2351 8.73771 14.6764 9.38054 15.3039 9.79371L15.5115 9.94367C15.4543 11.0061 14.9937 12.0062 14.2242 12.739C13.4547 13.4717 12.4348 13.8815 11.3736 13.8842Z" fill="#514AF3"/>
<path d="M10.5425 5.96977H12.2042C12.3145 5.96977 12.4202 5.92595 12.4981 5.84775C12.5759 5.76969 12.6198 5.66369 12.6198 5.55318C12.6198 5.4428 12.5759 5.3368 12.4981 5.25874C12.4202 5.18054 12.3145 5.13672 12.2042 5.13672H10.5425C10.4322 5.13672 10.3265 5.18054 10.2487 5.25874C10.1707 5.3368 10.127 5.4428 10.127 5.55318C10.127 5.66369 10.1707 5.76969 10.2487 5.84775C10.3265 5.92595 10.4322 5.96977 10.5425 5.96977Z" fill="#514AF3"/>
<path d="M10.5425 7.63578H12.2042C12.3145 7.63578 12.4202 7.59196 12.4981 7.51377C12.5759 7.43571 12.6198 7.32971 12.6198 7.21919C12.6198 7.10881 12.5759 7.00281 12.4981 6.92475C12.4202 6.84656 12.3145 6.80273 12.2042 6.80273H10.5425C10.4322 6.80273 10.3265 6.84656 10.2487 6.92475C10.1707 7.00281 10.127 7.10881 10.127 7.21919C10.127 7.32971 10.1707 7.43571 10.2487 7.51377C10.3265 7.59196 10.4322 7.63578 10.5425 7.63578Z" fill="#514AF3"/>
<path d="M13.035 10.5684C13.4939 10.5684 13.866 10.1955 13.866 9.73539C13.866 9.27525 13.4939 8.90234 13.035 8.90234C12.5762 8.90234 12.2041 9.27525 12.2041 9.73539C12.2041 10.1955 12.5762 10.5684 13.035 10.5684Z" fill="#514AF3"/>
<path d="M9.71077 10.5684C10.1697 10.5684 10.5417 10.1955 10.5417 9.73539C10.5417 9.27525 10.1697 8.90234 9.71077 8.90234C9.25182 8.90234 8.87988 9.27525 8.87988 9.73539C8.87988 10.1955 9.25182 10.5684 9.71077 10.5684Z" fill="#514AF3"/>
<path d="M12.2707 11.4932H10.6089C10.4905 11.4917 10.3752 11.5305 10.2817 11.603C10.1881 11.6756 10.1219 11.7779 10.0937 11.8931C10.0612 12.0076 10.069 12.1297 10.116 12.239C10.1628 12.3483 10.246 12.438 10.3513 12.4929C10.4672 12.5563 10.5898 12.6067 10.7169 12.6429C10.951 12.7155 11.1948 12.752 11.4398 12.7512C11.685 12.7538 11.929 12.7172 12.1627 12.6429C12.2883 12.6103 12.4087 12.5599 12.52 12.4929C12.6248 12.437 12.7078 12.3476 12.7559 12.2389C12.8041 12.1303 12.8146 12.0085 12.7859 11.8931C12.7552 11.7793 12.6883 11.6786 12.5953 11.6065C12.5022 11.5343 12.3883 11.4946 12.2707 11.4932Z" fill="#514AF3"/>
<path d="M22.3571 19.6567V21.4146C22.3571 21.6355 22.4447 21.8474 22.6005 22.0037C22.7563 22.1598 22.9677 22.2476 23.188 22.2476C23.4085 22.2476 23.6198 22.1598 23.7756 22.0037C23.9315 21.8474 24.0189 21.6355 24.0189 21.4146V14.5416C24.0189 13.8234 23.7344 13.1347 23.228 12.627C22.7216 12.1192 22.0346 11.834 21.3185 11.834C20.6022 11.834 19.9153 12.1192 19.4089 12.627C18.9024 13.1347 18.6179 13.8234 18.6179 14.5416V15.1663C18.6179 15.3874 18.7055 15.5992 18.8613 15.7555C19.0172 15.9117 19.2285 15.9995 19.4488 15.9995C19.6693 15.9995 19.8806 15.9117 20.0364 15.7555C20.1923 15.5992 20.2798 15.3874 20.2798 15.1663V14.5416C20.2798 14.2653 20.3892 14.0005 20.584 13.8052C20.7788 13.6099 21.043 13.5002 21.3185 13.5002C21.5939 13.5002 21.8582 13.6099 22.0529 13.8052C22.2477 14.0005 22.3571 14.2653 22.3571 14.5416V19.6567Z" fill="#E69F69"/>
</g>
<defs>
<clipPath id="clip0_7_881">
<rect width="24" height="24" fill="white" transform="translate(0.707031 0.248047)"/>
</clipPath>
</defs>
</svg>
