<svg width="25" height="25" viewBox="0 0 25 25" fill="none" xmlns="http://www.w3.org/2000/svg">
<path fill-rule="evenodd" clip-rule="evenodd" d="M14.7829 8.25119C16.3354 9.09189 17.2424 10.726 17.3291 12.2561C17.3674 12.935 17.4009 13.6654 17.4285 14.3839C18.5889 14.4063 19.6681 14.4402 20.6815 14.487C21.3449 14.5176 22.0175 14.6563 22.6511 14.8962C22.622 12.121 22.2307 9.13696 21.8731 6.54041H15.0128C14.9364 7.09497 14.8585 7.66713 14.7829 8.25119ZM21.4765 3.57554C21.5239 3.968 21.5777 4.38104 21.6355 4.81108H15.2502C15.3082 4.38104 15.3619 3.968 15.4092 3.57554C15.4866 2.93607 15.926 2.36914 16.5861 2.149C18.0566 1.65867 18.8293 1.65867 20.2998 2.149C20.9598 2.36914 21.3993 2.93607 21.4765 3.57554ZM11.5936 20.6557V23.7715C12.2642 23.7779 12.9627 23.7812 13.6916 23.7812C16.3424 23.7812 18.5895 23.7391 20.5626 23.6481C22.0895 23.5776 23.4537 22.6301 23.6347 21.2399C23.6815 20.8807 23.707 20.5167 23.707 20.1471C23.707 19.7774 23.6815 19.4134 23.6347 19.0542C23.4537 17.664 22.0895 16.7165 20.5626 16.6461C18.9577 16.572 17.1714 16.5303 15.1341 16.5174C15.1041 15.2657 15.0476 13.7102 14.9717 12.368C14.8886 10.899 13.6951 9.68094 12.1009 9.86016C9.41003 10.1628 6.42827 11.3818 4.36139 12.5799C3.52336 13.0657 3.01757 13.8964 2.91131 14.7996C2.78489 15.8745 2.70703 16.9012 2.70703 18.1655C2.70703 19.096 2.7491 20.004 2.82178 20.8937C2.94148 22.3605 4.14841 23.5585 5.74925 23.6771C6.07092 23.701 6.40382 23.7205 6.74927 23.7359V20.6557C6.74927 19.4304 7.83364 18.4372 9.1714 18.4372C10.5092 18.4372 11.5936 19.4304 11.5936 20.6557Z" fill="#514AF3"/>
<path d="M3.41593 2.23255C2.7926 1.98535 2.07182 2.25457 1.80582 2.83373C1.53982 3.413 1.82948 4.08284 2.45282 4.33004C4.43648 5.11661 5.90103 4.70166 7.03614 4.38012L7.06481 4.37195C8.12647 4.07124 8.85469 3.87661 9.99814 4.33004C10.6215 4.57723 11.3422 4.30802 11.6082 3.72874C11.8742 3.14959 11.5846 2.47963 10.9612 2.23255C8.97758 1.44586 7.51303 1.86081 6.37792 2.18247L6.34925 2.19052C5.28759 2.49123 4.55937 2.68598 3.41593 2.23255Z" fill="#E69F69"/>
<path d="M1.80582 6.83376C2.07182 6.25448 2.7926 5.98538 3.41593 6.23246C4.55937 6.68589 5.28759 6.49126 6.34925 6.19055L6.37792 6.18238C7.51303 5.86084 8.97758 5.44589 10.9612 6.23246C11.5846 6.47966 11.8742 7.1495 11.6082 7.72877C11.3422 8.30793 10.6215 8.57715 9.99814 8.32995C8.85469 7.87652 8.12647 8.07127 7.06481 8.37198L7.03614 8.38003C5.90103 8.70169 4.43648 9.11664 2.45282 8.32995C1.82948 8.08288 1.53982 7.41291 1.80582 6.83376Z" fill="#E69F69"/>
</svg>
