<svg width="25" height="25" viewBox="0 0 25 25" fill="none" xmlns="http://www.w3.org/2000/svg">
<path fill-rule="evenodd" clip-rule="evenodd" d="M17.1439 1.78125C17.9859 1.78125 18.6299 2.44818 18.6299 3.32027V5.37226H9.71399V3.32027C9.71399 2.44818 10.358 1.78125 11.2 1.78125H17.1439ZM16.6486 14.0934C17.4907 14.0934 18.1345 13.4265 18.1345 12.5544V6.39832H10.2094V12.5544C10.2094 13.4265 10.8532 14.0934 11.6953 14.0934H16.6486ZM13.6766 9.47636V7.93734H14.6673V9.47636H16.1533V10.5024H14.6673V12.0414H13.6766V10.5024H12.1906V9.47636H13.6766ZM12.1906 4.34633V2.80731H13.1813V4.34633H12.1906ZM15.1626 2.80731V4.34633H16.1533V2.80731H15.1626Z" fill="#E69F69"/>
<path fill-rule="evenodd" clip-rule="evenodd" d="M21.7991 7.26105L20.8081 9.68057L20.6266 9.60231C20.3726 9.49272 20.0994 9.43689 19.8227 9.43787C19.5461 9.43884 19.2715 9.49662 19.0144 9.60804C18.7573 9.71946 18.523 9.88232 18.3247 10.0871C18.1266 10.292 17.9683 10.5349 17.8592 10.802L15.4835 16.6025L14.7405 16.2825C14.3649 16.1207 13.9292 16.3095 13.7675 16.7042C13.6058 17.0991 13.7794 17.5502 14.1551 17.712L17.014 18.9432L16.3706 20.5143L15.0005 19.9243C14.6249 19.7625 14.1892 19.9514 14.0275 20.3461C13.8658 20.7409 14.0394 21.1921 14.4151 21.3539L18.5173 23.1205C18.893 23.2822 19.3287 23.0935 19.4904 22.6987C19.652 22.304 19.4785 21.8527 19.1028 21.6909L17.7313 21.1003L18.3747 19.5292L21.2341 20.7607C21.6098 20.9224 22.0454 20.7336 22.2071 20.3388C22.3689 19.9441 22.1953 19.4929 21.8195 19.331L21.0762 19.0109L21.7498 17.3663L20.0368 16.6287C19.7551 16.5074 19.6249 16.169 19.7462 15.8729C19.8674 15.5768 20.1942 15.4351 20.476 15.5565L22.1889 16.2942L22.8754 14.6179L21.1625 13.8801C20.8808 13.7588 20.7506 13.4204 20.8718 13.1243C20.9931 12.8283 21.3199 12.6867 21.6016 12.808L23.3146 13.5456L23.4519 13.2105C23.5614 12.9435 23.6197 12.6576 23.6235 12.369C23.6273 12.0805 23.5767 11.795 23.4743 11.5287C23.3719 11.2625 23.2198 11.0209 23.0269 10.8177C22.8339 10.6145 22.4476 10.3865 22.3495 10.3443L22.1889 10.2751L22.1688 10.2664L23.1597 7.84691C23.3215 7.45219 23.1478 7.00103 22.7721 6.83914C22.3963 6.67738 21.9608 6.86621 21.7991 7.26105Z" fill="#514AF3"/>
<path fill-rule="evenodd" clip-rule="evenodd" d="M9.20001 12.4153L5.11652 14.788L3.51926 11.8973C3.23253 11.3467 3.1656 10.7033 3.33274 10.1029C3.50048 9.49985 3.89112 8.98773 4.42144 8.67542C4.95175 8.36323 5.58003 8.27558 6.1724 8.43088C6.76097 8.58533 7.26823 8.96762 7.58754 9.49729L9.20001 12.4153ZM12.1538 17.0111C12.4371 16.0158 12.3306 14.9466 11.8571 14.0306C11.8537 14.024 11.8503 14.0176 11.8467 14.0111L8.91684 8.70882C8.91268 8.70126 8.90828 8.6937 8.90388 8.68627C8.3763 7.80138 7.53285 7.16248 6.55293 6.90551C5.57302 6.64842 4.53401 6.79361 3.65681 7.30999C2.77972 7.82637 2.13361 8.67335 1.85615 9.67075C1.57857 10.668 1.69138 11.7371 2.1707 12.6505L2.1789 12.6655L4.14968 16.2323C4.15277 16.238 4.15574 16.2436 4.15883 16.2492L5.09096 17.9362L5.09833 17.9492L5.1019 17.9554C5.62497 18.8426 6.46473 19.4859 7.44286 19.7481C7.64733 19.8031 7.85442 19.8404 8.06222 19.8602C8.8486 19.9362 9.6445 19.7645 10.3403 19.3603C11.22 18.8492 11.8705 18.0065 12.1538 17.0111Z" fill="#514AF3"/>
</svg>
