<svg width="25" height="25" viewBox="0 0 25 25" fill="none" xmlns="http://www.w3.org/2000/svg">
<path fill-rule="evenodd" clip-rule="evenodd" d="M10.7044 1.92204L10.707 1.86719H8.47906C7.45767 1.86719 6.52468 1.89671 5.92293 1.92139C5.30224 1.94682 4.68332 2.16438 4.21647 2.59681C3.65756 3.11448 2.75333 4.04917 2.01323 5.27846C1.60496 5.95679 1.60496 6.77747 2.01323 7.45581C2.75333 8.6851 3.65756 9.61979 4.21647 10.1375C4.68332 10.5699 5.30224 10.7874 5.92281 10.8129C6.52468 10.8376 7.45767 10.8672 8.47906 10.8672H10.6157C10.6187 6.81077 10.6431 4.52599 10.6677 3.24497C10.6808 2.56125 10.694 2.15846 10.7044 1.92204ZM4.63315 4.94614C4.63315 4.55369 4.98249 4.23559 5.41348 4.23559H8.27457C8.70544 4.23559 9.05478 4.55369 9.05478 4.94614C9.05478 5.33848 8.70544 5.65658 8.27457 5.65658H5.41348C4.98249 5.65658 4.63315 5.33848 4.63315 4.94614ZM6.97402 7.07768C6.54314 7.07768 6.19369 7.39579 6.19369 7.78824C6.19369 8.18058 6.54314 8.49868 6.97402 8.49868H8.53468C8.96555 8.49868 9.31489 8.18058 9.31489 7.78824C9.31489 7.39579 8.96555 7.07768 8.53468 7.07768H6.97402Z" fill="#514AF3"/>
<path fill-rule="evenodd" clip-rule="evenodd" d="M14.7184 15.8672H16.874C17.9045 15.8672 18.846 15.8377 19.4532 15.813C20.0793 15.7876 20.7038 15.57 21.1749 15.1376C21.7388 14.6199 22.6513 13.6851 23.398 12.4558C23.81 11.7775 23.81 10.9569 23.398 10.2786C22.6513 9.04927 21.7388 8.11448 21.1749 7.59681C20.7038 7.16438 20.0793 6.94682 19.4532 6.92139C18.8459 6.89671 17.9045 6.86719 16.874 6.86719H14.707C14.714 8.11071 14.7184 9.63601 14.7184 11.5064V15.8672ZM20.7546 9.94614C20.7546 9.55379 20.4021 9.23559 19.9672 9.23559H17.0803C16.6455 9.23559 16.293 9.55379 16.293 9.94614C16.293 10.3386 16.6455 10.6567 17.0803 10.6567H19.9672C20.4021 10.6567 20.7546 10.3386 20.7546 9.94614ZM18.3926 12.0777C18.8274 12.0777 19.1799 12.3959 19.1799 12.7882C19.1799 13.1807 18.8274 13.4988 18.3926 13.4988H16.8179C16.383 13.4988 16.0305 13.1807 16.0305 12.7882C16.0305 12.3959 16.383 12.0777 16.8179 12.0777H18.3926Z" fill="#514AF3"/>
<path d="M13.8375 21.0833H16.7754C17.3994 21.0833 17.9053 21.6234 17.9053 22.2898C17.9053 22.956 17.3994 23.4961 16.7754 23.4961H8.63965C8.01552 23.4961 7.50964 22.956 7.50964 22.2898C7.50964 21.6234 8.01552 21.0833 8.63965 21.0833H11.5776V12.1561C11.5776 6.29301 11.6155 3.8818 11.6423 2.90908C11.6488 2.67504 11.6979 2.42728 11.8135 2.222C11.933 2.01002 12.1244 1.8447 12.393 1.80375C12.4865 1.78948 12.591 1.78125 12.7075 1.78125C12.8241 1.78125 12.9285 1.78948 13.022 1.80375C13.2907 1.8447 13.482 2.01002 13.6014 2.222C13.7171 2.42728 13.7662 2.67504 13.7727 2.90908C13.7995 3.8818 13.8375 6.29301 13.8375 12.1561V21.0833Z" fill="#E69F69"/>
</svg>
