<svg width="25" height="25" viewBox="0 0 25 25" fill="none" xmlns="http://www.w3.org/2000/svg">
<path d="M12.7116 22.0421C11.0538 22.0423 9.42711 21.5899 8.00494 20.7333C6.58278 19.8764 5.41856 18.6475 4.63645 17.1773C3.85435 15.7072 3.48375 14.0511 3.56422 12.3859C3.64454 10.7205 4.17298 9.10839 5.09314 7.72142C5.22558 7.51842 5.27297 7.27088 5.22499 7.03283C5.177 6.79494 5.03747 6.58556 4.83667 6.45057C4.73656 6.38122 4.6239 6.33266 4.5049 6.30757C4.38589 6.28262 4.26319 6.28158 4.14389 6.30475C4.02459 6.32791 3.91105 6.37469 3.80991 6.4424C3.70877 6.51012 3.62195 6.59744 3.55477 6.69916C2.44991 8.36456 1.81575 10.3005 1.71978 12.3002C1.62395 14.2999 2.06986 16.2883 3.01024 18.0527C3.95047 19.8173 5.3496 21.2919 7.05836 22.3189C8.76696 23.3461 10.721 23.8869 12.7116 23.8839C12.9545 23.8839 13.1873 23.787 13.359 23.6143C13.5307 23.4416 13.6273 23.2072 13.6273 22.9631C13.6273 22.7188 13.5307 22.4845 13.359 22.3118C13.1873 22.1391 12.9545 22.0421 12.7116 22.0421Z" fill="#514AF3"/>
<path d="M7.12572 5.32706C7.30526 5.32572 7.48037 5.27122 7.62935 5.17054C8.11394 4.84949 8.62554 4.57209 9.15856 4.34163C9.27388 4.29782 9.37915 4.23085 9.46803 4.14516C9.55692 4.05933 9.62779 3.95627 9.67622 3.84238C9.72465 3.72833 9.7496 3.60567 9.74975 3.48182C9.75005 3.35783 9.72524 3.23517 9.67726 3.12097C9.62912 3.00692 9.55854 2.90372 9.46995 2.81774C9.38122 2.73161 9.27624 2.66449 9.16107 2.62024C9.0459 2.57598 8.92321 2.55549 8.79992 2.56024C8.67678 2.56485 8.55585 2.5944 8.44438 2.64711C7.80387 2.91189 7.19053 3.23888 6.61308 3.62334C6.44121 3.73011 6.30951 3.89093 6.23805 4.08086C6.16658 4.27079 6.15964 4.47913 6.21811 4.67352C6.27658 4.86775 6.39736 5.03734 6.5614 5.15554C6.72559 5.27375 6.92403 5.33404 7.12572 5.32706Z" fill="#514AF3"/>
<path d="M12.7117 1.78125C12.4689 1.78125 12.236 1.87822 12.0643 2.05092C11.8926 2.22378 11.796 2.45796 11.796 2.70224C11.796 2.94652 11.8926 3.1807 12.0643 3.3534C12.236 3.52611 12.4689 3.62307 12.7117 3.62307C14.3696 3.62293 15.9962 4.07525 17.4185 4.93208C18.8407 5.78877 20.0049 7.01774 20.7869 8.48787C21.569 9.958 21.9396 11.6141 21.8592 13.2793C21.7788 14.9447 21.2503 16.5568 20.3302 17.9438C20.1977 18.1468 20.1503 18.3943 20.1983 18.6324C20.2463 18.8704 20.3858 19.0796 20.5867 19.2148C20.7342 19.3186 20.9103 19.3734 21.0903 19.3713C21.2418 19.3731 21.3913 19.3368 21.5257 19.2662C21.6599 19.1955 21.7746 19.0923 21.8594 18.966C22.9638 17.3014 23.598 15.3663 23.6942 13.3674C23.7905 11.3684 23.3453 9.38079 22.4061 7.61648C21.4669 5.85218 20.0691 4.37744 18.3617 3.34984C16.6544 2.32208 14.7016 1.77992 12.7117 1.78125Z" fill="#514AF3"/>
<path d="M17.8857 20.4299C17.3775 20.7906 16.8345 21.0992 16.265 21.3509C16.071 21.4339 15.9114 21.582 15.8132 21.7697C15.7151 21.9575 15.6844 22.1736 15.7265 22.3815C15.7684 22.5894 15.8805 22.7762 16.0437 22.9106C16.2068 23.045 16.4112 23.1186 16.622 23.1191C16.7446 23.1167 16.8656 23.0917 16.9792 23.0454C17.6609 22.7569 18.3113 22.399 18.9205 21.9771C19.1176 21.8377 19.2521 21.6259 19.2949 21.3874C19.3377 21.1491 19.2855 20.9032 19.1493 20.7033C19.0132 20.5034 18.8043 20.3655 18.5677 20.3194C18.3312 20.2735 18.0861 20.3231 17.8857 20.4575V20.4299Z" fill="#514AF3"/>
<path d="M14.3967 8.45836C14.2743 7.13865 13.6749 5.90983 12.7119 5.00488C11.7489 5.90983 11.1495 7.13865 11.0271 8.45836C11.0746 9.40845 11.4101 10.3213 11.9886 11.0739V11.5896C11.8436 11.3282 11.6615 11.0893 11.4483 10.8805C10.4213 10.0235 9.11944 9.57179 7.78557 9.60966C7.74541 10.95 8.19131 12.2592 9.04001 13.2933C9.85991 14.0275 10.9019 14.4623 11.9977 14.5275V16.2312C11.8443 15.9621 11.6565 15.7144 11.4392 15.4945C10.3854 14.6204 9.04975 14.165 7.68487 14.2143C7.63748 15.5885 8.09372 16.9321 8.96677 17.9901C9.80144 18.7491 10.8658 19.2032 11.9886 19.2796V20.2004C11.9886 20.3836 12.0609 20.5593 12.1897 20.6888C12.3184 20.8184 12.4931 20.8912 12.6753 20.8912C12.8575 20.8912 13.0322 20.8184 13.1609 20.6888C13.2897 20.5593 13.362 20.3836 13.362 20.2004V19.2796C14.5064 19.2252 15.5982 18.7802 16.457 18.0178C17.3301 16.9597 17.7863 15.6161 17.7391 14.2419C16.3764 14.2 15.0452 14.6583 13.994 15.5313C13.7459 15.7869 13.5334 16.075 13.362 16.3877V14.5459C14.4749 14.4831 15.535 14.0487 16.3747 13.3119C17.2234 12.2776 17.6693 10.9684 17.6291 9.62807C16.2952 9.59021 14.9934 10.0419 13.9663 10.8989C13.7257 11.1426 13.5191 11.4184 13.3529 11.7186V11.1845C13.9813 10.4111 14.347 9.45582 14.3967 8.45836Z" fill="#E69F69"/>
</svg>
