<svg width="25" height="25" viewBox="0 0 25 25" fill="none" xmlns="http://www.w3.org/2000/svg">
<path d="M2.80355 11.1411C3.66413 11.0619 5.02175 10.9717 6.73873 10.9717C8.4556 10.9717 9.81333 11.0619 10.6739 11.1411C11.2543 11.1944 11.5084 11.8373 11.1441 12.2615L10.2928 13.2526V17.8235C10.2928 19.0227 10.2718 20.0267 10.2433 20.8366C10.1881 22.4076 8.98218 23.7124 7.33376 23.7701C7.13976 23.7769 6.94068 23.7808 6.73873 23.7808C6.5434 23.7808 6.35093 23.7772 6.16299 23.7708C4.50487 23.7144 3.29199 22.3975 3.23555 20.8179C3.23191 20.7173 3.2285 20.6137 3.22508 20.5073H4.66967C4.99618 20.5073 5.26085 20.2524 5.26085 19.938C5.26085 19.6236 4.99618 19.3687 4.66967 19.3687H3.19763C3.19014 18.9281 3.1854 18.4533 3.18473 17.9455H3.19168H4.66967C4.99618 17.9455 5.26085 17.6906 5.26085 17.3762C5.26085 17.0618 4.99618 16.8069 4.66967 16.8069H3.19168H3.18473V15.3837H3.19168H4.66967C4.99618 15.3837 5.26085 15.1288 5.26085 14.8144C5.26085 14.5 4.99618 14.2451 4.66967 14.2451H3.19168H3.18473V13.2526L2.33341 12.2615C1.96909 11.8373 2.22318 11.1944 2.80355 11.1411Z" fill="#514AF3"/>
<path d="M16.2071 3.78125C15.8681 3.78125 15.6283 3.8529 15.4637 3.93896C15.2126 4.0701 15.144 4.3395 15.1344 4.54981C15.1114 5.05607 15.0703 6.28704 15.0557 8.82702C14.6305 8.58953 14.2459 8.37613 13.8989 8.18476L13.6621 6.25884C13.6096 5.83235 13.2143 5.52826 12.779 5.57963L12.4639 5.6169C12.0286 5.66826 11.7182 6.05563 11.7707 6.48212L11.8431 7.07074C11.5724 6.92785 11.3745 6.82563 11.2359 6.75512C11.0452 6.65815 10.7727 6.58166 10.5313 6.72907C10.3728 6.82574 10.1897 6.99343 10.0202 7.28104C9.85074 7.56876 9.79413 7.808 9.78784 7.99072C9.7783 8.26938 9.98211 8.46229 10.1632 8.57563C10.5991 8.84832 11.6666 9.49871 13.9042 10.781C13.4816 11.0232 13.1009 11.2427 12.7581 11.4415L10.9375 10.6795C10.5344 10.5108 10.068 10.6943 9.89572 11.0893L9.77106 11.3754C9.59881 11.7704 9.78606 12.2275 10.1892 12.3961L10.7456 12.629C10.484 12.7873 10.2947 12.9041 10.1631 12.9866C9.982 13.0998 9.77819 13.2927 9.78773 13.5715C9.79402 13.7541 9.85064 13.9934 10.0201 14.281C10.1896 14.5688 10.3728 14.7364 10.5311 14.833C10.7727 14.9804 11.0451 14.904 11.2358 14.8071C11.6948 14.5735 12.8033 13.9928 15.0557 12.7351C15.0584 13.2148 15.0622 13.6478 15.0665 14.0379L13.4825 15.202C13.1318 15.4597 13.0607 15.9473 13.3237 16.2909L13.5142 16.5398C13.7773 16.8834 14.2747 16.9531 14.6255 16.6953L15.1098 16.3395C15.1188 16.6407 15.1275 16.8597 15.1344 17.0127C15.144 17.223 15.2126 17.4924 15.4637 17.6235C15.6283 17.7096 15.8681 17.7813 16.2071 17.7813C16.5461 17.7813 16.7858 17.7096 16.9504 17.6235C17.2015 17.4924 17.2702 17.223 17.2798 17.0127C17.3029 16.5064 17.344 15.2754 17.3585 12.7352C17.7837 12.9727 18.1681 13.186 18.5152 13.3773L18.752 15.3035C18.8044 15.7299 19.1998 16.034 19.635 15.9827L19.9502 15.9454C20.3855 15.894 20.6958 15.5067 20.6434 15.0802L20.571 14.4912C20.8417 14.6342 21.0396 14.7365 21.1783 14.8071C21.369 14.904 21.6415 14.9804 21.8829 14.833C22.0412 14.7364 22.2245 14.5688 22.3939 14.281C22.5634 13.9934 22.62 13.7541 22.6262 13.5715C22.6359 13.2927 22.4321 13.0998 22.251 12.9866C21.8151 12.7138 20.7476 12.0634 18.5098 10.781C18.9323 10.5389 19.313 10.3194 19.6557 10.1207L21.4766 10.8827C21.8797 11.0515 22.3461 10.868 22.5183 10.473L22.643 10.1869C22.8152 9.79188 22.628 9.33482 22.2249 9.1661L21.6682 8.93315C21.9299 8.77482 22.1192 8.65799 22.2509 8.57563C22.432 8.46229 22.6358 8.26938 22.6262 7.99072C22.6199 7.808 22.5634 7.56876 22.3939 7.28104C22.2244 6.99343 22.0411 6.82574 21.8828 6.72907C21.6414 6.58166 21.3689 6.65815 21.1782 6.75512C20.7192 6.98869 19.6106 7.56928 17.3585 8.82691C17.3558 8.34741 17.3521 7.91454 17.3478 7.5244L18.9316 6.36054C19.2823 6.10278 19.3534 5.61525 19.0903 5.27163L18.8998 5.02272C18.6368 4.6791 18.1392 4.60941 17.7885 4.86718L17.3045 5.22294C17.2954 4.92174 17.2868 4.70278 17.2798 4.54981C17.2702 4.3395 17.2015 4.0701 16.9504 3.93896C16.7858 3.8529 16.5461 3.78125 16.2071 3.78125Z" fill="#E69F69"/>
<mask id="path-3-outside-1_7_802" maskUnits="userSpaceOnUse" x="3.07715" y="0.78125" width="9" height="10" fill="black">
<rect fill="white" x="3.07715" y="0.78125" width="9" height="10"/>
<path d="M10.7334 6.40444C10.7134 6.36782 10.6865 6.33548 10.6542 6.30942C10.6219 6.28328 10.5848 6.26397 10.5452 6.2524C10.5054 6.24083 10.4639 6.23737 10.4229 6.2421C10.3819 6.24684 10.3422 6.25978 10.3061 6.28009L9.82229 6.56386C9.79904 6.57789 9.77244 6.58527 9.74539 6.58527C9.71824 6.58527 9.69164 6.57789 9.66839 6.56386L9.07781 6.21951C9.05401 6.20484 9.03429 6.18426 9.02054 6.15975C9.00678 6.13515 8.99945 6.10746 8.99927 6.07922V5.14821C8.99945 5.11997 9.00678 5.09227 9.02054 5.06768C9.03429 5.04317 9.05401 5.02258 9.07781 5.00792L9.66839 4.65082C9.69164 4.63679 9.71824 4.62941 9.74539 4.62941C9.77244 4.62941 9.79904 4.63679 9.82229 4.65082L10.3061 4.92183C10.3518 4.94916 10.4039 4.96346 10.4569 4.96328C10.5134 4.96346 10.5689 4.94816 10.6175 4.91891C10.6662 4.88976 10.7062 4.84777 10.7334 4.79748C10.7534 4.76086 10.7661 4.7206 10.7708 4.67896C10.7754 4.63733 10.772 4.59515 10.7606 4.55489C10.7493 4.51462 10.7302 4.477 10.7045 4.44421C10.6788 4.4115 10.6469 4.38417 10.6108 4.36386L10.5009 4.33197C10.4887 4.32487 10.4786 4.31467 10.4714 4.30237C10.4643 4.29007 10.4603 4.27613 10.46 4.26183C10.4603 4.24789 10.4638 4.23423 10.4704 4.22202C10.4769 4.20981 10.4863 4.19943 10.4977 4.19168L10.57 4.1311C10.6425 4.08884 10.6954 4.01906 10.7172 3.93716C10.7391 3.85517 10.7279 3.7679 10.6862 3.69429C10.6446 3.62069 10.5758 3.56694 10.4951 3.5448C10.4144 3.52276 10.3284 3.53405 10.2559 3.57632L10.1742 3.62415C10.162 3.63034 10.1485 3.63353 10.1349 3.63353C10.1212 3.63353 10.1079 3.63034 10.0956 3.62415C10.0838 3.61686 10.0741 3.60657 10.0675 3.59418C10.0609 3.58188 10.0575 3.56803 10.0579 3.554V3.42647C10.0579 3.34193 10.0248 3.26085 9.96589 3.201C9.90698 3.14124 9.82709 3.10763 9.74376 3.10763C9.66042 3.10763 9.58053 3.14124 9.52162 3.201C9.46272 3.26085 9.4296 3.34193 9.4296 3.42647V3.98763C9.42861 4.01523 9.42092 4.04219 9.40716 4.06615C9.3935 4.09002 9.37423 4.11015 9.35107 4.12473L8.77307 4.45313C8.74809 4.46735 8.71995 4.47491 8.69136 4.47491C8.66277 4.47491 8.63463 4.46735 8.60966 4.45313L7.81803 3.94937C7.79523 3.93461 7.7765 3.91438 7.76329 3.89043C7.75017 3.86656 7.74302 3.83968 7.74266 3.81226V3.17458C7.74248 3.14707 7.74936 3.12002 7.76257 3.09597C7.77578 3.07192 7.79487 3.05178 7.81803 3.03748L8.29243 2.73777C8.35197 2.69015 8.3925 2.62226 8.40662 2.54666C8.42073 2.47105 8.40743 2.3928 8.36916 2.32638C8.33088 2.25995 8.27017 2.20982 8.19833 2.18522C8.12648 2.16062 8.04831 2.16323 7.97828 2.19255L7.87142 2.25951C7.8592 2.26569 7.84581 2.2689 7.83215 2.2689C7.81848 2.2689 7.80509 2.26569 7.79288 2.25951C7.7794 2.25392 7.76763 2.24476 7.75877 2.23299C7.7499 2.22121 7.74438 2.20726 7.74266 2.19255V2.10009C7.74266 2.01552 7.70954 1.93443 7.65064 1.87463C7.59174 1.81484 7.51175 1.78125 7.42851 1.78125C7.34517 1.78125 7.26528 1.81484 7.20628 1.87463C7.14738 1.93443 7.11436 2.01552 7.11436 2.10009V2.19255C7.11399 2.20683 7.1101 2.22079 7.10295 2.23307C7.09581 2.24536 7.08567 2.25557 7.07346 2.2627C7.06124 2.26888 7.04785 2.27209 7.03419 2.27209C7.02062 2.27209 7.00713 2.26888 6.99492 2.2627L6.88815 2.19574C6.85313 2.1684 6.81278 2.14886 6.7698 2.1384C6.72682 2.12794 6.68221 2.1268 6.63869 2.13506C6.59526 2.14332 6.55409 2.16078 6.51772 2.18631C6.48144 2.21185 6.45076 2.24487 6.42787 2.28323C6.40498 2.32159 6.39032 2.36443 6.3848 2.40893C6.37937 2.45343 6.38317 2.49861 6.39611 2.54151C6.40896 2.58441 6.43068 2.62406 6.45972 2.65788C6.48867 2.6917 6.52441 2.71892 6.56459 2.73777L7.03889 3.02792C7.06206 3.04222 7.08115 3.06235 7.09436 3.0864C7.10757 3.11045 7.11445 3.13751 7.11436 3.16502V3.8027C7.1139 3.83012 7.10675 3.85699 7.09363 3.88086C7.08042 3.90482 7.0617 3.92504 7.03889 3.9398L6.24727 4.44995C6.2223 4.46416 6.19416 4.47172 6.16556 4.47172C6.13697 4.47172 6.10883 4.46416 6.08386 4.44995L5.50269 4.11197C5.47953 4.0974 5.46035 4.07727 5.44659 4.0534C5.43293 4.02944 5.42524 4.00248 5.42416 3.97487V3.41371C5.42416 3.32918 5.39104 3.2481 5.33214 3.18825C5.27323 3.12849 5.19334 3.09487 5.11 3.09487C5.02667 3.09487 4.94677 3.12849 4.88787 3.18825C4.82897 3.2481 4.79585 3.32918 4.79585 3.41371V3.54125C4.79621 3.55528 4.79296 3.56913 4.78626 3.58142C4.77965 3.59381 4.76997 3.60411 4.75821 3.61139C4.74599 3.61759 4.73251 3.62078 4.71894 3.62078C4.70528 3.62078 4.6918 3.61759 4.67967 3.61139L4.60113 3.57632C4.52857 3.53405 4.44252 3.52276 4.36181 3.5448C4.2811 3.56694 4.21233 3.62069 4.17071 3.69429C4.129 3.7679 4.11787 3.85517 4.13968 3.93716C4.16148 4.01906 4.21441 4.08884 4.28698 4.1311L4.36859 4.17574C4.38 4.18349 4.38941 4.19387 4.39601 4.20608C4.40253 4.21828 4.40605 4.23195 4.40633 4.24589C4.40832 4.26383 4.40452 4.28196 4.39547 4.29754C4.38633 4.31303 4.37249 4.32514 4.35602 4.33197L4.24608 4.39255C4.17723 4.43337 4.12629 4.49923 4.10357 4.57684C4.08077 4.65437 4.08792 4.73781 4.12357 4.81024C4.15072 4.86052 4.19071 4.90252 4.23939 4.93167C4.28798 4.96091 4.34353 4.97621 4.39999 4.97603C4.45301 4.97621 4.50513 4.96191 4.55083 4.93458L5.03463 4.65082C5.05789 4.63679 5.08449 4.62941 5.11163 4.62941C5.13869 4.62941 5.16529 4.63679 5.18854 4.65082L5.77921 4.99516C5.80291 5.00983 5.82264 5.03042 5.83639 5.05492C5.85014 5.07952 5.85747 5.10721 5.85774 5.13545V6.05371C5.85747 6.08195 5.85014 6.10965 5.83639 6.13424C5.82264 6.15875 5.80291 6.17934 5.77921 6.194L5.18854 6.56386C5.16529 6.57789 5.13869 6.58527 5.11163 6.58527C5.08449 6.58527 5.05789 6.57789 5.03463 6.56386L4.55083 6.29284C4.4779 6.25057 4.39149 6.23937 4.31042 6.26187C4.22943 6.28428 4.16049 6.33839 4.11887 6.41236C4.07724 6.48643 4.06621 6.57415 4.08828 6.65641C4.11036 6.73858 4.16374 6.80855 4.23667 6.85081L4.34661 6.9114C4.35882 6.9185 4.36896 6.9287 4.37611 6.941C4.38325 6.9533 4.38714 6.96724 4.38751 6.98154C4.38723 6.99548 4.38371 7.00914 4.3771 7.02135C4.37059 7.03356 4.36118 7.04394 4.34978 7.05168L4.28698 7.08357C4.25043 7.10388 4.21821 7.1313 4.19225 7.16437C4.16628 7.19735 4.14701 7.23534 4.1356 7.27597C4.1242 7.3166 4.12095 7.35914 4.12583 7.40113C4.13081 7.44304 4.14393 7.48358 4.16438 7.52038C4.18492 7.55773 4.21261 7.59062 4.2459 7.61685C4.2792 7.64318 4.31738 7.6624 4.3581 7.67342C4.39882 7.68445 4.44134 7.687 4.48315 7.68099C4.52486 7.67497 4.56494 7.66049 4.60113 7.63835L4.68275 7.59053C4.69496 7.58433 4.70844 7.58114 4.72202 7.58114C4.73568 7.58114 4.74907 7.58433 4.76129 7.59053C4.77314 7.59781 4.78282 7.60811 4.78943 7.6205C4.79603 7.63279 4.79938 7.64664 4.79902 7.66067V7.78821C4.79902 7.87275 4.83213 7.95382 4.89104 8.01367C4.94994 8.07343 5.02984 8.10705 5.11317 8.10705C5.1965 8.10705 5.2764 8.07343 5.3353 8.01367C5.39421 7.95382 5.42732 7.87275 5.42732 7.78821V7.22705C5.42832 7.19944 5.4361 7.17248 5.44976 7.14852C5.46342 7.12465 5.4827 7.10452 5.50586 7.08995L6.08703 6.74879C6.112 6.73458 6.14014 6.72701 6.16873 6.72701C6.19732 6.72701 6.22546 6.73458 6.25044 6.74879L7.04206 7.24937C7.06477 7.26412 7.08359 7.28435 7.0968 7.30831C7.10992 7.33217 7.11707 7.35905 7.11743 7.38647V8.02415C7.11761 8.05166 7.11074 8.07872 7.09753 8.10277C7.08432 8.12682 7.06522 8.14695 7.04206 8.16125L6.56459 8.4769C6.52306 8.4943 6.48569 8.52045 6.45492 8.55379C6.42425 8.58704 6.40091 8.62658 6.38661 8.66976C6.37222 8.71294 6.36716 8.75876 6.37177 8.80412C6.3763 8.84949 6.39041 8.89331 6.41312 8.93266C6.43574 8.97202 6.46651 9.0059 6.50315 9.03223C6.53989 9.05847 6.58169 9.07651 6.62584 9.08498C6.66991 9.09345 6.71533 9.09217 6.75894 9.08133C6.80256 9.07049 6.84345 9.05036 6.87874 9.02212L6.98551 8.95516C6.99773 8.94897 7.01112 8.94578 7.02478 8.94578C7.03844 8.94578 7.05183 8.94897 7.06405 8.95516C7.07626 8.96227 7.0864 8.97247 7.09355 8.98477C7.10069 8.99707 7.10458 9.01101 7.10486 9.02531V9.11458C7.10486 9.19912 7.13797 9.2802 7.19688 9.34005C7.25578 9.39981 7.33576 9.43342 7.41901 9.43342C7.50234 9.43342 7.58224 9.39981 7.64114 9.34005C7.70014 9.2802 7.73316 9.19912 7.73316 9.11458V9.02212C7.73352 9.00782 7.73741 8.99388 7.74456 8.98158C7.75171 8.96928 7.76184 8.95908 7.77406 8.95197C7.78627 8.94578 7.79967 8.94259 7.81333 8.94259C7.8269 8.94259 7.84038 8.94578 7.8526 8.95197L7.95937 9.01893C8.03067 9.06229 8.11599 9.07523 8.19661 9.05491C8.27732 9.0346 8.34672 8.98267 8.38979 8.91052C8.4324 8.83965 8.44607 8.75466 8.42788 8.67367C8.40969 8.59269 8.3611 8.52209 8.29243 8.4769L7.81803 8.18676C7.79487 8.17246 7.77578 8.15232 7.76257 8.12827C7.74936 8.10422 7.74248 8.07717 7.74266 8.04966V7.41197C7.74302 7.38455 7.75017 7.35768 7.76329 7.33381C7.7765 7.30985 7.79523 7.28963 7.81803 7.27487L8.60966 6.77429C8.63463 6.76008 8.66277 6.75252 8.69136 6.75252C8.71995 6.75252 8.74809 6.76008 8.77307 6.77429L9.35423 7.11545C9.3774 7.13003 9.39667 7.15016 9.41033 7.17403C9.42399 7.19799 9.43168 7.22495 9.43277 7.25255V7.81371C9.43277 7.89825 9.46589 7.97933 9.52479 8.03918C9.58369 8.09894 9.66359 8.13255 9.74692 8.13255C9.83026 8.13255 9.91015 8.09894 9.96906 8.03918C10.028 7.97933 10.0611 7.89825 10.0611 7.81371V7.68618C10.0607 7.67215 10.064 7.6583 10.0707 7.646C10.0773 7.63361 10.087 7.62332 10.0988 7.61603C10.1109 7.60984 10.1244 7.60665 10.1381 7.60665C10.1516 7.60665 10.1651 7.60984 10.1773 7.61603L10.259 7.66386C10.2965 7.68454 10.3378 7.6972 10.3802 7.70112C10.4227 7.70503 10.4655 7.70012 10.5062 7.68672C10.5467 7.67324 10.5842 7.65165 10.6162 7.62305C10.6482 7.59444 10.6742 7.55946 10.6925 7.52038C10.713 7.48358 10.7261 7.44304 10.7311 7.40113C10.7361 7.35914 10.7327 7.3166 10.7213 7.27597C10.7099 7.23534 10.6906 7.19735 10.6647 7.16437C10.6387 7.1313 10.6065 7.10388 10.57 7.08357L10.4883 7.03893C10.4769 7.03119 10.4675 7.0208 10.461 7.0086C10.4544 6.99639 10.4509 6.98272 10.4506 6.96879C10.4509 6.95448 10.4548 6.94055 10.462 6.92825C10.4691 6.91595 10.4793 6.90575 10.4915 6.89864L10.6014 6.83806C10.6383 6.81857 10.671 6.79188 10.6977 6.75944C10.7244 6.72701 10.7444 6.68957 10.7567 6.64922C10.7689 6.60886 10.7733 6.5665 10.7692 6.5245C10.7652 6.48242 10.753 6.44161 10.7334 6.40444ZM7.51012 6.70734C7.48569 6.72291 7.45737 6.73111 7.42851 6.73111C7.39955 6.73111 7.37123 6.72291 7.3468 6.70734L6.56142 6.21313C6.53853 6.19938 6.51953 6.17979 6.50632 6.15629C6.49311 6.13279 6.48605 6.10628 6.48605 6.07922V5.1227C6.48605 5.09564 6.49311 5.06913 6.50632 5.04563C6.51953 5.02213 6.53853 5.00254 6.56142 4.98879L7.3468 4.49458C7.37123 4.47901 7.39955 4.47081 7.42851 4.47081C7.45737 4.47081 7.48569 4.47901 7.51012 4.49458L8.2955 4.98879C8.3184 5.00254 8.3374 5.02213 8.35061 5.04563C8.36382 5.06913 8.37088 5.09564 8.37097 5.1227V6.07922C8.37088 6.10628 8.36382 6.13279 8.35061 6.15629C8.3374 6.17979 8.3184 6.19938 8.2955 6.21313L7.51012 6.70734Z"/>
</mask>
<path d="M10.7334 6.40444C10.7134 6.36782 10.6865 6.33548 10.6542 6.30942C10.6219 6.28328 10.5848 6.26397 10.5452 6.2524C10.5054 6.24083 10.4639 6.23737 10.4229 6.2421C10.3819 6.24684 10.3422 6.25978 10.3061 6.28009L9.82229 6.56386C9.79904 6.57789 9.77244 6.58527 9.74539 6.58527C9.71824 6.58527 9.69164 6.57789 9.66839 6.56386L9.07781 6.21951C9.05401 6.20484 9.03429 6.18426 9.02054 6.15975C9.00678 6.13515 8.99945 6.10746 8.99927 6.07922V5.14821C8.99945 5.11997 9.00678 5.09227 9.02054 5.06768C9.03429 5.04317 9.05401 5.02258 9.07781 5.00792L9.66839 4.65082C9.69164 4.63679 9.71824 4.62941 9.74539 4.62941C9.77244 4.62941 9.79904 4.63679 9.82229 4.65082L10.3061 4.92183C10.3518 4.94916 10.4039 4.96346 10.4569 4.96328C10.5134 4.96346 10.5689 4.94816 10.6175 4.91891C10.6662 4.88976 10.7062 4.84777 10.7334 4.79748C10.7534 4.76086 10.7661 4.7206 10.7708 4.67896C10.7754 4.63733 10.772 4.59515 10.7606 4.55489C10.7493 4.51462 10.7302 4.477 10.7045 4.44421C10.6788 4.4115 10.6469 4.38417 10.6108 4.36386L10.5009 4.33197C10.4887 4.32487 10.4786 4.31467 10.4714 4.30237C10.4643 4.29007 10.4603 4.27613 10.46 4.26183C10.4603 4.24789 10.4638 4.23423 10.4704 4.22202C10.4769 4.20981 10.4863 4.19943 10.4977 4.19168L10.57 4.1311C10.6425 4.08884 10.6954 4.01906 10.7172 3.93716C10.7391 3.85517 10.7279 3.7679 10.6862 3.69429C10.6446 3.62069 10.5758 3.56694 10.4951 3.5448C10.4144 3.52276 10.3284 3.53405 10.2559 3.57632L10.1742 3.62415C10.162 3.63034 10.1485 3.63353 10.1349 3.63353C10.1212 3.63353 10.1079 3.63034 10.0956 3.62415C10.0838 3.61686 10.0741 3.60657 10.0675 3.59418C10.0609 3.58188 10.0575 3.56803 10.0579 3.554V3.42647C10.0579 3.34193 10.0248 3.26085 9.96589 3.201C9.90698 3.14124 9.82709 3.10763 9.74376 3.10763C9.66042 3.10763 9.58053 3.14124 9.52162 3.201C9.46272 3.26085 9.4296 3.34193 9.4296 3.42647V3.98763C9.42861 4.01523 9.42092 4.04219 9.40716 4.06615C9.3935 4.09002 9.37423 4.11015 9.35107 4.12473L8.77307 4.45313C8.74809 4.46735 8.71995 4.47491 8.69136 4.47491C8.66277 4.47491 8.63463 4.46735 8.60966 4.45313L7.81803 3.94937C7.79523 3.93461 7.7765 3.91438 7.76329 3.89043C7.75017 3.86656 7.74302 3.83968 7.74266 3.81226V3.17458C7.74248 3.14707 7.74936 3.12002 7.76257 3.09597C7.77578 3.07192 7.79487 3.05178 7.81803 3.03748L8.29243 2.73777C8.35197 2.69015 8.3925 2.62226 8.40662 2.54666C8.42073 2.47105 8.40743 2.3928 8.36916 2.32638C8.33088 2.25995 8.27017 2.20982 8.19833 2.18522C8.12648 2.16062 8.04831 2.16323 7.97828 2.19255L7.87142 2.25951C7.8592 2.26569 7.84581 2.2689 7.83215 2.2689C7.81848 2.2689 7.80509 2.26569 7.79288 2.25951C7.7794 2.25392 7.76763 2.24476 7.75877 2.23299C7.7499 2.22121 7.74438 2.20726 7.74266 2.19255V2.10009C7.74266 2.01552 7.70954 1.93443 7.65064 1.87463C7.59174 1.81484 7.51175 1.78125 7.42851 1.78125C7.34517 1.78125 7.26528 1.81484 7.20628 1.87463C7.14738 1.93443 7.11436 2.01552 7.11436 2.10009V2.19255C7.11399 2.20683 7.1101 2.22079 7.10295 2.23307C7.09581 2.24536 7.08567 2.25557 7.07346 2.2627C7.06124 2.26888 7.04785 2.27209 7.03419 2.27209C7.02062 2.27209 7.00713 2.26888 6.99492 2.2627L6.88815 2.19574C6.85313 2.1684 6.81278 2.14886 6.7698 2.1384C6.72682 2.12794 6.68221 2.1268 6.63869 2.13506C6.59526 2.14332 6.55409 2.16078 6.51772 2.18631C6.48144 2.21185 6.45076 2.24487 6.42787 2.28323C6.40498 2.32159 6.39032 2.36443 6.3848 2.40893C6.37937 2.45343 6.38317 2.49861 6.39611 2.54151C6.40896 2.58441 6.43068 2.62406 6.45972 2.65788C6.48867 2.6917 6.52441 2.71892 6.56459 2.73777L7.03889 3.02792C7.06206 3.04222 7.08115 3.06235 7.09436 3.0864C7.10757 3.11045 7.11445 3.13751 7.11436 3.16502V3.8027C7.1139 3.83012 7.10675 3.85699 7.09363 3.88086C7.08042 3.90482 7.0617 3.92504 7.03889 3.9398L6.24727 4.44995C6.2223 4.46416 6.19416 4.47172 6.16556 4.47172C6.13697 4.47172 6.10883 4.46416 6.08386 4.44995L5.50269 4.11197C5.47953 4.0974 5.46035 4.07727 5.44659 4.0534C5.43293 4.02944 5.42524 4.00248 5.42416 3.97487V3.41371C5.42416 3.32918 5.39104 3.2481 5.33214 3.18825C5.27323 3.12849 5.19334 3.09487 5.11 3.09487C5.02667 3.09487 4.94677 3.12849 4.88787 3.18825C4.82897 3.2481 4.79585 3.32918 4.79585 3.41371V3.54125C4.79621 3.55528 4.79296 3.56913 4.78626 3.58142C4.77965 3.59381 4.76997 3.60411 4.75821 3.61139C4.74599 3.61759 4.73251 3.62078 4.71894 3.62078C4.70528 3.62078 4.6918 3.61759 4.67967 3.61139L4.60113 3.57632C4.52857 3.53405 4.44252 3.52276 4.36181 3.5448C4.2811 3.56694 4.21233 3.62069 4.17071 3.69429C4.129 3.7679 4.11787 3.85517 4.13968 3.93716C4.16148 4.01906 4.21441 4.08884 4.28698 4.1311L4.36859 4.17574C4.38 4.18349 4.38941 4.19387 4.39601 4.20608C4.40253 4.21828 4.40605 4.23195 4.40633 4.24589C4.40832 4.26383 4.40452 4.28196 4.39547 4.29754C4.38633 4.31303 4.37249 4.32514 4.35602 4.33197L4.24608 4.39255C4.17723 4.43337 4.12629 4.49923 4.10357 4.57684C4.08077 4.65437 4.08792 4.73781 4.12357 4.81024C4.15072 4.86052 4.19071 4.90252 4.23939 4.93167C4.28798 4.96091 4.34353 4.97621 4.39999 4.97603C4.45301 4.97621 4.50513 4.96191 4.55083 4.93458L5.03463 4.65082C5.05789 4.63679 5.08449 4.62941 5.11163 4.62941C5.13869 4.62941 5.16529 4.63679 5.18854 4.65082L5.77921 4.99516C5.80291 5.00983 5.82264 5.03042 5.83639 5.05492C5.85014 5.07952 5.85747 5.10721 5.85774 5.13545V6.05371C5.85747 6.08195 5.85014 6.10965 5.83639 6.13424C5.82264 6.15875 5.80291 6.17934 5.77921 6.194L5.18854 6.56386C5.16529 6.57789 5.13869 6.58527 5.11163 6.58527C5.08449 6.58527 5.05789 6.57789 5.03463 6.56386L4.55083 6.29284C4.4779 6.25057 4.39149 6.23937 4.31042 6.26187C4.22943 6.28428 4.16049 6.33839 4.11887 6.41236C4.07724 6.48643 4.06621 6.57415 4.08828 6.65641C4.11036 6.73858 4.16374 6.80855 4.23667 6.85081L4.34661 6.9114C4.35882 6.9185 4.36896 6.9287 4.37611 6.941C4.38325 6.9533 4.38714 6.96724 4.38751 6.98154C4.38723 6.99548 4.38371 7.00914 4.3771 7.02135C4.37059 7.03356 4.36118 7.04394 4.34978 7.05168L4.28698 7.08357C4.25043 7.10388 4.21821 7.1313 4.19225 7.16437C4.16628 7.19735 4.14701 7.23534 4.1356 7.27597C4.1242 7.3166 4.12095 7.35914 4.12583 7.40113C4.13081 7.44304 4.14393 7.48358 4.16438 7.52038C4.18492 7.55773 4.21261 7.59062 4.2459 7.61685C4.2792 7.64318 4.31738 7.6624 4.3581 7.67342C4.39882 7.68445 4.44134 7.687 4.48315 7.68099C4.52486 7.67497 4.56494 7.66049 4.60113 7.63835L4.68275 7.59053C4.69496 7.58433 4.70844 7.58114 4.72202 7.58114C4.73568 7.58114 4.74907 7.58433 4.76129 7.59053C4.77314 7.59781 4.78282 7.60811 4.78943 7.6205C4.79603 7.63279 4.79938 7.64664 4.79902 7.66067V7.78821C4.79902 7.87275 4.83213 7.95382 4.89104 8.01367C4.94994 8.07343 5.02984 8.10705 5.11317 8.10705C5.1965 8.10705 5.2764 8.07343 5.3353 8.01367C5.39421 7.95382 5.42732 7.87275 5.42732 7.78821V7.22705C5.42832 7.19944 5.4361 7.17248 5.44976 7.14852C5.46342 7.12465 5.4827 7.10452 5.50586 7.08995L6.08703 6.74879C6.112 6.73458 6.14014 6.72701 6.16873 6.72701C6.19732 6.72701 6.22546 6.73458 6.25044 6.74879L7.04206 7.24937C7.06477 7.26412 7.08359 7.28435 7.0968 7.30831C7.10992 7.33217 7.11707 7.35905 7.11743 7.38647V8.02415C7.11761 8.05166 7.11074 8.07872 7.09753 8.10277C7.08432 8.12682 7.06522 8.14695 7.04206 8.16125L6.56459 8.4769C6.52306 8.4943 6.48569 8.52045 6.45492 8.55379C6.42425 8.58704 6.40091 8.62658 6.38661 8.66976C6.37222 8.71294 6.36716 8.75876 6.37177 8.80412C6.3763 8.84949 6.39041 8.89331 6.41312 8.93266C6.43574 8.97202 6.46651 9.0059 6.50315 9.03223C6.53989 9.05847 6.58169 9.07651 6.62584 9.08498C6.66991 9.09345 6.71533 9.09217 6.75894 9.08133C6.80256 9.07049 6.84345 9.05036 6.87874 9.02212L6.98551 8.95516C6.99773 8.94897 7.01112 8.94578 7.02478 8.94578C7.03844 8.94578 7.05183 8.94897 7.06405 8.95516C7.07626 8.96227 7.0864 8.97247 7.09355 8.98477C7.10069 8.99707 7.10458 9.01101 7.10486 9.02531V9.11458C7.10486 9.19912 7.13797 9.2802 7.19688 9.34005C7.25578 9.39981 7.33576 9.43342 7.41901 9.43342C7.50234 9.43342 7.58224 9.39981 7.64114 9.34005C7.70014 9.2802 7.73316 9.19912 7.73316 9.11458V9.02212C7.73352 9.00782 7.73741 8.99388 7.74456 8.98158C7.75171 8.96928 7.76184 8.95908 7.77406 8.95197C7.78627 8.94578 7.79967 8.94259 7.81333 8.94259C7.8269 8.94259 7.84038 8.94578 7.8526 8.95197L7.95937 9.01893C8.03067 9.06229 8.11599 9.07523 8.19661 9.05491C8.27732 9.0346 8.34672 8.98267 8.38979 8.91052C8.4324 8.83965 8.44607 8.75466 8.42788 8.67367C8.40969 8.59269 8.3611 8.52209 8.29243 8.4769L7.81803 8.18676C7.79487 8.17246 7.77578 8.15232 7.76257 8.12827C7.74936 8.10422 7.74248 8.07717 7.74266 8.04966V7.41197C7.74302 7.38455 7.75017 7.35768 7.76329 7.33381C7.7765 7.30985 7.79523 7.28963 7.81803 7.27487L8.60966 6.77429C8.63463 6.76008 8.66277 6.75252 8.69136 6.75252C8.71995 6.75252 8.74809 6.76008 8.77307 6.77429L9.35423 7.11545C9.3774 7.13003 9.39667 7.15016 9.41033 7.17403C9.42399 7.19799 9.43168 7.22495 9.43277 7.25255V7.81371C9.43277 7.89825 9.46589 7.97933 9.52479 8.03918C9.58369 8.09894 9.66359 8.13255 9.74692 8.13255C9.83026 8.13255 9.91015 8.09894 9.96906 8.03918C10.028 7.97933 10.0611 7.89825 10.0611 7.81371V7.68618C10.0607 7.67215 10.064 7.6583 10.0707 7.646C10.0773 7.63361 10.087 7.62332 10.0988 7.61603C10.1109 7.60984 10.1244 7.60665 10.1381 7.60665C10.1516 7.60665 10.1651 7.60984 10.1773 7.61603L10.259 7.66386C10.2965 7.68454 10.3378 7.6972 10.3802 7.70112C10.4227 7.70503 10.4655 7.70012 10.5062 7.68672C10.5467 7.67324 10.5842 7.65165 10.6162 7.62305C10.6482 7.59444 10.6742 7.55946 10.6925 7.52038C10.713 7.48358 10.7261 7.44304 10.7311 7.40113C10.7361 7.35914 10.7327 7.3166 10.7213 7.27597C10.7099 7.23534 10.6906 7.19735 10.6647 7.16437C10.6387 7.1313 10.6065 7.10388 10.57 7.08357L10.4883 7.03893C10.4769 7.03119 10.4675 7.0208 10.461 7.0086C10.4544 6.99639 10.4509 6.98272 10.4506 6.96879C10.4509 6.95448 10.4548 6.94055 10.462 6.92825C10.4691 6.91595 10.4793 6.90575 10.4915 6.89864L10.6014 6.83806C10.6383 6.81857 10.671 6.79188 10.6977 6.75944C10.7244 6.72701 10.7444 6.68957 10.7567 6.64922C10.7689 6.60886 10.7733 6.5665 10.7692 6.5245C10.7652 6.48242 10.753 6.44161 10.7334 6.40444ZM7.51012 6.70734C7.48569 6.72291 7.45737 6.73111 7.42851 6.73111C7.39955 6.73111 7.37123 6.72291 7.3468 6.70734L6.56142 6.21313C6.53853 6.19938 6.51953 6.17979 6.50632 6.15629C6.49311 6.13279 6.48605 6.10628 6.48605 6.07922V5.1227C6.48605 5.09564 6.49311 5.06913 6.50632 5.04563C6.51953 5.02213 6.53853 5.00254 6.56142 4.98879L7.3468 4.49458C7.37123 4.47901 7.39955 4.47081 7.42851 4.47081C7.45737 4.47081 7.48569 4.47901 7.51012 4.49458L8.2955 4.98879C8.3184 5.00254 8.3374 5.02213 8.35061 5.04563C8.36382 5.06913 8.37088 5.09564 8.37097 5.1227V6.07922C8.37088 6.10628 8.36382 6.13279 8.35061 6.15629C8.3374 6.17979 8.3184 6.19938 8.2955 6.21313L7.51012 6.70734Z" fill="#514AF3"/>
<path d="M10.7334 6.40444C10.7134 6.36782 10.6865 6.33548 10.6542 6.30942C10.6219 6.28328 10.5848 6.26397 10.5452 6.2524C10.5054 6.24083 10.4639 6.23737 10.4229 6.2421C10.3819 6.24684 10.3422 6.25978 10.3061 6.28009L9.82229 6.56386C9.79904 6.57789 9.77244 6.58527 9.74539 6.58527C9.71824 6.58527 9.69164 6.57789 9.66839 6.56386L9.07781 6.21951C9.05401 6.20484 9.03429 6.18426 9.02054 6.15975C9.00678 6.13515 8.99945 6.10746 8.99927 6.07922V5.14821C8.99945 5.11997 9.00678 5.09227 9.02054 5.06768C9.03429 5.04317 9.05401 5.02258 9.07781 5.00792L9.66839 4.65082C9.69164 4.63679 9.71824 4.62941 9.74539 4.62941C9.77244 4.62941 9.79904 4.63679 9.82229 4.65082L10.3061 4.92183C10.3518 4.94916 10.4039 4.96346 10.4569 4.96328C10.5134 4.96346 10.5689 4.94816 10.6175 4.91891C10.6662 4.88976 10.7062 4.84777 10.7334 4.79748C10.7534 4.76086 10.7661 4.7206 10.7708 4.67896C10.7754 4.63733 10.772 4.59515 10.7606 4.55489C10.7493 4.51462 10.7302 4.477 10.7045 4.44421C10.6788 4.4115 10.6469 4.38417 10.6108 4.36386L10.5009 4.33197C10.4887 4.32487 10.4786 4.31467 10.4714 4.30237C10.4643 4.29007 10.4603 4.27613 10.46 4.26183C10.4603 4.24789 10.4638 4.23423 10.4704 4.22202C10.4769 4.20981 10.4863 4.19943 10.4977 4.19168L10.57 4.1311C10.6425 4.08884 10.6954 4.01906 10.7172 3.93716C10.7391 3.85517 10.7279 3.7679 10.6862 3.69429C10.6446 3.62069 10.5758 3.56694 10.4951 3.5448C10.4144 3.52276 10.3284 3.53405 10.2559 3.57632L10.1742 3.62415C10.162 3.63034 10.1485 3.63353 10.1349 3.63353C10.1212 3.63353 10.1079 3.63034 10.0956 3.62415C10.0838 3.61686 10.0741 3.60657 10.0675 3.59418C10.0609 3.58188 10.0575 3.56803 10.0579 3.554V3.42647C10.0579 3.34193 10.0248 3.26085 9.96589 3.201C9.90698 3.14124 9.82709 3.10763 9.74376 3.10763C9.66042 3.10763 9.58053 3.14124 9.52162 3.201C9.46272 3.26085 9.4296 3.34193 9.4296 3.42647V3.98763C9.42861 4.01523 9.42092 4.04219 9.40716 4.06615C9.3935 4.09002 9.37423 4.11015 9.35107 4.12473L8.77307 4.45313C8.74809 4.46735 8.71995 4.47491 8.69136 4.47491C8.66277 4.47491 8.63463 4.46735 8.60966 4.45313L7.81803 3.94937C7.79523 3.93461 7.7765 3.91438 7.76329 3.89043C7.75017 3.86656 7.74302 3.83968 7.74266 3.81226V3.17458C7.74248 3.14707 7.74936 3.12002 7.76257 3.09597C7.77578 3.07192 7.79487 3.05178 7.81803 3.03748L8.29243 2.73777C8.35197 2.69015 8.3925 2.62226 8.40662 2.54666C8.42073 2.47105 8.40743 2.3928 8.36916 2.32638C8.33088 2.25995 8.27017 2.20982 8.19833 2.18522C8.12648 2.16062 8.04831 2.16323 7.97828 2.19255L7.87142 2.25951C7.8592 2.26569 7.84581 2.2689 7.83215 2.2689C7.81848 2.2689 7.80509 2.26569 7.79288 2.25951C7.7794 2.25392 7.76763 2.24476 7.75877 2.23299C7.7499 2.22121 7.74438 2.20726 7.74266 2.19255V2.10009C7.74266 2.01552 7.70954 1.93443 7.65064 1.87463C7.59174 1.81484 7.51175 1.78125 7.42851 1.78125C7.34517 1.78125 7.26528 1.81484 7.20628 1.87463C7.14738 1.93443 7.11436 2.01552 7.11436 2.10009V2.19255C7.11399 2.20683 7.1101 2.22079 7.10295 2.23307C7.09581 2.24536 7.08567 2.25557 7.07346 2.2627C7.06124 2.26888 7.04785 2.27209 7.03419 2.27209C7.02062 2.27209 7.00713 2.26888 6.99492 2.2627L6.88815 2.19574C6.85313 2.1684 6.81278 2.14886 6.7698 2.1384C6.72682 2.12794 6.68221 2.1268 6.63869 2.13506C6.59526 2.14332 6.55409 2.16078 6.51772 2.18631C6.48144 2.21185 6.45076 2.24487 6.42787 2.28323C6.40498 2.32159 6.39032 2.36443 6.3848 2.40893C6.37937 2.45343 6.38317 2.49861 6.39611 2.54151C6.40896 2.58441 6.43068 2.62406 6.45972 2.65788C6.48867 2.6917 6.52441 2.71892 6.56459 2.73777L7.03889 3.02792C7.06206 3.04222 7.08115 3.06235 7.09436 3.0864C7.10757 3.11045 7.11445 3.13751 7.11436 3.16502V3.8027C7.1139 3.83012 7.10675 3.85699 7.09363 3.88086C7.08042 3.90482 7.0617 3.92504 7.03889 3.9398L6.24727 4.44995C6.2223 4.46416 6.19416 4.47172 6.16556 4.47172C6.13697 4.47172 6.10883 4.46416 6.08386 4.44995L5.50269 4.11197C5.47953 4.0974 5.46035 4.07727 5.44659 4.0534C5.43293 4.02944 5.42524 4.00248 5.42416 3.97487V3.41371C5.42416 3.32918 5.39104 3.2481 5.33214 3.18825C5.27323 3.12849 5.19334 3.09487 5.11 3.09487C5.02667 3.09487 4.94677 3.12849 4.88787 3.18825C4.82897 3.2481 4.79585 3.32918 4.79585 3.41371V3.54125C4.79621 3.55528 4.79296 3.56913 4.78626 3.58142C4.77965 3.59381 4.76997 3.60411 4.75821 3.61139C4.74599 3.61759 4.73251 3.62078 4.71894 3.62078C4.70528 3.62078 4.6918 3.61759 4.67967 3.61139L4.60113 3.57632C4.52857 3.53405 4.44252 3.52276 4.36181 3.5448C4.2811 3.56694 4.21233 3.62069 4.17071 3.69429C4.129 3.7679 4.11787 3.85517 4.13968 3.93716C4.16148 4.01906 4.21441 4.08884 4.28698 4.1311L4.36859 4.17574C4.38 4.18349 4.38941 4.19387 4.39601 4.20608C4.40253 4.21828 4.40605 4.23195 4.40633 4.24589C4.40832 4.26383 4.40452 4.28196 4.39547 4.29754C4.38633 4.31303 4.37249 4.32514 4.35602 4.33197L4.24608 4.39255C4.17723 4.43337 4.12629 4.49923 4.10357 4.57684C4.08077 4.65437 4.08792 4.73781 4.12357 4.81024C4.15072 4.86052 4.19071 4.90252 4.23939 4.93167C4.28798 4.96091 4.34353 4.97621 4.39999 4.97603C4.45301 4.97621 4.50513 4.96191 4.55083 4.93458L5.03463 4.65082C5.05789 4.63679 5.08449 4.62941 5.11163 4.62941C5.13869 4.62941 5.16529 4.63679 5.18854 4.65082L5.77921 4.99516C5.80291 5.00983 5.82264 5.03042 5.83639 5.05492C5.85014 5.07952 5.85747 5.10721 5.85774 5.13545V6.05371C5.85747 6.08195 5.85014 6.10965 5.83639 6.13424C5.82264 6.15875 5.80291 6.17934 5.77921 6.194L5.18854 6.56386C5.16529 6.57789 5.13869 6.58527 5.11163 6.58527C5.08449 6.58527 5.05789 6.57789 5.03463 6.56386L4.55083 6.29284C4.4779 6.25057 4.39149 6.23937 4.31042 6.26187C4.22943 6.28428 4.16049 6.33839 4.11887 6.41236C4.07724 6.48643 4.06621 6.57415 4.08828 6.65641C4.11036 6.73858 4.16374 6.80855 4.23667 6.85081L4.34661 6.9114C4.35882 6.9185 4.36896 6.9287 4.37611 6.941C4.38325 6.9533 4.38714 6.96724 4.38751 6.98154C4.38723 6.99548 4.38371 7.00914 4.3771 7.02135C4.37059 7.03356 4.36118 7.04394 4.34978 7.05168L4.28698 7.08357C4.25043 7.10388 4.21821 7.1313 4.19225 7.16437C4.16628 7.19735 4.14701 7.23534 4.1356 7.27597C4.1242 7.3166 4.12095 7.35914 4.12583 7.40113C4.13081 7.44304 4.14393 7.48358 4.16438 7.52038C4.18492 7.55773 4.21261 7.59062 4.2459 7.61685C4.2792 7.64318 4.31738 7.6624 4.3581 7.67342C4.39882 7.68445 4.44134 7.687 4.48315 7.68099C4.52486 7.67497 4.56494 7.66049 4.60113 7.63835L4.68275 7.59053C4.69496 7.58433 4.70844 7.58114 4.72202 7.58114C4.73568 7.58114 4.74907 7.58433 4.76129 7.59053C4.77314 7.59781 4.78282 7.60811 4.78943 7.6205C4.79603 7.63279 4.79938 7.64664 4.79902 7.66067V7.78821C4.79902 7.87275 4.83213 7.95382 4.89104 8.01367C4.94994 8.07343 5.02984 8.10705 5.11317 8.10705C5.1965 8.10705 5.2764 8.07343 5.3353 8.01367C5.39421 7.95382 5.42732 7.87275 5.42732 7.78821V7.22705C5.42832 7.19944 5.4361 7.17248 5.44976 7.14852C5.46342 7.12465 5.4827 7.10452 5.50586 7.08995L6.08703 6.74879C6.112 6.73458 6.14014 6.72701 6.16873 6.72701C6.19732 6.72701 6.22546 6.73458 6.25044 6.74879L7.04206 7.24937C7.06477 7.26412 7.08359 7.28435 7.0968 7.30831C7.10992 7.33217 7.11707 7.35905 7.11743 7.38647V8.02415C7.11761 8.05166 7.11074 8.07872 7.09753 8.10277C7.08432 8.12682 7.06522 8.14695 7.04206 8.16125L6.56459 8.4769C6.52306 8.4943 6.48569 8.52045 6.45492 8.55379C6.42425 8.58704 6.40091 8.62658 6.38661 8.66976C6.37222 8.71294 6.36716 8.75876 6.37177 8.80412C6.3763 8.84949 6.39041 8.89331 6.41312 8.93266C6.43574 8.97202 6.46651 9.0059 6.50315 9.03223C6.53989 9.05847 6.58169 9.07651 6.62584 9.08498C6.66991 9.09345 6.71533 9.09217 6.75894 9.08133C6.80256 9.07049 6.84345 9.05036 6.87874 9.02212L6.98551 8.95516C6.99773 8.94897 7.01112 8.94578 7.02478 8.94578C7.03844 8.94578 7.05183 8.94897 7.06405 8.95516C7.07626 8.96227 7.0864 8.97247 7.09355 8.98477C7.10069 8.99707 7.10458 9.01101 7.10486 9.02531V9.11458C7.10486 9.19912 7.13797 9.2802 7.19688 9.34005C7.25578 9.39981 7.33576 9.43342 7.41901 9.43342C7.50234 9.43342 7.58224 9.39981 7.64114 9.34005C7.70014 9.2802 7.73316 9.19912 7.73316 9.11458V9.02212C7.73352 9.00782 7.73741 8.99388 7.74456 8.98158C7.75171 8.96928 7.76184 8.95908 7.77406 8.95197C7.78627 8.94578 7.79967 8.94259 7.81333 8.94259C7.8269 8.94259 7.84038 8.94578 7.8526 8.95197L7.95937 9.01893C8.03067 9.06229 8.11599 9.07523 8.19661 9.05491C8.27732 9.0346 8.34672 8.98267 8.38979 8.91052C8.4324 8.83965 8.44607 8.75466 8.42788 8.67367C8.40969 8.59269 8.3611 8.52209 8.29243 8.4769L7.81803 8.18676C7.79487 8.17246 7.77578 8.15232 7.76257 8.12827C7.74936 8.10422 7.74248 8.07717 7.74266 8.04966V7.41197C7.74302 7.38455 7.75017 7.35768 7.76329 7.33381C7.7765 7.30985 7.79523 7.28963 7.81803 7.27487L8.60966 6.77429C8.63463 6.76008 8.66277 6.75252 8.69136 6.75252C8.71995 6.75252 8.74809 6.76008 8.77307 6.77429L9.35423 7.11545C9.3774 7.13003 9.39667 7.15016 9.41033 7.17403C9.42399 7.19799 9.43168 7.22495 9.43277 7.25255V7.81371C9.43277 7.89825 9.46589 7.97933 9.52479 8.03918C9.58369 8.09894 9.66359 8.13255 9.74692 8.13255C9.83026 8.13255 9.91015 8.09894 9.96906 8.03918C10.028 7.97933 10.0611 7.89825 10.0611 7.81371V7.68618C10.0607 7.67215 10.064 7.6583 10.0707 7.646C10.0773 7.63361 10.087 7.62332 10.0988 7.61603C10.1109 7.60984 10.1244 7.60665 10.1381 7.60665C10.1516 7.60665 10.1651 7.60984 10.1773 7.61603L10.259 7.66386C10.2965 7.68454 10.3378 7.6972 10.3802 7.70112C10.4227 7.70503 10.4655 7.70012 10.5062 7.68672C10.5467 7.67324 10.5842 7.65165 10.6162 7.62305C10.6482 7.59444 10.6742 7.55946 10.6925 7.52038C10.713 7.48358 10.7261 7.44304 10.7311 7.40113C10.7361 7.35914 10.7327 7.3166 10.7213 7.27597C10.7099 7.23534 10.6906 7.19735 10.6647 7.16437C10.6387 7.1313 10.6065 7.10388 10.57 7.08357L10.4883 7.03893C10.4769 7.03119 10.4675 7.0208 10.461 7.0086C10.4544 6.99639 10.4509 6.98272 10.4506 6.96879C10.4509 6.95448 10.4548 6.94055 10.462 6.92825C10.4691 6.91595 10.4793 6.90575 10.4915 6.89864L10.6014 6.83806C10.6383 6.81857 10.671 6.79188 10.6977 6.75944C10.7244 6.72701 10.7444 6.68957 10.7567 6.64922C10.7689 6.60886 10.7733 6.5665 10.7692 6.5245C10.7652 6.48242 10.753 6.44161 10.7334 6.40444ZM7.51012 6.70734C7.48569 6.72291 7.45737 6.73111 7.42851 6.73111C7.39955 6.73111 7.37123 6.72291 7.3468 6.70734L6.56142 6.21313C6.53853 6.19938 6.51953 6.17979 6.50632 6.15629C6.49311 6.13279 6.48605 6.10628 6.48605 6.07922V5.1227C6.48605 5.09564 6.49311 5.06913 6.50632 5.04563C6.51953 5.02213 6.53853 5.00254 6.56142 4.98879L7.3468 4.49458C7.37123 4.47901 7.39955 4.47081 7.42851 4.47081C7.45737 4.47081 7.48569 4.47901 7.51012 4.49458L8.2955 4.98879C8.3184 5.00254 8.3374 5.02213 8.35061 5.04563C8.36382 5.06913 8.37088 5.09564 8.37097 5.1227V6.07922C8.37088 6.10628 8.36382 6.13279 8.35061 6.15629C8.3374 6.17979 8.3184 6.19938 8.2955 6.21313L7.51012 6.70734Z" stroke="white" stroke-width="0.8" mask="url(#path-3-outside-1_7_802)"/>
</svg>
