<svg width="25" height="25" viewBox="0 0 25 25" fill="none" xmlns="http://www.w3.org/2000/svg">
<g clip-path="url(#clip0_7_918)">
<path d="M2.47174 21.1065V23.093C2.47174 23.2177 2.51805 23.3375 2.60047 23.4258C2.68304 23.5141 2.79495 23.5637 2.9116 23.5637H22.2673C22.384 23.5637 22.4959 23.5141 22.5783 23.4258C22.6608 23.3375 22.7072 23.2177 22.7072 23.093V21.1065C22.7106 20.7405 22.6327 20.3788 22.4798 20.0514C22.3267 19.724 22.1032 19.4402 21.8274 19.2237C20.6045 18.2257 17.7274 16.5029 12.5895 16.5029C7.45134 16.5029 4.57439 18.2257 3.32514 19.252C3.05774 19.4686 2.84155 19.7492 2.69339 20.0711C2.54524 20.3931 2.46929 20.7477 2.47174 21.1065ZM16.8652 22.6222L16.3286 22.2363C16.0574 22.0434 15.8352 21.7817 15.6817 21.4744C15.5281 21.1673 15.4481 20.8242 15.4488 20.4757V19.6003C15.4488 19.5377 15.472 19.478 15.5131 19.4338C15.5544 19.3897 15.6104 19.3648 15.6688 19.3648H18.3081C18.3665 19.3648 18.4225 19.3897 18.4637 19.4338C18.5049 19.478 18.5282 19.5377 18.5282 19.6003V20.4757C18.5303 20.8245 18.4511 21.1682 18.2973 21.4756C18.1437 21.7832 17.9206 22.0446 17.6483 22.2363L17.1116 22.6222C17.0748 22.6474 17.0321 22.6607 16.9885 22.6607C16.9448 22.6607 16.9021 22.6474 16.8652 22.6222Z" fill="#514AF3"/>
<path d="M12.5894 16.5026C14.2227 16.5026 15.7892 15.8083 16.9441 14.5724C18.0992 13.3366 18.748 11.6604 18.748 9.91263V6.56099C18.7467 6.52199 18.7551 6.48314 18.772 6.44858C18.7889 6.41388 18.814 6.38454 18.8448 6.36335C19.086 6.20441 19.2693 5.96192 19.3638 5.67613L20.0413 3.50145C20.0662 3.42528 20.0719 3.34343 20.0581 3.26419C20.0442 3.18479 20.0111 3.11077 19.9622 3.0495C19.9186 2.97947 19.8576 2.92388 19.7861 2.88902C19.7146 2.85416 19.6354 2.84126 19.5574 2.85186C17.5074 3.20952 15.9854 2.49404 14.0498 1.59029L12.7565 0.968953C12.6495 0.921807 12.5292 0.921807 12.4222 0.968953L11.1288 1.59966C9.1933 2.50341 7.66241 3.21904 5.62132 2.85186C5.54667 2.83711 5.46957 2.84418 5.39837 2.87228C5.32717 2.90054 5.26431 2.94876 5.21655 3.01188C5.16765 3.07315 5.13456 3.14717 5.12061 3.22656C5.1068 3.3058 5.11255 3.38766 5.13744 3.46367L5.81493 5.67613C5.90411 5.97237 6.08794 6.2256 6.3339 6.39161C6.36066 6.41065 6.3831 6.43553 6.39992 6.46486C6.41661 6.49419 6.42711 6.5269 6.43071 6.56099V9.91263C6.43071 11.6604 7.07957 13.3366 8.23461 14.5724C9.3895 15.8083 10.9559 16.5026 12.5894 16.5026ZM12.5894 6.69291C12.552 6.70412 12.5124 6.70412 12.475 6.69291C12.4349 6.70596 12.392 6.70596 12.3517 6.69291L11.8151 6.31636C11.5445 6.12286 11.3227 5.86103 11.1692 5.55389C11.0158 5.24691 10.9355 4.90399 10.9353 4.55585V3.6802C10.9377 3.61693 10.9627 3.5572 11.0054 3.51328C11.048 3.46936 11.1049 3.44494 11.1641 3.44494H13.8035C13.8603 3.44739 13.914 3.47319 13.9534 3.51711C13.9927 3.56103 14.0147 3.61939 14.0147 3.6802V4.55585C14.0153 4.90415 13.9353 5.24737 13.7818 5.55451C13.6282 5.86164 13.4059 6.12348 13.1348 6.31636L12.5894 6.69291ZM12.5894 14.6198C11.4227 14.6198 10.3037 14.1238 9.47882 13.2411C8.65376 12.3582 8.1903 11.161 8.1903 9.91263V8.30277C8.19002 8.26269 8.19965 8.22337 8.21821 8.18851C8.23676 8.15381 8.26352 8.12494 8.29588 8.10497C8.3294 8.08439 8.36723 8.07349 8.40592 8.07349C8.44447 8.07349 8.48244 8.08439 8.51581 8.10497C9.76578 8.83227 11.1666 9.21113 12.5894 9.20652C14.0128 9.20821 15.4138 8.82613 16.6629 8.0956C16.6963 8.07487 16.7343 8.06412 16.7728 8.06412C16.8115 8.06412 16.8493 8.07487 16.8828 8.0956C16.9152 8.11557 16.942 8.14444 16.9605 8.17915C16.9791 8.21385 16.9887 8.25332 16.9884 8.29325V9.91263C16.9884 10.5307 16.8747 11.1429 16.6536 11.714C16.4325 12.285 16.1084 12.8039 15.6999 13.2411C15.2914 13.6781 14.8065 14.0249 14.2727 14.2614C13.7391 14.498 13.167 14.6198 12.5894 14.6198Z" fill="#E69F69"/>
<path d="M14.3489 11.4781C14.9145 11.4781 15.3726 10.9876 15.3726 10.3832C15.3726 9.77874 14.9145 9.28809 14.3489 9.28809C13.7833 9.28809 13.3252 9.77874 13.3252 10.3832C13.3252 10.9876 13.7833 11.4781 14.3489 11.4781Z" fill="#514AF3" stroke="white" stroke-width="0.5"/>
<path d="M10.8293 11.4781C11.3948 11.4781 11.8528 10.9876 11.8528 10.3832C11.8528 9.77874 11.3948 9.28809 10.8293 9.28809C10.2635 9.28809 9.80554 9.77874 9.80554 10.3832C9.80554 10.9876 10.2635 11.4781 10.8293 11.4781Z" fill="#514AF3" stroke="white" stroke-width="0.5"/>
<path d="M13.5408 12.2354H13.5392H11.7796C11.6227 12.2354 11.4703 12.2909 11.3465 12.3937C11.2225 12.4964 11.134 12.6402 11.0949 12.8023C11.0558 12.9646 11.0682 13.1362 11.13 13.2901C11.1917 13.4435 11.299 13.5708 11.4355 13.652C11.5664 13.7337 11.7074 13.7955 11.8541 13.8357C12.1146 13.9245 12.3866 13.9678 12.6599 13.9641C12.932 13.9653 13.2029 13.9254 13.4645 13.8451L13.4661 13.8446L13.4677 13.844C13.6092 13.7967 13.7453 13.7325 13.8735 13.6526C14.0114 13.5731 14.1207 13.4469 14.1843 13.2937C14.2483 13.1397 14.2624 12.9673 14.2242 12.8036L14.2239 12.8022L14.2234 12.8006C14.1827 12.6399 14.0941 12.4976 13.9709 12.3955C13.8477 12.2936 13.6967 12.2372 13.5408 12.2354Z" fill="#514AF3" stroke="white" stroke-width="0.5"/>
</g>
<defs>
<clipPath id="clip0_7_918">
<rect width="24" height="24" fill="white" transform="translate(0.707031 0.248047)"/>
</clipPath>
</defs>
</svg>
