<svg width="25" height="25" viewBox="0 0 25 25" fill="none" xmlns="http://www.w3.org/2000/svg">
<path d="M6.36298 12.3133C8.29152 12.3133 9.85496 10.773 9.85496 8.87297C9.85496 6.97286 8.29152 5.43262 6.36298 5.43262C4.43444 5.43262 2.87109 6.97286 2.87109 8.87297C2.87109 10.773 4.43444 12.3133 6.36298 12.3133Z" fill="#514AF3"/>
<path d="M2.17259 21.0293H3.45762C3.51213 21.0281 3.56529 21.0459 3.60779 21.0794C3.6503 21.113 3.67954 21.1601 3.6904 21.2128L4.13737 23.4054C4.157 23.5106 4.21329 23.6059 4.29662 23.6746C4.37996 23.7433 4.48502 23.7811 4.59373 23.7815H8.13219C8.23955 23.7815 8.34356 23.7451 8.42669 23.6782C8.50982 23.6113 8.56705 23.5181 8.58845 23.4146L9.03542 21.2128C9.04628 21.1601 9.07563 21.113 9.11813 21.0794C9.16064 21.0459 9.21379 21.0281 9.2682 21.0293H10.5532C10.6768 21.0293 10.7952 20.9809 10.8825 20.8949C10.9698 20.8089 11.0189 20.6922 11.0189 20.5706V17.3596C11.0189 16.143 10.5284 14.9762 9.65522 14.116C8.78207 13.2557 7.59781 12.7725 6.36291 12.7725C5.12811 12.7725 3.94385 13.2557 3.0707 14.116C2.19755 14.9762 1.70703 16.143 1.70703 17.3596V20.5706C1.70703 20.6922 1.75611 20.8089 1.84342 20.8949C1.93072 20.9809 2.04915 21.0293 2.17259 21.0293Z" fill="#514AF3"/>
<path d="M20.558 1.78125H11.6242C11.4465 1.78125 11.276 1.85079 11.1503 1.97454C11.0248 2.09829 10.9541 2.26625 10.9541 2.4413V8.40321C10.9546 8.48871 10.9725 8.57319 11.0067 8.65185C11.0409 8.73038 11.0906 8.80144 11.153 8.86085C11.2154 8.92038 11.2892 8.96687 11.3701 8.99777C11.4511 9.02881 11.5374 9.0435 11.6242 9.04122H12.9643V10.8011C12.9635 10.8414 12.9745 10.881 12.9958 10.9152C13.0173 10.9496 13.0481 10.9772 13.0849 10.9948C13.1187 11.0163 13.1583 11.0278 13.1988 11.0278C13.2391 11.0278 13.2787 11.0163 13.3127 10.9948L16.1625 9.04122H20.558C20.7357 9.04122 20.9062 8.97168 21.0319 8.84793C21.1574 8.72405 21.2281 8.55622 21.2281 8.38116V2.4413C21.2281 2.26625 21.1574 2.09829 21.0319 1.97454C20.9062 1.85079 20.7357 1.78125 20.558 1.78125ZM16.6494 5.76767V5.96122C16.6494 6.04874 16.6142 6.13272 16.5514 6.19454C16.4885 6.25647 16.4032 6.29118 16.3145 6.29118C16.2255 6.29118 16.1404 6.25647 16.0775 6.19454C16.0147 6.13272 15.9795 6.04874 15.9795 5.96122V5.76767C15.9792 5.5892 16.0319 5.41453 16.1311 5.26519C16.2304 5.11598 16.3717 4.99843 16.5378 4.92725C16.63 4.8876 16.7096 4.82414 16.7682 4.74371C16.8268 4.66315 16.8623 4.56853 16.8708 4.46986C16.8793 4.37106 16.8606 4.27188 16.8166 4.18283C16.7727 4.09366 16.7051 4.01791 16.621 3.96345C16.5371 3.90911 16.4397 3.87807 16.3391 3.87364C16.2386 3.86933 16.1388 3.89175 16.0503 3.93862C15.9616 3.98549 15.8875 4.05515 15.8358 4.14002C15.7839 4.22501 15.7564 4.32216 15.7561 4.42122C15.7561 4.50874 15.7207 4.59272 15.6579 4.65453C15.5952 4.71647 15.5099 4.75118 15.421 4.75118C15.3322 4.75118 15.247 4.71647 15.1842 4.65453C15.1213 4.59272 15.086 4.50874 15.086 4.42122C15.0844 4.20272 15.1428 3.98777 15.2552 3.79941C15.3676 3.61094 15.5297 3.45602 15.7243 3.35102C15.9189 3.24601 16.1387 3.19497 16.3604 3.20307C16.582 3.21131 16.7973 3.27844 16.9834 3.3975C17.1695 3.51644 17.3194 3.68288 17.4171 3.87909C17.5149 4.07517 17.5569 4.29379 17.5387 4.51153C17.5205 4.72939 17.4427 4.93827 17.3137 5.11598C17.1846 5.29382 17.0092 5.43378 16.8058 5.52118C16.7574 5.5417 16.7165 5.57628 16.6885 5.62036C16.6606 5.66444 16.647 5.71574 16.6494 5.76767ZM16.7612 7.06118C16.7612 7.1482 16.7349 7.23332 16.6858 7.30565C16.6368 7.37797 16.567 7.43434 16.4854 7.46765C16.4038 7.50097 16.314 7.50971 16.2273 7.49273C16.1407 7.47576 16.061 7.43383 15.9986 7.37227C15.9361 7.31084 15.8936 7.23243 15.8764 7.14706C15.8591 7.06169 15.868 6.97328 15.9017 6.89284C15.9356 6.81241 15.9928 6.74376 16.0662 6.69537C16.1397 6.64699 16.2261 6.62115 16.3145 6.62115C16.4329 6.62115 16.5466 6.6675 16.6303 6.75009C16.7141 6.83255 16.7612 6.94452 16.7612 7.06118Z" fill="#E69F69"/>
<path d="M18.0983 7.78125H23.3157C23.4195 7.78125 23.5191 7.82634 23.5925 7.90664C23.6658 7.98695 23.707 8.0959 23.707 8.20951V12.0781C23.7067 12.1336 23.6963 12.1884 23.6764 12.2394C23.6563 12.2904 23.6273 12.3365 23.5908 12.3751C23.5544 12.4137 23.5113 12.4439 23.4641 12.464C23.4168 12.484 23.3664 12.4936 23.3157 12.4921H22.5331V13.6341C22.5335 13.6602 22.5271 13.6859 22.5146 13.7082C22.5022 13.7304 22.4842 13.7484 22.4628 13.7597C22.4428 13.7737 22.4198 13.7812 22.3961 13.7812C22.3726 13.7812 22.3494 13.7737 22.3296 13.7597L20.6653 12.4921H18.0983C17.9947 12.4921 17.8951 12.447 17.8217 12.3667C17.7484 12.2864 17.707 12.1774 17.707 12.0638V8.20951C17.707 8.0959 17.7484 7.98695 17.8217 7.90664C17.8951 7.82634 17.9947 7.78125 18.0983 7.78125ZM22.4679 10.7791C22.4673 10.7225 22.4464 10.6685 22.4099 10.6284C22.3734 10.5884 22.3239 10.5657 22.2723 10.5649H19.1419C19.0899 10.5649 19.0402 10.5875 19.0035 10.6276C18.9668 10.6678 18.9462 10.7223 18.9462 10.7791C18.9462 10.8358 18.9668 10.8903 19.0035 10.9305C19.0402 10.9706 19.0899 10.9931 19.1419 10.9931H22.2723C22.3239 10.9924 22.3734 10.9697 22.4099 10.9297C22.4464 10.8897 22.4673 10.8357 22.4679 10.7791ZM19.1419 9.70834H22.2723C22.3241 9.70834 22.374 9.68587 22.4107 9.64571C22.4474 9.60556 22.4679 9.55102 22.4679 9.49428C22.4679 9.43755 22.4474 9.383 22.4107 9.34285C22.374 9.3027 22.3241 9.28008 22.2723 9.28008H19.1419C19.0899 9.28008 19.0402 9.3027 19.0035 9.34285C18.9668 9.383 18.9462 9.43755 18.9462 9.49428C18.9462 9.55102 18.9668 9.60556 19.0035 9.64571C19.0402 9.68587 19.0899 9.70834 19.1419 9.70834Z" fill="#514AF3"/>
</svg>
