<svg width="25" height="25" viewBox="0 0 25 25" fill="none" xmlns="http://www.w3.org/2000/svg">
<g clip-path="url(#clip0_7_838)">
<path d="M11.2275 18.0891H11.011L11.0282 18.3049C11.051 18.5925 11.0721 18.8363 11.0882 19.0166L11.0882 19.0166C11.144 19.6396 11.6666 20.1499 12.3673 20.2512L12.3673 20.2512C12.7614 20.3081 13.3998 20.3826 14.0677 20.3826C14.7357 20.3826 15.3741 20.3081 15.7682 20.2512L15.7682 20.2512C16.469 20.1499 16.9916 19.6396 17.0474 19.0166L17.0474 19.0165C17.0636 18.8363 17.0846 18.5925 17.1074 18.3049L17.1245 18.0891H16.908H11.2275Z" fill="#514AF3" stroke="white" stroke-width="0.4"/>
<path d="M11.2275 20.9299H11.011L11.0282 21.1457C11.051 21.4333 11.0721 21.6772 11.0882 21.8574L11.0882 21.8574C11.144 22.4805 11.6666 22.9907 12.3673 23.092L12.3673 23.092C12.7614 23.1489 13.3998 23.2234 14.0677 23.2234C14.7357 23.2234 15.3741 23.1489 15.7682 23.092L15.7682 23.092C16.469 22.9907 16.9916 22.4805 17.0474 21.8574L17.0474 21.8574C17.0636 21.6771 17.0846 21.4333 17.1074 21.1457L17.1245 20.9299H16.908H11.2275Z" fill="#514AF3" stroke="white" stroke-width="0.4"/>
<path d="M11.4088 9.16359C11.3623 6.80367 9.56587 4.83516 6.96739 4.83516C4.3689 4.83516 2.57245 6.80367 2.52594 9.16359C2.51433 9.75282 2.50703 10.4264 2.50703 11.189C2.50703 13.3382 2.56497 14.7808 2.61427 15.6192C2.66756 16.5257 3.36008 17.3063 4.3615 17.4174C4.95271 17.4829 5.80958 17.5428 6.96739 17.5428C8.1252 17.5428 8.98205 17.4829 9.57328 17.4174C10.5747 17.3063 11.2672 16.5257 11.3205 15.6192L11.3205 15.6192C11.3698 14.7808 11.4277 13.3382 11.4277 11.189C11.4277 10.4264 11.4205 9.75283 11.4088 9.16359ZM11.4088 9.16359L11.2089 9.16753L11.4088 9.16358C11.4088 9.16358 11.4088 9.16359 11.4088 9.16359ZM5.14932 9.49139C5.14932 9.26051 5.35042 9.05479 5.62201 9.05479H8.31276C8.58434 9.05479 8.78545 9.26052 8.78545 9.49139C8.78545 9.72226 8.58434 9.92799 8.31276 9.92799H5.62201C5.35042 9.92799 5.14932 9.72226 5.14932 9.49139Z" fill="#514AF3" stroke="white" stroke-width="0.4"/>
<path d="M14.3892 1.27725C14.5451 1.13436 14.7563 1.04805 14.9865 1.04805H16.5306C16.6868 1.04805 16.8303 1.04915 16.9616 1.05105C18.0071 1.06615 18.9364 1.80831 18.9364 2.90485C18.9364 4.00139 18.0071 4.74355 16.9615 4.75865C16.8303 4.76055 16.6868 4.76166 16.5306 4.76166H15.8482V13.0528C15.8482 13.2738 16.0429 13.4741 16.31 13.4741C16.577 13.4741 16.7717 13.2738 16.7717 13.0528V5.39006V5.19006H16.9717H18.516C21.0726 5.19006 22.8426 7.11199 22.8884 9.41912C22.8999 9.99424 22.907 10.6517 22.907 11.396C22.907 13.4936 22.85 14.9016 22.8016 15.7201L22.8016 15.7201C22.7489 16.6083 22.0653 17.3709 21.0797 17.4794C20.498 17.5434 19.655 17.6019 18.516 17.6019H11.5371H11.0847L11.3892 17.2673C11.7713 16.8473 12 16.313 12.0332 15.754C12.0824 14.9233 12.1397 13.5039 12.1397 11.396C12.1397 10.648 12.1324 9.98678 12.1209 9.40776C12.0905 7.87356 11.3685 6.45239 10.1613 5.55027L9.67927 5.19006H10.281H14.1247V1.86935C14.1247 1.64203 14.2217 1.43803 14.3742 1.29127L14.3742 1.29128L14.3813 1.28453L14.383 1.28296L14.383 1.28297L14.3892 1.27725ZM14.3892 1.27725L14.3898 1.2767L14.5243 1.42469L14.3892 1.27725Z" fill="#E69F69" stroke="white" stroke-width="0.4"/>
</g>
<defs>
<clipPath id="clip0_7_838">
<rect width="24" height="24" fill="white" transform="translate(0.707031 0.248047)"/>
</clipPath>
</defs>
</svg>
