<svg width="25" height="25" viewBox="0 0 25 25" fill="none" xmlns="http://www.w3.org/2000/svg">
<g clip-path="url(#clip0_7_849)">
<path d="M8.26082 5.93164H2.8779C2.69168 5.93164 2.51301 6.00662 2.38132 6.13985C2.24964 6.27309 2.17578 6.45392 2.17578 6.64239C2.17578 6.83086 2.24964 7.01153 2.38132 7.14477C2.51301 7.27816 2.69168 7.35298 2.8779 7.35298H8.26082C8.44704 7.35298 8.62555 7.27816 8.75724 7.14477C8.88892 7.01153 8.96294 6.83086 8.96294 6.64239C8.96294 6.45392 8.88892 6.27309 8.75724 6.13985C8.62555 6.00662 8.44704 5.93164 8.26082 5.93164Z" fill="#514AF3"/>
<path d="M8.26082 3.22153H6.15448V2.49184C6.15448 2.30337 6.08047 2.1227 5.94878 1.98946C5.81725 1.85607 5.63858 1.78125 5.45237 1.78125C5.26615 1.78125 5.08764 1.85607 4.95595 1.98946C4.82427 2.1227 4.75025 2.30337 4.75025 2.49184V3.22153H2.8779C2.69168 3.22153 2.51317 3.29635 2.38148 3.42958C2.24979 3.56282 2.17578 3.74365 2.17578 3.93212C2.17578 4.12059 2.24979 4.30126 2.38148 4.43466C2.51317 4.56789 2.69168 4.64271 2.8779 4.64271H8.26082C8.44704 4.64271 8.62571 4.56789 8.75739 4.43466C8.88908 4.30126 8.96294 4.12059 8.96294 3.93212C8.96294 3.74365 8.88908 3.56282 8.75739 3.42958C8.62571 3.29635 8.44704 3.22153 8.26082 3.22153Z" fill="#514AF3"/>
<path d="M22.5366 5.93164H16.6855C16.4993 5.93164 16.3208 6.00662 16.1891 6.13985C16.0574 6.27309 15.9834 6.45392 15.9834 6.64239C15.9834 6.83086 16.0574 7.01153 16.1891 7.14477C16.3208 7.27816 16.4993 7.35298 16.6855 7.35298H22.5366C22.7228 7.35298 22.9015 7.27816 23.0331 7.14477C23.1648 7.01153 23.2387 6.83086 23.2387 6.64239C23.2387 6.45392 23.1648 6.27309 23.0331 6.13985C22.9015 6.00662 22.7228 5.93164 22.5366 5.93164Z" fill="#514AF3"/>
<path d="M22.5366 3.22153H20.3179V2.49184C20.3179 2.30337 20.2439 2.1227 20.1122 1.98946C19.9805 1.85607 19.802 1.78125 19.6158 1.78125C19.4295 1.78125 19.2509 1.85607 19.1193 1.98946C18.9877 2.1227 18.9136 2.30337 18.9136 2.49184V3.22153H16.6855C16.4993 3.22153 16.3208 3.29635 16.1891 3.42958C16.0574 3.56282 15.9834 3.74365 15.9834 3.93212C15.9834 4.12059 16.0574 4.30126 16.1891 4.43466C16.3208 4.56789 16.4993 4.64271 16.6855 4.64271H22.5366C22.7228 4.64271 22.9015 4.56789 23.0331 4.43466C23.1648 4.30126 23.2387 4.12059 23.2387 3.93212C23.2387 3.74365 23.1648 3.56282 23.0331 3.42958C22.9015 3.29635 22.7228 3.22153 22.5366 3.22153Z" fill="#514AF3"/>
<path d="M22.3028 12.2232V10.0913H22.5368C22.723 10.0913 22.9017 10.0164 23.0334 9.88305C23.165 9.74981 23.2389 9.56914 23.2389 9.38067C23.2389 9.1922 23.165 9.01137 23.0334 8.87813C22.9017 8.7449 22.723 8.66992 22.5368 8.66992H16.6857C16.4995 8.66992 16.321 8.7449 16.1893 8.87813C16.0576 9.01137 15.9836 9.1922 15.9836 9.38067C15.9836 9.56914 16.0576 9.74981 16.1893 9.88305C16.321 10.0164 16.4995 10.0913 16.6857 10.0913H16.9199V12.4505L16.7231 12.858C16.9984 12.9629 17.2445 13.134 17.44 13.3564C17.6355 13.5789 17.7747 13.846 17.8456 14.1351C17.9165 14.424 17.9171 14.7262 17.8472 15.0152C17.7771 15.3045 17.6388 15.5722 17.4441 15.7952L12.2109 21.8499C12.0368 22.045 11.8247 22.2014 11.5877 22.309C11.3509 22.4167 11.0944 22.4732 10.8347 22.4753C10.5666 22.4753 10.3016 22.4172 10.0576 22.3047C9.7023 22.1265 9.4119 21.8387 9.22852 21.4828C9.04513 21.1269 8.97819 20.7213 9.03727 20.3244L9.43045 17.9367H9.34622C9.03948 17.9253 8.74027 17.8377 8.47486 17.6817C8.20944 17.5257 7.98599 17.306 7.82413 17.0421C7.66227 16.7782 7.56705 16.4781 7.54677 16.168C7.5265 15.8581 7.58182 15.5479 7.70785 15.2647L9.21516 12.2232H8.02622V10.0913H8.2602C8.44642 10.0913 8.62509 10.0164 8.75677 9.88305C8.8883 9.74981 8.96232 9.56914 8.96232 9.38067C8.96232 9.1922 8.8883 9.01137 8.75677 8.87813C8.62509 8.7449 8.44642 8.66992 8.2602 8.66992H2.87728C2.69106 8.66992 2.51239 8.7449 2.3807 8.87813C2.24902 9.01137 2.17516 9.1922 2.17516 9.38067C2.17516 9.56914 2.24902 9.74981 2.3807 9.88305C2.51239 10.0164 2.69106 10.0913 2.87728 10.0913H3.11126V12.2232C2.73883 12.2232 2.38165 12.373 2.11827 12.6394C1.8549 12.9059 1.70703 13.2674 1.70703 13.6444V22.6458C1.70703 23.0227 1.8549 23.3842 2.11827 23.6507C2.38165 23.9173 2.73883 24.0671 3.11126 24.0671H22.3028C22.6752 24.0671 23.0324 23.9173 23.2958 23.6507C23.5592 23.3842 23.707 23.0227 23.707 22.6458V13.6444C23.707 13.2674 23.5592 12.9059 23.2958 12.6394C23.0324 12.373 22.6752 12.2232 22.3028 12.2232ZM4.51549 10.0913H6.62199V12.2232H4.51549V10.0913ZM20.8986 10.0913V12.2232H18.3241V10.0913H20.8986Z" fill="#514AF3"/>
<path d="M16.4524 14.4018C16.4192 14.3271 16.3653 14.2639 16.2969 14.2202C16.2287 14.1764 16.1492 14.1538 16.0685 14.1554H14.505L15.7034 11.7487C15.7352 11.6839 15.7501 11.612 15.7468 11.5398C15.7436 11.4676 15.7223 11.3974 15.6847 11.3358C15.6473 11.2742 15.595 11.2232 15.5328 11.1877C15.4705 11.1522 15.4003 11.1333 15.3289 11.1328H11.5842C11.5064 11.1344 11.4307 11.1573 11.3647 11.199C11.2989 11.2407 11.2453 11.2996 11.2098 11.3697L8.96293 15.8987C8.93088 15.9635 8.91406 16.0348 8.91406 16.1073C8.91406 16.1797 8.93088 16.251 8.96293 16.3156C9.00301 16.3768 9.05722 16.4267 9.12086 16.4614C9.18451 16.4961 9.25569 16.5144 9.32814 16.5146H11.0693L10.4234 20.5605C10.4099 20.6517 10.4253 20.7447 10.4673 20.8265C10.5094 20.9082 10.576 20.9743 10.6574 21.0153C10.716 21.0289 10.7767 21.0289 10.8353 21.0153C10.8953 21.016 10.9547 21.0035 11.0096 20.9792C11.0646 20.9547 11.1136 20.9185 11.1537 20.8732L16.3868 14.8187C16.4343 14.7618 16.4656 14.6929 16.477 14.6194C16.4887 14.546 16.48 14.4707 16.4524 14.4018Z" fill="#E69F69"/>
</g>
<defs>
<clipPath id="clip0_7_849">
<rect width="24" height="24" fill="white" transform="translate(0.707031 0.78125)"/>
</clipPath>
</defs>
</svg>
