<svg width="25" height="25" viewBox="0 0 25 25" fill="none" xmlns="http://www.w3.org/2000/svg">
<path d="M21.8737 2.18945H14.082C13.8389 2.18945 13.6057 2.28588 13.4339 2.45762C13.262 2.62937 13.1654 2.86227 13.1654 3.10514C13.1654 3.34787 13.262 3.58076 13.4339 3.75251C13.6057 3.92425 13.8389 4.02068 14.082 4.02068H21.4154C21.537 4.02068 21.6535 4.06882 21.7395 4.15469C21.8255 4.24057 21.8737 4.35709 21.8737 4.47852V20.9591C21.8737 21.0804 21.8255 21.1969 21.7395 21.2828C21.6535 21.3687 21.537 21.4168 21.4154 21.4168H3.99865C3.87707 21.4168 3.76056 21.3687 3.67458 21.2828C3.58861 21.1969 3.54041 21.0804 3.54041 20.9591V4.47852C3.54041 4.35709 3.58861 4.24057 3.67458 4.15469C3.76056 4.06882 3.87707 4.02068 3.99865 4.02068H6.74865C6.99181 4.02068 7.22498 3.92425 7.39693 3.75251C7.56873 3.58076 7.66541 3.34787 7.66541 3.10514C7.66541 2.86227 7.56873 2.62937 7.39693 2.45762C7.22498 2.28588 6.99181 2.18945 6.74865 2.18945H3.54041C3.0541 2.18945 2.58776 2.38245 2.24401 2.72579C1.90026 3.06929 1.70703 3.53493 1.70703 4.02068V21.4168C1.70703 21.9026 1.90026 22.3682 2.24401 22.7117C2.58776 23.0551 3.0541 23.2481 3.54041 23.2481H21.8737C22.36 23.2481 22.8263 23.0551 23.1701 22.7117C23.5138 22.3682 23.707 21.9026 23.707 21.4168V4.02068C23.707 3.53493 23.5138 3.06929 23.1701 2.72579C22.8263 2.38245 22.36 2.18945 21.8737 2.18945Z" fill="#514AF3"/>
<path d="M16.6025 9.73438H16.1442C15.901 9.73438 15.6678 9.8308 15.4959 10.0025C15.3241 10.1741 15.2275 10.407 15.2275 10.6499V18.4324C15.2275 18.5538 15.1792 18.6703 15.0932 18.7562C15.0072 18.8419 14.8907 18.8902 14.7692 18.8902H14.3108C14.1892 18.8902 14.0727 18.8419 13.9867 18.7562C13.9007 18.6703 13.8525 18.5538 13.8525 18.4324V13.8545C13.8525 13.6117 13.7559 13.3788 13.5841 13.207C13.4121 13.0354 13.1789 12.9388 12.9358 12.9388H12.4775C12.2344 12.9388 12.0012 13.0354 11.8293 13.207C11.6573 13.3788 11.5608 13.6117 11.5608 13.8545V18.4324C11.5608 18.5538 11.5126 18.6703 11.4266 18.7562C11.3406 18.8419 11.224 18.8902 11.1025 18.8902H10.6442C10.5226 18.8902 10.4061 18.8419 10.3201 18.7562C10.2341 18.6703 10.1858 18.5538 10.1858 18.4324V17.059C10.1858 16.8163 10.0892 16.5834 9.91729 16.4116C9.74534 16.2399 9.51231 16.1435 9.26916 16.1435H8.81077C8.56762 16.1435 8.33459 16.2399 8.16264 16.4116C7.9907 16.5834 7.89416 16.8163 7.89416 17.059V18.4324C7.89416 18.5538 7.84582 18.6703 7.75984 18.7562C7.67387 18.8419 7.55735 18.8902 7.43577 18.8902H6.97754C6.79517 18.8902 6.62033 18.9625 6.49137 19.0913C6.36241 19.2201 6.29004 19.3948 6.29004 19.5769C6.29004 19.7591 6.36241 19.9337 6.49137 20.0625C6.62033 20.1913 6.79517 20.2636 6.97754 20.2636H18.4358C18.6181 20.2636 18.793 20.1913 18.9219 20.0625C19.0509 19.9337 19.1233 19.7591 19.1233 19.5769C19.1233 19.3948 19.0509 19.2201 18.9219 19.0913C18.793 18.9625 18.6181 18.8902 18.4358 18.8902H17.9775C17.856 18.8902 17.7393 18.8419 17.6533 18.7562C17.5674 18.6703 17.5192 18.5538 17.5192 18.4324V10.6499C17.5192 10.407 17.4226 10.1741 17.2507 10.0025C17.0787 9.8308 16.8456 9.73438 16.6025 9.73438Z" fill="#514AF3"/>
<path d="M5.37397 9.05649C5.43925 9.19513 5.54317 9.31208 5.67314 9.39333C5.80326 9.47443 5.95393 9.5165 6.10735 9.51433H7.60147C7.72305 9.51433 7.83971 9.56247 7.92554 9.64835C8.01151 9.73422 8.05985 9.85059 8.05985 9.97203V14.55C8.05985 14.6441 8.08894 14.7359 8.14308 14.8128C8.19721 14.8899 8.27377 14.9483 8.36235 14.9804C8.45252 15.0125 8.55051 15.0157 8.64256 14.9895C8.73462 14.9632 8.8161 14.9088 8.87573 14.8338L14.284 8.08601C14.3831 7.96834 14.4469 7.82507 14.4681 7.67284C14.4891 7.52047 14.4666 7.36535 14.4032 7.22526C14.3371 7.08735 14.233 6.97097 14.1032 6.89001C13.9732 6.80891 13.823 6.76641 13.6699 6.76756H12.1849C12.0633 6.76756 11.9468 6.71928 11.8608 6.63341C11.7748 6.54753 11.7265 6.43116 11.7265 6.30972V1.73173C11.7302 1.63226 11.702 1.5341 11.646 1.4517C11.5898 1.36944 11.5089 1.30713 11.4149 1.27403C11.3183 1.23803 11.2124 1.23557 11.1142 1.26709C11.0161 1.29875 10.9314 1.36236 10.874 1.44794L5.50235 8.19588C5.40176 8.31255 5.33619 8.45524 5.31362 8.60761C5.29089 8.75998 5.31173 8.91554 5.37397 9.05649Z" fill="#E69F69"/>
</svg>
