<svg width="25" height="25" viewBox="0 0 25 25" fill="none" xmlns="http://www.w3.org/2000/svg">
<g clip-path="url(#clip0_7_857)">
<path d="M8.12427 2.29616C9.31178 2.32568 10.4458 2.79066 11.3056 3.6004L21.3905 13.5637C21.7542 13.9306 22.0245 14.3776 22.179 14.8679C22.1898 14.906 22.2107 14.9405 22.2398 14.9676C22.2688 14.9947 22.3049 15.0135 22.344 15.0219C22.3824 15.0309 22.4224 15.0306 22.4607 15.0211C22.4989 15.0117 22.5343 14.9932 22.564 14.9676L23.1691 14.3698C23.3395 14.2015 23.4749 14.0017 23.567 13.7818C23.6593 13.5619 23.7069 13.3262 23.7069 13.0882C23.7069 12.85 23.6593 12.6144 23.567 12.3945C23.4749 12.1746 23.3395 11.9748 23.1691 11.8064L13.0842 1.84332C12.4821 1.28841 11.6976 0.96673 10.8747 0.9375H6.29062C5.94512 0.938399 5.60677 1.03598 5.31479 1.21855C5.02282 1.40128 4.78909 1.6618 4.64037 1.96998C4.62014 2.00281 4.6095 2.04043 4.6095 2.07881C4.6095 2.11703 4.62014 2.15465 4.64037 2.18748C4.65831 2.22211 4.68599 2.25089 4.7202 2.27022C4.75442 2.28956 4.79365 2.29855 4.83289 2.29616H8.12427Z" fill="#E69F69"/>
<path d="M12.7088 22.1416C13.0511 22.4817 13.516 22.6741 14.0014 22.676C14.4869 22.6741 14.9518 22.4817 15.2941 22.1416L18.0446 19.4243L20.4191 17.0876C20.5896 16.9193 20.7248 16.7194 20.8171 16.4995C20.9094 16.2796 20.9569 16.044 20.9569 15.8058C20.9569 15.5678 20.9094 15.3322 20.8171 15.1123C20.7248 14.8924 20.5896 14.6926 20.4191 14.5242L10.3342 4.56094C9.73202 4.00618 8.9475 3.6845 8.12465 3.65527H3.54068C3.05436 3.65527 2.58797 3.84609 2.24414 4.1859C1.90016 4.52557 1.70703 4.98635 1.70703 5.46676V9.99557C1.73668 10.8085 2.06226 11.5836 2.62385 12.1784L12.7088 22.1416ZM6.74949 7.27826C7.02154 7.27826 7.28736 7.358 7.51349 7.5073C7.73961 7.65659 7.91586 7.8687 8.02003 8.11692C8.12404 8.36515 8.15126 8.63841 8.09834 8.90193C8.04527 9.16544 7.91419 9.40752 7.72197 9.59759C7.52961 9.78766 7.28447 9.91702 7.01774 9.96934C6.75101 10.0218 6.47455 9.99497 6.22318 9.89214C5.97196 9.78931 5.75709 9.61513 5.60608 9.39164C5.45493 9.16829 5.37433 8.90552 5.37433 8.63691C5.37433 8.27656 5.5191 7.93105 5.77701 7.67623C6.03492 7.42141 6.38483 7.27826 6.74949 7.27826Z" fill="#514AF3"/>
<path d="M11.755 13.3887L10.3435 14.7832C10.2857 14.8403 10.2281 14.8973 10.1703 14.9543C10.1221 15.0081 10.0625 15.0508 9.99513 15.0799C9.92777 15.1089 9.85417 15.1238 9.77859 15.1236C9.70301 15.1233 9.62713 15.1079 9.5555 15.0784C9.48373 15.0487 9.41773 15.0055 9.36131 14.9514C9.1326 14.7254 9.1329 14.3945 9.36405 14.1523C9.65815 13.8618 9.95316 13.5704 10.2471 13.2799L10.9451 12.5904C10.4526 12.4294 10.0494 12.4873 9.71654 12.7847C9.42792 13.0425 9.15967 13.3349 8.87515 13.6041C8.61237 13.8639 8.27675 13.8746 8.03344 13.6395C7.78998 13.4045 7.79758 13.0663 8.05686 12.8084C8.98205 11.8943 9.90754 10.9799 10.8333 10.0654C11.0963 9.80564 11.4308 9.79394 11.6682 10.0231C11.9056 10.2523 11.9022 10.6001 11.6322 10.8708L11.0496 11.4464C11.0412 11.4545 11.042 11.4714 11.0388 11.4864C11.2403 11.5768 11.4412 11.6757 11.642 11.7511C11.6726 11.7576 11.7036 11.7573 11.733 11.7502C11.7623 11.7432 11.7892 11.7297 11.8118 11.7107C11.946 11.5936 12.0646 11.4609 12.1901 11.337C12.4343 11.1112 12.7743 11.1159 13.0003 11.3446C13.2263 11.5734 13.2251 11.9051 12.9888 12.1386C12.8467 12.2789 12.7047 12.4192 12.5628 12.5595C12.5542 12.5721 12.5473 12.5862 12.5424 12.601C13.0929 13.5755 13.0631 14.4873 12.4389 15.3348L12.4507 15.4171C12.5295 15.3938 12.6112 15.3786 12.6945 15.372C13.5285 15.3777 14.3624 15.3866 15.1965 15.3985C15.3008 15.3918 15.4073 15.4156 15.5026 15.4672C15.5981 15.5186 15.6783 15.5954 15.7333 15.6881C15.7947 15.773 15.8279 15.8734 15.8277 15.9738C15.8276 16.0743 15.7941 16.1695 15.7324 16.2447C15.626 16.3714 15.4737 16.4523 15.3036 16.4727C13.9152 16.4748 12.5248 16.4514 11.1346 16.4337C11.0178 16.4403 10.899 16.4087 10.7964 16.3436C10.6939 16.2784 10.6131 16.1836 10.5666 16.0734C10.5149 15.9652 10.4988 15.8461 10.5202 15.7337C10.5417 15.6213 10.5996 15.5215 10.6857 15.4489C10.9696 15.1685 11.2537 14.8879 11.5288 14.6004C11.8435 14.2796 11.9068 13.8825 11.755 13.3887Z" fill="white"/>
</g>
<defs>
<clipPath id="clip0_7_857">
<rect width="24" height="24" fill="white" transform="translate(0.707031 0.248047)"/>
</clipPath>
</defs>
</svg>
