<svg width="25" height="25" viewBox="0 0 25 25" fill="none" xmlns="http://www.w3.org/2000/svg">
<path d="M18.4394 1.78558C20.0106 1.70579 21.3911 2.73682 21.7179 4.30102C21.8145 4.76318 21.9208 5.30796 22.033 5.9399C21.6807 5.8125 21.3066 5.73214 20.9191 5.70507C19.3904 5.59835 16.8695 5.4803 13.1956 5.4803C9.52194 5.4803 7.00093 5.59835 5.47233 5.70507C3.73158 5.82653 2.26137 7.02394 1.82288 8.72434C1.76601 7.95478 1.73074 7.30045 1.70956 6.75595C1.64739 5.15759 2.7389 3.82171 4.28423 3.51956C5.75485 3.232 8.05968 2.84 11.3354 2.43864C14.6114 2.03742 16.9427 1.86154 18.4394 1.78558Z" fill="#514AF3"/>
<path fill-rule="evenodd" clip-rule="evenodd" d="M5.55714 23.7533C7.0555 23.8578 9.54808 23.975 13.1961 23.975C16.8442 23.975 19.3368 23.8578 20.8351 23.7533C22.2143 23.657 23.3284 22.6158 23.4654 21.2012C23.586 19.9561 23.707 18.0364 23.707 15.344C23.707 12.6517 23.586 10.7319 23.4654 9.4867C23.3284 8.0723 22.2143 7.03106 20.8351 6.93469C19.3368 6.8301 16.8442 6.71289 13.1961 6.71289C9.54808 6.71289 7.0555 6.8301 5.55714 6.93469C4.17795 7.03106 3.06387 8.0723 2.92685 9.4867C2.80629 10.7319 2.6853 12.6517 2.6853 15.344C2.6853 18.0364 2.80629 19.9561 2.92685 21.2012C3.06387 22.6158 4.17795 23.657 5.55714 23.7533ZM5.61861 10.9052C5.61861 10.4966 5.94685 10.1654 6.3519 10.1654H10.2628C10.6679 10.1654 10.9963 10.4966 10.9963 10.9052C10.9963 11.3138 10.6679 11.645 10.2628 11.645H6.3519C5.94685 11.645 5.61861 11.3138 5.61861 10.9052ZM5.61861 16.8236C5.61861 16.415 5.94685 16.0838 6.3519 16.0838H10.2628C10.6679 16.0838 10.9963 16.415 10.9963 16.8236C10.9963 17.2321 10.6679 17.5634 10.2628 17.5634H6.3519C5.94685 17.5634 5.61861 17.2321 5.61861 16.8236ZM6.3519 19.0431C5.94685 19.0431 5.61861 19.3743 5.61861 19.7829C5.61861 20.1913 5.94685 20.5227 6.3519 20.5227H20.0404C20.4454 20.5227 20.7737 20.1913 20.7737 19.7829C20.7737 19.3743 20.4454 19.0431 20.0404 19.0431H6.3519ZM5.61861 13.8644C5.61861 13.4558 5.94685 13.1246 6.3519 13.1246H10.2628C10.6679 13.1246 10.9963 13.4558 10.9963 13.8644C10.9963 14.273 10.6679 14.6042 10.2628 14.6042H6.3519C5.94685 14.6042 5.61861 14.273 5.61861 13.8644ZM14.3851 17.4997C14.9136 17.5339 15.6498 17.5634 16.6182 17.5634C17.5867 17.5634 18.3229 17.5339 18.8514 17.4997C19.5995 17.4512 20.1736 16.872 20.2217 16.1174C20.2556 15.5842 20.2848 14.8414 20.2848 13.8644C20.2848 12.8873 20.2556 12.1447 20.2217 11.6114C20.1736 10.8567 19.5995 10.2775 18.8514 10.229C18.3229 10.1949 17.5867 10.1654 16.6182 10.1654C15.6498 10.1654 14.9136 10.1949 14.3851 10.229C13.637 10.2775 13.0629 10.8567 13.0148 11.6114C12.9809 12.1447 12.9517 12.8873 12.9517 13.8644C12.9517 14.8414 12.9809 15.5842 13.0148 16.1174C13.0629 16.872 13.637 17.4512 14.3851 17.4997Z" fill="#E69F69"/>
</svg>
