<svg width="250" height="250" viewBox="0 0 250 250" fill="none" xmlns="http://www.w3.org/2000/svg">
<path fill-rule="evenodd" clip-rule="evenodd" d="M10.4167 10.4167C10.4167 4.6637 15.0804 0 20.8333 0H229.167C234.92 0 239.583 4.6637 239.583 10.4167V41.6667C239.583 47.4196 234.92 52.0833 229.167 52.0833H20.8333C15.0804 52.0833 10.4167 47.4196 10.4167 41.6667V10.4167ZM26.0417 67.7083H223.958V229.167H239.583C245.336 229.167 250 233.83 250 239.583C250 245.336 245.336 250 239.583 250H192.708V208.333C192.708 193.951 181.049 182.292 166.667 182.292C152.284 182.292 140.625 193.951 140.625 208.333V250H10.4167C4.6637 250 0 245.336 0 239.583C0 233.83 4.6637 229.167 10.4167 229.167H26.0417V67.7083ZM72.9167 98.9583C67.1638 98.9583 62.5 103.622 62.5 109.375V130.208C62.5 135.961 67.1638 140.625 72.9167 140.625H93.75C99.5029 140.625 104.167 135.961 104.167 130.208V109.375C104.167 103.622 99.5029 98.9583 93.75 98.9583H72.9167ZM145.833 109.375C145.833 103.622 150.497 98.9583 156.25 98.9583H177.083C182.836 98.9583 187.5 103.622 187.5 109.375V130.208C187.5 135.961 182.836 140.625 177.083 140.625H156.25C150.497 140.625 145.833 135.961 145.833 130.208V109.375ZM72.9167 171.875C67.1638 171.875 62.5 176.539 62.5 182.292V203.125C62.5 208.878 67.1638 213.542 72.9167 213.542H93.75C99.5029 213.542 104.167 208.878 104.167 203.125V182.292C104.167 176.539 99.5029 171.875 93.75 171.875H72.9167Z" fill="#514AF3"/>
</svg>
