<svg width="25" height="24" viewBox="0 0 25 24" fill="none" xmlns="http://www.w3.org/2000/svg">
<path d="M12.1163 17.8578L11.6008 16.1988C11.5778 16.1159 11.533 16.0417 11.4716 15.9853C11.4103 15.9287 11.335 15.8922 11.2548 15.8801C11.1727 15.8766 11.0914 15.8981 11.0203 15.942C10.9492 15.9859 10.8913 16.0505 10.8532 16.1282L10.5072 16.8627C9.82647 16.3731 9.27385 15.7064 8.90145 14.9254C8.52906 14.1445 8.34916 13.2751 8.37887 12.3994C8.38223 12.3408 8.37445 12.2821 8.3562 12.2268C8.33795 12.1714 8.30938 12.1205 8.27239 12.0771C8.2354 12.0336 8.19055 11.9986 8.14062 11.9741C8.09069 11.9494 8.03668 11.9358 7.98176 11.9339C7.8716 11.9298 7.76438 11.972 7.68294 12.0511C7.60151 12.1303 7.55224 12.2404 7.54569 12.3578C7.51025 13.4061 7.73017 14.4463 8.18383 15.3768C8.63758 16.3073 9.30953 17.0962 10.1341 17.6665L9.81443 18.3437C9.77826 18.4231 9.76476 18.5122 9.77556 18.5998C9.78636 18.6873 9.82106 18.7696 9.87525 18.8364C9.91134 18.8798 9.95513 18.9153 10.0041 18.9406C10.053 18.9659 10.1062 18.9805 10.1605 18.9837C10.2152 18.9867 10.2701 18.9809 10.3233 18.9668L11.8777 18.4104C11.983 18.3717 12.0704 18.2912 12.1216 18.1856C12.159 18.0796 12.1571 17.9624 12.1163 17.8578Z" fill="#E69F69"/>
<path d="M5.78652 10.2333H2.99609V6.10285L4.39131 3.9248L5.78652 6.10285V10.2333Z" fill="#E69F69"/>
<path d="M4.94664 1.77637H7.92048C8.06788 1.77637 8.20931 1.83889 8.3135 1.95018C8.41777 2.06148 8.47637 2.21243 8.47637 2.36983V3.23034H4.39075V2.36983C4.39075 2.21243 4.44927 2.06148 4.55354 1.95018C4.65781 1.83889 4.79915 1.77637 4.94664 1.77637Z" fill="#E69F69"/>
<path d="M6.48213 6.10285V10.2333H9.85619V6.10285L8.46654 3.9248H5.08691L6.48213 6.10285Z" fill="#E69F69"/>
<path d="M17.9765 14.7959H17.9721C16.4644 14.7959 15.6145 14.7959 14.5746 14.8544C13.9711 14.8884 13.4774 15.3682 13.3702 16.0224C13.2816 16.5638 13.187 17.2788 13.147 18.0453C13.1218 18.5273 13.4116 18.967 13.8638 19.0258C13.9607 19.0385 14.0676 19.0497 14.1843 19.0584L14.3578 21.2771C14.3942 21.7413 14.6964 22.1471 15.138 22.1925C15.312 22.2104 15.516 22.2232 15.743 22.2232C15.977 22.2232 16.1865 22.2096 16.364 22.1908C16.4736 22.1793 16.5759 22.1449 16.6677 22.0922C16.776 22.03 16.8793 21.9531 16.9781 21.8758C17.0118 21.8494 17.0447 21.8232 17.0771 21.7974C17.1416 21.7459 17.2045 21.6957 17.2693 21.6478C17.4631 21.5046 17.6436 21.406 17.8373 21.406H18.1113C18.305 21.406 18.4855 21.5046 18.6794 21.6478C18.7442 21.6957 18.807 21.7459 18.8716 21.7974C18.904 21.8232 18.9368 21.8494 18.9706 21.8758C19.0693 21.9531 19.1727 22.03 19.281 22.0922C19.3728 22.1449 19.475 22.1793 19.5847 22.1908C19.7621 22.2096 19.9717 22.2232 20.2056 22.2232C20.4327 22.2232 20.6367 22.2104 20.8107 22.1925C21.2523 22.1471 21.5545 21.7413 21.5908 21.2771L21.7644 19.0584C21.8811 19.0497 21.988 19.0385 22.0848 19.0258C22.5371 18.967 22.8269 18.5273 22.8016 18.0453C22.7617 17.2788 22.6671 16.5638 22.5784 16.0224C22.4712 15.3682 21.9775 14.8884 21.3741 14.8544C20.3342 14.7959 19.4843 14.7959 17.9765 14.7959Z" fill="#514AF3"/>
<path d="M10.3192 7.37793L10.4456 6.41404C10.4609 6.29712 10.4321 6.17855 10.3656 6.08427C10.299 5.99007 10.2001 5.92794 10.0906 5.91151C9.98109 5.89517 9.86994 5.92593 9.78171 5.99697C9.6934 6.0681 9.63521 6.17366 9.61991 6.29057L9.49345 7.25447C9.24767 7.21969 8.99788 7.23865 8.75914 7.31013C8.52048 7.38169 8.29786 7.5042 8.10495 7.6704C7.91196 7.83659 7.75269 8.04299 7.6368 8.2769C7.52082 8.51091 7.45068 8.76755 7.43047 9.03135C7.23699 10.5065 8.14522 11.2416 9.36185 11.4236C10.5784 11.6055 11.6409 11.1651 11.8344 9.68994C11.8828 9.43138 11.8815 9.16495 11.8309 8.90692C11.7801 8.6488 11.681 8.40439 11.5394 8.1883C11.3978 7.9723 11.2167 7.78906 11.007 7.64978C10.7972 7.51049 10.5633 7.41804 10.3192 7.37793Z" fill="#514AF3"/>
<path d="M16.665 15.1019C16.665 15.8982 17.2513 16.5437 17.9746 16.5437C18.6978 16.5437 19.2841 15.8982 19.2841 15.1019C19.2841 14.3056 18.6978 13.6602 17.9746 13.6602C17.2513 13.6602 16.665 14.3056 16.665 15.1019Z" fill="#E69F69" stroke="white" stroke-width="0.2"/>
<path d="M18.8765 17.0021C19.3244 17.0257 19.6779 17.3721 19.7528 17.8414C19.814 18.2253 19.8836 18.7309 19.9363 19.3078C19.9703 19.6812 19.713 20.0051 19.3601 20.0263C19.2603 20.0322 19.1485 20.038 19.0248 20.0432L18.9503 21.3275C18.9325 21.6347 18.73 21.8957 18.4419 21.9314C18.3035 21.9485 18.1439 21.9612 17.975 21.9612C17.8061 21.9612 17.6464 21.9485 17.5081 21.9314C17.22 21.8957 17.0175 21.6347 16.9997 21.3275L16.9252 20.0432C16.8015 20.038 16.6897 20.0322 16.59 20.0263C16.237 20.0051 15.9797 19.6812 16.0138 19.3078C16.0664 18.7309 16.136 18.2252 16.1973 17.8413C16.2722 17.3721 16.6256 17.0257 17.0735 17.0021C17.3108 16.9896 17.6095 16.9805 17.9749 16.9805C18.3405 16.9805 18.6391 16.9896 18.8765 17.0021Z" fill="#E69F69" stroke="white" stroke-width="0.2"/>
<path d="M21.5759 12.8305C21.5759 13.6267 20.9713 14.2722 20.2254 14.2722C19.4796 14.2722 18.875 13.6267 18.875 12.8305C18.875 12.0342 19.4796 11.3887 20.2254 11.3887C20.9713 11.3887 21.5759 12.0342 21.5759 12.8305Z" fill="#514AF3"/>
<path d="M14.4542 12.8305C14.4542 13.6267 15.0405 14.2722 15.7637 14.2722C16.487 14.2722 17.0733 13.6267 17.0733 12.8305C17.0733 12.0342 16.487 11.3887 15.7637 11.3887C15.0405 11.3887 14.4542 12.0342 14.4542 12.8305Z" fill="#514AF3"/>
</svg>
