<svg width="25" height="24" viewBox="0 0 25 24" fill="none" xmlns="http://www.w3.org/2000/svg">
<path d="M21.0459 17.0368V11.5519C21.0459 11.0671 20.8654 10.602 20.5443 10.2591C20.2231 9.91629 19.7876 9.72371 19.3334 9.72371H16.7648V5.38159L17.2785 5.72889C17.419 5.81879 17.5867 5.8472 17.7462 5.80793C17.9059 5.76874 18.0451 5.66511 18.1347 5.51868C18.219 5.36862 18.2455 5.18968 18.2088 5.01922C18.172 4.84876 18.0749 4.70014 17.9378 4.60451L13.2542 1.37766C13.1524 1.30647 13.0334 1.26855 12.9118 1.26855C12.7901 1.26855 12.671 1.30647 12.5692 1.37766L7.86007 4.57715C7.72291 4.67277 7.62575 4.8214 7.58905 4.99186C7.55235 5.16222 7.57887 5.34126 7.66308 5.49122C7.75273 5.63766 7.89194 5.74138 8.05152 5.78057C8.21118 5.81975 8.37887 5.79143 8.51933 5.70153L9.03305 5.35413V9.72371H6.46438C6.01022 9.72371 5.57463 9.91629 5.25353 10.2591C4.93233 10.602 4.75195 11.0671 4.75195 11.5519V17.0368H8.48505L9.08449 14.1846C9.17807 13.7332 9.41327 13.3295 9.75117 13.0401C10.0891 12.7509 10.5094 12.5935 10.9425 12.5941H14.8811C15.3142 12.5935 15.7344 12.7509 16.0723 13.0401C16.4102 13.3295 16.6454 13.7332 16.7391 14.1846L17.3384 17.0368H21.0459ZM12.9118 9.26658C12.5731 9.26658 12.242 9.15943 11.9603 8.95846C11.6788 8.75759 11.4593 8.47206 11.3296 8.13801C11.2001 7.80395 11.1661 7.43634 11.2322 7.0817C11.2983 6.72705 11.4614 6.40129 11.7008 6.1456C11.9403 5.88991 12.2455 5.71574 12.5776 5.64519C12.9098 5.57464 13.2541 5.61087 13.5671 5.7493C13.88 5.88763 14.1475 6.12196 14.3356 6.42265C14.5237 6.72324 14.6242 7.07674 14.6242 7.43834C14.6242 7.92322 14.4438 8.38826 14.1226 8.73108C13.8015 9.074 13.3659 9.26658 12.9118 9.26658Z" fill="#E69F69"/>
<path d="M15.6441 16.2686C15.7806 16.2337 15.9022 16.1507 15.9892 16.0329C16.0763 15.9152 16.1235 15.7695 16.1235 15.6196C16.1213 15.4385 16.053 15.2655 15.9329 15.1375C15.813 15.0093 15.6509 14.9364 15.4814 14.934H15.3272L15.2502 14.5866C15.2301 14.4989 15.194 14.4162 15.1439 14.3434C15.0939 14.2706 15.0309 14.2091 14.9585 14.1624C14.886 14.1157 14.8058 14.0847 14.7221 14.0711C14.6384 14.0577 14.5531 14.062 14.471 14.0838C14.3062 14.1292 14.1646 14.2417 14.0766 14.3972C13.9885 14.5527 13.9611 14.7389 14 14.9157H11.8167C11.8557 14.7389 11.8282 14.5527 11.7402 14.3972C11.6522 14.2417 11.5106 14.1292 11.3458 14.0838C11.2637 14.062 11.1784 14.0577 11.0947 14.0711C11.0111 14.0847 10.9307 14.1157 10.8584 14.1624C10.7859 14.2091 10.7229 14.2706 10.6728 14.3434C10.6228 14.4162 10.5866 14.4989 10.5666 14.5866L10.4896 14.934H10.344C10.1744 14.9364 10.0124 15.0093 9.89236 15.1375C9.77243 15.2655 9.70403 15.4385 9.7018 15.6196C9.7018 15.7695 9.74913 15.9152 9.8361 16.0329C9.92308 16.1507 10.0447 16.2337 10.1813 16.2686L9.83887 17.7221H9.48776C9.31747 17.7221 9.15415 17.7943 9.03369 17.9229C8.91323 18.0515 8.84564 18.2258 8.84564 18.4077C8.84564 18.5895 8.91323 18.7639 9.03369 18.8925C9.15415 19.021 9.31747 19.0933 9.48776 19.0933L9.12817 20.629H8.63159C8.46122 20.629 8.2979 20.7013 8.17744 20.8298C8.05707 20.9584 7.98938 21.1328 7.98938 21.3146C7.98938 21.4965 8.05707 21.6708 8.17744 21.7995C8.2979 21.928 8.46122 22.0002 8.63159 22.0002H8.86278C8.84546 22.1622 8.88368 22.3255 8.9702 22.4598C9.05673 22.5943 9.18576 22.6907 9.33364 22.7315H9.48776C9.63117 22.7303 9.7702 22.6786 9.88325 22.5844C9.9963 22.4902 10.0769 22.3587 10.1128 22.2104L10.1642 21.9819H15.6611L15.7126 22.2104C15.7484 22.3587 15.8291 22.4902 15.9421 22.5844C16.0552 22.6786 16.1941 22.7303 16.3375 22.7315H16.4917C16.6395 22.6907 16.7687 22.5943 16.8552 22.4598C16.9417 22.3255 16.9798 22.1622 16.9626 22.0002H17.1938C17.3641 22.0002 17.5274 21.928 17.6479 21.7995C17.7683 21.6708 17.8359 21.4965 17.8359 21.3146C17.8359 21.1328 17.7683 20.9584 17.6479 20.8298C17.5274 20.7013 17.3641 20.629 17.1938 20.629H16.6629L16.3375 19.0933C16.5079 19.0933 16.6712 19.021 16.7916 18.8925C16.9121 18.7639 16.9798 18.5895 16.9798 18.4077C16.9798 18.2258 16.9121 18.0515 16.7916 17.9229C16.6712 17.7943 16.5079 17.7221 16.3375 17.7221H15.9865L15.6441 16.2686ZM15.3358 20.629H10.4896L10.8492 19.0933H14.9761L15.3358 20.629ZM11.2003 17.7221L11.5341 16.3052H14.3597L14.6251 17.7221H11.2003Z" fill="#514AF3"/>
</svg>
