<svg width="25" height="24" viewBox="0 0 25 24" fill="none" xmlns="http://www.w3.org/2000/svg">
<path d="M9.70803 19.8525H7.7041V22.4999H9.70803V19.8525Z" fill="#E69F69"/>
<path d="M7.70501 17.4443H7.58301V17.5687V19.1193V19.2436H7.70501H9.70894H9.83095V19.1193V17.5687V17.4443H9.70894H7.70501Z" fill="#514AF3" stroke="white" stroke-width="0.1"/>
<path d="M18.0938 19.8525H16.0898V22.4999H18.0938V19.8525Z" fill="#E69F69"/>
<path d="M16.0917 17.4443H15.9697V17.5687V19.1193V19.2436H16.0917H18.0957H18.2177V19.1193V17.5687V17.4443H18.0957H16.0917Z" fill="#514AF3" stroke="white" stroke-width="0.1"/>
<path d="M14.249 6.95853L14.223 6.86975H14.1321H13.5787V5.85952C13.5787 5.67613 13.5072 5.50019 13.3799 5.37051C13.2527 5.24083 13.08 5.16797 12.9001 5.16797C12.7201 5.16797 12.5475 5.24083 12.4202 5.37051C12.2929 5.50019 12.2214 5.67613 12.2214 5.85952V6.86975H11.668H11.5771L11.5511 6.95853L10.334 11.1187L10.2871 11.2785H10.4508H15.3493H15.513L15.4662 11.1187L14.249 6.95853Z" fill="#514AF3" stroke="white" stroke-width="0.1"/>
<path d="M15.3497 11.9111H10.4512V22.5004H15.3497V11.9111ZM13.7836 22.5004H12.0172V20.4355C12.0171 20.319 12.0402 20.2037 12.0849 20.0965C12.1297 19.9894 12.1955 19.8926 12.278 19.8121C12.3605 19.7315 12.4583 19.6687 12.5652 19.6277C12.6722 19.5866 12.7862 19.5681 12.9004 19.5732C13.0122 19.5722 13.123 19.5938 13.2264 19.6367C13.33 19.6795 13.4242 19.7429 13.5035 19.8231C13.5828 19.9033 13.6459 19.9987 13.6888 20.1037C13.7318 20.2089 13.754 20.3216 13.754 20.4355L13.7836 22.5004ZM12.9004 15.6931C12.652 15.6945 12.4087 15.6208 12.2016 15.4813C11.9943 15.3417 11.8324 15.1426 11.7362 14.9092C11.6402 14.6757 11.6144 14.4185 11.6618 14.1701C11.7094 13.9215 11.8282 13.6931 12.0034 13.5136C12.1785 13.334 12.402 13.2116 12.6456 13.1616C12.8891 13.1117 13.1416 13.1366 13.3712 13.2331C13.6009 13.3296 13.7972 13.4934 13.9354 13.7038C14.0735 13.9142 14.1473 14.1616 14.1473 14.4148C14.1473 14.7525 14.0162 15.0765 13.7825 15.3159C13.5489 15.5554 13.2318 15.6911 12.9004 15.6931Z" fill="#E69F69"/>
<path d="M21.8047 17.5684H18.8359V22.4999H21.8047V17.5684Z" fill="#E69F69"/>
<path d="M21.8057 17.035H21.9833L21.9195 16.8661L21.8829 16.769L21.1783 14.7659L21.1493 14.6836H21.0635H19.5791H19.4932L19.4642 14.7659L18.7596 16.769L18.723 16.8661L18.6592 17.035H18.8369H21.8057Z" fill="#514AF3" stroke="white" stroke-width="0.1"/>
<path d="M6.96289 17.5684H3.99414V22.4999H6.96289V17.5684Z" fill="#E69F69"/>
<path d="M6.96182 17.035H7.13946L7.07577 16.8661L7.03917 16.769L6.33447 14.7659L6.30555 14.6836H6.21966H4.73522H4.64946L4.62042 14.7659L3.91584 16.769L3.87924 16.8661L3.81543 17.035H3.99307H6.96182Z" fill="#514AF3" stroke="white" stroke-width="0.1"/>
<path d="M13.0194 3.55207C13.0194 3.4834 12.9648 3.42773 12.8974 3.42773C12.83 3.42773 12.7754 3.4834 12.7754 3.55207V4.91976C12.7754 4.98843 12.83 5.0441 12.8974 5.0441C12.9648 5.0441 13.0194 4.98843 13.0194 4.91976V3.55207Z" fill="#E69F69"/>
<path d="M15.4628 1.5H12.9007C12.7996 1.5 12.7177 1.5835 12.7177 1.6865V3.0542C12.7177 3.1572 12.7996 3.2407 12.9007 3.2407H15.4628C15.5638 3.2407 15.6458 3.1572 15.6458 3.0542V1.6865C15.6458 1.5835 15.5638 1.5 15.4628 1.5Z" fill="#514AF3" stroke="white" stroke-width="0.1"/>
</svg>
