<svg width="25" height="25" viewBox="0 0 25 25" fill="none" xmlns="http://www.w3.org/2000/svg">
<path d="M8.82557 11.6285C8.87251 12.1003 9.16173 12.4929 9.57463 12.6909C10.2611 13.0203 11.363 13.5076 12.2156 13.6887V9.17984C12.0314 9.12772 11.8277 9.05741 11.6173 8.97757C11.1798 8.8117 10.6839 8.59324 10.2223 8.37887C9.75909 8.16375 9.32298 7.9491 9.00307 7.78847C8.92935 7.7515 8.86162 7.7173 8.80112 7.68652C8.76498 8.13478 8.73535 8.74063 8.73535 9.52111C8.73535 10.4732 8.77944 11.1653 8.82557 11.6285Z" fill="#514AF3"/>
<path d="M12.9298 9.17984V13.6887C13.7825 13.5076 14.8843 13.0203 15.5707 12.6909C15.9837 12.4929 16.2729 12.1003 16.3199 11.6285C16.366 11.1653 16.4101 10.4732 16.4101 9.52111C16.4101 8.74063 16.3805 8.13478 16.3443 7.68652C16.2838 7.7173 16.2161 7.7515 16.1424 7.78847C15.8225 7.9491 15.3864 8.16375 14.9231 8.37887C14.4616 8.59324 13.9656 8.8117 13.5281 8.97757C13.3177 9.05741 13.114 9.12772 12.9298 9.17984Z" fill="#514AF3"/>
<path d="M15.7368 6.65014C15.8536 6.70683 15.9604 6.77943 16.0543 6.86536C15.9832 6.90195 15.899 6.94511 15.8044 6.99312C15.4967 7.14918 15.0791 7.35669 14.6378 7.56372C14.1949 7.77151 13.7355 7.97539 13.3421 8.12611C13.1451 8.20157 12.972 8.26093 12.8301 8.30066C12.6783 8.34324 12.5986 8.35277 12.574 8.35277C12.5495 8.35277 12.4697 8.34324 12.3179 8.30066C12.176 8.26093 12.0029 8.20157 11.806 8.12611C11.4125 7.97539 10.9531 7.77151 10.5102 7.56372C10.0689 7.35669 9.6514 7.14918 9.3437 6.99312C9.24902 6.94511 9.16487 6.90195 9.09375 6.86536C9.18763 6.77943 9.29445 6.70683 9.41126 6.65014C10.253 6.24218 11.7309 5.58984 12.574 5.58984C13.4171 5.58984 14.895 6.24218 15.7368 6.65014Z" fill="#514AF3"/>
<path d="M13.1987 20.1079C13.2457 20.5798 13.5349 20.9724 13.9478 21.1704C14.6343 21.4998 15.7361 21.9871 16.5888 22.1682V17.6593C16.4046 17.6072 16.2009 17.5369 15.9905 17.4571C15.553 17.2912 15.057 17.0728 14.5955 16.8584C14.1323 16.6432 13.6962 16.4286 13.3762 16.2681C13.3025 16.231 13.2348 16.1968 13.1743 16.166C13.1381 16.6143 13.1085 17.2201 13.1085 18.0006C13.1085 18.9527 13.1526 19.6448 13.1987 20.1079Z" fill="#514AF3"/>
<path d="M17.3918 17.6593V22.1682C18.2227 21.9871 19.2962 21.4998 19.9651 21.1704C20.3674 20.9724 20.6492 20.5798 20.695 20.1079C20.7399 19.6448 20.7829 18.9527 20.7829 18.0006C20.7829 17.2201 20.754 16.6143 20.7188 16.166C20.6598 16.1968 20.5939 16.231 20.522 16.2681C20.2103 16.4286 19.7854 16.6432 19.3341 16.8584C18.8844 17.0728 18.4011 17.2912 17.9748 17.4571C17.7699 17.5369 17.5713 17.6072 17.3918 17.6593Z" fill="#514AF3"/>
<path d="M20.11 15.0339C20.2268 15.0906 20.3336 15.1632 20.4275 15.2492C20.3564 15.2857 20.2722 15.3289 20.1775 15.3769C19.8698 15.533 19.4523 15.7405 19.011 15.9475C18.5681 16.1553 18.1087 16.3592 17.7153 16.5099C17.5183 16.5854 17.3452 16.6447 17.2033 16.6844C17.0515 16.727 16.9717 16.7366 16.9472 16.7366C16.9227 16.7366 16.8429 16.727 16.6911 16.6844C16.5492 16.6447 16.3761 16.5854 16.1791 16.5099C15.7857 16.3592 15.3263 16.1553 14.8834 15.9475C14.4421 15.7405 14.0246 15.533 13.7169 15.3769C13.6222 15.3289 13.538 15.2857 13.4669 15.2492C13.5608 15.1632 13.6676 15.0906 13.7844 15.0339C14.6262 14.626 16.1041 13.9736 16.9472 13.9736C17.7903 13.9736 19.2682 14.626 20.11 15.0339Z" fill="#514AF3"/>
<path d="M12.8145 2.71465C12.6698 2.61073 12.4907 2.61075 12.3461 2.71468C12.1481 2.85689 11.8162 3.14605 11.35 3.7194C10.9836 4.16995 10.7428 4.50303 10.5893 4.73187C10.5145 4.84353 10.5031 4.97034 10.5476 5.07419C10.5921 5.17794 10.6893 5.25168 10.8175 5.26378C10.9806 5.27922 11.1985 5.29456 11.4862 5.30608V5.5819C11.4862 6.04159 11.4996 6.36514 11.5127 6.57008C11.5247 6.75853 11.6571 6.90725 11.8346 6.92383C11.9985 6.93897 12.2434 6.95355 12.5802 6.95355C12.9172 6.95355 13.1621 6.93897 13.326 6.92383C13.5035 6.90725 13.6358 6.75853 13.6478 6.57008C13.6608 6.36514 13.6744 6.04159 13.6744 5.5819V5.30608C13.962 5.29456 14.1799 5.27922 14.3429 5.26378C14.4711 5.25168 14.5684 5.17794 14.6128 5.07409C14.6573 4.97034 14.646 4.84353 14.5711 4.73187C14.4175 4.50293 14.1769 4.16995 13.8106 3.7194C13.3445 3.14605 13.0124 2.85689 12.8145 2.71465Z" fill="#E69F69"/>
<path fill-rule="evenodd" clip-rule="evenodd" d="M4.63184 18.1884C4.63184 16.0209 6.25989 14.2637 8.26828 14.2637C10.2766 14.2637 11.9046 16.0209 11.9046 18.1884C11.9046 18.9528 11.702 19.6665 11.3515 20.27C11.4045 20.3175 11.4573 20.3649 11.5101 20.412L11.5121 20.4139C11.8037 20.6748 12.0932 20.9339 12.3791 21.2199C12.7224 21.5632 12.7697 22.0972 12.4361 22.4695C12.4056 22.5036 12.373 22.5394 12.3382 22.5768C12.3035 22.6143 12.2704 22.6495 12.2388 22.6825C11.894 23.0426 11.3992 22.9915 11.0811 22.621C10.8161 22.3123 10.5762 21.9998 10.3345 21.685L10.3333 21.6835L10.333 21.683C10.2894 21.6263 10.2459 21.5695 10.202 21.5126C9.64183 21.893 8.9787 22.113 8.26828 22.113C6.25989 22.113 4.63184 20.3558 4.63184 18.1884ZM8.29059 20.7135C9.57196 20.7135 10.6108 19.5929 10.6108 18.2106C10.6108 16.8282 9.57196 15.7076 8.29059 15.7076C7.00922 15.7076 5.9704 16.8282 5.9704 18.2106C5.9704 19.5929 7.00922 20.7135 8.29059 20.7135Z" fill="#E69F69"/>
</svg>
