<svg width="25" height="25" viewBox="0 0 25 25" fill="none" xmlns="http://www.w3.org/2000/svg">
<path d="M7.9238 11.3233C7.9732 11.8199 8.27758 12.233 8.71212 12.4415C9.4346 12.7881 10.5942 13.3009 11.4915 13.4915V8.74637C11.2977 8.69152 11.0833 8.61752 10.8618 8.5335C10.4014 8.35894 9.87947 8.12903 9.39374 7.90343C8.90624 7.67703 8.44728 7.45114 8.1106 7.28209C8.03303 7.24319 7.96175 7.20719 7.89807 7.1748C7.86004 7.64655 7.82886 8.28414 7.82886 9.10552C7.82886 10.1075 7.87525 10.8359 7.9238 11.3233Z" fill="#514AF3"/>
<path d="M12.2432 8.74637V13.4915C13.1405 13.3009 14.3001 12.7881 15.0225 12.4415C15.4571 12.233 15.7615 11.8199 15.8109 11.3233C15.8594 10.8359 15.9058 10.1075 15.9058 9.10552C15.9058 8.28414 15.8746 7.64655 15.8366 7.1748C15.7729 7.20719 15.7016 7.24319 15.6241 7.28209C15.2874 7.45114 14.8284 7.67703 14.3409 7.90343C13.8552 8.12903 13.3332 8.35894 12.8729 8.5335C12.6514 8.61752 12.437 8.69152 12.2432 8.74637Z" fill="#514AF3"/>
<path d="M15.1971 6.0846C15.32 6.14426 15.4324 6.22067 15.5312 6.3111C15.4564 6.34961 15.3678 6.39503 15.2682 6.44556C14.9443 6.6098 14.5049 6.82817 14.0405 7.04605C13.5744 7.26473 13.091 7.4793 12.6769 7.63792C12.4696 7.71733 12.2874 7.77979 12.1381 7.82161C11.9784 7.86642 11.8944 7.87645 11.8686 7.87645C11.8427 7.87645 11.7588 7.86642 11.599 7.82161C11.4497 7.77979 11.2675 7.71733 11.0603 7.63792C10.6462 7.4793 10.1627 7.26473 9.69663 7.04605C9.23222 6.82817 8.7928 6.6098 8.46898 6.44556C8.36934 6.39503 8.28078 6.34961 8.20593 6.3111C8.30473 6.22067 8.41714 6.14426 8.54008 6.0846C9.42597 5.65527 10.9813 4.96875 11.8686 4.96875C12.7559 4.96875 14.3112 5.65527 15.1971 6.0846Z" fill="#514AF3"/>
<path d="M12.5267 20.2471C12.5761 20.7437 12.8805 21.1568 13.315 21.3653C14.0375 21.7119 15.1971 22.2248 16.0944 22.4154V17.6702C15.9006 17.6153 15.6862 17.5414 15.4647 17.4573C15.0043 17.2828 14.4824 17.053 13.9966 16.8273C13.5091 16.6009 13.0502 16.375 12.7135 16.206C12.6359 16.167 12.5647 16.131 12.501 16.0986C12.4629 16.5704 12.4318 17.208 12.4318 18.0293C12.4318 19.0313 12.4782 19.7597 12.5267 20.2471Z" fill="#514AF3"/>
<path d="M16.9403 17.6702V22.4154C17.8146 22.2248 18.9444 21.7119 19.6484 21.3653C20.0718 21.1568 20.3684 20.7437 20.4165 20.2471C20.4638 19.7597 20.509 19.0313 20.509 18.0293C20.509 17.208 20.4786 16.5704 20.4416 16.0986C20.3795 16.131 20.3101 16.167 20.2345 16.206C19.9065 16.375 19.4593 16.6009 18.9843 16.8273C18.511 17.053 18.0025 17.2828 17.5538 17.4573C17.3381 17.5414 17.1292 17.6153 16.9403 17.6702Z" fill="#514AF3"/>
<path d="M19.7988 14.9078C19.9217 14.9675 20.0341 15.0439 20.1329 15.1343C20.0581 15.1728 19.9695 15.2183 19.8698 15.2688C19.546 15.433 19.1066 15.6514 18.6422 15.8693C18.1761 16.088 17.6926 16.3025 17.2786 16.4612C17.0713 16.5406 16.8891 16.603 16.7398 16.6448C16.58 16.6897 16.4961 16.6997 16.4703 16.6997C16.4444 16.6997 16.3605 16.6897 16.2007 16.6448C16.0514 16.603 15.8692 16.5406 15.6619 16.4612C15.2479 16.3025 14.7644 16.088 14.2983 15.8693C13.8339 15.6514 13.3945 15.433 13.0707 15.2688C12.971 15.2183 12.8825 15.1728 12.8076 15.1343C12.9064 15.0439 13.0188 14.9675 13.1418 14.9078C14.0277 14.4785 15.583 13.792 16.4703 13.792C17.3576 13.792 18.9129 14.4785 19.7988 14.9078Z" fill="#514AF3"/>
<path d="M12.1212 1.94237C11.9689 1.833 11.7804 1.83302 11.6282 1.9424C11.4199 2.09206 11.0705 2.39637 10.5799 2.99977C10.1943 3.47392 9.94094 3.82445 9.77941 4.06529C9.70062 4.1828 9.68869 4.31625 9.73546 4.42554C9.78232 4.53473 9.8846 4.61234 10.0195 4.62507C10.1911 4.64131 10.4205 4.65746 10.7232 4.66959V4.95986C10.7232 5.44364 10.7374 5.78414 10.7511 5.99981C10.7638 6.19814 10.9031 6.35465 11.0899 6.3721C11.2624 6.38804 11.5201 6.40338 11.8746 6.40338C12.2292 6.40338 12.4869 6.38804 12.6595 6.3721C12.8463 6.35465 12.9855 6.19814 12.9981 5.99981C13.0118 5.78414 13.0261 5.44364 13.0261 4.95986V4.66959C13.3288 4.65746 13.5581 4.64131 13.7297 4.62507C13.8646 4.61234 13.9669 4.53473 14.0137 4.42544C14.0606 4.31625 14.0486 4.1828 13.9698 4.06529C13.8082 3.82435 13.5549 3.47392 13.1694 2.99977C12.6789 2.39637 12.3295 2.09206 12.1212 1.94237Z" fill="#E69F69"/>
<path fill-rule="evenodd" clip-rule="evenodd" d="M3.50879 18.226C3.50879 15.945 5.22215 14.0957 7.33578 14.0957C9.44931 14.0957 11.1627 15.945 11.1627 18.226C11.1627 19.0306 10.9494 19.7817 10.5806 20.4167C10.6363 20.4668 10.6919 20.5166 10.7475 20.5662L10.7495 20.5681C11.0565 20.8428 11.3611 21.1154 11.662 21.4164C12.0233 21.7777 12.0731 22.3397 11.722 22.7315C11.6899 22.7674 11.6556 22.8051 11.619 22.8445C11.5825 22.8839 11.5476 22.921 11.5144 22.9557C11.1515 23.3347 10.6307 23.2808 10.2959 22.8909C10.0171 22.566 9.76458 22.2372 9.51026 21.9059L9.50904 21.9043L9.50866 21.9038C9.46283 21.8441 9.417 21.7844 9.3708 21.7245C8.7813 22.1248 8.08343 22.3563 7.33578 22.3563C5.22215 22.3563 3.50879 20.5071 3.50879 18.226ZM7.35926 20.8835C8.70777 20.8835 9.80102 19.7042 9.80102 18.2494C9.80102 16.7947 8.70777 15.6153 7.35926 15.6153C6.01075 15.6153 4.9175 16.7947 4.9175 18.2494C4.9175 19.7042 6.01075 20.8835 7.35926 20.8835Z" fill="#E69F69"/>
</svg>
