<svg width="25" height="25" viewBox="0 0 25 25" fill="none" xmlns="http://www.w3.org/2000/svg">
<path d="M23.7298 22.8646L18.4283 2.23972C18.3887 2.10367 18.3146 1.98631 18.2168 1.90401C18.1189 1.82182 18.0021 1.77886 17.883 1.78135H15.8003C15.7501 1.78135 15.7019 1.80553 15.6664 1.84849C15.6309 1.89146 15.6109 1.94978 15.6109 2.01048V3.15635C15.6109 3.39949 15.5312 3.63257 15.3891 3.80452C15.2471 3.97647 15.0545 4.07298 14.8536 4.07298C14.6527 4.07298 14.4601 3.97647 14.318 3.80452C14.176 3.63257 14.0962 3.39949 14.0962 3.15635V2.01048C14.0962 1.94978 14.0763 1.89146 14.0408 1.84849C14.0053 1.80553 13.9571 1.78135 13.9069 1.78135H11.8242C11.7022 1.78073 11.5834 1.82764 11.4852 1.91522C11.387 2.0027 11.3147 2.12609 11.2789 2.26722L5.97735 22.8646C5.95081 22.9668 5.94524 23.0753 5.96108 23.1807C5.97692 23.286 6.01373 23.3853 6.06827 23.4696C6.11638 23.5634 6.18324 23.6411 6.2626 23.6955C6.34205 23.75 6.43143 23.7795 6.52269 23.7813H13.9069C13.9571 23.7813 14.0053 23.7571 14.0408 23.7141C14.0763 23.6711 14.0962 23.6128 14.0962 23.5521V20.1146C14.0962 19.8715 14.176 19.6383 14.318 19.4664C14.4601 19.2945 14.6527 19.198 14.8536 19.198C15.0545 19.198 15.2471 19.2945 15.3891 19.4664C15.5312 19.6383 15.6109 19.8715 15.6109 20.1146V23.5521C15.6109 23.6128 15.6309 23.6711 15.6664 23.7141C15.7019 23.7571 15.7501 23.7813 15.8003 23.7813H23.1845C23.2757 23.781 23.3654 23.7548 23.4465 23.7045C23.5275 23.654 23.5976 23.5812 23.6508 23.4916C23.7041 23.4022 23.739 23.2987 23.7527 23.1896C23.7665 23.0807 23.7586 22.9692 23.7298 22.8646ZM14.8536 5.67712C15.0545 5.67712 15.2471 5.77373 15.3891 5.94568C15.5312 6.11753 15.6109 6.35071 15.6109 6.59385V8.65635C15.6109 8.89939 15.5312 9.13257 15.3891 9.30452C15.2471 9.47637 15.0545 9.57298 14.8536 9.57298C14.6527 9.57298 14.4601 9.47637 14.318 9.30452C14.176 9.13257 14.0962 8.89939 14.0962 8.65635V6.59385C14.0962 6.35071 14.176 6.11753 14.318 5.94568C14.4601 5.77373 14.6527 5.67712 14.8536 5.67712ZM14.8536 16.9062C14.6527 16.9062 14.4601 16.8097 14.318 16.6378C14.176 16.4659 14.0962 16.2328 14.0962 15.9896V12.7812C14.0962 12.5382 14.176 12.305 14.318 12.1331C14.4601 11.9612 14.6527 11.8646 14.8536 11.8646C15.0545 11.8646 15.2471 11.9612 15.3891 12.1331C15.5312 12.305 15.6109 12.5382 15.6109 12.7812V15.9896C15.6109 16.2328 15.5312 16.4659 15.3891 16.6378C15.2471 16.8097 15.0545 16.9062 14.8536 16.9062Z" fill="#514AF3"/>
<path d="M22.5121 7.18932C22.5087 7.18311 22.5069 7.176 22.5069 7.1688C22.5069 7.16159 22.5087 7.15448 22.5121 7.14827C22.5121 7.14827 22.5121 7.14827 22.5511 7.14827C22.6497 7.18995 22.759 7.194 22.8602 7.15997C22.9614 7.12586 23.048 7.05564 23.1052 6.96148C23.1623 6.86732 23.1863 6.75516 23.1731 6.64435C23.1598 6.53354 23.1102 6.4311 23.0327 6.35467L21.9198 4.91114C21.9198 4.91114 21.9198 4.91114 21.9198 4.87009H21.9524C22.0537 4.9007 22.1619 4.89404 22.259 4.85119C22.3562 4.80834 22.4364 4.73183 22.4866 4.63443C22.5367 4.53703 22.5537 4.4245 22.5346 4.31558C22.5156 4.20657 22.4618 4.10782 22.3819 4.03545L21.0803 2.55771C21.0508 2.52308 21.0147 2.49542 20.9743 2.47655C20.934 2.45768 20.8902 2.44803 20.846 2.44825C20.801 2.44834 20.7563 2.45808 20.7149 2.47691C20.6735 2.49573 20.6362 2.52322 20.6052 2.55771L19.3036 4.04229C19.2073 4.11079 19.14 4.21575 19.116 4.3353C19.0919 4.45484 19.1127 4.57952 19.1742 4.68313C19.2357 4.78683 19.3332 4.86136 19.4459 4.89116C19.5585 4.92086 19.6779 4.90349 19.7787 4.84273C19.7821 4.84894 19.7839 4.85605 19.7839 4.86325C19.7839 4.87045 19.7821 4.87756 19.7787 4.88378L18.6919 6.32731C18.6204 6.40454 18.5757 6.50482 18.5651 6.61203C18.5545 6.71925 18.5787 6.82709 18.6336 6.91801C18.6885 7.00901 18.7711 7.07788 18.8679 7.11343C18.9647 7.14899 19.07 7.14926 19.167 7.11407C19.173 7.111 19.1797 7.10947 19.1865 7.10947C19.1932 7.10947 19.1999 7.111 19.206 7.11407C19.2094 7.12028 19.2112 7.12739 19.2112 7.13459C19.2112 7.14179 19.2094 7.1489 19.206 7.15511L18.3665 8.2771C18.303 8.34308 18.2599 8.42752 18.2423 8.51943C18.2248 8.61143 18.2336 8.70676 18.2679 8.79335C18.302 8.87995 18.3601 8.95394 18.4344 9.00571C18.5087 9.05756 18.5961 9.08492 18.6854 9.08438H19.8764C19.9626 9.08438 20.0454 9.12039 20.1064 9.18457C20.1674 9.24875 20.2018 9.33571 20.2018 9.42645V10.3158C20.2018 10.4973 20.2703 10.6713 20.3924 10.7996C20.5144 10.9279 20.6799 11 20.8525 11C21.0252 11 21.1907 10.9279 21.3127 10.7996C21.4347 10.6713 21.5033 10.4973 21.5033 10.3158V9.46066C21.5033 9.36992 21.5376 9.28296 21.5987 9.21878C21.6597 9.1546 21.7425 9.11859 21.8287 9.11859H23.0327C23.122 9.11913 23.2094 9.09176 23.2837 9.04C23.358 8.98815 23.4161 8.91416 23.4502 8.82756C23.4845 8.74096 23.4933 8.64563 23.4758 8.55364C23.4582 8.46173 23.4151 8.37729 23.3516 8.31131L22.5121 7.18932Z" fill="#E69F69"/>
<path d="M9.1592 14.2098C9.15319 14.1997 9.14999 14.188 9.14999 14.1762C9.14999 14.1644 9.15319 14.1528 9.1592 14.1427C9.1592 14.1427 9.15921 14.1427 9.22772 14.1427C9.40056 14.2108 9.59238 14.2176 9.76983 14.1618C9.94717 14.1059 10.0991 13.991 10.1994 13.8369C10.2996 13.6828 10.3418 13.4991 10.3186 13.3177C10.2954 13.1363 10.2084 12.9685 10.0725 12.8434L8.12039 10.4802C8.12039 10.4802 8.12039 10.4802 8.12039 10.4131H8.17744C8.35507 10.4632 8.54483 10.4522 8.71522 10.3821C8.88571 10.3119 9.0265 10.1867 9.11447 10.0272C9.20244 9.86773 9.23214 9.68353 9.19877 9.50519C9.16541 9.32685 9.07086 9.16507 8.93092 9.04667L6.64783 6.62741C6.59614 6.57077 6.5328 6.52548 6.46193 6.49455C6.39107 6.46371 6.31438 6.44788 6.23684 6.44825C6.1577 6.44843 6.07951 6.46435 6.00686 6.49519C5.93421 6.52603 5.86879 6.57095 5.81447 6.62741L3.53137 9.05783C3.36252 9.16992 3.24453 9.34186 3.20222 9.53749C3.1599 9.73321 3.19655 9.93736 3.30446 10.107C3.41238 10.2767 3.58315 10.3987 3.78087 10.4475C3.9786 10.4962 4.18787 10.4678 4.36466 10.3682C4.37068 10.3785 4.37387 10.39 4.37387 10.4018C4.37387 10.4136 4.37068 10.4253 4.36466 10.4354L2.45832 12.7987C2.33286 12.925 2.25453 13.0893 2.236 13.2648C2.21747 13.4403 2.25981 13.6168 2.35619 13.7658C2.45257 13.9147 2.59734 14.0275 2.7671 14.0857C2.93685 14.1439 3.12166 14.1442 3.29164 14.0867C3.30235 14.0816 3.31405 14.0791 3.32589 14.0791C3.33774 14.0791 3.34944 14.0816 3.36014 14.0867C3.36616 14.0968 3.36931 14.1084 3.36931 14.1202C3.36931 14.132 3.36616 14.1437 3.36014 14.1538L1.88754 15.9907C1.77641 16.0987 1.70061 16.2369 1.66982 16.3874C1.63902 16.5379 1.65463 16.694 1.71464 16.8358C1.77465 16.9776 1.87635 17.0987 2.00678 17.1835C2.13719 17.2683 2.29041 17.3132 2.4469 17.3122H4.5359C4.68731 17.3122 4.83252 17.3713 4.93957 17.4763C5.04661 17.5813 5.10667 17.7237 5.10667 17.8722V19.3282C5.10667 19.6253 5.22697 19.9102 5.44107 20.1202C5.65517 20.3302 5.94549 20.4482 6.2483 20.4482C6.55103 20.4482 6.84135 20.3302 7.05545 20.1202C7.26954 19.9102 7.38984 19.6253 7.38984 19.3282V17.9282C7.38984 17.7797 7.4499 17.6373 7.55695 17.5323C7.664 17.4273 7.80921 17.3682 7.96062 17.3682H10.0725C10.2289 17.3692 10.3821 17.3244 10.5126 17.2395C10.643 17.1547 10.7447 17.0336 10.8047 16.8918C10.8647 16.75 10.8803 16.5939 10.8495 16.4434C10.8187 16.2929 10.7429 16.1547 10.6319 16.0467L9.1592 14.2098Z" fill="#E69F69"/>
</svg>
