<svg width="25" height="25" viewBox="0 0 25 25" fill="none" xmlns="http://www.w3.org/2000/svg">
<path d="M23.6924 17.5122C23.6861 17.4516 23.6679 17.3934 23.6392 17.3426C23.6105 17.2917 23.5721 17.2495 23.5271 17.2194C20.2339 14.9014 16.4627 13.712 12.6369 13.7844C8.81115 13.8568 5.08215 15.1883 1.8685 17.6293C1.82371 17.665 1.78611 17.7119 1.75832 17.7666C1.73053 17.8214 1.71322 17.8827 1.70761 17.9463C1.70455 18.0103 1.7136 18.0742 1.7341 18.1336C1.7546 18.193 1.78603 18.2463 1.82611 18.2896L6.04191 22.6718C6.09553 22.7268 6.1618 22.7618 6.23221 22.7723C6.30262 22.7828 6.37399 22.7683 6.43722 22.7306C8.71649 21.3464 11.2688 20.7062 13.8317 20.8756C13.8852 20.8773 13.9536 20.8736 13.9906 20.8756C14.0646 20.8794 14.1386 20.8794 14.1755 20.8794C14.3974 20.8794 14.3974 20.8794 14.5823 20.8756C14.8042 20.871 15.063 20.9232 15.2479 20.9669L16.1724 21.2526C16.3164 21.233 16.0343 21.2002 16.1724 21.2526C16.3106 21.3052 16.0648 21.1374 16.1724 21.2526C16.2811 21.367 16.1115 21.0966 16.1724 21.2526C16.2333 21.4088 16.1696 21.0811 16.1724 21.2526L17.4667 21.6666C17.6146 21.7103 18.0584 21.8853 18.1323 21.929C18.2063 21.9727 18.3402 22.0365 18.4096 22.0685C18.8382 22.2666 19.2582 22.4902 19.6679 22.7382C19.7368 22.7784 19.8148 22.7909 19.89 22.7737C19.9652 22.7565 20.0336 22.7106 20.0844 22.6429L23.6329 17.8686C23.6672 17.8199 23.6906 17.7617 23.701 17.6996C23.7113 17.6373 23.7084 17.5729 23.6924 17.5122ZM6.09243 19.2357C5.77411 19.4 5.47095 19.5692 5.1638 19.7562C5.10057 19.7938 5.0292 19.8084 4.95879 19.7979C4.88838 19.7874 4.82211 19.7524 4.76842 19.6974C4.73077 19.6737 4.69831 19.6398 4.6736 19.5987C4.6523 19.5511 4.63921 19.4989 4.63514 19.4452C4.631 19.3916 4.63603 19.3376 4.64979 19.2864C4.66355 19.2351 4.68581 19.1876 4.71524 19.1467C4.74468 19.1058 4.78077 19.0723 4.82137 19.0481C5.14472 18.8559 5.46703 18.6737 5.78824 18.5013C5.87321 18.4569 5.96988 18.4543 6.05678 18.4941C6.14368 18.5339 6.21379 18.6128 6.25166 18.7135C6.2896 18.8142 6.29212 18.9283 6.25884 19.0309C6.22548 19.1335 6.15899 19.2162 6.07394 19.2605L6.09243 19.2357ZM9.9067 17.8741C9.25513 18.0169 8.61117 18.2036 7.97786 18.4333C7.92017 18.4545 7.85886 18.4577 7.79969 18.4425C7.7406 18.4273 7.68572 18.3944 7.64053 18.3468C7.59135 18.2978 7.55504 18.2333 7.53581 18.1609C7.52235 18.1087 7.51776 18.054 7.52227 17.9997C7.52679 17.9456 7.54025 17.893 7.56206 17.845C7.58381 17.7971 7.61332 17.7547 7.64896 17.7204C7.68469 17.6861 7.72573 17.6604 7.76989 17.6449C8.42901 17.4054 9.09893 17.209 9.77654 17.0565C9.86418 17.0396 9.95419 17.0613 10.0295 17.1172C10.1048 17.1733 10.1604 17.2599 10.1856 17.3607C10.1959 17.4165 10.1963 17.4743 10.1869 17.5302C10.1773 17.5861 10.1582 17.6391 10.1305 17.6858C10.1028 17.7325 10.0673 17.7719 10.026 17.8015C9.9848 17.831 9.9388 17.8502 9.89095 17.8577L9.9067 17.8741ZM13.8604 17.5819C13.1976 17.5431 12.5335 17.551 11.8717 17.6057C11.7773 17.6129 11.6842 17.5754 11.6129 17.5016C11.5442 17.4282 11.5028 17.3258 11.4976 17.2168C11.4941 17.163 11.4998 17.1088 11.5142 17.0578C11.5286 17.0066 11.5515 16.9594 11.5816 16.9189C11.6117 16.8785 11.6484 16.8455 11.6893 16.822C11.7304 16.7985 11.7751 16.785 11.8206 16.7822C12.5115 16.7207 13.205 16.7066 13.8976 16.7401C13.9435 16.7413 13.9889 16.7534 14.0309 16.7757C14.0728 16.7979 14.1107 16.8299 14.142 16.8697C14.1734 16.9095 14.1977 16.9564 14.2135 17.0075C14.2294 17.0585 14.2364 17.1128 14.2342 17.167C14.2243 17.2758 14.179 17.3756 14.1079 17.4455C14.0369 17.5153 13.9455 17.5496 13.8531 17.5413L13.8604 17.5819ZM17.7742 18.3487C17.1348 18.1342 16.4856 17.9627 15.8299 17.8353C15.7659 17.8239 15.7056 17.7918 15.656 17.7425C15.6113 17.6946 15.5773 17.6344 15.5572 17.5673C15.5369 17.5002 15.531 17.4282 15.5401 17.358C15.5417 17.2993 15.5538 17.2418 15.5757 17.1892C15.5976 17.1366 15.6287 17.0901 15.667 17.0529C15.7053 17.0157 15.7498 16.9885 15.7977 16.9733C15.8456 16.958 15.8957 16.9549 15.9448 16.9643C16.6264 17.0962 17.301 17.2755 17.965 17.5015C18.009 17.5155 18.0502 17.5398 18.0863 17.5728C18.1223 17.606 18.1525 17.6472 18.175 17.6941C18.1975 17.741 18.2119 17.7928 18.2173 17.8463C18.2227 17.8998 18.2191 17.954 18.2066 18.0058C18.1937 18.0587 18.172 18.1081 18.1428 18.1509C18.1135 18.1937 18.0772 18.2291 18.0362 18.2552C17.9951 18.2812 17.95 18.2972 17.9036 18.3023C17.8571 18.3073 17.8102 18.3014 17.7657 18.2848L17.7742 18.3487ZM20.5789 19.6023C20.2712 19.4255 19.959 19.255 19.6427 19.1024L19.5584 19.0147C19.4975 18.9564 19.4549 18.8757 19.4373 18.7856C19.4197 18.6954 19.428 18.601 19.4611 18.5173C19.4967 18.4172 19.5644 18.3379 19.6494 18.2965C19.7343 18.255 19.8298 18.2549 19.9151 18.2961C20.2465 18.4534 20.5897 18.6451 20.8968 18.8102C20.9396 18.8352 20.9777 18.8698 21.0092 18.9122C21.0407 18.9546 21.0649 19.0038 21.0804 19.0572C21.0958 19.1105 21.1022 19.1669 21.0993 19.2231C21.0962 19.2792 21.0839 19.3341 21.0629 19.3846C21.042 19.4351 21.0128 19.4802 20.9771 19.5173C20.9413 19.5544 20.8998 19.5827 20.8547 19.6007C20.8096 19.6188 20.7619 19.6262 20.7144 19.6224C20.6669 19.6187 20.6204 19.6039 20.5776 19.579L20.5789 19.6023Z" fill="#514AF3"/>
<path fill-rule="evenodd" clip-rule="evenodd" d="M7.46234 2.90275C8.60573 2.83742 10.2909 2.78125 12.707 2.78125C13.6992 2.78125 14.568 2.79075 15.3267 2.80642C18.4173 2.87025 20.6786 4.9795 20.7042 7.67658C20.706 7.87408 20.707 8.07692 20.707 8.28475C20.707 9.39 20.6785 10.2048 20.6434 10.7895C20.6067 11.3994 20.2733 11.9231 19.7583 12.2528C19.4795 11.0389 18.2591 10.125 16.7959 10.125C15.1282 10.125 13.776 11.3122 13.7737 12.7774C13.4351 12.7799 13.0798 12.7813 12.707 12.7813C12.3343 12.7813 11.979 12.7799 11.6403 12.7774C11.6381 11.3122 10.2858 10.125 8.61813 10.125C7.15494 10.125 5.93458 11.0389 5.65576 12.2528C5.14083 11.9231 4.80739 11.3994 4.77065 10.7895C4.73553 10.2048 4.70703 9.39 4.70703 8.28475C4.70703 7.14325 4.73742 6.15083 4.77378 5.37192C4.83522 4.05733 5.93543 2.99 7.46234 2.90275ZM12.7834 4.65625C13.2331 4.65625 13.5962 4.97717 13.5962 5.37158V7.69192C13.5962 8.08642 13.2323 8.40625 12.7834 8.40625H11.8184C11.3274 8.40625 10.9295 8.0565 10.9295 7.625V5.43833C10.9295 5.0105 11.3213 4.66133 11.8093 4.65875C12.115 4.65717 12.4395 4.65625 12.7834 4.65625ZM15.0184 4.94442C15.0184 4.79417 15.1586 4.67292 15.3299 4.67592C17.1405 4.70725 18.7255 5.95192 18.5394 7.5765C18.5059 7.86817 18.3422 8.08258 18.1018 8.21925C17.8678 8.35225 17.572 8.40625 17.272 8.40625H15.9073C15.4163 8.40625 15.0184 8.0565 15.0184 7.625V4.94442ZM9.50732 5.495C9.50732 5.055 9.09292 4.69917 8.58963 4.71792C8.4356 4.72367 8.29643 4.7295 8.17108 4.73525C7.49737 4.76625 6.94533 5.19675 6.88559 5.79892C6.85974 6.06 6.84062 6.37142 6.84062 6.72225C6.84062 7.11325 6.88739 7.4275 6.94892 7.67142C7.07408 8.16758 7.60426 8.40625 8.12346 8.40625H8.61842C9.1093 8.40625 9.50732 8.0565 9.50732 7.625V5.495Z" fill="#E69F69"/>
<path d="M16.707 14.7812C15.6024 14.7812 14.707 13.8858 14.707 12.7812C14.707 11.6767 15.6024 10.7812 16.707 10.7812C17.8116 10.7812 18.707 11.6767 18.707 12.7812C18.707 13.8858 17.8116 14.7812 16.707 14.7812Z" fill="#E69F69"/>
<path d="M8.70703 14.7812C7.60245 14.7812 6.70703 13.8858 6.70703 12.7812C6.70703 11.6767 7.60245 10.7812 8.70703 10.7812C9.81162 10.7812 10.707 11.6767 10.707 12.7812C10.707 13.8858 9.81162 14.7812 8.70703 14.7812Z" fill="#E69F69"/>
</svg>
