<svg width="25" height="25" viewBox="0 0 25 25" fill="none" xmlns="http://www.w3.org/2000/svg">
<g clip-path="url(#clip0_7_783)">
<path d="M5.58686 6.58543C6.46002 3.78768 8.82475 1.78125 11.6068 1.78125C14.3889 1.78125 16.7536 3.78768 17.6267 6.58543C19.8826 7.44895 21.5066 9.8555 21.5066 12.6913C21.5066 16.2518 18.9457 19.1382 15.7867 19.1382C14.8348 19.1382 13.9371 18.8758 13.1477 18.4123C13.1922 21.6843 13.3668 22.6095 13.3668 22.6095H15.5667C15.9312 22.6095 16.2267 22.9426 16.2267 23.3533C16.2267 23.7642 15.9312 24.0972 15.5667 24.0972H7.6469C7.28236 24.0972 6.98691 23.7642 6.98691 23.3533C6.98691 22.9426 7.28236 22.6095 7.6469 22.6095H12.0468C12.0468 22.6095 11.8697 21.6706 11.8268 18.3395L11.8276 18.2755L11.8259 18.2739C11.8205 17.8323 11.8176 17.3494 11.8176 16.8219C11.8176 15.8528 11.818 15.0012 11.8186 14.2607C12.1311 13.9223 12.6494 13.3535 13.399 12.5087C14.1959 11.6104 14.7159 11.0068 15.0079 10.6635C15.1951 10.4432 15.2696 10.1295 15.1022 9.88976C15.0616 9.83151 15.0129 9.76903 14.9546 9.70342C14.8963 9.63759 14.8408 9.5828 14.7893 9.53694C14.5765 9.34826 14.2982 9.43217 14.1028 9.64328C13.7981 9.97233 13.2626 10.5585 12.4657 11.4567C12.2264 11.7264 12.0121 11.9694 11.8214 12.1869C11.8226 11.5734 11.8239 11.1167 11.8249 10.8054C11.8259 10.4709 11.7296 10.1154 11.4472 10.0127C11.3664 9.98326 11.2727 9.96374 11.1668 9.96374C11.0609 9.96374 10.9674 9.98326 10.8864 10.0127C10.6041 10.1154 10.5077 10.4709 10.5088 10.8054C10.511 11.5038 10.5145 12.9338 10.5157 15.2252C10.3116 14.992 10.0791 14.7281 9.8166 14.4322C9.01967 13.5338 8.48409 12.9478 8.17939 12.6188C7.98404 12.4077 7.70563 12.3238 7.49301 12.5124C7.44142 12.5582 7.38587 12.6131 7.32757 12.6788C7.26927 12.7445 7.22055 12.807 7.17996 12.8653C7.01265 13.1049 7.08701 13.4186 7.27422 13.639C7.56627 13.9823 8.08623 14.5858 8.88316 15.4842C9.6758 16.3775 10.2098 16.9619 10.5153 17.2921C10.5143 17.5835 10.5122 17.8601 10.5095 18.1227C9.62003 18.7652 8.56219 19.1382 7.4269 19.1382C4.26788 19.1382 1.70703 16.2518 1.70703 12.6913C1.70703 9.8555 3.33092 7.44895 5.58686 6.58543Z" fill="#514AF3"/>
<path fill-rule="evenodd" clip-rule="evenodd" d="M18.3906 12.0131C18.751 11.76 19.1733 11.76 19.5337 12.013C19.9838 12.3292 20.7441 12.9821 21.8151 14.3002C22.6167 15.287 23.1491 16.0221 23.4932 16.5341C23.7043 16.8481 23.7642 17.2527 23.6499 17.6062C23.536 17.9588 23.2718 18.1893 22.952 18.2214C22.8649 18.2303 22.7703 18.239 22.6674 18.2477V20.1407C22.6674 21.3613 22.6249 22.2299 22.5826 22.7918C22.5325 23.459 22.1214 23.9512 21.6132 23.9972C21.0925 24.0444 20.2275 24.097 18.9628 24.097C17.6982 24.097 16.8333 24.0444 16.3124 23.9972C15.8043 23.9512 15.3932 23.459 15.343 22.7918C15.3008 22.2299 15.2583 21.3613 15.2583 20.1407V18.2478C15.1548 18.2391 15.0596 18.2303 14.972 18.2214C14.6524 18.1892 14.3882 17.9588 14.2741 17.6063C14.1598 17.2529 14.2199 16.8483 14.4308 16.5344C14.7749 16.0222 15.3073 15.2871 16.1093 14.3002C17.1803 12.9822 17.9405 12.3294 18.3906 12.0131ZM19.9669 22.8944C20.1957 22.8884 20.3774 22.6465 20.3758 22.3515C20.3728 21.7854 20.3665 21.1076 20.361 20.5763C20.3556 20.0551 20.0639 19.6125 19.6612 19.565C19.4497 19.54 19.2079 19.5209 18.9628 19.5209C18.7178 19.5209 18.4759 19.54 18.2645 19.565C17.8618 19.6125 17.57 20.0551 17.5647 20.5763C17.5592 21.1076 17.5529 21.7854 17.5498 22.3515C17.5483 22.6465 17.73 22.8884 17.9588 22.8944C18.2581 22.9023 18.5923 22.9071 18.9628 22.9071C19.3334 22.9071 19.6676 22.9023 19.9669 22.8944Z" fill="#E69F69"/>
</g>
<defs>
<clipPath id="clip0_7_783">
<rect width="24" height="24" fill="white" transform="translate(0.707031 0.78125)"/>
</clipPath>
</defs>
</svg>
