<svg width="25" height="25" viewBox="0 0 25 25" fill="none" xmlns="http://www.w3.org/2000/svg">
<path d="M9.9187 16.3299C9.91885 17.4186 10.2408 18.486 10.8491 19.4143C11.4574 20.3425 12.3284 21.0955 13.3657 21.59L12.327 23.7816H20.0299V20.0257C20.0199 19.8372 20.0767 19.6509 20.1913 19.4956C20.3059 19.3402 20.4721 19.2244 20.6641 19.1663C21.5833 18.9255 22.3278 18.1005 22.3278 16.3213" fill="#514AF3"/>
<path d="M6.71632 1.78126C5.7267 1.7794 4.75872 2.07142 3.93497 2.62006C3.11138 3.16871 2.46907 3.94961 2.08941 4.86355C1.7099 5.7775 1.61 6.78366 1.80264 7.75442C1.99527 8.72519 2.47171 9.61693 3.17145 10.3168C3.87133 11.0166 4.76307 11.4929 5.73386 11.6856C6.70465 11.8783 7.71075 11.7784 8.62475 11.3989C9.53874 11.0193 10.3195 10.377 10.8683 9.55328C11.417 8.72969 11.7089 7.76172 11.707 6.77201C11.707 5.44837 11.1813 4.17891 10.2453 3.24307C9.30939 2.30708 8.04 1.78126 6.71632 1.78126ZM9.27687 5.69195L7.12601 8.70858C7.02487 8.85653 6.89199 8.97979 6.73701 9.06968C6.58204 9.15942 6.40901 9.21344 6.23054 9.22772C6.05191 9.24201 5.8725 9.21624 5.70523 9.15212C5.53796 9.08816 5.38719 8.98755 5.2638 8.85761L4.22097 7.77755C4.15235 7.71359 4.09742 7.63659 4.05914 7.55089C4.02102 7.4652 4.00048 7.37267 3.99893 7.2789C3.99721 7.18513 4.01449 7.09213 4.0495 7.00504C4.08466 6.9181 4.13694 6.83923 4.20323 6.77279C4.26951 6.7065 4.34856 6.65434 4.43554 6.61909C4.52252 6.58401 4.61557 6.56678 4.70939 6.56848C4.80322 6.57004 4.89564 6.59068 4.98122 6.62872C5.06696 6.66691 5.14398 6.72202 5.20793 6.79064L6.13904 7.72167L8.15951 4.92844C8.21085 4.84911 8.2776 4.78111 8.35587 4.72833C8.43414 4.67555 8.52236 4.63922 8.61495 4.62152C8.70768 4.60382 8.80306 4.60506 8.89533 4.62525C8.98745 4.64543 9.07474 4.68408 9.15145 4.73889C9.22832 4.79369 9.29336 4.86355 9.34237 4.94412C9.39154 5.0247 9.42375 5.11443 9.43729 5.20789C9.45067 5.30135 9.44507 5.39652 9.4208 5.48765C9.39637 5.57893 9.35373 5.66416 9.29554 5.73837L9.27687 5.69195Z" fill="#E69F69"/>
<path d="M9.51459 13.3818C9.2318 13.3818 8.96053 13.4869 8.76053 13.6739C8.56068 13.8609 8.44824 14.1144 8.44824 14.3788C8.44824 14.6432 8.56068 14.8969 8.76053 15.0839C8.96053 15.2708 9.2318 15.3758 9.51459 15.3758H17.1347V13.3818H9.51459Z" fill="#E69F69"/>
<path d="M22.6588 6.86621H19.6255C19.3467 6.86621 19.0793 6.96925 18.8813 7.15268C18.6833 7.33626 18.5708 7.58548 18.5684 7.84601V15.3752H22.6588C22.9367 15.3752 23.2032 15.272 23.3998 15.0883C23.5963 14.9045 23.7067 14.6553 23.7067 14.3954V7.84601C23.7067 7.58619 23.5963 7.33698 23.3998 7.15326C23.2032 6.96954 22.9367 6.86621 22.6588 6.86621ZM21.2524 10.4246C20.9769 10.4246 20.7127 10.3222 20.518 10.1401C20.3232 9.95795 20.2137 9.71089 20.2137 9.45336C20.2137 9.19569 20.3232 8.94863 20.518 8.76648C20.7127 8.58448 20.9769 8.48216 21.2524 8.48216C21.5279 8.48216 21.7921 8.58448 21.9869 8.76648C22.1817 8.94863 22.2911 9.19569 22.2911 9.45336C22.2911 9.71089 22.1817 9.95795 21.9869 10.1401C21.7921 10.3222 21.5279 10.4246 21.2524 10.4246Z" fill="#514AF3"/>
</svg>
