<svg width="25" height="25" viewBox="0 0 25 25" fill="none" xmlns="http://www.w3.org/2000/svg">
<g clip-path="url(#clip0_7_548)">
<mask id="mask0_7_548" style="mask-type:luminance" maskUnits="userSpaceOnUse" x="0" y="0" width="25" height="25">
<path d="M24.8418 0.78125H0.841797V24.7812H24.8418V0.78125Z" fill="white"/>
</mask>
<g mask="url(#mask0_7_548)">
<path d="M12.8417 1.53125C9.9375 1.53125 7.64095 1.68974 6.18515 1.82875C5.20353 1.92248 4.77371 3.0518 5.38998 3.79693L6.8299 5.53791V13.5669C6.8299 15.632 6.86665 17.3931 6.91595 18.827C7.0114 21.6014 9.06315 23.9148 11.8679 24.0138C12.1857 24.025 12.5114 24.0312 12.8418 24.0312C13.1834 24.0312 13.5202 24.0245 13.8484 24.0126C16.6368 23.9111 18.6767 21.6192 18.77 18.8596C18.8181 17.4371 18.8537 15.6733 18.8537 13.5669V5.53791L20.2936 3.79694C20.9098 3.05181 20.48 1.92248 19.4984 1.82875C18.0426 1.68974 15.7459 1.53125 12.8417 1.53125Z" fill="#514AF3"/>
<path d="M6.89801 18.2812H9.34151C9.89381 18.2812 10.3415 17.8335 10.3415 17.2812C10.3415 16.729 9.89381 16.2812 9.34151 16.2812H6.85156C6.86341 17.0002 6.87946 17.6675 6.89801 18.2812Z" fill="#E69F69"/>
<path d="M6.82993 13.7812C6.83388 13.7812 6.83778 13.7812 6.84173 13.7812H9.34173C9.89403 13.7812 10.3417 13.3335 10.3417 12.7812C10.3417 12.229 9.89403 11.7812 9.34173 11.7812H6.84173C6.83773 11.7812 6.83378 11.7812 6.82983 11.7812V13.5669C6.82983 13.6387 6.82988 13.7102 6.82993 13.7812Z" fill="#E69F69"/>
<path d="M6.82983 9.2812C6.83378 9.28125 6.83773 9.28125 6.84173 9.28125H9.34173C9.89403 9.28125 10.3417 8.83355 10.3417 8.28125C10.3417 7.72895 9.89403 7.28125 9.34173 7.28125H6.84173C6.83773 7.28125 6.83378 7.28125 6.82983 7.2813V9.2812Z" fill="#E69F69"/>
</g>
</g>
<defs>
<clipPath id="clip0_7_548">
<rect width="24" height="24" fill="white" transform="translate(0.841797 0.78125)"/>
</clipPath>
</defs>
</svg>
