<svg width="25" height="25" viewBox="0 0 25 25" fill="none" xmlns="http://www.w3.org/2000/svg">
<path d="M17.0413 10.7812H2.37463C2.19787 10.7812 2.02834 10.8478 1.90331 10.9663C1.77828 11.0847 1.70801 11.2453 1.70801 11.4129V11.7286C1.70738 11.9391 1.78131 12.1437 1.91786 12.3097C2.05441 12.4757 2.24573 12.5936 2.46133 12.6444C2.53296 12.6626 2.5961 12.703 2.64071 12.7591C2.68543 12.8151 2.70909 12.8837 2.70804 12.9539V16.1496C2.70804 16.3172 2.7782 16.4778 2.90323 16.5962C3.02826 16.7147 3.1979 16.7813 3.37466 16.7813C3.55153 16.7813 3.72106 16.7147 3.84609 16.5962C3.97112 16.4778 4.04139 16.3172 4.04139 16.1496V15.6759C4.04139 15.5922 4.07646 15.5118 4.13898 15.4526C4.20149 15.3935 4.28632 15.3602 4.37469 15.3602H15.0413C15.1297 15.3602 15.2145 15.3935 15.277 15.4526C15.3395 15.5118 15.3746 15.5922 15.3746 15.6759V16.1496C15.3746 16.3172 15.4449 16.4778 15.5699 16.5962C15.695 16.7147 15.8645 16.7813 16.0412 16.7813C16.2181 16.7813 16.3876 16.7147 16.5127 16.5962C16.6377 16.4778 16.708 16.3172 16.708 16.1496V12.9539C16.7069 12.8837 16.7306 12.8151 16.7752 12.7591C16.8199 12.703 16.8831 12.6626 16.9546 12.6444C17.1702 12.5936 17.3616 12.4757 17.4982 12.3097C17.6347 12.1437 17.7085 11.9391 17.708 11.7286V11.4129C17.708 11.2453 17.6377 11.0847 17.5127 10.9663C17.3877 10.8478 17.2181 10.7812 17.0413 10.7812ZM15.3746 13.7813C15.3746 13.865 15.3395 13.9453 15.277 14.0046C15.2145 14.0638 15.1297 14.097 15.0413 14.097H4.37469C4.28632 14.097 4.20149 14.0638 4.13898 14.0046C4.07646 13.9453 4.04139 13.865 4.04139 13.7813V12.9918C4.04139 12.9081 4.07646 12.8277 4.13898 12.7685C4.20149 12.7093 4.28632 12.676 4.37469 12.676H15.0413C15.1297 12.676 15.2145 12.7093 15.277 12.7685C15.3395 12.8277 15.3746 12.9081 15.3746 12.9918V13.7813Z" fill="#E69F69"/>
<path d="M4.02953 10.3584H16.248C16.3334 10.3584 16.4151 10.3236 16.4754 10.2617C16.5357 10.1998 16.5696 10.116 16.5696 10.0284V2.77095C16.5696 2.50845 16.468 2.25672 16.2871 2.07111C16.1062 1.88552 15.8608 1.78125 15.605 1.78125H4.67266C4.4168 1.78125 4.17145 1.88552 3.99054 2.07111C3.80962 2.25672 3.70801 2.50845 3.70801 2.77095V10.0284C3.70801 10.116 3.74185 10.1998 3.80215 10.2617C3.86245 10.3236 3.94427 10.3584 4.02953 10.3584ZM13.4185 5.19888C13.388 5.18665 13.3547 5.18396 13.3227 5.191C13.2907 5.19805 13.2614 5.21453 13.2385 5.23847L13.0519 5.42978C13.0078 5.47848 12.9545 5.51745 12.8954 5.5445C12.8363 5.57155 12.7723 5.58606 12.7076 5.5872C12.6428 5.58844 12.5785 5.57621 12.5185 5.55134C12.4584 5.52636 12.4038 5.48937 12.3581 5.44242C12.3122 5.39537 12.2762 5.33941 12.2519 5.27785C12.2276 5.21619 12.2158 5.15017 12.2169 5.08374C12.218 5.01731 12.2321 4.95182 12.2585 4.89109C12.2848 4.83036 12.3229 4.77574 12.3703 4.73046L13.2192 3.85952C13.3029 3.77267 13.4033 3.70438 13.5139 3.65899C13.6246 3.61349 13.7431 3.59204 13.8622 3.59567C14.0327 3.59567 14.1964 3.6651 14.317 3.78884C14.4376 3.91258 14.5053 4.08047 14.5053 4.2554V7.2244C14.5053 7.31187 14.5392 7.39581 14.5995 7.45768C14.6598 7.51955 14.7415 7.55427 14.8269 7.55427H15.2835C15.4113 7.55427 15.5341 7.60639 15.6245 7.69925C15.715 7.792 15.7658 7.91792 15.7658 8.04912C15.7658 8.18042 15.715 8.30623 15.6245 8.39898C15.5341 8.49184 15.4113 8.54397 15.2835 8.54397H12.7111C12.5832 8.54397 12.4605 8.49184 12.3701 8.39898C12.2796 8.30623 12.2288 8.18042 12.2288 8.04912C12.2288 7.91792 12.2796 7.792 12.3701 7.69925C12.4605 7.60639 12.5832 7.55427 12.7111 7.55427H13.1934C13.2787 7.55427 13.3605 7.51955 13.4208 7.45768C13.4811 7.39581 13.515 7.31187 13.515 7.2244V5.3506C13.5151 5.31847 13.506 5.28697 13.4889 5.25992C13.4717 5.23298 13.4473 5.21173 13.4185 5.19888ZM9.49573 5.57497H9.65644C9.74179 5.57497 9.82351 5.54025 9.88382 5.47838C9.94412 5.41651 9.97806 5.33257 9.97806 5.2451V5.08012C9.97806 4.94892 10.0289 4.823 10.1193 4.73025C10.2098 4.63739 10.3324 4.58527 10.4604 4.58527C10.5883 4.58527 10.7109 4.63739 10.8014 4.73025C10.8918 4.823 10.9426 4.94892 10.9426 5.08012V5.2451C10.9426 5.33257 10.9766 5.41651 11.0369 5.47838C11.0972 5.54025 11.1789 5.57497 11.2642 5.57497H11.4249C11.5529 5.57497 11.6755 5.62709 11.766 5.71995C11.8565 5.8127 11.9073 5.93851 11.9073 6.06982C11.9073 6.20102 11.8565 6.32693 11.766 6.41968C11.6755 6.51254 11.5529 6.56467 11.4249 6.56467H11.2642C11.1789 6.56467 11.0972 6.59939 11.0369 6.66126C10.9766 6.72312 10.9426 6.80707 10.9426 6.89453V7.05952C10.9426 7.19072 10.8918 7.31653 10.8014 7.40939C10.7109 7.50214 10.5883 7.55427 10.4604 7.55427C10.3324 7.55427 10.2098 7.50214 10.1193 7.40939C10.0289 7.31653 9.97806 7.19072 9.97806 7.05952V6.89453C9.97806 6.80707 9.94412 6.72312 9.88382 6.66126C9.82351 6.59939 9.74179 6.56467 9.65644 6.56467H9.49573C9.36775 6.56467 9.24512 6.51254 9.15472 6.41968C9.06421 6.32693 9.0134 6.20102 9.0134 6.06982C9.0134 5.93851 9.06421 5.8127 9.15472 5.71995C9.24512 5.62709 9.36775 5.57497 9.49573 5.57497ZM6.60187 4.58527C6.38864 4.58527 6.18419 4.67221 6.03348 4.82684C5.88267 4.98156 5.79802 5.19132 5.79802 5.40998C5.79802 5.54129 5.74722 5.6671 5.65671 5.75995C5.56631 5.85271 5.44358 5.90483 5.3157 5.90483C5.18782 5.90483 5.06509 5.85271 4.97468 5.75995C4.88418 5.6671 4.83337 5.54129 4.83337 5.40998C4.83337 5.10074 4.91044 4.79657 5.05721 4.52651C5.20408 4.25633 5.4157 4.02917 5.67216 3.86657C5.92853 3.70407 6.22126 3.61142 6.52237 3.59743C6.82349 3.58354 7.12309 3.64883 7.39279 3.78718C7.66238 3.92553 7.89309 4.13218 8.06289 4.38774C8.23279 4.6432 8.33613 4.93907 8.3632 5.24707C8.39027 5.55507 8.34017 5.86514 8.21754 6.14765C8.09501 6.43026 7.9041 6.67597 7.66299 6.86158L7.14844 7.25736C7.12107 7.27798 7.10066 7.30689 7.09026 7.34016C7.07985 7.37332 7.07995 7.40897 7.09056 7.44213C7.10228 7.47467 7.12329 7.50276 7.15086 7.52276C7.17834 7.54276 7.21117 7.55375 7.24491 7.55427H7.88804C8.01592 7.55427 8.13865 7.60639 8.22905 7.69925C8.31956 7.792 8.37037 7.91792 8.37037 8.04912C8.37037 8.18042 8.31956 8.30623 8.22905 8.39898C8.13865 8.49184 8.01592 8.54397 7.88804 8.54397H5.3157C5.21448 8.54397 5.1158 8.51132 5.03367 8.45059C4.95155 8.38986 4.89014 8.30416 4.85812 8.2056C4.8261 8.10705 4.82519 8.00072 4.85529 7.90154C4.88549 7.80247 4.94529 7.71562 5.0263 7.65324L7.0842 6.06982C7.1848 5.99375 7.26632 5.89426 7.32218 5.77954C7.37814 5.66492 7.40672 5.53828 7.40571 5.40998C7.40571 5.19132 7.32097 4.98156 7.17026 4.82684C7.01955 4.67221 6.815 4.58527 6.60187 4.58527Z" fill="#514AF3"/>
<path fill-rule="evenodd" clip-rule="evenodd" d="M23.4813 14.3895C23.7836 14.5181 23.7836 14.9698 23.4813 15.0984L17.5255 17.6327C17.2921 17.732 17.0313 17.7313 16.7984 17.6308L12.3782 15.7218V20.335C12.7909 20.5288 13.0766 20.9643 13.0766 21.4741V23.4893C13.0766 23.6505 12.9527 23.7813 12.7999 23.7813H10.9907C10.8379 23.7813 10.714 23.6505 10.714 23.4893V21.4741C10.714 20.9643 10.9997 20.5288 11.4124 20.335V15.3047L10.933 15.0976C10.633 14.9681 10.633 14.5198 10.933 14.3903L16.7984 11.8571C17.0313 11.7566 17.2921 11.7559 17.5255 11.8552L23.4813 14.3895ZM17.7964 18.3416L21.0331 16.9643V19.2047C21.0331 19.3609 20.966 19.5078 20.8431 19.5948C20.3518 19.9425 18.9523 20.8055 17.1632 20.8055C15.3734 20.8055 14.0385 19.9418 13.5739 19.5944C13.4575 19.5073 13.3951 19.3651 13.3951 19.2145V16.9868L16.5241 18.3382C16.9315 18.5141 17.388 18.5154 17.7964 18.3416Z" fill="#514AF3"/>
</svg>
