<svg width="25" height="25" viewBox="0 0 25 25" fill="none" xmlns="http://www.w3.org/2000/svg">
<path d="M20.0272 2.61914H18.8761C18.5583 2.61914 18.3007 2.89423 18.3007 3.23357V7.53458C18.3007 7.87395 18.5583 8.14905 18.8761 8.14905H20.0272C20.345 8.14905 20.6027 7.87395 20.6027 7.53458V3.23357C20.6027 2.89423 20.345 2.61914 20.0272 2.61914Z" fill="#514AF3"/>
<path d="M9.88373 10.4907C9.92551 10.4443 9.95865 10.3893 9.98127 10.3287C10.0038 10.2682 10.0155 10.2033 10.0155 10.1378C10.0155 10.0722 10.0038 10.0073 9.98127 9.94678C9.95865 9.8862 9.92551 9.83123 9.88373 9.78487C9.84195 9.73851 9.79235 9.70172 9.73783 9.67669C9.68322 9.65158 9.62474 9.63867 9.56569 9.63867C9.50664 9.63867 9.44816 9.65158 9.39355 9.67669C9.33903 9.70172 9.28943 9.73851 9.24765 9.78487L8.37422 10.7789C8.30078 10.874 8.26246 10.9963 8.26681 11.1215C8.27117 11.2466 8.31789 11.3652 8.39766 11.4537C8.47744 11.5422 8.58436 11.5941 8.69711 11.5989C8.80987 11.6038 8.92008 11.5612 9.00577 11.4798L9.88373 10.4907Z" fill="#E69F69"/>
<path d="M10.9401 7.84491C10.8959 7.79942 10.8438 7.76386 10.787 7.74024C10.7301 7.71662 10.6696 7.70538 10.6087 7.70723C10.5478 7.70907 10.4879 7.724 10.4324 7.75104C10.3768 7.77809 10.3267 7.81672 10.2848 7.86484C10.243 7.91304 10.2103 7.96959 10.1886 8.0315C10.1669 8.0934 10.1566 8.15925 10.1583 8.22546C10.16 8.29166 10.1736 8.3569 10.1985 8.41732C10.2234 8.47781 10.2589 8.53234 10.3032 8.57782L11.2197 9.53017C11.3078 9.6214 11.4256 9.67083 11.5472 9.6675C11.6688 9.66425 11.7842 9.60858 11.8681 9.5127C11.952 9.41681 11.9974 9.28862 11.9943 9.15629C11.9914 9.02406 11.9401 8.89841 11.8521 8.80717L10.9401 7.84491Z" fill="#E69F69"/>
<path d="M14.5333 10.6128C14.4745 10.6019 14.4141 10.6032 14.3558 10.6165C14.2975 10.6299 14.2422 10.6551 14.1932 10.6907C14.1443 10.7263 14.1025 10.7716 14.0703 10.8239C14.0382 10.8764 14.0163 10.9348 14.0058 10.996L13.783 12.283C13.7619 12.4086 13.7896 12.5377 13.8599 12.6419C13.9303 12.7461 14.0376 12.8171 14.1582 12.839C14.2787 12.861 14.4028 12.8322 14.5029 12.759C14.6031 12.6858 14.6713 12.5742 14.6924 12.4486L14.9061 11.1616C14.9165 11.1001 14.9151 11.037 14.902 10.976C14.8888 10.9151 14.8642 10.8574 14.8296 10.8064C14.7949 10.7554 14.7509 10.712 14.7 10.6787C14.6492 10.6455 14.5925 10.6231 14.5333 10.6128Z" fill="#E69F69"/>
<path d="M12.5999 12.4234C12.683 12.3315 12.7296 12.2071 12.7296 12.0775C12.7296 11.9479 12.683 11.8236 12.5999 11.7317L11.7436 10.7504C11.6602 10.6581 11.5468 10.6059 11.4284 10.6055C11.3101 10.605 11.1964 10.6563 11.1124 10.748C11.0285 10.8397 10.981 10.9644 10.9806 11.0946C10.9802 11.2248 11.0268 11.3498 11.1102 11.4423L11.971 12.4234C12.0545 12.5148 12.1676 12.5661 12.2855 12.5661C12.4032 12.5661 12.5163 12.5148 12.5999 12.4234Z" fill="#E69F69"/>
<path d="M14.9805 13.9473L13.9636 14.7406C13.9152 14.7785 13.8742 14.8262 13.843 14.8812C13.8117 14.9362 13.7909 14.9973 13.7816 15.061C13.7723 15.1247 13.7748 15.1897 13.7889 15.2524C13.803 15.315 13.8284 15.3741 13.8637 15.4262C13.8988 15.4784 13.9431 15.5226 13.9941 15.5562C14.0451 15.59 14.1017 15.6124 14.1608 15.6224C14.2198 15.6325 14.2801 15.6298 14.3382 15.6145C14.3963 15.5994 14.451 15.572 14.4993 15.5339L15.5117 14.7406C15.6089 14.6649 15.6743 14.5509 15.6939 14.4235C15.7135 14.296 15.6855 14.1653 15.6161 14.0599C15.5814 14.0073 15.5373 13.9626 15.4865 13.9285C15.4357 13.8944 15.3791 13.8714 15.3201 13.861C15.261 13.8505 15.2006 13.8527 15.1423 13.8676C15.0841 13.8823 15.029 13.9094 14.9805 13.9473Z" fill="#E69F69"/>
<path d="M10.043 13.3105L8.79648 12.9897C8.67871 12.9639 8.55608 12.9875 8.45434 13.0555C8.35261 13.1235 8.27966 13.2306 8.25079 13.3545C8.22192 13.4783 8.23936 13.6093 8.29948 13.7197C8.3596 13.8302 8.45764 13.9117 8.57319 13.9471L9.84764 14.2728C9.96788 14.3036 10.0948 14.2824 10.2003 14.2139C10.3058 14.1454 10.3814 14.0353 10.4104 13.9076C10.4394 13.78 10.4194 13.6454 10.3549 13.5335C10.2904 13.4214 10.1865 13.3413 10.0662 13.3105H10.043Z" fill="#E69F69"/>
<path d="M7.42943 12.9732C7.32934 12.9 7.20556 12.8711 7.08507 12.8928C6.96467 12.9145 6.85734 12.985 6.78661 13.089L6.04667 14.1793C5.97643 14.2837 5.94871 14.4129 5.96952 14.5385C5.99033 14.6642 6.05793 14.7761 6.15769 14.8499C6.20737 14.8869 6.26362 14.9133 6.32317 14.9275C6.38271 14.9417 6.44431 14.9436 6.50452 14.9328C6.56472 14.922 6.62229 14.8989 6.67386 14.8648C6.72542 14.8308 6.77008 14.7863 6.80512 14.7342L7.54038 13.6438C7.61061 13.5395 7.63833 13.4103 7.6176 13.2847C7.5968 13.159 7.52911 13.0471 7.42943 12.9732Z" fill="#E69F69"/>
<path d="M6.96302 10.7318C7.08548 10.7131 7.19569 10.6465 7.26954 10.5465C7.34348 10.4465 7.37506 10.3211 7.35755 10.1977L7.1697 8.90712C7.16074 8.84505 7.13976 8.78534 7.10794 8.73143C7.07602 8.6776 7.03392 8.63054 6.98399 8.59295C6.93407 8.55546 6.87724 8.52815 6.81687 8.5127C6.75643 8.49733 6.69359 8.494 6.63191 8.50295C6.57023 8.512 6.51093 8.53316 6.45739 8.56521C6.40385 8.59726 6.35705 8.63967 6.31979 8.68989C6.28246 8.74021 6.2554 8.79728 6.24002 8.85813C6.22472 8.91889 6.22143 8.9822 6.23039 9.04428L6.41824 10.3348C6.42737 10.3972 6.44875 10.4572 6.48132 10.5111C6.51381 10.5651 6.55666 10.6119 6.60748 10.6489C6.65823 10.6859 6.71588 10.7123 6.7769 10.7266C6.83801 10.7408 6.90126 10.7426 6.96302 10.7318Z" fill="#E69F69"/>
<path d="M17.5298 3.31902L16.2118 2.8275C13.058 1.64164 13.0005 1.64779 9.97328 3.38663C9.20208 3.83515 8.24674 4.3943 6.95189 5.07629C6.90888 5.09613 6.87146 5.12739 6.84317 5.16725C6.81496 5.20712 6.79686 5.25409 6.7907 5.3037C6.78231 5.35138 6.78518 5.40064 6.79933 5.44683C6.81339 5.49301 6.83815 5.53463 6.87129 5.56783C7.10404 5.88972 7.42323 6.12812 7.78626 6.25113C8.14936 6.37406 8.53887 6.37582 8.90288 6.25605L12.1948 4.98418C12.249 4.96583 12.3074 4.96583 12.3616 4.98418L13.4609 5.26683C13.4902 5.27631 13.5168 5.29378 13.5379 5.31749C13.5591 5.34111 13.5742 5.37026 13.5817 5.40196C13.5874 5.43497 13.5845 5.46904 13.5733 5.50048C13.5622 5.53191 13.5432 5.5594 13.5184 5.58012C12.5458 6.34201 11.4984 7.14693 11.8609 7.85974C11.904 7.98776 11.9818 8.09928 12.0842 8.18023C12.1866 8.2611 12.3092 8.30781 12.4365 8.3144C13.0222 8.20763 13.5878 8.00014 14.1112 7.69993C14.4795 7.52177 14.9342 7.31288 15.4924 7.08555C15.5576 7.06114 15.6287 7.06114 15.6938 7.08555L17.3226 7.66305C17.3652 7.68026 17.4112 7.6858 17.4564 7.67939C17.5015 7.67298 17.5446 7.65471 17.5816 7.62618C17.6268 7.59694 17.664 7.55532 17.6892 7.50562C17.7145 7.45601 17.727 7.40008 17.7254 7.34362V3.60782C17.7241 3.54416 17.7048 3.48243 17.6697 3.4308C17.6348 3.37926 17.5859 3.34027 17.5298 3.31902Z" fill="#514AF3"/>
<path d="M3.655 15.6104C3.60244 15.6104 3.54997 15.6106 3.49766 15.6111C3.34157 15.6126 3.19254 15.6811 3.08414 15.8011C2.97575 15.9211 2.91694 16.0825 2.92097 16.2492C2.92985 16.614 2.94013 16.9604 2.95157 17.2889C3.1839 17.2757 3.41846 17.269 3.65491 17.269C6.11458 17.269 8.36715 17.9941 10.0212 19.1989C10.3005 19.4023 10.5641 19.6207 10.8095 19.8528C10.5557 20.1793 10.3294 20.521 10.1338 20.8763C9.90248 20.6483 9.64588 20.4312 9.36518 20.2267C7.92855 19.1803 5.91144 18.513 3.65491 18.513C3.43549 18.513 3.21836 18.5193 3.00371 18.5317C3.02665 18.9947 3.05149 19.4101 3.07666 19.7795C3.26705 19.7645 3.46 19.757 3.65491 19.757C5.15183 19.757 6.53229 20.2046 7.55442 20.9606C8.27718 21.4952 8.84376 22.2052 9.11253 23.0335C9.82204 23.0545 10.6078 23.0688 11.4728 23.073C11.5527 23.0733 11.6334 23.0737 11.7146 23.0739C12.0241 21.5273 13.0114 20.1866 14.3674 19.1989C16.0215 17.9941 18.274 17.269 20.7337 17.269C20.845 17.269 20.956 17.2705 21.0665 17.2734C21.0777 16.9497 21.0878 16.6087 21.0965 16.2499C21.1006 16.0808 21.04 15.9172 20.9287 15.7968C20.8175 15.6764 20.665 15.6096 20.5067 15.6119C17.8628 15.6499 15.4259 16.3491 13.5018 17.5092C13.0362 17.7899 12.5985 18.099 12.1943 18.4341C11.765 18.0784 11.298 17.7518 10.7999 17.4574C8.83454 16.2957 6.347 15.6104 3.655 15.6104Z" fill="#514AF3"/>
<path d="M20.9418 19.757C20.9667 19.3878 20.9913 18.9731 21.0139 18.5112C20.9211 18.509 20.8279 18.5078 20.7343 18.5078C18.4885 18.5078 16.4808 19.1764 15.0509 20.2247C13.9657 21.0204 13.2414 22.009 12.954 23.0737C13.4342 23.0697 13.8887 23.0625 14.3179 23.0528L14.3255 23.0526C14.6684 23.0448 14.9953 23.0354 15.3063 23.0246C15.5754 22.2 16.1373 21.493 16.8532 20.9601C17.8706 20.2026 19.2446 19.7541 20.7343 19.7541C20.8038 19.7541 20.873 19.7551 20.9418 19.757Z" fill="#E69F69"/>
<path d="M20.7685 20.9659C20.758 20.9658 20.7474 20.9658 20.7369 20.9658C19.4406 20.9658 18.2926 21.3472 17.4845 21.932C17.0858 22.2206 16.7809 22.5486 16.5741 22.8976C17.3571 22.8576 18.0066 22.8109 18.53 22.7655C19.5825 22.6741 20.4377 21.9603 20.7685 20.9659Z" fill="#514AF3"/>
<path d="M6.86109 21.9663C7.26236 22.2704 7.56748 22.6169 7.77219 22.9854C6.82573 22.9402 6.05839 22.8839 5.45842 22.8294C4.42182 22.7352 3.57882 22.0017 3.24878 20.9785C3.37905 20.9701 3.51114 20.9658 3.64487 20.9658C4.92663 20.9658 6.06201 21.3607 6.86109 21.9663Z" fill="#E69F69"/>
</svg>
