<svg width="25" height="25" viewBox="0 0 25 25" fill="none" xmlns="http://www.w3.org/2000/svg">
<path fill-rule="evenodd" clip-rule="evenodd" d="M5.59212 13.2637C5.26993 13.2637 5.00879 13.5052 5.00879 13.8031V15.4216C5.00879 15.7196 5.26993 15.9611 5.59212 15.9611H18.4255C18.7477 15.9611 19.0088 15.7196 19.0088 15.4216V13.8031C19.0088 13.5052 18.7477 13.2637 18.4255 13.2637H5.59212ZM17.8421 16.7703H6.17546V21.8954H5.59212C5.26993 21.8954 5.00879 22.1369 5.00879 22.4349C5.00879 22.7329 5.26993 22.9744 5.59212 22.9744H10.2588V20.5467C10.2588 19.6529 11.0423 18.9283 12.0088 18.9283C12.9753 18.9283 13.7588 19.6529 13.7588 20.5467V22.9744H18.4255C18.7477 22.9744 19.0088 22.7329 19.0088 22.4349C19.0088 22.1369 18.7477 21.8954 18.4255 21.8954H17.8421V16.7703ZM8.50879 18.2539C8.75039 18.2539 8.94629 18.435 8.94629 18.6585V19.4677C8.94629 19.6911 8.75039 19.8723 8.50879 19.8723C8.26719 19.8723 8.07129 19.6911 8.07129 19.4677V18.6585C8.07129 18.435 8.26719 18.2539 8.50879 18.2539ZM15.9463 18.6585C15.9463 18.435 15.7504 18.2539 15.5088 18.2539C15.2672 18.2539 15.0713 18.435 15.0713 18.6585V19.4677C15.0713 19.6911 15.2672 19.8723 15.5088 19.8723C15.7504 19.8723 15.9463 19.6911 15.9463 19.4677V18.6585Z" fill="#E69F69"/>
<path d="M7.63303 8.08984H6.56359C6.4562 8.08984 6.36914 8.17111 6.36914 8.27135V13.0813C6.36914 13.1816 6.4562 13.2628 6.56359 13.2628H7.63303C7.74042 13.2628 7.82747 13.1816 7.82747 13.0813V8.27135C7.82747 8.17111 7.74042 8.08984 7.63303 8.08984Z" fill="#514AF3"/>
<path d="M9.28537 9.72363H8.21593C8.10854 9.72363 8.02148 9.8049 8.02148 9.90514V13.0815C8.02148 13.1818 8.10854 13.263 8.21593 13.263H9.28537C9.39276 13.263 9.47982 13.1818 9.47982 13.0815V9.90514C9.47982 9.8049 9.39276 9.72363 9.28537 9.72363Z" fill="#514AF3"/>
<path d="M6.07715 5.45904C6.07725 5.58355 6.11662 5.70534 6.19022 5.80917C6.26391 5.91299 6.36862 5.9944 6.49141 6.04313C6.61411 6.09187 6.74954 6.10584 6.88079 6.08333C7.01204 6.06074 7.13327 6.00274 7.22943 5.91644C7.32558 5.83013 7.39247 5.71932 7.42173 5.5978C7.451 5.47628 7.44127 5.34941 7.39393 5.23297C7.34658 5.11653 7.26355 5.0157 7.15534 4.94292C7.04704 4.87013 6.91822 4.82866 6.78493 4.82376C6.69325 4.82031 6.60186 4.83419 6.51611 4.8646C6.43036 4.895 6.35209 4.94119 6.28598 5.00055C6.21987 5.0599 6.16727 5.13105 6.1314 5.20992C6.09552 5.28869 6.07705 5.37336 6.07715 5.45904Z" fill="#E69F69"/>
<path d="M6.75977 7.13723C6.75986 7.23515 6.79078 7.33081 6.84863 7.41239C6.90647 7.49398 6.98873 7.55787 7.08527 7.59617C7.18171 7.63447 7.28807 7.64545 7.39122 7.62775C7.49428 7.61006 7.58956 7.5645 7.6651 7.4967C7.74064 7.42882 7.79324 7.34179 7.81618 7.24631C7.83922 7.15084 7.83164 7.05119 7.7944 6.95971C7.75717 6.86823 7.69193 6.78891 7.60686 6.73174C7.52179 6.67456 7.42059 6.64207 7.31588 6.63808C7.24384 6.63545 7.17209 6.64634 7.10471 6.67021C7.03734 6.69408 6.97579 6.73047 6.92388 6.77703C6.87196 6.82367 6.83064 6.87967 6.80245 6.94156C6.77425 7.00346 6.75967 7.06998 6.75977 7.13723Z" fill="#E69F69"/>
<path d="M7.53516 4.23346C7.53516 4.35017 7.5722 4.46415 7.64161 4.56117C7.71113 4.65819 7.80981 4.73378 7.92531 4.77843C8.04071 4.82309 8.16778 4.83479 8.29038 4.81201C8.41298 4.78923 8.52556 4.73306 8.61393 4.65056C8.70231 4.56807 8.76249 4.46297 8.78689 4.34853C8.8113 4.23409 8.79875 4.11548 8.75092 4.00775C8.70309 3.89994 8.6221 3.80782 8.51817 3.74293C8.41424 3.67813 8.29213 3.64355 8.1671 3.64355C7.99949 3.64355 7.83878 3.70572 7.72027 3.81635C7.60175 3.92698 7.53516 4.077 7.53516 4.23346Z" fill="#E69F69"/>
<path d="M10.8408 2.91737C10.8408 2.75583 10.7895 2.59791 10.6933 2.46359C10.5972 2.32927 10.4606 2.22458 10.3006 2.16276C10.1408 2.10094 9.96483 2.08477 9.79508 2.11628C9.62533 2.1478 9.46948 2.22559 9.34708 2.33981C9.22468 2.45405 9.14136 2.59959 9.10762 2.75803C9.07389 2.91647 9.09119 3.08073 9.1574 3.22993C9.22361 3.37922 9.3358 3.50673 9.47969 3.59649C9.62358 3.68624 9.79275 3.73416 9.9658 3.73416C10.1979 3.73416 10.4204 3.64812 10.5845 3.49493C10.7486 3.34174 10.8408 3.134 10.8408 2.91737Z" fill="#E69F69"/>
</svg>
