<svg width="25" height="25" viewBox="0 0 25 25" fill="none" xmlns="http://www.w3.org/2000/svg">
<g clip-path="url(#clip0_7_557)">
<mask id="mask0_7_557" style="mask-type:luminance" maskUnits="userSpaceOnUse" x="0" y="0" width="25" height="25">
<path d="M24.8418 0.78125H0.841797V24.7812H24.8418V0.78125Z" fill="white"/>
</mask>
<g mask="url(#mask0_7_557)">
<path d="M12.8467 8.53125H12.8368C9.48025 8.53125 7.5883 8.53125 5.27325 8.6535C3.92993 8.72445 2.83079 9.72565 2.59221 11.0907C2.39472 12.2206 2.18417 13.7129 2.09517 15.3124C2.03921 16.3183 2.68411 17.2359 3.691 17.3587C3.90657 17.385 4.14464 17.4084 4.40436 17.4266L4.7908 22.0567C4.87167 23.0257 5.54427 23.8724 6.5275 23.9671C6.91485 24.0044 7.369 24.0312 7.87445 24.0312C8.39535 24.0312 8.8618 24.0027 9.25675 23.9636C9.5009 23.9394 9.7284 23.8678 9.93295 23.7577C10.174 23.6281 10.4042 23.4676 10.624 23.3062C10.6991 23.251 10.7722 23.1965 10.8443 23.1425C10.988 23.0351 11.1279 22.9305 11.2722 22.8305C11.7037 22.5316 12.1055 22.3258 12.5367 22.3258H13.1468C13.5779 22.3258 13.9797 22.5316 14.4113 22.8305C14.5556 22.9305 14.6954 23.035 14.8392 23.1425C14.9113 23.1965 14.9844 23.251 15.0595 23.3062C15.2793 23.4676 15.5095 23.6281 15.7505 23.7577C15.9551 23.8678 16.1826 23.9394 16.4267 23.9636C16.8217 24.0027 17.2881 24.0312 17.809 24.0312C18.3145 24.0312 18.7687 24.0044 19.156 23.9671C20.1392 23.8724 20.8118 23.0257 20.8927 22.0567L21.2791 17.4266C21.5389 17.4084 21.7769 17.385 21.9925 17.3587C22.9994 17.2359 23.6443 16.3183 23.5883 15.3124C23.4993 13.7129 23.2888 12.2206 23.0913 11.0907C22.8527 9.72565 21.7536 8.72445 20.4102 8.6535C18.0952 8.53125 16.2032 8.53125 12.8467 8.53125Z" fill="#514AF3"/>
<path d="M9.8418 9.28125C9.8418 10.9381 11.185 12.2812 12.8418 12.2812C14.4986 12.2812 15.8418 10.9381 15.8418 9.28125C15.8418 7.6244 14.4986 6.28125 12.8418 6.28125C11.185 6.28125 9.8418 7.6244 9.8418 9.28125Z" fill="#E69F69"/>
<path d="M14.8589 13.327C15.8611 13.3768 16.6521 14.1069 16.8196 15.0962C16.9565 15.9054 17.1125 16.9713 17.2302 18.1877C17.3064 18.9748 16.7307 19.6578 15.941 19.7022C15.7177 19.7148 15.4676 19.7271 15.1907 19.7379L15.0241 22.4454C14.9843 23.0931 14.5312 23.6432 13.8866 23.7183C13.577 23.7544 13.2198 23.7812 12.8419 23.7812C12.4641 23.7812 12.1068 23.7544 11.7972 23.7183C11.1527 23.6432 10.6995 23.0931 10.6597 22.4454L10.493 19.7379C10.2163 19.7271 9.96624 19.7148 9.74289 19.7022C8.95329 19.6578 8.37759 18.9749 8.45379 18.1877C8.57149 16.9713 8.72744 15.9054 8.86439 15.0962C9.03184 14.107 9.82284 13.3768 10.8249 13.327C11.356 13.3007 12.0242 13.2812 12.8418 13.2812C13.6596 13.2812 14.3278 13.3007 14.8589 13.327Z" fill="#E69F69"/>
<path d="M20.8418 4.53125C20.8418 6.1881 19.4986 7.53125 17.8418 7.53125C16.185 7.53125 14.8418 6.1881 14.8418 4.53125C14.8418 2.8744 16.185 1.53125 17.8418 1.53125C19.4986 1.53125 20.8418 2.8744 20.8418 4.53125Z" fill="#514AF3"/>
<path d="M4.8418 4.53125C4.8418 6.1881 6.18495 7.53125 7.8418 7.53125C9.49865 7.53125 10.8418 6.1881 10.8418 4.53125C10.8418 2.8744 9.49865 1.53125 7.8418 1.53125C6.18495 1.53125 4.8418 2.8744 4.8418 4.53125Z" fill="#514AF3"/>
</g>
</g>
<defs>
<clipPath id="clip0_7_557">
<rect width="24" height="24" fill="white" transform="translate(0.841797 0.78125)"/>
</clipPath>
</defs>
</svg>
