<svg width="25" height="25" viewBox="0 0 25 25" fill="none" xmlns="http://www.w3.org/2000/svg">
<path d="M8.36332 5.82169L10.8741 4.92611C10.9067 4.92816 10.9391 4.91983 10.9674 4.90228C10.9956 4.88488 11.0184 4.85885 11.0331 4.82756C11.1488 4.55911 11.3341 4.33203 11.5671 4.17324C11.8002 4.01445 12.0709 3.93067 12.3472 3.93199H15.2179C15.3133 3.93199 15.4048 3.97264 15.4723 4.04487C15.5398 4.1171 15.5778 4.21506 15.5778 4.31712C15.5778 4.41933 15.5398 4.51729 15.4723 4.58952C15.4048 4.66161 15.3133 4.70225 15.2179 4.70225H12.322C12.1311 4.70225 11.9481 4.78341 11.8131 4.92787C11.678 5.07233 11.6023 5.26811 11.6023 5.47238C11.6023 5.67664 11.678 5.87257 11.8131 6.01703C11.9481 6.1615 12.1311 6.24265 12.322 6.24265H14.8329C15.6672 6.92636 16.6786 7.31734 17.7286 7.36208H19.2101C19.6579 7.35974 20.099 7.24628 20.4989 7.03075L23.6232 5.8755C23.6469 5.85824 23.6666 5.83573 23.6811 5.80941C23.6955 5.78309 23.7044 5.75355 23.7068 5.72314V1.54982C23.7077 1.51517 23.6995 1.48081 23.6833 1.45084C23.667 1.42086 23.6433 1.39615 23.6148 1.37963C23.5869 1.36237 23.5551 1.35331 23.5228 1.35331C23.4905 1.35331 23.4587 1.36237 23.4306 1.37963L20.1642 2.92894C20.0727 2.99006 19.9699 3.02895 19.8629 3.04299C19.7558 3.05688 19.6474 3.04548 19.5448 3.00965C12.3806 0.421472 14.7743 0.412406 6.69768 4.82756C6.64194 4.85681 6.59387 4.90082 6.55813 4.95521C6.52238 5.00975 6.50019 5.07306 6.49348 5.1393C6.48677 5.20539 6.49581 5.27235 6.51992 5.33376C6.54388 5.39517 6.58209 5.44898 6.63085 5.49036C6.8697 5.69814 7.15401 5.83763 7.45696 5.89553C7.76004 5.95358 8.07188 5.92813 8.36332 5.82169Z" fill="#514AF3"/>
<path d="M17.0508 18.1625L14.54 19.058C14.5074 19.0561 14.4749 19.0645 14.4467 19.0819C14.4184 19.0994 14.3955 19.1254 14.3808 19.1566C14.2652 19.425 14.08 19.6523 13.8469 19.8111C13.6139 19.9698 13.3431 20.0535 13.0669 20.0522H10.1962C10.1007 20.0522 10.0091 20.0117 9.94175 19.9394C9.87423 19.8672 9.83629 19.7692 9.83629 19.667C9.83629 19.565 9.87423 19.467 9.94175 19.3948C10.0091 19.3225 10.1007 19.282 10.1962 19.282H13.0753C13.2662 19.282 13.4493 19.2009 13.5842 19.0564C13.7192 18.912 13.7951 18.716 13.7951 18.5118C13.7951 18.3075 13.7192 18.1116 13.5842 17.9671C13.4493 17.8228 13.2662 17.7417 13.0753 17.7417H10.5645C9.73467 17.0615 8.72957 16.6706 7.68529 16.6221H6.22071C5.77287 16.6244 5.33174 16.7379 4.93183 16.9535L1.80761 18.1088C1.7809 18.1239 1.75776 18.1456 1.74037 18.1721C1.72297 18.1986 1.71147 18.229 1.70709 18.261V22.4076C1.70627 22.4422 1.71448 22.4764 1.73078 22.5066C1.74694 22.5365 1.77063 22.5612 1.79926 22.5776C1.8272 22.595 1.85897 22.6041 1.89129 22.6041C1.92361 22.6041 1.95538 22.595 1.98332 22.5776L5.24984 21.0374C5.34064 20.9746 5.44308 20.9343 5.55018 20.9188C5.65714 20.9033 5.76616 20.9132 5.86915 20.9477C13.0333 23.5359 10.6398 23.5448 18.7163 19.1566C18.7721 19.1273 18.8202 19.0835 18.8559 19.0289C18.8917 18.9744 18.9139 18.9112 18.9206 18.845C18.9273 18.7788 18.9181 18.7119 18.8942 18.6505C18.8702 18.5891 18.832 18.5352 18.7832 18.4939C18.5444 18.286 18.2601 18.1467 17.957 18.0886C17.6539 18.0307 17.3421 18.0562 17.0508 18.1625Z" fill="#514AF3"/>
<path d="M17.6038 8.60825L17.5654 8.55371L17.5017 8.5499C16.4371 8.48674 15.4143 8.08552 14.5638 7.39713L14.5271 7.36745H14.4811H12.3219C12.0445 7.36701 11.7708 7.29917 11.5212 7.16933C11.2717 7.03934 11.0528 6.85072 10.8811 6.61736L10.8135 6.52539L10.7144 6.57569C9.97584 6.95205 9.3249 7.49949 8.80872 8.17852C8.29254 8.8574 7.92413 9.65092 7.7302 10.5012C7.53628 11.3514 7.52176 12.2372 7.68748 13.0942C7.85333 13.9511 8.19544 14.758 8.68888 15.456L8.71805 15.4971L8.76489 15.5097C9.52074 15.7126 10.23 16.0787 10.8491 16.5854L10.886 16.6157H10.9325H13.0918H13.0932C13.4012 16.6121 13.7051 16.6912 13.9772 16.8455C14.2494 16.9999 14.4812 17.2246 14.6515 17.4994L14.7091 17.5924L14.8083 17.5577C15.6192 17.2738 16.3572 16.7918 16.9636 16.1498C17.5702 15.5078 18.0286 14.7235 18.3026 13.859C18.5767 12.9946 18.6587 12.0737 18.5425 11.1694C18.426 10.2652 18.1145 9.4022 17.6323 8.64919L17.6306 8.64656L17.6288 8.64407L17.6038 8.60825ZM13.6528 14.624L13.6699 14.723L13.5531 14.6966L13.5447 14.7324L13.5328 14.7836C13.5041 14.8747 13.4524 14.9561 13.3828 15.0185C13.2942 15.0979 13.1823 15.1412 13.0669 15.1411H13.0661C12.9536 15.1416 12.8446 15.1001 12.7577 15.0236C12.6708 14.9472 12.6115 14.8407 12.5902 14.7223L12.5688 14.6037H12.4557H12.0623C11.9322 14.6037 11.8075 14.5484 11.7154 14.4499C11.6234 14.3513 11.5716 14.2177 11.5716 14.0782C11.5716 13.9387 11.6234 13.8051 11.7154 13.7065C11.8075 13.6081 11.9322 13.5529 12.0623 13.5529H13.4265C13.534 13.5529 13.637 13.5071 13.7129 13.4259C13.7888 13.3448 13.8314 13.2347 13.8314 13.1201V13.1123L13.8305 13.1046C13.8233 13.031 13.7988 12.9607 13.7595 12.8998C13.7202 12.839 13.6672 12.7897 13.6053 12.7566L13.6001 12.7538L13.5947 12.7514L12.2137 12.1603L12.2128 12.16C11.9543 12.0516 11.7323 11.8622 11.576 11.6165C11.4197 11.3709 11.3366 11.0803 11.3372 10.7832C11.3391 10.433 11.4552 10.0947 11.6654 9.82638C11.8757 9.55822 12.167 9.37705 12.4887 9.31433L12.5828 9.29605L12.5991 9.19545C12.6189 9.07234 12.6785 8.96077 12.7674 8.87992C12.856 8.79906 12.9681 8.75402 13.0844 8.75256C13.1988 8.75212 13.3097 8.79453 13.398 8.87246C13.4865 8.95039 13.5468 9.05918 13.5681 9.17981L13.5894 9.29883H13.7028H14.0877C14.2179 9.29883 14.3426 9.3541 14.4347 9.45265C14.5267 9.5512 14.5785 9.68484 14.5785 9.82433C14.5785 9.96382 14.5267 10.0975 14.4347 10.196C14.3426 10.2944 14.2179 10.3497 14.0877 10.3497H12.7085C12.6132 10.3473 12.5203 10.3811 12.4459 10.4449C12.371 10.5091 12.3201 10.5996 12.3019 10.7003C12.2837 10.8009 12.2994 10.9052 12.3465 10.9946C12.3931 11.0834 12.4676 11.1517 12.5569 11.1875L13.9355 11.7776C14.2129 11.901 14.4459 12.1172 14.5993 12.3936C14.7529 12.6706 14.8189 12.9931 14.7872 13.3135C14.7554 13.6337 14.6278 13.9343 14.4233 14.1705C14.2188 14.4068 13.9486 14.5658 13.6528 14.624Z" fill="#E69F69" stroke="white" stroke-width="0.4"/>
</svg>
