<svg width="25" height="24" viewBox="0 0 25 24" fill="none" xmlns="http://www.w3.org/2000/svg">
<path d="M21.7317 12.4364C21.7317 12.3072 21.7079 12.1791 21.6617 12.0597C21.6155 11.9402 21.5476 11.8318 21.4623 11.7403C21.3769 11.649 21.2754 11.5764 21.1638 11.5269C21.0522 11.4774 20.9325 11.4519 20.8117 11.4519H16.7637C16.7149 11.4519 16.668 11.4312 16.6335 11.3943C16.599 11.3574 16.5796 11.3073 16.5796 11.2551V9.67992C16.5796 9.57556 16.5409 9.47541 16.4718 9.40151C16.4028 9.32774 16.3093 9.28613 16.2116 9.28613H9.58754C9.48992 9.28613 9.39636 9.32774 9.32727 9.40151C9.25829 9.47541 9.21957 9.57556 9.21957 9.67992V11.2551C9.21957 11.3073 9.20014 11.3574 9.16559 11.3943C9.13117 11.4312 9.08433 11.4519 9.03552 11.4519H4.98739C4.74346 11.4519 4.50937 11.5558 4.33688 11.7403C4.16439 11.925 4.06738 12.1753 4.06738 12.4364C4.06738 12.6976 4.16439 12.9479 4.33688 13.1326C4.50937 13.3172 4.74346 13.4209 4.98739 13.4209H5.35549C5.4043 13.4209 5.45102 13.4416 5.48557 13.4786C5.52012 13.5155 5.53942 13.5656 5.53942 13.6178V21.2965C5.53942 21.3488 5.55884 21.3989 5.59339 21.4358C5.62782 21.4727 5.67466 21.4934 5.72347 21.4934H20.0757C20.1245 21.4934 20.1712 21.4727 20.2058 21.4358C20.2403 21.3989 20.2596 21.3488 20.2596 21.2965V13.6178C20.2596 13.5656 20.2791 13.5155 20.3136 13.4786C20.348 13.4416 20.3949 13.4209 20.4437 13.4209H20.8117C20.9325 13.4209 21.0522 13.3954 21.1638 13.346C21.2754 13.2966 21.3769 13.224 21.4623 13.1326C21.5476 13.0411 21.6155 12.9327 21.6617 12.8133C21.7079 12.6938 21.7317 12.5657 21.7317 12.4364ZM12.1635 19.9183C12.1635 20.0228 12.1248 20.1229 12.0558 20.1968C11.9867 20.2706 11.8932 20.3121 11.7955 20.3121H9.95552C9.8579 20.3121 9.76434 20.2706 9.69525 20.1968C9.62627 20.1229 9.58754 20.0228 9.58754 19.9183V16.3742C9.58754 16.2699 9.62627 16.1697 9.69525 16.0958C9.76434 16.0221 9.8579 15.9805 9.95552 15.9805H11.7955C11.8932 15.9805 11.9867 16.0221 12.0558 16.0958C12.1248 16.1697 12.1635 16.2699 12.1635 16.3742V19.9183ZM11.4276 12.4364C11.4276 12.1249 11.5139 11.8204 11.6757 11.5614C11.8373 11.3023 12.0672 11.1004 12.3363 10.9812C12.6053 10.8621 12.9012 10.8308 13.1868 10.8916C13.4723 10.9524 13.7346 11.1024 13.9405 11.3227C14.1463 11.5429 14.2865 11.8237 14.3433 12.1291C14.4001 12.4347 14.371 12.7514 14.2595 13.0393C14.1481 13.327 13.9595 13.5731 13.7174 13.7461C13.4753 13.9193 13.1907 14.0115 12.8996 14.0115C12.5091 14.0115 12.1347 13.8456 11.8587 13.5503C11.5826 13.2548 11.4276 12.8542 11.4276 12.4364ZM16.2116 19.9183C16.2116 20.0228 16.1729 20.1229 16.1038 20.1968C16.0348 20.2706 15.9413 20.3121 15.8437 20.3121H14.0036C13.906 20.3121 13.8123 20.2706 13.7434 20.1968C13.6744 20.1229 13.6355 20.0228 13.6355 19.9183V16.3742C13.6355 16.2699 13.6744 16.1697 13.7434 16.0958C13.8123 16.0221 13.906 15.9805 14.0036 15.9805H15.8437C15.9413 15.9805 16.0348 16.0221 16.1038 16.0958C16.1729 16.1697 16.2116 16.2699 16.2116 16.3742V19.9183Z" fill="#E69F69"/>
<path d="M17.6834 8.67612C17.96 8.67612 18.2253 8.55851 18.4209 8.34928C18.6165 8.13992 18.7263 7.85626 18.7263 7.5604C18.7263 7.26454 18.6165 6.98088 18.4209 6.77152C18.2253 6.56229 17.96 6.44468 17.6834 6.44468H13.8193C13.8032 6.44468 13.7877 6.43785 13.7763 6.42551C13.7647 6.41331 13.7582 6.3965 13.7582 6.37905V5.59148C13.7582 5.57402 13.7647 5.55722 13.7763 5.54501C13.7877 5.53267 13.8032 5.52585 13.8193 5.52585H15.2913C15.5192 5.52585 15.7378 5.42898 15.8988 5.25663C16.0599 5.08429 16.1502 4.85064 16.1502 4.60702V3.42567C16.1502 3.18204 16.0599 2.9484 15.8988 2.77605C15.7378 2.60371 15.5192 2.50684 15.2913 2.50684H12.8993C12.6714 2.50684 12.4529 2.60371 12.2918 2.77605C12.1308 2.9484 12.0403 3.18204 12.0403 3.42567V6.37905C12.0403 6.3965 12.0338 6.41331 12.0223 6.42551C12.0109 6.43785 11.9954 6.44468 11.9793 6.44468H8.11522C7.83847 6.44468 7.57315 6.56229 7.37766 6.77152C7.18206 6.98088 7.07227 7.26454 7.07227 7.5604C7.07227 7.85626 7.18206 8.13992 7.37766 8.34928C7.57315 8.55851 7.83847 8.67612 8.11522 8.67612H17.6834Z" fill="#514AF3" stroke="white" stroke-width="0.2"/>
</svg>
