<svg width="25" height="25" viewBox="0 0 25 25" fill="none" xmlns="http://www.w3.org/2000/svg">
<g clip-path="url(#clip0_7_567)">
<mask id="mask0_7_567" style="mask-type:luminance" maskUnits="userSpaceOnUse" x="0" y="0" width="25" height="25">
<path d="M24.8418 0.78125H0.841797V24.7812H24.8418V0.78125Z" fill="white"/>
</mask>
<g mask="url(#mask0_7_567)">
<mask id="mask1_7_567" style="mask-type:luminance" maskUnits="userSpaceOnUse" x="0" y="0" width="25" height="25">
<path d="M24.8418 0.78125H0.841797V24.7812H24.8418V0.78125Z" fill="white"/>
</mask>
<g mask="url(#mask1_7_567)">
<path d="M12.8418 1.54688C9.1411 1.54688 6.54545 1.68591 4.90965 1.81882C3.26573 1.95239 1.99732 3.22079 1.86375 4.86472C1.73084 6.50055 1.5918 9.09615 1.5918 12.7969C1.5918 16.4977 1.73083 19.0932 1.86374 20.729C1.99731 22.3729 3.26572 23.6414 4.90964 23.775C6.54545 23.9079 9.1411 24.0469 12.8418 24.0469C16.5425 24.0469 19.1382 23.9079 20.7739 23.775C22.4179 23.6414 23.6863 22.3729 23.8199 20.729C23.9528 19.0932 24.0918 16.4977 24.0918 12.7969C24.0918 9.09615 23.9528 6.50055 23.8199 4.86473C23.6863 3.2208 22.4179 1.95239 20.7739 1.81883C19.1382 1.68592 16.5426 1.54688 12.8418 1.54688Z" fill="#514AF3"/>
<path fill-rule="evenodd" clip-rule="evenodd" d="M14.185 18.8685C14.9623 19.4321 16.0334 19.3237 16.6716 18.6064C18.5596 16.4846 19.771 14.5912 20.3772 13.5476C20.6946 13.0012 20.7789 12.3236 20.3056 11.9049C20.1793 11.7931 20.0389 11.6893 19.8934 11.5997C19.2815 11.2226 18.5969 11.5979 18.1386 12.1515C17.387 13.0596 16.1899 14.4853 15.3294 15.4115C15.162 15.5917 14.8888 15.6174 14.6923 15.4696C13.9277 14.894 12.9743 14.0746 12.2136 13.4006C11.4527 12.7263 10.3059 12.7009 9.57674 13.4094C8.32779 14.6229 7.03909 16.0455 5.96429 17.304C5.28072 18.1043 5.19936 19.2742 5.98779 19.9715C6.10459 20.0747 6.22994 20.1782 6.36379 20.2794C6.45929 20.3515 6.55479 20.4191 6.64939 20.4823C7.57809 21.1022 8.73484 20.614 9.32164 19.664C9.82504 18.849 10.4508 17.8716 11.0139 17.0955C11.1776 16.8699 11.4951 16.8316 11.7147 17.0033C12.2344 17.4093 13.1951 18.1509 14.185 18.8685Z" fill="#E69F69"/>
<path d="M6.3418 9.28125C5.78951 9.28125 5.3418 9.72895 5.3418 10.2812C5.3418 10.8335 5.78951 11.2812 6.3418 11.2812H9.3418C9.8941 11.2812 10.3418 10.8335 10.3418 10.2812C10.3418 9.72895 9.8941 9.28125 9.3418 9.28125H6.3418Z" fill="#E69F69"/>
<path d="M5.3418 6.28125C5.3418 5.72896 5.78951 5.28125 6.3418 5.28125H11.3418C11.8941 5.28125 12.3418 5.72896 12.3418 6.28125C12.3418 6.83355 11.8941 7.28125 11.3418 7.28125H6.3418C5.78951 7.28125 5.3418 6.83355 5.3418 6.28125Z" fill="#E69F69"/>
</g>
</g>
</g>
<defs>
<clipPath id="clip0_7_567">
<rect width="24" height="24" fill="white" transform="translate(0.841797 0.78125)"/>
</clipPath>
</defs>
</svg>
