<svg width="25" height="25" viewBox="0 0 25 25" fill="none" xmlns="http://www.w3.org/2000/svg">
<path d="M22.7695 13.416H19.0508C19.2433 13.6029 19.5758 13.8737 19.6983 13.9765C20.6782 14.7705 22.157 15.9663 22.157 18.0122C22.1589 18.4051 22.0447 18.7887 21.8306 19.1083C21.6165 19.4279 21.3135 19.6673 20.9647 19.7925C20.6157 19.9177 20.2388 19.9222 19.8874 19.8056C19.5359 19.6889 19.2278 19.4568 19.007 19.1425V19.7685C19.007 20.2639 18.8226 20.7391 18.4945 21.0895C18.1663 21.4399 17.7212 21.6368 17.257 21.6368C16.7929 21.6368 16.3478 21.4399 16.0196 21.0895C15.6914 20.7391 15.5071 20.2639 15.5071 19.7685V19.3013C15.2653 19.569 14.9544 19.7537 14.6137 19.8316C14.2732 19.9096 13.9187 19.8772 13.5954 19.7388C13.2723 19.6004 12.995 19.3621 12.7994 19.0545C12.6037 18.7469 12.4985 18.3839 12.497 18.0122C12.497 15.9943 13.9058 14.7986 14.8508 13.9952C15.0082 13.8644 15.3232 13.5935 15.4895 13.416H10.5895H10.255C10.0506 13.416 9.78792 13.4209 9.5633 13.4209C9.33867 13.4209 9.11196 13.4164 8.87173 13.416H7.17414C6.93984 13.4231 6.67113 13.4209 6.48246 13.4209C6.23101 13.4209 6.00044 13.4209 5.79088 13.4209L5.18199 13.416H3.51948C3.17138 13.416 2.83758 13.5637 2.59141 13.8264C2.34535 14.0892 2.20703 14.4456 2.20703 14.8172V21.8236C2.20703 22.1953 2.34535 22.5516 2.59141 22.8145C2.83758 23.0773 3.17138 23.2248 3.51948 23.2248H22.7695C22.8855 23.2248 22.9968 23.1756 23.0789 23.0881C23.161 23.0005 23.207 22.8817 23.207 22.7578V13.8831C23.207 13.7592 23.161 13.6405 23.0789 13.5528C22.9968 13.4652 22.8855 13.416 22.7695 13.416Z" fill="#E69F69"/>
<path d="M16.3819 8.72686C16.536 10.3638 16.536 12.0131 16.3819 13.65C16.3819 13.8929 15.7869 14.3973 15.3844 14.7336C14.5094 15.4997 13.3719 16.4432 13.3719 18.0126C13.3719 18.2604 13.4641 18.498 13.6282 18.6733C13.7923 18.8484 14.0149 18.9468 14.247 18.9468C14.479 18.9468 14.7015 18.8484 14.8656 18.6733C15.0297 18.498 15.1219 18.2604 15.1219 18.0126C15.1219 17.4148 15.6207 16.9289 16.3819 16.2751V19.7689C16.3819 20.0166 16.4741 20.2543 16.6382 20.4294C16.8023 20.6047 17.0248 20.703 17.2569 20.703C17.489 20.703 17.7115 20.6047 17.8757 20.4294C18.0397 20.2543 18.132 20.0166 18.132 19.7689V16.2284C18.8232 16.7889 19.5319 17.3681 19.5319 18.0126C19.5319 18.2604 19.6241 18.498 19.7882 18.6733C19.9523 18.8484 20.1748 18.9468 20.4069 18.9468C20.639 18.9468 20.8615 18.8484 21.0257 18.6733C21.1897 18.498 21.2819 18.2604 21.2819 18.0126C21.2819 16.4339 20.1094 15.481 19.1732 14.7243C18.8144 14.4254 18.1495 13.8929 18.1407 13.6593C18.1367 13.5784 18.1367 13.4973 18.1407 13.4165C18.2119 11.957 18.2119 10.4947 18.1407 9.03522C18.4337 9.03393 18.7262 9.00893 19.0156 8.96045C19.7398 8.8561 20.43 8.5678 21.0282 8.11963C21.99 7.23268 22.6128 5.99921 22.7781 4.65388C22.7932 4.53016 22.7622 4.40514 22.6918 4.3056C22.6216 4.20606 22.5175 4.13997 22.4019 4.12143C21.1465 3.92363 19.8671 4.23353 18.8144 4.99018C18.2481 5.47345 17.803 6.09946 17.5195 6.81186C17.5195 6.88652 17.4582 6.97068 17.4231 7.04534C17.4231 6.96129 17.4231 6.87724 17.4231 6.80247C17.2099 5.44411 16.636 4.17953 15.7694 3.15923C14.4376 1.91884 12.724 1.24693 10.9569 1.27217C10.84 1.27217 10.7279 1.321 10.6444 1.40834C10.561 1.49567 10.5129 1.61446 10.5106 1.73924C10.5157 3.60599 11.1351 5.41135 12.2607 6.8398C13.1068 7.83134 14.253 8.47296 15.4982 8.6522C15.7912 8.69446 16.0863 8.71946 16.3819 8.72686Z" fill="#E69F69"/>
<path d="M2.8306 13.5392L2.84248 13.5542L2.85732 13.5661L3.48094 14.0669C3.7347 14.2704 4.04365 14.3804 4.36096 14.3804C4.67838 14.3804 4.98722 14.2704 5.24098 14.0669H5.24109L5.86472 13.5661L5.86494 13.566C5.88165 13.5525 5.90199 13.5453 5.92288 13.5453C5.94377 13.5453 5.96411 13.5525 5.98082 13.566L5.98104 13.5661L6.60466 14.0669H6.60478C6.85853 14.2704 7.16738 14.3804 7.4848 14.3804C7.80211 14.3804 8.11095 14.2704 8.36471 14.0669H8.36482L8.98844 13.5661L8.98899 13.5657C9.00482 13.5529 9.02406 13.546 9.04396 13.546C9.06375 13.546 9.08311 13.5529 9.09894 13.5657L9.09938 13.5661L9.72311 14.0669C9.97687 14.2704 10.2858 14.3804 10.6031 14.3804C10.9206 14.3804 11.2293 14.2704 11.4832 14.0669L12.1069 13.5661L12.1071 13.566C12.1237 13.5525 12.144 13.5453 12.165 13.5453C12.1859 13.5453 12.2063 13.5525 12.223 13.566L12.2231 13.5661L12.8468 14.0669L12.8477 14.0675L12.8485 14.0682C13.1033 14.2674 13.411 14.3748 13.7269 14.3748C14.0427 14.3748 14.3504 14.2674 14.6052 14.0682L14.6061 14.0675L14.607 14.0669L15.2306 13.5661L15.2453 13.5542L15.2573 13.5392C15.3596 13.4104 15.4178 13.2483 15.4226 13.0796C15.4273 12.9108 15.3782 12.7453 15.2833 12.6102C15.1884 12.4751 15.0534 12.3785 14.9002 12.336C14.7472 12.2936 14.5851 12.308 14.4406 12.3767L14.4236 12.3848L14.4086 12.3968L13.785 12.8977L13.7848 12.8978C13.7682 12.9112 13.7477 12.9185 13.7269 12.9185C13.706 12.9185 13.6856 12.9112 13.6689 12.8978L13.6688 12.8977L13.0451 12.3968L13.0445 12.3965C12.7905 12.1941 12.482 12.0847 12.165 12.0847C11.8481 12.0847 11.5396 12.1941 11.2855 12.3965L11.2849 12.3968L10.6613 12.8977L10.6607 12.898C10.6449 12.9108 10.6257 12.9178 10.6058 12.9178C10.586 12.9178 10.5666 12.9108 10.5509 12.898L10.5498 12.8972L9.92135 12.3968C9.92124 12.3967 9.92113 12.3967 9.92113 12.3966C9.66814 12.1937 9.36028 12.084 9.04396 12.084C8.72742 12.084 8.41957 12.1937 8.16658 12.3968L7.54285 12.8977L7.54274 12.8978C7.52603 12.9112 7.50569 12.9185 7.4848 12.9185C7.4638 12.9185 7.44346 12.9112 7.42674 12.8978L7.42663 12.8977L6.8029 12.3968L6.80246 12.3965C6.54837 12.1941 6.23986 12.0847 5.92288 12.0847C5.6059 12.0847 5.29739 12.1941 5.0433 12.3965L5.04286 12.3968L4.41912 12.8977L4.41858 12.898C4.40285 12.9108 4.3835 12.9178 4.36371 12.9178C4.34381 12.9178 4.32457 12.9108 4.30874 12.898L4.30764 12.8972L3.67863 12.3963L3.664 12.3847L3.64729 12.3767C3.50282 12.308 3.34076 12.2936 3.1876 12.336C3.03456 12.3785 2.89954 12.4751 2.80465 12.6102C2.70977 12.7453 2.66062 12.9108 2.66535 13.0796C2.67008 13.2483 2.72835 13.4104 2.8306 13.5392Z" fill="#514AF3" stroke="white" stroke-width="0.4"/>
<path d="M4.41934 10.9432L4.4188 10.9436C4.40296 10.9564 4.38372 10.9633 4.36382 10.9633C4.34403 10.9633 4.32479 10.9564 4.30896 10.9436L4.30786 10.9428L3.67885 10.4419L3.67698 10.4404L3.675 10.439C3.52888 10.3296 3.34911 10.284 3.17254 10.3117C2.99607 10.3394 2.8361 10.4383 2.72571 10.5879L2.72329 10.5914L2.72087 10.5949C2.61763 10.7499 2.57387 10.9414 2.5985 11.1298C2.62313 11.3182 2.71439 11.4895 2.85347 11.6084L2.85545 11.61L2.85743 11.6116L3.48116 12.1124L3.48127 12.1125C3.73503 12.316 4.04387 12.4259 4.36118 12.4259C4.6786 12.4259 4.98733 12.316 5.2412 12.1125L5.24131 12.1124L5.86054 11.6152C5.87934 11.6026 5.90089 11.5959 5.9231 11.5959C5.9452 11.5959 5.96686 11.6026 5.98555 11.6152L6.60488 12.1124L6.60499 12.1125C6.85875 12.316 7.1676 12.4259 7.4849 12.4259C7.80232 12.4259 8.11106 12.316 8.36493 12.1125L8.36504 12.1124L8.98547 11.6142C9.00284 11.602 9.02329 11.5955 9.04418 11.5955C9.06507 11.5955 9.08541 11.602 9.10278 11.6142L9.72333 12.1124L9.72344 12.1125C9.9772 12.316 10.2859 12.4259 10.6033 12.4259C10.9207 12.4259 11.2295 12.316 11.4833 12.1125L11.4834 12.1124L12.1027 11.6152C12.1214 11.6026 12.1431 11.5959 12.1652 11.5959C12.1874 11.5959 12.209 11.6026 12.2277 11.6152L12.8471 12.1124L12.8472 12.1125C13.1009 12.316 13.4097 12.4259 13.7271 12.4259C14.0445 12.4259 14.3532 12.316 14.607 12.1125L14.6071 12.1124L15.2308 11.6116L15.2328 11.61L15.2348 11.6084C15.3739 11.4895 15.4651 11.3182 15.4898 11.1298C15.5144 10.9414 15.4706 10.7499 15.3674 10.5949L15.3651 10.5914L15.3625 10.5879C15.2522 10.4383 15.0923 10.3394 14.9157 10.3117C14.7391 10.284 14.5594 10.3296 14.4133 10.439L14.4111 10.4406L14.4089 10.4424L13.7852 10.9432L13.785 10.9433C13.7683 10.9568 13.748 10.964 13.7271 10.964C13.7062 10.964 13.6858 10.9568 13.6691 10.9433L13.6689 10.9432L13.0453 10.4424L13.0444 10.4417L13.0435 10.441C12.7887 10.2418 12.481 10.1345 12.1652 10.1345C11.8494 10.1345 11.5418 10.2418 11.2869 10.441L11.286 10.4417L11.2851 10.4424L10.6615 10.9432L10.661 10.9436C10.6451 10.9564 10.6259 10.9633 10.606 10.9633C10.5862 10.9633 10.5668 10.9564 10.551 10.9436L10.55 10.9428L9.92101 10.4419L9.92025 10.4413C9.66649 10.2415 9.35951 10.1338 9.04418 10.1338C8.72885 10.1338 8.42177 10.2415 8.16801 10.4413L8.16735 10.4419L8.16669 10.4424L7.54307 10.9432L7.54296 10.9433C7.52624 10.9568 7.5059 10.964 7.4849 10.964C7.46401 10.964 7.44367 10.9568 7.42696 10.9433L7.42685 10.9432L6.80312 10.4424L6.80224 10.4417L6.80147 10.441C6.54661 10.2418 6.23898 10.1345 5.9231 10.1345C5.60722 10.1345 5.29958 10.2418 5.04473 10.441L5.04385 10.4417L5.04297 10.4424L4.41934 10.9432Z" fill="#514AF3" stroke="white" stroke-width="0.4"/>
</svg>
