<svg width="25" height="25" viewBox="0 0 25 25" fill="none" xmlns="http://www.w3.org/2000/svg">
<path fill-rule="evenodd" clip-rule="evenodd" d="M15.7607 3.78345C19.0323 3.78345 21.6846 6.40877 21.6846 9.64719C21.6846 10.2001 22.1374 10.6483 22.696 10.6483C23.2546 10.6483 23.7074 10.2001 23.7074 9.64719C23.7074 5.30293 20.1495 1.78125 15.7607 1.78125C15.202 1.78125 14.7493 2.22946 14.7493 2.78235C14.7493 3.33522 15.202 3.78345 15.7607 3.78345Z" fill="#E69F69"/>
<path fill-rule="evenodd" clip-rule="evenodd" d="M15.8075 7.26349C17.227 7.26349 18.3776 8.33689 18.3776 9.661C18.3776 10.2063 18.8514 10.6483 19.4359 10.6483C20.0203 10.6483 20.4941 10.2063 20.4941 9.661C20.4941 7.24644 18.3959 5.28906 15.8075 5.28906C15.2231 5.28906 14.7493 5.73105 14.7493 6.27633C14.7493 6.8215 15.2231 7.26349 15.8075 7.26349Z" fill="#E69F69"/>
<path d="M13.1926 13.6078C12.9041 13.3108 12.5928 12.9947 12.2571 12.6586C11.9213 12.3226 11.6055 12.0111 11.3086 11.7224L12.6759 10.67C12.6655 10.5902 12.6602 10.509 12.6602 10.4267C12.6602 9.39213 13.4969 8.54732 14.5307 8.53816C15.5681 8.52891 16.4103 9.36426 16.4103 10.4024C16.4103 11.437 15.5736 12.2818 14.5397 12.2911C14.4321 12.2919 14.3263 12.2838 14.2232 12.2671L13.1926 13.6078Z" fill="#514AF3"/>
<path d="M4.34261 17.666C4.67777 18.2578 5.09753 18.8147 5.60162 19.3193C7.3429 21.0618 9.70969 21.7959 11.9784 21.5218C12.2199 21.8121 12.4411 22.1008 12.6344 22.3839C13.005 22.9266 12.6266 23.6149 12.0113 23.6579C11.297 23.7079 9.83433 23.7814 7.40999 23.7814C4.88925 23.7814 3.40815 23.7019 2.72704 23.6521C2.15742 23.6104 1.80825 23.0306 2.01711 22.5102C2.66209 20.9036 3.44797 19.3338 4.07037 18.1691C4.1652 17.9918 4.25625 17.8236 4.34261 17.666Z" fill="#514AF3"/>
<path d="M7.29692 9.27454C6.83762 8.92473 6.19157 8.98738 5.81328 9.43395C3.52877 12.131 3.65759 16.1754 6.20023 18.7198C8.74278 21.2642 12.7843 21.3932 15.4795 19.107C15.9257 18.7285 15.9883 18.0819 15.6388 17.6223C15.15 16.9797 14.0262 15.6268 11.6586 13.2575C9.29098 10.8882 7.93908 9.76369 7.29692 9.27454Z" fill="#514AF3"/>
</svg>
