<svg width="25" height="25" viewBox="0 0 25 25" fill="none" xmlns="http://www.w3.org/2000/svg">
<path d="M15.1554 16.1323C15.2537 15.9924 15.4075 15.9045 15.5807 15.9045C15.874 15.9045 16.1118 16.1589 16.1118 16.4727C16.1118 16.9433 16.4686 17.3248 16.9085 17.3248C17.3485 17.3248 17.7053 16.9433 17.7053 16.4727C17.7053 15.2176 16.7541 14.2002 15.5807 14.2002C14.8852 14.2002 14.2678 14.5586 13.8815 15.1084C13.6171 15.4848 13.6881 16.019 14.0399 16.3017C14.3917 16.5844 14.8911 16.5085 15.1554 16.1323Z" fill="#514AF3"/>
<path d="M9.16179 5.16699V3.95497C9.16179 3.79865 9.10261 3.64867 8.99749 3.53818C8.89229 3.4276 8.74961 3.36545 8.60084 3.36545C8.48987 3.36545 8.38142 3.33091 8.28915 3.26616C8.19695 3.20141 8.12501 3.10932 8.08257 3.00158C8.04013 2.89386 8.02899 2.77534 8.0507 2.66098C8.07232 2.54663 8.12574 2.44159 8.20419 2.35915C8.28264 2.2767 8.38256 2.22056 8.49141 2.19781C8.60019 2.17506 8.71303 2.18674 8.81547 2.23136C8.91798 2.27598 9.00562 2.35154 9.06724 2.44848C9.12887 2.54542 9.16179 2.65939 9.16179 2.77599H10.2836C10.2836 2.45178 10.1987 2.13383 10.0383 1.85688C9.87794 1.57992 9.6482 1.35464 9.37422 1.20564C9.10025 1.05665 8.79254 0.989665 8.48475 1.01202C8.17695 1.03439 7.88095 1.14523 7.62909 1.33244C7.37723 1.51965 7.17919 1.77602 7.05659 2.07353C6.934 2.37104 6.89156 2.69824 6.934 3.0194C6.97635 3.34054 7.10196 3.6432 7.29699 3.89439C7.49202 4.14557 7.74908 4.33566 8.03989 4.44372V5.16699C6.82904 5.22341 5.67193 5.70833 4.75652 6.54314C3.84103 7.37785 3.22097 8.51332 2.99708 9.76518C2.98545 9.84885 2.99115 9.93426 3.01375 10.0154C3.03635 10.0967 3.07529 10.1718 3.12797 10.2358C3.18065 10.2998 3.24585 10.3511 3.3191 10.3862C3.39235 10.4214 3.47186 10.4396 3.55242 10.4395H5.2352V14.566C5.2352 14.7224 5.29431 14.8723 5.3995 14.9829C5.5047 15.0935 5.64738 15.1556 5.79615 15.1556H11.4055C11.5543 15.1556 11.697 15.0935 11.8022 14.9829C11.9073 14.8723 11.9665 14.7224 11.9665 14.566V10.4395H13.6493C13.7297 10.4395 13.8092 10.4214 13.8823 10.3863C13.9554 10.3512 14.0205 10.3 14.0731 10.2361C14.1258 10.1723 14.1648 10.0973 14.1875 10.0163C14.2102 9.93521 14.2161 9.84998 14.2046 9.7663C13.9809 8.51427 13.361 7.37855 12.4455 6.54357C11.53 5.7086 10.3728 5.22349 9.16179 5.16699ZM10.8446 11.6185H6.35711V9.26054H10.8446V11.6185ZM6.35711 13.9765V12.7976H10.8446V13.9765H6.35711ZM11.9665 9.26054V8.67103C11.9665 8.51471 11.9073 8.36472 11.8022 8.25415C11.697 8.14365 11.5543 8.08151 11.4055 8.08151H5.79615C5.64738 8.08151 5.5047 8.14365 5.3995 8.25415C5.29431 8.36472 5.2352 8.51471 5.2352 8.67103V9.26054H4.28158C4.64344 8.21005 5.69795 6.31304 8.60084 6.31304C11.5037 6.31304 12.5588 8.21118 12.92 9.26054H11.9665Z" fill="#E69F69"/>
<path fill-rule="evenodd" clip-rule="evenodd" d="M16.1218 10.3818C14.4555 10.3818 13.0516 11.5435 12.5699 13.14C10.9818 13.6005 9.82129 15.1477 9.82129 16.9767C9.82129 19.0994 11.1011 20.372 12.344 20.9923C12.6463 21.1523 12.999 21.282 13.3306 21.3939C13.5208 21.458 13.6746 21.5073 13.8242 21.5551C13.9893 21.6079 14.1491 21.6591 14.3466 21.7268C14.6739 21.8388 14.9484 21.9465 15.1603 22.0601C15.3853 22.1809 15.4545 22.2643 15.4647 22.2807C15.5024 22.3411 15.547 22.3953 15.5968 22.4425V22.9324C15.5968 23.2393 15.8319 23.488 16.1218 23.488C16.4118 23.488 16.6469 23.2393 16.6469 22.9324V22.4425C16.6967 22.3953 16.7413 22.3411 16.779 22.2807C16.7892 22.2643 16.8584 22.1809 17.0834 22.0601C17.2953 21.9465 17.5698 21.8388 17.8971 21.7268C18.0946 21.6591 18.2544 21.6079 18.4195 21.5551C18.5691 21.5073 18.723 21.458 18.9131 21.3939C19.2447 21.282 19.5974 21.1523 19.8997 20.9923C21.1426 20.3721 22.4224 19.0994 22.4224 16.9767C22.4224 15.1477 21.2619 13.6005 19.6738 13.14C19.192 11.5435 17.7882 10.3818 16.1218 10.3818ZM13.9943 13.9856C14.1607 12.8817 15.0555 12.0485 16.1218 12.0485C17.1882 12.0485 18.083 12.8817 18.2494 13.9856C18.3052 14.3549 18.5865 14.6397 18.9376 14.6822C20.0062 14.8116 20.8473 15.7845 20.8473 16.9767C20.8473 17.9063 20.4585 18.5791 19.9015 19.0475C19.4719 18.7314 18.9102 18.488 18.222 18.488C16.7519 18.488 16.2094 19.1362 16.1218 19.5991C16.0343 19.1362 15.4918 18.488 14.0216 18.488C13.3334 18.488 12.7718 18.7314 12.3422 19.0475C11.7852 18.5791 11.3964 17.9063 11.3964 16.9767C11.3964 15.7845 12.2375 14.8116 13.3061 14.6822C13.6572 14.6397 13.9386 14.3549 13.9943 13.9856Z" fill="#514AF3"/>
</svg>
