<svg width="25" height="25" viewBox="0 0 25 25" fill="none" xmlns="http://www.w3.org/2000/svg">
<path d="M10.1341 1.91992C6.98483 1.91992 5.2559 2.15771 4.32772 2.37574C3.45018 2.58197 2.9551 3.36463 2.86515 4.18916C2.76405 5.11495 2.63672 6.63603 2.63672 8.42862C2.63672 10.9752 3.55173 13.4168 5.18537 15.1903C4.97241 13.6811 5.05325 12.1196 5.43268 10.6148C5.88549 8.81975 6.39658 7.33415 6.73274 6.43294C7.17735 5.24077 8.28093 4.14925 9.83889 4.22239C10.9164 4.27301 12.7433 4.54402 15.8343 5.4239C16.4623 5.60261 17.0332 5.77542 17.5524 5.94184C17.5083 5.23998 17.4525 4.64301 17.403 4.18916C17.3129 3.36463 16.8179 2.58197 15.9403 2.37574C15.0121 2.15771 13.2832 1.91992 10.1341 1.91992Z" fill="#E69F69"/>
<path fill-rule="evenodd" clip-rule="evenodd" d="M9.74943 5.6573C10.6999 5.70173 12.4292 5.94679 15.4737 6.81035C18.5181 7.67391 20.1315 8.37705 20.9756 8.84161C21.7737 9.28081 22.0614 10.1705 21.9474 10.9895C21.8195 11.9088 21.5716 13.409 21.1345 15.1358C20.2757 18.5289 17.7732 21.2487 14.4927 22.0015C13.4806 22.2338 12.3863 22.3815 11.5896 22.1555C10.7928 21.9295 9.91489 21.2224 9.14802 20.4855C6.66271 18.0972 5.78001 14.4172 6.63886 11.0241C7.07593 9.29733 7.5699 7.86697 7.89335 7.00302C8.18135 6.23343 8.85081 5.61523 9.74943 5.6573ZM14.9203 12.447C15.1874 12.8171 15.5584 12.7204 15.8816 12.5385C15.9406 12.5053 16.0293 12.4635 16.1395 12.4347C16.3488 12.3802 16.6501 12.3668 17.0144 12.5895C17.3787 12.8121 17.5184 13.095 17.5784 13.3141C17.61 13.4295 17.6201 13.5319 17.6224 13.6024C17.6353 13.9898 17.7416 14.3782 18.1779 14.4381C18.5436 14.4882 18.8685 14.1926 18.9021 13.814C18.9066 13.7642 18.912 13.6746 18.908 13.5548C18.9028 13.3961 18.8807 13.1792 18.8139 12.9349C18.6768 12.4346 18.3541 11.8359 17.6575 11.4102C16.9609 10.9844 16.3099 10.988 15.8321 11.1125C15.5988 11.1734 15.4103 11.2615 15.2778 11.3361C15.1778 11.3924 15.1072 11.4422 15.0687 11.4711C14.7758 11.6912 14.6964 12.1368 14.9203 12.447ZM13.2912 11.9853C13.6317 11.8351 13.7732 11.407 13.6236 11.0615C13.6039 11.0161 13.5663 10.9357 13.5063 10.8339C13.4267 10.6993 13.3052 10.5231 13.1319 10.347C12.777 9.98621 12.2148 9.63862 11.4104 9.63862C10.606 9.63862 10.0439 9.98621 9.68885 10.347C9.51557 10.5231 9.39403 10.6993 9.31448 10.8339C9.27452 10.9017 9.24442 10.9603 9.22296 11.005C9.21228 11.0273 9.20372 11.0464 9.19718 11.0615C9.04757 11.4072 9.18908 11.8352 9.52956 11.9853C9.85458 12.1287 10.2275 11.9687 10.3671 11.6278C10.3696 11.622 10.3822 11.5948 10.4053 11.5557C10.4406 11.4958 10.4978 11.4125 10.5796 11.3293C10.7352 11.1713 10.9896 11.0003 11.4104 11.0003C11.8311 11.0003 12.0856 11.1713 12.2411 11.3293C12.3229 11.4125 12.3801 11.4958 12.4155 11.5557C12.6096 11.8844 12.885 12.1645 13.2912 11.9853ZM10.9366 14.8766C10.885 14.5046 10.5582 14.2474 10.2068 14.302C9.85532 14.3568 9.61234 14.7027 9.66399 15.0747C9.78092 15.9171 10.1186 16.8006 10.5693 17.519C11.0067 18.2161 11.6261 18.8761 12.3671 19.0863C13.1081 19.2964 13.9563 19.0529 14.6643 18.6805C15.3939 18.2969 16.1037 17.7105 16.6029 17.0429C16.8233 16.7481 16.7763 16.3199 16.4978 16.0865C16.2193 15.8531 15.8148 15.9029 15.5943 16.1977C15.2239 16.6932 14.6688 17.1577 14.0921 17.461C13.494 17.7755 12.9945 17.8545 12.7001 17.7709C12.4056 17.6874 12.0104 17.3546 11.6409 16.7657C11.2847 16.1978 11.0234 15.5018 10.9366 14.8766Z" fill="#514AF3"/>
</svg>
