<svg width="25" height="25" viewBox="0 0 25 25" fill="none" xmlns="http://www.w3.org/2000/svg">
<path d="M17.739 10.9668C18.3197 10.9668 18.855 11.2854 19.2296 11.8259C19.7173 12.5296 20.355 13.5901 21.1441 15.183C21.2124 15.3211 21.2791 15.4565 21.344 15.5893C21.0936 15.9084 20.7826 16.2906 20.4409 16.6792C20.0117 17.1675 19.5426 17.656 19.0902 18.0415C18.623 18.4398 18.2322 18.6767 17.9553 18.7416C17.7965 18.7789 17.5348 18.7501 17.1713 18.615C16.8223 18.4853 16.4446 18.2824 16.0875 18.0605C15.733 17.8401 15.4128 17.6098 15.1804 17.4337C15.0647 17.3459 14.9716 17.2724 14.9081 17.2212C14.8764 17.1956 14.852 17.1757 14.836 17.1625L14.8182 17.1478L14.8143 17.1445L14.8137 17.1439C14.6321 16.9908 14.378 16.9776 14.1832 17.1113L14.1823 17.1119L14.1784 17.1146L14.1617 17.1259C14.1468 17.136 14.1244 17.1511 14.0954 17.1704C14.0374 17.209 13.9531 17.2645 13.8495 17.3307C13.6418 17.4635 13.3592 17.6379 13.0566 17.8069C12.7515 17.9771 12.4387 18.1348 12.168 18.2396C12.0326 18.292 11.9188 18.3269 11.829 18.3451C11.7513 18.3608 11.7143 18.3594 11.7069 18.3591C11.7053 18.3588 11.705 18.3591 11.7069 18.3591C11.6286 18.3426 11.4409 18.2583 11.1476 18.0703C10.8732 17.8944 10.5575 17.6619 10.2402 17.4094C9.82002 17.0747 9.41957 16.7224 9.12695 16.4416C9.87703 15.1745 10.4829 14.3341 10.9455 13.7783C11.313 13.3369 11.8024 13.0877 12.3198 13.0877C12.837 13.0877 13.3264 13.337 13.6938 13.7784C13.9266 14.0579 14.1953 14.4092 14.5003 14.8505C15.213 13.4407 15.7954 12.4794 16.2483 11.8258C16.623 11.2853 17.1583 10.9668 17.739 10.9668Z" fill="#514AF3"/>
<path d="M8.56217 17.4197C7.93808 18.5355 7.51905 19.3709 7.24595 19.955C7.04708 20.3801 7.03529 20.8592 7.22745 21.2634C7.42148 21.6714 7.79538 21.9428 8.24826 22.0019C9.02413 22.1029 10.2938 22.1991 12.3223 22.1991H17.7342C20.0813 22.1991 21.4788 22.0551 22.2858 21.9145C22.708 21.841 23.0498 21.5777 23.2344 21.1982C23.4163 20.8239 23.4247 20.3807 23.2719 19.9752C23.0103 19.2807 22.5698 18.1973 21.8634 16.6738C21.669 16.9169 21.4525 17.1793 21.2218 17.4455C20.7753 17.9608 20.2677 18.4997 19.7601 18.9388C19.2675 19.3648 18.7152 19.7501 18.1839 19.8767C17.729 19.9849 17.235 19.8708 16.8098 19.7104C16.3701 19.5445 15.9264 19.299 15.5387 19.0545C15.1485 18.8084 14.8007 18.5542 14.5512 18.3623C14.5145 18.3341 14.4799 18.3071 14.4475 18.2818L14.4078 18.3076C14.1889 18.4495 13.8877 18.6383 13.5615 18.8231C13.2378 19.0065 12.8771 19.193 12.5415 19.3249C12.3738 19.3907 12.2013 19.4474 12.0357 19.4816C11.877 19.5143 11.6864 19.5347 11.4988 19.4945C11.2179 19.4342 10.889 19.249 10.5929 19.0563C10.2778 18.8513 9.93124 18.5915 9.59723 18.3215C9.23241 18.0267 8.86717 17.7074 8.56217 17.4197Z" fill="#514AF3"/>
<path d="M4.63086 6.89126C4.63086 4.18992 6.66305 2 9.16984 2C11.6767 2 13.7088 4.18992 13.7088 6.89126C13.7088 9.59268 11.6767 11.7825 9.16984 11.7825C6.66305 11.7825 4.63086 9.59268 4.63086 6.89126Z" fill="#E69F69"/>
<path d="M5.77771 13.8864V12.3432C5.79714 12.3269 5.82386 12.3043 5.85737 12.2761C5.93356 12.2119 6.04496 12.1178 6.18579 11.9982C6.44973 11.7741 6.81735 11.4606 7.25114 11.0866L8.96518 14.1075C9.10907 14.3612 9.4402 14.4042 9.63805 14.1951L9.96172 13.8528C10.1562 13.6472 10.2306 13.3466 10.1564 13.0667L9.18457 9.39632C9.51622 9.10193 9.85448 8.79895 10.191 8.49388C10.196 8.48935 10.2006 8.48428 10.2047 8.47866C10.8957 7.53909 10.9517 6.68937 10.8889 6.16981C10.8437 5.79626 10.5737 5.51067 10.2204 5.46293C9.72908 5.39645 8.92547 5.45559 8.03693 6.18638C8.03167 6.19073 8.02692 6.19562 8.02259 6.20088C7.73414 6.55676 7.44763 6.91446 7.16918 7.26509L3.69834 6.23738C3.43356 6.15903 3.14934 6.23774 2.95497 6.44336L2.63122 6.78565C2.43337 6.9948 2.47418 7.34498 2.71402 7.49715L5.5707 9.30963C5.21708 9.76841 4.92065 10.1572 4.70871 10.4363C4.59562 10.5853 4.50671 10.703 4.44596 10.7835C4.41915 10.8189 4.39786 10.8472 4.38242 10.8678H2.92315C2.66278 10.8678 2.41301 10.9772 2.22888 11.1718L2.09372 11.3148C1.93379 11.4839 1.98596 11.7704 2.19384 11.8646L4.04271 12.7024L4.83504 14.6576C4.92421 14.8774 5.19502 14.9326 5.35495 14.7635L5.49018 14.6205C5.67429 14.4258 5.77771 14.1618 5.77771 13.8864Z" fill="#514AF3"/>
</svg>
