<svg width="25" height="25" viewBox="0 0 25 25" fill="none" xmlns="http://www.w3.org/2000/svg">
<path fill-rule="evenodd" clip-rule="evenodd" d="M9.02942 18.9152L12.1195 16.7089H17.9133C19.996 16.7089 21.3897 15.1081 21.3897 13.3996V5.23633H21.6214C22.747 5.23633 23.7071 6.15039 23.7071 7.22195V16.9296C23.7071 18.0011 22.747 18.9152 21.6214 18.9152H19.9991V22.2247C19.9991 22.4754 19.8503 22.7046 19.6148 22.8166C19.3793 22.9288 19.0974 22.9045 18.8867 22.7542L13.51 18.9152H9.02942Z" fill="#E69F69"/>
<path fill-rule="evenodd" clip-rule="evenodd" d="M3.79278 1.82422C2.66719 1.82422 1.70703 2.73828 1.70703 3.80984V13.5175C1.70703 14.589 2.66719 15.5031 3.79278 15.5031H5.41505V18.8125C5.41505 19.0633 5.56383 19.2925 5.79936 19.4045C6.03502 19.5167 6.31679 19.4924 6.52747 19.342L11.9042 15.5031H18.1615C19.41 15.5031 20.2474 14.5597 20.2474 13.5175V3.80984C20.2474 2.73828 19.2871 1.82422 18.1615 1.82422H3.79278ZM12.5994 5.35422C12.3182 5.35422 12.0647 5.51549 11.9572 5.76279C11.8495 6.01021 11.909 6.2949 12.1078 6.48411L13.1311 7.45828L11.0477 9.25091L9.38296 7.66618C9.11809 7.41391 8.6909 7.40693 8.41696 7.65032L5.63592 10.1213C5.35526 10.3707 5.3401 10.7895 5.60211 11.0569C5.86412 11.3241 6.30399 11.3385 6.58476 11.0891L8.87473 9.05437L10.5319 10.632C10.7938 10.8812 11.2149 10.8914 11.4897 10.655L14.1156 8.39553L15.3524 9.57299C15.5512 9.76219 15.8503 9.81887 16.11 9.7164C16.3699 9.61393 16.5392 9.37266 16.5392 9.10489V6.01613C16.5392 5.65062 16.228 5.35422 15.8441 5.35422H12.5994Z" fill="#514AF3"/>
</svg>
