<svg width="25" height="25" viewBox="0 0 25 25" fill="none" xmlns="http://www.w3.org/2000/svg">
<g clip-path="url(#clip0_7_580)">
<mask id="mask0_7_580" style="mask-type:luminance" maskUnits="userSpaceOnUse" x="0" y="0" width="25" height="25">
<path d="M24.8418 0.78125H0.841797V24.7812H24.8418V0.78125Z" fill="white"/>
</mask>
<g mask="url(#mask0_7_580)">
<mask id="mask1_7_580" style="mask-type:luminance" maskUnits="userSpaceOnUse" x="0" y="0" width="25" height="25">
<path d="M24.8418 0.78125H0.841797V24.7812H24.8418V0.78125Z" fill="white"/>
</mask>
<g mask="url(#mask1_7_580)">
<path d="M2.8418 3.53125C2.15144 3.53125 1.5918 4.09089 1.5918 4.78125C1.5918 5.47161 2.15144 6.03125 2.8418 6.03125H18.3418C19.8606 6.03125 21.0918 7.26245 21.0918 8.78125C21.0918 10.3001 19.8606 11.5312 18.3418 11.5312H7.3418C4.44231 11.5312 2.0918 13.8818 2.0918 16.7812C2.0918 19.6807 4.44231 22.0312 7.3418 22.0312H18.6411C18.6936 22.409 18.7705 22.7774 18.8716 23.1278C18.9743 23.4837 19.2295 23.7756 19.5685 23.9251C19.9076 24.0745 20.2954 24.0658 20.6273 23.9014C21.0425 23.6945 21.4467 23.4617 21.8396 23.2155C22.4455 22.836 23.3158 22.2326 23.8418 21.5312C24.1751 21.0868 24.1751 20.4757 23.8418 20.0312C23.3158 19.3299 22.4455 18.7266 21.8396 18.347C21.4464 18.1007 21.0424 17.8689 20.6273 17.6611C20.2954 17.4967 19.9076 17.488 19.5685 17.6374C19.2295 17.7868 18.9743 18.0788 18.8716 18.4347C18.7705 18.7851 18.6936 19.1535 18.6411 19.5312H7.3418C5.82302 19.5312 4.5918 18.3001 4.5918 16.7812C4.5918 15.2624 5.82302 14.0312 7.3418 14.0312H18.3418C21.2413 14.0312 23.5918 11.6807 23.5918 8.78125C23.5918 5.88175 21.2413 3.53125 18.3418 3.53125H2.8418Z" fill="#514AF3"/>
<path d="M8.3418 1.28125C6.4088 1.28125 4.8418 2.84826 4.8418 4.78125C4.8418 6.71425 6.4088 8.28125 8.3418 8.28125C10.2748 8.28125 11.8418 6.71425 11.8418 4.78125C11.8418 2.84826 10.2748 1.28125 8.3418 1.28125Z" fill="#E69F69"/>
<path d="M9.8418 17.2812C7.9088 17.2812 6.3418 18.8483 6.3418 20.7812C6.3418 22.7142 7.9088 24.2812 9.8418 24.2812C11.7748 24.2812 13.3418 22.7142 13.3418 20.7812C13.3418 18.8483 11.7748 17.2812 9.8418 17.2812Z" fill="#E69F69"/>
<path d="M15.8418 9.28125C13.9088 9.28125 12.3418 10.8483 12.3418 12.7812C12.3418 14.7142 13.9088 16.2812 15.8418 16.2812C17.7748 16.2812 19.3418 14.7142 19.3418 12.7812C19.3418 10.8483 17.7748 9.28125 15.8418 9.28125Z" fill="#E69F69"/>
</g>
</g>
</g>
<defs>
<clipPath id="clip0_7_580">
<rect width="24" height="24" fill="white" transform="translate(0.841797 0.78125)"/>
</clipPath>
</defs>
</svg>
