<svg width="25" height="25" viewBox="0 0 25 25" fill="none" xmlns="http://www.w3.org/2000/svg">
<g clip-path="url(#clip0_7_593)">
<mask id="mask0_7_593" style="mask-type:luminance" maskUnits="userSpaceOnUse" x="0" y="0" width="25" height="25">
<path d="M24.8418 0.78125H0.841797V24.7812H24.8418V0.78125Z" fill="white"/>
</mask>
<g mask="url(#mask0_7_593)">
<mask id="mask1_7_593" style="mask-type:luminance" maskUnits="userSpaceOnUse" x="0" y="0" width="25" height="25">
<path d="M24.8418 0.78125H0.841797V24.7812H24.8418V0.78125Z" fill="white"/>
</mask>
<g mask="url(#mask1_7_593)">
<path d="M18.0592 4.79788C17.3346 4.13227 16.4766 3.70845 15.5705 3.57553C14.2363 3.37984 12.8754 3.8279 11.8055 4.92217C11.5159 5.21834 11.5213 5.69318 11.8174 5.98275C12.1136 6.27235 12.5885 6.267 12.8781 5.97085C13.63 5.20178 14.518 4.93721 15.3528 5.05965C15.8648 5.13476 16.3852 5.36031 16.8604 5.74363C12.7039 6.65075 9.5918 10.3524 9.5918 14.7809C9.5918 15.1951 9.9276 15.5309 10.3418 15.5309H14.3085C14.7227 15.5309 15.0585 15.1951 15.0585 14.7809C15.0585 12.5318 15.5462 10.533 16.298 9.12345C16.8473 8.0935 17.4813 7.4672 18.1049 7.19345C18.8233 8.30305 18.75 9.8135 17.8621 10.771C17.5805 11.0746 17.5984 11.5492 17.9022 11.8308C18.2059 12.1124 18.6805 12.0945 18.9621 11.7908C20.0942 10.5699 20.3546 8.8399 19.8367 7.34955C21.1357 7.92465 22.0918 9.2224 22.0918 10.7809C22.0918 11.1951 22.4276 11.5309 22.8418 11.5309C23.256 11.5309 23.5918 11.1951 23.5918 10.7809C23.5918 8.19175 21.7268 6.1365 19.4113 5.64373C19.8283 4.12098 19.4444 2.34008 17.9115 1.4551C17.5528 1.24799 17.0941 1.3709 16.887 1.72961C16.6799 2.08833 16.8028 2.54703 17.1615 2.75413C17.822 3.13548 18.1526 3.94214 18.0592 4.79788Z" fill="#514AF3"/>
<path d="M19.2851 15.926C17.6061 14.7407 15.3258 14.0312 12.8422 14.0312C10.3586 14.0312 8.07838 14.7407 6.39928 15.926C4.74373 17.0946 3.62133 18.7717 3.59277 20.7057C3.65944 20.6686 3.72499 20.6282 3.78923 20.5846C5.01991 19.7499 6.66453 19.7499 7.89518 20.5846C8.33638 20.8839 8.83993 21.0312 9.34223 21.0312C9.84453 21.0312 10.348 20.8839 10.7892 20.5846C12.0199 19.7499 13.6645 19.7499 14.8952 20.5846C15.3364 20.8839 15.8399 21.0312 16.3422 21.0312C16.8445 21.0312 17.348 20.8839 17.7892 20.5846C19.0199 19.7499 20.6645 19.7499 21.8952 20.5846C21.9594 20.6282 22.025 20.6686 22.0916 20.7057C22.0631 18.7717 20.9407 17.0946 19.2851 15.926Z" fill="#E69F69"/>
<path fill-rule="evenodd" clip-rule="evenodd" d="M21.0528 21.8265C20.3305 21.3365 19.3531 21.3365 18.6308 21.8265C17.9369 22.2971 17.1391 22.5317 16.3418 22.5317C15.5445 22.5317 14.7467 22.2971 14.0527 21.8265C13.3305 21.3365 12.3531 21.3365 11.6309 21.8265C10.9369 22.2971 10.1391 22.5317 9.3418 22.5317C8.54445 22.5317 7.7467 22.2971 7.05275 21.8265C6.33045 21.3365 5.35313 21.3365 4.63083 21.8265C3.93691 22.2971 3.13915 22.5317 2.3418 22.5317C1.92759 22.5317 1.5918 22.8675 1.5918 23.2817C1.5918 23.6959 1.92759 24.0317 2.3418 24.0317H23.3418C23.756 24.0317 24.0918 23.6959 24.0918 23.2817C24.0918 22.8675 23.756 22.5317 23.3418 22.5317C22.5445 22.5317 21.7467 22.2971 21.0528 21.8265Z" fill="#514AF3"/>
</g>
</g>
</g>
<defs>
<clipPath id="clip0_7_593">
<rect width="24" height="24" fill="white" transform="translate(0.841797 0.78125)"/>
</clipPath>
</defs>
</svg>
