<svg width="25" height="25" viewBox="0 0 25 25" fill="none" xmlns="http://www.w3.org/2000/svg">
<path fill-rule="evenodd" clip-rule="evenodd" d="M5.38389 5.82509L6.48091 7.00849C5.7266 7.82577 4.93243 9.00902 4.20848 10.2457C3.36949 11.6788 2.60724 13.2143 2.08974 14.4055C1.8478 14.9623 2.10728 15.6349 2.72107 15.7403C3.41493 15.8593 4.71556 15.9952 7.04497 15.9952C9.37435 15.9952 10.675 15.8593 11.3689 15.7403C11.9826 15.6349 12.2421 14.9623 12.0002 14.4055C11.4827 13.2143 10.7204 11.6788 9.8815 10.2457C9.15745 9.00895 8.3632 7.82555 7.60882 7.00826L8.7057 5.82509C8.88064 5.63631 8.88064 5.3303 8.7057 5.14153C8.5307 4.95282 8.24706 4.95282 8.07206 5.14153L7.04483 6.24974L6.01753 5.14153C5.84253 4.95282 5.55889 4.95282 5.38389 5.14153C5.20895 5.3303 5.20895 5.63631 5.38389 5.82509ZM6.96905 10.9522C7.01185 10.9099 7.07753 10.9099 7.12033 10.9522C7.52087 11.3478 7.95863 12.0091 8.35819 12.7161C8.75921 13.4257 9.12711 14.1911 9.38667 14.803C9.40212 14.8393 9.39989 14.8817 9.38062 14.9159C9.36141 14.9502 9.32766 14.9719 9.29057 14.9739C8.69937 15.0067 7.96148 15.0286 7.04469 15.0286C6.12797 15.0286 5.39001 15.0067 4.7988 14.9739C4.76175 14.9719 4.72803 14.9502 4.70879 14.9159C4.68955 14.8817 4.68726 14.8393 4.70272 14.803C4.96229 14.1911 5.33024 13.4257 5.73119 12.7161C6.13075 12.0091 6.56851 11.3478 6.96905 10.9522Z" fill="#E69F69"/>
<path fill-rule="evenodd" clip-rule="evenodd" d="M13.0668 6.12558L14.579 7.74002C13.5392 8.85492 12.4444 10.4693 11.4466 12.1563C10.2901 14.1114 9.23938 16.2062 8.52606 17.8311C8.19253 18.5908 8.5502 19.5085 9.3963 19.6522C10.3527 19.8146 12.1455 20 15.3565 20C18.5674 20 20.3602 19.8146 21.3166 19.6522C22.1626 19.5085 22.5203 18.5908 22.1869 17.8311C21.4735 16.2062 20.4228 14.1114 19.2663 12.1563C18.2683 10.4691 17.1736 8.8547 16.1337 7.73973L17.6456 6.12558C17.8867 5.86808 17.8867 5.45056 17.6456 5.19307C17.4044 4.93564 17.0134 4.93564 16.7723 5.19307L15.3562 6.70491L13.9402 5.19307C13.699 4.93564 13.3079 4.93564 13.0668 5.19307C12.8256 5.45056 12.8256 5.86808 13.0668 6.12558ZM15.2518 13.1202C15.3108 13.0625 15.4013 13.0625 15.4604 13.1202C16.0124 13.6598 16.6159 14.562 17.1667 15.5266C17.7193 16.4945 18.2265 17.5389 18.5843 18.3735C18.6056 18.4232 18.6025 18.4809 18.5759 18.5275C18.5494 18.5743 18.5029 18.6039 18.4518 18.6067C17.6369 18.6515 16.6197 18.6813 15.356 18.6813C14.0924 18.6813 13.0752 18.6515 12.2602 18.6067C12.2092 18.6039 12.1628 18.5743 12.1362 18.5275C12.1097 18.4809 12.1065 18.4232 12.1278 18.3735C12.4856 17.5389 12.9928 16.4945 13.5455 15.5266C14.0963 14.562 14.6997 13.6598 15.2518 13.1202Z" fill="#514AF3"/>
</svg>
