<svg width="25" height="24" viewBox="0 0 25 24" fill="none" xmlns="http://www.w3.org/2000/svg">
<path d="M14.5761 6.49121H12.786C12.6007 6.49121 12.4503 6.63768 12.4503 6.81824V8.88967C10.7922 8.89123 9.76801 8.90387 9.32217 8.91093C9.04717 8.91524 8.72325 9.08123 8.66925 9.43841C8.65561 9.52833 8.64648 9.63566 8.64648 9.76168V9.88249C9.30025 9.87781 10.6578 9.87066 12.786 9.87066C14.9142 9.87066 16.2718 9.87781 16.9255 9.88249V9.76168C16.9255 9.63566 16.9164 9.52833 16.9028 9.43841C16.8488 9.08123 16.5248 8.91524 16.2499 8.91093C15.804 8.90387 14.7799 8.89123 13.1217 8.88967V8.23543H14.5761C14.6875 8.23543 14.7916 8.18162 14.854 8.09171C14.9165 8.00189 14.9291 7.88768 14.8877 7.78695L14.7138 7.36332L14.8877 6.93968C14.9291 6.83895 14.9165 6.72475 14.854 6.63493C14.7916 6.54501 14.6875 6.49121 14.5761 6.49121Z" fill="#E69F69"/>
<path fill-rule="evenodd" clip-rule="evenodd" d="M7.70508 11.1762C7.70508 11.0047 7.75042 10.8716 7.80424 10.7764C7.90989 10.589 8.10548 10.5403 8.2324 10.5392C8.58623 10.536 10.0578 10.5244 12.7854 10.5244C15.513 10.5244 16.9846 10.536 17.3384 10.5392C17.4653 10.5403 17.6608 10.589 17.7666 10.7764C17.8204 10.8716 17.8657 11.0047 17.8657 11.1762C17.8657 11.3477 17.8204 11.4808 17.7666 11.576C17.6608 11.7634 17.4653 11.8121 17.3384 11.8133C17.301 11.8136 17.251 11.814 17.1884 11.8145V15.1003C17.251 15.1008 17.301 15.1013 17.3384 15.1015C17.4653 15.1027 17.6608 15.1514 17.7666 15.3388C17.8204 15.4341 17.8657 15.5671 17.8657 15.7386C17.8657 15.9101 17.8204 16.0432 17.7666 16.1384C17.6608 16.3258 17.4653 16.3745 17.3384 16.3756C16.9846 16.3789 15.513 16.3904 12.7854 16.3904C10.0578 16.3904 8.58623 16.3789 8.2324 16.3756C8.10548 16.3745 7.90989 16.3258 7.80424 16.1384C7.75042 16.0432 7.70508 15.9101 7.70508 15.7386C7.70508 15.5671 7.75042 15.4341 7.80424 15.3388C7.90989 15.1514 8.10548 15.1027 8.2324 15.1015C8.26984 15.1013 8.3198 15.1008 8.38245 15.1003V11.8145C8.3198 11.814 8.26984 11.8136 8.2324 11.8133C8.10548 11.8121 7.90989 11.7634 7.80424 11.576C7.75042 11.4808 7.70508 11.3477 7.70508 11.1762ZM10.7533 14.8696C10.9402 14.8696 11.092 14.724 11.092 14.5439V12.6967C11.092 12.3366 10.7886 12.0453 10.4146 12.0453C10.0405 12.0453 9.73721 12.3366 9.73721 12.6967V14.5439C9.73721 14.724 9.88896 14.8696 10.0759 14.8696H10.7533ZM13.1241 14.8696C13.311 14.8696 13.4628 14.724 13.4628 14.5439V12.6967C13.4628 12.3366 13.1595 12.0453 12.7854 12.0453C12.4113 12.0453 12.108 12.3366 12.108 12.6967V14.5439C12.108 14.724 12.2598 14.8696 12.4467 14.8696H13.1241ZM15.4949 14.8696C15.6819 14.8696 15.8336 14.724 15.8336 14.5439V12.6967C15.8336 12.3366 15.5303 12.0453 15.1562 12.0453C14.7822 12.0453 14.4788 12.3366 14.4788 12.6967V14.5439C14.4788 14.724 14.6306 14.8696 14.8175 14.8696H15.4949Z" fill="#514AF3"/>
<path d="M12.7843 21.7061C18.1881 21.7061 22.5687 17.4383 22.5687 12.1738C22.5687 6.90933 18.1881 2.6416 12.7843 2.6416C7.3806 2.6416 3 6.90933 3 12.1738C3 17.4383 7.3806 21.7061 12.7843 21.7061Z" stroke="#E69F69" stroke-width="0.5"/>
<path d="M20.2633 2C19.3052 2 18.5286 2.75369 18.5286 3.68345C18.5286 4.21514 18.7826 4.68901 19.1788 4.99743C18.5594 5.25352 18.0805 5.72481 17.8942 6.30738C17.7653 6.71066 18.0714 7.05868 18.4556 7.1156C18.8237 7.17014 19.4056 7.2244 20.2633 7.2244C21.121 7.2244 21.7029 7.17014 22.0711 7.1156C22.4551 7.05868 22.7613 6.71066 22.6324 6.30738C22.4462 5.72481 21.9671 5.25342 21.3478 4.99743C21.744 4.68901 21.9981 4.21514 21.9981 3.68345C21.9981 2.75369 21.2214 2 20.2633 2Z" fill="#514AF3"/>
<path d="M5.58948 2C4.63137 2 3.85473 2.75369 3.85473 3.68345C3.85473 4.21514 4.10875 4.68901 4.50502 4.99743C3.88559 5.25352 3.40663 5.72481 3.22035 6.30738C3.09146 6.71066 3.3976 7.05868 3.78173 7.1156C4.14986 7.17014 4.73175 7.2244 5.58948 7.2244C6.44721 7.2244 7.02909 7.17014 7.39723 7.1156C7.78126 7.05868 8.08749 6.71066 7.9586 6.30738C7.77233 5.72481 7.29327 5.25342 6.67394 4.99743C7.0702 4.68901 7.32422 4.21514 7.32422 3.68345C7.32422 2.75369 6.54759 2 5.58948 2Z" fill="#514AF3"/>
<path d="M5.58948 16.8486C4.63137 16.8486 3.85473 17.6023 3.85473 18.5321C3.85473 19.0638 4.10875 19.5376 4.50502 19.8461C3.88559 20.1021 3.40663 20.5734 3.22035 21.156C3.09146 21.5593 3.3976 21.9073 3.78173 21.9642C4.14986 22.0188 4.73175 22.073 5.58948 22.073C6.44721 22.073 7.02909 22.0188 7.39723 21.9642C7.78126 21.9073 8.08749 21.5593 7.9586 21.156C7.77233 20.5734 7.29327 20.1021 6.67394 19.8461C7.0702 19.5376 7.32422 19.0638 7.32422 18.5321C7.32422 17.6023 6.54759 16.8486 5.58948 16.8486Z" fill="#514AF3"/>
<path d="M20.2633 16.8486C19.3052 16.8486 18.5286 17.6023 18.5286 18.5321C18.5286 19.0638 18.7826 19.5376 19.1788 19.8461C18.5594 20.1021 18.0805 20.5734 17.8942 21.156C17.7653 21.5593 18.0714 21.9073 18.4556 21.9642C18.8237 22.0188 19.4056 22.073 20.2633 22.073C21.121 22.073 21.7029 22.0188 22.0711 21.9642C22.4551 21.9073 22.7613 21.5593 22.6324 21.156C22.4462 20.5734 21.9671 20.1021 21.3478 19.8461C21.744 19.5376 21.9981 19.0638 21.9981 18.5321C21.9981 17.6023 21.2214 16.8486 20.2633 16.8486Z" fill="#514AF3"/>
</svg>
