<svg width="25" height="24" viewBox="0 0 25 24" fill="none" xmlns="http://www.w3.org/2000/svg">
<path fill-rule="evenodd" clip-rule="evenodd" d="M8.23295 6.48298C9.12568 6.48298 9.84943 5.70899 9.84943 4.75423C9.84943 3.79938 9.12568 3.02539 8.23295 3.02539C7.34023 3.02539 6.61648 3.79938 6.61648 4.75423C6.61648 5.70899 7.34023 6.48298 8.23295 6.48298ZM5 10.5168C5 8.75368 6.23404 7.29866 7.82879 7.08604V10.2288C7.82879 10.4674 8.00975 10.661 8.23295 10.661C8.45616 10.661 8.63703 10.4674 8.63703 10.2288V7.08604C10.2319 7.29866 11.4659 8.75368 11.4659 10.5168V11.3813C11.4659 11.6995 11.2247 11.9575 10.9271 11.9575H10.1188L9.64235 13.0641C9.60666 13.3505 9.37837 13.5643 9.10826 13.5643H7.35764C7.08754 13.5643 6.85925 13.3505 6.82356 13.0641L6.34706 11.9575H5.53883C5.24122 11.9575 5 11.6995 5 11.3813V10.5168Z" fill="#E69F69"/>
<path d="M7.70057 3.34451V3.5286H7.87299H8.59295H8.76537V3.34451V1.44622C8.76537 1.32699 8.72839 1.21278 8.65028 1.1275C8.57191 1.04183 8.46536 1 8.35302 1H8.11301C8.00067 1 7.89412 1.04183 7.81575 1.1275C7.73764 1.21278 7.70057 1.32699 7.70057 1.44622V3.34451ZM7.68548 3.34405V1.68978V1.40024L7.43995 1.52308C6.79267 1.84689 6.34635 2.54522 6.32178 3.34286L6.31592 3.53302H6.49412H7.51306H7.68643L7.68548 3.34792V3.34451V3.34405ZM9.97191 3.53302H10.1501L10.1443 3.34286C10.1197 2.54522 9.67345 1.84689 9.02617 1.52308L8.78055 1.40024V1.68978V3.34396V3.34783L8.77951 3.53302H8.95297H9.97191ZM10.1728 4.77376C10.2907 4.77376 10.4019 4.72985 10.4836 4.64066C10.565 4.55184 10.6038 4.43246 10.6038 4.30719V4.02462C10.6038 3.89935 10.565 3.77997 10.4836 3.69115C10.4019 3.60196 10.2907 3.55805 10.1728 3.55805H6.29324C6.1753 3.55805 6.06409 3.60196 5.98245 3.69115C5.90106 3.77997 5.86218 3.89935 5.86218 4.02462V4.30719C5.86218 4.43246 5.90106 4.55184 5.98245 4.64066C6.06409 4.72985 6.1753 4.77376 6.29324 4.77376H10.1728Z" fill="#E69F69" stroke="white" stroke-width="0.2"/>
<path fill-rule="evenodd" clip-rule="evenodd" d="M16.7671 6.48298C17.6599 6.48298 18.3836 5.70899 18.3836 4.75423C18.3836 3.79938 17.6599 3.02539 16.7671 3.02539C15.8744 3.02539 15.1507 3.79938 15.1507 4.75423C15.1507 5.70899 15.8744 6.48298 16.7671 6.48298ZM13.5342 10.5168C13.5342 8.75368 14.7682 7.29866 16.363 7.08604V10.2288C16.363 10.4674 16.5439 10.661 16.7671 10.661C16.9903 10.661 17.1712 10.4674 17.1712 10.2288V7.08604C18.766 7.29866 20.0001 8.75368 20.0001 10.5168V11.3813C20.0001 11.6995 19.7589 11.9575 19.4613 11.9575H18.653L18.1765 13.0641C18.1408 13.3505 17.9125 13.5643 17.6424 13.5643H15.8918C15.6217 13.5643 15.3934 13.3505 15.3577 13.0641L14.8812 11.9575H14.073C13.7754 11.9575 13.5342 11.6995 13.5342 11.3813V10.5168Z" fill="#514AF3"/>
<path d="M16.2349 3.34451V3.5286H16.4073H17.1273H17.2997V3.34451V1.44622C17.2997 1.32699 17.2627 1.21278 17.1846 1.1275C17.1062 1.04183 16.9997 1 16.8873 1H16.6473C16.535 1 16.4284 1.04183 16.3501 1.1275C16.2719 1.21278 16.2349 1.32699 16.2349 1.44622V3.34451ZM16.2198 3.34405V1.68978V1.40024L15.9743 1.52308C15.327 1.84689 14.8807 2.54522 14.8561 3.34286L14.8502 3.53302H15.0284H16.0474H16.2207L16.2198 3.34792V3.34451V3.34405ZM18.5062 3.53302H18.6844L18.6786 3.34286C18.654 2.54522 18.2077 1.84689 17.5605 1.52308L17.3149 1.40024V1.68978V3.34396V3.34783L17.3138 3.53302H17.4873H18.5062ZM18.7071 4.77376C18.825 4.77376 18.9362 4.72985 19.0179 4.64066C19.0993 4.55184 19.1381 4.43246 19.1381 4.30719V4.02462C19.1381 3.89935 19.0993 3.77997 19.0179 3.69115C18.9362 3.60196 18.825 3.55805 18.7071 3.55805H14.8275C14.7096 3.55805 14.5984 3.60196 14.5168 3.69115C14.4354 3.77997 14.3965 3.89935 14.3965 4.02462V4.30719C14.3965 4.43246 14.4354 4.55184 14.5168 4.64066C14.5984 4.72985 14.7096 4.77376 14.8275 4.77376H18.7071Z" fill="#514AF3" stroke="white" stroke-width="0.2"/>
<path fill-rule="evenodd" clip-rule="evenodd" d="M8.23295 14.9967C9.12568 14.9967 9.84943 14.2227 9.84943 13.2679C9.84943 12.3131 9.12568 11.5391 8.23295 11.5391C7.34023 11.5391 6.61648 12.3131 6.61648 13.2679C6.61648 14.2227 7.34023 14.9967 8.23295 14.9967ZM5 19.0305C5 17.2673 6.23404 15.8123 7.82879 15.5997V18.7424C7.82879 18.9811 8.00975 19.1747 8.23295 19.1747C8.45616 19.1747 8.63703 18.9811 8.63703 18.7424V15.5997C10.2319 15.8123 11.4659 17.2673 11.4659 19.0305V19.895C11.4659 20.2132 11.2247 20.4712 10.9271 20.4712H10.1188L9.64235 21.5778C9.60666 21.8642 9.37837 22.078 9.10826 22.078H7.35764C7.08754 22.078 6.85925 21.8642 6.82356 21.5778L6.34706 20.4712H5.53883C5.24122 20.4712 5 20.2132 5 19.895V19.0305Z" fill="#E69F69"/>
<path d="M7.70057 11.8582V12.0423H7.87299H8.59295H8.76537V11.8582V9.9599C8.76537 9.8407 8.72839 9.72647 8.65028 9.64115C8.57191 9.55555 8.46536 9.51367 8.35302 9.51367H8.11301C8.00067 9.51367 7.89412 9.55555 7.81575 9.64115C7.73764 9.72647 7.70057 9.8407 7.70057 9.9599V11.8582ZM7.68548 11.8577V10.2034V9.91387L7.43995 10.0368C6.79267 10.3606 6.34635 11.0589 6.32178 11.8565L6.31592 12.0467H6.49412H7.51306H7.68643L7.68548 11.8616V11.8582V11.8577ZM9.97191 12.0467H10.1501L10.1443 11.8565C10.1197 11.0589 9.67345 10.3606 9.02617 10.0368L8.78055 9.91387V10.2034V11.8576V11.8615L8.77951 12.0467H8.95297H9.97191ZM10.1728 13.2874C10.2907 13.2874 10.4019 13.2435 10.4836 13.1543C10.565 13.0655 10.6038 12.9461 10.6038 12.8209V12.5383C10.6038 12.413 10.565 12.2936 10.4836 12.2048C10.4019 12.1156 10.2907 12.0717 10.1728 12.0717H6.29324C6.1753 12.0717 6.06409 12.1156 5.98245 12.2048C5.90106 12.2936 5.86218 12.413 5.86218 12.5383V12.8209C5.86218 12.9461 5.90106 13.0655 5.98245 13.1543C6.06409 13.2435 6.1753 13.2874 6.29324 13.2874H10.1728Z" fill="#514AF3" stroke="white" stroke-width="0.2"/>
<path fill-rule="evenodd" clip-rule="evenodd" d="M16.7671 14.9967C17.6599 14.9967 18.3836 14.2227 18.3836 13.2679C18.3836 12.3131 17.6599 11.5391 16.7671 11.5391C15.8744 11.5391 15.1507 12.3131 15.1507 13.2679C15.1507 14.2227 15.8744 14.9967 16.7671 14.9967ZM13.5342 19.0305C13.5342 17.2673 14.7682 15.8123 16.363 15.5997V18.7424C16.363 18.9811 16.5439 19.1747 16.7671 19.1747C16.9903 19.1747 17.1712 18.9811 17.1712 18.7424V15.5997C18.766 15.8123 20.0001 17.2673 20.0001 19.0305V19.895C20.0001 20.2132 19.7589 20.4712 19.4613 20.4712H18.653L18.1765 21.5778C18.1408 21.8642 17.9125 22.078 17.6424 22.078H15.8918C15.6217 22.078 15.3934 21.8642 15.3577 21.5778L14.8812 20.4712H14.073C13.7754 20.4712 13.5342 20.2132 13.5342 19.895V19.0305Z" fill="#514AF3"/>
<path d="M16.2349 11.8582V12.0423H16.4073H17.1273H17.2997V11.8582V9.9599C17.2997 9.8407 17.2627 9.72647 17.1846 9.64115C17.1062 9.55555 16.9997 9.51367 16.8873 9.51367H16.6473C16.535 9.51367 16.4284 9.55555 16.3501 9.64115C16.2719 9.72647 16.2349 9.8407 16.2349 9.9599V11.8582ZM16.2198 11.8577V10.2034V9.91387L15.9743 10.0368C15.327 10.3606 14.8807 11.0589 14.8561 11.8565L14.8502 12.0467H15.0284H16.0474H16.2207L16.2198 11.8616V11.8582V11.8577ZM18.5062 12.0467H18.6844L18.6786 11.8565C18.654 11.0589 18.2077 10.3606 17.5605 10.0368L17.3149 9.91387V10.2034V11.8576V11.8615L17.3138 12.0467H17.4873H18.5062ZM18.7071 13.2874C18.825 13.2874 18.9362 13.2435 19.0179 13.1543C19.0993 13.0655 19.1381 12.9461 19.1381 12.8209V12.5383C19.1381 12.413 19.0993 12.2936 19.0179 12.2048C18.9362 12.1156 18.825 12.0717 18.7071 12.0717H14.8275C14.7096 12.0717 14.5984 12.1156 14.5168 12.2048C14.4354 12.2936 14.3965 12.413 14.3965 12.5383V12.8209C14.3965 12.9461 14.4354 13.0655 14.5168 13.1543C14.5984 13.2435 14.7096 13.2874 14.8275 13.2874H18.7071Z" fill="#E69F69" stroke="white" stroke-width="0.2"/>
</svg>
