<svg width="25" height="25" viewBox="0 0 25 25" fill="none" xmlns="http://www.w3.org/2000/svg">
<g clip-path="url(#clip0_7_605)">
<mask id="mask0_7_605" style="mask-type:luminance" maskUnits="userSpaceOnUse" x="0" y="0" width="25" height="25">
<path d="M24.8418 0.78125H0.841797V24.7812H24.8418V0.78125Z" fill="white"/>
</mask>
<g mask="url(#mask0_7_605)">
<mask id="mask1_7_605" style="mask-type:luminance" maskUnits="userSpaceOnUse" x="0" y="0" width="25" height="25">
<path d="M24.8418 0.78125H0.841797V24.7812H24.8418V0.78125Z" fill="white"/>
</mask>
<g mask="url(#mask1_7_605)">
<path fill-rule="evenodd" clip-rule="evenodd" d="M17.8488 9.88499C17.2074 9.60084 16.4762 9.60084 15.8348 9.88499C13.1882 11.0573 11.2501 12.8109 10.4067 13.6584C9.96715 14.1002 9.7326 14.6797 9.6982 15.2717C9.654 16.0317 9.5918 17.3724 9.5918 18.8991C9.5918 20.5889 9.668 22.051 9.71165 22.7504C9.7509 23.3787 10.2532 23.8766 10.8834 23.908C11.7253 23.95 13.752 24.0312 16.8418 24.0312C19.9316 24.0312 21.9583 23.95 22.8001 23.908C23.4303 23.8766 23.9327 23.3787 23.9719 22.7504C24.0156 22.051 24.0918 20.5889 24.0918 18.8991C24.0918 17.3724 24.0296 16.0317 23.9854 15.2717C23.951 14.6797 23.7164 14.1002 23.2768 13.6584C22.4334 12.8109 20.4954 11.0573 17.8488 9.88499Z" fill="#514AF3"/>
<path fill-rule="evenodd" clip-rule="evenodd" d="M8.86195 24.0312C8.6341 23.6817 8.4917 23.271 8.4641 22.8284C8.41945 22.1134 8.3418 20.6237 8.3418 18.8993C8.3418 17.3408 8.40525 15.9746 8.4503 15.1993C8.50095 14.328 8.8483 13.4525 9.5207 12.7768C10.4185 11.8746 12.4832 10.0025 15.3285 8.7421C16.2923 8.31515 17.3913 8.31515 18.3551 8.7421C18.5929 8.8474 18.8252 8.957 19.0519 9.06995C19.0001 6.84895 18.9061 5.33088 18.8178 4.32997C18.6991 2.98375 17.7366 1.91461 16.3458 1.76784C15.1856 1.64541 13.3097 1.53125 10.3418 1.53125C7.3739 1.53125 5.498 1.64541 4.3378 1.76784C2.94695 1.91461 1.98449 2.98375 1.86576 4.32997C1.73504 5.81205 1.5918 8.42815 1.5918 12.7812C1.5918 17.5798 1.67899 20.4391 1.74783 21.9489C1.80207 23.1387 2.78423 24.0312 3.94787 24.0312H8.86195Z" fill="#514AF3"/>
<path fill-rule="evenodd" clip-rule="evenodd" d="M5.0918 6.28125C5.0918 5.86705 5.42759 5.53125 5.8418 5.53125H14.8418C15.256 5.53125 15.5918 5.86705 15.5918 6.28125C15.5918 6.69545 15.256 7.03125 14.8418 7.03125H5.8418C5.42759 7.03125 5.0918 6.69545 5.0918 6.28125ZM5.8418 9.03125C5.42759 9.03125 5.0918 9.36705 5.0918 9.78125C5.0918 10.1955 5.42759 10.5312 5.8418 10.5312H9.8418C10.256 10.5312 10.5918 10.1955 10.5918 9.78125C10.5918 9.36705 10.256 9.03125 9.8418 9.03125H5.8418ZM5.0918 13.2812C5.0918 12.867 5.42759 12.5312 5.8418 12.5312H6.8418C7.256 12.5312 7.5918 12.867 7.5918 13.2812C7.5918 13.6955 7.256 14.0312 6.8418 14.0312H5.8418C5.42759 14.0312 5.0918 13.6955 5.0918 13.2812Z" fill="#E69F69"/>
<path d="M19.2676 24.0135C19.3014 23.5808 19.3418 22.7549 19.3418 21.2812C19.3418 20.1719 19.3188 19.4297 19.2931 18.9459C19.2653 18.4223 18.9602 17.986 18.4436 17.8962C18.0786 17.8327 17.5608 17.7812 16.8418 17.7812C16.1228 17.7812 15.605 17.8327 15.24 17.8962C14.7235 17.986 14.4183 18.4223 14.3904 18.9459C14.3647 19.4297 14.3418 20.1719 14.3418 21.2812C14.3418 22.7549 14.3822 23.5808 14.416 24.0135C15.1324 24.0243 15.9421 24.0312 16.8418 24.0312C17.7415 24.0312 18.5512 24.0243 19.2676 24.0135Z" fill="#E69F69"/>
</g>
</g>
</g>
<defs>
<clipPath id="clip0_7_605">
<rect width="24" height="24" fill="white" transform="translate(0.841797 0.78125)"/>
</clipPath>
</defs>
</svg>
