<svg width="25" height="25" viewBox="0 0 25 25" fill="none" xmlns="http://www.w3.org/2000/svg">
<path d="M5.09209 6.9533C5.26985 7.39731 5.53457 7.79563 5.86832 8.12156C6.20206 8.44739 6.5972 8.69338 7.02731 8.84294C7.45733 8.99249 7.91237 9.04215 8.36192 8.98862C8.81138 8.93509 9.24503 8.77958 9.63365 8.5325C10.3046 8.08601 10.7988 7.39214 11.0225 6.58258C11.2655 5.77451 11.0225 5.93758 11.3767 5.93758C11.7695 5.9197 12.1551 5.81801 12.5105 5.63846C12.8659 5.45891 13.184 5.20518 13.4461 4.89226C13.683 5.14192 13.9735 5.32594 14.2922 5.42822C14.6111 5.53061 14.9485 5.54819 15.2751 5.47947C15.6016 5.41075 15.9076 5.25781 16.1661 5.03407C16.4247 4.81023 16.6281 4.52224 16.7586 4.19531H1.50879C1.52432 4.69215 1.66059 5.17608 1.90402 5.59973C2.14745 6.02348 2.48984 6.37235 2.89763 6.61228C3.21928 6.83343 3.58158 6.97833 3.96016 7.03712C4.33874 7.09601 4.72476 7.06741 5.09209 6.9533Z" fill="#E69F69"/>
<path d="M5.46887 14.2156C5.46906 14.3973 5.5192 14.5749 5.61314 14.7264C5.70709 14.8779 5.84066 14.9965 5.99721 15.0676C6.15385 15.1387 6.32658 15.1592 6.49392 15.1263C6.66126 15.0934 6.81595 15.0088 6.93864 14.8829C7.06123 14.757 7.14653 14.5953 7.18383 14.4181C7.22122 14.2408 7.20885 14.0557 7.14848 13.8859C7.08802 13.716 6.98226 13.5689 6.84413 13.4627C6.706 13.3565 6.54173 13.2961 6.3717 13.2888C6.25478 13.2839 6.13813 13.3041 6.02884 13.3484C5.91945 13.3928 5.81964 13.4602 5.73527 13.5468C5.651 13.6333 5.58394 13.7372 5.53817 13.8522C5.49241 13.9671 5.46878 14.0907 5.46887 14.2156Z" fill="#E69F69"/>
<path d="M6.64648 16.7083C6.64658 16.8538 6.68676 16.9962 6.7621 17.1177C6.83736 17.2391 6.94442 17.3342 7.0699 17.3912C7.19547 17.4482 7.33388 17.4645 7.46801 17.4382C7.60214 17.4119 7.72604 17.344 7.82436 17.243C7.92268 17.1421 7.99105 17.0126 8.021 16.8705C8.05086 16.7284 8.041 16.5801 7.99263 16.444C7.94417 16.3078 7.85934 16.19 7.74865 16.1049C7.63795 16.0197 7.50633 15.9713 7.37006 15.9654C7.2763 15.9615 7.18292 15.9777 7.0952 16.0133C7.00758 16.0487 6.92758 16.1029 6.85996 16.1723C6.79243 16.2416 6.73866 16.3248 6.70192 16.417C6.66527 16.509 6.64639 16.6082 6.64648 16.7083Z" fill="#E69F69"/>
<path d="M6.9679 11.9088C6.9679 12.0783 7.01812 12.2441 7.11216 12.385C7.2063 12.5259 7.33996 12.6357 7.49651 12.7006C7.65297 12.7655 7.82514 12.7824 7.99118 12.7493C8.15731 12.7163 8.30985 12.6347 8.42966 12.5149C8.54937 12.395 8.63095 12.2423 8.66397 12.076C8.69699 11.9098 8.68006 11.7374 8.61523 11.5809C8.5504 11.4243 8.44064 11.2904 8.2999 11.1962C8.15907 11.102 7.9935 11.0518 7.82412 11.0518C7.59706 11.0518 7.37922 11.142 7.21867 11.3028C7.05812 11.4635 6.9679 11.6815 6.9679 11.9088Z" fill="#E69F69"/>
<path d="M6.64576 10.2521C6.64576 10.0035 6.57665 9.76047 6.44735 9.55371C6.31796 9.34705 6.13407 9.18597 5.91892 9.09084C5.70377 8.9957 5.46704 8.97077 5.23869 9.01923C5.01033 9.0678 4.80048 9.18746 4.63584 9.36324C4.4712 9.53911 4.35902 9.76305 4.31363 10.0069C4.26824 10.2508 4.29149 10.5035 4.3806 10.7331C4.46971 10.9628 4.62068 11.1591 4.81425 11.2973C5.00791 11.4354 5.23552 11.5091 5.46834 11.5091C5.7806 11.5091 6.08012 11.3767 6.30085 11.141C6.52167 10.9052 6.64576 10.5855 6.64576 10.2521Z" fill="#E69F69"/>
<path d="M10.4463 8.46544H13.0762C13.182 8.46593 13.2861 8.43505 13.3775 8.37606C13.469 8.31707 13.5445 8.23206 13.5963 8.12997C13.648 8.02779 13.6742 7.91219 13.672 7.79521C13.6698 7.67812 13.6393 7.56382 13.5838 7.46421C12.1559 4.897 12.2598 5.07426 12.2094 5.0119C12.1479 4.93523 12.071 4.87554 11.9849 4.83761C11.8988 4.79967 11.8059 4.78458 11.7136 4.79352C11.6213 4.80245 11.5321 4.83523 11.4533 4.88905C11.3744 4.94298 11.3081 5.01646 11.2595 5.10376C9.84661 7.64475 9.92679 7.48715 9.89712 7.57574C9.86317 7.67465 9.85126 7.7812 9.86252 7.88617C9.87386 7.99124 9.90782 8.09174 9.96177 8.17903C10.0157 8.26642 10.0879 8.33812 10.1723 8.38798C10.2566 8.43783 10.3506 8.46434 10.4463 8.46544ZM11.7582 7.97297C11.7065 7.97297 11.6558 7.95599 11.6128 7.92411C11.5698 7.89223 11.5364 7.84685 11.5166 7.79392C11.4969 7.74089 11.492 7.68269 11.5023 7.62658C11.5126 7.57037 11.5378 7.51893 11.5746 7.47871C11.6114 7.43839 11.6582 7.41118 11.7091 7.40036C11.76 7.38963 11.8126 7.39579 11.8602 7.41813C11.908 7.44058 11.9485 7.47811 11.9769 7.52598C12.0053 7.57395 12.02 7.63016 12.0194 7.68736C12.0195 7.72519 12.0127 7.76263 11.9995 7.79749C11.9864 7.83235 11.967 7.86393 11.9428 7.89054C11.9185 7.91706 11.8896 7.93801 11.858 7.95221C11.8263 7.96641 11.7924 7.97346 11.7582 7.97297ZM11.9067 5.95403V6.87978C11.9067 6.92338 11.891 6.96509 11.8632 6.99587C11.8353 7.02666 11.7976 7.04394 11.7582 7.04394C11.7191 7.04315 11.6818 7.02557 11.6541 6.99498C11.6265 6.96439 11.6106 6.92308 11.6098 6.87978V5.95403C11.6098 5.91054 11.6255 5.86873 11.6533 5.83804C11.6811 5.80725 11.7189 5.78988 11.7582 5.78988C11.7976 5.78988 11.8353 5.80725 11.8632 5.83804C11.891 5.86873 11.9067 5.91054 11.9067 5.95403Z" fill="#514AF3"/>
<path d="M9.76635 17.4033H8.55713C8.45438 17.4033 8.37109 17.4922 8.37109 17.6019V18.1978C8.37109 18.3075 8.45438 18.3964 8.55713 18.3964H9.76635C9.8691 18.3964 9.95239 18.3075 9.95239 18.1978V17.6019C9.95239 17.4922 9.8691 17.4033 9.76635 17.4033Z" fill="#514AF3"/>
<path d="M19.9821 15.6901C19.7995 15.6901 19.5317 15.4238 19.4221 15.1185L18.9655 13.9106C18.7761 13.4478 18.4577 13.0586 18.0534 12.7959C17.6492 12.5332 17.1789 12.4099 16.7066 12.4427H14.0703C13.7195 12.4426 13.3793 12.5719 13.1075 12.8086C12.8357 13.0453 12.6488 13.3749 12.5787 13.7416L12.3595 14.8977C12.3188 15.1196 12.2075 15.3196 12.0444 15.464C11.8813 15.6084 11.6764 15.6883 11.4646 15.6901H10.6365C10.2328 15.6901 9.84568 15.8612 9.56021 16.1656C9.27474 16.4701 9.11438 16.8831 9.11438 17.3137V18.6127C9.11531 18.7933 9.16303 18.9702 9.25214 19.1237C9.34134 19.2774 9.4685 19.4017 9.61974 19.483C9.66234 19.5054 9.70923 19.517 9.75676 19.517C9.8042 19.517 9.85108 19.5054 9.89368 19.483C9.93582 19.4597 9.97237 19.4265 10.0008 19.386C10.0293 19.3456 10.0488 19.2988 10.0581 19.2492C10.1348 18.7944 10.3604 18.3836 10.6948 18.0899C11.0291 17.7963 11.4505 17.6389 11.8835 17.6459C12.3166 17.653 12.7332 17.8239 13.0591 18.1283C13.3849 18.4327 13.5987 18.8506 13.6625 19.3077C13.6731 19.3892 13.7122 19.4633 13.7721 19.5151C13.832 19.567 13.9081 19.5927 13.9851 19.5869H17.6381C17.7109 19.5861 17.7811 19.5575 17.8359 19.5063C17.8906 19.455 17.9263 19.3845 17.9365 19.3077C17.996 18.8465 18.2085 18.4232 18.5353 18.1147C18.8622 17.8061 19.2818 17.6325 19.7182 17.6255C20.1546 17.6184 20.5789 17.7783 20.9144 18.0761C21.2498 18.374 21.4742 18.7902 21.5469 19.2492C21.5537 19.2989 21.5716 19.3461 21.5991 19.3868C21.6268 19.4275 21.6631 19.4605 21.7052 19.483C21.7478 19.5054 21.7947 19.517 21.8422 19.517C21.8896 19.517 21.9365 19.5054 21.9792 19.483C22.1349 19.4053 22.2671 19.2825 22.3608 19.1287C22.4543 18.9749 22.5057 18.7961 22.5089 18.6127V18.3789C22.5073 17.6652 22.2403 16.9813 21.7667 16.4772C21.293 15.9732 20.6512 15.6901 19.9821 15.6901ZM18.247 15.6187C18.2329 15.6409 18.2138 15.6591 18.1915 15.6716C18.1691 15.684 18.1443 15.6904 18.1191 15.6901H16.7249C16.4826 15.6901 16.2504 15.5875 16.0791 15.4047C15.9078 15.222 15.8116 14.9742 15.8116 14.7158V14.0664C15.8116 13.9803 15.8437 13.8976 15.9008 13.8368C15.9578 13.7759 16.0353 13.7416 16.1161 13.7416H16.7249C16.9529 13.7165 17.1828 13.765 17.3846 13.8808C17.5866 13.9966 17.7512 14.1743 17.8573 14.3911L18.247 15.4693C18.2587 15.4921 18.2649 15.5179 18.2649 15.544C18.2649 15.57 18.2587 15.5957 18.247 15.6187Z" fill="#514AF3"/>
<path d="M11.9065 20.8792C12.5744 20.8792 13.1157 20.3235 13.1157 19.6378C13.1157 18.9522 12.5744 18.3965 11.9065 18.3965C11.2386 18.3965 10.6973 18.9522 10.6973 19.6378C10.6973 20.3235 11.2386 20.8792 11.9065 20.8792Z" fill="#514AF3"/>
<path d="M19.718 20.8792C20.3859 20.8792 20.9272 20.3235 20.9272 19.6378C20.9272 18.9522 20.3859 18.3965 19.718 18.3965C19.0501 18.3965 18.5088 18.9522 18.5088 19.6378C18.5088 20.3235 19.0501 20.8792 19.718 20.8792Z" fill="#514AF3"/>
</svg>
