<svg width="25" height="24" viewBox="0 0 25 24" fill="none" xmlns="http://www.w3.org/2000/svg">
<path d="M6.84783 4.99133C6.34732 5.06935 5.8733 5.31822 5.47311 5.70893C5.42156 5.20653 5.60412 4.73304 5.96899 4.50914C6.16711 4.38758 6.23506 4.11833 6.12061 3.90771C6.00624 3.69709 5.75288 3.625 5.55468 3.74656C4.70796 4.26611 4.49589 5.31157 4.7263 6.20549C3.44719 6.49476 2.41699 7.70129 2.41699 9.22123C2.41699 9.46444 2.60245 9.6616 2.83128 9.6616C3.06012 9.6616 3.24554 9.46444 3.24554 9.22123C3.24554 8.30639 3.77371 7.54454 4.49118 7.20688C4.2051 8.08177 4.34898 9.09743 4.97436 9.81413C5.12993 9.99252 5.39213 10.003 5.55989 9.83765C5.72765 9.67237 5.73749 9.39379 5.58192 9.2154C5.0915 8.65339 5.05097 7.76665 5.44788 7.11522C5.79232 7.27601 6.14256 7.64356 6.44596 8.24831C6.74608 8.84623 6.97001 9.62479 7.07109 10.5089C7.48683 10.4341 7.91696 10.3953 8.35515 10.3953C8.94648 10.3953 9.52301 10.466 10.0693 10.6004C9.70364 8.44331 8.13921 6.7289 6.13532 6.26412C6.39786 6.03914 6.68528 5.90671 6.96808 5.86263C7.42923 5.79072 7.91973 5.94604 8.33514 6.39753C8.49508 6.57143 8.75736 6.57448 8.921 6.40453C9.08456 6.23449 9.0875 5.95573 8.92756 5.78192C8.33657 5.13947 7.5848 4.87651 6.84783 4.99133Z" fill="#514AF3"/>
<path d="M12.1399 11.9636C11.2163 11.2795 9.9621 10.8701 8.59604 10.8701C7.22999 10.8701 5.97577 11.2795 5.0522 11.9636C4.14158 12.638 3.52427 13.606 3.50854 14.7222C3.54521 14.7008 3.58128 14.6775 3.6166 14.6524C4.29353 14.1705 5.1981 14.1705 5.87503 14.6524C6.11772 14.8251 6.39463 14.9101 6.67095 14.9101C6.94719 14.9101 7.22419 14.8251 7.46687 14.6524C8.14372 14.1705 9.04837 14.1705 9.72522 14.6524C9.9679 14.8251 10.2449 14.9101 10.5211 14.9101C10.7975 14.9101 11.0744 14.8251 11.3171 14.6524C11.994 14.1705 12.8986 14.1705 13.5755 14.6524C13.6108 14.6775 13.6469 14.7008 13.6835 14.7222C13.6678 13.606 13.0505 12.638 12.1399 11.9636Z" fill="#E69F69"/>
<path fill-rule="evenodd" clip-rule="evenodd" d="M13.1087 15.3976C12.7119 15.107 12.175 15.107 11.7782 15.3976C11.3969 15.6769 10.9586 15.816 10.5206 15.816C10.0825 15.816 9.64418 15.6769 9.263 15.3976C8.86618 15.107 8.32917 15.107 7.93235 15.3976C7.55116 15.6769 7.11288 15.816 6.67477 15.816C6.23674 15.816 5.79845 15.6769 5.41719 15.3976C5.02036 15.107 4.48344 15.107 4.08662 15.3976C3.70535 15.6769 3.26707 15.816 2.82904 15.816C2.60147 15.816 2.41699 16.0152 2.41699 16.261C2.41699 16.5067 2.60147 16.7059 2.82904 16.7059H14.3663C14.5939 16.7059 14.7784 16.5067 14.7784 16.261C14.7784 16.0152 14.5939 15.816 14.3663 15.816C13.9283 15.816 13.49 15.6769 13.1087 15.3976Z" fill="#E69F69"/>
<path d="M16.4192 9.47209C15.7234 9.71951 15.1354 10.2282 14.7647 10.9037C14.7493 10.9318 14.7404 10.9634 14.7385 10.9959C14.7367 11.0283 14.742 11.0608 14.7542 11.0907C14.7648 11.1193 14.781 11.1451 14.8017 11.1665C14.8224 11.1878 14.8472 11.2043 14.8742 11.2146L15.621 11.4468C15.6673 11.4613 15.717 11.4561 15.7597 11.4323C15.8024 11.4085 15.8349 11.3679 15.8504 11.3192C16.0463 10.7744 16.3092 10.26 16.6324 9.78927C16.6561 9.75264 16.6691 9.70937 16.6697 9.66493C16.6703 9.6204 16.6585 9.57677 16.6358 9.53951C16.61 9.50656 16.5756 9.48259 16.5371 9.47056C16.4985 9.45853 16.4574 9.45907 16.4192 9.47209Z" fill="#514AF3"/>
<path d="M19.6908 10.4896C19.6647 10.4548 19.6292 10.4293 19.5891 10.4168C19.549 10.4043 19.5063 10.4055 19.4668 10.4199C19.4289 10.4384 19.3969 10.4684 19.375 10.5063C19.3532 10.5442 19.3423 10.5882 19.3439 10.6326C19.3797 11.2149 19.3428 11.7997 19.2339 12.3716C19.2224 12.4215 19.2294 12.4743 19.2535 12.5189C19.2776 12.5635 19.3169 12.5963 19.3632 12.6107L20.11 12.843C20.138 12.8499 20.1672 12.8502 20.1953 12.844C20.2236 12.8379 20.2503 12.8255 20.2736 12.8074C20.2989 12.7891 20.3197 12.7648 20.3345 12.7363C20.3493 12.7079 20.3576 12.6762 20.3588 12.6436C20.3874 11.863 20.1501 11.0978 19.6908 10.4896Z" fill="#514AF3"/>
<path d="M17.7841 13.2007L16.664 12.8522C16.6106 12.8361 16.5532 12.8432 16.5047 12.8719C16.4812 12.886 16.4611 12.9058 16.4462 12.9297C16.4312 12.9536 16.4218 12.9809 16.4185 13.0094C16.2771 13.7164 16.2966 14.4492 16.4754 15.1463C16.4863 15.1783 16.504 15.2071 16.5272 15.2304C16.5504 15.2536 16.5785 15.2707 16.609 15.2802C16.6397 15.2897 16.6719 15.2914 16.7031 15.2851C16.7344 15.2788 16.7639 15.2647 16.7891 15.2439C17.2907 14.7584 17.6758 14.1514 17.9121 13.474C17.9238 13.4481 17.9295 13.4196 17.9289 13.3909C17.9283 13.3621 17.9214 13.3339 17.9087 13.3086C17.8822 13.2565 17.8374 13.2176 17.7841 13.2007Z" fill="#514AF3"/>
<path d="M18.1224 9.73267C18.0915 9.72343 18.059 9.72208 18.0276 9.7289C17.9961 9.73564 17.9667 9.75027 17.9417 9.77164C17.44 10.2572 17.0549 10.8641 16.8186 11.5415C16.807 11.5674 16.8012 11.5959 16.8018 11.6247C16.8024 11.6534 16.8094 11.6816 16.8221 11.7069C16.8472 11.761 16.8911 11.8026 16.9444 11.8228L18.0646 12.1712C18.0918 12.1794 18.1203 12.1812 18.1482 12.1764C18.1761 12.1717 18.2027 12.1605 18.226 12.1436C18.2496 12.1295 18.2696 12.1097 18.2846 12.0858C18.2995 12.062 18.309 12.0346 18.3122 12.006C18.4536 11.2991 18.4341 10.5664 18.2553 9.86914C18.2449 9.83682 18.2274 9.80755 18.2043 9.78385C18.1811 9.76006 18.1531 9.74255 18.1224 9.73267Z" fill="#514AF3"/>
<path d="M21.9803 7.4733L16.006 5.61507C15.5108 5.4611 14.9786 5.5234 14.5265 5.78825C14.0744 6.05318 13.7393 6.49902 13.5951 7.02764L11.2019 15.798C11.1305 16.0597 11.108 16.334 11.1359 16.605C11.1637 16.8759 11.2412 17.1385 11.3641 17.3774C11.4869 17.6165 11.6527 17.8273 11.8519 17.998C12.0511 18.1686 12.2797 18.2957 12.5249 18.3719L18.4993 20.2301C18.7445 20.3064 19.0013 20.3303 19.2552 20.3006C19.509 20.2709 19.7549 20.1881 19.9788 20.057C20.2026 19.9258 20.4001 19.7488 20.5599 19.5362C20.7198 19.3235 20.8388 19.0794 20.9102 18.8176L23.3034 10.0472C23.3749 9.78553 23.3972 9.51126 23.3694 9.24031C23.3416 8.96927 23.264 8.70676 23.1412 8.46777C23.0183 8.22869 22.8526 8.01789 22.6534 7.84722C22.4542 7.67664 22.2255 7.54961 21.9803 7.4733ZM16.2453 16.6142C15.4869 16.3799 14.8105 15.9107 14.3019 15.266C13.7933 14.6213 13.4753 13.83 13.3881 12.9922C13.3009 12.1544 13.4484 11.3078 13.812 10.5596C14.1757 9.81139 14.739 9.19515 15.4308 8.78891C16.1226 8.38266 16.9117 8.20463 17.6983 8.27735C18.4849 8.35007 19.2336 8.67031 19.8497 9.19749C20.4657 9.72475 20.9214 10.4353 21.1591 11.239C21.3969 12.0429 21.4059 12.9039 21.185 13.7132C20.8894 14.7966 20.2032 15.7105 19.2771 16.2544C18.351 16.7983 17.2607 16.9277 16.2453 16.6142Z" fill="#514AF3"/>
<path d="M19.8373 13.8391L19.0905 13.6069C19.0682 13.5988 19.0447 13.5955 19.0212 13.5971C18.9978 13.5987 18.9748 13.6052 18.9537 13.6164C18.9326 13.6275 18.9138 13.643 18.8983 13.6618C18.8828 13.6808 18.871 13.7027 18.8634 13.7265C18.6679 14.2568 18.4087 14.7576 18.0922 15.2166C18.0686 15.2531 18.0555 15.2965 18.055 15.3409C18.0544 15.3855 18.0661 15.4291 18.0889 15.4663C18.1149 15.5013 18.1504 15.5267 18.1905 15.5392C18.2307 15.5516 18.2734 15.5506 18.3129 15.5361C19.0087 15.2887 19.5967 14.78 19.9674 14.1045C19.9821 14.0774 19.991 14.0471 19.9932 14.0159C19.9954 13.9847 19.991 13.9533 19.9802 13.9241C19.9694 13.8951 19.9526 13.8688 19.9311 13.8476C19.9095 13.8264 19.8838 13.8107 19.8557 13.8016L19.8373 13.8391Z" fill="#514AF3"/>
<path d="M15.4892 12.6762C15.4949 12.6518 15.4959 12.6265 15.4924 12.6017C15.4887 12.5768 15.4807 12.553 15.4685 12.5316C15.4563 12.5101 15.4402 12.4913 15.4212 12.4765C15.4022 12.4617 15.3807 12.451 15.3579 12.445L14.6111 12.2128C14.5828 12.2043 14.5531 12.2028 14.5243 12.2084C14.4954 12.2139 14.4681 12.2264 14.4443 12.2448C14.4206 12.2632 14.4011 12.2871 14.3872 12.3147C14.3734 12.3423 14.3656 12.3729 14.3644 12.4042C14.3374 13.1866 14.5774 13.9528 15.0399 14.5605C15.0659 14.5954 15.1014 14.6208 15.1415 14.6333C15.1816 14.6458 15.2244 14.6447 15.2639 14.6301C15.3018 14.6117 15.3338 14.5817 15.3556 14.5438C15.3775 14.506 15.3883 14.462 15.3867 14.4175C15.3483 13.8348 15.3828 13.2493 15.4892 12.6762Z" fill="#514AF3"/>
</svg>
