<svg width="25" height="25" viewBox="0 0 25 25" fill="none" xmlns="http://www.w3.org/2000/svg">
<g clip-path="url(#clip0_7_618)">
<mask id="mask0_7_618" style="mask-type:luminance" maskUnits="userSpaceOnUse" x="0" y="0" width="25" height="25">
<path d="M24.8418 0.78125H0.841797V24.7812H24.8418V0.78125Z" fill="white"/>
</mask>
<g mask="url(#mask0_7_618)">
<mask id="mask1_7_618" style="mask-type:luminance" maskUnits="userSpaceOnUse" x="0" y="0" width="25" height="25">
<path d="M24.8418 0.78125H0.841797V24.7812H24.8418V0.78125Z" fill="white"/>
</mask>
<g mask="url(#mask1_7_618)">
<path fill-rule="evenodd" clip-rule="evenodd" d="M3.41323 12.7812C3.41323 9.58934 4.30697 7.27721 5.82237 5.76182C7.33776 4.24642 9.64989 3.35268 12.8418 3.35268C16.0337 3.35268 18.3459 4.24642 19.8613 5.76182C21.3765 7.27721 22.2704 9.58934 22.2704 12.7812C22.2704 13.4826 22.227 14.1427 22.1432 14.7613C22.0479 15.465 22.5409 16.1127 23.2446 16.208C23.9483 16.3034 24.596 15.8103 24.6913 15.1067C24.7919 14.3643 24.8418 13.5883 24.8418 12.7812C24.8418 9.11602 23.8071 6.071 21.6795 3.94354C19.552 1.81608 16.507 0.78125 12.8418 0.78125C9.17657 0.78125 6.13155 1.81608 4.00409 3.94354C1.87663 6.071 0.841797 9.11602 0.841797 12.7812C0.841797 13.5883 0.891724 14.3643 0.992301 15.1067C1.08763 15.8103 1.73533 16.3034 2.43899 16.208C3.14265 16.1127 3.63578 15.465 3.54045 14.7613C3.45663 14.1427 3.41323 13.4826 3.41323 12.7812ZM4.71118 18.3557C4.35231 17.743 3.56469 17.5372 2.95197 17.896C2.33924 18.2549 2.13344 19.0425 2.49231 19.6553C3.34399 21.1094 4.51356 22.2791 5.96774 23.1308C6.58046 23.4896 7.36809 23.2839 7.72695 22.6712C8.08582 22.0583 7.88002 21.2707 7.2673 20.9119C6.19325 20.2827 5.34024 19.4297 4.71118 18.3557ZM23.1913 19.6553C23.5501 19.0425 23.3444 18.2549 22.7317 17.896C22.1188 17.5372 21.3313 17.743 20.9725 18.3557C20.3433 19.4297 19.4903 20.2827 18.4163 20.9119C17.8036 21.2707 17.5978 22.0583 17.9566 22.6712C18.3155 23.2839 19.1031 23.4896 19.7159 23.1308C21.17 22.2791 22.3396 21.1094 23.1913 19.6553ZM10.8617 22.0826C10.158 21.9873 9.51031 22.4803 9.41498 23.184C9.31965 23.8877 9.81279 24.5355 10.5164 24.6308C11.2588 24.7314 12.0347 24.7812 12.8418 24.7812C13.6489 24.7812 14.4248 24.7314 15.1672 24.6308C15.8708 24.5355 16.364 23.8877 16.2686 23.184C16.1733 22.4803 15.5256 21.9873 14.8219 22.0826C14.2033 22.1664 13.5432 22.2099 12.8418 22.2099C12.1404 22.2099 11.4803 22.1664 10.8617 22.0826Z" fill="#E69F69"/>
<path d="M13.3051 6.86326C13.023 6.6823 12.6614 6.6823 12.3794 6.86326L12.3766 6.86501L12.3724 6.86777L12.3594 6.87627L12.3159 6.90526C12.2794 6.92983 12.2283 6.96492 12.1646 7.01023C12.0372 7.10074 11.8592 7.2324 11.6472 7.4027C11.2246 7.74231 10.6609 8.24079 10.0951 8.87866C8.97655 10.1399 7.77344 12.0347 7.77344 14.38C7.77344 15.609 8.34608 16.7544 9.30744 17.5756C10.2647 18.3932 11.5377 18.8346 12.8422 18.8346C14.1467 18.8346 15.4198 18.3932 16.377 17.5756C17.3384 16.7544 17.911 15.609 17.911 14.38C17.911 12.0347 16.7079 10.1399 15.5893 8.87866C15.0236 8.24079 14.4598 7.74231 14.0372 7.4027C13.8253 7.2324 13.6472 7.10074 13.5199 7.01023C13.4562 6.96492 13.405 6.92983 13.3686 6.90526L13.3251 6.87627L13.312 6.86777L13.3078 6.86501L13.3051 6.86326Z" fill="#514AF3"/>
</g>
</g>
</g>
<defs>
<clipPath id="clip0_7_618">
<rect width="24" height="24" fill="white" transform="translate(0.841797 0.78125)"/>
</clipPath>
</defs>
</svg>
