<svg width="25" height="25" viewBox="0 0 25 25" fill="none" xmlns="http://www.w3.org/2000/svg">
<path d="M3.90024 19.3493C5.00635 19.2912 6.05478 18.8527 6.85709 18.1125C7.23523 18.4884 7.68604 18.7884 8.18386 18.9953C8.68167 19.2023 9.21671 19.3121 9.75841 19.3185C10.8752 19.2982 11.9472 18.8892 12.7786 18.1662C13.122 18.5317 13.5408 18.8231 14.0077 19.0216C14.4748 19.2201 14.9798 19.3214 15.4897 19.3185C16.5641 19.3162 17.5946 18.9053 18.3593 18.174C18.7334 18.5504 19.185 18.8462 19.6849 19.0421C20.1849 19.2381 20.7218 19.3296 21.2607 19.3109C21.3649 19.3041 21.4666 19.2773 21.5601 19.2323C21.6537 19.1873 21.7371 19.1247 21.8056 19.0484C21.874 18.972 21.9263 18.8832 21.9593 18.7872C21.9923 18.6912 22.0055 18.5898 21.9979 18.4889C21.9909 18.3879 21.9634 18.2893 21.9168 18.1987C21.8703 18.1081 21.8059 18.0272 21.727 17.9608C21.6482 17.8945 21.5566 17.8438 21.4576 17.8119C21.3585 17.7798 21.2539 17.7671 21.1497 17.7745C19.8893 17.882 19.0331 16.5837 19.0252 16.5684C18.9546 16.4555 18.8551 16.3621 18.7364 16.2974C18.6177 16.2326 18.4837 16.1986 18.3475 16.1986C18.2112 16.1986 18.0773 16.2326 17.9586 16.2974C17.8399 16.3621 17.7404 16.4555 17.6697 16.5684C17.4337 16.9238 17.1119 17.218 16.732 17.4255C16.3521 17.6331 15.9257 17.7475 15.4897 17.7591C15.0962 17.7494 14.7123 17.6391 14.3768 17.4395C14.0413 17.2399 13.7662 16.9579 13.5793 16.6222C13.5201 16.5009 13.4291 16.3969 13.3155 16.3202C13.2019 16.2436 13.0696 16.1972 12.9317 16.1855C12.7938 16.1739 12.6551 16.1974 12.5296 16.2538C12.404 16.3102 12.2958 16.3975 12.2158 16.5069C11.9195 16.8707 11.5476 17.1701 11.1243 17.3859C10.701 17.6015 10.2357 17.7286 9.75841 17.7591C9.32356 17.7381 8.89959 17.6198 8.51988 17.4132C8.14027 17.2065 7.81532 16.9174 7.57047 16.5684C7.50338 16.4629 7.41093 16.3746 7.30094 16.3113C7.19106 16.2478 7.06687 16.2112 6.93916 16.2044C6.81145 16.1977 6.68384 16.2209 6.56739 16.2723C6.45104 16.3235 6.34908 16.4014 6.27044 16.4993C6.27044 16.4993 5.10517 17.9127 3.80514 17.8052C3.60153 17.8049 3.40575 17.8805 3.25816 18.0164C3.11056 18.1523 3.02261 18.3379 3.01243 18.535C2.97276 18.6809 2.97276 19.3493 3.90024 19.3493Z" fill="#514AF3"/>
<path d="M21.1473 20.9682C19.8889 21.0841 19.0341 19.7708 19.0263 19.7553C18.9557 19.6418 18.8564 19.548 18.7379 19.4829C18.6194 19.4177 18.4856 19.3835 18.3496 19.3835C18.2136 19.3835 18.0798 19.4177 17.9613 19.4829C17.8428 19.548 17.7435 19.6418 17.6729 19.7553C17.4392 20.1156 17.1187 20.4146 16.7393 20.6259C16.3598 20.8374 15.9332 20.9549 15.4965 20.9682C15.1033 20.96 14.7193 20.8498 14.3841 20.6489C14.0489 20.4479 13.7746 20.1635 13.5892 19.8249C13.5227 19.711 13.4287 19.6146 13.3156 19.5438C13.2025 19.4732 13.0735 19.4302 12.9396 19.4189C12.8059 19.4075 12.6712 19.428 12.5472 19.4784C12.4233 19.529 12.3137 19.6081 12.2279 19.709C11.9321 20.0748 11.5609 20.3759 11.1382 20.5928C10.7156 20.8097 10.251 20.9377 9.77458 20.9682C9.33552 20.9411 8.9091 20.8138 8.52968 20.5964C8.15037 20.3789 7.82855 20.0777 7.59026 19.7167C7.52318 19.6106 7.43092 19.5219 7.32113 19.4581C7.21134 19.3944 7.08745 19.3576 6.95993 19.3508C6.83242 19.3439 6.705 19.3673 6.58884 19.419C6.47259 19.4705 6.37083 19.5489 6.29229 19.6472C5.70397 20.3687 4.85387 20.8417 3.91807 20.9682C3.17413 20.9682 3 21.4162 3 21.6944C3 21.8411 3 22.5133 3.92601 22.5133C5.03104 22.4582 6.07898 22.0167 6.87796 21.2695C7.25277 21.6531 7.70172 21.9605 8.19885 22.1739C8.69608 22.3874 9.23151 22.5028 9.77458 22.5133C10.8896 22.4928 11.9599 22.0814 12.7899 21.3545C13.1327 21.722 13.5507 22.015 14.017 22.2147C14.4833 22.4143 14.9873 22.516 15.4965 22.5133C16.5691 22.5109 17.598 22.0975 18.3615 21.3622C18.732 21.745 19.1822 22.0457 19.6819 22.2443C20.1816 22.4428 20.7191 22.5345 21.2581 22.5133C21.3657 22.5066 21.4709 22.4786 21.5671 22.4309C21.6634 22.3831 21.7485 22.3167 21.8174 22.2357C21.8864 22.1546 21.9376 22.0607 21.968 21.9597C21.9983 21.8587 22.0072 21.7526 21.9941 21.648C21.9701 21.4499 21.8687 21.2685 21.7108 21.1418C21.553 21.015 21.3511 20.9529 21.1473 20.9682Z" fill="#514AF3"/>
<path d="M8.82671 10.0743C8.30516 9.84699 7.88379 9.45433 7.63537 8.96422C7.38695 8.4741 7.32699 7.91732 7.46604 7.38982C7.60498 6.86243 7.93403 6.39747 8.39655 6.07513C8.85897 5.7529 9.42579 5.5936 9.99903 5.62467C10.1295 5.62655 10.2564 5.58413 10.3568 5.50523C10.4573 5.42632 10.5247 5.31605 10.5468 5.19423C10.647 4.6267 10.9438 4.1068 11.3904 3.7165C11.8371 3.32621 12.4082 3.08752 13.0138 3.0382C13.6194 2.98898 14.2251 3.1317 14.7356 3.44418C15.246 3.75655 15.6322 4.22082 15.8333 4.7638C15.8698 4.86006 15.9357 4.9438 16.0224 5.00476C16.1092 5.06562 16.213 5.10093 16.3209 5.10616C16.6726 5.12213 17.0043 5.26574 17.247 5.5072C17.4899 5.74866 17.6251 6.06931 17.6247 6.4026C17.625 6.55637 17.5972 6.70905 17.5425 6.85385C17.4997 6.96136 17.4959 7.07932 17.5315 7.1891C17.5673 7.29898 17.6405 7.39446 17.7397 7.46064C17.9614 7.60879 18.1409 7.80675 18.262 8.03656C18.3832 8.26648 18.4423 8.52125 18.4342 8.77799C18.4261 9.03484 18.3509 9.28576 18.2154 9.50828C18.0799 9.7309 17.8882 9.9183 17.6576 10.0536C17.8492 10.3182 18.0191 10.5722 18.1725 10.8056C18.1812 10.8211 18.1937 10.8344 18.2089 10.8443C18.2242 10.8542 18.2418 10.8605 18.2602 10.8627C18.2763 10.8704 18.2941 10.8745 18.3122 10.8745C18.3302 10.8745 18.3481 10.8704 18.3643 10.8627C18.6942 10.6453 18.9696 10.362 19.1709 10.0325C19.3722 9.70308 19.4944 9.33577 19.5289 8.95662C19.5635 8.57747 19.5094 8.19586 19.3706 7.83871C19.2318 7.48155 19.0116 7.15764 18.7258 6.89014C18.7116 6.87555 18.7009 6.85838 18.6942 6.83954C18.6876 6.8208 18.6854 6.80088 18.6874 6.78125C18.7897 6.19468 18.6516 5.59331 18.3013 5.09984C17.9512 4.60638 17.4152 4.258 16.8029 4.12593C16.7617 4.12061 16.7244 4.10009 16.6988 4.06892C16.3674 3.41025 15.834 2.86135 15.1681 2.49394C14.5023 2.12653 13.7349 1.95757 12.9662 2.00905C12.1975 2.06054 11.4629 2.33011 10.8584 2.78264C10.2539 3.23527 9.80737 3.84976 9.57724 4.54601C9.56939 4.5689 9.55502 4.58921 9.53568 4.6048C9.51625 4.62038 9.49278 4.63054 9.46766 4.63419C8.74018 4.73243 8.06264 5.04135 7.52796 5.51864C6.99339 5.99583 6.62773 6.61792 6.48135 7.29967C6.33486 7.98133 6.41488 8.68922 6.71023 9.3262C7.00558 9.96318 7.5018 10.4981 8.13097 10.8575C8.14668 10.8668 8.16426 10.8729 8.18245 10.8755C8.20075 10.8782 8.21946 10.8773 8.23735 10.873C8.25534 10.8685 8.27208 10.8608 8.28676 10.8501C8.30144 10.8394 8.31364 10.8261 8.32274 10.8108C8.47057 10.5775 8.64042 10.3336 8.82671 10.0743Z" fill="#E69F69"/>
<path d="M14.8874 10.8025C14.8874 10.1395 14.0755 8.92748 13.723 8.4354C13.6738 8.36695 13.6083 8.31112 13.532 8.27255C13.4557 8.23399 13.371 8.21387 13.285 8.21387C13.199 8.21387 13.1143 8.23399 13.038 8.27255C12.9617 8.31112 12.8962 8.36695 12.847 8.4354C12.4838 8.92748 11.6826 10.1395 11.6826 10.8025C11.6826 11.2147 11.8514 11.6099 12.152 11.9014C12.4525 12.1928 12.86 12.3565 13.285 12.3565C13.71 12.3565 14.1175 12.1928 14.418 11.9014C14.7186 11.6099 14.8874 11.2147 14.8874 10.8025ZM12.7508 10.8025C12.8389 10.4775 12.9795 10.1681 13.1675 9.88571C13.1789 9.86519 13.1959 9.84803 13.2166 9.836C13.2372 9.82406 13.2609 9.81775 13.285 9.81775C13.3091 9.81775 13.3328 9.82406 13.3534 9.836C13.3741 9.84803 13.3911 9.86519 13.4025 9.88571C13.5916 10.1675 13.7323 10.4771 13.8192 10.8025C13.8192 10.9399 13.7628 11.0717 13.6626 11.1688C13.5625 11.266 13.4266 11.3205 13.285 11.3205C13.1434 11.3205 13.0075 11.266 12.9073 11.1688C12.8072 11.0717 12.7508 10.9399 12.7508 10.8025Z" fill="#514AF3"/>
<path d="M16.9948 10.6C16.9441 10.5332 16.8764 10.4788 16.7977 10.4411C16.719 10.4034 16.6315 10.3838 16.5427 10.3838C16.4539 10.3838 16.3665 10.4034 16.2878 10.4411C16.209 10.4788 16.1414 10.5332 16.0907 10.6C15.7157 11.0803 14.8887 12.2636 14.8887 12.9108C14.8887 13.3131 15.063 13.699 15.3731 13.9834C15.6833 14.268 16.1041 14.4278 16.5427 14.4278C16.9814 14.4278 17.4021 14.268 17.7124 13.9834C18.0225 13.699 18.1968 13.3131 18.1968 12.9108C18.1968 12.2636 17.3698 11.0803 16.9948 10.6ZM16.5427 13.4165C16.3966 13.4165 16.2563 13.3632 16.1529 13.2683C16.0495 13.1735 15.9914 13.0449 15.9914 12.9108C16.0823 12.5936 16.2274 12.2915 16.4215 12.0159C16.4333 11.9958 16.4507 11.979 16.4721 11.9674C16.4934 11.9556 16.5178 11.9495 16.5427 11.9495C16.5677 11.9495 16.592 11.9556 16.6133 11.9674C16.6347 11.979 16.6522 11.9958 16.664 12.0159C16.8592 12.2909 17.0044 12.5931 17.0941 12.9108C17.0941 13.0449 17.036 13.1735 16.9326 13.2683C16.8292 13.3632 16.6889 13.4165 16.5427 13.4165Z" fill="#514AF3"/>
<path d="M10.4436 10.6C10.3912 10.5332 10.3214 10.4788 10.2403 10.4411C10.1591 10.4034 10.069 10.3838 9.97736 10.3838C9.88577 10.3838 9.79562 10.4034 9.71447 10.4411C9.63332 10.4788 9.56354 10.5332 9.51112 10.6C9.12448 11.0803 8.27161 12.2636 8.27161 12.9108C8.27161 13.3131 8.45128 13.699 8.77124 13.9834C9.09109 14.268 9.52498 14.4278 9.97736 14.4278C10.4297 14.4278 10.8636 14.268 11.1835 13.9834C11.5034 13.699 11.6831 13.3131 11.6831 12.9108C11.6831 12.2636 10.8302 11.0803 10.4436 10.6ZM9.97736 13.4165C9.82653 13.4165 9.6819 13.3632 9.57532 13.2683C9.46863 13.1735 9.40878 13.0449 9.40878 12.9108C9.50254 12.5936 9.65223 12.2915 9.85227 12.0159C9.86447 11.9958 9.88246 11.979 9.90458 11.9674C9.9266 11.9556 9.95172 11.9495 9.97736 11.9495C10.003 11.9495 10.0281 11.9556 10.0501 11.9674C10.0723 11.979 10.0903 11.9958 10.1025 12.0159C10.3037 12.2909 10.4535 12.5931 10.5459 12.9108C10.5459 13.0449 10.4861 13.1735 10.3794 13.2683C10.2728 13.3632 10.1282 13.4165 9.97736 13.4165Z" fill="#514AF3"/>
</svg>
