<svg width="25" height="25" viewBox="0 0 25 25" fill="none" xmlns="http://www.w3.org/2000/svg">
<path d="M7.00221 8.95722C7.04314 8.99354 7.09472 9.01293 7.14788 9.01216L12.3488 7.94993C12.4569 7.93648 12.5662 7.93648 12.6743 7.94993C12.7796 7.93648 12.886 7.93648 12.9913 7.94993L18.2008 9.01216C18.2327 9.01694 18.2652 9.01448 18.2962 9.00505C18.3271 8.99548 18.3559 8.97919 18.3807 8.95722C18.4046 8.93589 18.4238 8.90939 18.4372 8.87927C18.4505 8.84928 18.4575 8.81644 18.4579 8.78322V7.4097C18.4579 6.74188 18.2095 6.10134 17.7677 5.62911C17.3259 5.15688 16.7265 4.89161 16.1016 4.89161H14.6364C14.5796 4.89161 14.5251 4.86744 14.485 4.82452C14.4448 4.7816 14.4222 4.72342 14.4222 4.66267V1.47611C14.4245 1.41522 14.4154 1.35446 14.3954 1.29746C14.3754 1.24032 14.345 1.18809 14.3059 1.14375C14.2668 1.09941 14.2198 1.06386 14.1678 1.03917C14.1156 1.01448 14.0594 1.00116 14.0024 1H11.4319C11.3183 1 11.2094 1.04822 11.129 1.13406C11.0487 1.22002 11.0035 1.33637 11.0035 1.45788V4.66267C11.0035 4.72342 10.981 4.7816 10.9408 4.82452C10.9006 4.86744 10.8461 4.89161 10.7893 4.89161H9.28136C8.65645 4.89161 8.05709 5.15688 7.61526 5.62911C7.1733 6.10134 6.92508 6.74188 6.92508 7.4097V8.78322C6.92339 8.81683 6.92944 8.85031 6.943 8.88069C6.95644 8.91107 6.97679 8.93744 7.00221 8.95722Z" fill="#E69F69"/>
<path d="M13.4356 9.5158C13.4107 9.5361 13.3907 9.5626 13.3774 9.59285C13.364 9.6231 13.3574 9.65632 13.3585 9.6898V17.8118C13.359 17.8575 13.3724 17.9021 13.3968 17.9396C13.4212 17.9771 13.4556 18.0059 13.4956 18.0224C14.0033 18.2329 14.4169 18.6422 14.6523 19.167C14.7446 19.3363 14.8754 19.4782 15.0327 19.579C15.19 19.6798 15.3686 19.7366 15.5519 19.7438C15.8066 19.7288 16.0545 19.6506 16.2761 19.5155C16.4977 19.3804 16.6868 19.1922 16.8286 18.9656C17.011 18.6221 17.2769 18.3377 17.5981 18.1426C17.9195 17.9476 18.2842 17.8491 18.6536 17.8576C18.9329 17.8579 19.2096 17.9169 19.4675 18.0316C19.4958 18.0449 19.5266 18.0518 19.5575 18.0518C19.5885 18.0518 19.6191 18.0449 19.6474 18.0316C19.6754 18.018 19.7001 17.9979 19.7194 17.9724C19.7387 17.9469 19.7523 17.9171 19.7588 17.885L21.2497 11.5211C21.2647 11.4611 21.268 11.3983 21.2592 11.3367C21.2503 11.2753 21.2296 11.2165 21.1983 11.164C21.1326 11.0596 21.0311 10.9872 20.9155 10.9625L13.6156 9.46086C13.5836 9.45556 13.5509 9.45763 13.5199 9.4672C13.4888 9.47663 13.4601 9.49318 13.4356 9.5158Z" fill="#E69F69"/>
<path d="M5.6238 17.7385C5.63796 17.7946 5.67151 17.8427 5.71764 17.8734C5.76377 17.904 5.81911 17.9147 5.87238 17.9034C6.01017 17.8714 6.15111 17.856 6.29218 17.8576C6.657 17.8582 7.01577 17.9576 7.33494 18.1466C7.654 18.3356 7.92316 18.6079 8.11714 18.938C8.26498 19.1608 8.45508 19.3477 8.67509 19.4866C8.8951 19.6254 9.13993 19.713 9.39384 19.7439C10.0286 19.681 10.614 19.3517 11.0218 18.8282C11.2621 18.4727 11.5962 18.2016 11.9814 18.0499C12.0227 18.0329 12.058 18.0026 12.0826 17.9633C12.1072 17.9239 12.1197 17.8774 12.1184 17.8302V9.68979C12.1195 9.65502 12.1131 9.6205 12.0997 9.5887C12.0864 9.55703 12.0664 9.52885 12.0414 9.50661C11.9833 9.48347 11.9195 9.48347 11.8615 9.50661L4.50148 10.9534C4.38597 10.978 4.28438 11.0504 4.21863 11.1548C4.18642 11.2069 4.16451 11.2654 4.15421 11.3268C4.14392 11.3882 4.14538 11.4513 4.1587 11.512L5.6238 17.7385Z" fill="#E69F69"/>
<path d="M22.5706 21.8588C22.5407 21.6185 22.4229 21.4006 22.2431 21.253C22.0632 21.1054 21.8359 21.0401 21.6109 21.0712C20.223 21.2727 19.2634 19.6977 19.2548 19.6886C19.1789 19.5519 19.0711 19.4388 18.9419 19.3602C18.8127 19.2815 18.6666 19.2402 18.5179 19.2402C18.3692 19.2402 18.2232 19.2815 18.094 19.3602C17.9648 19.4388 17.8569 19.5519 17.7811 19.6886C17.5412 20.1157 17.2058 20.4725 16.805 20.7266C16.4041 20.9808 15.9504 21.1244 15.4847 21.1445C15.0715 21.1328 14.6685 21.0048 14.3165 20.7733C13.9644 20.5416 13.6758 20.2149 13.4799 19.826C13.4167 19.6808 13.3191 19.556 13.1966 19.4637C13.0742 19.3716 12.9315 19.3152 12.7823 19.3005C12.6332 19.2856 12.4831 19.3128 12.3469 19.3793C12.2108 19.4458 12.0932 19.5493 12.0062 19.6794C11.6984 20.1033 11.3103 20.4529 10.8674 20.7054C10.4243 20.9579 9.93649 21.1076 9.43569 21.1445C8.97521 21.1065 8.52914 20.9553 8.13235 20.7028C7.73556 20.4502 7.39871 20.1031 7.14795 19.6886C7.07518 19.5646 6.97552 19.461 6.85747 19.3867C6.73941 19.3124 6.60646 19.2693 6.46964 19.2613C6.33282 19.2532 6.19623 19.2803 6.07128 19.3403C5.94632 19.4004 5.83662 19.4915 5.75137 19.6062C5.75137 19.6062 4.39767 21.3094 2.97531 21.1445C2.75421 21.11 2.52924 21.1692 2.34834 21.3095C2.16744 21.4498 2.04503 21.66 2.00713 21.8954C1.97795 22.1357 2.03909 22.3787 2.17725 22.5709C2.31528 22.7632 2.51919 22.8889 2.74392 22.9209C2.89793 22.9346 3.05268 22.9346 3.2067 22.9209C4.31061 22.8653 5.36318 22.4064 6.18836 21.6207C6.2282 21.5857 6.27821 21.5666 6.32979 21.5666C6.38125 21.5666 6.43126 21.5857 6.47109 21.6207C7.25619 22.457 8.31046 22.9417 9.41849 22.9758C10.5357 22.9547 11.6124 22.5249 12.4688 21.7581C12.5079 21.7214 12.5582 21.7011 12.6101 21.7011C12.6622 21.7011 12.7124 21.7214 12.7515 21.7581C13.109 22.1443 13.5347 22.4508 14.0039 22.66C14.4731 22.869 14.9764 22.9765 15.4847 22.9758C16.5556 22.9719 17.5872 22.5447 18.3808 21.7763C18.4206 21.7414 18.4707 21.7223 18.5222 21.7223C18.5737 21.7223 18.6237 21.7414 18.6635 21.7763C19.0773 22.2075 19.5757 22.5349 20.1226 22.7345C20.6695 22.9339 21.2511 23.0009 21.8253 22.93C21.9415 22.9158 22.0539 22.8761 22.1552 22.8137C22.2567 22.7513 22.3449 22.6672 22.4148 22.5668C22.4847 22.4664 22.5346 22.3518 22.5613 22.23C22.5881 22.1083 22.5914 21.9818 22.5706 21.8588Z" fill="#514AF3"/>
</svg>
