<svg width="25" height="24" viewBox="0 0 25 24" fill="none" xmlns="http://www.w3.org/2000/svg">
<path d="M12.9194 13.3528C13.5764 13.3528 14.2064 13.0743 14.671 12.5783C15.1355 12.0823 15.3965 11.4097 15.3965 10.7082C15.3965 9.57818 13.9327 6.93833 13.3022 5.85644C13.2618 5.78687 13.2054 5.72944 13.1384 5.68961C13.0714 5.64978 12.996 5.62891 12.9194 5.62891C12.8427 5.62891 12.7672 5.64978 12.7002 5.68961C12.6333 5.72944 12.5769 5.78687 12.5366 5.85644C11.906 6.93833 10.4421 9.57818 10.4421 10.7082C10.4421 11.4097 10.7032 12.0823 11.1677 12.5783C11.6323 13.0743 12.2624 13.3528 12.9194 13.3528ZM11.4556 10.4677C11.5153 10.4677 11.5725 10.4931 11.6148 10.5382C11.657 10.5833 11.6807 10.6445 11.6807 10.7082C11.6807 11.0589 11.8112 11.3953 12.0435 11.6432C12.2758 11.8912 12.5909 12.0306 12.9194 12.0306C12.979 12.0306 13.0364 12.0558 13.0786 12.101C13.1209 12.146 13.1445 12.2073 13.1445 12.271C13.1445 12.3348 13.1209 12.3959 13.0786 12.4409C13.0364 12.4861 12.979 12.5115 12.9194 12.5115C12.4714 12.5115 12.0418 12.3214 11.7251 11.9833C11.4083 11.6451 11.2304 11.1865 11.2304 10.7082C11.2304 10.6445 11.2541 10.5833 11.2963 10.5382C11.3386 10.4931 11.3958 10.4677 11.4556 10.4677Z" fill="#514AF3"/>
<path d="M21.8554 19.2758L18.9841 14.0523C19.8016 12.856 20.293 11.4414 20.4039 9.96528C20.5149 8.48903 20.2411 7.00882 19.6129 5.68862C18.9846 4.36842 18.0265 3.25966 16.8445 2.48511C15.6625 1.7107 14.3029 1.30078 12.916 1.30078C11.5293 1.30078 10.1697 1.7107 8.98772 2.48511C7.80571 3.25966 6.84756 4.36842 6.21918 5.68862C5.59093 7.00882 5.31712 8.48903 5.42816 9.96528C5.53919 11.4414 6.03059 12.856 6.84807 14.0523L3.97681 19.2758C3.93388 19.3494 3.91113 19.4343 3.91113 19.521C3.91113 19.6076 3.93388 19.6926 3.97681 19.7661C4.02383 19.8344 4.08784 19.8874 4.16169 19.9189C4.23541 19.9504 4.31591 19.9591 4.39411 19.9444L7.30715 19.3472L8.24192 22.3511C8.2671 22.4321 8.31347 22.5038 8.37557 22.5575C8.43767 22.6112 8.51305 22.6448 8.59253 22.6541H8.65922C8.73116 22.6537 8.80169 22.6339 8.86455 22.5965C8.92729 22.5591 8.98018 22.5054 9.01813 22.4402L11.8393 17.3415C12.5537 17.4484 13.2785 17.4484 13.9928 17.3415L16.8139 22.4848C16.8528 22.5512 16.907 22.6058 16.9712 22.6433C17.0356 22.6807 17.1079 22.6998 17.1813 22.6987H17.2229C17.3024 22.6894 17.3777 22.6559 17.4399 22.6021C17.502 22.5484 17.5484 22.4767 17.5735 22.3956L18.5083 19.3916L21.4214 19.9889C21.4996 20.0059 21.5808 19.9981 21.6549 19.9665C21.7292 19.9348 21.793 19.8807 21.8387 19.8107C21.8928 19.7343 21.9236 19.6418 21.9266 19.5461C21.9296 19.4503 21.9047 19.3559 21.8554 19.2758ZM6.68951 9.39044C6.68951 8.07515 7.05468 6.7896 7.73889 5.69599C8.42297 4.6025 9.39544 3.7502 10.5332 3.24684C11.671 2.74361 12.9229 2.61184 14.1309 2.86843C15.3387 3.12502 16.4481 3.75838 17.319 4.68831C18.1898 5.61837 18.7828 6.80324 19.0231 8.09316C19.2633 9.38307 19.14 10.7201 18.6687 11.9351C18.1974 13.1502 17.3994 14.1887 16.3754 14.9194C15.3515 15.6501 14.1476 16.0401 12.916 16.0401C11.2654 16.0377 9.68292 15.3364 8.51561 14.0898C7.34842 12.8433 6.69168 11.1533 6.68951 9.39044Z" fill="#E69F69"/>
</svg>
