<svg width="25" height="25" viewBox="0 0 25 25" fill="none" xmlns="http://www.w3.org/2000/svg">
<path d="M14.7247 7.53001L13.5383 6.89564C13.2872 6.57652 12.974 6.31981 12.6205 6.14339C12.267 5.96697 11.8818 5.8752 11.4918 5.87439H10.8986C10.6316 7.07328 10.0443 8.83667 7.77822 8.33563C7.6622 8.3096 7.56042 8.23578 7.49491 8.1301C7.4294 8.02443 7.40547 7.89547 7.42827 7.77104C7.45258 7.65251 7.51831 7.54845 7.61206 7.48005C7.70574 7.41165 7.8204 7.38416 7.93248 7.40316C8.14604 7.47188 8.37021 7.495 8.5921 7.47107C8.81399 7.44706 9.02929 7.37664 9.22566 7.2636C9.89005 6.78787 10.068 5.36057 10.1986 4.6502C10.2346 4.26615 10.1352 3.88151 9.91973 3.57181C9.71488 3.35694 9.46656 3.1954 9.19393 3.09969C8.92137 3.00399 8.63178 2.97671 8.34771 3.01995C6.64521 3.06435 6.35456 3.33077 5.97492 3.84457C5.51508 3.66987 5.02283 3.61549 4.53929 3.68599C3.82287 3.8107 3.1722 4.20673 2.70607 4.8018C2.24003 5.39688 1.98951 6.15123 2.00034 6.92742V11.5833C2.04025 12.4989 2.38785 13.3683 2.97916 14.0319C3.03459 14.0899 3.10919 14.1225 3.18681 14.1225C3.26444 14.1225 3.33895 14.0899 3.39439 14.0319L4.28423 13.0804C4.31202 13.0509 4.33413 13.0158 4.34913 12.9771C4.3642 12.9385 4.372 12.897 4.372 12.8551C4.372 12.8133 4.3642 12.7719 4.34913 12.7332C4.33413 12.6946 4.31202 12.6595 4.28423 12.63C3.92496 12.1571 3.74502 11.5571 3.78001 10.949V10.746C3.77978 10.6983 3.78978 10.6512 3.80939 10.6082C3.82893 10.5654 3.85741 10.5279 3.8927 10.4987C3.92791 10.4681 3.96941 10.447 4.01379 10.4371C4.05817 10.4271 4.10406 10.4287 4.14776 10.4415C4.46045 10.5187 4.77754 10.5738 5.09689 10.6065C5.16043 10.6124 5.22041 10.6403 5.26751 10.6862C5.3147 10.732 5.3465 10.7931 5.35794 10.8602L5.40542 11.1013C5.57491 12.1481 5.62671 13.2129 5.55961 14.2729V15.7001C5.55961 15.7843 5.59089 15.8649 5.64647 15.9244C5.70213 15.9839 5.77756 16.0173 5.85625 16.0173H7.63585C7.71453 16.0173 7.78996 15.9839 7.84562 15.9244C7.9012 15.8649 7.93248 15.7843 7.93248 15.7001V13.1628C7.93248 13.0787 7.96376 12.998 8.01935 12.9386C8.07501 12.8791 8.15044 12.8457 8.22912 12.8457H11.4918C11.5704 12.8457 11.6459 12.8791 11.7015 12.9386C11.7571 12.998 11.7883 13.0787 11.7883 13.1628V15.7001C11.7883 15.7843 11.8196 15.8649 11.8753 15.9244C11.9308 15.9839 12.0063 16.0173 12.085 16.0173H13.8646C13.9432 16.0173 14.0187 15.9839 14.0743 15.9244C14.1299 15.8649 14.1612 15.7843 14.1612 15.7001V8.64643C14.5481 8.84969 14.8475 9.20383 14.9976 9.63598C15.0327 9.75281 15.0507 9.87482 15.051 9.99756V12.5348C15.051 12.703 15.1135 12.8644 15.2248 12.9834C15.336 13.1023 15.4869 13.1692 15.6442 13.1692C15.8015 13.1692 15.9524 13.1023 16.0637 12.9834C16.1749 12.8644 16.2374 12.703 16.2374 12.5348V9.99756C16.2071 9.48123 16.0517 8.98229 15.7865 8.54965C15.5213 8.117 15.1554 7.76562 14.7247 7.53001ZM3.33509 6.9845C3.33509 6.85902 3.36985 6.73636 3.43506 6.63206C3.50026 6.52776 3.59288 6.44643 3.70133 6.39848C3.8097 6.35045 3.92897 6.33784 4.04401 6.36234C4.15912 6.38684 4.26484 6.44723 4.34777 6.53593C4.43077 6.62463 4.48726 6.73766 4.51013 6.86071C4.533 6.98377 4.52126 7.11136 4.47636 7.22722C4.43145 7.34316 4.35541 7.44221 4.25787 7.5119C4.16033 7.5816 4.0456 7.61879 3.92829 7.61879C3.771 7.61879 3.62007 7.55201 3.50882 7.43299C3.39757 7.31406 3.33509 7.15276 3.33509 6.9845Z" fill="#E69F69"/>
<mask id="mask0_7_1190" style="mask-type:luminance" maskUnits="userSpaceOnUse" x="10" y="8" width="13" height="14">
<path d="M22.516 8.82129H10.1719V22.0003H22.516V8.82129Z" fill="white"/>
</mask>
<g mask="url(#mask0_7_1190)">
<path d="M21.1067 13.0376C20.1192 12.4061 18.8951 12.7137 18.3396 12.9059C18.2007 12.1755 17.1977 11.7581 16.3851 12.5379C16.2047 12.348 15.9825 12.2098 15.7388 12.1359C15.4952 12.062 15.2381 12.0549 14.9912 12.1151C14.8691 11.5791 14.5803 11.1032 14.1721 10.765C13.7638 10.4269 13.2602 10.2466 12.7435 10.2536C12.5135 10.2433 12.2838 10.2823 12.068 10.3685C11.8523 10.4546 11.6549 10.5859 11.4875 10.7548C11.3203 10.9238 11.1863 11.1268 11.0937 11.352C11.0011 11.5771 10.9518 11.8198 10.9485 12.0657L10.7274 12.5434C10.6875 12.6402 10.684 12.7496 10.7177 12.849C10.7513 12.9485 10.8194 13.0303 10.908 13.0775C10.9965 13.1248 11.0987 13.1339 11.1934 13.103C11.2881 13.072 11.368 13.0034 11.4166 12.9113C11.425 12.893 11.4373 12.8771 11.4524 12.8646C11.4676 12.8522 11.4853 12.8438 11.504 12.84C11.521 12.832 11.5394 12.8277 11.5581 12.8277C11.5766 12.8277 11.595 12.832 11.612 12.84L11.8024 12.9992C11.8191 13.0096 11.8335 13.0237 11.8446 13.0407C11.8557 13.0577 11.8633 13.077 11.8667 13.0974C11.8701 13.1178 11.8694 13.1387 11.8645 13.1587C11.8595 13.1787 11.8507 13.1973 11.8383 13.2133L11.756 13.389C11.7331 13.4374 11.7193 13.49 11.7153 13.5441C11.7115 13.5981 11.7175 13.6524 11.7333 13.7039C11.7652 13.8079 11.8344 13.8942 11.9258 13.9437C12.0171 13.9932 12.1232 14.0019 12.2207 13.9679C12.3181 13.934 12.3989 13.8601 12.4452 13.7625L12.507 13.6362L12.7435 13.7899C12.8764 13.8989 12.977 14.0464 13.0331 14.2149C13.0893 14.3834 13.0986 14.5657 13.06 14.7398C13.0215 14.9137 12.9366 15.0722 12.8156 15.1959C12.6948 15.3197 12.5429 15.4036 12.3784 15.4373V15.1902C12.3784 15.081 12.3378 14.9762 12.2654 14.899C12.1931 14.8217 12.0949 14.7783 11.9926 14.7783C11.8904 14.7783 11.7922 14.8217 11.7199 14.899C11.6475 14.9762 11.6069 15.081 11.6069 15.1902V15.3275C11.6069 15.3639 11.5933 15.3988 11.5692 15.4246C11.5451 15.4503 11.5124 15.4648 11.4783 15.4648H11.0719C11.0379 15.4648 11.0051 15.4503 10.9811 15.4246C10.9569 15.3988 10.9433 15.3639 10.9433 15.3275V15.1902C10.9433 15.081 10.9028 14.9762 10.8304 14.899C10.758 14.8217 10.66 14.7783 10.5576 14.7783C10.4553 14.7783 10.3572 14.8217 10.2849 14.899C10.2125 14.9762 10.1719 15.081 10.1719 15.1902V15.7393C10.1719 16.2116 10.4959 17.1121 11.7149 17.1121H13.7723C14.014 17.1121 14.2866 17.1121 14.2866 17.9358V20.2861C14.2866 20.3589 14.3137 20.4287 14.3619 20.4802C14.4101 20.5317 14.4756 20.5607 14.5437 20.5607H16.0868C16.155 20.5607 16.2204 20.5317 16.2686 20.4802C16.3168 20.4287 16.3439 20.3589 16.3439 20.2861V18.6387C16.8106 18.8661 17.313 18.9983 17.8252 19.0286C18.194 19.0261 18.5607 18.9707 18.9156 18.8638V20.2806C18.9156 20.3534 18.9427 20.4232 18.991 20.4747C19.0392 20.5262 19.1046 20.5552 19.1728 20.5552H20.7158C20.784 20.5552 20.8495 20.5262 20.8976 20.4747C20.9459 20.4232 20.973 20.3534 20.973 20.2806V18.419C21.4249 18.2287 21.8131 17.8986 22.088 17.471C22.3629 17.0435 22.512 16.538 22.516 16.0194C22.516 14.9046 22.516 13.9437 21.1067 13.0376ZM15.5724 13.6856C15.5724 13.767 15.5498 13.8467 15.5074 13.9144C15.465 13.9822 15.4048 14.0349 15.3343 14.0661C15.2638 14.0972 15.1862 14.1054 15.1114 14.0895C15.0366 14.0736 14.9678 14.0344 14.9139 13.9768C14.86 13.9192 14.8232 13.8458 14.8083 13.766C14.7934 13.6861 14.8011 13.6032 14.8303 13.528C14.8595 13.4527 14.9089 13.3884 14.9724 13.3432C15.0358 13.2979 15.1104 13.2737 15.1867 13.2737C15.289 13.2737 15.3871 13.3171 15.4595 13.3944C15.5318 13.4716 15.5724 13.5764 15.5724 13.6856Z" fill="#514AF3"/>
</g>
</svg>
