<svg width="25" height="25" viewBox="0 0 25 25" fill="none" xmlns="http://www.w3.org/2000/svg">
<path d="M6.33761 9.82083C7.40378 9.82083 8.26806 8.91347 8.26806 7.79417C8.26806 6.67494 7.40378 5.76758 6.33761 5.76758C5.27151 5.76758 4.40723 6.67494 4.40723 7.79417C4.40723 8.91347 5.27151 9.82083 6.33761 9.82083Z" fill="#514AF3"/>
<path d="M6.33787 10.6455C6.77325 10.6455 7.13521 10.6626 7.42369 10.6853C8.01245 10.7316 8.48813 11.1584 8.68448 11.7471C8.96713 12.5945 7.84942 14.4895 7.99337 15.7104C8.13077 16.3261 8.94295 17.0015 8.34382 17.0765C8.58292 17.0569 8.16518 17.0988 8.34382 17.0765L8.20448 19.4922C8.1741 20.0182 7.82294 20.4721 7.31789 20.5244C7.27808 20.5286 7.23677 20.5326 7.19394 20.5364C6.92598 20.5602 6.70235 20.3353 6.69047 20.0527L6.58957 17.6557C6.58575 17.5643 6.51601 17.4923 6.43122 17.4923H6.24459C6.1598 17.4923 6.09006 17.5643 6.08617 17.6557L5.98526 20.0527C5.97338 20.3353 5.74983 20.5602 5.48179 20.5364C5.43904 20.5326 5.39773 20.5286 5.35792 20.5244C4.85287 20.4721 4.50163 20.0182 4.47133 19.4922L4.33199 17.0765C4.09288 17.0569 3.88509 17.035 3.70645 17.0126C3.10735 16.9377 2.75536 16.3261 2.89282 15.7104C3.27157 14.0139 3.70868 12.5945 3.99125 11.7471C4.1876 11.1584 4.66336 10.7316 5.25205 10.6853C5.5406 10.6626 5.90249 10.6455 6.33787 10.6455Z" fill="#514AF3"/>
<path d="M9.47618 18.6858C9.16885 18.2096 7.38192 15.642 8.74945 13.8362C7.53076 15.0657 5.07813 14.8736 3.35127 13.6441C3.13548 13.4904 1.8241 18.5348 2.01985 18.6858C3.60328 19.9068 9.79316 19.1768 9.47618 18.6858Z" fill="#E69F69" stroke="#EEEEEE" stroke-width="0.5"/>
<path d="M18.0925 9.82083C19.1587 9.82083 20.0229 8.91347 20.0229 7.79417C20.0229 6.67494 19.1587 5.76758 18.0925 5.76758C17.0264 5.76758 16.1621 6.67494 16.1621 7.79417C16.1621 8.91347 17.0264 9.82083 18.0925 9.82083Z" fill="#514AF3"/>
<path d="M18.1952 10.6455C17.7598 10.6455 17.3979 10.6626 17.1094 10.6853C16.5207 10.7316 16.045 11.1584 15.8486 11.7471C15.566 12.5945 16.6837 14.4895 16.5398 15.7104C16.4024 16.3261 15.5902 17.0015 16.1893 17.0765C16.3679 17.0988 15.9502 17.0569 16.1893 17.0765L16.3287 19.4922C16.359 20.0182 16.7102 20.4721 17.2153 20.5244C17.2551 20.5286 17.2964 20.5326 17.3391 20.5364C17.6072 20.5602 17.8307 20.3353 17.8426 20.0527L17.9435 17.6557C17.9474 17.5643 18.0172 17.4923 18.1019 17.4923H18.2886C18.3733 17.4923 18.4431 17.5643 18.4469 17.6557L18.5478 20.0527C18.5597 20.3353 18.7833 20.5602 19.0513 20.5364C19.094 20.5326 19.1354 20.5286 19.1752 20.5244C19.6802 20.4721 20.0315 20.0182 20.0618 19.4922L20.2012 17.0765C20.4402 17.0569 20.648 17.035 20.8267 17.0126C21.4258 16.9377 21.7778 16.3261 21.6403 15.7104C21.2615 14.0139 20.8245 12.5945 20.5418 11.7471C20.3455 11.1584 19.8698 10.7316 19.281 10.6853C18.9926 10.6626 18.6306 10.6455 18.1952 10.6455Z" fill="#514AF3"/>
<path d="M14.9387 18.6536C15.7935 16.512 16.8302 16.7448 16.0886 14.4054C16.0394 14.2502 16.2493 14.0803 16.3847 14.1574C17.6642 14.8855 19.5442 14.4819 21.1954 13.6097C21.5042 13.4467 22.813 18.0301 22.9968 18.7989C23.1822 19.5743 14.6529 19.3694 14.9387 18.6536Z" fill="#E69F69" stroke="#EEEEEE" stroke-width="0.5"/>
<path d="M20.0189 10.749L19.5244 10.4976C19.3299 10.3988 19.121 10.5517 19.1012 10.7589C19.0578 11.2122 18.8833 11.868 18.3927 12.2611C18.0215 12.5585 17.4497 12.7137 16.9372 12.808C16.7488 12.8426 16.5737 12.8682 16.423 12.8903C16.3706 12.8979 16.3211 12.9052 16.275 12.9122C16.1874 12.9255 16.1093 12.9387 16.0494 12.953C16.0197 12.96 15.9898 12.9685 15.9635 12.9792C15.9444 12.9871 15.8984 13.0069 15.8666 13.0522C15.8342 13.0983 15.8299 13.1508 15.8287 13.1743C15.8271 13.2047 15.8292 13.2371 15.8326 13.2681C15.8395 13.3306 15.8542 13.408 15.8728 13.4928C15.9045 13.638 15.9512 13.8204 16.0008 14.0139C16.0093 14.0471 16.018 14.0807 16.0265 14.1144C16.0859 14.347 16.1471 14.5916 16.1934 14.8156C16.2404 15.0424 16.2696 15.237 16.2696 15.3728C16.2696 15.6069 16.2134 15.8028 16.1482 15.9634C16.1155 16.0442 16.0807 16.1155 16.0489 16.1802C16.047 16.1839 16.0452 16.1878 16.0433 16.1916C16.0152 16.2486 15.9855 16.3089 15.9679 16.3607C15.9532 16.4037 15.9197 16.5147 15.9917 16.6076C16.0257 16.6514 16.0701 16.6719 16.1058 16.682C16.1416 16.692 16.1798 16.6948 16.2169 16.6947C16.358 16.694 16.602 16.6457 16.9829 16.5607C17.5592 16.4319 18.1741 16.009 18.6887 15.4411C19.2048 14.8714 19.6336 14.1411 19.8275 13.3767C19.9095 13.0528 20.016 12.5742 20.0918 12.1172C20.1296 11.8888 20.1601 11.6636 20.1758 11.4647C20.1912 11.269 20.1934 11.0867 20.1687 10.9497C20.1508 10.8506 20.0861 10.7832 20.0189 10.749Z" fill="#E69F69" stroke="#EEEEEE" stroke-width="0.5"/>
<path d="M12.2775 8.53375C13.4701 8.53375 14.4368 7.51881 14.4368 6.26688C14.4368 5.01495 13.4701 4 12.2775 4C11.085 4 10.1183 5.01495 10.1183 6.26688C10.1183 7.51881 11.085 8.53375 12.2775 8.53375Z" fill="#514AF3"/>
<path d="M12.2763 9.45605C12.7633 9.45605 13.1682 9.47527 13.4909 9.50062C14.1494 9.55249 14.6815 10.0298 14.9011 10.6882C15.2172 11.6361 15.7062 13.2238 16.1298 15.1214C16.2835 15.8101 15.8898 16.4941 15.2197 16.578C15.0199 16.603 14.7875 16.6275 14.5201 16.6494L14.3642 19.3516C14.3302 19.9399 13.9374 20.4476 13.3725 20.5062C13.3279 20.5108 13.2817 20.5153 13.2339 20.5196C12.9341 20.5462 12.684 20.2946 12.6707 19.9785L12.5578 17.2974C12.5536 17.1951 12.4755 17.1146 12.3807 17.1146H12.1719C12.0771 17.1146 11.9991 17.1951 11.9947 17.2974L11.8819 19.9785C11.8686 20.2946 11.6185 20.5462 11.3188 20.5196C11.2709 20.5153 11.2247 20.5108 11.1802 20.5062C10.6153 20.4476 10.2224 19.9399 10.1885 19.3516L10.0326 16.6494C9.76516 16.6275 9.53275 16.603 9.33288 16.578C8.66279 16.4941 8.26908 15.8101 8.42282 15.1214C8.84647 13.2238 9.3354 11.6361 9.65151 10.6882C9.87111 10.0298 10.4032 9.55249 11.0617 9.50062C11.3845 9.47527 11.7893 9.45605 12.2763 9.45605Z" fill="#514AF3"/>
<path d="M13.212 11.1843C13.6784 10.8656 14.0626 10.2589 14.1075 9.61168C14.1135 9.526 14.1783 9.4663 14.2467 9.51163C14.4126 9.62167 14.6362 9.86857 14.7235 10.0316C14.8675 10.3006 14.7955 11.4532 14.5076 12.5675C14.2197 13.6817 13.9318 14.1812 13.7159 14.3733C13.1942 14.8373 12.2044 15.2186 11.1967 14.6422C10.1891 14.0659 9.99523 12.5157 9.90116 11.6453C9.7932 10.6464 9.90116 9.91637 10.0451 9.72426C10.1305 9.61022 10.3335 9.46799 10.5306 9.39176C10.6243 9.35549 10.7029 9.44885 10.6875 9.55397C10.6213 10.0052 10.7471 10.1858 10.8728 10.4543C11.3227 11.4148 12.5373 11.6453 13.212 11.1843Z" fill="#E69F69" stroke="#EEEEEE" stroke-width="0.5"/>
</svg>
