<svg width="25" height="25" viewBox="0 0 25 25" fill="none" xmlns="http://www.w3.org/2000/svg">
<g clip-path="url(#clip0_7_629)">
<mask id="mask0_7_629" style="mask-type:luminance" maskUnits="userSpaceOnUse" x="0" y="0" width="25" height="25">
<path d="M24.8418 0.78125H0.841797V24.7812H24.8418V0.78125Z" fill="white"/>
</mask>
<g mask="url(#mask0_7_629)">
<mask id="mask1_7_629" style="mask-type:luminance" maskUnits="userSpaceOnUse" x="0" y="0" width="25" height="25">
<path d="M24.8418 0.78125H0.841797V24.7812H24.8418V0.78125Z" fill="white"/>
</mask>
<g mask="url(#mask1_7_629)">
<path d="M12.8418 1.53125C19.055 1.53125 24.0918 6.56805 24.0918 12.7812C24.0918 18.9945 19.055 24.0312 12.8418 24.0312C6.6286 24.0312 1.5918 18.9945 1.5918 12.7812C1.5918 6.56805 6.6286 1.53125 12.8418 1.53125Z" fill="#514AF3"/>
<path d="M13.0918 1.78125C13.0918 4.61794 12.0419 7.2094 10.3095 9.1883L12.8418 11.7206L20.2488 4.31356C20.6254 4.64323 20.9798 4.99764 21.3095 5.37422L13.9024 12.7812L16.4347 15.3135C18.4136 13.5812 21.0051 12.5312 23.8418 12.5312C23.9244 12.5312 24.0069 12.5321 24.0892 12.5339C24.0909 12.6161 24.0918 12.6986 24.0918 12.7812C24.0918 13.2043 24.0685 13.622 24.023 14.0329C23.9627 14.0319 23.9023 14.0312 23.8418 14.0312C21.4194 14.0312 19.2033 14.9148 17.4981 16.377L21.3095 20.1882C20.9798 20.5648 20.6254 20.9192 20.2488 21.2489L16.4375 17.4375C14.9753 19.1427 14.0918 21.3589 14.0918 23.7812C14.0918 23.8417 14.0924 23.9022 14.0934 23.9625C13.6825 24.008 13.2649 24.0312 12.8418 24.0312C12.7591 24.0312 12.6767 24.0304 12.5945 24.0287C12.5927 23.9464 12.5918 23.8638 12.5918 23.7812C12.5918 20.9446 13.6417 18.3531 15.3741 16.3742L12.8418 13.8419L5.43477 21.2489C5.05819 20.9192 4.70378 20.5648 4.37411 20.1882L11.7812 12.7812L9.24885 10.249C7.26995 11.9813 4.67849 13.0312 1.8418 13.0312C1.75914 13.0312 1.67669 13.0304 1.59446 13.0286C1.59269 12.9464 1.5918 12.8639 1.5918 12.7812C1.5918 12.3582 1.61515 11.9405 1.66064 11.5296C1.7209 11.5306 1.78128 11.5312 1.8418 11.5312C4.26422 11.5312 6.4803 10.6478 8.18545 9.18555L4.37411 5.37422C4.70378 4.99764 5.05819 4.64323 5.43477 4.31356L9.2461 8.1249C10.7083 6.41975 11.5918 4.20367 11.5918 1.78125C11.5918 1.72073 11.5912 1.66035 11.5902 1.60009C12.0011 1.5546 12.4187 1.53125 12.8418 1.53125C12.9245 1.53125 13.0069 1.53214 13.0891 1.53391C13.0909 1.61614 13.0918 1.6986 13.0918 1.78125Z" fill="#E69F69"/>
</g>
</g>
</g>
<defs>
<clipPath id="clip0_7_629">
<rect width="24" height="24" fill="white" transform="translate(0.841797 0.78125)"/>
</clipPath>
</defs>
</svg>
