<svg width="25" height="25" viewBox="0 0 25 25" fill="none" xmlns="http://www.w3.org/2000/svg">
<path d="M12.3047 2.09375C17.8275 2.09375 22.3047 6.57089 22.3047 12.0938C22.3047 17.6166 17.8275 22.0938 12.3047 22.0938C6.78183 22.0938 2.30469 17.6166 2.30469 12.0938C2.30469 6.57089 6.78183 2.09375 12.3047 2.09375Z" fill="#514AF3"/>
<path d="M12.5269 2.31593C12.5269 4.83742 11.5937 7.14096 10.0538 8.90001L12.3047 11.1509L18.8888 4.56695C19.2235 4.86001 19.5384 5.17497 19.8315 5.50967L13.2475 12.0938L15.4984 14.3446C17.2575 12.8048 19.561 11.8716 22.0825 11.8716C22.156 11.8716 22.2292 11.8724 22.3024 11.8739C22.3039 11.9469 22.3047 12.0203 22.3047 12.0938C22.3047 12.4698 22.2839 12.8411 22.2435 13.2063C22.19 13.2053 22.1363 13.2049 22.0825 13.2049C19.9292 13.2049 17.9594 13.9902 16.4436 15.2899L19.8315 18.6778C19.5384 19.0125 19.2235 19.3275 18.8888 19.6206L15.5009 16.2327C14.2012 17.7484 13.4158 19.7182 13.4158 21.8716C13.4158 21.9253 13.4163 21.9791 13.4172 22.0325C13.052 22.0729 12.6807 22.0938 12.3047 22.0938C12.2312 22.0938 12.1579 22.0929 12.0848 22.0914C12.0833 22.0182 12.0825 21.945 12.0825 21.8716C12.0825 19.3501 13.0157 17.0465 14.5556 15.2875L12.3047 13.0366L5.72061 19.6206C5.38591 19.3275 5.07095 19.0125 4.77788 18.6778L11.3618 12.0938L9.11095 9.84287C7.3519 11.3827 5.04836 12.3159 2.52686 12.3159C2.45339 12.3159 2.3802 12.3151 2.307 12.3136C2.3055 12.2406 2.30469 12.1672 2.30469 12.0938C2.30469 11.7177 2.3255 11.3464 2.36591 10.9812C2.41938 10.9822 2.47312 10.9826 2.52686 10.9826C4.6802 10.9826 6.64999 10.1973 8.16578 8.89756L4.77788 5.50967C5.07095 5.17497 5.38591 4.86001 5.72061 4.56695L9.1085 7.95484C10.4082 6.43906 11.1935 4.46926 11.1935 2.31593C11.1935 2.26218 11.1931 2.20844 11.1922 2.15497C11.5573 2.11457 11.9286 2.09375 12.3047 2.09375C12.3782 2.09375 12.4515 2.09457 12.5246 2.09606C12.526 2.16926 12.5269 2.24246 12.5269 2.31593Z" fill="#E69F69"/>
</svg>
